G04 EAGLE Gerber RS-274X export*
G75*
%MOMM*%
%FSLAX34Y34*%
%LPD*%
%INSolderpaste Top*%
%IPPOS*%
%AMOC8*
5,1,8,0,0,1.08239X$1,22.5*%
G01*
%ADD10R,1.000000X0.300000*%
%ADD11R,1.000000X0.600000*%
%ADD12R,1.000000X1.100000*%
%ADD13R,0.300000X0.650000*%
%ADD14R,1.375000X0.800000*%
%ADD15R,1.100000X1.000000*%
%ADD16R,0.250000X0.275000*%
%ADD17R,0.275000X0.250000*%
%ADD18R,0.725000X0.522000*%
%ADD19R,0.500000X0.200000*%
%ADD20R,0.200000X0.500000*%
%ADD21R,0.300000X1.400000*%
%ADD22R,1.250000X2.300000*%
%ADD23R,1.400000X1.600000*%
%ADD24R,1.700000X4.200000*%
%ADD25R,0.630000X0.830000*%
%ADD26R,2.000000X1.200000*%
%ADD27R,1.350000X0.600000*%
%ADD28R,3.000000X0.900000*%
%ADD29R,0.762000X1.524000*%
%ADD30R,1.000000X2.800000*%
%ADD31R,2.750000X1.200000*%
%ADD32R,1.450000X0.200000*%
%ADD33R,0.500000X0.422000*%
%ADD34R,1.800000X1.400000*%
%ADD35R,1.400000X1.900000*%
%ADD36R,0.800000X1.500000*%
%ADD37R,0.550000X1.200000*%

G36*
X752986Y934737D02*
X752986Y934737D01*
X753013Y934733D01*
X753054Y934751D01*
X753096Y934760D01*
X753132Y934786D01*
X753141Y934790D01*
X753145Y934795D01*
X753156Y934804D01*
X777156Y958804D01*
X777177Y958842D01*
X777206Y958875D01*
X777210Y958902D01*
X777223Y958926D01*
X777220Y958970D01*
X777227Y959013D01*
X777216Y959039D01*
X777214Y959066D01*
X777188Y959101D01*
X777170Y959141D01*
X777147Y959156D01*
X777131Y959178D01*
X777090Y959194D01*
X777054Y959218D01*
X777010Y959225D01*
X777001Y959228D01*
X776994Y959227D01*
X776980Y959229D01*
X752980Y959229D01*
X752964Y959224D01*
X752947Y959227D01*
X752897Y959205D01*
X752846Y959190D01*
X752835Y959177D01*
X752819Y959170D01*
X752789Y959125D01*
X752754Y959085D01*
X752751Y959068D01*
X752742Y959054D01*
X752731Y958980D01*
X752731Y934980D01*
X752743Y934938D01*
X752746Y934894D01*
X752762Y934872D01*
X752770Y934846D01*
X752803Y934817D01*
X752829Y934782D01*
X752855Y934772D01*
X752875Y934754D01*
X752919Y934747D01*
X752959Y934732D01*
X752986Y934737D01*
G37*
G36*
X138306Y934737D02*
X138306Y934737D01*
X138333Y934733D01*
X138374Y934751D01*
X138416Y934760D01*
X138452Y934786D01*
X138461Y934790D01*
X138465Y934795D01*
X138476Y934804D01*
X162476Y958804D01*
X162497Y958842D01*
X162526Y958875D01*
X162530Y958902D01*
X162543Y958926D01*
X162540Y958970D01*
X162547Y959013D01*
X162536Y959039D01*
X162534Y959066D01*
X162508Y959101D01*
X162490Y959141D01*
X162467Y959156D01*
X162451Y959178D01*
X162410Y959194D01*
X162374Y959218D01*
X162330Y959225D01*
X162321Y959228D01*
X162314Y959227D01*
X162300Y959229D01*
X138300Y959229D01*
X138284Y959224D01*
X138267Y959227D01*
X138217Y959205D01*
X138166Y959190D01*
X138155Y959177D01*
X138139Y959170D01*
X138109Y959125D01*
X138074Y959085D01*
X138071Y959068D01*
X138062Y959054D01*
X138051Y958980D01*
X138051Y934980D01*
X138063Y934938D01*
X138066Y934894D01*
X138082Y934872D01*
X138090Y934846D01*
X138123Y934817D01*
X138149Y934782D01*
X138175Y934772D01*
X138195Y934754D01*
X138239Y934747D01*
X138279Y934732D01*
X138306Y934737D01*
G37*
G36*
X752986Y383557D02*
X752986Y383557D01*
X753013Y383553D01*
X753054Y383571D01*
X753096Y383580D01*
X753132Y383606D01*
X753141Y383610D01*
X753145Y383615D01*
X753156Y383624D01*
X777156Y407624D01*
X777177Y407662D01*
X777206Y407695D01*
X777210Y407722D01*
X777223Y407746D01*
X777220Y407790D01*
X777227Y407833D01*
X777216Y407859D01*
X777214Y407886D01*
X777188Y407921D01*
X777170Y407961D01*
X777147Y407976D01*
X777131Y407998D01*
X777090Y408014D01*
X777054Y408038D01*
X777010Y408045D01*
X777001Y408048D01*
X776994Y408047D01*
X776980Y408049D01*
X752980Y408049D01*
X752964Y408044D01*
X752947Y408047D01*
X752897Y408025D01*
X752846Y408010D01*
X752835Y407997D01*
X752819Y407990D01*
X752789Y407945D01*
X752754Y407905D01*
X752751Y407888D01*
X752742Y407874D01*
X752731Y407800D01*
X752731Y383800D01*
X752743Y383758D01*
X752746Y383714D01*
X752762Y383692D01*
X752770Y383666D01*
X752803Y383637D01*
X752829Y383602D01*
X752855Y383592D01*
X752875Y383574D01*
X752919Y383567D01*
X752959Y383552D01*
X752986Y383557D01*
G37*
G36*
X138306Y383557D02*
X138306Y383557D01*
X138333Y383553D01*
X138374Y383571D01*
X138416Y383580D01*
X138452Y383606D01*
X138461Y383610D01*
X138465Y383615D01*
X138476Y383624D01*
X162476Y407624D01*
X162497Y407662D01*
X162526Y407695D01*
X162530Y407722D01*
X162543Y407746D01*
X162540Y407790D01*
X162547Y407833D01*
X162536Y407859D01*
X162534Y407886D01*
X162508Y407921D01*
X162490Y407961D01*
X162467Y407976D01*
X162451Y407998D01*
X162410Y408014D01*
X162374Y408038D01*
X162330Y408045D01*
X162321Y408048D01*
X162314Y408047D01*
X162300Y408049D01*
X138300Y408049D01*
X138284Y408044D01*
X138267Y408047D01*
X138217Y408025D01*
X138166Y408010D01*
X138155Y407997D01*
X138139Y407990D01*
X138109Y407945D01*
X138074Y407905D01*
X138071Y407888D01*
X138062Y407874D01*
X138051Y407800D01*
X138051Y383800D01*
X138063Y383758D01*
X138066Y383714D01*
X138082Y383692D01*
X138090Y383666D01*
X138123Y383637D01*
X138149Y383602D01*
X138175Y383592D01*
X138195Y383574D01*
X138239Y383567D01*
X138279Y383552D01*
X138306Y383557D01*
G37*
G36*
X674985Y604534D02*
X674985Y604534D01*
X674988Y604531D01*
X676083Y604711D01*
X676089Y604717D01*
X676094Y604714D01*
X677122Y605133D01*
X677126Y605140D01*
X677131Y605138D01*
X678040Y605776D01*
X678043Y605783D01*
X678048Y605783D01*
X678792Y606606D01*
X678793Y606614D01*
X678799Y606615D01*
X679341Y607583D01*
X679340Y607592D01*
X679346Y607594D01*
X679659Y608658D01*
X679656Y608666D01*
X679661Y608669D01*
X679729Y609777D01*
X679725Y609784D01*
X679729Y609787D01*
X679559Y610895D01*
X679553Y610901D01*
X679556Y610906D01*
X679144Y611948D01*
X679137Y611952D01*
X679139Y611957D01*
X678505Y612882D01*
X678497Y612884D01*
X678498Y612890D01*
X677675Y613650D01*
X677666Y613651D01*
X677666Y613657D01*
X676694Y614214D01*
X676686Y614213D01*
X676684Y614219D01*
X675612Y614546D01*
X675604Y614543D01*
X675601Y614548D01*
X674484Y614629D01*
X674481Y614628D01*
X674480Y614629D01*
X662480Y614629D01*
X662477Y614627D01*
X662470Y614627D01*
X662469Y614628D01*
X661525Y614409D01*
X661519Y614403D01*
X661514Y614405D01*
X660642Y613982D01*
X660639Y613974D01*
X660633Y613976D01*
X659877Y613369D01*
X659875Y613361D01*
X659869Y613361D01*
X659268Y612601D01*
X659268Y612592D01*
X659262Y612591D01*
X658844Y611716D01*
X658846Y611708D01*
X658841Y611706D01*
X658629Y610760D01*
X658632Y610753D01*
X658627Y610749D01*
X658631Y609780D01*
X658631Y609779D01*
X658650Y608711D01*
X658655Y608704D01*
X658651Y608700D01*
X658907Y607663D01*
X658914Y607658D01*
X658911Y607652D01*
X659392Y606698D01*
X659399Y606695D01*
X659398Y606689D01*
X660079Y605866D01*
X660087Y605864D01*
X660087Y605858D01*
X660934Y605207D01*
X660942Y605207D01*
X660943Y605201D01*
X661914Y604754D01*
X661922Y604756D01*
X661924Y604751D01*
X662970Y604532D01*
X662977Y604535D01*
X662980Y604531D01*
X674980Y604531D01*
X674985Y604534D01*
G37*
G36*
X60305Y604534D02*
X60305Y604534D01*
X60308Y604531D01*
X61403Y604711D01*
X61409Y604717D01*
X61414Y604714D01*
X62442Y605133D01*
X62446Y605140D01*
X62451Y605138D01*
X63360Y605776D01*
X63363Y605783D01*
X63368Y605783D01*
X64112Y606606D01*
X64113Y606614D01*
X64119Y606615D01*
X64661Y607583D01*
X64660Y607592D01*
X64666Y607594D01*
X64979Y608658D01*
X64976Y608666D01*
X64981Y608669D01*
X65049Y609777D01*
X65045Y609784D01*
X65049Y609787D01*
X64879Y610895D01*
X64873Y610901D01*
X64876Y610906D01*
X64464Y611948D01*
X64457Y611952D01*
X64459Y611957D01*
X63825Y612882D01*
X63817Y612884D01*
X63818Y612890D01*
X62995Y613650D01*
X62986Y613651D01*
X62986Y613657D01*
X62014Y614214D01*
X62006Y614213D01*
X62004Y614219D01*
X60932Y614546D01*
X60924Y614543D01*
X60921Y614548D01*
X59804Y614629D01*
X59801Y614628D01*
X59800Y614629D01*
X47800Y614629D01*
X47797Y614627D01*
X47790Y614627D01*
X47789Y614628D01*
X46845Y614409D01*
X46839Y614403D01*
X46834Y614405D01*
X45962Y613982D01*
X45959Y613974D01*
X45953Y613976D01*
X45197Y613369D01*
X45195Y613361D01*
X45189Y613361D01*
X44588Y612601D01*
X44588Y612592D01*
X44582Y612591D01*
X44164Y611716D01*
X44166Y611708D01*
X44161Y611706D01*
X43949Y610760D01*
X43952Y610753D01*
X43947Y610749D01*
X43951Y609780D01*
X43951Y609779D01*
X43970Y608711D01*
X43975Y608704D01*
X43971Y608700D01*
X44227Y607663D01*
X44234Y607658D01*
X44231Y607652D01*
X44712Y606698D01*
X44719Y606695D01*
X44718Y606689D01*
X45399Y605866D01*
X45407Y605864D01*
X45407Y605858D01*
X46254Y605207D01*
X46262Y605207D01*
X46263Y605201D01*
X47234Y604754D01*
X47242Y604756D01*
X47244Y604751D01*
X48290Y604532D01*
X48297Y604535D01*
X48300Y604531D01*
X60300Y604531D01*
X60305Y604534D01*
G37*
G36*
X674985Y53354D02*
X674985Y53354D01*
X674988Y53351D01*
X676083Y53531D01*
X676089Y53537D01*
X676094Y53534D01*
X677122Y53953D01*
X677126Y53960D01*
X677131Y53958D01*
X678040Y54596D01*
X678043Y54603D01*
X678048Y54603D01*
X678792Y55426D01*
X678793Y55434D01*
X678799Y55435D01*
X679341Y56403D01*
X679340Y56412D01*
X679346Y56414D01*
X679659Y57478D01*
X679656Y57486D01*
X679661Y57489D01*
X679729Y58597D01*
X679725Y58604D01*
X679729Y58607D01*
X679559Y59715D01*
X679553Y59721D01*
X679556Y59726D01*
X679144Y60768D01*
X679137Y60772D01*
X679139Y60777D01*
X678505Y61702D01*
X678497Y61704D01*
X678498Y61710D01*
X677675Y62470D01*
X677666Y62471D01*
X677666Y62477D01*
X676694Y63034D01*
X676686Y63033D01*
X676684Y63039D01*
X675612Y63366D01*
X675604Y63363D01*
X675601Y63368D01*
X674484Y63449D01*
X674481Y63448D01*
X674480Y63449D01*
X662480Y63449D01*
X662477Y63447D01*
X662470Y63447D01*
X662469Y63448D01*
X661525Y63229D01*
X661519Y63223D01*
X661514Y63225D01*
X660642Y62802D01*
X660639Y62794D01*
X660633Y62796D01*
X659877Y62189D01*
X659875Y62181D01*
X659869Y62181D01*
X659268Y61421D01*
X659268Y61412D01*
X659262Y61411D01*
X658844Y60536D01*
X658846Y60528D01*
X658841Y60526D01*
X658629Y59580D01*
X658632Y59573D01*
X658627Y59569D01*
X658631Y58600D01*
X658631Y58599D01*
X658650Y57531D01*
X658655Y57524D01*
X658651Y57520D01*
X658907Y56483D01*
X658914Y56478D01*
X658911Y56472D01*
X659392Y55518D01*
X659399Y55515D01*
X659398Y55509D01*
X660079Y54686D01*
X660087Y54684D01*
X660087Y54678D01*
X660934Y54027D01*
X660942Y54027D01*
X660943Y54021D01*
X661914Y53574D01*
X661922Y53576D01*
X661924Y53571D01*
X662970Y53352D01*
X662977Y53355D01*
X662980Y53351D01*
X674980Y53351D01*
X674985Y53354D01*
G37*
G36*
X60305Y53354D02*
X60305Y53354D01*
X60308Y53351D01*
X61403Y53531D01*
X61409Y53537D01*
X61414Y53534D01*
X62442Y53953D01*
X62446Y53960D01*
X62451Y53958D01*
X63360Y54596D01*
X63363Y54603D01*
X63368Y54603D01*
X64112Y55426D01*
X64113Y55434D01*
X64119Y55435D01*
X64661Y56403D01*
X64660Y56412D01*
X64666Y56414D01*
X64979Y57478D01*
X64976Y57486D01*
X64981Y57489D01*
X65049Y58597D01*
X65045Y58604D01*
X65049Y58607D01*
X64879Y59715D01*
X64873Y59721D01*
X64876Y59726D01*
X64464Y60768D01*
X64457Y60772D01*
X64459Y60777D01*
X63825Y61702D01*
X63817Y61704D01*
X63818Y61710D01*
X62995Y62470D01*
X62986Y62471D01*
X62986Y62477D01*
X62014Y63034D01*
X62006Y63033D01*
X62004Y63039D01*
X60932Y63366D01*
X60924Y63363D01*
X60921Y63368D01*
X59804Y63449D01*
X59801Y63448D01*
X59800Y63449D01*
X47800Y63449D01*
X47797Y63447D01*
X47790Y63447D01*
X47789Y63448D01*
X46845Y63229D01*
X46839Y63223D01*
X46834Y63225D01*
X45962Y62802D01*
X45959Y62794D01*
X45953Y62796D01*
X45197Y62189D01*
X45195Y62181D01*
X45189Y62181D01*
X44588Y61421D01*
X44588Y61412D01*
X44582Y61411D01*
X44164Y60536D01*
X44166Y60528D01*
X44161Y60526D01*
X43949Y59580D01*
X43952Y59573D01*
X43947Y59569D01*
X43951Y58600D01*
X43951Y58599D01*
X43970Y57531D01*
X43975Y57524D01*
X43971Y57520D01*
X44227Y56483D01*
X44234Y56478D01*
X44231Y56472D01*
X44712Y55518D01*
X44719Y55515D01*
X44718Y55509D01*
X45399Y54686D01*
X45407Y54684D01*
X45407Y54678D01*
X46254Y54027D01*
X46262Y54027D01*
X46263Y54021D01*
X47234Y53574D01*
X47242Y53576D01*
X47244Y53571D01*
X48290Y53352D01*
X48297Y53355D01*
X48300Y53351D01*
X60300Y53351D01*
X60305Y53354D01*
G37*
G36*
X674985Y690935D02*
X674985Y690935D01*
X674988Y690931D01*
X676094Y691124D01*
X676099Y691129D01*
X676099Y691130D01*
X676104Y691127D01*
X677139Y691560D01*
X677143Y691567D01*
X677148Y691565D01*
X678061Y692218D01*
X678063Y692226D01*
X678069Y692225D01*
X678813Y693064D01*
X678814Y693073D01*
X678819Y693073D01*
X679358Y694057D01*
X679357Y694065D01*
X679358Y694066D01*
X679362Y694067D01*
X679363Y694069D01*
X679545Y694710D01*
X679669Y695146D01*
X679667Y695151D01*
X679669Y695153D01*
X679667Y695155D01*
X679671Y695157D01*
X679729Y696277D01*
X679726Y696282D01*
X679729Y696286D01*
X679611Y697331D01*
X679605Y697337D01*
X679609Y697342D01*
X679261Y698336D01*
X679254Y698340D01*
X679256Y698345D01*
X678696Y699237D01*
X678689Y699240D01*
X678689Y699245D01*
X677945Y699989D01*
X677937Y699991D01*
X677937Y699996D01*
X677045Y700556D01*
X677037Y700556D01*
X677036Y700561D01*
X676042Y700909D01*
X676034Y700906D01*
X676031Y700911D01*
X674986Y701029D01*
X674982Y701027D01*
X674980Y701029D01*
X662980Y701029D01*
X662977Y701027D01*
X662974Y701027D01*
X662972Y701029D01*
X661976Y700871D01*
X661970Y700865D01*
X661965Y700868D01*
X661029Y700493D01*
X661025Y700486D01*
X661019Y700488D01*
X660190Y699914D01*
X660187Y699906D01*
X660182Y699907D01*
X659501Y699163D01*
X659500Y699154D01*
X659494Y699154D01*
X658996Y698277D01*
X658997Y698269D01*
X658992Y698266D01*
X658804Y697642D01*
X658701Y697301D01*
X658702Y697298D01*
X658701Y697297D01*
X658704Y697293D01*
X658699Y697290D01*
X658631Y696283D01*
X658632Y696281D01*
X658631Y696280D01*
X658640Y695199D01*
X658645Y695192D01*
X658641Y695188D01*
X658891Y694136D01*
X658897Y694131D01*
X658894Y694126D01*
X659371Y693156D01*
X659379Y693153D01*
X659377Y693147D01*
X660058Y692308D01*
X660066Y692306D01*
X660066Y692300D01*
X660917Y691634D01*
X660925Y691633D01*
X660926Y691628D01*
X661903Y691167D01*
X661911Y691169D01*
X661914Y691164D01*
X662969Y690932D01*
X662977Y690935D01*
X662980Y690931D01*
X674980Y690931D01*
X674985Y690935D01*
G37*
G36*
X60305Y690935D02*
X60305Y690935D01*
X60308Y690931D01*
X61414Y691124D01*
X61419Y691129D01*
X61419Y691130D01*
X61424Y691127D01*
X62459Y691560D01*
X62463Y691567D01*
X62468Y691565D01*
X63381Y692218D01*
X63383Y692226D01*
X63389Y692225D01*
X64133Y693064D01*
X64134Y693073D01*
X64139Y693073D01*
X64678Y694057D01*
X64677Y694065D01*
X64678Y694066D01*
X64682Y694067D01*
X64683Y694069D01*
X64865Y694710D01*
X64989Y695146D01*
X64987Y695151D01*
X64989Y695153D01*
X64987Y695155D01*
X64991Y695157D01*
X65049Y696277D01*
X65046Y696282D01*
X65049Y696286D01*
X64931Y697331D01*
X64925Y697337D01*
X64929Y697342D01*
X64581Y698336D01*
X64574Y698340D01*
X64576Y698345D01*
X64016Y699237D01*
X64009Y699240D01*
X64009Y699245D01*
X63265Y699989D01*
X63257Y699991D01*
X63257Y699996D01*
X62365Y700556D01*
X62357Y700556D01*
X62356Y700561D01*
X61362Y700909D01*
X61354Y700906D01*
X61351Y700911D01*
X60306Y701029D01*
X60302Y701027D01*
X60300Y701029D01*
X48300Y701029D01*
X48297Y701027D01*
X48294Y701027D01*
X48292Y701029D01*
X47296Y700871D01*
X47290Y700865D01*
X47285Y700868D01*
X46349Y700493D01*
X46345Y700486D01*
X46339Y700488D01*
X45510Y699914D01*
X45507Y699906D01*
X45502Y699907D01*
X44821Y699163D01*
X44820Y699154D01*
X44814Y699154D01*
X44316Y698277D01*
X44317Y698269D01*
X44312Y698266D01*
X44124Y697642D01*
X44021Y697301D01*
X44022Y697298D01*
X44021Y697297D01*
X44024Y697293D01*
X44019Y697290D01*
X43951Y696283D01*
X43952Y696281D01*
X43951Y696280D01*
X43960Y695199D01*
X43965Y695192D01*
X43961Y695188D01*
X44211Y694136D01*
X44217Y694131D01*
X44214Y694126D01*
X44691Y693156D01*
X44699Y693153D01*
X44697Y693147D01*
X45378Y692308D01*
X45386Y692306D01*
X45386Y692300D01*
X46237Y691634D01*
X46245Y691633D01*
X46246Y691628D01*
X47223Y691167D01*
X47231Y691169D01*
X47234Y691164D01*
X48289Y690932D01*
X48297Y690935D01*
X48300Y690931D01*
X60300Y690931D01*
X60305Y690935D01*
G37*
G36*
X60305Y139755D02*
X60305Y139755D01*
X60308Y139751D01*
X61414Y139944D01*
X61419Y139949D01*
X61419Y139950D01*
X61424Y139947D01*
X62459Y140380D01*
X62463Y140387D01*
X62468Y140385D01*
X63381Y141038D01*
X63383Y141046D01*
X63389Y141045D01*
X64133Y141884D01*
X64134Y141893D01*
X64139Y141893D01*
X64678Y142877D01*
X64677Y142885D01*
X64678Y142886D01*
X64682Y142887D01*
X64683Y142889D01*
X64865Y143530D01*
X64989Y143966D01*
X64987Y143971D01*
X64989Y143973D01*
X64987Y143975D01*
X64991Y143977D01*
X65049Y145097D01*
X65046Y145102D01*
X65049Y145106D01*
X64931Y146151D01*
X64925Y146157D01*
X64929Y146162D01*
X64581Y147156D01*
X64574Y147160D01*
X64576Y147165D01*
X64016Y148057D01*
X64009Y148060D01*
X64009Y148065D01*
X63265Y148809D01*
X63257Y148811D01*
X63257Y148816D01*
X62365Y149376D01*
X62357Y149376D01*
X62356Y149381D01*
X61362Y149729D01*
X61354Y149726D01*
X61351Y149731D01*
X60306Y149849D01*
X60302Y149847D01*
X60300Y149849D01*
X48300Y149849D01*
X48297Y149847D01*
X48294Y149847D01*
X48292Y149849D01*
X47296Y149691D01*
X47290Y149685D01*
X47285Y149688D01*
X46349Y149313D01*
X46345Y149306D01*
X46339Y149308D01*
X45510Y148734D01*
X45507Y148726D01*
X45502Y148727D01*
X44821Y147983D01*
X44820Y147974D01*
X44814Y147974D01*
X44316Y147097D01*
X44317Y147089D01*
X44312Y147086D01*
X44124Y146462D01*
X44021Y146121D01*
X44022Y146118D01*
X44021Y146117D01*
X44024Y146113D01*
X44019Y146110D01*
X43951Y145103D01*
X43952Y145101D01*
X43951Y145100D01*
X43960Y144019D01*
X43965Y144012D01*
X43961Y144008D01*
X44211Y142956D01*
X44217Y142951D01*
X44214Y142946D01*
X44691Y141976D01*
X44699Y141973D01*
X44697Y141967D01*
X45378Y141128D01*
X45386Y141126D01*
X45386Y141120D01*
X46237Y140454D01*
X46245Y140453D01*
X46246Y140448D01*
X47223Y139987D01*
X47231Y139989D01*
X47234Y139984D01*
X48289Y139752D01*
X48297Y139755D01*
X48300Y139751D01*
X60300Y139751D01*
X60305Y139755D01*
G37*
G36*
X674985Y139755D02*
X674985Y139755D01*
X674988Y139751D01*
X676094Y139944D01*
X676099Y139949D01*
X676099Y139950D01*
X676104Y139947D01*
X677139Y140380D01*
X677143Y140387D01*
X677148Y140385D01*
X678061Y141038D01*
X678063Y141046D01*
X678069Y141045D01*
X678813Y141884D01*
X678814Y141893D01*
X678819Y141893D01*
X679358Y142877D01*
X679357Y142885D01*
X679358Y142886D01*
X679362Y142887D01*
X679363Y142889D01*
X679545Y143530D01*
X679669Y143966D01*
X679667Y143971D01*
X679669Y143973D01*
X679667Y143975D01*
X679671Y143977D01*
X679729Y145097D01*
X679726Y145102D01*
X679729Y145106D01*
X679611Y146151D01*
X679605Y146157D01*
X679609Y146162D01*
X679261Y147156D01*
X679254Y147160D01*
X679256Y147165D01*
X678696Y148057D01*
X678689Y148060D01*
X678689Y148065D01*
X677945Y148809D01*
X677937Y148811D01*
X677937Y148816D01*
X677045Y149376D01*
X677037Y149376D01*
X677036Y149381D01*
X676042Y149729D01*
X676034Y149726D01*
X676031Y149731D01*
X674986Y149849D01*
X674982Y149847D01*
X674980Y149849D01*
X662980Y149849D01*
X662977Y149847D01*
X662974Y149847D01*
X662972Y149849D01*
X661976Y149691D01*
X661970Y149685D01*
X661965Y149688D01*
X661029Y149313D01*
X661025Y149306D01*
X661019Y149308D01*
X660190Y148734D01*
X660187Y148726D01*
X660182Y148727D01*
X659501Y147983D01*
X659500Y147974D01*
X659494Y147974D01*
X658996Y147097D01*
X658997Y147089D01*
X658992Y147086D01*
X658804Y146462D01*
X658701Y146121D01*
X658702Y146118D01*
X658701Y146117D01*
X658704Y146113D01*
X658699Y146110D01*
X658631Y145103D01*
X658632Y145101D01*
X658631Y145100D01*
X658640Y144019D01*
X658645Y144012D01*
X658641Y144008D01*
X658891Y142956D01*
X658897Y142951D01*
X658894Y142946D01*
X659371Y141976D01*
X659379Y141973D01*
X659377Y141967D01*
X660058Y141128D01*
X660066Y141126D01*
X660066Y141120D01*
X660917Y140454D01*
X660925Y140453D01*
X660926Y140448D01*
X661903Y139987D01*
X661911Y139989D01*
X661914Y139984D01*
X662969Y139752D01*
X662977Y139755D01*
X662980Y139751D01*
X674980Y139751D01*
X674985Y139755D01*
G37*
G36*
X15504Y604534D02*
X15504Y604534D01*
X15506Y604531D01*
X16639Y604681D01*
X16645Y604687D01*
X16650Y604684D01*
X17720Y605082D01*
X17724Y605089D01*
X17730Y605087D01*
X18685Y605714D01*
X18688Y605722D01*
X18693Y605721D01*
X19485Y606544D01*
X19486Y606552D01*
X19492Y606553D01*
X20081Y607532D01*
X20080Y607540D01*
X20085Y607542D01*
X20441Y608627D01*
X20439Y608635D01*
X20443Y608638D01*
X20549Y609775D01*
X20544Y609784D01*
X20548Y609789D01*
X20341Y610926D01*
X20335Y610932D01*
X20338Y610937D01*
X19883Y611999D01*
X19876Y612003D01*
X19878Y612009D01*
X19198Y612944D01*
X19190Y612946D01*
X19191Y612952D01*
X18320Y613712D01*
X18312Y613712D01*
X18311Y613718D01*
X17292Y614265D01*
X17284Y614264D01*
X17282Y614269D01*
X16168Y614576D01*
X16160Y614573D01*
X16157Y614578D01*
X15002Y614629D01*
X15001Y614628D01*
X15000Y614629D01*
X9000Y614629D01*
X8997Y614627D01*
X8992Y614627D01*
X8991Y614628D01*
X7910Y614416D01*
X7905Y614410D01*
X7900Y614413D01*
X6894Y613966D01*
X6890Y613959D01*
X6884Y613961D01*
X6003Y613301D01*
X6000Y613293D01*
X5995Y613293D01*
X5282Y612454D01*
X5282Y612446D01*
X5276Y612445D01*
X4768Y611468D01*
X4769Y611460D01*
X4764Y611458D01*
X4486Y610393D01*
X4489Y610385D01*
X4485Y610382D01*
X4451Y609282D01*
X4455Y609276D01*
X4451Y609273D01*
X4606Y608198D01*
X4612Y608192D01*
X4609Y608187D01*
X4999Y607173D01*
X5006Y607169D01*
X5005Y607163D01*
X5611Y606261D01*
X5619Y606259D01*
X5618Y606253D01*
X6410Y605509D01*
X6418Y605508D01*
X6418Y605502D01*
X7356Y604953D01*
X7364Y604954D01*
X7366Y604948D01*
X8402Y604621D01*
X8410Y604624D01*
X8413Y604619D01*
X9496Y604531D01*
X9499Y604533D01*
X9500Y604531D01*
X15500Y604531D01*
X15504Y604534D01*
G37*
G36*
X630184Y604534D02*
X630184Y604534D01*
X630186Y604531D01*
X631319Y604681D01*
X631325Y604687D01*
X631330Y604684D01*
X632400Y605082D01*
X632404Y605089D01*
X632410Y605087D01*
X633365Y605714D01*
X633368Y605722D01*
X633373Y605721D01*
X634165Y606544D01*
X634166Y606552D01*
X634172Y606553D01*
X634761Y607532D01*
X634760Y607540D01*
X634765Y607542D01*
X635121Y608627D01*
X635119Y608635D01*
X635123Y608638D01*
X635229Y609775D01*
X635224Y609784D01*
X635228Y609789D01*
X635021Y610926D01*
X635015Y610932D01*
X635018Y610937D01*
X634563Y611999D01*
X634556Y612003D01*
X634558Y612009D01*
X633878Y612944D01*
X633870Y612946D01*
X633871Y612952D01*
X633000Y613712D01*
X632992Y613712D01*
X632991Y613718D01*
X631972Y614265D01*
X631964Y614264D01*
X631962Y614269D01*
X630848Y614576D01*
X630840Y614573D01*
X630837Y614578D01*
X629682Y614629D01*
X629681Y614628D01*
X629680Y614629D01*
X623680Y614629D01*
X623677Y614627D01*
X623672Y614627D01*
X623671Y614628D01*
X622590Y614416D01*
X622585Y614410D01*
X622580Y614413D01*
X621574Y613966D01*
X621570Y613959D01*
X621564Y613961D01*
X620683Y613301D01*
X620680Y613293D01*
X620675Y613293D01*
X619962Y612454D01*
X619962Y612446D01*
X619956Y612445D01*
X619448Y611468D01*
X619449Y611460D01*
X619444Y611458D01*
X619166Y610393D01*
X619169Y610385D01*
X619165Y610382D01*
X619131Y609282D01*
X619135Y609276D01*
X619131Y609273D01*
X619286Y608198D01*
X619292Y608192D01*
X619289Y608187D01*
X619679Y607173D01*
X619686Y607169D01*
X619685Y607163D01*
X620291Y606261D01*
X620299Y606259D01*
X620298Y606253D01*
X621090Y605509D01*
X621098Y605508D01*
X621098Y605502D01*
X622036Y604953D01*
X622044Y604954D01*
X622046Y604948D01*
X623082Y604621D01*
X623090Y604624D01*
X623093Y604619D01*
X624176Y604531D01*
X624179Y604533D01*
X624180Y604531D01*
X630180Y604531D01*
X630184Y604534D01*
G37*
G36*
X630184Y53354D02*
X630184Y53354D01*
X630186Y53351D01*
X631319Y53501D01*
X631325Y53507D01*
X631330Y53504D01*
X632400Y53902D01*
X632404Y53909D01*
X632410Y53907D01*
X633365Y54534D01*
X633368Y54542D01*
X633373Y54541D01*
X634165Y55364D01*
X634166Y55372D01*
X634172Y55373D01*
X634761Y56352D01*
X634760Y56360D01*
X634765Y56362D01*
X635121Y57447D01*
X635119Y57455D01*
X635123Y57458D01*
X635229Y58595D01*
X635224Y58604D01*
X635228Y58609D01*
X635021Y59746D01*
X635015Y59752D01*
X635018Y59757D01*
X634563Y60819D01*
X634556Y60823D01*
X634558Y60829D01*
X633878Y61764D01*
X633870Y61766D01*
X633871Y61772D01*
X633000Y62532D01*
X632992Y62532D01*
X632991Y62538D01*
X631972Y63085D01*
X631964Y63084D01*
X631962Y63089D01*
X630848Y63396D01*
X630840Y63393D01*
X630837Y63398D01*
X629682Y63449D01*
X629681Y63448D01*
X629680Y63449D01*
X623680Y63449D01*
X623677Y63447D01*
X623672Y63447D01*
X623671Y63448D01*
X622590Y63236D01*
X622585Y63230D01*
X622580Y63233D01*
X621574Y62786D01*
X621570Y62779D01*
X621564Y62781D01*
X620683Y62121D01*
X620680Y62113D01*
X620675Y62113D01*
X619962Y61274D01*
X619962Y61266D01*
X619956Y61265D01*
X619448Y60288D01*
X619449Y60280D01*
X619444Y60278D01*
X619166Y59213D01*
X619169Y59205D01*
X619165Y59202D01*
X619131Y58102D01*
X619135Y58096D01*
X619131Y58093D01*
X619286Y57018D01*
X619292Y57012D01*
X619289Y57007D01*
X619679Y55993D01*
X619686Y55989D01*
X619685Y55983D01*
X620291Y55081D01*
X620299Y55079D01*
X620298Y55073D01*
X621090Y54329D01*
X621098Y54328D01*
X621098Y54322D01*
X622036Y53773D01*
X622044Y53774D01*
X622046Y53768D01*
X623082Y53441D01*
X623090Y53444D01*
X623093Y53439D01*
X624176Y53351D01*
X624179Y53353D01*
X624180Y53351D01*
X630180Y53351D01*
X630184Y53354D01*
G37*
G36*
X15504Y53354D02*
X15504Y53354D01*
X15506Y53351D01*
X16639Y53501D01*
X16645Y53507D01*
X16650Y53504D01*
X17720Y53902D01*
X17724Y53909D01*
X17730Y53907D01*
X18685Y54534D01*
X18688Y54542D01*
X18693Y54541D01*
X19485Y55364D01*
X19486Y55372D01*
X19492Y55373D01*
X20081Y56352D01*
X20080Y56360D01*
X20085Y56362D01*
X20441Y57447D01*
X20439Y57455D01*
X20443Y57458D01*
X20549Y58595D01*
X20544Y58604D01*
X20548Y58609D01*
X20341Y59746D01*
X20335Y59752D01*
X20338Y59757D01*
X19883Y60819D01*
X19876Y60823D01*
X19878Y60829D01*
X19198Y61764D01*
X19190Y61766D01*
X19191Y61772D01*
X18320Y62532D01*
X18312Y62532D01*
X18311Y62538D01*
X17292Y63085D01*
X17284Y63084D01*
X17282Y63089D01*
X16168Y63396D01*
X16160Y63393D01*
X16157Y63398D01*
X15002Y63449D01*
X15001Y63448D01*
X15000Y63449D01*
X9000Y63449D01*
X8997Y63447D01*
X8992Y63447D01*
X8991Y63448D01*
X7910Y63236D01*
X7905Y63230D01*
X7900Y63233D01*
X6894Y62786D01*
X6890Y62779D01*
X6884Y62781D01*
X6003Y62121D01*
X6000Y62113D01*
X5995Y62113D01*
X5282Y61274D01*
X5282Y61266D01*
X5276Y61265D01*
X4768Y60288D01*
X4769Y60280D01*
X4764Y60278D01*
X4486Y59213D01*
X4489Y59205D01*
X4485Y59202D01*
X4451Y58102D01*
X4455Y58096D01*
X4451Y58093D01*
X4606Y57018D01*
X4612Y57012D01*
X4609Y57007D01*
X4999Y55993D01*
X5006Y55989D01*
X5005Y55983D01*
X5611Y55081D01*
X5619Y55079D01*
X5618Y55073D01*
X6410Y54329D01*
X6418Y54328D01*
X6418Y54322D01*
X7356Y53773D01*
X7364Y53774D01*
X7366Y53768D01*
X8402Y53441D01*
X8410Y53444D01*
X8413Y53439D01*
X9496Y53351D01*
X9499Y53353D01*
X9500Y53351D01*
X15500Y53351D01*
X15504Y53354D01*
G37*
G36*
X15503Y690933D02*
X15503Y690933D01*
X15505Y690931D01*
X16597Y691032D01*
X16603Y691037D01*
X16608Y691034D01*
X17651Y691375D01*
X17656Y691382D01*
X17661Y691380D01*
X18602Y691944D01*
X18605Y691952D01*
X18611Y691951D01*
X19403Y692711D01*
X19404Y692719D01*
X19410Y692720D01*
X20013Y693637D01*
X20012Y693645D01*
X20018Y693647D01*
X20401Y694675D01*
X20399Y694683D01*
X20404Y694686D01*
X20549Y695774D01*
X20545Y695781D01*
X20549Y695785D01*
X20443Y696922D01*
X20438Y696928D01*
X20441Y696933D01*
X20085Y698018D01*
X20078Y698023D01*
X20081Y698028D01*
X19492Y699007D01*
X19484Y699010D01*
X19485Y699016D01*
X18693Y699839D01*
X18685Y699840D01*
X18685Y699846D01*
X17730Y700473D01*
X17722Y700472D01*
X17720Y700478D01*
X16650Y700876D01*
X16642Y700874D01*
X16639Y700879D01*
X15506Y701029D01*
X15503Y701027D01*
X15502Y701027D01*
X15500Y701029D01*
X9500Y701029D01*
X9497Y701027D01*
X9495Y701027D01*
X9494Y701029D01*
X8361Y700879D01*
X8355Y700873D01*
X8350Y700876D01*
X7280Y700478D01*
X7276Y700471D01*
X7270Y700473D01*
X6315Y699846D01*
X6312Y699838D01*
X6307Y699839D01*
X5515Y699016D01*
X5514Y699008D01*
X5508Y699007D01*
X4919Y698028D01*
X4920Y698020D01*
X4915Y698018D01*
X4559Y696933D01*
X4562Y696925D01*
X4557Y696922D01*
X4451Y695785D01*
X4455Y695778D01*
X4451Y695774D01*
X4596Y694686D01*
X4602Y694680D01*
X4599Y694675D01*
X4983Y693647D01*
X4989Y693642D01*
X4988Y693637D01*
X5590Y692720D01*
X5598Y692717D01*
X5597Y692711D01*
X6389Y691951D01*
X6397Y691950D01*
X6398Y691944D01*
X7339Y691380D01*
X7347Y691381D01*
X7349Y691375D01*
X8392Y691034D01*
X8400Y691036D01*
X8403Y691032D01*
X9496Y690931D01*
X9498Y690933D01*
X9500Y690931D01*
X15500Y690931D01*
X15503Y690933D01*
G37*
G36*
X630183Y690933D02*
X630183Y690933D01*
X630185Y690931D01*
X631277Y691032D01*
X631283Y691037D01*
X631288Y691034D01*
X632331Y691375D01*
X632336Y691382D01*
X632341Y691380D01*
X633282Y691944D01*
X633285Y691952D01*
X633291Y691951D01*
X634083Y692711D01*
X634084Y692719D01*
X634090Y692720D01*
X634693Y693637D01*
X634692Y693645D01*
X634698Y693647D01*
X635081Y694675D01*
X635079Y694683D01*
X635084Y694686D01*
X635229Y695774D01*
X635225Y695781D01*
X635229Y695785D01*
X635123Y696922D01*
X635118Y696928D01*
X635121Y696933D01*
X634765Y698018D01*
X634758Y698023D01*
X634761Y698028D01*
X634172Y699007D01*
X634164Y699010D01*
X634165Y699016D01*
X633373Y699839D01*
X633365Y699840D01*
X633365Y699846D01*
X632410Y700473D01*
X632402Y700472D01*
X632400Y700478D01*
X631330Y700876D01*
X631322Y700874D01*
X631319Y700879D01*
X630186Y701029D01*
X630183Y701027D01*
X630182Y701027D01*
X630180Y701029D01*
X624180Y701029D01*
X624177Y701027D01*
X624175Y701027D01*
X624174Y701029D01*
X623041Y700879D01*
X623035Y700873D01*
X623030Y700876D01*
X621960Y700478D01*
X621956Y700471D01*
X621950Y700473D01*
X620995Y699846D01*
X620992Y699838D01*
X620987Y699839D01*
X620195Y699016D01*
X620194Y699008D01*
X620188Y699007D01*
X619599Y698028D01*
X619600Y698020D01*
X619595Y698018D01*
X619239Y696933D01*
X619242Y696925D01*
X619237Y696922D01*
X619131Y695785D01*
X619135Y695778D01*
X619131Y695774D01*
X619276Y694686D01*
X619282Y694680D01*
X619279Y694675D01*
X619663Y693647D01*
X619669Y693642D01*
X619668Y693637D01*
X620270Y692720D01*
X620278Y692717D01*
X620277Y692711D01*
X621069Y691951D01*
X621077Y691950D01*
X621078Y691944D01*
X622019Y691380D01*
X622027Y691381D01*
X622029Y691375D01*
X623072Y691034D01*
X623080Y691036D01*
X623083Y691032D01*
X624176Y690931D01*
X624178Y690933D01*
X624180Y690931D01*
X630180Y690931D01*
X630183Y690933D01*
G37*
G36*
X15503Y139753D02*
X15503Y139753D01*
X15505Y139751D01*
X16597Y139852D01*
X16603Y139857D01*
X16608Y139854D01*
X17651Y140195D01*
X17656Y140202D01*
X17661Y140200D01*
X18602Y140764D01*
X18605Y140772D01*
X18611Y140771D01*
X19403Y141531D01*
X19404Y141539D01*
X19410Y141540D01*
X20013Y142457D01*
X20012Y142465D01*
X20018Y142467D01*
X20401Y143495D01*
X20399Y143503D01*
X20404Y143506D01*
X20549Y144594D01*
X20545Y144601D01*
X20549Y144605D01*
X20443Y145742D01*
X20438Y145748D01*
X20441Y145753D01*
X20085Y146838D01*
X20078Y146843D01*
X20081Y146848D01*
X19492Y147827D01*
X19484Y147830D01*
X19485Y147836D01*
X18693Y148659D01*
X18685Y148660D01*
X18685Y148666D01*
X17730Y149293D01*
X17722Y149292D01*
X17720Y149298D01*
X16650Y149696D01*
X16642Y149694D01*
X16639Y149699D01*
X15506Y149849D01*
X15503Y149847D01*
X15502Y149847D01*
X15500Y149849D01*
X9500Y149849D01*
X9497Y149847D01*
X9495Y149847D01*
X9494Y149849D01*
X8361Y149699D01*
X8355Y149693D01*
X8350Y149696D01*
X7280Y149298D01*
X7276Y149291D01*
X7270Y149293D01*
X6315Y148666D01*
X6312Y148658D01*
X6307Y148659D01*
X5515Y147836D01*
X5514Y147828D01*
X5508Y147827D01*
X4919Y146848D01*
X4920Y146840D01*
X4915Y146838D01*
X4559Y145753D01*
X4562Y145745D01*
X4557Y145742D01*
X4451Y144605D01*
X4455Y144598D01*
X4451Y144594D01*
X4596Y143506D01*
X4602Y143500D01*
X4599Y143495D01*
X4983Y142467D01*
X4989Y142462D01*
X4988Y142457D01*
X5590Y141540D01*
X5598Y141537D01*
X5597Y141531D01*
X6389Y140771D01*
X6397Y140770D01*
X6398Y140764D01*
X7339Y140200D01*
X7347Y140201D01*
X7349Y140195D01*
X8392Y139854D01*
X8400Y139856D01*
X8403Y139852D01*
X9496Y139751D01*
X9498Y139753D01*
X9500Y139751D01*
X15500Y139751D01*
X15503Y139753D01*
G37*
G36*
X630183Y139753D02*
X630183Y139753D01*
X630185Y139751D01*
X631277Y139852D01*
X631283Y139857D01*
X631288Y139854D01*
X632331Y140195D01*
X632336Y140202D01*
X632341Y140200D01*
X633282Y140764D01*
X633285Y140772D01*
X633291Y140771D01*
X634083Y141531D01*
X634084Y141539D01*
X634090Y141540D01*
X634693Y142457D01*
X634692Y142465D01*
X634698Y142467D01*
X635081Y143495D01*
X635079Y143503D01*
X635084Y143506D01*
X635229Y144594D01*
X635225Y144601D01*
X635229Y144605D01*
X635123Y145742D01*
X635118Y145748D01*
X635121Y145753D01*
X634765Y146838D01*
X634758Y146843D01*
X634761Y146848D01*
X634172Y147827D01*
X634164Y147830D01*
X634165Y147836D01*
X633373Y148659D01*
X633365Y148660D01*
X633365Y148666D01*
X632410Y149293D01*
X632402Y149292D01*
X632400Y149298D01*
X631330Y149696D01*
X631322Y149694D01*
X631319Y149699D01*
X630186Y149849D01*
X630183Y149847D01*
X630182Y149847D01*
X630180Y149849D01*
X624180Y149849D01*
X624177Y149847D01*
X624175Y149847D01*
X624174Y149849D01*
X623041Y149699D01*
X623035Y149693D01*
X623030Y149696D01*
X621960Y149298D01*
X621956Y149291D01*
X621950Y149293D01*
X620995Y148666D01*
X620992Y148658D01*
X620987Y148659D01*
X620195Y147836D01*
X620194Y147828D01*
X620188Y147827D01*
X619599Y146848D01*
X619600Y146840D01*
X619595Y146838D01*
X619239Y145753D01*
X619242Y145745D01*
X619237Y145742D01*
X619131Y144605D01*
X619135Y144598D01*
X619131Y144594D01*
X619276Y143506D01*
X619282Y143500D01*
X619279Y143495D01*
X619663Y142467D01*
X619669Y142462D01*
X619668Y142457D01*
X620270Y141540D01*
X620278Y141537D01*
X620277Y141531D01*
X621069Y140771D01*
X621077Y140770D01*
X621078Y140764D01*
X622019Y140200D01*
X622027Y140201D01*
X622029Y140195D01*
X623072Y139854D01*
X623080Y139856D01*
X623083Y139852D01*
X624176Y139751D01*
X624178Y139753D01*
X624180Y139751D01*
X630180Y139751D01*
X630183Y139753D01*
G37*
G36*
X946457Y756383D02*
X946457Y756383D01*
X946466Y756387D01*
X946506Y756393D01*
X947993Y756862D01*
X948002Y756868D01*
X948040Y756882D01*
X949401Y757642D01*
X949421Y757662D01*
X949446Y757674D01*
X949469Y757711D01*
X949500Y757742D01*
X949505Y757769D01*
X949520Y757793D01*
X949520Y757836D01*
X949529Y757879D01*
X949519Y757905D01*
X949518Y757933D01*
X949486Y758000D01*
X948086Y760070D01*
X948082Y760074D01*
X948079Y760080D01*
X948028Y760118D01*
X947979Y760159D01*
X947973Y760160D01*
X947968Y760163D01*
X947904Y760168D01*
X947840Y760176D01*
X947834Y760173D01*
X947828Y760174D01*
X947759Y760148D01*
X946852Y759642D01*
X945887Y759338D01*
X944880Y759235D01*
X943873Y759338D01*
X942908Y759642D01*
X942001Y760148D01*
X941995Y760149D01*
X941991Y760153D01*
X941928Y760165D01*
X941865Y760179D01*
X941859Y760177D01*
X941853Y760178D01*
X941794Y760153D01*
X941734Y760132D01*
X941730Y760127D01*
X941724Y760124D01*
X941674Y760070D01*
X940274Y758000D01*
X940265Y757973D01*
X940248Y757951D01*
X940244Y757908D01*
X940231Y757867D01*
X940238Y757840D01*
X940235Y757812D01*
X940255Y757773D01*
X940267Y757731D01*
X940287Y757713D01*
X940300Y757688D01*
X940359Y757642D01*
X941720Y756882D01*
X941731Y756880D01*
X941767Y756862D01*
X943254Y756393D01*
X943264Y756393D01*
X943303Y756383D01*
X944855Y756225D01*
X944865Y756227D01*
X944905Y756225D01*
X946457Y756383D01*
G37*
G36*
X331777Y756383D02*
X331777Y756383D01*
X331786Y756387D01*
X331826Y756393D01*
X333313Y756862D01*
X333322Y756868D01*
X333360Y756882D01*
X334721Y757642D01*
X334741Y757662D01*
X334766Y757674D01*
X334789Y757711D01*
X334820Y757742D01*
X334825Y757769D01*
X334840Y757793D01*
X334840Y757836D01*
X334849Y757879D01*
X334839Y757905D01*
X334838Y757933D01*
X334806Y758000D01*
X333406Y760070D01*
X333402Y760074D01*
X333399Y760080D01*
X333348Y760118D01*
X333299Y760159D01*
X333293Y760160D01*
X333288Y760163D01*
X333224Y760168D01*
X333160Y760176D01*
X333154Y760173D01*
X333148Y760174D01*
X333079Y760148D01*
X332172Y759642D01*
X331207Y759338D01*
X330200Y759235D01*
X329193Y759338D01*
X328228Y759642D01*
X327321Y760148D01*
X327315Y760149D01*
X327311Y760153D01*
X327248Y760165D01*
X327185Y760179D01*
X327179Y760177D01*
X327173Y760178D01*
X327114Y760153D01*
X327054Y760132D01*
X327050Y760127D01*
X327044Y760124D01*
X326994Y760070D01*
X325594Y758000D01*
X325585Y757973D01*
X325568Y757951D01*
X325564Y757908D01*
X325551Y757867D01*
X325558Y757840D01*
X325555Y757812D01*
X325575Y757773D01*
X325587Y757731D01*
X325607Y757713D01*
X325620Y757688D01*
X325679Y757642D01*
X327040Y756882D01*
X327051Y756880D01*
X327087Y756862D01*
X328574Y756393D01*
X328584Y756393D01*
X328623Y756383D01*
X330175Y756225D01*
X330185Y756227D01*
X330225Y756225D01*
X331777Y756383D01*
G37*
G36*
X331777Y205203D02*
X331777Y205203D01*
X331786Y205207D01*
X331826Y205213D01*
X333313Y205682D01*
X333322Y205688D01*
X333360Y205702D01*
X334721Y206462D01*
X334741Y206482D01*
X334766Y206494D01*
X334789Y206531D01*
X334820Y206562D01*
X334825Y206589D01*
X334840Y206613D01*
X334840Y206656D01*
X334849Y206699D01*
X334839Y206725D01*
X334838Y206753D01*
X334806Y206820D01*
X333406Y208890D01*
X333402Y208894D01*
X333399Y208900D01*
X333348Y208938D01*
X333299Y208979D01*
X333293Y208980D01*
X333288Y208983D01*
X333224Y208988D01*
X333160Y208996D01*
X333154Y208993D01*
X333148Y208994D01*
X333079Y208968D01*
X332172Y208462D01*
X331207Y208158D01*
X330200Y208055D01*
X329193Y208158D01*
X328228Y208462D01*
X327321Y208968D01*
X327315Y208969D01*
X327311Y208973D01*
X327248Y208985D01*
X327185Y208999D01*
X327179Y208997D01*
X327173Y208998D01*
X327114Y208973D01*
X327054Y208952D01*
X327050Y208947D01*
X327044Y208944D01*
X326994Y208890D01*
X325594Y206820D01*
X325585Y206793D01*
X325568Y206771D01*
X325564Y206728D01*
X325551Y206687D01*
X325558Y206660D01*
X325555Y206632D01*
X325575Y206593D01*
X325587Y206551D01*
X325607Y206533D01*
X325620Y206508D01*
X325679Y206462D01*
X327040Y205702D01*
X327051Y205700D01*
X327087Y205682D01*
X328574Y205213D01*
X328584Y205213D01*
X328623Y205203D01*
X330175Y205045D01*
X330185Y205047D01*
X330225Y205045D01*
X331777Y205203D01*
G37*
G36*
X946457Y205203D02*
X946457Y205203D01*
X946466Y205207D01*
X946506Y205213D01*
X947993Y205682D01*
X948002Y205688D01*
X948040Y205702D01*
X949401Y206462D01*
X949421Y206482D01*
X949446Y206494D01*
X949469Y206531D01*
X949500Y206562D01*
X949505Y206589D01*
X949520Y206613D01*
X949520Y206656D01*
X949529Y206699D01*
X949519Y206725D01*
X949518Y206753D01*
X949486Y206820D01*
X948086Y208890D01*
X948082Y208894D01*
X948079Y208900D01*
X948028Y208938D01*
X947979Y208979D01*
X947973Y208980D01*
X947968Y208983D01*
X947904Y208988D01*
X947840Y208996D01*
X947834Y208993D01*
X947828Y208994D01*
X947759Y208968D01*
X946852Y208462D01*
X945887Y208158D01*
X944880Y208055D01*
X943873Y208158D01*
X942908Y208462D01*
X942001Y208968D01*
X941995Y208969D01*
X941991Y208973D01*
X941928Y208985D01*
X941865Y208999D01*
X941859Y208997D01*
X941853Y208998D01*
X941794Y208973D01*
X941734Y208952D01*
X941730Y208947D01*
X941724Y208944D01*
X941674Y208890D01*
X940274Y206820D01*
X940265Y206793D01*
X940248Y206771D01*
X940244Y206728D01*
X940231Y206687D01*
X940238Y206660D01*
X940235Y206632D01*
X940255Y206593D01*
X940267Y206551D01*
X940287Y206533D01*
X940300Y206508D01*
X940359Y206462D01*
X941720Y205702D01*
X941731Y205700D01*
X941767Y205682D01*
X943254Y205213D01*
X943264Y205213D01*
X943303Y205203D01*
X944855Y205045D01*
X944865Y205047D01*
X944905Y205045D01*
X946457Y205203D01*
G37*
G36*
X947901Y768583D02*
X947901Y768583D01*
X947907Y768582D01*
X947966Y768607D01*
X948026Y768628D01*
X948030Y768633D01*
X948036Y768636D01*
X948086Y768690D01*
X949486Y770760D01*
X949495Y770787D01*
X949512Y770809D01*
X949516Y770852D01*
X949529Y770893D01*
X949522Y770920D01*
X949525Y770948D01*
X949505Y770987D01*
X949494Y771029D01*
X949473Y771047D01*
X949460Y771072D01*
X949401Y771118D01*
X948040Y771878D01*
X948029Y771880D01*
X947993Y771898D01*
X946506Y772367D01*
X946496Y772367D01*
X946457Y772377D01*
X944905Y772535D01*
X944895Y772533D01*
X944855Y772535D01*
X943303Y772377D01*
X943294Y772373D01*
X943254Y772367D01*
X941767Y771898D01*
X941758Y771892D01*
X941720Y771878D01*
X940359Y771118D01*
X940339Y771098D01*
X940314Y771086D01*
X940291Y771049D01*
X940260Y771018D01*
X940255Y770991D01*
X940240Y770967D01*
X940240Y770924D01*
X940231Y770881D01*
X940241Y770855D01*
X940242Y770827D01*
X940274Y770760D01*
X941674Y768690D01*
X941678Y768686D01*
X941681Y768680D01*
X941732Y768642D01*
X941781Y768601D01*
X941787Y768600D01*
X941792Y768597D01*
X941856Y768592D01*
X941920Y768584D01*
X941926Y768587D01*
X941932Y768586D01*
X942001Y768612D01*
X942908Y769118D01*
X943873Y769422D01*
X944880Y769525D01*
X945887Y769422D01*
X946852Y769118D01*
X947759Y768612D01*
X947765Y768611D01*
X947769Y768607D01*
X947832Y768595D01*
X947895Y768581D01*
X947901Y768583D01*
G37*
G36*
X333221Y768583D02*
X333221Y768583D01*
X333227Y768582D01*
X333286Y768607D01*
X333346Y768628D01*
X333350Y768633D01*
X333356Y768636D01*
X333406Y768690D01*
X334806Y770760D01*
X334815Y770787D01*
X334832Y770809D01*
X334836Y770852D01*
X334849Y770893D01*
X334842Y770920D01*
X334845Y770948D01*
X334825Y770987D01*
X334814Y771029D01*
X334793Y771047D01*
X334780Y771072D01*
X334721Y771118D01*
X333360Y771878D01*
X333349Y771880D01*
X333313Y771898D01*
X331826Y772367D01*
X331816Y772367D01*
X331777Y772377D01*
X330225Y772535D01*
X330215Y772533D01*
X330175Y772535D01*
X328623Y772377D01*
X328614Y772373D01*
X328574Y772367D01*
X327087Y771898D01*
X327078Y771892D01*
X327040Y771878D01*
X325679Y771118D01*
X325659Y771098D01*
X325634Y771086D01*
X325611Y771049D01*
X325580Y771018D01*
X325575Y770991D01*
X325560Y770967D01*
X325560Y770924D01*
X325551Y770881D01*
X325561Y770855D01*
X325562Y770827D01*
X325594Y770760D01*
X326994Y768690D01*
X326998Y768686D01*
X327001Y768680D01*
X327052Y768642D01*
X327101Y768601D01*
X327107Y768600D01*
X327112Y768597D01*
X327176Y768592D01*
X327240Y768584D01*
X327246Y768587D01*
X327252Y768586D01*
X327321Y768612D01*
X328228Y769118D01*
X329193Y769422D01*
X330200Y769525D01*
X331207Y769422D01*
X332172Y769118D01*
X333079Y768612D01*
X333085Y768611D01*
X333089Y768607D01*
X333152Y768595D01*
X333215Y768581D01*
X333221Y768583D01*
G37*
G36*
X938405Y759741D02*
X938405Y759741D01*
X938433Y759742D01*
X938500Y759774D01*
X940570Y761174D01*
X940574Y761178D01*
X940580Y761181D01*
X940618Y761232D01*
X940659Y761281D01*
X940660Y761287D01*
X940663Y761292D01*
X940668Y761356D01*
X940676Y761420D01*
X940673Y761426D01*
X940674Y761432D01*
X940648Y761501D01*
X940142Y762408D01*
X939838Y763373D01*
X939735Y764380D01*
X939838Y765387D01*
X940142Y766352D01*
X940648Y767259D01*
X940649Y767265D01*
X940653Y767269D01*
X940665Y767332D01*
X940679Y767395D01*
X940677Y767401D01*
X940678Y767407D01*
X940653Y767466D01*
X940632Y767526D01*
X940627Y767530D01*
X940624Y767536D01*
X940570Y767586D01*
X938500Y768986D01*
X938473Y768995D01*
X938451Y769012D01*
X938408Y769016D01*
X938367Y769029D01*
X938340Y769022D01*
X938312Y769025D01*
X938273Y769005D01*
X938231Y768994D01*
X938213Y768973D01*
X938188Y768960D01*
X938142Y768901D01*
X937382Y767540D01*
X937380Y767529D01*
X937362Y767493D01*
X936893Y766006D01*
X936893Y765996D01*
X936883Y765957D01*
X936725Y764405D01*
X936727Y764395D01*
X936725Y764355D01*
X936883Y762803D01*
X936887Y762794D01*
X936893Y762754D01*
X937362Y761267D01*
X937368Y761258D01*
X937382Y761220D01*
X938142Y759859D01*
X938162Y759839D01*
X938174Y759814D01*
X938211Y759791D01*
X938242Y759760D01*
X938269Y759755D01*
X938293Y759740D01*
X938336Y759740D01*
X938379Y759731D01*
X938405Y759741D01*
G37*
G36*
X323725Y759741D02*
X323725Y759741D01*
X323753Y759742D01*
X323820Y759774D01*
X325890Y761174D01*
X325894Y761178D01*
X325900Y761181D01*
X325938Y761232D01*
X325979Y761281D01*
X325980Y761287D01*
X325983Y761292D01*
X325988Y761356D01*
X325996Y761420D01*
X325993Y761426D01*
X325994Y761432D01*
X325968Y761501D01*
X325462Y762408D01*
X325158Y763373D01*
X325055Y764380D01*
X325158Y765387D01*
X325462Y766352D01*
X325968Y767259D01*
X325969Y767265D01*
X325973Y767269D01*
X325985Y767332D01*
X325999Y767395D01*
X325997Y767401D01*
X325998Y767407D01*
X325973Y767466D01*
X325952Y767526D01*
X325947Y767530D01*
X325944Y767536D01*
X325890Y767586D01*
X323820Y768986D01*
X323793Y768995D01*
X323771Y769012D01*
X323728Y769016D01*
X323687Y769029D01*
X323660Y769022D01*
X323632Y769025D01*
X323593Y769005D01*
X323551Y768994D01*
X323533Y768973D01*
X323508Y768960D01*
X323462Y768901D01*
X322702Y767540D01*
X322700Y767529D01*
X322682Y767493D01*
X322213Y766006D01*
X322213Y765996D01*
X322203Y765957D01*
X322045Y764405D01*
X322047Y764395D01*
X322045Y764355D01*
X322203Y762803D01*
X322207Y762794D01*
X322213Y762754D01*
X322682Y761267D01*
X322688Y761258D01*
X322702Y761220D01*
X323462Y759859D01*
X323482Y759839D01*
X323494Y759814D01*
X323531Y759791D01*
X323562Y759760D01*
X323589Y759755D01*
X323613Y759740D01*
X323656Y759740D01*
X323699Y759731D01*
X323725Y759741D01*
G37*
G36*
X336740Y759738D02*
X336740Y759738D01*
X336768Y759735D01*
X336807Y759755D01*
X336849Y759767D01*
X336867Y759787D01*
X336892Y759800D01*
X336938Y759859D01*
X337698Y761220D01*
X337700Y761231D01*
X337718Y761267D01*
X338187Y762754D01*
X338187Y762764D01*
X338197Y762803D01*
X338355Y764355D01*
X338353Y764365D01*
X338355Y764405D01*
X338197Y765957D01*
X338193Y765966D01*
X338187Y766006D01*
X337718Y767493D01*
X337712Y767502D01*
X337698Y767540D01*
X336938Y768901D01*
X336918Y768921D01*
X336906Y768946D01*
X336869Y768969D01*
X336838Y769000D01*
X336811Y769005D01*
X336787Y769020D01*
X336744Y769020D01*
X336701Y769029D01*
X336675Y769019D01*
X336647Y769018D01*
X336580Y768986D01*
X334510Y767586D01*
X334506Y767582D01*
X334500Y767579D01*
X334462Y767528D01*
X334421Y767479D01*
X334420Y767473D01*
X334417Y767468D01*
X334412Y767404D01*
X334404Y767340D01*
X334407Y767334D01*
X334406Y767328D01*
X334432Y767259D01*
X334938Y766352D01*
X335242Y765387D01*
X335345Y764380D01*
X335242Y763373D01*
X334938Y762408D01*
X334432Y761501D01*
X334431Y761495D01*
X334427Y761491D01*
X334415Y761428D01*
X334401Y761365D01*
X334403Y761359D01*
X334402Y761353D01*
X334427Y761294D01*
X334448Y761234D01*
X334453Y761230D01*
X334456Y761224D01*
X334510Y761174D01*
X336580Y759774D01*
X336607Y759765D01*
X336629Y759748D01*
X336672Y759744D01*
X336713Y759731D01*
X336740Y759738D01*
G37*
G36*
X951420Y759738D02*
X951420Y759738D01*
X951448Y759735D01*
X951487Y759755D01*
X951529Y759767D01*
X951547Y759787D01*
X951572Y759800D01*
X951618Y759859D01*
X952378Y761220D01*
X952380Y761231D01*
X952398Y761267D01*
X952867Y762754D01*
X952867Y762764D01*
X952877Y762803D01*
X953035Y764355D01*
X953033Y764365D01*
X953035Y764405D01*
X952877Y765957D01*
X952873Y765966D01*
X952867Y766006D01*
X952398Y767493D01*
X952392Y767502D01*
X952378Y767540D01*
X951618Y768901D01*
X951598Y768921D01*
X951586Y768946D01*
X951549Y768969D01*
X951518Y769000D01*
X951491Y769005D01*
X951467Y769020D01*
X951424Y769020D01*
X951381Y769029D01*
X951355Y769019D01*
X951327Y769018D01*
X951260Y768986D01*
X949190Y767586D01*
X949186Y767582D01*
X949180Y767579D01*
X949142Y767528D01*
X949101Y767479D01*
X949100Y767473D01*
X949097Y767468D01*
X949092Y767404D01*
X949084Y767340D01*
X949087Y767334D01*
X949086Y767328D01*
X949112Y767259D01*
X949618Y766352D01*
X949922Y765387D01*
X950025Y764380D01*
X949922Y763373D01*
X949618Y762408D01*
X949112Y761501D01*
X949111Y761495D01*
X949107Y761491D01*
X949095Y761428D01*
X949081Y761365D01*
X949083Y761359D01*
X949082Y761353D01*
X949107Y761294D01*
X949128Y761234D01*
X949133Y761230D01*
X949136Y761224D01*
X949190Y761174D01*
X951260Y759774D01*
X951287Y759765D01*
X951309Y759748D01*
X951352Y759744D01*
X951393Y759731D01*
X951420Y759738D01*
G37*
G36*
X333221Y217403D02*
X333221Y217403D01*
X333227Y217402D01*
X333286Y217427D01*
X333346Y217448D01*
X333350Y217453D01*
X333356Y217456D01*
X333406Y217510D01*
X334806Y219580D01*
X334815Y219607D01*
X334832Y219629D01*
X334836Y219672D01*
X334849Y219713D01*
X334842Y219740D01*
X334845Y219768D01*
X334825Y219807D01*
X334814Y219849D01*
X334793Y219867D01*
X334780Y219892D01*
X334721Y219938D01*
X333360Y220698D01*
X333349Y220700D01*
X333313Y220718D01*
X331826Y221187D01*
X331816Y221187D01*
X331777Y221197D01*
X330225Y221355D01*
X330215Y221353D01*
X330175Y221355D01*
X328623Y221197D01*
X328614Y221193D01*
X328574Y221187D01*
X327087Y220718D01*
X327078Y220712D01*
X327040Y220698D01*
X325679Y219938D01*
X325659Y219918D01*
X325634Y219906D01*
X325611Y219869D01*
X325580Y219838D01*
X325575Y219811D01*
X325560Y219787D01*
X325560Y219744D01*
X325551Y219701D01*
X325561Y219675D01*
X325562Y219647D01*
X325594Y219580D01*
X326994Y217510D01*
X326998Y217506D01*
X327001Y217500D01*
X327052Y217462D01*
X327101Y217421D01*
X327107Y217420D01*
X327112Y217417D01*
X327176Y217412D01*
X327240Y217404D01*
X327246Y217407D01*
X327252Y217406D01*
X327321Y217432D01*
X328228Y217938D01*
X329193Y218242D01*
X330200Y218345D01*
X331207Y218242D01*
X332172Y217938D01*
X333079Y217432D01*
X333085Y217431D01*
X333089Y217427D01*
X333152Y217415D01*
X333215Y217401D01*
X333221Y217403D01*
G37*
G36*
X947901Y217403D02*
X947901Y217403D01*
X947907Y217402D01*
X947966Y217427D01*
X948026Y217448D01*
X948030Y217453D01*
X948036Y217456D01*
X948086Y217510D01*
X949486Y219580D01*
X949495Y219607D01*
X949512Y219629D01*
X949516Y219672D01*
X949529Y219713D01*
X949522Y219740D01*
X949525Y219768D01*
X949505Y219807D01*
X949494Y219849D01*
X949473Y219867D01*
X949460Y219892D01*
X949401Y219938D01*
X948040Y220698D01*
X948029Y220700D01*
X947993Y220718D01*
X946506Y221187D01*
X946496Y221187D01*
X946457Y221197D01*
X944905Y221355D01*
X944895Y221353D01*
X944855Y221355D01*
X943303Y221197D01*
X943294Y221193D01*
X943254Y221187D01*
X941767Y220718D01*
X941758Y220712D01*
X941720Y220698D01*
X940359Y219938D01*
X940339Y219918D01*
X940314Y219906D01*
X940291Y219869D01*
X940260Y219838D01*
X940255Y219811D01*
X940240Y219787D01*
X940240Y219744D01*
X940231Y219701D01*
X940241Y219675D01*
X940242Y219647D01*
X940274Y219580D01*
X941674Y217510D01*
X941678Y217506D01*
X941681Y217500D01*
X941732Y217462D01*
X941781Y217421D01*
X941787Y217420D01*
X941792Y217417D01*
X941856Y217412D01*
X941920Y217404D01*
X941926Y217407D01*
X941932Y217406D01*
X942001Y217432D01*
X942908Y217938D01*
X943873Y218242D01*
X944880Y218345D01*
X945887Y218242D01*
X946852Y217938D01*
X947759Y217432D01*
X947765Y217431D01*
X947769Y217427D01*
X947832Y217415D01*
X947895Y217401D01*
X947901Y217403D01*
G37*
G36*
X323725Y208561D02*
X323725Y208561D01*
X323753Y208562D01*
X323820Y208594D01*
X325890Y209994D01*
X325894Y209998D01*
X325900Y210001D01*
X325938Y210052D01*
X325979Y210101D01*
X325980Y210107D01*
X325983Y210112D01*
X325988Y210176D01*
X325996Y210240D01*
X325993Y210246D01*
X325994Y210252D01*
X325968Y210321D01*
X325462Y211228D01*
X325158Y212193D01*
X325055Y213200D01*
X325158Y214207D01*
X325462Y215172D01*
X325968Y216079D01*
X325969Y216085D01*
X325973Y216089D01*
X325985Y216152D01*
X325999Y216215D01*
X325997Y216221D01*
X325998Y216227D01*
X325973Y216286D01*
X325952Y216346D01*
X325947Y216350D01*
X325944Y216356D01*
X325890Y216406D01*
X323820Y217806D01*
X323793Y217815D01*
X323771Y217832D01*
X323728Y217836D01*
X323687Y217849D01*
X323660Y217842D01*
X323632Y217845D01*
X323593Y217825D01*
X323551Y217814D01*
X323533Y217793D01*
X323508Y217780D01*
X323462Y217721D01*
X322702Y216360D01*
X322700Y216349D01*
X322682Y216313D01*
X322213Y214826D01*
X322213Y214816D01*
X322203Y214777D01*
X322045Y213225D01*
X322047Y213215D01*
X322045Y213175D01*
X322203Y211623D01*
X322207Y211614D01*
X322213Y211574D01*
X322682Y210087D01*
X322688Y210078D01*
X322702Y210040D01*
X323462Y208679D01*
X323482Y208659D01*
X323494Y208634D01*
X323531Y208611D01*
X323562Y208580D01*
X323589Y208575D01*
X323613Y208560D01*
X323656Y208560D01*
X323699Y208551D01*
X323725Y208561D01*
G37*
G36*
X938405Y208561D02*
X938405Y208561D01*
X938433Y208562D01*
X938500Y208594D01*
X940570Y209994D01*
X940574Y209998D01*
X940580Y210001D01*
X940618Y210052D01*
X940659Y210101D01*
X940660Y210107D01*
X940663Y210112D01*
X940668Y210176D01*
X940676Y210240D01*
X940673Y210246D01*
X940674Y210252D01*
X940648Y210321D01*
X940142Y211228D01*
X939838Y212193D01*
X939735Y213200D01*
X939838Y214207D01*
X940142Y215172D01*
X940648Y216079D01*
X940649Y216085D01*
X940653Y216089D01*
X940665Y216152D01*
X940679Y216215D01*
X940677Y216221D01*
X940678Y216227D01*
X940653Y216286D01*
X940632Y216346D01*
X940627Y216350D01*
X940624Y216356D01*
X940570Y216406D01*
X938500Y217806D01*
X938473Y217815D01*
X938451Y217832D01*
X938408Y217836D01*
X938367Y217849D01*
X938340Y217842D01*
X938312Y217845D01*
X938273Y217825D01*
X938231Y217814D01*
X938213Y217793D01*
X938188Y217780D01*
X938142Y217721D01*
X937382Y216360D01*
X937380Y216349D01*
X937362Y216313D01*
X936893Y214826D01*
X936893Y214816D01*
X936883Y214777D01*
X936725Y213225D01*
X936727Y213215D01*
X936725Y213175D01*
X936883Y211623D01*
X936887Y211614D01*
X936893Y211574D01*
X937362Y210087D01*
X937368Y210078D01*
X937382Y210040D01*
X938142Y208679D01*
X938162Y208659D01*
X938174Y208634D01*
X938211Y208611D01*
X938242Y208580D01*
X938269Y208575D01*
X938293Y208560D01*
X938336Y208560D01*
X938379Y208551D01*
X938405Y208561D01*
G37*
G36*
X951420Y208558D02*
X951420Y208558D01*
X951448Y208555D01*
X951487Y208575D01*
X951529Y208587D01*
X951547Y208607D01*
X951572Y208620D01*
X951618Y208679D01*
X952378Y210040D01*
X952380Y210051D01*
X952398Y210087D01*
X952867Y211574D01*
X952867Y211584D01*
X952877Y211623D01*
X953035Y213175D01*
X953033Y213185D01*
X953035Y213225D01*
X952877Y214777D01*
X952873Y214786D01*
X952867Y214826D01*
X952398Y216313D01*
X952392Y216322D01*
X952378Y216360D01*
X951618Y217721D01*
X951598Y217741D01*
X951586Y217766D01*
X951549Y217789D01*
X951518Y217820D01*
X951491Y217825D01*
X951467Y217840D01*
X951424Y217840D01*
X951381Y217849D01*
X951355Y217839D01*
X951327Y217838D01*
X951260Y217806D01*
X949190Y216406D01*
X949186Y216402D01*
X949180Y216399D01*
X949142Y216348D01*
X949101Y216299D01*
X949100Y216293D01*
X949097Y216288D01*
X949092Y216224D01*
X949084Y216160D01*
X949087Y216154D01*
X949086Y216148D01*
X949112Y216079D01*
X949618Y215172D01*
X949922Y214207D01*
X950025Y213200D01*
X949922Y212193D01*
X949618Y211228D01*
X949112Y210321D01*
X949111Y210315D01*
X949107Y210311D01*
X949095Y210248D01*
X949081Y210185D01*
X949083Y210179D01*
X949082Y210173D01*
X949107Y210114D01*
X949128Y210054D01*
X949133Y210050D01*
X949136Y210044D01*
X949190Y209994D01*
X951260Y208594D01*
X951287Y208585D01*
X951309Y208568D01*
X951352Y208564D01*
X951393Y208551D01*
X951420Y208558D01*
G37*
G36*
X336740Y208558D02*
X336740Y208558D01*
X336768Y208555D01*
X336807Y208575D01*
X336849Y208587D01*
X336867Y208607D01*
X336892Y208620D01*
X336938Y208679D01*
X337698Y210040D01*
X337700Y210051D01*
X337718Y210087D01*
X338187Y211574D01*
X338187Y211584D01*
X338197Y211623D01*
X338355Y213175D01*
X338353Y213185D01*
X338355Y213225D01*
X338197Y214777D01*
X338193Y214786D01*
X338187Y214826D01*
X337718Y216313D01*
X337712Y216322D01*
X337698Y216360D01*
X336938Y217721D01*
X336918Y217741D01*
X336906Y217766D01*
X336869Y217789D01*
X336838Y217820D01*
X336811Y217825D01*
X336787Y217840D01*
X336744Y217840D01*
X336701Y217849D01*
X336675Y217839D01*
X336647Y217838D01*
X336580Y217806D01*
X334510Y216406D01*
X334506Y216402D01*
X334500Y216399D01*
X334462Y216348D01*
X334421Y216299D01*
X334420Y216293D01*
X334417Y216288D01*
X334412Y216224D01*
X334404Y216160D01*
X334407Y216154D01*
X334406Y216148D01*
X334432Y216079D01*
X334938Y215172D01*
X335242Y214207D01*
X335345Y213200D01*
X335242Y212193D01*
X334938Y211228D01*
X334432Y210321D01*
X334431Y210315D01*
X334427Y210311D01*
X334415Y210248D01*
X334401Y210185D01*
X334403Y210179D01*
X334402Y210173D01*
X334427Y210114D01*
X334448Y210054D01*
X334453Y210050D01*
X334456Y210044D01*
X334510Y209994D01*
X336580Y208594D01*
X336607Y208585D01*
X336629Y208568D01*
X336672Y208564D01*
X336713Y208551D01*
X336740Y208558D01*
G37*
D10*
X60100Y94100D03*
X60100Y99100D03*
D11*
X60100Y69350D03*
X60100Y77100D03*
D10*
X60100Y84100D03*
X60100Y89100D03*
X60100Y109100D03*
X60100Y104100D03*
D11*
X60100Y133850D03*
X60100Y126100D03*
D10*
X60100Y119100D03*
X60100Y114100D03*
D12*
X76200Y135500D03*
X76200Y118500D03*
X76200Y67700D03*
X76200Y84700D03*
D13*
X91850Y87850D03*
X98350Y87850D03*
X104850Y87850D03*
X111350Y87850D03*
X111350Y115350D03*
X104850Y115350D03*
X98350Y115350D03*
X91850Y115350D03*
D14*
X101600Y101600D03*
D15*
X93100Y139700D03*
X110100Y139700D03*
D16*
X340400Y106800D03*
X345400Y106800D03*
X345400Y121800D03*
X340400Y121800D03*
D17*
X335400Y121800D03*
X335400Y116800D03*
X335400Y106800D03*
X335400Y111800D03*
X350400Y106800D03*
X350400Y111800D03*
X350400Y116800D03*
X350400Y121800D03*
D12*
X368300Y122800D03*
X368300Y105800D03*
X381000Y122800D03*
X381000Y105800D03*
D18*
X321200Y200200D03*
X321200Y190200D03*
X339200Y190200D03*
X339200Y200200D03*
D19*
X330200Y219700D03*
D20*
X336700Y213200D03*
X323700Y213200D03*
D19*
X330200Y206700D03*
D12*
X393700Y194700D03*
X393700Y211700D03*
D21*
X171100Y496700D03*
D22*
X296850Y509200D03*
D23*
X310100Y505700D03*
X147100Y505700D03*
D22*
X160350Y509200D03*
D21*
X176100Y496700D03*
X181100Y496700D03*
X186100Y496700D03*
X191100Y496700D03*
X196100Y496700D03*
X201100Y496700D03*
X206100Y496700D03*
X211100Y496700D03*
X216100Y496700D03*
X221100Y496700D03*
X226100Y496700D03*
X231100Y496700D03*
X236100Y496700D03*
X241100Y496700D03*
X246100Y496700D03*
X251100Y496700D03*
X256100Y496700D03*
X261100Y496700D03*
X266100Y496700D03*
X271100Y496700D03*
X276100Y496700D03*
X281100Y496700D03*
X286100Y496700D03*
D12*
X330200Y453000D03*
X330200Y436000D03*
D24*
X183600Y387000D03*
D25*
X163900Y434340D03*
X140900Y434340D03*
D15*
X143900Y419100D03*
X160900Y419100D03*
D25*
X163900Y450850D03*
X140900Y450850D03*
D26*
X572690Y71060D03*
X572690Y127060D03*
D27*
X535940Y84060D03*
X535940Y94060D03*
X535940Y104060D03*
X535940Y114060D03*
D15*
X503800Y76200D03*
X486800Y76200D03*
X503800Y127000D03*
X486800Y127000D03*
D28*
X122920Y302100D03*
X122920Y327100D03*
X122920Y282100D03*
X122920Y257100D03*
D29*
X146050Y22860D03*
X146050Y78740D03*
X184150Y22860D03*
X184150Y78740D03*
D15*
X93100Y152400D03*
X110100Y152400D03*
D30*
X23100Y177800D03*
X53100Y177800D03*
D23*
X102900Y177800D03*
X74900Y177800D03*
D12*
X152400Y143900D03*
X152400Y160900D03*
X139700Y160900D03*
X139700Y143900D03*
D29*
X196850Y22860D03*
X196850Y78740D03*
X234950Y22860D03*
X234950Y78740D03*
D31*
X196300Y99700D03*
X196300Y306700D03*
D32*
X264050Y293200D03*
X188550Y295700D03*
X264050Y288200D03*
X188550Y290700D03*
X264050Y283200D03*
X188550Y285700D03*
X264050Y278200D03*
X188550Y280700D03*
X264050Y273200D03*
X188550Y275700D03*
X264050Y268200D03*
X188550Y270700D03*
X264050Y263200D03*
X188550Y265700D03*
X264050Y258200D03*
X188550Y260700D03*
X264050Y253200D03*
X188550Y255700D03*
X264050Y248200D03*
X188550Y250700D03*
X264050Y243200D03*
X188550Y245700D03*
X264050Y238200D03*
X188550Y240700D03*
X264050Y233200D03*
X188550Y235700D03*
X264050Y228200D03*
X188550Y230700D03*
X264050Y223200D03*
X188550Y225700D03*
X264050Y218200D03*
X188550Y220700D03*
X264050Y213200D03*
X188550Y215700D03*
X264050Y208200D03*
X188550Y210700D03*
X264050Y203200D03*
X188550Y205700D03*
X264050Y198200D03*
X188550Y200700D03*
X264050Y193200D03*
X188550Y195700D03*
X264050Y188200D03*
X188550Y190700D03*
X264050Y163200D03*
X188550Y165700D03*
X264050Y158200D03*
X188550Y160700D03*
X264050Y153200D03*
X188550Y155700D03*
X264050Y148200D03*
X188550Y150700D03*
X264050Y143200D03*
X188550Y145700D03*
X264050Y138200D03*
X188550Y140700D03*
X264050Y133200D03*
X188550Y135700D03*
X264050Y128200D03*
X188550Y130700D03*
X264050Y123200D03*
X188550Y125700D03*
X264050Y118200D03*
X188550Y120700D03*
X264050Y113200D03*
X188550Y115700D03*
X188550Y110700D03*
D19*
X368300Y216800D03*
D20*
X374800Y210300D03*
X361800Y210300D03*
D19*
X368300Y203800D03*
D33*
X368300Y189610D03*
X359300Y189610D03*
X359300Y197860D03*
X377300Y189610D03*
X377300Y197860D03*
D34*
X405100Y372300D03*
X462100Y372300D03*
D35*
X478100Y503800D03*
X346600Y513800D03*
D36*
X393200Y475300D03*
X404200Y471300D03*
X415200Y475300D03*
X426200Y477300D03*
X437200Y475300D03*
X448200Y477300D03*
X459200Y475300D03*
X470200Y475300D03*
D37*
X92100Y494999D03*
X101600Y494999D03*
X111100Y494999D03*
X111100Y521001D03*
X92100Y521001D03*
D12*
X127000Y499500D03*
X127000Y516500D03*
X76200Y516500D03*
X76200Y499500D03*
D10*
X674780Y94100D03*
X674780Y99100D03*
D11*
X674780Y69350D03*
X674780Y77100D03*
D10*
X674780Y84100D03*
X674780Y89100D03*
X674780Y109100D03*
X674780Y104100D03*
D11*
X674780Y133850D03*
X674780Y126100D03*
D10*
X674780Y119100D03*
X674780Y114100D03*
D12*
X690880Y135500D03*
X690880Y118500D03*
X690880Y67700D03*
X690880Y84700D03*
D13*
X706530Y87850D03*
X713030Y87850D03*
X719530Y87850D03*
X726030Y87850D03*
X726030Y115350D03*
X719530Y115350D03*
X713030Y115350D03*
X706530Y115350D03*
D14*
X716280Y101600D03*
D15*
X707780Y139700D03*
X724780Y139700D03*
D16*
X955080Y106800D03*
X960080Y106800D03*
X960080Y121800D03*
X955080Y121800D03*
D17*
X950080Y121800D03*
X950080Y116800D03*
X950080Y106800D03*
X950080Y111800D03*
X965080Y106800D03*
X965080Y111800D03*
X965080Y116800D03*
X965080Y121800D03*
D12*
X982980Y122800D03*
X982980Y105800D03*
X995680Y122800D03*
X995680Y105800D03*
D18*
X935880Y200200D03*
X935880Y190200D03*
X953880Y190200D03*
X953880Y200200D03*
D19*
X944880Y219700D03*
D20*
X951380Y213200D03*
X938380Y213200D03*
D19*
X944880Y206700D03*
D12*
X1008380Y194700D03*
X1008380Y211700D03*
D21*
X785780Y496700D03*
D22*
X911530Y509200D03*
D23*
X924780Y505700D03*
X761780Y505700D03*
D22*
X775030Y509200D03*
D21*
X790780Y496700D03*
X795780Y496700D03*
X800780Y496700D03*
X805780Y496700D03*
X810780Y496700D03*
X815780Y496700D03*
X820780Y496700D03*
X825780Y496700D03*
X830780Y496700D03*
X835780Y496700D03*
X840780Y496700D03*
X845780Y496700D03*
X850780Y496700D03*
X855780Y496700D03*
X860780Y496700D03*
X865780Y496700D03*
X870780Y496700D03*
X875780Y496700D03*
X880780Y496700D03*
X885780Y496700D03*
X890780Y496700D03*
X895780Y496700D03*
X900780Y496700D03*
D12*
X944880Y453000D03*
X944880Y436000D03*
D24*
X798280Y387000D03*
D25*
X778580Y434340D03*
X755580Y434340D03*
D15*
X758580Y419100D03*
X775580Y419100D03*
D25*
X778580Y450850D03*
X755580Y450850D03*
D26*
X1187370Y71060D03*
X1187370Y127060D03*
D27*
X1150620Y84060D03*
X1150620Y94060D03*
X1150620Y104060D03*
X1150620Y114060D03*
D15*
X1118480Y76200D03*
X1101480Y76200D03*
X1118480Y127000D03*
X1101480Y127000D03*
D28*
X737600Y302100D03*
X737600Y327100D03*
X737600Y282100D03*
X737600Y257100D03*
D29*
X760730Y22860D03*
X760730Y78740D03*
X798830Y22860D03*
X798830Y78740D03*
D15*
X707780Y152400D03*
X724780Y152400D03*
D30*
X637780Y177800D03*
X667780Y177800D03*
D23*
X717580Y177800D03*
X689580Y177800D03*
D12*
X767080Y143900D03*
X767080Y160900D03*
X754380Y160900D03*
X754380Y143900D03*
D29*
X811530Y22860D03*
X811530Y78740D03*
X849630Y22860D03*
X849630Y78740D03*
D31*
X810980Y99700D03*
X810980Y306700D03*
D32*
X878730Y293200D03*
X803230Y295700D03*
X878730Y288200D03*
X803230Y290700D03*
X878730Y283200D03*
X803230Y285700D03*
X878730Y278200D03*
X803230Y280700D03*
X878730Y273200D03*
X803230Y275700D03*
X878730Y268200D03*
X803230Y270700D03*
X878730Y263200D03*
X803230Y265700D03*
X878730Y258200D03*
X803230Y260700D03*
X878730Y253200D03*
X803230Y255700D03*
X878730Y248200D03*
X803230Y250700D03*
X878730Y243200D03*
X803230Y245700D03*
X878730Y238200D03*
X803230Y240700D03*
X878730Y233200D03*
X803230Y235700D03*
X878730Y228200D03*
X803230Y230700D03*
X878730Y223200D03*
X803230Y225700D03*
X878730Y218200D03*
X803230Y220700D03*
X878730Y213200D03*
X803230Y215700D03*
X878730Y208200D03*
X803230Y210700D03*
X878730Y203200D03*
X803230Y205700D03*
X878730Y198200D03*
X803230Y200700D03*
X878730Y193200D03*
X803230Y195700D03*
X878730Y188200D03*
X803230Y190700D03*
X878730Y163200D03*
X803230Y165700D03*
X878730Y158200D03*
X803230Y160700D03*
X878730Y153200D03*
X803230Y155700D03*
X878730Y148200D03*
X803230Y150700D03*
X878730Y143200D03*
X803230Y145700D03*
X878730Y138200D03*
X803230Y140700D03*
X878730Y133200D03*
X803230Y135700D03*
X878730Y128200D03*
X803230Y130700D03*
X878730Y123200D03*
X803230Y125700D03*
X878730Y118200D03*
X803230Y120700D03*
X878730Y113200D03*
X803230Y115700D03*
X803230Y110700D03*
D19*
X982980Y216800D03*
D20*
X989480Y210300D03*
X976480Y210300D03*
D19*
X982980Y203800D03*
D33*
X982980Y189610D03*
X973980Y189610D03*
X973980Y197860D03*
X991980Y189610D03*
X991980Y197860D03*
D34*
X1019780Y372300D03*
X1076780Y372300D03*
D35*
X1092780Y503800D03*
X961280Y513800D03*
D36*
X1007880Y475300D03*
X1018880Y471300D03*
X1029880Y475300D03*
X1040880Y477300D03*
X1051880Y475300D03*
X1062880Y477300D03*
X1073880Y475300D03*
X1084880Y475300D03*
D37*
X706780Y494999D03*
X716280Y494999D03*
X725780Y494999D03*
X725780Y521001D03*
X706780Y521001D03*
D12*
X741680Y499500D03*
X741680Y516500D03*
X690880Y516500D03*
X690880Y499500D03*
D10*
X60100Y645280D03*
X60100Y650280D03*
D11*
X60100Y620530D03*
X60100Y628280D03*
D10*
X60100Y635280D03*
X60100Y640280D03*
X60100Y660280D03*
X60100Y655280D03*
D11*
X60100Y685030D03*
X60100Y677280D03*
D10*
X60100Y670280D03*
X60100Y665280D03*
D12*
X76200Y686680D03*
X76200Y669680D03*
X76200Y618880D03*
X76200Y635880D03*
D13*
X91850Y639030D03*
X98350Y639030D03*
X104850Y639030D03*
X111350Y639030D03*
X111350Y666530D03*
X104850Y666530D03*
X98350Y666530D03*
X91850Y666530D03*
D14*
X101600Y652780D03*
D15*
X93100Y690880D03*
X110100Y690880D03*
D16*
X340400Y657980D03*
X345400Y657980D03*
X345400Y672980D03*
X340400Y672980D03*
D17*
X335400Y672980D03*
X335400Y667980D03*
X335400Y657980D03*
X335400Y662980D03*
X350400Y657980D03*
X350400Y662980D03*
X350400Y667980D03*
X350400Y672980D03*
D12*
X368300Y673980D03*
X368300Y656980D03*
X381000Y673980D03*
X381000Y656980D03*
D18*
X321200Y751380D03*
X321200Y741380D03*
X339200Y741380D03*
X339200Y751380D03*
D19*
X330200Y770880D03*
D20*
X336700Y764380D03*
X323700Y764380D03*
D19*
X330200Y757880D03*
D12*
X393700Y745880D03*
X393700Y762880D03*
D21*
X171100Y1047880D03*
D22*
X296850Y1060380D03*
D23*
X310100Y1056880D03*
X147100Y1056880D03*
D22*
X160350Y1060380D03*
D21*
X176100Y1047880D03*
X181100Y1047880D03*
X186100Y1047880D03*
X191100Y1047880D03*
X196100Y1047880D03*
X201100Y1047880D03*
X206100Y1047880D03*
X211100Y1047880D03*
X216100Y1047880D03*
X221100Y1047880D03*
X226100Y1047880D03*
X231100Y1047880D03*
X236100Y1047880D03*
X241100Y1047880D03*
X246100Y1047880D03*
X251100Y1047880D03*
X256100Y1047880D03*
X261100Y1047880D03*
X266100Y1047880D03*
X271100Y1047880D03*
X276100Y1047880D03*
X281100Y1047880D03*
X286100Y1047880D03*
D12*
X330200Y1004180D03*
X330200Y987180D03*
D24*
X183600Y938180D03*
D25*
X163900Y985520D03*
X140900Y985520D03*
D15*
X143900Y970280D03*
X160900Y970280D03*
D25*
X163900Y1002030D03*
X140900Y1002030D03*
D26*
X572690Y622240D03*
X572690Y678240D03*
D27*
X535940Y635240D03*
X535940Y645240D03*
X535940Y655240D03*
X535940Y665240D03*
D15*
X503800Y627380D03*
X486800Y627380D03*
X503800Y678180D03*
X486800Y678180D03*
D28*
X122920Y853280D03*
X122920Y878280D03*
X122920Y833280D03*
X122920Y808280D03*
D29*
X146050Y574040D03*
X146050Y629920D03*
X184150Y574040D03*
X184150Y629920D03*
D15*
X93100Y703580D03*
X110100Y703580D03*
D30*
X23100Y728980D03*
X53100Y728980D03*
D23*
X102900Y728980D03*
X74900Y728980D03*
D12*
X152400Y695080D03*
X152400Y712080D03*
X139700Y712080D03*
X139700Y695080D03*
D29*
X196850Y574040D03*
X196850Y629920D03*
X234950Y574040D03*
X234950Y629920D03*
D31*
X196300Y650880D03*
X196300Y857880D03*
D32*
X264050Y844380D03*
X188550Y846880D03*
X264050Y839380D03*
X188550Y841880D03*
X264050Y834380D03*
X188550Y836880D03*
X264050Y829380D03*
X188550Y831880D03*
X264050Y824380D03*
X188550Y826880D03*
X264050Y819380D03*
X188550Y821880D03*
X264050Y814380D03*
X188550Y816880D03*
X264050Y809380D03*
X188550Y811880D03*
X264050Y804380D03*
X188550Y806880D03*
X264050Y799380D03*
X188550Y801880D03*
X264050Y794380D03*
X188550Y796880D03*
X264050Y789380D03*
X188550Y791880D03*
X264050Y784380D03*
X188550Y786880D03*
X264050Y779380D03*
X188550Y781880D03*
X264050Y774380D03*
X188550Y776880D03*
X264050Y769380D03*
X188550Y771880D03*
X264050Y764380D03*
X188550Y766880D03*
X264050Y759380D03*
X188550Y761880D03*
X264050Y754380D03*
X188550Y756880D03*
X264050Y749380D03*
X188550Y751880D03*
X264050Y744380D03*
X188550Y746880D03*
X264050Y739380D03*
X188550Y741880D03*
X264050Y714380D03*
X188550Y716880D03*
X264050Y709380D03*
X188550Y711880D03*
X264050Y704380D03*
X188550Y706880D03*
X264050Y699380D03*
X188550Y701880D03*
X264050Y694380D03*
X188550Y696880D03*
X264050Y689380D03*
X188550Y691880D03*
X264050Y684380D03*
X188550Y686880D03*
X264050Y679380D03*
X188550Y681880D03*
X264050Y674380D03*
X188550Y676880D03*
X264050Y669380D03*
X188550Y671880D03*
X264050Y664380D03*
X188550Y666880D03*
X188550Y661880D03*
D19*
X368300Y767980D03*
D20*
X374800Y761480D03*
X361800Y761480D03*
D19*
X368300Y754980D03*
D33*
X368300Y740790D03*
X359300Y740790D03*
X359300Y749040D03*
X377300Y740790D03*
X377300Y749040D03*
D34*
X405100Y923480D03*
X462100Y923480D03*
D35*
X478100Y1054980D03*
X346600Y1064980D03*
D36*
X393200Y1026480D03*
X404200Y1022480D03*
X415200Y1026480D03*
X426200Y1028480D03*
X437200Y1026480D03*
X448200Y1028480D03*
X459200Y1026480D03*
X470200Y1026480D03*
D37*
X92100Y1046179D03*
X101600Y1046179D03*
X111100Y1046179D03*
X111100Y1072181D03*
X92100Y1072181D03*
D12*
X127000Y1050680D03*
X127000Y1067680D03*
X76200Y1067680D03*
X76200Y1050680D03*
D10*
X674780Y645280D03*
X674780Y650280D03*
D11*
X674780Y620530D03*
X674780Y628280D03*
D10*
X674780Y635280D03*
X674780Y640280D03*
X674780Y660280D03*
X674780Y655280D03*
D11*
X674780Y685030D03*
X674780Y677280D03*
D10*
X674780Y670280D03*
X674780Y665280D03*
D12*
X690880Y686680D03*
X690880Y669680D03*
X690880Y618880D03*
X690880Y635880D03*
D13*
X706530Y639030D03*
X713030Y639030D03*
X719530Y639030D03*
X726030Y639030D03*
X726030Y666530D03*
X719530Y666530D03*
X713030Y666530D03*
X706530Y666530D03*
D14*
X716280Y652780D03*
D15*
X707780Y690880D03*
X724780Y690880D03*
D16*
X955080Y657980D03*
X960080Y657980D03*
X960080Y672980D03*
X955080Y672980D03*
D17*
X950080Y672980D03*
X950080Y667980D03*
X950080Y657980D03*
X950080Y662980D03*
X965080Y657980D03*
X965080Y662980D03*
X965080Y667980D03*
X965080Y672980D03*
D12*
X982980Y673980D03*
X982980Y656980D03*
X995680Y673980D03*
X995680Y656980D03*
D18*
X935880Y751380D03*
X935880Y741380D03*
X953880Y741380D03*
X953880Y751380D03*
D19*
X944880Y770880D03*
D20*
X951380Y764380D03*
X938380Y764380D03*
D19*
X944880Y757880D03*
D12*
X1008380Y745880D03*
X1008380Y762880D03*
D21*
X785780Y1047880D03*
D22*
X911530Y1060380D03*
D23*
X924780Y1056880D03*
X761780Y1056880D03*
D22*
X775030Y1060380D03*
D21*
X790780Y1047880D03*
X795780Y1047880D03*
X800780Y1047880D03*
X805780Y1047880D03*
X810780Y1047880D03*
X815780Y1047880D03*
X820780Y1047880D03*
X825780Y1047880D03*
X830780Y1047880D03*
X835780Y1047880D03*
X840780Y1047880D03*
X845780Y1047880D03*
X850780Y1047880D03*
X855780Y1047880D03*
X860780Y1047880D03*
X865780Y1047880D03*
X870780Y1047880D03*
X875780Y1047880D03*
X880780Y1047880D03*
X885780Y1047880D03*
X890780Y1047880D03*
X895780Y1047880D03*
X900780Y1047880D03*
D12*
X944880Y1004180D03*
X944880Y987180D03*
D24*
X798280Y938180D03*
D25*
X778580Y985520D03*
X755580Y985520D03*
D15*
X758580Y970280D03*
X775580Y970280D03*
D25*
X778580Y1002030D03*
X755580Y1002030D03*
D26*
X1187370Y622240D03*
X1187370Y678240D03*
D27*
X1150620Y635240D03*
X1150620Y645240D03*
X1150620Y655240D03*
X1150620Y665240D03*
D15*
X1118480Y627380D03*
X1101480Y627380D03*
X1118480Y678180D03*
X1101480Y678180D03*
D28*
X737600Y853280D03*
X737600Y878280D03*
X737600Y833280D03*
X737600Y808280D03*
D29*
X760730Y574040D03*
X760730Y629920D03*
X798830Y574040D03*
X798830Y629920D03*
D15*
X707780Y703580D03*
X724780Y703580D03*
D30*
X637780Y728980D03*
X667780Y728980D03*
D23*
X717580Y728980D03*
X689580Y728980D03*
D12*
X767080Y695080D03*
X767080Y712080D03*
X754380Y712080D03*
X754380Y695080D03*
D29*
X811530Y574040D03*
X811530Y629920D03*
X849630Y574040D03*
X849630Y629920D03*
D31*
X810980Y650880D03*
X810980Y857880D03*
D32*
X878730Y844380D03*
X803230Y846880D03*
X878730Y839380D03*
X803230Y841880D03*
X878730Y834380D03*
X803230Y836880D03*
X878730Y829380D03*
X803230Y831880D03*
X878730Y824380D03*
X803230Y826880D03*
X878730Y819380D03*
X803230Y821880D03*
X878730Y814380D03*
X803230Y816880D03*
X878730Y809380D03*
X803230Y811880D03*
X878730Y804380D03*
X803230Y806880D03*
X878730Y799380D03*
X803230Y801880D03*
X878730Y794380D03*
X803230Y796880D03*
X878730Y789380D03*
X803230Y791880D03*
X878730Y784380D03*
X803230Y786880D03*
X878730Y779380D03*
X803230Y781880D03*
X878730Y774380D03*
X803230Y776880D03*
X878730Y769380D03*
X803230Y771880D03*
X878730Y764380D03*
X803230Y766880D03*
X878730Y759380D03*
X803230Y761880D03*
X878730Y754380D03*
X803230Y756880D03*
X878730Y749380D03*
X803230Y751880D03*
X878730Y744380D03*
X803230Y746880D03*
X878730Y739380D03*
X803230Y741880D03*
X878730Y714380D03*
X803230Y716880D03*
X878730Y709380D03*
X803230Y711880D03*
X878730Y704380D03*
X803230Y706880D03*
X878730Y699380D03*
X803230Y701880D03*
X878730Y694380D03*
X803230Y696880D03*
X878730Y689380D03*
X803230Y691880D03*
X878730Y684380D03*
X803230Y686880D03*
X878730Y679380D03*
X803230Y681880D03*
X878730Y674380D03*
X803230Y676880D03*
X878730Y669380D03*
X803230Y671880D03*
X878730Y664380D03*
X803230Y666880D03*
X803230Y661880D03*
D19*
X982980Y767980D03*
D20*
X989480Y761480D03*
X976480Y761480D03*
D19*
X982980Y754980D03*
D33*
X982980Y740790D03*
X973980Y740790D03*
X973980Y749040D03*
X991980Y740790D03*
X991980Y749040D03*
D34*
X1019780Y923480D03*
X1076780Y923480D03*
D35*
X1092780Y1054980D03*
X961280Y1064980D03*
D36*
X1007880Y1026480D03*
X1018880Y1022480D03*
X1029880Y1026480D03*
X1040880Y1028480D03*
X1051880Y1026480D03*
X1062880Y1028480D03*
X1073880Y1026480D03*
X1084880Y1026480D03*
D37*
X706780Y1046179D03*
X716280Y1046179D03*
X725780Y1046179D03*
X725780Y1072181D03*
X706780Y1072181D03*
D12*
X741680Y1050680D03*
X741680Y1067680D03*
X690880Y1067680D03*
X690880Y1050680D03*
M02*
