G04 EAGLE Gerber RS-274X export*
G75*
%MOMM*%
%FSLAX34Y34*%
%LPD*%
%INSolderpaste Top*%
%IPPOS*%
%AMOC8*
5,1,8,0,0,1.08239X$1,22.5*%
G01*
%ADD10R,1.000000X0.300000*%
%ADD11R,1.000000X0.600000*%
%ADD12R,1.000000X1.100000*%
%ADD13R,1.375000X0.800000*%
%ADD14R,0.300000X0.650000*%
%ADD15R,1.100000X1.000000*%
%ADD16R,0.250000X0.275000*%
%ADD17R,0.275000X0.250000*%
%ADD18R,0.725000X0.522000*%
%ADD19R,0.500000X0.200000*%
%ADD20R,0.200000X0.500000*%
%ADD21R,0.300000X0.800000*%
%ADD22R,1.100000X3.750000*%
%ADD23R,1.700000X4.200000*%
%ADD24R,0.630000X0.830000*%
%ADD25R,2.000000X1.200000*%
%ADD26R,1.350000X0.600000*%
%ADD27R,1.524000X0.762000*%
%ADD28R,1.000000X2.800000*%
%ADD29R,1.400000X1.600000*%
%ADD30R,0.500000X0.422000*%
%ADD31R,1.800000X1.400000*%
%ADD32R,1.400000X1.900000*%
%ADD33R,0.800000X1.500000*%
%ADD34R,0.550000X1.200000*%
%ADD35R,0.830000X0.630000*%
%ADD36C,0.300000*%
%ADD37R,2.750000X1.200000*%
%ADD38R,1.750000X0.300000*%
%ADD39R,0.800000X0.900000*%

G36*
X1052739Y658291D02*
X1052739Y658291D01*
X1052784Y658292D01*
X1052835Y658314D01*
X1052890Y658327D01*
X1052926Y658353D01*
X1052966Y658371D01*
X1053005Y658412D01*
X1053050Y658445D01*
X1053073Y658483D01*
X1053103Y658515D01*
X1053123Y658568D01*
X1053152Y658616D01*
X1053160Y658667D01*
X1053173Y658701D01*
X1053172Y658735D01*
X1053179Y658780D01*
X1053179Y669780D01*
X1053169Y669833D01*
X1053168Y669886D01*
X1053149Y669929D01*
X1053140Y669975D01*
X1053109Y670019D01*
X1053088Y670068D01*
X1053054Y670100D01*
X1053027Y670139D01*
X1052982Y670168D01*
X1052943Y670204D01*
X1052892Y670225D01*
X1052860Y670246D01*
X1052828Y670251D01*
X1052789Y670267D01*
X1050054Y670878D01*
X1047490Y671906D01*
X1045126Y673333D01*
X1043022Y675122D01*
X1041233Y677226D01*
X1039806Y679590D01*
X1038778Y682154D01*
X1038167Y684889D01*
X1038145Y684938D01*
X1038133Y684990D01*
X1038105Y685028D01*
X1038086Y685070D01*
X1038047Y685107D01*
X1038015Y685150D01*
X1037975Y685174D01*
X1037941Y685206D01*
X1037890Y685224D01*
X1037844Y685252D01*
X1037790Y685261D01*
X1037754Y685274D01*
X1037722Y685272D01*
X1037680Y685279D01*
X1026680Y685279D01*
X1026625Y685268D01*
X1026569Y685267D01*
X1026528Y685248D01*
X1026485Y685240D01*
X1026439Y685208D01*
X1026388Y685185D01*
X1026358Y685152D01*
X1026321Y685127D01*
X1026291Y685080D01*
X1026253Y685038D01*
X1026238Y684997D01*
X1026214Y684960D01*
X1026205Y684904D01*
X1026186Y684851D01*
X1026187Y684799D01*
X1026181Y684763D01*
X1026189Y684731D01*
X1026189Y684726D01*
X1026189Y684724D01*
X1026189Y684723D01*
X1026190Y684685D01*
X1027029Y680364D01*
X1027041Y680335D01*
X1027049Y680293D01*
X1028518Y676143D01*
X1028534Y676116D01*
X1028548Y676076D01*
X1030614Y672189D01*
X1030634Y672165D01*
X1030653Y672127D01*
X1033271Y668588D01*
X1033295Y668567D01*
X1033320Y668532D01*
X1036432Y665420D01*
X1036447Y665410D01*
X1036455Y665399D01*
X1036470Y665390D01*
X1036488Y665371D01*
X1040027Y662753D01*
X1040055Y662740D01*
X1040089Y662714D01*
X1043976Y660648D01*
X1044006Y660639D01*
X1044043Y660618D01*
X1048193Y659149D01*
X1048224Y659144D01*
X1048264Y659129D01*
X1052585Y658290D01*
X1052641Y658290D01*
X1052697Y658281D01*
X1052739Y658291D01*
G37*
G36*
X438059Y132511D02*
X438059Y132511D01*
X438104Y132512D01*
X438155Y132534D01*
X438210Y132547D01*
X438246Y132573D01*
X438286Y132591D01*
X438325Y132632D01*
X438370Y132665D01*
X438393Y132703D01*
X438423Y132735D01*
X438443Y132788D01*
X438472Y132836D01*
X438480Y132887D01*
X438493Y132921D01*
X438492Y132955D01*
X438499Y133000D01*
X438499Y144000D01*
X438489Y144053D01*
X438488Y144106D01*
X438469Y144149D01*
X438460Y144195D01*
X438429Y144239D01*
X438408Y144288D01*
X438374Y144320D01*
X438347Y144359D01*
X438302Y144388D01*
X438263Y144424D01*
X438212Y144445D01*
X438180Y144466D01*
X438148Y144471D01*
X438109Y144487D01*
X435374Y145098D01*
X432810Y146126D01*
X430446Y147553D01*
X428342Y149342D01*
X426553Y151446D01*
X425126Y153810D01*
X424098Y156374D01*
X423487Y159109D01*
X423465Y159158D01*
X423453Y159210D01*
X423425Y159248D01*
X423406Y159290D01*
X423367Y159327D01*
X423335Y159370D01*
X423295Y159394D01*
X423261Y159426D01*
X423210Y159444D01*
X423164Y159472D01*
X423110Y159481D01*
X423074Y159494D01*
X423042Y159492D01*
X423000Y159499D01*
X412000Y159499D01*
X411945Y159488D01*
X411889Y159487D01*
X411848Y159468D01*
X411805Y159460D01*
X411759Y159428D01*
X411708Y159405D01*
X411678Y159372D01*
X411641Y159347D01*
X411611Y159300D01*
X411573Y159258D01*
X411558Y159217D01*
X411534Y159180D01*
X411525Y159124D01*
X411506Y159071D01*
X411507Y159019D01*
X411501Y158983D01*
X411509Y158951D01*
X411509Y158946D01*
X411509Y158944D01*
X411509Y158943D01*
X411510Y158905D01*
X412349Y154584D01*
X412361Y154555D01*
X412369Y154513D01*
X413838Y150363D01*
X413854Y150336D01*
X413868Y150296D01*
X415934Y146409D01*
X415954Y146385D01*
X415973Y146347D01*
X418591Y142808D01*
X418615Y142787D01*
X418640Y142752D01*
X421752Y139640D01*
X421767Y139630D01*
X421775Y139619D01*
X421790Y139610D01*
X421808Y139591D01*
X425347Y136973D01*
X425375Y136960D01*
X425409Y136934D01*
X429296Y134868D01*
X429326Y134859D01*
X429363Y134838D01*
X433513Y133369D01*
X433544Y133364D01*
X433584Y133349D01*
X437905Y132510D01*
X437961Y132510D01*
X438017Y132501D01*
X438059Y132511D01*
G37*
G36*
X1052739Y1184071D02*
X1052739Y1184071D01*
X1052784Y1184072D01*
X1052835Y1184094D01*
X1052890Y1184107D01*
X1052926Y1184133D01*
X1052966Y1184151D01*
X1053005Y1184192D01*
X1053050Y1184225D01*
X1053073Y1184263D01*
X1053103Y1184295D01*
X1053123Y1184348D01*
X1053152Y1184396D01*
X1053160Y1184447D01*
X1053173Y1184481D01*
X1053172Y1184515D01*
X1053179Y1184560D01*
X1053179Y1195560D01*
X1053169Y1195613D01*
X1053168Y1195666D01*
X1053149Y1195709D01*
X1053140Y1195755D01*
X1053109Y1195799D01*
X1053088Y1195848D01*
X1053054Y1195880D01*
X1053027Y1195919D01*
X1052982Y1195948D01*
X1052943Y1195984D01*
X1052892Y1196005D01*
X1052860Y1196026D01*
X1052828Y1196031D01*
X1052789Y1196047D01*
X1050054Y1196658D01*
X1047490Y1197686D01*
X1045126Y1199113D01*
X1043022Y1200902D01*
X1041233Y1203006D01*
X1039806Y1205370D01*
X1038778Y1207934D01*
X1038167Y1210669D01*
X1038145Y1210718D01*
X1038133Y1210770D01*
X1038105Y1210808D01*
X1038086Y1210850D01*
X1038047Y1210887D01*
X1038015Y1210930D01*
X1037975Y1210954D01*
X1037941Y1210986D01*
X1037890Y1211004D01*
X1037844Y1211032D01*
X1037790Y1211041D01*
X1037754Y1211054D01*
X1037722Y1211052D01*
X1037680Y1211059D01*
X1026680Y1211059D01*
X1026625Y1211048D01*
X1026569Y1211047D01*
X1026528Y1211028D01*
X1026485Y1211020D01*
X1026439Y1210988D01*
X1026388Y1210965D01*
X1026358Y1210932D01*
X1026321Y1210907D01*
X1026291Y1210860D01*
X1026253Y1210818D01*
X1026238Y1210777D01*
X1026214Y1210740D01*
X1026205Y1210684D01*
X1026186Y1210631D01*
X1026187Y1210579D01*
X1026181Y1210543D01*
X1026189Y1210511D01*
X1026189Y1210506D01*
X1026189Y1210504D01*
X1026189Y1210503D01*
X1026190Y1210465D01*
X1027029Y1206144D01*
X1027041Y1206115D01*
X1027049Y1206073D01*
X1028518Y1201923D01*
X1028534Y1201896D01*
X1028548Y1201856D01*
X1030614Y1197969D01*
X1030634Y1197945D01*
X1030653Y1197907D01*
X1033271Y1194368D01*
X1033295Y1194347D01*
X1033320Y1194312D01*
X1036432Y1191200D01*
X1036447Y1191190D01*
X1036455Y1191179D01*
X1036470Y1191170D01*
X1036488Y1191151D01*
X1040027Y1188533D01*
X1040055Y1188520D01*
X1040089Y1188494D01*
X1043976Y1186428D01*
X1044006Y1186419D01*
X1044043Y1186398D01*
X1048193Y1184929D01*
X1048224Y1184924D01*
X1048264Y1184909D01*
X1052585Y1184070D01*
X1052641Y1184070D01*
X1052697Y1184061D01*
X1052739Y1184071D01*
G37*
G36*
X438059Y1184071D02*
X438059Y1184071D01*
X438104Y1184072D01*
X438155Y1184094D01*
X438210Y1184107D01*
X438246Y1184133D01*
X438286Y1184151D01*
X438325Y1184192D01*
X438370Y1184225D01*
X438393Y1184263D01*
X438423Y1184295D01*
X438443Y1184348D01*
X438472Y1184396D01*
X438480Y1184447D01*
X438493Y1184481D01*
X438492Y1184515D01*
X438499Y1184560D01*
X438499Y1195560D01*
X438489Y1195613D01*
X438488Y1195666D01*
X438469Y1195709D01*
X438460Y1195755D01*
X438429Y1195799D01*
X438408Y1195848D01*
X438374Y1195880D01*
X438347Y1195919D01*
X438302Y1195948D01*
X438263Y1195984D01*
X438212Y1196005D01*
X438180Y1196026D01*
X438148Y1196031D01*
X438109Y1196047D01*
X435374Y1196658D01*
X432810Y1197686D01*
X430446Y1199113D01*
X428342Y1200902D01*
X426553Y1203006D01*
X425126Y1205370D01*
X424098Y1207934D01*
X423487Y1210669D01*
X423465Y1210718D01*
X423453Y1210770D01*
X423425Y1210808D01*
X423406Y1210850D01*
X423367Y1210887D01*
X423335Y1210930D01*
X423295Y1210954D01*
X423261Y1210986D01*
X423210Y1211004D01*
X423164Y1211032D01*
X423110Y1211041D01*
X423074Y1211054D01*
X423042Y1211052D01*
X423000Y1211059D01*
X412000Y1211059D01*
X411945Y1211048D01*
X411889Y1211047D01*
X411848Y1211028D01*
X411805Y1211020D01*
X411759Y1210988D01*
X411708Y1210965D01*
X411678Y1210932D01*
X411641Y1210907D01*
X411611Y1210860D01*
X411573Y1210818D01*
X411558Y1210777D01*
X411534Y1210740D01*
X411525Y1210684D01*
X411506Y1210631D01*
X411507Y1210579D01*
X411501Y1210543D01*
X411509Y1210511D01*
X411509Y1210506D01*
X411509Y1210504D01*
X411509Y1210503D01*
X411510Y1210465D01*
X412349Y1206144D01*
X412361Y1206115D01*
X412369Y1206073D01*
X413838Y1201923D01*
X413854Y1201896D01*
X413868Y1201856D01*
X415934Y1197969D01*
X415954Y1197945D01*
X415973Y1197907D01*
X418591Y1194368D01*
X418615Y1194347D01*
X418640Y1194312D01*
X421752Y1191200D01*
X421767Y1191190D01*
X421775Y1191179D01*
X421790Y1191170D01*
X421808Y1191151D01*
X425347Y1188533D01*
X425375Y1188520D01*
X425409Y1188494D01*
X429296Y1186428D01*
X429326Y1186419D01*
X429363Y1186398D01*
X433513Y1184929D01*
X433544Y1184924D01*
X433584Y1184909D01*
X437905Y1184070D01*
X437961Y1184070D01*
X438017Y1184061D01*
X438059Y1184071D01*
G37*
G36*
X1052739Y132511D02*
X1052739Y132511D01*
X1052784Y132512D01*
X1052835Y132534D01*
X1052890Y132547D01*
X1052926Y132573D01*
X1052966Y132591D01*
X1053005Y132632D01*
X1053050Y132665D01*
X1053073Y132703D01*
X1053103Y132735D01*
X1053123Y132788D01*
X1053152Y132836D01*
X1053160Y132887D01*
X1053173Y132921D01*
X1053172Y132955D01*
X1053179Y133000D01*
X1053179Y144000D01*
X1053169Y144053D01*
X1053168Y144106D01*
X1053149Y144149D01*
X1053140Y144195D01*
X1053109Y144239D01*
X1053088Y144288D01*
X1053054Y144320D01*
X1053027Y144359D01*
X1052982Y144388D01*
X1052943Y144424D01*
X1052892Y144445D01*
X1052860Y144466D01*
X1052828Y144471D01*
X1052789Y144487D01*
X1050054Y145098D01*
X1047490Y146126D01*
X1045126Y147553D01*
X1043022Y149342D01*
X1041233Y151446D01*
X1039806Y153810D01*
X1038778Y156374D01*
X1038167Y159109D01*
X1038145Y159158D01*
X1038133Y159210D01*
X1038105Y159248D01*
X1038086Y159290D01*
X1038047Y159327D01*
X1038015Y159370D01*
X1037975Y159394D01*
X1037941Y159426D01*
X1037890Y159444D01*
X1037844Y159472D01*
X1037790Y159481D01*
X1037754Y159494D01*
X1037722Y159492D01*
X1037680Y159499D01*
X1026680Y159499D01*
X1026625Y159488D01*
X1026569Y159487D01*
X1026528Y159468D01*
X1026485Y159460D01*
X1026439Y159428D01*
X1026388Y159405D01*
X1026358Y159372D01*
X1026321Y159347D01*
X1026291Y159300D01*
X1026253Y159258D01*
X1026238Y159217D01*
X1026214Y159180D01*
X1026205Y159124D01*
X1026186Y159071D01*
X1026187Y159019D01*
X1026181Y158983D01*
X1026189Y158951D01*
X1026189Y158946D01*
X1026189Y158944D01*
X1026189Y158943D01*
X1026190Y158905D01*
X1027029Y154584D01*
X1027041Y154555D01*
X1027049Y154513D01*
X1028518Y150363D01*
X1028534Y150336D01*
X1028548Y150296D01*
X1030614Y146409D01*
X1030634Y146385D01*
X1030653Y146347D01*
X1033271Y142808D01*
X1033295Y142787D01*
X1033320Y142752D01*
X1036432Y139640D01*
X1036447Y139630D01*
X1036455Y139619D01*
X1036470Y139610D01*
X1036488Y139591D01*
X1040027Y136973D01*
X1040055Y136960D01*
X1040089Y136934D01*
X1043976Y134868D01*
X1044006Y134859D01*
X1044043Y134838D01*
X1048193Y133369D01*
X1048224Y133364D01*
X1048264Y133349D01*
X1052585Y132510D01*
X1052641Y132510D01*
X1052697Y132501D01*
X1052739Y132511D01*
G37*
G36*
X438059Y658291D02*
X438059Y658291D01*
X438104Y658292D01*
X438155Y658314D01*
X438210Y658327D01*
X438246Y658353D01*
X438286Y658371D01*
X438325Y658412D01*
X438370Y658445D01*
X438393Y658483D01*
X438423Y658515D01*
X438443Y658568D01*
X438472Y658616D01*
X438480Y658667D01*
X438493Y658701D01*
X438492Y658735D01*
X438499Y658780D01*
X438499Y669780D01*
X438489Y669833D01*
X438488Y669886D01*
X438469Y669929D01*
X438460Y669975D01*
X438429Y670019D01*
X438408Y670068D01*
X438374Y670100D01*
X438347Y670139D01*
X438302Y670168D01*
X438263Y670204D01*
X438212Y670225D01*
X438180Y670246D01*
X438148Y670251D01*
X438109Y670267D01*
X435374Y670878D01*
X432810Y671906D01*
X430446Y673333D01*
X428342Y675122D01*
X426553Y677226D01*
X425126Y679590D01*
X424098Y682154D01*
X423487Y684889D01*
X423465Y684938D01*
X423453Y684990D01*
X423425Y685028D01*
X423406Y685070D01*
X423367Y685107D01*
X423335Y685150D01*
X423295Y685174D01*
X423261Y685206D01*
X423210Y685224D01*
X423164Y685252D01*
X423110Y685261D01*
X423074Y685274D01*
X423042Y685272D01*
X423000Y685279D01*
X412000Y685279D01*
X411945Y685268D01*
X411889Y685267D01*
X411848Y685248D01*
X411805Y685240D01*
X411759Y685208D01*
X411708Y685185D01*
X411678Y685152D01*
X411641Y685127D01*
X411611Y685080D01*
X411573Y685038D01*
X411558Y684997D01*
X411534Y684960D01*
X411525Y684904D01*
X411506Y684851D01*
X411507Y684799D01*
X411501Y684763D01*
X411509Y684731D01*
X411509Y684726D01*
X411509Y684724D01*
X411509Y684723D01*
X411510Y684685D01*
X412349Y680364D01*
X412361Y680335D01*
X412369Y680293D01*
X413838Y676143D01*
X413854Y676116D01*
X413868Y676076D01*
X415934Y672189D01*
X415954Y672165D01*
X415973Y672127D01*
X418591Y668588D01*
X418615Y668567D01*
X418640Y668532D01*
X421752Y665420D01*
X421767Y665410D01*
X421775Y665399D01*
X421790Y665390D01*
X421808Y665371D01*
X425347Y662753D01*
X425375Y662740D01*
X425409Y662714D01*
X429296Y660648D01*
X429326Y660639D01*
X429363Y660618D01*
X433513Y659149D01*
X433544Y659144D01*
X433584Y659129D01*
X437905Y658290D01*
X437961Y658290D01*
X438017Y658281D01*
X438059Y658291D01*
G37*
G36*
X1037733Y1218071D02*
X1037733Y1218071D01*
X1037786Y1218072D01*
X1037829Y1218091D01*
X1037875Y1218100D01*
X1037919Y1218131D01*
X1037968Y1218152D01*
X1038000Y1218186D01*
X1038039Y1218213D01*
X1038068Y1218258D01*
X1038104Y1218297D01*
X1038125Y1218348D01*
X1038146Y1218380D01*
X1038151Y1218412D01*
X1038167Y1218451D01*
X1038778Y1221186D01*
X1039806Y1223750D01*
X1041233Y1226114D01*
X1043022Y1228218D01*
X1045126Y1230007D01*
X1047490Y1231434D01*
X1050054Y1232462D01*
X1052789Y1233073D01*
X1052838Y1233095D01*
X1052890Y1233107D01*
X1052928Y1233135D01*
X1052970Y1233154D01*
X1053007Y1233193D01*
X1053050Y1233225D01*
X1053074Y1233265D01*
X1053106Y1233299D01*
X1053124Y1233350D01*
X1053152Y1233396D01*
X1053161Y1233450D01*
X1053174Y1233486D01*
X1053172Y1233518D01*
X1053179Y1233560D01*
X1053179Y1244560D01*
X1053168Y1244615D01*
X1053167Y1244671D01*
X1053148Y1244712D01*
X1053140Y1244755D01*
X1053108Y1244801D01*
X1053085Y1244853D01*
X1053052Y1244882D01*
X1053027Y1244919D01*
X1052980Y1244949D01*
X1052938Y1244987D01*
X1052897Y1245002D01*
X1052860Y1245026D01*
X1052804Y1245035D01*
X1052751Y1245054D01*
X1052699Y1245053D01*
X1052663Y1245059D01*
X1052631Y1245051D01*
X1052585Y1245050D01*
X1048264Y1244211D01*
X1048235Y1244199D01*
X1048193Y1244191D01*
X1044043Y1242722D01*
X1044016Y1242706D01*
X1043976Y1242692D01*
X1040089Y1240626D01*
X1040065Y1240606D01*
X1040027Y1240587D01*
X1036488Y1237969D01*
X1036467Y1237945D01*
X1036432Y1237920D01*
X1033320Y1234808D01*
X1033302Y1234782D01*
X1033271Y1234752D01*
X1030653Y1231214D01*
X1030640Y1231185D01*
X1030614Y1231151D01*
X1028548Y1227264D01*
X1028541Y1227241D01*
X1028532Y1227227D01*
X1028531Y1227219D01*
X1028518Y1227197D01*
X1027049Y1223047D01*
X1027044Y1223016D01*
X1027029Y1222976D01*
X1026190Y1218655D01*
X1026190Y1218599D01*
X1026181Y1218543D01*
X1026191Y1218501D01*
X1026192Y1218456D01*
X1026214Y1218405D01*
X1026227Y1218350D01*
X1026253Y1218315D01*
X1026271Y1218274D01*
X1026312Y1218235D01*
X1026345Y1218190D01*
X1026383Y1218167D01*
X1026415Y1218137D01*
X1026468Y1218117D01*
X1026516Y1218088D01*
X1026567Y1218080D01*
X1026601Y1218067D01*
X1026635Y1218068D01*
X1026680Y1218061D01*
X1037680Y1218061D01*
X1037733Y1218071D01*
G37*
G36*
X423053Y1218071D02*
X423053Y1218071D01*
X423106Y1218072D01*
X423149Y1218091D01*
X423195Y1218100D01*
X423239Y1218131D01*
X423288Y1218152D01*
X423320Y1218186D01*
X423359Y1218213D01*
X423388Y1218258D01*
X423424Y1218297D01*
X423445Y1218348D01*
X423466Y1218380D01*
X423471Y1218412D01*
X423487Y1218451D01*
X424098Y1221186D01*
X425126Y1223750D01*
X426553Y1226114D01*
X428342Y1228218D01*
X430446Y1230007D01*
X432810Y1231434D01*
X435374Y1232462D01*
X438109Y1233073D01*
X438158Y1233095D01*
X438210Y1233107D01*
X438248Y1233135D01*
X438290Y1233154D01*
X438327Y1233193D01*
X438370Y1233225D01*
X438394Y1233265D01*
X438426Y1233299D01*
X438444Y1233350D01*
X438472Y1233396D01*
X438481Y1233450D01*
X438494Y1233486D01*
X438492Y1233518D01*
X438499Y1233560D01*
X438499Y1244560D01*
X438488Y1244615D01*
X438487Y1244671D01*
X438468Y1244712D01*
X438460Y1244755D01*
X438428Y1244801D01*
X438405Y1244853D01*
X438372Y1244882D01*
X438347Y1244919D01*
X438300Y1244949D01*
X438258Y1244987D01*
X438217Y1245002D01*
X438180Y1245026D01*
X438124Y1245035D01*
X438071Y1245054D01*
X438019Y1245053D01*
X437983Y1245059D01*
X437951Y1245051D01*
X437905Y1245050D01*
X433584Y1244211D01*
X433555Y1244199D01*
X433513Y1244191D01*
X429363Y1242722D01*
X429336Y1242706D01*
X429296Y1242692D01*
X425409Y1240626D01*
X425385Y1240606D01*
X425347Y1240587D01*
X421808Y1237969D01*
X421787Y1237945D01*
X421752Y1237920D01*
X418640Y1234808D01*
X418622Y1234782D01*
X418591Y1234752D01*
X415973Y1231214D01*
X415960Y1231185D01*
X415934Y1231151D01*
X413868Y1227264D01*
X413861Y1227241D01*
X413852Y1227227D01*
X413851Y1227219D01*
X413838Y1227197D01*
X412369Y1223047D01*
X412364Y1223016D01*
X412349Y1222976D01*
X411510Y1218655D01*
X411510Y1218599D01*
X411501Y1218543D01*
X411511Y1218501D01*
X411512Y1218456D01*
X411534Y1218405D01*
X411547Y1218350D01*
X411573Y1218315D01*
X411591Y1218274D01*
X411632Y1218235D01*
X411665Y1218190D01*
X411703Y1218167D01*
X411735Y1218137D01*
X411788Y1218117D01*
X411836Y1218088D01*
X411887Y1218080D01*
X411921Y1218067D01*
X411955Y1218068D01*
X412000Y1218061D01*
X423000Y1218061D01*
X423053Y1218071D01*
G37*
G36*
X423053Y692291D02*
X423053Y692291D01*
X423106Y692292D01*
X423149Y692311D01*
X423195Y692320D01*
X423239Y692351D01*
X423288Y692372D01*
X423320Y692406D01*
X423359Y692433D01*
X423388Y692478D01*
X423424Y692517D01*
X423445Y692568D01*
X423466Y692600D01*
X423471Y692632D01*
X423487Y692671D01*
X424098Y695406D01*
X425126Y697970D01*
X426553Y700334D01*
X428342Y702438D01*
X430446Y704227D01*
X432810Y705654D01*
X435374Y706682D01*
X438109Y707293D01*
X438158Y707315D01*
X438210Y707327D01*
X438248Y707355D01*
X438290Y707374D01*
X438327Y707413D01*
X438370Y707445D01*
X438394Y707485D01*
X438426Y707519D01*
X438444Y707570D01*
X438472Y707616D01*
X438481Y707670D01*
X438494Y707706D01*
X438492Y707738D01*
X438499Y707780D01*
X438499Y718780D01*
X438488Y718835D01*
X438487Y718891D01*
X438468Y718932D01*
X438460Y718975D01*
X438428Y719021D01*
X438405Y719073D01*
X438372Y719102D01*
X438347Y719139D01*
X438300Y719169D01*
X438258Y719207D01*
X438217Y719222D01*
X438180Y719246D01*
X438124Y719255D01*
X438071Y719274D01*
X438019Y719273D01*
X437983Y719279D01*
X437951Y719271D01*
X437905Y719270D01*
X433584Y718431D01*
X433555Y718419D01*
X433513Y718411D01*
X429363Y716942D01*
X429336Y716926D01*
X429296Y716912D01*
X425409Y714846D01*
X425385Y714826D01*
X425347Y714807D01*
X421808Y712189D01*
X421787Y712165D01*
X421752Y712140D01*
X418640Y709028D01*
X418622Y709002D01*
X418591Y708972D01*
X415973Y705434D01*
X415960Y705405D01*
X415934Y705371D01*
X413868Y701484D01*
X413861Y701461D01*
X413852Y701447D01*
X413851Y701439D01*
X413838Y701417D01*
X412369Y697267D01*
X412364Y697236D01*
X412349Y697196D01*
X411510Y692875D01*
X411510Y692819D01*
X411501Y692763D01*
X411511Y692721D01*
X411512Y692676D01*
X411534Y692625D01*
X411547Y692570D01*
X411573Y692535D01*
X411591Y692494D01*
X411632Y692455D01*
X411665Y692410D01*
X411703Y692387D01*
X411735Y692357D01*
X411788Y692337D01*
X411836Y692308D01*
X411887Y692300D01*
X411921Y692287D01*
X411955Y692288D01*
X412000Y692281D01*
X423000Y692281D01*
X423053Y692291D01*
G37*
G36*
X423053Y166511D02*
X423053Y166511D01*
X423106Y166512D01*
X423149Y166531D01*
X423195Y166540D01*
X423239Y166571D01*
X423288Y166592D01*
X423320Y166626D01*
X423359Y166653D01*
X423388Y166698D01*
X423424Y166737D01*
X423445Y166788D01*
X423466Y166820D01*
X423471Y166852D01*
X423487Y166891D01*
X424098Y169626D01*
X425126Y172190D01*
X426553Y174554D01*
X428342Y176658D01*
X430446Y178447D01*
X432810Y179874D01*
X435374Y180902D01*
X438109Y181513D01*
X438158Y181535D01*
X438210Y181547D01*
X438248Y181575D01*
X438290Y181594D01*
X438327Y181633D01*
X438370Y181665D01*
X438394Y181705D01*
X438426Y181739D01*
X438444Y181790D01*
X438472Y181836D01*
X438481Y181890D01*
X438494Y181926D01*
X438492Y181958D01*
X438499Y182000D01*
X438499Y193000D01*
X438488Y193055D01*
X438487Y193111D01*
X438468Y193152D01*
X438460Y193195D01*
X438428Y193241D01*
X438405Y193293D01*
X438372Y193322D01*
X438347Y193359D01*
X438300Y193389D01*
X438258Y193427D01*
X438217Y193442D01*
X438180Y193466D01*
X438124Y193475D01*
X438071Y193494D01*
X438019Y193493D01*
X437983Y193499D01*
X437951Y193491D01*
X437905Y193490D01*
X433584Y192651D01*
X433555Y192639D01*
X433513Y192631D01*
X429363Y191162D01*
X429336Y191146D01*
X429296Y191132D01*
X425409Y189066D01*
X425385Y189046D01*
X425347Y189027D01*
X421808Y186409D01*
X421787Y186385D01*
X421752Y186360D01*
X418640Y183248D01*
X418622Y183222D01*
X418591Y183192D01*
X415973Y179654D01*
X415960Y179625D01*
X415934Y179591D01*
X413868Y175704D01*
X413861Y175681D01*
X413852Y175667D01*
X413851Y175659D01*
X413838Y175637D01*
X412369Y171487D01*
X412364Y171456D01*
X412349Y171416D01*
X411510Y167095D01*
X411510Y167039D01*
X411501Y166983D01*
X411511Y166941D01*
X411512Y166896D01*
X411534Y166845D01*
X411547Y166790D01*
X411573Y166755D01*
X411591Y166714D01*
X411632Y166675D01*
X411665Y166630D01*
X411703Y166607D01*
X411735Y166577D01*
X411788Y166557D01*
X411836Y166528D01*
X411887Y166520D01*
X411921Y166507D01*
X411955Y166508D01*
X412000Y166501D01*
X423000Y166501D01*
X423053Y166511D01*
G37*
G36*
X1037733Y166511D02*
X1037733Y166511D01*
X1037786Y166512D01*
X1037829Y166531D01*
X1037875Y166540D01*
X1037919Y166571D01*
X1037968Y166592D01*
X1038000Y166626D01*
X1038039Y166653D01*
X1038068Y166698D01*
X1038104Y166737D01*
X1038125Y166788D01*
X1038146Y166820D01*
X1038151Y166852D01*
X1038167Y166891D01*
X1038778Y169626D01*
X1039806Y172190D01*
X1041233Y174554D01*
X1043022Y176658D01*
X1045126Y178447D01*
X1047490Y179874D01*
X1050054Y180902D01*
X1052789Y181513D01*
X1052838Y181535D01*
X1052890Y181547D01*
X1052928Y181575D01*
X1052970Y181594D01*
X1053007Y181633D01*
X1053050Y181665D01*
X1053074Y181705D01*
X1053106Y181739D01*
X1053124Y181790D01*
X1053152Y181836D01*
X1053161Y181890D01*
X1053174Y181926D01*
X1053172Y181958D01*
X1053179Y182000D01*
X1053179Y193000D01*
X1053168Y193055D01*
X1053167Y193111D01*
X1053148Y193152D01*
X1053140Y193195D01*
X1053108Y193241D01*
X1053085Y193293D01*
X1053052Y193322D01*
X1053027Y193359D01*
X1052980Y193389D01*
X1052938Y193427D01*
X1052897Y193442D01*
X1052860Y193466D01*
X1052804Y193475D01*
X1052751Y193494D01*
X1052699Y193493D01*
X1052663Y193499D01*
X1052631Y193491D01*
X1052585Y193490D01*
X1048264Y192651D01*
X1048235Y192639D01*
X1048193Y192631D01*
X1044043Y191162D01*
X1044016Y191146D01*
X1043976Y191132D01*
X1040089Y189066D01*
X1040065Y189046D01*
X1040027Y189027D01*
X1036488Y186409D01*
X1036467Y186385D01*
X1036432Y186360D01*
X1033320Y183248D01*
X1033302Y183222D01*
X1033271Y183192D01*
X1030653Y179654D01*
X1030640Y179625D01*
X1030614Y179591D01*
X1028548Y175704D01*
X1028541Y175681D01*
X1028532Y175667D01*
X1028531Y175659D01*
X1028518Y175637D01*
X1027049Y171487D01*
X1027044Y171456D01*
X1027029Y171416D01*
X1026190Y167095D01*
X1026190Y167039D01*
X1026181Y166983D01*
X1026191Y166941D01*
X1026192Y166896D01*
X1026214Y166845D01*
X1026227Y166790D01*
X1026253Y166755D01*
X1026271Y166714D01*
X1026312Y166675D01*
X1026345Y166630D01*
X1026383Y166607D01*
X1026415Y166577D01*
X1026468Y166557D01*
X1026516Y166528D01*
X1026567Y166520D01*
X1026601Y166507D01*
X1026635Y166508D01*
X1026680Y166501D01*
X1037680Y166501D01*
X1037733Y166511D01*
G37*
G36*
X1037733Y692291D02*
X1037733Y692291D01*
X1037786Y692292D01*
X1037829Y692311D01*
X1037875Y692320D01*
X1037919Y692351D01*
X1037968Y692372D01*
X1038000Y692406D01*
X1038039Y692433D01*
X1038068Y692478D01*
X1038104Y692517D01*
X1038125Y692568D01*
X1038146Y692600D01*
X1038151Y692632D01*
X1038167Y692671D01*
X1038778Y695406D01*
X1039806Y697970D01*
X1041233Y700334D01*
X1043022Y702438D01*
X1045126Y704227D01*
X1047490Y705654D01*
X1050054Y706682D01*
X1052789Y707293D01*
X1052838Y707315D01*
X1052890Y707327D01*
X1052928Y707355D01*
X1052970Y707374D01*
X1053007Y707413D01*
X1053050Y707445D01*
X1053074Y707485D01*
X1053106Y707519D01*
X1053124Y707570D01*
X1053152Y707616D01*
X1053161Y707670D01*
X1053174Y707706D01*
X1053172Y707738D01*
X1053179Y707780D01*
X1053179Y718780D01*
X1053168Y718835D01*
X1053167Y718891D01*
X1053148Y718932D01*
X1053140Y718975D01*
X1053108Y719021D01*
X1053085Y719073D01*
X1053052Y719102D01*
X1053027Y719139D01*
X1052980Y719169D01*
X1052938Y719207D01*
X1052897Y719222D01*
X1052860Y719246D01*
X1052804Y719255D01*
X1052751Y719274D01*
X1052699Y719273D01*
X1052663Y719279D01*
X1052631Y719271D01*
X1052585Y719270D01*
X1048264Y718431D01*
X1048235Y718419D01*
X1048193Y718411D01*
X1044043Y716942D01*
X1044016Y716926D01*
X1043976Y716912D01*
X1040089Y714846D01*
X1040065Y714826D01*
X1040027Y714807D01*
X1036488Y712189D01*
X1036467Y712165D01*
X1036432Y712140D01*
X1033320Y709028D01*
X1033302Y709002D01*
X1033271Y708972D01*
X1030653Y705434D01*
X1030640Y705405D01*
X1030614Y705371D01*
X1028548Y701484D01*
X1028541Y701461D01*
X1028532Y701447D01*
X1028531Y701439D01*
X1028518Y701417D01*
X1027049Y697267D01*
X1027044Y697236D01*
X1027029Y697196D01*
X1026190Y692875D01*
X1026190Y692819D01*
X1026181Y692763D01*
X1026191Y692721D01*
X1026192Y692676D01*
X1026214Y692625D01*
X1026227Y692570D01*
X1026253Y692535D01*
X1026271Y692494D01*
X1026312Y692455D01*
X1026345Y692410D01*
X1026383Y692387D01*
X1026415Y692357D01*
X1026468Y692337D01*
X1026516Y692308D01*
X1026567Y692300D01*
X1026601Y692287D01*
X1026635Y692288D01*
X1026680Y692281D01*
X1037680Y692281D01*
X1037733Y692291D01*
G37*
G36*
X1086735Y1218072D02*
X1086735Y1218072D01*
X1086791Y1218073D01*
X1086832Y1218092D01*
X1086875Y1218100D01*
X1086921Y1218132D01*
X1086973Y1218155D01*
X1087002Y1218188D01*
X1087039Y1218213D01*
X1087069Y1218260D01*
X1087107Y1218302D01*
X1087122Y1218343D01*
X1087146Y1218380D01*
X1087155Y1218436D01*
X1087174Y1218489D01*
X1087173Y1218541D01*
X1087179Y1218577D01*
X1087171Y1218609D01*
X1087170Y1218655D01*
X1086331Y1222976D01*
X1086319Y1223005D01*
X1086311Y1223047D01*
X1084842Y1227197D01*
X1084826Y1227224D01*
X1084817Y1227251D01*
X1084815Y1227257D01*
X1084814Y1227259D01*
X1084812Y1227264D01*
X1082746Y1231151D01*
X1082726Y1231175D01*
X1082707Y1231214D01*
X1080089Y1234752D01*
X1080065Y1234773D01*
X1080040Y1234808D01*
X1076928Y1237920D01*
X1076902Y1237938D01*
X1076872Y1237969D01*
X1073334Y1240587D01*
X1073305Y1240600D01*
X1073271Y1240626D01*
X1069384Y1242692D01*
X1069354Y1242701D01*
X1069317Y1242722D01*
X1065167Y1244191D01*
X1065136Y1244196D01*
X1065096Y1244211D01*
X1060775Y1245050D01*
X1060719Y1245050D01*
X1060663Y1245059D01*
X1060621Y1245049D01*
X1060576Y1245048D01*
X1060525Y1245026D01*
X1060470Y1245013D01*
X1060435Y1244987D01*
X1060394Y1244969D01*
X1060355Y1244928D01*
X1060310Y1244895D01*
X1060287Y1244857D01*
X1060257Y1244825D01*
X1060237Y1244772D01*
X1060208Y1244724D01*
X1060200Y1244673D01*
X1060187Y1244639D01*
X1060188Y1244605D01*
X1060181Y1244560D01*
X1060181Y1233560D01*
X1060191Y1233507D01*
X1060192Y1233454D01*
X1060211Y1233411D01*
X1060220Y1233365D01*
X1060251Y1233321D01*
X1060272Y1233272D01*
X1060306Y1233240D01*
X1060333Y1233201D01*
X1060378Y1233172D01*
X1060417Y1233136D01*
X1060468Y1233115D01*
X1060500Y1233094D01*
X1060532Y1233089D01*
X1060571Y1233073D01*
X1063306Y1232462D01*
X1065870Y1231434D01*
X1068234Y1230007D01*
X1070338Y1228218D01*
X1072127Y1226114D01*
X1073554Y1223750D01*
X1074582Y1221186D01*
X1075193Y1218451D01*
X1075215Y1218402D01*
X1075227Y1218350D01*
X1075255Y1218312D01*
X1075274Y1218270D01*
X1075313Y1218233D01*
X1075345Y1218190D01*
X1075385Y1218166D01*
X1075419Y1218134D01*
X1075470Y1218116D01*
X1075516Y1218088D01*
X1075570Y1218079D01*
X1075606Y1218066D01*
X1075638Y1218068D01*
X1075680Y1218061D01*
X1086680Y1218061D01*
X1086735Y1218072D01*
G37*
G36*
X472055Y1218072D02*
X472055Y1218072D01*
X472111Y1218073D01*
X472152Y1218092D01*
X472195Y1218100D01*
X472241Y1218132D01*
X472293Y1218155D01*
X472322Y1218188D01*
X472359Y1218213D01*
X472389Y1218260D01*
X472427Y1218302D01*
X472442Y1218343D01*
X472466Y1218380D01*
X472475Y1218436D01*
X472494Y1218489D01*
X472493Y1218541D01*
X472499Y1218577D01*
X472491Y1218609D01*
X472490Y1218655D01*
X471651Y1222976D01*
X471639Y1223005D01*
X471631Y1223047D01*
X470162Y1227197D01*
X470146Y1227224D01*
X470137Y1227251D01*
X470135Y1227257D01*
X470134Y1227259D01*
X470132Y1227264D01*
X468066Y1231151D01*
X468046Y1231175D01*
X468027Y1231214D01*
X465409Y1234752D01*
X465385Y1234773D01*
X465360Y1234808D01*
X462248Y1237920D01*
X462222Y1237938D01*
X462192Y1237969D01*
X458654Y1240587D01*
X458625Y1240600D01*
X458591Y1240626D01*
X454704Y1242692D01*
X454674Y1242701D01*
X454637Y1242722D01*
X450487Y1244191D01*
X450456Y1244196D01*
X450416Y1244211D01*
X446095Y1245050D01*
X446039Y1245050D01*
X445983Y1245059D01*
X445941Y1245049D01*
X445896Y1245048D01*
X445845Y1245026D01*
X445790Y1245013D01*
X445755Y1244987D01*
X445714Y1244969D01*
X445675Y1244928D01*
X445630Y1244895D01*
X445607Y1244857D01*
X445577Y1244825D01*
X445557Y1244772D01*
X445528Y1244724D01*
X445520Y1244673D01*
X445507Y1244639D01*
X445508Y1244605D01*
X445501Y1244560D01*
X445501Y1233560D01*
X445511Y1233507D01*
X445512Y1233454D01*
X445531Y1233411D01*
X445540Y1233365D01*
X445571Y1233321D01*
X445592Y1233272D01*
X445626Y1233240D01*
X445653Y1233201D01*
X445698Y1233172D01*
X445737Y1233136D01*
X445788Y1233115D01*
X445820Y1233094D01*
X445852Y1233089D01*
X445891Y1233073D01*
X448626Y1232462D01*
X451190Y1231434D01*
X453554Y1230007D01*
X455658Y1228218D01*
X457447Y1226114D01*
X458874Y1223750D01*
X459902Y1221186D01*
X460513Y1218451D01*
X460535Y1218402D01*
X460547Y1218350D01*
X460575Y1218312D01*
X460594Y1218270D01*
X460633Y1218233D01*
X460665Y1218190D01*
X460705Y1218166D01*
X460739Y1218134D01*
X460790Y1218116D01*
X460836Y1218088D01*
X460890Y1218079D01*
X460926Y1218066D01*
X460958Y1218068D01*
X461000Y1218061D01*
X472000Y1218061D01*
X472055Y1218072D01*
G37*
G36*
X1086735Y692292D02*
X1086735Y692292D01*
X1086791Y692293D01*
X1086832Y692312D01*
X1086875Y692320D01*
X1086921Y692352D01*
X1086973Y692375D01*
X1087002Y692408D01*
X1087039Y692433D01*
X1087069Y692480D01*
X1087107Y692522D01*
X1087122Y692563D01*
X1087146Y692600D01*
X1087155Y692656D01*
X1087174Y692709D01*
X1087173Y692761D01*
X1087179Y692797D01*
X1087171Y692829D01*
X1087170Y692875D01*
X1086331Y697196D01*
X1086319Y697225D01*
X1086311Y697267D01*
X1084842Y701417D01*
X1084826Y701444D01*
X1084817Y701471D01*
X1084815Y701477D01*
X1084814Y701479D01*
X1084812Y701484D01*
X1082746Y705371D01*
X1082726Y705395D01*
X1082707Y705434D01*
X1080089Y708972D01*
X1080065Y708993D01*
X1080040Y709028D01*
X1076928Y712140D01*
X1076902Y712158D01*
X1076872Y712189D01*
X1073334Y714807D01*
X1073305Y714820D01*
X1073271Y714846D01*
X1069384Y716912D01*
X1069354Y716921D01*
X1069317Y716942D01*
X1065167Y718411D01*
X1065136Y718416D01*
X1065096Y718431D01*
X1060775Y719270D01*
X1060719Y719270D01*
X1060663Y719279D01*
X1060621Y719269D01*
X1060576Y719268D01*
X1060525Y719246D01*
X1060470Y719233D01*
X1060435Y719207D01*
X1060394Y719189D01*
X1060355Y719148D01*
X1060310Y719115D01*
X1060287Y719077D01*
X1060257Y719045D01*
X1060237Y718992D01*
X1060208Y718944D01*
X1060200Y718893D01*
X1060187Y718859D01*
X1060188Y718825D01*
X1060181Y718780D01*
X1060181Y707780D01*
X1060191Y707727D01*
X1060192Y707674D01*
X1060211Y707631D01*
X1060220Y707585D01*
X1060251Y707541D01*
X1060272Y707492D01*
X1060306Y707460D01*
X1060333Y707421D01*
X1060378Y707392D01*
X1060417Y707356D01*
X1060468Y707335D01*
X1060500Y707314D01*
X1060532Y707309D01*
X1060571Y707293D01*
X1063306Y706682D01*
X1065870Y705654D01*
X1068234Y704227D01*
X1070338Y702438D01*
X1072127Y700334D01*
X1073554Y697970D01*
X1074582Y695406D01*
X1075193Y692671D01*
X1075215Y692622D01*
X1075227Y692570D01*
X1075255Y692532D01*
X1075274Y692490D01*
X1075313Y692453D01*
X1075345Y692410D01*
X1075385Y692386D01*
X1075419Y692354D01*
X1075470Y692336D01*
X1075516Y692308D01*
X1075570Y692299D01*
X1075606Y692286D01*
X1075638Y692288D01*
X1075680Y692281D01*
X1086680Y692281D01*
X1086735Y692292D01*
G37*
G36*
X472055Y166512D02*
X472055Y166512D01*
X472111Y166513D01*
X472152Y166532D01*
X472195Y166540D01*
X472241Y166572D01*
X472293Y166595D01*
X472322Y166628D01*
X472359Y166653D01*
X472389Y166700D01*
X472427Y166742D01*
X472442Y166783D01*
X472466Y166820D01*
X472475Y166876D01*
X472494Y166929D01*
X472493Y166981D01*
X472499Y167017D01*
X472491Y167049D01*
X472490Y167095D01*
X471651Y171416D01*
X471639Y171445D01*
X471631Y171487D01*
X470162Y175637D01*
X470146Y175664D01*
X470137Y175691D01*
X470135Y175697D01*
X470134Y175699D01*
X470132Y175704D01*
X468066Y179591D01*
X468046Y179615D01*
X468027Y179654D01*
X465409Y183192D01*
X465385Y183213D01*
X465360Y183248D01*
X462248Y186360D01*
X462222Y186378D01*
X462192Y186409D01*
X458654Y189027D01*
X458625Y189040D01*
X458591Y189066D01*
X454704Y191132D01*
X454674Y191141D01*
X454637Y191162D01*
X450487Y192631D01*
X450456Y192636D01*
X450416Y192651D01*
X446095Y193490D01*
X446039Y193490D01*
X445983Y193499D01*
X445941Y193489D01*
X445896Y193488D01*
X445845Y193466D01*
X445790Y193453D01*
X445755Y193427D01*
X445714Y193409D01*
X445675Y193368D01*
X445630Y193335D01*
X445607Y193297D01*
X445577Y193265D01*
X445557Y193212D01*
X445528Y193164D01*
X445520Y193113D01*
X445507Y193079D01*
X445508Y193045D01*
X445501Y193000D01*
X445501Y182000D01*
X445511Y181947D01*
X445512Y181894D01*
X445531Y181851D01*
X445540Y181805D01*
X445571Y181761D01*
X445592Y181712D01*
X445626Y181680D01*
X445653Y181641D01*
X445698Y181612D01*
X445737Y181576D01*
X445788Y181555D01*
X445820Y181534D01*
X445852Y181529D01*
X445891Y181513D01*
X448626Y180902D01*
X451190Y179874D01*
X453554Y178447D01*
X455658Y176658D01*
X457447Y174554D01*
X458874Y172190D01*
X459902Y169626D01*
X460513Y166891D01*
X460535Y166842D01*
X460547Y166790D01*
X460575Y166752D01*
X460594Y166710D01*
X460633Y166673D01*
X460665Y166630D01*
X460705Y166606D01*
X460739Y166574D01*
X460790Y166556D01*
X460836Y166528D01*
X460890Y166519D01*
X460926Y166506D01*
X460958Y166508D01*
X461000Y166501D01*
X472000Y166501D01*
X472055Y166512D01*
G37*
G36*
X1086735Y166512D02*
X1086735Y166512D01*
X1086791Y166513D01*
X1086832Y166532D01*
X1086875Y166540D01*
X1086921Y166572D01*
X1086973Y166595D01*
X1087002Y166628D01*
X1087039Y166653D01*
X1087069Y166700D01*
X1087107Y166742D01*
X1087122Y166783D01*
X1087146Y166820D01*
X1087155Y166876D01*
X1087174Y166929D01*
X1087173Y166981D01*
X1087179Y167017D01*
X1087171Y167049D01*
X1087170Y167095D01*
X1086331Y171416D01*
X1086319Y171445D01*
X1086311Y171487D01*
X1084842Y175637D01*
X1084826Y175664D01*
X1084817Y175691D01*
X1084815Y175697D01*
X1084814Y175699D01*
X1084812Y175704D01*
X1082746Y179591D01*
X1082726Y179615D01*
X1082707Y179654D01*
X1080089Y183192D01*
X1080065Y183213D01*
X1080040Y183248D01*
X1076928Y186360D01*
X1076902Y186378D01*
X1076872Y186409D01*
X1073334Y189027D01*
X1073305Y189040D01*
X1073271Y189066D01*
X1069384Y191132D01*
X1069354Y191141D01*
X1069317Y191162D01*
X1065167Y192631D01*
X1065136Y192636D01*
X1065096Y192651D01*
X1060775Y193490D01*
X1060719Y193490D01*
X1060663Y193499D01*
X1060621Y193489D01*
X1060576Y193488D01*
X1060525Y193466D01*
X1060470Y193453D01*
X1060435Y193427D01*
X1060394Y193409D01*
X1060355Y193368D01*
X1060310Y193335D01*
X1060287Y193297D01*
X1060257Y193265D01*
X1060237Y193212D01*
X1060208Y193164D01*
X1060200Y193113D01*
X1060187Y193079D01*
X1060188Y193045D01*
X1060181Y193000D01*
X1060181Y182000D01*
X1060191Y181947D01*
X1060192Y181894D01*
X1060211Y181851D01*
X1060220Y181805D01*
X1060251Y181761D01*
X1060272Y181712D01*
X1060306Y181680D01*
X1060333Y181641D01*
X1060378Y181612D01*
X1060417Y181576D01*
X1060468Y181555D01*
X1060500Y181534D01*
X1060532Y181529D01*
X1060571Y181513D01*
X1063306Y180902D01*
X1065870Y179874D01*
X1068234Y178447D01*
X1070338Y176658D01*
X1072127Y174554D01*
X1073554Y172190D01*
X1074582Y169626D01*
X1075193Y166891D01*
X1075215Y166842D01*
X1075227Y166790D01*
X1075255Y166752D01*
X1075274Y166710D01*
X1075313Y166673D01*
X1075345Y166630D01*
X1075385Y166606D01*
X1075419Y166574D01*
X1075470Y166556D01*
X1075516Y166528D01*
X1075570Y166519D01*
X1075606Y166506D01*
X1075638Y166508D01*
X1075680Y166501D01*
X1086680Y166501D01*
X1086735Y166512D01*
G37*
G36*
X472055Y692292D02*
X472055Y692292D01*
X472111Y692293D01*
X472152Y692312D01*
X472195Y692320D01*
X472241Y692352D01*
X472293Y692375D01*
X472322Y692408D01*
X472359Y692433D01*
X472389Y692480D01*
X472427Y692522D01*
X472442Y692563D01*
X472466Y692600D01*
X472475Y692656D01*
X472494Y692709D01*
X472493Y692761D01*
X472499Y692797D01*
X472491Y692829D01*
X472490Y692875D01*
X471651Y697196D01*
X471639Y697225D01*
X471631Y697267D01*
X470162Y701417D01*
X470146Y701444D01*
X470137Y701471D01*
X470135Y701477D01*
X470134Y701479D01*
X470132Y701484D01*
X468066Y705371D01*
X468046Y705395D01*
X468027Y705434D01*
X465409Y708972D01*
X465385Y708993D01*
X465360Y709028D01*
X462248Y712140D01*
X462222Y712158D01*
X462192Y712189D01*
X458654Y714807D01*
X458625Y714820D01*
X458591Y714846D01*
X454704Y716912D01*
X454674Y716921D01*
X454637Y716942D01*
X450487Y718411D01*
X450456Y718416D01*
X450416Y718431D01*
X446095Y719270D01*
X446039Y719270D01*
X445983Y719279D01*
X445941Y719269D01*
X445896Y719268D01*
X445845Y719246D01*
X445790Y719233D01*
X445755Y719207D01*
X445714Y719189D01*
X445675Y719148D01*
X445630Y719115D01*
X445607Y719077D01*
X445577Y719045D01*
X445557Y718992D01*
X445528Y718944D01*
X445520Y718893D01*
X445507Y718859D01*
X445508Y718825D01*
X445501Y718780D01*
X445501Y707780D01*
X445511Y707727D01*
X445512Y707674D01*
X445531Y707631D01*
X445540Y707585D01*
X445571Y707541D01*
X445592Y707492D01*
X445626Y707460D01*
X445653Y707421D01*
X445698Y707392D01*
X445737Y707356D01*
X445788Y707335D01*
X445820Y707314D01*
X445852Y707309D01*
X445891Y707293D01*
X448626Y706682D01*
X451190Y705654D01*
X453554Y704227D01*
X455658Y702438D01*
X457447Y700334D01*
X458874Y697970D01*
X459902Y695406D01*
X460513Y692671D01*
X460535Y692622D01*
X460547Y692570D01*
X460575Y692532D01*
X460594Y692490D01*
X460633Y692453D01*
X460665Y692410D01*
X460705Y692386D01*
X460739Y692354D01*
X460790Y692336D01*
X460836Y692308D01*
X460890Y692299D01*
X460926Y692286D01*
X460958Y692288D01*
X461000Y692281D01*
X472000Y692281D01*
X472055Y692292D01*
G37*
G36*
X1060729Y658289D02*
X1060729Y658289D01*
X1060775Y658290D01*
X1065096Y659129D01*
X1065125Y659141D01*
X1065167Y659149D01*
X1069317Y660618D01*
X1069344Y660634D01*
X1069384Y660648D01*
X1073271Y662714D01*
X1073295Y662734D01*
X1073334Y662753D01*
X1076872Y665371D01*
X1076893Y665395D01*
X1076928Y665420D01*
X1080040Y668532D01*
X1080058Y668559D01*
X1080089Y668588D01*
X1082707Y672127D01*
X1082720Y672155D01*
X1082746Y672189D01*
X1084812Y676076D01*
X1084821Y676106D01*
X1084842Y676143D01*
X1086311Y680293D01*
X1086316Y680324D01*
X1086331Y680364D01*
X1087170Y684685D01*
X1087170Y684741D01*
X1087179Y684797D01*
X1087169Y684839D01*
X1087168Y684884D01*
X1087146Y684935D01*
X1087133Y684990D01*
X1087107Y685026D01*
X1087089Y685066D01*
X1087048Y685105D01*
X1087015Y685150D01*
X1086977Y685173D01*
X1086945Y685203D01*
X1086892Y685223D01*
X1086844Y685252D01*
X1086793Y685260D01*
X1086759Y685273D01*
X1086725Y685272D01*
X1086680Y685279D01*
X1075680Y685279D01*
X1075627Y685269D01*
X1075574Y685268D01*
X1075531Y685249D01*
X1075485Y685240D01*
X1075441Y685209D01*
X1075392Y685188D01*
X1075360Y685154D01*
X1075321Y685127D01*
X1075292Y685082D01*
X1075256Y685043D01*
X1075235Y684992D01*
X1075214Y684960D01*
X1075209Y684928D01*
X1075206Y684922D01*
X1075205Y684921D01*
X1075205Y684920D01*
X1075193Y684889D01*
X1074582Y682154D01*
X1073554Y679590D01*
X1072127Y677226D01*
X1070338Y675122D01*
X1068234Y673333D01*
X1065870Y671906D01*
X1063306Y670878D01*
X1060571Y670267D01*
X1060522Y670245D01*
X1060470Y670233D01*
X1060432Y670205D01*
X1060390Y670186D01*
X1060353Y670147D01*
X1060310Y670115D01*
X1060286Y670075D01*
X1060254Y670041D01*
X1060236Y669990D01*
X1060208Y669944D01*
X1060199Y669890D01*
X1060186Y669854D01*
X1060188Y669822D01*
X1060181Y669780D01*
X1060181Y658780D01*
X1060192Y658725D01*
X1060193Y658669D01*
X1060212Y658628D01*
X1060220Y658585D01*
X1060252Y658539D01*
X1060275Y658488D01*
X1060308Y658458D01*
X1060333Y658421D01*
X1060380Y658391D01*
X1060422Y658353D01*
X1060463Y658338D01*
X1060500Y658314D01*
X1060556Y658305D01*
X1060609Y658286D01*
X1060661Y658287D01*
X1060697Y658281D01*
X1060729Y658289D01*
G37*
G36*
X1060729Y1184069D02*
X1060729Y1184069D01*
X1060775Y1184070D01*
X1065096Y1184909D01*
X1065125Y1184921D01*
X1065167Y1184929D01*
X1069317Y1186398D01*
X1069344Y1186414D01*
X1069384Y1186428D01*
X1073271Y1188494D01*
X1073295Y1188514D01*
X1073334Y1188533D01*
X1076872Y1191151D01*
X1076893Y1191175D01*
X1076928Y1191200D01*
X1080040Y1194312D01*
X1080058Y1194339D01*
X1080089Y1194368D01*
X1082707Y1197907D01*
X1082720Y1197935D01*
X1082746Y1197969D01*
X1084812Y1201856D01*
X1084821Y1201886D01*
X1084842Y1201923D01*
X1086311Y1206073D01*
X1086316Y1206104D01*
X1086331Y1206144D01*
X1087170Y1210465D01*
X1087170Y1210521D01*
X1087179Y1210577D01*
X1087169Y1210619D01*
X1087168Y1210664D01*
X1087146Y1210715D01*
X1087133Y1210770D01*
X1087107Y1210806D01*
X1087089Y1210846D01*
X1087048Y1210885D01*
X1087015Y1210930D01*
X1086977Y1210953D01*
X1086945Y1210983D01*
X1086892Y1211003D01*
X1086844Y1211032D01*
X1086793Y1211040D01*
X1086759Y1211053D01*
X1086725Y1211052D01*
X1086680Y1211059D01*
X1075680Y1211059D01*
X1075627Y1211049D01*
X1075574Y1211048D01*
X1075531Y1211029D01*
X1075485Y1211020D01*
X1075441Y1210989D01*
X1075392Y1210968D01*
X1075360Y1210934D01*
X1075321Y1210907D01*
X1075292Y1210862D01*
X1075256Y1210823D01*
X1075235Y1210772D01*
X1075214Y1210740D01*
X1075209Y1210708D01*
X1075206Y1210702D01*
X1075205Y1210701D01*
X1075205Y1210700D01*
X1075193Y1210669D01*
X1074582Y1207934D01*
X1073554Y1205370D01*
X1072127Y1203006D01*
X1070338Y1200902D01*
X1068234Y1199113D01*
X1065870Y1197686D01*
X1063306Y1196658D01*
X1060571Y1196047D01*
X1060522Y1196025D01*
X1060470Y1196013D01*
X1060432Y1195985D01*
X1060390Y1195966D01*
X1060353Y1195927D01*
X1060310Y1195895D01*
X1060286Y1195855D01*
X1060254Y1195821D01*
X1060236Y1195770D01*
X1060208Y1195724D01*
X1060199Y1195670D01*
X1060186Y1195634D01*
X1060188Y1195602D01*
X1060181Y1195560D01*
X1060181Y1184560D01*
X1060192Y1184505D01*
X1060193Y1184449D01*
X1060212Y1184408D01*
X1060220Y1184365D01*
X1060252Y1184319D01*
X1060275Y1184268D01*
X1060308Y1184238D01*
X1060333Y1184201D01*
X1060380Y1184171D01*
X1060422Y1184133D01*
X1060463Y1184118D01*
X1060500Y1184094D01*
X1060556Y1184085D01*
X1060609Y1184066D01*
X1060661Y1184067D01*
X1060697Y1184061D01*
X1060729Y1184069D01*
G37*
G36*
X446049Y1184069D02*
X446049Y1184069D01*
X446095Y1184070D01*
X450416Y1184909D01*
X450445Y1184921D01*
X450487Y1184929D01*
X454637Y1186398D01*
X454664Y1186414D01*
X454704Y1186428D01*
X458591Y1188494D01*
X458615Y1188514D01*
X458654Y1188533D01*
X462192Y1191151D01*
X462213Y1191175D01*
X462248Y1191200D01*
X465360Y1194312D01*
X465378Y1194339D01*
X465409Y1194368D01*
X468027Y1197907D01*
X468040Y1197935D01*
X468066Y1197969D01*
X470132Y1201856D01*
X470141Y1201886D01*
X470162Y1201923D01*
X471631Y1206073D01*
X471636Y1206104D01*
X471651Y1206144D01*
X472490Y1210465D01*
X472490Y1210521D01*
X472499Y1210577D01*
X472489Y1210619D01*
X472488Y1210664D01*
X472466Y1210715D01*
X472453Y1210770D01*
X472427Y1210806D01*
X472409Y1210846D01*
X472368Y1210885D01*
X472335Y1210930D01*
X472297Y1210953D01*
X472265Y1210983D01*
X472212Y1211003D01*
X472164Y1211032D01*
X472113Y1211040D01*
X472079Y1211053D01*
X472045Y1211052D01*
X472000Y1211059D01*
X461000Y1211059D01*
X460947Y1211049D01*
X460894Y1211048D01*
X460851Y1211029D01*
X460805Y1211020D01*
X460761Y1210989D01*
X460712Y1210968D01*
X460680Y1210934D01*
X460641Y1210907D01*
X460612Y1210862D01*
X460576Y1210823D01*
X460555Y1210772D01*
X460534Y1210740D01*
X460529Y1210708D01*
X460526Y1210702D01*
X460525Y1210701D01*
X460525Y1210700D01*
X460513Y1210669D01*
X459902Y1207934D01*
X458874Y1205370D01*
X457447Y1203006D01*
X455658Y1200902D01*
X453554Y1199113D01*
X451190Y1197686D01*
X448626Y1196658D01*
X445891Y1196047D01*
X445842Y1196025D01*
X445790Y1196013D01*
X445752Y1195985D01*
X445710Y1195966D01*
X445673Y1195927D01*
X445630Y1195895D01*
X445606Y1195855D01*
X445574Y1195821D01*
X445556Y1195770D01*
X445528Y1195724D01*
X445519Y1195670D01*
X445506Y1195634D01*
X445508Y1195602D01*
X445501Y1195560D01*
X445501Y1184560D01*
X445512Y1184505D01*
X445513Y1184449D01*
X445532Y1184408D01*
X445540Y1184365D01*
X445572Y1184319D01*
X445595Y1184268D01*
X445628Y1184238D01*
X445653Y1184201D01*
X445700Y1184171D01*
X445742Y1184133D01*
X445783Y1184118D01*
X445820Y1184094D01*
X445876Y1184085D01*
X445929Y1184066D01*
X445981Y1184067D01*
X446017Y1184061D01*
X446049Y1184069D01*
G37*
G36*
X1060729Y132509D02*
X1060729Y132509D01*
X1060775Y132510D01*
X1065096Y133349D01*
X1065125Y133361D01*
X1065167Y133369D01*
X1069317Y134838D01*
X1069344Y134854D01*
X1069384Y134868D01*
X1073271Y136934D01*
X1073295Y136954D01*
X1073334Y136973D01*
X1076872Y139591D01*
X1076893Y139615D01*
X1076928Y139640D01*
X1080040Y142752D01*
X1080058Y142779D01*
X1080089Y142808D01*
X1082707Y146347D01*
X1082720Y146375D01*
X1082746Y146409D01*
X1084812Y150296D01*
X1084821Y150326D01*
X1084842Y150363D01*
X1086311Y154513D01*
X1086316Y154544D01*
X1086331Y154584D01*
X1087170Y158905D01*
X1087170Y158961D01*
X1087179Y159017D01*
X1087169Y159059D01*
X1087168Y159104D01*
X1087146Y159155D01*
X1087133Y159210D01*
X1087107Y159246D01*
X1087089Y159286D01*
X1087048Y159325D01*
X1087015Y159370D01*
X1086977Y159393D01*
X1086945Y159423D01*
X1086892Y159443D01*
X1086844Y159472D01*
X1086793Y159480D01*
X1086759Y159493D01*
X1086725Y159492D01*
X1086680Y159499D01*
X1075680Y159499D01*
X1075627Y159489D01*
X1075574Y159488D01*
X1075531Y159469D01*
X1075485Y159460D01*
X1075441Y159429D01*
X1075392Y159408D01*
X1075360Y159374D01*
X1075321Y159347D01*
X1075292Y159302D01*
X1075256Y159263D01*
X1075235Y159212D01*
X1075214Y159180D01*
X1075209Y159148D01*
X1075206Y159142D01*
X1075205Y159141D01*
X1075205Y159140D01*
X1075193Y159109D01*
X1074582Y156374D01*
X1073554Y153810D01*
X1072127Y151446D01*
X1070338Y149342D01*
X1068234Y147553D01*
X1065870Y146126D01*
X1063306Y145098D01*
X1060571Y144487D01*
X1060522Y144465D01*
X1060470Y144453D01*
X1060432Y144425D01*
X1060390Y144406D01*
X1060353Y144367D01*
X1060310Y144335D01*
X1060286Y144295D01*
X1060254Y144261D01*
X1060236Y144210D01*
X1060208Y144164D01*
X1060199Y144110D01*
X1060186Y144074D01*
X1060188Y144042D01*
X1060181Y144000D01*
X1060181Y133000D01*
X1060192Y132945D01*
X1060193Y132889D01*
X1060212Y132848D01*
X1060220Y132805D01*
X1060252Y132759D01*
X1060275Y132708D01*
X1060308Y132678D01*
X1060333Y132641D01*
X1060380Y132611D01*
X1060422Y132573D01*
X1060463Y132558D01*
X1060500Y132534D01*
X1060556Y132525D01*
X1060609Y132506D01*
X1060661Y132507D01*
X1060697Y132501D01*
X1060729Y132509D01*
G37*
G36*
X446049Y132509D02*
X446049Y132509D01*
X446095Y132510D01*
X450416Y133349D01*
X450445Y133361D01*
X450487Y133369D01*
X454637Y134838D01*
X454664Y134854D01*
X454704Y134868D01*
X458591Y136934D01*
X458615Y136954D01*
X458654Y136973D01*
X462192Y139591D01*
X462213Y139615D01*
X462248Y139640D01*
X465360Y142752D01*
X465378Y142779D01*
X465409Y142808D01*
X468027Y146347D01*
X468040Y146375D01*
X468066Y146409D01*
X470132Y150296D01*
X470141Y150326D01*
X470162Y150363D01*
X471631Y154513D01*
X471636Y154544D01*
X471651Y154584D01*
X472490Y158905D01*
X472490Y158961D01*
X472499Y159017D01*
X472489Y159059D01*
X472488Y159104D01*
X472466Y159155D01*
X472453Y159210D01*
X472427Y159246D01*
X472409Y159286D01*
X472368Y159325D01*
X472335Y159370D01*
X472297Y159393D01*
X472265Y159423D01*
X472212Y159443D01*
X472164Y159472D01*
X472113Y159480D01*
X472079Y159493D01*
X472045Y159492D01*
X472000Y159499D01*
X461000Y159499D01*
X460947Y159489D01*
X460894Y159488D01*
X460851Y159469D01*
X460805Y159460D01*
X460761Y159429D01*
X460712Y159408D01*
X460680Y159374D01*
X460641Y159347D01*
X460612Y159302D01*
X460576Y159263D01*
X460555Y159212D01*
X460534Y159180D01*
X460529Y159148D01*
X460526Y159142D01*
X460525Y159141D01*
X460525Y159140D01*
X460513Y159109D01*
X459902Y156374D01*
X458874Y153810D01*
X457447Y151446D01*
X455658Y149342D01*
X453554Y147553D01*
X451190Y146126D01*
X448626Y145098D01*
X445891Y144487D01*
X445842Y144465D01*
X445790Y144453D01*
X445752Y144425D01*
X445710Y144406D01*
X445673Y144367D01*
X445630Y144335D01*
X445606Y144295D01*
X445574Y144261D01*
X445556Y144210D01*
X445528Y144164D01*
X445519Y144110D01*
X445506Y144074D01*
X445508Y144042D01*
X445501Y144000D01*
X445501Y133000D01*
X445512Y132945D01*
X445513Y132889D01*
X445532Y132848D01*
X445540Y132805D01*
X445572Y132759D01*
X445595Y132708D01*
X445628Y132678D01*
X445653Y132641D01*
X445700Y132611D01*
X445742Y132573D01*
X445783Y132558D01*
X445820Y132534D01*
X445876Y132525D01*
X445929Y132506D01*
X445981Y132507D01*
X446017Y132501D01*
X446049Y132509D01*
G37*
G36*
X446049Y658289D02*
X446049Y658289D01*
X446095Y658290D01*
X450416Y659129D01*
X450445Y659141D01*
X450487Y659149D01*
X454637Y660618D01*
X454664Y660634D01*
X454704Y660648D01*
X458591Y662714D01*
X458615Y662734D01*
X458654Y662753D01*
X462192Y665371D01*
X462213Y665395D01*
X462248Y665420D01*
X465360Y668532D01*
X465378Y668559D01*
X465409Y668588D01*
X468027Y672127D01*
X468040Y672155D01*
X468066Y672189D01*
X470132Y676076D01*
X470141Y676106D01*
X470162Y676143D01*
X471631Y680293D01*
X471636Y680324D01*
X471651Y680364D01*
X472490Y684685D01*
X472490Y684741D01*
X472499Y684797D01*
X472489Y684839D01*
X472488Y684884D01*
X472466Y684935D01*
X472453Y684990D01*
X472427Y685026D01*
X472409Y685066D01*
X472368Y685105D01*
X472335Y685150D01*
X472297Y685173D01*
X472265Y685203D01*
X472212Y685223D01*
X472164Y685252D01*
X472113Y685260D01*
X472079Y685273D01*
X472045Y685272D01*
X472000Y685279D01*
X461000Y685279D01*
X460947Y685269D01*
X460894Y685268D01*
X460851Y685249D01*
X460805Y685240D01*
X460761Y685209D01*
X460712Y685188D01*
X460680Y685154D01*
X460641Y685127D01*
X460612Y685082D01*
X460576Y685043D01*
X460555Y684992D01*
X460534Y684960D01*
X460529Y684928D01*
X460526Y684922D01*
X460525Y684921D01*
X460525Y684920D01*
X460513Y684889D01*
X459902Y682154D01*
X458874Y679590D01*
X457447Y677226D01*
X455658Y675122D01*
X453554Y673333D01*
X451190Y671906D01*
X448626Y670878D01*
X445891Y670267D01*
X445842Y670245D01*
X445790Y670233D01*
X445752Y670205D01*
X445710Y670186D01*
X445673Y670147D01*
X445630Y670115D01*
X445606Y670075D01*
X445574Y670041D01*
X445556Y669990D01*
X445528Y669944D01*
X445519Y669890D01*
X445506Y669854D01*
X445508Y669822D01*
X445501Y669780D01*
X445501Y658780D01*
X445512Y658725D01*
X445513Y658669D01*
X445532Y658628D01*
X445540Y658585D01*
X445572Y658539D01*
X445595Y658488D01*
X445628Y658458D01*
X445653Y658421D01*
X445700Y658391D01*
X445742Y658353D01*
X445783Y658338D01*
X445820Y658314D01*
X445876Y658305D01*
X445929Y658286D01*
X445981Y658287D01*
X446017Y658281D01*
X446049Y658289D01*
G37*
G36*
X100206Y1333517D02*
X100206Y1333517D01*
X100233Y1333513D01*
X100274Y1333531D01*
X100316Y1333540D01*
X100352Y1333566D01*
X100361Y1333570D01*
X100365Y1333575D01*
X100376Y1333584D01*
X124376Y1357584D01*
X124397Y1357622D01*
X124426Y1357655D01*
X124430Y1357682D01*
X124443Y1357706D01*
X124440Y1357750D01*
X124447Y1357793D01*
X124436Y1357819D01*
X124434Y1357846D01*
X124408Y1357881D01*
X124390Y1357921D01*
X124367Y1357936D01*
X124351Y1357958D01*
X124310Y1357974D01*
X124274Y1357998D01*
X124230Y1358005D01*
X124221Y1358008D01*
X124214Y1358007D01*
X124200Y1358009D01*
X100200Y1358009D01*
X100184Y1358004D01*
X100167Y1358007D01*
X100117Y1357985D01*
X100066Y1357970D01*
X100055Y1357957D01*
X100039Y1357950D01*
X100009Y1357905D01*
X99974Y1357865D01*
X99971Y1357848D01*
X99962Y1357834D01*
X99951Y1357760D01*
X99951Y1333760D01*
X99963Y1333718D01*
X99966Y1333674D01*
X99982Y1333652D01*
X99990Y1333626D01*
X100023Y1333597D01*
X100049Y1333562D01*
X100075Y1333552D01*
X100095Y1333534D01*
X100139Y1333527D01*
X100179Y1333512D01*
X100206Y1333517D01*
G37*
G36*
X714886Y1333517D02*
X714886Y1333517D01*
X714913Y1333513D01*
X714954Y1333531D01*
X714996Y1333540D01*
X715032Y1333566D01*
X715041Y1333570D01*
X715045Y1333575D01*
X715056Y1333584D01*
X739056Y1357584D01*
X739077Y1357622D01*
X739106Y1357655D01*
X739110Y1357682D01*
X739123Y1357706D01*
X739120Y1357750D01*
X739127Y1357793D01*
X739116Y1357819D01*
X739114Y1357846D01*
X739088Y1357881D01*
X739070Y1357921D01*
X739047Y1357936D01*
X739031Y1357958D01*
X738990Y1357974D01*
X738954Y1357998D01*
X738910Y1358005D01*
X738901Y1358008D01*
X738894Y1358007D01*
X738880Y1358009D01*
X714880Y1358009D01*
X714864Y1358004D01*
X714847Y1358007D01*
X714797Y1357985D01*
X714746Y1357970D01*
X714735Y1357957D01*
X714719Y1357950D01*
X714689Y1357905D01*
X714654Y1357865D01*
X714651Y1357848D01*
X714642Y1357834D01*
X714631Y1357760D01*
X714631Y1333760D01*
X714643Y1333718D01*
X714646Y1333674D01*
X714662Y1333652D01*
X714670Y1333626D01*
X714703Y1333597D01*
X714729Y1333562D01*
X714755Y1333552D01*
X714775Y1333534D01*
X714819Y1333527D01*
X714859Y1333512D01*
X714886Y1333517D01*
G37*
G36*
X100206Y281957D02*
X100206Y281957D01*
X100233Y281953D01*
X100274Y281971D01*
X100316Y281980D01*
X100352Y282006D01*
X100361Y282010D01*
X100365Y282015D01*
X100376Y282024D01*
X124376Y306024D01*
X124397Y306062D01*
X124426Y306095D01*
X124430Y306122D01*
X124443Y306146D01*
X124440Y306190D01*
X124447Y306233D01*
X124436Y306259D01*
X124434Y306286D01*
X124408Y306321D01*
X124390Y306361D01*
X124367Y306376D01*
X124351Y306398D01*
X124310Y306414D01*
X124274Y306438D01*
X124230Y306445D01*
X124221Y306448D01*
X124214Y306447D01*
X124200Y306449D01*
X100200Y306449D01*
X100184Y306444D01*
X100167Y306447D01*
X100117Y306425D01*
X100066Y306410D01*
X100055Y306397D01*
X100039Y306390D01*
X100009Y306345D01*
X99974Y306305D01*
X99971Y306288D01*
X99962Y306274D01*
X99951Y306200D01*
X99951Y282200D01*
X99963Y282158D01*
X99966Y282114D01*
X99982Y282092D01*
X99990Y282066D01*
X100023Y282037D01*
X100049Y282002D01*
X100075Y281992D01*
X100095Y281974D01*
X100139Y281967D01*
X100179Y281952D01*
X100206Y281957D01*
G37*
G36*
X714886Y281957D02*
X714886Y281957D01*
X714913Y281953D01*
X714954Y281971D01*
X714996Y281980D01*
X715032Y282006D01*
X715041Y282010D01*
X715045Y282015D01*
X715056Y282024D01*
X739056Y306024D01*
X739077Y306062D01*
X739106Y306095D01*
X739110Y306122D01*
X739123Y306146D01*
X739120Y306190D01*
X739127Y306233D01*
X739116Y306259D01*
X739114Y306286D01*
X739088Y306321D01*
X739070Y306361D01*
X739047Y306376D01*
X739031Y306398D01*
X738990Y306414D01*
X738954Y306438D01*
X738910Y306445D01*
X738901Y306448D01*
X738894Y306447D01*
X738880Y306449D01*
X714880Y306449D01*
X714864Y306444D01*
X714847Y306447D01*
X714797Y306425D01*
X714746Y306410D01*
X714735Y306397D01*
X714719Y306390D01*
X714689Y306345D01*
X714654Y306305D01*
X714651Y306288D01*
X714642Y306274D01*
X714631Y306200D01*
X714631Y282200D01*
X714643Y282158D01*
X714646Y282114D01*
X714662Y282092D01*
X714670Y282066D01*
X714703Y282037D01*
X714729Y282002D01*
X714755Y281992D01*
X714775Y281974D01*
X714819Y281967D01*
X714859Y281952D01*
X714886Y281957D01*
G37*
G36*
X100206Y807737D02*
X100206Y807737D01*
X100233Y807733D01*
X100274Y807751D01*
X100316Y807760D01*
X100352Y807786D01*
X100361Y807790D01*
X100365Y807795D01*
X100376Y807804D01*
X124376Y831804D01*
X124397Y831842D01*
X124426Y831875D01*
X124430Y831902D01*
X124443Y831926D01*
X124440Y831970D01*
X124447Y832013D01*
X124436Y832039D01*
X124434Y832066D01*
X124408Y832101D01*
X124390Y832141D01*
X124367Y832156D01*
X124351Y832178D01*
X124310Y832194D01*
X124274Y832218D01*
X124230Y832225D01*
X124221Y832228D01*
X124214Y832227D01*
X124200Y832229D01*
X100200Y832229D01*
X100184Y832224D01*
X100167Y832227D01*
X100117Y832205D01*
X100066Y832190D01*
X100055Y832177D01*
X100039Y832170D01*
X100009Y832125D01*
X99974Y832085D01*
X99971Y832068D01*
X99962Y832054D01*
X99951Y831980D01*
X99951Y807980D01*
X99963Y807938D01*
X99966Y807894D01*
X99982Y807872D01*
X99990Y807846D01*
X100023Y807817D01*
X100049Y807782D01*
X100075Y807772D01*
X100095Y807754D01*
X100139Y807747D01*
X100179Y807732D01*
X100206Y807737D01*
G37*
G36*
X714886Y807737D02*
X714886Y807737D01*
X714913Y807733D01*
X714954Y807751D01*
X714996Y807760D01*
X715032Y807786D01*
X715041Y807790D01*
X715045Y807795D01*
X715056Y807804D01*
X739056Y831804D01*
X739077Y831842D01*
X739106Y831875D01*
X739110Y831902D01*
X739123Y831926D01*
X739120Y831970D01*
X739127Y832013D01*
X739116Y832039D01*
X739114Y832066D01*
X739088Y832101D01*
X739070Y832141D01*
X739047Y832156D01*
X739031Y832178D01*
X738990Y832194D01*
X738954Y832218D01*
X738910Y832225D01*
X738901Y832228D01*
X738894Y832227D01*
X738880Y832229D01*
X714880Y832229D01*
X714864Y832224D01*
X714847Y832227D01*
X714797Y832205D01*
X714746Y832190D01*
X714735Y832177D01*
X714719Y832170D01*
X714689Y832125D01*
X714654Y832085D01*
X714651Y832068D01*
X714642Y832054D01*
X714631Y831980D01*
X714631Y807980D01*
X714643Y807938D01*
X714646Y807894D01*
X714662Y807872D01*
X714670Y807846D01*
X714703Y807817D01*
X714729Y807782D01*
X714755Y807772D01*
X714775Y807754D01*
X714819Y807747D01*
X714859Y807732D01*
X714886Y807737D01*
G37*
G36*
X60305Y53354D02*
X60305Y53354D01*
X60308Y53351D01*
X61403Y53531D01*
X61409Y53537D01*
X61414Y53534D01*
X62442Y53953D01*
X62446Y53960D01*
X62451Y53958D01*
X63360Y54596D01*
X63363Y54603D01*
X63368Y54603D01*
X64112Y55426D01*
X64113Y55434D01*
X64119Y55435D01*
X64661Y56403D01*
X64660Y56412D01*
X64666Y56414D01*
X64979Y57478D01*
X64976Y57486D01*
X64981Y57489D01*
X65049Y58597D01*
X65045Y58604D01*
X65049Y58607D01*
X64879Y59715D01*
X64873Y59721D01*
X64876Y59726D01*
X64464Y60768D01*
X64457Y60772D01*
X64459Y60777D01*
X63825Y61702D01*
X63817Y61704D01*
X63818Y61710D01*
X62995Y62470D01*
X62986Y62471D01*
X62986Y62477D01*
X62014Y63034D01*
X62006Y63033D01*
X62004Y63039D01*
X60932Y63366D01*
X60924Y63363D01*
X60921Y63368D01*
X59804Y63449D01*
X59801Y63448D01*
X59800Y63449D01*
X47800Y63449D01*
X47797Y63447D01*
X47790Y63447D01*
X47789Y63448D01*
X46845Y63229D01*
X46839Y63223D01*
X46834Y63225D01*
X45962Y62802D01*
X45959Y62794D01*
X45953Y62796D01*
X45197Y62189D01*
X45195Y62181D01*
X45189Y62181D01*
X44588Y61421D01*
X44588Y61412D01*
X44582Y61411D01*
X44164Y60536D01*
X44166Y60528D01*
X44161Y60526D01*
X43949Y59580D01*
X43952Y59573D01*
X43947Y59569D01*
X43951Y58600D01*
X43951Y58599D01*
X43970Y57531D01*
X43975Y57524D01*
X43971Y57520D01*
X44227Y56483D01*
X44234Y56478D01*
X44231Y56472D01*
X44712Y55518D01*
X44719Y55515D01*
X44718Y55509D01*
X45399Y54686D01*
X45407Y54684D01*
X45407Y54678D01*
X46254Y54027D01*
X46262Y54027D01*
X46263Y54021D01*
X47234Y53574D01*
X47242Y53576D01*
X47244Y53571D01*
X48290Y53352D01*
X48297Y53355D01*
X48300Y53351D01*
X60300Y53351D01*
X60305Y53354D01*
G37*
G36*
X674985Y1104914D02*
X674985Y1104914D01*
X674988Y1104911D01*
X676083Y1105091D01*
X676089Y1105097D01*
X676094Y1105094D01*
X677122Y1105513D01*
X677126Y1105520D01*
X677131Y1105518D01*
X678040Y1106156D01*
X678043Y1106163D01*
X678048Y1106163D01*
X678792Y1106986D01*
X678793Y1106994D01*
X678799Y1106995D01*
X679341Y1107963D01*
X679340Y1107972D01*
X679346Y1107974D01*
X679659Y1109038D01*
X679656Y1109046D01*
X679661Y1109049D01*
X679729Y1110157D01*
X679725Y1110164D01*
X679729Y1110167D01*
X679559Y1111275D01*
X679553Y1111281D01*
X679556Y1111286D01*
X679144Y1112328D01*
X679137Y1112332D01*
X679139Y1112337D01*
X678505Y1113262D01*
X678497Y1113264D01*
X678498Y1113270D01*
X677675Y1114030D01*
X677666Y1114031D01*
X677666Y1114037D01*
X676694Y1114594D01*
X676686Y1114593D01*
X676684Y1114599D01*
X675612Y1114926D01*
X675604Y1114923D01*
X675601Y1114928D01*
X674484Y1115009D01*
X674481Y1115008D01*
X674480Y1115009D01*
X662480Y1115009D01*
X662477Y1115007D01*
X662470Y1115007D01*
X662469Y1115008D01*
X661525Y1114789D01*
X661519Y1114783D01*
X661514Y1114785D01*
X660642Y1114362D01*
X660639Y1114354D01*
X660633Y1114356D01*
X659877Y1113749D01*
X659875Y1113741D01*
X659869Y1113741D01*
X659268Y1112981D01*
X659268Y1112972D01*
X659262Y1112971D01*
X658844Y1112096D01*
X658846Y1112088D01*
X658841Y1112086D01*
X658629Y1111140D01*
X658632Y1111133D01*
X658627Y1111129D01*
X658631Y1110160D01*
X658631Y1110159D01*
X658650Y1109091D01*
X658655Y1109084D01*
X658651Y1109080D01*
X658907Y1108043D01*
X658914Y1108038D01*
X658911Y1108032D01*
X659392Y1107078D01*
X659399Y1107075D01*
X659398Y1107069D01*
X660079Y1106246D01*
X660087Y1106244D01*
X660087Y1106238D01*
X660934Y1105587D01*
X660942Y1105587D01*
X660943Y1105581D01*
X661914Y1105134D01*
X661922Y1105136D01*
X661924Y1105131D01*
X662970Y1104912D01*
X662977Y1104915D01*
X662980Y1104911D01*
X674980Y1104911D01*
X674985Y1104914D01*
G37*
G36*
X60305Y1104914D02*
X60305Y1104914D01*
X60308Y1104911D01*
X61403Y1105091D01*
X61409Y1105097D01*
X61414Y1105094D01*
X62442Y1105513D01*
X62446Y1105520D01*
X62451Y1105518D01*
X63360Y1106156D01*
X63363Y1106163D01*
X63368Y1106163D01*
X64112Y1106986D01*
X64113Y1106994D01*
X64119Y1106995D01*
X64661Y1107963D01*
X64660Y1107972D01*
X64666Y1107974D01*
X64979Y1109038D01*
X64976Y1109046D01*
X64981Y1109049D01*
X65049Y1110157D01*
X65045Y1110164D01*
X65049Y1110167D01*
X64879Y1111275D01*
X64873Y1111281D01*
X64876Y1111286D01*
X64464Y1112328D01*
X64457Y1112332D01*
X64459Y1112337D01*
X63825Y1113262D01*
X63817Y1113264D01*
X63818Y1113270D01*
X62995Y1114030D01*
X62986Y1114031D01*
X62986Y1114037D01*
X62014Y1114594D01*
X62006Y1114593D01*
X62004Y1114599D01*
X60932Y1114926D01*
X60924Y1114923D01*
X60921Y1114928D01*
X59804Y1115009D01*
X59801Y1115008D01*
X59800Y1115009D01*
X47800Y1115009D01*
X47797Y1115007D01*
X47790Y1115007D01*
X47789Y1115008D01*
X46845Y1114789D01*
X46839Y1114783D01*
X46834Y1114785D01*
X45962Y1114362D01*
X45959Y1114354D01*
X45953Y1114356D01*
X45197Y1113749D01*
X45195Y1113741D01*
X45189Y1113741D01*
X44588Y1112981D01*
X44588Y1112972D01*
X44582Y1112971D01*
X44164Y1112096D01*
X44166Y1112088D01*
X44161Y1112086D01*
X43949Y1111140D01*
X43952Y1111133D01*
X43947Y1111129D01*
X43951Y1110160D01*
X43951Y1110159D01*
X43970Y1109091D01*
X43975Y1109084D01*
X43971Y1109080D01*
X44227Y1108043D01*
X44234Y1108038D01*
X44231Y1108032D01*
X44712Y1107078D01*
X44719Y1107075D01*
X44718Y1107069D01*
X45399Y1106246D01*
X45407Y1106244D01*
X45407Y1106238D01*
X46254Y1105587D01*
X46262Y1105587D01*
X46263Y1105581D01*
X47234Y1105134D01*
X47242Y1105136D01*
X47244Y1105131D01*
X48290Y1104912D01*
X48297Y1104915D01*
X48300Y1104911D01*
X60300Y1104911D01*
X60305Y1104914D01*
G37*
G36*
X674985Y579134D02*
X674985Y579134D01*
X674988Y579131D01*
X676083Y579311D01*
X676089Y579317D01*
X676094Y579314D01*
X677122Y579733D01*
X677126Y579740D01*
X677131Y579738D01*
X678040Y580376D01*
X678043Y580383D01*
X678048Y580383D01*
X678792Y581206D01*
X678793Y581214D01*
X678799Y581215D01*
X679341Y582183D01*
X679340Y582192D01*
X679346Y582194D01*
X679659Y583258D01*
X679656Y583266D01*
X679661Y583269D01*
X679729Y584377D01*
X679725Y584384D01*
X679729Y584387D01*
X679559Y585495D01*
X679553Y585501D01*
X679556Y585506D01*
X679144Y586548D01*
X679137Y586552D01*
X679139Y586557D01*
X678505Y587482D01*
X678497Y587484D01*
X678498Y587490D01*
X677675Y588250D01*
X677666Y588251D01*
X677666Y588257D01*
X676694Y588814D01*
X676686Y588813D01*
X676684Y588819D01*
X675612Y589146D01*
X675604Y589143D01*
X675601Y589148D01*
X674484Y589229D01*
X674481Y589228D01*
X674480Y589229D01*
X662480Y589229D01*
X662477Y589227D01*
X662470Y589227D01*
X662469Y589228D01*
X661525Y589009D01*
X661519Y589003D01*
X661514Y589005D01*
X660642Y588582D01*
X660639Y588574D01*
X660633Y588576D01*
X659877Y587969D01*
X659875Y587961D01*
X659869Y587961D01*
X659268Y587201D01*
X659268Y587192D01*
X659262Y587191D01*
X658844Y586316D01*
X658846Y586308D01*
X658841Y586306D01*
X658629Y585360D01*
X658632Y585353D01*
X658627Y585349D01*
X658631Y584380D01*
X658631Y584379D01*
X658650Y583311D01*
X658655Y583304D01*
X658651Y583300D01*
X658907Y582263D01*
X658914Y582258D01*
X658911Y582252D01*
X659392Y581298D01*
X659399Y581295D01*
X659398Y581289D01*
X660079Y580466D01*
X660087Y580464D01*
X660087Y580458D01*
X660934Y579807D01*
X660942Y579807D01*
X660943Y579801D01*
X661914Y579354D01*
X661922Y579356D01*
X661924Y579351D01*
X662970Y579132D01*
X662977Y579135D01*
X662980Y579131D01*
X674980Y579131D01*
X674985Y579134D01*
G37*
G36*
X674985Y53354D02*
X674985Y53354D01*
X674988Y53351D01*
X676083Y53531D01*
X676089Y53537D01*
X676094Y53534D01*
X677122Y53953D01*
X677126Y53960D01*
X677131Y53958D01*
X678040Y54596D01*
X678043Y54603D01*
X678048Y54603D01*
X678792Y55426D01*
X678793Y55434D01*
X678799Y55435D01*
X679341Y56403D01*
X679340Y56412D01*
X679346Y56414D01*
X679659Y57478D01*
X679656Y57486D01*
X679661Y57489D01*
X679729Y58597D01*
X679725Y58604D01*
X679729Y58607D01*
X679559Y59715D01*
X679553Y59721D01*
X679556Y59726D01*
X679144Y60768D01*
X679137Y60772D01*
X679139Y60777D01*
X678505Y61702D01*
X678497Y61704D01*
X678498Y61710D01*
X677675Y62470D01*
X677666Y62471D01*
X677666Y62477D01*
X676694Y63034D01*
X676686Y63033D01*
X676684Y63039D01*
X675612Y63366D01*
X675604Y63363D01*
X675601Y63368D01*
X674484Y63449D01*
X674481Y63448D01*
X674480Y63449D01*
X662480Y63449D01*
X662477Y63447D01*
X662470Y63447D01*
X662469Y63448D01*
X661525Y63229D01*
X661519Y63223D01*
X661514Y63225D01*
X660642Y62802D01*
X660639Y62794D01*
X660633Y62796D01*
X659877Y62189D01*
X659875Y62181D01*
X659869Y62181D01*
X659268Y61421D01*
X659268Y61412D01*
X659262Y61411D01*
X658844Y60536D01*
X658846Y60528D01*
X658841Y60526D01*
X658629Y59580D01*
X658632Y59573D01*
X658627Y59569D01*
X658631Y58600D01*
X658631Y58599D01*
X658650Y57531D01*
X658655Y57524D01*
X658651Y57520D01*
X658907Y56483D01*
X658914Y56478D01*
X658911Y56472D01*
X659392Y55518D01*
X659399Y55515D01*
X659398Y55509D01*
X660079Y54686D01*
X660087Y54684D01*
X660087Y54678D01*
X660934Y54027D01*
X660942Y54027D01*
X660943Y54021D01*
X661914Y53574D01*
X661922Y53576D01*
X661924Y53571D01*
X662970Y53352D01*
X662977Y53355D01*
X662980Y53351D01*
X674980Y53351D01*
X674985Y53354D01*
G37*
G36*
X60305Y579134D02*
X60305Y579134D01*
X60308Y579131D01*
X61403Y579311D01*
X61409Y579317D01*
X61414Y579314D01*
X62442Y579733D01*
X62446Y579740D01*
X62451Y579738D01*
X63360Y580376D01*
X63363Y580383D01*
X63368Y580383D01*
X64112Y581206D01*
X64113Y581214D01*
X64119Y581215D01*
X64661Y582183D01*
X64660Y582192D01*
X64666Y582194D01*
X64979Y583258D01*
X64976Y583266D01*
X64981Y583269D01*
X65049Y584377D01*
X65045Y584384D01*
X65049Y584387D01*
X64879Y585495D01*
X64873Y585501D01*
X64876Y585506D01*
X64464Y586548D01*
X64457Y586552D01*
X64459Y586557D01*
X63825Y587482D01*
X63817Y587484D01*
X63818Y587490D01*
X62995Y588250D01*
X62986Y588251D01*
X62986Y588257D01*
X62014Y588814D01*
X62006Y588813D01*
X62004Y588819D01*
X60932Y589146D01*
X60924Y589143D01*
X60921Y589148D01*
X59804Y589229D01*
X59801Y589228D01*
X59800Y589229D01*
X47800Y589229D01*
X47797Y589227D01*
X47790Y589227D01*
X47789Y589228D01*
X46845Y589009D01*
X46839Y589003D01*
X46834Y589005D01*
X45962Y588582D01*
X45959Y588574D01*
X45953Y588576D01*
X45197Y587969D01*
X45195Y587961D01*
X45189Y587961D01*
X44588Y587201D01*
X44588Y587192D01*
X44582Y587191D01*
X44164Y586316D01*
X44166Y586308D01*
X44161Y586306D01*
X43949Y585360D01*
X43952Y585353D01*
X43947Y585349D01*
X43951Y584380D01*
X43951Y584379D01*
X43970Y583311D01*
X43975Y583304D01*
X43971Y583300D01*
X44227Y582263D01*
X44234Y582258D01*
X44231Y582252D01*
X44712Y581298D01*
X44719Y581295D01*
X44718Y581289D01*
X45399Y580466D01*
X45407Y580464D01*
X45407Y580458D01*
X46254Y579807D01*
X46262Y579807D01*
X46263Y579801D01*
X47234Y579354D01*
X47242Y579356D01*
X47244Y579351D01*
X48290Y579132D01*
X48297Y579135D01*
X48300Y579131D01*
X60300Y579131D01*
X60305Y579134D01*
G37*
G36*
X674985Y665535D02*
X674985Y665535D01*
X674988Y665531D01*
X676094Y665724D01*
X676099Y665729D01*
X676099Y665730D01*
X676104Y665727D01*
X677139Y666160D01*
X677143Y666167D01*
X677148Y666165D01*
X678061Y666818D01*
X678063Y666826D01*
X678069Y666825D01*
X678813Y667664D01*
X678814Y667673D01*
X678819Y667673D01*
X679358Y668657D01*
X679357Y668665D01*
X679358Y668666D01*
X679362Y668667D01*
X679363Y668669D01*
X679545Y669310D01*
X679669Y669746D01*
X679667Y669751D01*
X679669Y669753D01*
X679667Y669755D01*
X679671Y669757D01*
X679729Y670877D01*
X679726Y670882D01*
X679729Y670886D01*
X679611Y671931D01*
X679605Y671937D01*
X679609Y671942D01*
X679261Y672936D01*
X679254Y672940D01*
X679256Y672945D01*
X678696Y673837D01*
X678689Y673840D01*
X678689Y673845D01*
X677945Y674589D01*
X677937Y674591D01*
X677937Y674596D01*
X677045Y675156D01*
X677037Y675156D01*
X677036Y675161D01*
X676042Y675509D01*
X676034Y675506D01*
X676031Y675511D01*
X674986Y675629D01*
X674982Y675627D01*
X674980Y675629D01*
X662980Y675629D01*
X662977Y675627D01*
X662974Y675627D01*
X662972Y675629D01*
X661976Y675471D01*
X661970Y675465D01*
X661965Y675468D01*
X661029Y675093D01*
X661025Y675086D01*
X661019Y675088D01*
X660190Y674514D01*
X660187Y674506D01*
X660182Y674507D01*
X659501Y673763D01*
X659500Y673754D01*
X659494Y673754D01*
X658996Y672877D01*
X658997Y672869D01*
X658992Y672866D01*
X658804Y672242D01*
X658701Y671901D01*
X658702Y671898D01*
X658701Y671897D01*
X658704Y671893D01*
X658699Y671890D01*
X658631Y670883D01*
X658632Y670881D01*
X658631Y670880D01*
X658640Y669799D01*
X658645Y669792D01*
X658641Y669788D01*
X658891Y668736D01*
X658897Y668731D01*
X658894Y668726D01*
X659371Y667756D01*
X659379Y667753D01*
X659377Y667747D01*
X660058Y666908D01*
X660066Y666906D01*
X660066Y666900D01*
X660917Y666234D01*
X660925Y666233D01*
X660926Y666228D01*
X661903Y665767D01*
X661911Y665769D01*
X661914Y665764D01*
X662969Y665532D01*
X662977Y665535D01*
X662980Y665531D01*
X674980Y665531D01*
X674985Y665535D01*
G37*
G36*
X60305Y665535D02*
X60305Y665535D01*
X60308Y665531D01*
X61414Y665724D01*
X61419Y665729D01*
X61419Y665730D01*
X61424Y665727D01*
X62459Y666160D01*
X62463Y666167D01*
X62468Y666165D01*
X63381Y666818D01*
X63383Y666826D01*
X63389Y666825D01*
X64133Y667664D01*
X64134Y667673D01*
X64139Y667673D01*
X64678Y668657D01*
X64677Y668665D01*
X64678Y668666D01*
X64682Y668667D01*
X64683Y668669D01*
X64865Y669310D01*
X64989Y669746D01*
X64987Y669751D01*
X64989Y669753D01*
X64987Y669755D01*
X64991Y669757D01*
X65049Y670877D01*
X65046Y670882D01*
X65049Y670886D01*
X64931Y671931D01*
X64925Y671937D01*
X64929Y671942D01*
X64581Y672936D01*
X64574Y672940D01*
X64576Y672945D01*
X64016Y673837D01*
X64009Y673840D01*
X64009Y673845D01*
X63265Y674589D01*
X63257Y674591D01*
X63257Y674596D01*
X62365Y675156D01*
X62357Y675156D01*
X62356Y675161D01*
X61362Y675509D01*
X61354Y675506D01*
X61351Y675511D01*
X60306Y675629D01*
X60302Y675627D01*
X60300Y675629D01*
X48300Y675629D01*
X48297Y675627D01*
X48294Y675627D01*
X48292Y675629D01*
X47296Y675471D01*
X47290Y675465D01*
X47285Y675468D01*
X46349Y675093D01*
X46345Y675086D01*
X46339Y675088D01*
X45510Y674514D01*
X45507Y674506D01*
X45502Y674507D01*
X44821Y673763D01*
X44820Y673754D01*
X44814Y673754D01*
X44316Y672877D01*
X44317Y672869D01*
X44312Y672866D01*
X44124Y672242D01*
X44021Y671901D01*
X44022Y671898D01*
X44021Y671897D01*
X44024Y671893D01*
X44019Y671890D01*
X43951Y670883D01*
X43952Y670881D01*
X43951Y670880D01*
X43960Y669799D01*
X43965Y669792D01*
X43961Y669788D01*
X44211Y668736D01*
X44217Y668731D01*
X44214Y668726D01*
X44691Y667756D01*
X44699Y667753D01*
X44697Y667747D01*
X45378Y666908D01*
X45386Y666906D01*
X45386Y666900D01*
X46237Y666234D01*
X46245Y666233D01*
X46246Y666228D01*
X47223Y665767D01*
X47231Y665769D01*
X47234Y665764D01*
X48289Y665532D01*
X48297Y665535D01*
X48300Y665531D01*
X60300Y665531D01*
X60305Y665535D01*
G37*
G36*
X60305Y1191315D02*
X60305Y1191315D01*
X60308Y1191311D01*
X61414Y1191504D01*
X61419Y1191509D01*
X61419Y1191510D01*
X61424Y1191507D01*
X62459Y1191940D01*
X62463Y1191947D01*
X62468Y1191945D01*
X63381Y1192598D01*
X63383Y1192606D01*
X63389Y1192605D01*
X64133Y1193444D01*
X64134Y1193453D01*
X64139Y1193453D01*
X64678Y1194437D01*
X64677Y1194445D01*
X64678Y1194446D01*
X64682Y1194447D01*
X64683Y1194449D01*
X64865Y1195090D01*
X64989Y1195526D01*
X64987Y1195531D01*
X64989Y1195533D01*
X64987Y1195535D01*
X64991Y1195537D01*
X65049Y1196657D01*
X65046Y1196662D01*
X65049Y1196666D01*
X64931Y1197711D01*
X64925Y1197717D01*
X64929Y1197722D01*
X64581Y1198716D01*
X64574Y1198720D01*
X64576Y1198725D01*
X64016Y1199617D01*
X64009Y1199620D01*
X64009Y1199625D01*
X63265Y1200369D01*
X63257Y1200371D01*
X63257Y1200376D01*
X62365Y1200936D01*
X62357Y1200936D01*
X62356Y1200941D01*
X61362Y1201289D01*
X61354Y1201286D01*
X61351Y1201291D01*
X60306Y1201409D01*
X60302Y1201407D01*
X60300Y1201409D01*
X48300Y1201409D01*
X48297Y1201407D01*
X48294Y1201407D01*
X48292Y1201409D01*
X47296Y1201251D01*
X47290Y1201245D01*
X47285Y1201248D01*
X46349Y1200873D01*
X46345Y1200866D01*
X46339Y1200868D01*
X45510Y1200294D01*
X45507Y1200286D01*
X45502Y1200287D01*
X44821Y1199543D01*
X44820Y1199534D01*
X44814Y1199534D01*
X44316Y1198657D01*
X44317Y1198649D01*
X44312Y1198646D01*
X44124Y1198022D01*
X44021Y1197681D01*
X44022Y1197678D01*
X44021Y1197677D01*
X44024Y1197673D01*
X44019Y1197670D01*
X43951Y1196663D01*
X43952Y1196661D01*
X43951Y1196660D01*
X43960Y1195579D01*
X43965Y1195572D01*
X43961Y1195568D01*
X44211Y1194516D01*
X44217Y1194511D01*
X44214Y1194506D01*
X44691Y1193536D01*
X44699Y1193533D01*
X44697Y1193527D01*
X45378Y1192688D01*
X45386Y1192686D01*
X45386Y1192680D01*
X46237Y1192014D01*
X46245Y1192013D01*
X46246Y1192008D01*
X47223Y1191547D01*
X47231Y1191549D01*
X47234Y1191544D01*
X48289Y1191312D01*
X48297Y1191315D01*
X48300Y1191311D01*
X60300Y1191311D01*
X60305Y1191315D01*
G37*
G36*
X60305Y139755D02*
X60305Y139755D01*
X60308Y139751D01*
X61414Y139944D01*
X61419Y139949D01*
X61419Y139950D01*
X61424Y139947D01*
X62459Y140380D01*
X62463Y140387D01*
X62468Y140385D01*
X63381Y141038D01*
X63383Y141046D01*
X63389Y141045D01*
X64133Y141884D01*
X64134Y141893D01*
X64139Y141893D01*
X64678Y142877D01*
X64677Y142885D01*
X64678Y142886D01*
X64682Y142887D01*
X64683Y142889D01*
X64865Y143530D01*
X64989Y143966D01*
X64987Y143971D01*
X64989Y143973D01*
X64987Y143975D01*
X64991Y143977D01*
X65049Y145097D01*
X65046Y145102D01*
X65049Y145106D01*
X64931Y146151D01*
X64925Y146157D01*
X64929Y146162D01*
X64581Y147156D01*
X64574Y147160D01*
X64576Y147165D01*
X64016Y148057D01*
X64009Y148060D01*
X64009Y148065D01*
X63265Y148809D01*
X63257Y148811D01*
X63257Y148816D01*
X62365Y149376D01*
X62357Y149376D01*
X62356Y149381D01*
X61362Y149729D01*
X61354Y149726D01*
X61351Y149731D01*
X60306Y149849D01*
X60302Y149847D01*
X60300Y149849D01*
X48300Y149849D01*
X48297Y149847D01*
X48294Y149847D01*
X48292Y149849D01*
X47296Y149691D01*
X47290Y149685D01*
X47285Y149688D01*
X46349Y149313D01*
X46345Y149306D01*
X46339Y149308D01*
X45510Y148734D01*
X45507Y148726D01*
X45502Y148727D01*
X44821Y147983D01*
X44820Y147974D01*
X44814Y147974D01*
X44316Y147097D01*
X44317Y147089D01*
X44312Y147086D01*
X44124Y146462D01*
X44021Y146121D01*
X44022Y146118D01*
X44021Y146117D01*
X44024Y146113D01*
X44019Y146110D01*
X43951Y145103D01*
X43952Y145101D01*
X43951Y145100D01*
X43960Y144019D01*
X43965Y144012D01*
X43961Y144008D01*
X44211Y142956D01*
X44217Y142951D01*
X44214Y142946D01*
X44691Y141976D01*
X44699Y141973D01*
X44697Y141967D01*
X45378Y141128D01*
X45386Y141126D01*
X45386Y141120D01*
X46237Y140454D01*
X46245Y140453D01*
X46246Y140448D01*
X47223Y139987D01*
X47231Y139989D01*
X47234Y139984D01*
X48289Y139752D01*
X48297Y139755D01*
X48300Y139751D01*
X60300Y139751D01*
X60305Y139755D01*
G37*
G36*
X674985Y1191315D02*
X674985Y1191315D01*
X674988Y1191311D01*
X676094Y1191504D01*
X676099Y1191509D01*
X676099Y1191510D01*
X676104Y1191507D01*
X677139Y1191940D01*
X677143Y1191947D01*
X677148Y1191945D01*
X678061Y1192598D01*
X678063Y1192606D01*
X678069Y1192605D01*
X678813Y1193444D01*
X678814Y1193453D01*
X678819Y1193453D01*
X679358Y1194437D01*
X679357Y1194445D01*
X679358Y1194446D01*
X679362Y1194447D01*
X679363Y1194449D01*
X679545Y1195090D01*
X679669Y1195526D01*
X679667Y1195531D01*
X679669Y1195533D01*
X679667Y1195535D01*
X679671Y1195537D01*
X679729Y1196657D01*
X679726Y1196662D01*
X679729Y1196666D01*
X679611Y1197711D01*
X679605Y1197717D01*
X679609Y1197722D01*
X679261Y1198716D01*
X679254Y1198720D01*
X679256Y1198725D01*
X678696Y1199617D01*
X678689Y1199620D01*
X678689Y1199625D01*
X677945Y1200369D01*
X677937Y1200371D01*
X677937Y1200376D01*
X677045Y1200936D01*
X677037Y1200936D01*
X677036Y1200941D01*
X676042Y1201289D01*
X676034Y1201286D01*
X676031Y1201291D01*
X674986Y1201409D01*
X674982Y1201407D01*
X674980Y1201409D01*
X662980Y1201409D01*
X662977Y1201407D01*
X662974Y1201407D01*
X662972Y1201409D01*
X661976Y1201251D01*
X661970Y1201245D01*
X661965Y1201248D01*
X661029Y1200873D01*
X661025Y1200866D01*
X661019Y1200868D01*
X660190Y1200294D01*
X660187Y1200286D01*
X660182Y1200287D01*
X659501Y1199543D01*
X659500Y1199534D01*
X659494Y1199534D01*
X658996Y1198657D01*
X658997Y1198649D01*
X658992Y1198646D01*
X658804Y1198022D01*
X658701Y1197681D01*
X658702Y1197678D01*
X658701Y1197677D01*
X658704Y1197673D01*
X658699Y1197670D01*
X658631Y1196663D01*
X658632Y1196661D01*
X658631Y1196660D01*
X658640Y1195579D01*
X658645Y1195572D01*
X658641Y1195568D01*
X658891Y1194516D01*
X658897Y1194511D01*
X658894Y1194506D01*
X659371Y1193536D01*
X659379Y1193533D01*
X659377Y1193527D01*
X660058Y1192688D01*
X660066Y1192686D01*
X660066Y1192680D01*
X660917Y1192014D01*
X660925Y1192013D01*
X660926Y1192008D01*
X661903Y1191547D01*
X661911Y1191549D01*
X661914Y1191544D01*
X662969Y1191312D01*
X662977Y1191315D01*
X662980Y1191311D01*
X674980Y1191311D01*
X674985Y1191315D01*
G37*
G36*
X674985Y139755D02*
X674985Y139755D01*
X674988Y139751D01*
X676094Y139944D01*
X676099Y139949D01*
X676099Y139950D01*
X676104Y139947D01*
X677139Y140380D01*
X677143Y140387D01*
X677148Y140385D01*
X678061Y141038D01*
X678063Y141046D01*
X678069Y141045D01*
X678813Y141884D01*
X678814Y141893D01*
X678819Y141893D01*
X679358Y142877D01*
X679357Y142885D01*
X679358Y142886D01*
X679362Y142887D01*
X679363Y142889D01*
X679545Y143530D01*
X679669Y143966D01*
X679667Y143971D01*
X679669Y143973D01*
X679667Y143975D01*
X679671Y143977D01*
X679729Y145097D01*
X679726Y145102D01*
X679729Y145106D01*
X679611Y146151D01*
X679605Y146157D01*
X679609Y146162D01*
X679261Y147156D01*
X679254Y147160D01*
X679256Y147165D01*
X678696Y148057D01*
X678689Y148060D01*
X678689Y148065D01*
X677945Y148809D01*
X677937Y148811D01*
X677937Y148816D01*
X677045Y149376D01*
X677037Y149376D01*
X677036Y149381D01*
X676042Y149729D01*
X676034Y149726D01*
X676031Y149731D01*
X674986Y149849D01*
X674982Y149847D01*
X674980Y149849D01*
X662980Y149849D01*
X662977Y149847D01*
X662974Y149847D01*
X662972Y149849D01*
X661976Y149691D01*
X661970Y149685D01*
X661965Y149688D01*
X661029Y149313D01*
X661025Y149306D01*
X661019Y149308D01*
X660190Y148734D01*
X660187Y148726D01*
X660182Y148727D01*
X659501Y147983D01*
X659500Y147974D01*
X659494Y147974D01*
X658996Y147097D01*
X658997Y147089D01*
X658992Y147086D01*
X658804Y146462D01*
X658701Y146121D01*
X658702Y146118D01*
X658701Y146117D01*
X658704Y146113D01*
X658699Y146110D01*
X658631Y145103D01*
X658632Y145101D01*
X658631Y145100D01*
X658640Y144019D01*
X658645Y144012D01*
X658641Y144008D01*
X658891Y142956D01*
X658897Y142951D01*
X658894Y142946D01*
X659371Y141976D01*
X659379Y141973D01*
X659377Y141967D01*
X660058Y141128D01*
X660066Y141126D01*
X660066Y141120D01*
X660917Y140454D01*
X660925Y140453D01*
X660926Y140448D01*
X661903Y139987D01*
X661911Y139989D01*
X661914Y139984D01*
X662969Y139752D01*
X662977Y139755D01*
X662980Y139751D01*
X674980Y139751D01*
X674985Y139755D01*
G37*
G36*
X630184Y579134D02*
X630184Y579134D01*
X630186Y579131D01*
X631319Y579281D01*
X631325Y579287D01*
X631330Y579284D01*
X632400Y579682D01*
X632404Y579689D01*
X632410Y579687D01*
X633365Y580314D01*
X633368Y580322D01*
X633373Y580321D01*
X634165Y581144D01*
X634166Y581152D01*
X634172Y581153D01*
X634761Y582132D01*
X634760Y582140D01*
X634765Y582142D01*
X635121Y583227D01*
X635119Y583235D01*
X635123Y583238D01*
X635229Y584375D01*
X635224Y584384D01*
X635228Y584389D01*
X635021Y585526D01*
X635015Y585532D01*
X635018Y585537D01*
X634563Y586599D01*
X634556Y586603D01*
X634558Y586609D01*
X633878Y587544D01*
X633870Y587546D01*
X633871Y587552D01*
X633000Y588312D01*
X632992Y588312D01*
X632991Y588318D01*
X631972Y588865D01*
X631964Y588864D01*
X631962Y588869D01*
X630848Y589176D01*
X630840Y589173D01*
X630837Y589178D01*
X629682Y589229D01*
X629681Y589228D01*
X629680Y589229D01*
X623680Y589229D01*
X623677Y589227D01*
X623672Y589227D01*
X623671Y589228D01*
X622590Y589016D01*
X622585Y589010D01*
X622580Y589013D01*
X621574Y588566D01*
X621570Y588559D01*
X621564Y588561D01*
X620683Y587901D01*
X620680Y587893D01*
X620675Y587893D01*
X619962Y587054D01*
X619962Y587046D01*
X619956Y587045D01*
X619448Y586068D01*
X619449Y586060D01*
X619444Y586058D01*
X619166Y584993D01*
X619169Y584985D01*
X619165Y584982D01*
X619131Y583882D01*
X619135Y583876D01*
X619131Y583873D01*
X619286Y582798D01*
X619292Y582792D01*
X619289Y582787D01*
X619679Y581773D01*
X619686Y581769D01*
X619685Y581763D01*
X620291Y580861D01*
X620299Y580859D01*
X620298Y580853D01*
X621090Y580109D01*
X621098Y580108D01*
X621098Y580102D01*
X622036Y579553D01*
X622044Y579554D01*
X622046Y579548D01*
X623082Y579221D01*
X623090Y579224D01*
X623093Y579219D01*
X624176Y579131D01*
X624179Y579133D01*
X624180Y579131D01*
X630180Y579131D01*
X630184Y579134D01*
G37*
G36*
X15504Y579134D02*
X15504Y579134D01*
X15506Y579131D01*
X16639Y579281D01*
X16645Y579287D01*
X16650Y579284D01*
X17720Y579682D01*
X17724Y579689D01*
X17730Y579687D01*
X18685Y580314D01*
X18688Y580322D01*
X18693Y580321D01*
X19485Y581144D01*
X19486Y581152D01*
X19492Y581153D01*
X20081Y582132D01*
X20080Y582140D01*
X20085Y582142D01*
X20441Y583227D01*
X20439Y583235D01*
X20443Y583238D01*
X20549Y584375D01*
X20544Y584384D01*
X20548Y584389D01*
X20341Y585526D01*
X20335Y585532D01*
X20338Y585537D01*
X19883Y586599D01*
X19876Y586603D01*
X19878Y586609D01*
X19198Y587544D01*
X19190Y587546D01*
X19191Y587552D01*
X18320Y588312D01*
X18312Y588312D01*
X18311Y588318D01*
X17292Y588865D01*
X17284Y588864D01*
X17282Y588869D01*
X16168Y589176D01*
X16160Y589173D01*
X16157Y589178D01*
X15002Y589229D01*
X15001Y589228D01*
X15000Y589229D01*
X9000Y589229D01*
X8997Y589227D01*
X8992Y589227D01*
X8991Y589228D01*
X7910Y589016D01*
X7905Y589010D01*
X7900Y589013D01*
X6894Y588566D01*
X6890Y588559D01*
X6884Y588561D01*
X6003Y587901D01*
X6000Y587893D01*
X5995Y587893D01*
X5282Y587054D01*
X5282Y587046D01*
X5276Y587045D01*
X4768Y586068D01*
X4769Y586060D01*
X4764Y586058D01*
X4486Y584993D01*
X4489Y584985D01*
X4485Y584982D01*
X4451Y583882D01*
X4455Y583876D01*
X4451Y583873D01*
X4606Y582798D01*
X4612Y582792D01*
X4609Y582787D01*
X4999Y581773D01*
X5006Y581769D01*
X5005Y581763D01*
X5611Y580861D01*
X5619Y580859D01*
X5618Y580853D01*
X6410Y580109D01*
X6418Y580108D01*
X6418Y580102D01*
X7356Y579553D01*
X7364Y579554D01*
X7366Y579548D01*
X8402Y579221D01*
X8410Y579224D01*
X8413Y579219D01*
X9496Y579131D01*
X9499Y579133D01*
X9500Y579131D01*
X15500Y579131D01*
X15504Y579134D01*
G37*
G36*
X630184Y1104914D02*
X630184Y1104914D01*
X630186Y1104911D01*
X631319Y1105061D01*
X631325Y1105067D01*
X631330Y1105064D01*
X632400Y1105462D01*
X632404Y1105469D01*
X632410Y1105467D01*
X633365Y1106094D01*
X633368Y1106102D01*
X633373Y1106101D01*
X634165Y1106924D01*
X634166Y1106932D01*
X634172Y1106933D01*
X634761Y1107912D01*
X634760Y1107920D01*
X634765Y1107922D01*
X635121Y1109007D01*
X635119Y1109015D01*
X635123Y1109018D01*
X635229Y1110155D01*
X635224Y1110164D01*
X635228Y1110169D01*
X635021Y1111306D01*
X635015Y1111312D01*
X635018Y1111317D01*
X634563Y1112379D01*
X634556Y1112383D01*
X634558Y1112389D01*
X633878Y1113324D01*
X633870Y1113326D01*
X633871Y1113332D01*
X633000Y1114092D01*
X632992Y1114092D01*
X632991Y1114098D01*
X631972Y1114645D01*
X631964Y1114644D01*
X631962Y1114649D01*
X630848Y1114956D01*
X630840Y1114953D01*
X630837Y1114958D01*
X629682Y1115009D01*
X629681Y1115008D01*
X629680Y1115009D01*
X623680Y1115009D01*
X623677Y1115007D01*
X623672Y1115007D01*
X623671Y1115008D01*
X622590Y1114796D01*
X622585Y1114790D01*
X622580Y1114793D01*
X621574Y1114346D01*
X621570Y1114339D01*
X621564Y1114341D01*
X620683Y1113681D01*
X620680Y1113673D01*
X620675Y1113673D01*
X619962Y1112834D01*
X619962Y1112826D01*
X619956Y1112825D01*
X619448Y1111848D01*
X619449Y1111840D01*
X619444Y1111838D01*
X619166Y1110773D01*
X619169Y1110765D01*
X619165Y1110762D01*
X619131Y1109662D01*
X619135Y1109656D01*
X619131Y1109653D01*
X619286Y1108578D01*
X619292Y1108572D01*
X619289Y1108567D01*
X619679Y1107553D01*
X619686Y1107549D01*
X619685Y1107543D01*
X620291Y1106641D01*
X620299Y1106639D01*
X620298Y1106633D01*
X621090Y1105889D01*
X621098Y1105888D01*
X621098Y1105882D01*
X622036Y1105333D01*
X622044Y1105334D01*
X622046Y1105328D01*
X623082Y1105001D01*
X623090Y1105004D01*
X623093Y1104999D01*
X624176Y1104911D01*
X624179Y1104913D01*
X624180Y1104911D01*
X630180Y1104911D01*
X630184Y1104914D01*
G37*
G36*
X15504Y1104914D02*
X15504Y1104914D01*
X15506Y1104911D01*
X16639Y1105061D01*
X16645Y1105067D01*
X16650Y1105064D01*
X17720Y1105462D01*
X17724Y1105469D01*
X17730Y1105467D01*
X18685Y1106094D01*
X18688Y1106102D01*
X18693Y1106101D01*
X19485Y1106924D01*
X19486Y1106932D01*
X19492Y1106933D01*
X20081Y1107912D01*
X20080Y1107920D01*
X20085Y1107922D01*
X20441Y1109007D01*
X20439Y1109015D01*
X20443Y1109018D01*
X20549Y1110155D01*
X20544Y1110164D01*
X20548Y1110169D01*
X20341Y1111306D01*
X20335Y1111312D01*
X20338Y1111317D01*
X19883Y1112379D01*
X19876Y1112383D01*
X19878Y1112389D01*
X19198Y1113324D01*
X19190Y1113326D01*
X19191Y1113332D01*
X18320Y1114092D01*
X18312Y1114092D01*
X18311Y1114098D01*
X17292Y1114645D01*
X17284Y1114644D01*
X17282Y1114649D01*
X16168Y1114956D01*
X16160Y1114953D01*
X16157Y1114958D01*
X15002Y1115009D01*
X15001Y1115008D01*
X15000Y1115009D01*
X9000Y1115009D01*
X8997Y1115007D01*
X8992Y1115007D01*
X8991Y1115008D01*
X7910Y1114796D01*
X7905Y1114790D01*
X7900Y1114793D01*
X6894Y1114346D01*
X6890Y1114339D01*
X6884Y1114341D01*
X6003Y1113681D01*
X6000Y1113673D01*
X5995Y1113673D01*
X5282Y1112834D01*
X5282Y1112826D01*
X5276Y1112825D01*
X4768Y1111848D01*
X4769Y1111840D01*
X4764Y1111838D01*
X4486Y1110773D01*
X4489Y1110765D01*
X4485Y1110762D01*
X4451Y1109662D01*
X4455Y1109656D01*
X4451Y1109653D01*
X4606Y1108578D01*
X4612Y1108572D01*
X4609Y1108567D01*
X4999Y1107553D01*
X5006Y1107549D01*
X5005Y1107543D01*
X5611Y1106641D01*
X5619Y1106639D01*
X5618Y1106633D01*
X6410Y1105889D01*
X6418Y1105888D01*
X6418Y1105882D01*
X7356Y1105333D01*
X7364Y1105334D01*
X7366Y1105328D01*
X8402Y1105001D01*
X8410Y1105004D01*
X8413Y1104999D01*
X9496Y1104911D01*
X9499Y1104913D01*
X9500Y1104911D01*
X15500Y1104911D01*
X15504Y1104914D01*
G37*
G36*
X630184Y53354D02*
X630184Y53354D01*
X630186Y53351D01*
X631319Y53501D01*
X631325Y53507D01*
X631330Y53504D01*
X632400Y53902D01*
X632404Y53909D01*
X632410Y53907D01*
X633365Y54534D01*
X633368Y54542D01*
X633373Y54541D01*
X634165Y55364D01*
X634166Y55372D01*
X634172Y55373D01*
X634761Y56352D01*
X634760Y56360D01*
X634765Y56362D01*
X635121Y57447D01*
X635119Y57455D01*
X635123Y57458D01*
X635229Y58595D01*
X635224Y58604D01*
X635228Y58609D01*
X635021Y59746D01*
X635015Y59752D01*
X635018Y59757D01*
X634563Y60819D01*
X634556Y60823D01*
X634558Y60829D01*
X633878Y61764D01*
X633870Y61766D01*
X633871Y61772D01*
X633000Y62532D01*
X632992Y62532D01*
X632991Y62538D01*
X631972Y63085D01*
X631964Y63084D01*
X631962Y63089D01*
X630848Y63396D01*
X630840Y63393D01*
X630837Y63398D01*
X629682Y63449D01*
X629681Y63448D01*
X629680Y63449D01*
X623680Y63449D01*
X623677Y63447D01*
X623672Y63447D01*
X623671Y63448D01*
X622590Y63236D01*
X622585Y63230D01*
X622580Y63233D01*
X621574Y62786D01*
X621570Y62779D01*
X621564Y62781D01*
X620683Y62121D01*
X620680Y62113D01*
X620675Y62113D01*
X619962Y61274D01*
X619962Y61266D01*
X619956Y61265D01*
X619448Y60288D01*
X619449Y60280D01*
X619444Y60278D01*
X619166Y59213D01*
X619169Y59205D01*
X619165Y59202D01*
X619131Y58102D01*
X619135Y58096D01*
X619131Y58093D01*
X619286Y57018D01*
X619292Y57012D01*
X619289Y57007D01*
X619679Y55993D01*
X619686Y55989D01*
X619685Y55983D01*
X620291Y55081D01*
X620299Y55079D01*
X620298Y55073D01*
X621090Y54329D01*
X621098Y54328D01*
X621098Y54322D01*
X622036Y53773D01*
X622044Y53774D01*
X622046Y53768D01*
X623082Y53441D01*
X623090Y53444D01*
X623093Y53439D01*
X624176Y53351D01*
X624179Y53353D01*
X624180Y53351D01*
X630180Y53351D01*
X630184Y53354D01*
G37*
G36*
X15504Y53354D02*
X15504Y53354D01*
X15506Y53351D01*
X16639Y53501D01*
X16645Y53507D01*
X16650Y53504D01*
X17720Y53902D01*
X17724Y53909D01*
X17730Y53907D01*
X18685Y54534D01*
X18688Y54542D01*
X18693Y54541D01*
X19485Y55364D01*
X19486Y55372D01*
X19492Y55373D01*
X20081Y56352D01*
X20080Y56360D01*
X20085Y56362D01*
X20441Y57447D01*
X20439Y57455D01*
X20443Y57458D01*
X20549Y58595D01*
X20544Y58604D01*
X20548Y58609D01*
X20341Y59746D01*
X20335Y59752D01*
X20338Y59757D01*
X19883Y60819D01*
X19876Y60823D01*
X19878Y60829D01*
X19198Y61764D01*
X19190Y61766D01*
X19191Y61772D01*
X18320Y62532D01*
X18312Y62532D01*
X18311Y62538D01*
X17292Y63085D01*
X17284Y63084D01*
X17282Y63089D01*
X16168Y63396D01*
X16160Y63393D01*
X16157Y63398D01*
X15002Y63449D01*
X15001Y63448D01*
X15000Y63449D01*
X9000Y63449D01*
X8997Y63447D01*
X8992Y63447D01*
X8991Y63448D01*
X7910Y63236D01*
X7905Y63230D01*
X7900Y63233D01*
X6894Y62786D01*
X6890Y62779D01*
X6884Y62781D01*
X6003Y62121D01*
X6000Y62113D01*
X5995Y62113D01*
X5282Y61274D01*
X5282Y61266D01*
X5276Y61265D01*
X4768Y60288D01*
X4769Y60280D01*
X4764Y60278D01*
X4486Y59213D01*
X4489Y59205D01*
X4485Y59202D01*
X4451Y58102D01*
X4455Y58096D01*
X4451Y58093D01*
X4606Y57018D01*
X4612Y57012D01*
X4609Y57007D01*
X4999Y55993D01*
X5006Y55989D01*
X5005Y55983D01*
X5611Y55081D01*
X5619Y55079D01*
X5618Y55073D01*
X6410Y54329D01*
X6418Y54328D01*
X6418Y54322D01*
X7356Y53773D01*
X7364Y53774D01*
X7366Y53768D01*
X8402Y53441D01*
X8410Y53444D01*
X8413Y53439D01*
X9496Y53351D01*
X9499Y53353D01*
X9500Y53351D01*
X15500Y53351D01*
X15504Y53354D01*
G37*
G36*
X630183Y665533D02*
X630183Y665533D01*
X630185Y665531D01*
X631277Y665632D01*
X631283Y665637D01*
X631288Y665634D01*
X632331Y665975D01*
X632336Y665982D01*
X632341Y665980D01*
X633282Y666544D01*
X633285Y666552D01*
X633291Y666551D01*
X634083Y667311D01*
X634084Y667319D01*
X634090Y667320D01*
X634693Y668237D01*
X634692Y668245D01*
X634698Y668247D01*
X635081Y669275D01*
X635079Y669283D01*
X635084Y669286D01*
X635229Y670374D01*
X635225Y670381D01*
X635229Y670385D01*
X635123Y671522D01*
X635118Y671528D01*
X635121Y671533D01*
X634765Y672618D01*
X634758Y672623D01*
X634761Y672628D01*
X634172Y673607D01*
X634164Y673610D01*
X634165Y673616D01*
X633373Y674439D01*
X633365Y674440D01*
X633365Y674446D01*
X632410Y675073D01*
X632402Y675072D01*
X632400Y675078D01*
X631330Y675476D01*
X631322Y675474D01*
X631319Y675479D01*
X630186Y675629D01*
X630183Y675627D01*
X630182Y675627D01*
X630180Y675629D01*
X624180Y675629D01*
X624177Y675627D01*
X624175Y675627D01*
X624174Y675629D01*
X623041Y675479D01*
X623035Y675473D01*
X623030Y675476D01*
X621960Y675078D01*
X621956Y675071D01*
X621950Y675073D01*
X620995Y674446D01*
X620992Y674438D01*
X620987Y674439D01*
X620195Y673616D01*
X620194Y673608D01*
X620188Y673607D01*
X619599Y672628D01*
X619600Y672620D01*
X619595Y672618D01*
X619239Y671533D01*
X619242Y671525D01*
X619237Y671522D01*
X619131Y670385D01*
X619135Y670378D01*
X619131Y670374D01*
X619276Y669286D01*
X619282Y669280D01*
X619279Y669275D01*
X619663Y668247D01*
X619669Y668242D01*
X619668Y668237D01*
X620270Y667320D01*
X620278Y667317D01*
X620277Y667311D01*
X621069Y666551D01*
X621077Y666550D01*
X621078Y666544D01*
X622019Y665980D01*
X622027Y665981D01*
X622029Y665975D01*
X623072Y665634D01*
X623080Y665636D01*
X623083Y665632D01*
X624176Y665531D01*
X624178Y665533D01*
X624180Y665531D01*
X630180Y665531D01*
X630183Y665533D01*
G37*
G36*
X15503Y1191313D02*
X15503Y1191313D01*
X15505Y1191311D01*
X16597Y1191412D01*
X16603Y1191417D01*
X16608Y1191414D01*
X17651Y1191755D01*
X17656Y1191762D01*
X17661Y1191760D01*
X18602Y1192324D01*
X18605Y1192332D01*
X18611Y1192331D01*
X19403Y1193091D01*
X19404Y1193099D01*
X19410Y1193100D01*
X20013Y1194017D01*
X20012Y1194025D01*
X20018Y1194027D01*
X20401Y1195055D01*
X20399Y1195063D01*
X20404Y1195066D01*
X20549Y1196154D01*
X20545Y1196161D01*
X20549Y1196165D01*
X20443Y1197302D01*
X20438Y1197308D01*
X20441Y1197313D01*
X20085Y1198398D01*
X20078Y1198403D01*
X20081Y1198408D01*
X19492Y1199387D01*
X19484Y1199390D01*
X19485Y1199396D01*
X18693Y1200219D01*
X18685Y1200220D01*
X18685Y1200226D01*
X17730Y1200853D01*
X17722Y1200852D01*
X17720Y1200858D01*
X16650Y1201256D01*
X16642Y1201254D01*
X16639Y1201259D01*
X15506Y1201409D01*
X15503Y1201407D01*
X15502Y1201407D01*
X15500Y1201409D01*
X9500Y1201409D01*
X9497Y1201407D01*
X9495Y1201407D01*
X9494Y1201409D01*
X8361Y1201259D01*
X8355Y1201253D01*
X8350Y1201256D01*
X7280Y1200858D01*
X7276Y1200851D01*
X7270Y1200853D01*
X6315Y1200226D01*
X6312Y1200218D01*
X6307Y1200219D01*
X5515Y1199396D01*
X5514Y1199388D01*
X5508Y1199387D01*
X4919Y1198408D01*
X4920Y1198400D01*
X4915Y1198398D01*
X4559Y1197313D01*
X4562Y1197305D01*
X4557Y1197302D01*
X4451Y1196165D01*
X4455Y1196158D01*
X4451Y1196154D01*
X4596Y1195066D01*
X4602Y1195060D01*
X4599Y1195055D01*
X4983Y1194027D01*
X4989Y1194022D01*
X4988Y1194017D01*
X5590Y1193100D01*
X5598Y1193097D01*
X5597Y1193091D01*
X6389Y1192331D01*
X6397Y1192330D01*
X6398Y1192324D01*
X7339Y1191760D01*
X7347Y1191761D01*
X7349Y1191755D01*
X8392Y1191414D01*
X8400Y1191416D01*
X8403Y1191412D01*
X9496Y1191311D01*
X9498Y1191313D01*
X9500Y1191311D01*
X15500Y1191311D01*
X15503Y1191313D01*
G37*
G36*
X15503Y665533D02*
X15503Y665533D01*
X15505Y665531D01*
X16597Y665632D01*
X16603Y665637D01*
X16608Y665634D01*
X17651Y665975D01*
X17656Y665982D01*
X17661Y665980D01*
X18602Y666544D01*
X18605Y666552D01*
X18611Y666551D01*
X19403Y667311D01*
X19404Y667319D01*
X19410Y667320D01*
X20013Y668237D01*
X20012Y668245D01*
X20018Y668247D01*
X20401Y669275D01*
X20399Y669283D01*
X20404Y669286D01*
X20549Y670374D01*
X20545Y670381D01*
X20549Y670385D01*
X20443Y671522D01*
X20438Y671528D01*
X20441Y671533D01*
X20085Y672618D01*
X20078Y672623D01*
X20081Y672628D01*
X19492Y673607D01*
X19484Y673610D01*
X19485Y673616D01*
X18693Y674439D01*
X18685Y674440D01*
X18685Y674446D01*
X17730Y675073D01*
X17722Y675072D01*
X17720Y675078D01*
X16650Y675476D01*
X16642Y675474D01*
X16639Y675479D01*
X15506Y675629D01*
X15503Y675627D01*
X15502Y675627D01*
X15500Y675629D01*
X9500Y675629D01*
X9497Y675627D01*
X9495Y675627D01*
X9494Y675629D01*
X8361Y675479D01*
X8355Y675473D01*
X8350Y675476D01*
X7280Y675078D01*
X7276Y675071D01*
X7270Y675073D01*
X6315Y674446D01*
X6312Y674438D01*
X6307Y674439D01*
X5515Y673616D01*
X5514Y673608D01*
X5508Y673607D01*
X4919Y672628D01*
X4920Y672620D01*
X4915Y672618D01*
X4559Y671533D01*
X4562Y671525D01*
X4557Y671522D01*
X4451Y670385D01*
X4455Y670378D01*
X4451Y670374D01*
X4596Y669286D01*
X4602Y669280D01*
X4599Y669275D01*
X4983Y668247D01*
X4989Y668242D01*
X4988Y668237D01*
X5590Y667320D01*
X5598Y667317D01*
X5597Y667311D01*
X6389Y666551D01*
X6397Y666550D01*
X6398Y666544D01*
X7339Y665980D01*
X7347Y665981D01*
X7349Y665975D01*
X8392Y665634D01*
X8400Y665636D01*
X8403Y665632D01*
X9496Y665531D01*
X9498Y665533D01*
X9500Y665531D01*
X15500Y665531D01*
X15503Y665533D01*
G37*
G36*
X630183Y1191313D02*
X630183Y1191313D01*
X630185Y1191311D01*
X631277Y1191412D01*
X631283Y1191417D01*
X631288Y1191414D01*
X632331Y1191755D01*
X632336Y1191762D01*
X632341Y1191760D01*
X633282Y1192324D01*
X633285Y1192332D01*
X633291Y1192331D01*
X634083Y1193091D01*
X634084Y1193099D01*
X634090Y1193100D01*
X634693Y1194017D01*
X634692Y1194025D01*
X634698Y1194027D01*
X635081Y1195055D01*
X635079Y1195063D01*
X635084Y1195066D01*
X635229Y1196154D01*
X635225Y1196161D01*
X635229Y1196165D01*
X635123Y1197302D01*
X635118Y1197308D01*
X635121Y1197313D01*
X634765Y1198398D01*
X634758Y1198403D01*
X634761Y1198408D01*
X634172Y1199387D01*
X634164Y1199390D01*
X634165Y1199396D01*
X633373Y1200219D01*
X633365Y1200220D01*
X633365Y1200226D01*
X632410Y1200853D01*
X632402Y1200852D01*
X632400Y1200858D01*
X631330Y1201256D01*
X631322Y1201254D01*
X631319Y1201259D01*
X630186Y1201409D01*
X630183Y1201407D01*
X630182Y1201407D01*
X630180Y1201409D01*
X624180Y1201409D01*
X624177Y1201407D01*
X624175Y1201407D01*
X624174Y1201409D01*
X623041Y1201259D01*
X623035Y1201253D01*
X623030Y1201256D01*
X621960Y1200858D01*
X621956Y1200851D01*
X621950Y1200853D01*
X620995Y1200226D01*
X620992Y1200218D01*
X620987Y1200219D01*
X620195Y1199396D01*
X620194Y1199388D01*
X620188Y1199387D01*
X619599Y1198408D01*
X619600Y1198400D01*
X619595Y1198398D01*
X619239Y1197313D01*
X619242Y1197305D01*
X619237Y1197302D01*
X619131Y1196165D01*
X619135Y1196158D01*
X619131Y1196154D01*
X619276Y1195066D01*
X619282Y1195060D01*
X619279Y1195055D01*
X619663Y1194027D01*
X619669Y1194022D01*
X619668Y1194017D01*
X620270Y1193100D01*
X620278Y1193097D01*
X620277Y1193091D01*
X621069Y1192331D01*
X621077Y1192330D01*
X621078Y1192324D01*
X622019Y1191760D01*
X622027Y1191761D01*
X622029Y1191755D01*
X623072Y1191414D01*
X623080Y1191416D01*
X623083Y1191412D01*
X624176Y1191311D01*
X624178Y1191313D01*
X624180Y1191311D01*
X630180Y1191311D01*
X630183Y1191313D01*
G37*
G36*
X630183Y139753D02*
X630183Y139753D01*
X630185Y139751D01*
X631277Y139852D01*
X631283Y139857D01*
X631288Y139854D01*
X632331Y140195D01*
X632336Y140202D01*
X632341Y140200D01*
X633282Y140764D01*
X633285Y140772D01*
X633291Y140771D01*
X634083Y141531D01*
X634084Y141539D01*
X634090Y141540D01*
X634693Y142457D01*
X634692Y142465D01*
X634698Y142467D01*
X635081Y143495D01*
X635079Y143503D01*
X635084Y143506D01*
X635229Y144594D01*
X635225Y144601D01*
X635229Y144605D01*
X635123Y145742D01*
X635118Y145748D01*
X635121Y145753D01*
X634765Y146838D01*
X634758Y146843D01*
X634761Y146848D01*
X634172Y147827D01*
X634164Y147830D01*
X634165Y147836D01*
X633373Y148659D01*
X633365Y148660D01*
X633365Y148666D01*
X632410Y149293D01*
X632402Y149292D01*
X632400Y149298D01*
X631330Y149696D01*
X631322Y149694D01*
X631319Y149699D01*
X630186Y149849D01*
X630183Y149847D01*
X630182Y149847D01*
X630180Y149849D01*
X624180Y149849D01*
X624177Y149847D01*
X624175Y149847D01*
X624174Y149849D01*
X623041Y149699D01*
X623035Y149693D01*
X623030Y149696D01*
X621960Y149298D01*
X621956Y149291D01*
X621950Y149293D01*
X620995Y148666D01*
X620992Y148658D01*
X620987Y148659D01*
X620195Y147836D01*
X620194Y147828D01*
X620188Y147827D01*
X619599Y146848D01*
X619600Y146840D01*
X619595Y146838D01*
X619239Y145753D01*
X619242Y145745D01*
X619237Y145742D01*
X619131Y144605D01*
X619135Y144598D01*
X619131Y144594D01*
X619276Y143506D01*
X619282Y143500D01*
X619279Y143495D01*
X619663Y142467D01*
X619669Y142462D01*
X619668Y142457D01*
X620270Y141540D01*
X620278Y141537D01*
X620277Y141531D01*
X621069Y140771D01*
X621077Y140770D01*
X621078Y140764D01*
X622019Y140200D01*
X622027Y140201D01*
X622029Y140195D01*
X623072Y139854D01*
X623080Y139856D01*
X623083Y139852D01*
X624176Y139751D01*
X624178Y139753D01*
X624180Y139751D01*
X630180Y139751D01*
X630183Y139753D01*
G37*
G36*
X15503Y139753D02*
X15503Y139753D01*
X15505Y139751D01*
X16597Y139852D01*
X16603Y139857D01*
X16608Y139854D01*
X17651Y140195D01*
X17656Y140202D01*
X17661Y140200D01*
X18602Y140764D01*
X18605Y140772D01*
X18611Y140771D01*
X19403Y141531D01*
X19404Y141539D01*
X19410Y141540D01*
X20013Y142457D01*
X20012Y142465D01*
X20018Y142467D01*
X20401Y143495D01*
X20399Y143503D01*
X20404Y143506D01*
X20549Y144594D01*
X20545Y144601D01*
X20549Y144605D01*
X20443Y145742D01*
X20438Y145748D01*
X20441Y145753D01*
X20085Y146838D01*
X20078Y146843D01*
X20081Y146848D01*
X19492Y147827D01*
X19484Y147830D01*
X19485Y147836D01*
X18693Y148659D01*
X18685Y148660D01*
X18685Y148666D01*
X17730Y149293D01*
X17722Y149292D01*
X17720Y149298D01*
X16650Y149696D01*
X16642Y149694D01*
X16639Y149699D01*
X15506Y149849D01*
X15503Y149847D01*
X15502Y149847D01*
X15500Y149849D01*
X9500Y149849D01*
X9497Y149847D01*
X9495Y149847D01*
X9494Y149849D01*
X8361Y149699D01*
X8355Y149693D01*
X8350Y149696D01*
X7280Y149298D01*
X7276Y149291D01*
X7270Y149293D01*
X6315Y148666D01*
X6312Y148658D01*
X6307Y148659D01*
X5515Y147836D01*
X5514Y147828D01*
X5508Y147827D01*
X4919Y146848D01*
X4920Y146840D01*
X4915Y146838D01*
X4559Y145753D01*
X4562Y145745D01*
X4557Y145742D01*
X4451Y144605D01*
X4455Y144598D01*
X4451Y144594D01*
X4596Y143506D01*
X4602Y143500D01*
X4599Y143495D01*
X4983Y142467D01*
X4989Y142462D01*
X4988Y142457D01*
X5590Y141540D01*
X5598Y141537D01*
X5597Y141531D01*
X6389Y140771D01*
X6397Y140770D01*
X6398Y140764D01*
X7339Y140200D01*
X7347Y140201D01*
X7349Y140195D01*
X8392Y139854D01*
X8400Y139856D01*
X8403Y139852D01*
X9496Y139751D01*
X9498Y139753D01*
X9500Y139751D01*
X15500Y139751D01*
X15503Y139753D01*
G37*
G36*
X331777Y685583D02*
X331777Y685583D01*
X331786Y685587D01*
X331826Y685593D01*
X333313Y686062D01*
X333322Y686068D01*
X333360Y686082D01*
X334721Y686842D01*
X334741Y686862D01*
X334766Y686874D01*
X334789Y686911D01*
X334820Y686942D01*
X334825Y686969D01*
X334840Y686993D01*
X334840Y687036D01*
X334849Y687079D01*
X334839Y687105D01*
X334838Y687133D01*
X334806Y687200D01*
X333406Y689270D01*
X333402Y689274D01*
X333399Y689280D01*
X333348Y689318D01*
X333299Y689359D01*
X333293Y689360D01*
X333288Y689363D01*
X333224Y689368D01*
X333160Y689376D01*
X333154Y689373D01*
X333148Y689374D01*
X333079Y689348D01*
X332172Y688842D01*
X331207Y688538D01*
X330200Y688435D01*
X329193Y688538D01*
X328228Y688842D01*
X327321Y689348D01*
X327315Y689349D01*
X327311Y689353D01*
X327248Y689365D01*
X327185Y689379D01*
X327179Y689377D01*
X327173Y689378D01*
X327114Y689353D01*
X327054Y689332D01*
X327050Y689327D01*
X327044Y689324D01*
X326994Y689270D01*
X325594Y687200D01*
X325585Y687173D01*
X325568Y687151D01*
X325564Y687108D01*
X325551Y687067D01*
X325558Y687040D01*
X325555Y687012D01*
X325575Y686973D01*
X325587Y686931D01*
X325607Y686913D01*
X325620Y686888D01*
X325679Y686842D01*
X327040Y686082D01*
X327051Y686080D01*
X327087Y686062D01*
X328574Y685593D01*
X328584Y685593D01*
X328623Y685583D01*
X330175Y685425D01*
X330185Y685427D01*
X330225Y685425D01*
X331777Y685583D01*
G37*
G36*
X946457Y685583D02*
X946457Y685583D01*
X946466Y685587D01*
X946506Y685593D01*
X947993Y686062D01*
X948002Y686068D01*
X948040Y686082D01*
X949401Y686842D01*
X949421Y686862D01*
X949446Y686874D01*
X949469Y686911D01*
X949500Y686942D01*
X949505Y686969D01*
X949520Y686993D01*
X949520Y687036D01*
X949529Y687079D01*
X949519Y687105D01*
X949518Y687133D01*
X949486Y687200D01*
X948086Y689270D01*
X948082Y689274D01*
X948079Y689280D01*
X948028Y689318D01*
X947979Y689359D01*
X947973Y689360D01*
X947968Y689363D01*
X947904Y689368D01*
X947840Y689376D01*
X947834Y689373D01*
X947828Y689374D01*
X947759Y689348D01*
X946852Y688842D01*
X945887Y688538D01*
X944880Y688435D01*
X943873Y688538D01*
X942908Y688842D01*
X942001Y689348D01*
X941995Y689349D01*
X941991Y689353D01*
X941928Y689365D01*
X941865Y689379D01*
X941859Y689377D01*
X941853Y689378D01*
X941794Y689353D01*
X941734Y689332D01*
X941730Y689327D01*
X941724Y689324D01*
X941674Y689270D01*
X940274Y687200D01*
X940265Y687173D01*
X940248Y687151D01*
X940244Y687108D01*
X940231Y687067D01*
X940238Y687040D01*
X940235Y687012D01*
X940255Y686973D01*
X940267Y686931D01*
X940287Y686913D01*
X940300Y686888D01*
X940359Y686842D01*
X941720Y686082D01*
X941731Y686080D01*
X941767Y686062D01*
X943254Y685593D01*
X943264Y685593D01*
X943303Y685583D01*
X944855Y685425D01*
X944865Y685427D01*
X944905Y685425D01*
X946457Y685583D01*
G37*
G36*
X946457Y1211363D02*
X946457Y1211363D01*
X946466Y1211367D01*
X946506Y1211373D01*
X947993Y1211842D01*
X948002Y1211848D01*
X948040Y1211862D01*
X949401Y1212622D01*
X949421Y1212642D01*
X949446Y1212654D01*
X949469Y1212691D01*
X949500Y1212722D01*
X949505Y1212749D01*
X949520Y1212773D01*
X949520Y1212816D01*
X949529Y1212859D01*
X949519Y1212885D01*
X949518Y1212913D01*
X949486Y1212980D01*
X948086Y1215050D01*
X948082Y1215054D01*
X948079Y1215060D01*
X948028Y1215098D01*
X947979Y1215139D01*
X947973Y1215140D01*
X947968Y1215143D01*
X947904Y1215148D01*
X947840Y1215156D01*
X947834Y1215153D01*
X947828Y1215154D01*
X947759Y1215128D01*
X946852Y1214622D01*
X945887Y1214318D01*
X944880Y1214215D01*
X943873Y1214318D01*
X942908Y1214622D01*
X942001Y1215128D01*
X941995Y1215129D01*
X941991Y1215133D01*
X941928Y1215145D01*
X941865Y1215159D01*
X941859Y1215157D01*
X941853Y1215158D01*
X941794Y1215133D01*
X941734Y1215112D01*
X941730Y1215107D01*
X941724Y1215104D01*
X941674Y1215050D01*
X940274Y1212980D01*
X940265Y1212953D01*
X940248Y1212931D01*
X940244Y1212888D01*
X940231Y1212847D01*
X940238Y1212820D01*
X940235Y1212792D01*
X940255Y1212753D01*
X940267Y1212711D01*
X940287Y1212693D01*
X940300Y1212668D01*
X940359Y1212622D01*
X941720Y1211862D01*
X941731Y1211860D01*
X941767Y1211842D01*
X943254Y1211373D01*
X943264Y1211373D01*
X943303Y1211363D01*
X944855Y1211205D01*
X944865Y1211207D01*
X944905Y1211205D01*
X946457Y1211363D01*
G37*
G36*
X946457Y159803D02*
X946457Y159803D01*
X946466Y159807D01*
X946506Y159813D01*
X947993Y160282D01*
X948002Y160288D01*
X948040Y160302D01*
X949401Y161062D01*
X949421Y161082D01*
X949446Y161094D01*
X949469Y161131D01*
X949500Y161162D01*
X949505Y161189D01*
X949520Y161213D01*
X949520Y161256D01*
X949529Y161299D01*
X949519Y161325D01*
X949518Y161353D01*
X949486Y161420D01*
X948086Y163490D01*
X948082Y163494D01*
X948079Y163500D01*
X948028Y163538D01*
X947979Y163579D01*
X947973Y163580D01*
X947968Y163583D01*
X947904Y163588D01*
X947840Y163596D01*
X947834Y163593D01*
X947828Y163594D01*
X947759Y163568D01*
X946852Y163062D01*
X945887Y162758D01*
X944880Y162655D01*
X943873Y162758D01*
X942908Y163062D01*
X942001Y163568D01*
X941995Y163569D01*
X941991Y163573D01*
X941928Y163585D01*
X941865Y163599D01*
X941859Y163597D01*
X941853Y163598D01*
X941794Y163573D01*
X941734Y163552D01*
X941730Y163547D01*
X941724Y163544D01*
X941674Y163490D01*
X940274Y161420D01*
X940265Y161393D01*
X940248Y161371D01*
X940244Y161328D01*
X940231Y161287D01*
X940238Y161260D01*
X940235Y161232D01*
X940255Y161193D01*
X940267Y161151D01*
X940287Y161133D01*
X940300Y161108D01*
X940359Y161062D01*
X941720Y160302D01*
X941731Y160300D01*
X941767Y160282D01*
X943254Y159813D01*
X943264Y159813D01*
X943303Y159803D01*
X944855Y159645D01*
X944865Y159647D01*
X944905Y159645D01*
X946457Y159803D01*
G37*
G36*
X331777Y159803D02*
X331777Y159803D01*
X331786Y159807D01*
X331826Y159813D01*
X333313Y160282D01*
X333322Y160288D01*
X333360Y160302D01*
X334721Y161062D01*
X334741Y161082D01*
X334766Y161094D01*
X334789Y161131D01*
X334820Y161162D01*
X334825Y161189D01*
X334840Y161213D01*
X334840Y161256D01*
X334849Y161299D01*
X334839Y161325D01*
X334838Y161353D01*
X334806Y161420D01*
X333406Y163490D01*
X333402Y163494D01*
X333399Y163500D01*
X333348Y163538D01*
X333299Y163579D01*
X333293Y163580D01*
X333288Y163583D01*
X333224Y163588D01*
X333160Y163596D01*
X333154Y163593D01*
X333148Y163594D01*
X333079Y163568D01*
X332172Y163062D01*
X331207Y162758D01*
X330200Y162655D01*
X329193Y162758D01*
X328228Y163062D01*
X327321Y163568D01*
X327315Y163569D01*
X327311Y163573D01*
X327248Y163585D01*
X327185Y163599D01*
X327179Y163597D01*
X327173Y163598D01*
X327114Y163573D01*
X327054Y163552D01*
X327050Y163547D01*
X327044Y163544D01*
X326994Y163490D01*
X325594Y161420D01*
X325585Y161393D01*
X325568Y161371D01*
X325564Y161328D01*
X325551Y161287D01*
X325558Y161260D01*
X325555Y161232D01*
X325575Y161193D01*
X325587Y161151D01*
X325607Y161133D01*
X325620Y161108D01*
X325679Y161062D01*
X327040Y160302D01*
X327051Y160300D01*
X327087Y160282D01*
X328574Y159813D01*
X328584Y159813D01*
X328623Y159803D01*
X330175Y159645D01*
X330185Y159647D01*
X330225Y159645D01*
X331777Y159803D01*
G37*
G36*
X331777Y1211363D02*
X331777Y1211363D01*
X331786Y1211367D01*
X331826Y1211373D01*
X333313Y1211842D01*
X333322Y1211848D01*
X333360Y1211862D01*
X334721Y1212622D01*
X334741Y1212642D01*
X334766Y1212654D01*
X334789Y1212691D01*
X334820Y1212722D01*
X334825Y1212749D01*
X334840Y1212773D01*
X334840Y1212816D01*
X334849Y1212859D01*
X334839Y1212885D01*
X334838Y1212913D01*
X334806Y1212980D01*
X333406Y1215050D01*
X333402Y1215054D01*
X333399Y1215060D01*
X333348Y1215098D01*
X333299Y1215139D01*
X333293Y1215140D01*
X333288Y1215143D01*
X333224Y1215148D01*
X333160Y1215156D01*
X333154Y1215153D01*
X333148Y1215154D01*
X333079Y1215128D01*
X332172Y1214622D01*
X331207Y1214318D01*
X330200Y1214215D01*
X329193Y1214318D01*
X328228Y1214622D01*
X327321Y1215128D01*
X327315Y1215129D01*
X327311Y1215133D01*
X327248Y1215145D01*
X327185Y1215159D01*
X327179Y1215157D01*
X327173Y1215158D01*
X327114Y1215133D01*
X327054Y1215112D01*
X327050Y1215107D01*
X327044Y1215104D01*
X326994Y1215050D01*
X325594Y1212980D01*
X325585Y1212953D01*
X325568Y1212931D01*
X325564Y1212888D01*
X325551Y1212847D01*
X325558Y1212820D01*
X325555Y1212792D01*
X325575Y1212753D01*
X325587Y1212711D01*
X325607Y1212693D01*
X325620Y1212668D01*
X325679Y1212622D01*
X327040Y1211862D01*
X327051Y1211860D01*
X327087Y1211842D01*
X328574Y1211373D01*
X328584Y1211373D01*
X328623Y1211363D01*
X330175Y1211205D01*
X330185Y1211207D01*
X330225Y1211205D01*
X331777Y1211363D01*
G37*
G36*
X938405Y163161D02*
X938405Y163161D01*
X938433Y163162D01*
X938500Y163194D01*
X940570Y164594D01*
X940574Y164598D01*
X940580Y164601D01*
X940618Y164652D01*
X940659Y164701D01*
X940660Y164707D01*
X940663Y164712D01*
X940668Y164776D01*
X940676Y164840D01*
X940673Y164846D01*
X940674Y164852D01*
X940648Y164921D01*
X940142Y165828D01*
X939838Y166793D01*
X939735Y167800D01*
X939838Y168807D01*
X940142Y169772D01*
X940648Y170679D01*
X940649Y170685D01*
X940653Y170689D01*
X940665Y170752D01*
X940679Y170815D01*
X940677Y170821D01*
X940678Y170827D01*
X940653Y170886D01*
X940632Y170946D01*
X940627Y170950D01*
X940624Y170956D01*
X940570Y171006D01*
X938500Y172406D01*
X938473Y172415D01*
X938451Y172432D01*
X938408Y172436D01*
X938367Y172449D01*
X938340Y172442D01*
X938312Y172445D01*
X938273Y172425D01*
X938231Y172414D01*
X938213Y172393D01*
X938188Y172380D01*
X938142Y172321D01*
X937382Y170960D01*
X937380Y170949D01*
X937362Y170913D01*
X936893Y169426D01*
X936893Y169416D01*
X936883Y169377D01*
X936725Y167825D01*
X936727Y167815D01*
X936725Y167775D01*
X936883Y166223D01*
X936887Y166214D01*
X936893Y166174D01*
X937362Y164687D01*
X937368Y164678D01*
X937382Y164640D01*
X938142Y163279D01*
X938162Y163259D01*
X938174Y163234D01*
X938211Y163211D01*
X938242Y163180D01*
X938269Y163175D01*
X938293Y163160D01*
X938336Y163160D01*
X938379Y163151D01*
X938405Y163161D01*
G37*
G36*
X323725Y163161D02*
X323725Y163161D01*
X323753Y163162D01*
X323820Y163194D01*
X325890Y164594D01*
X325894Y164598D01*
X325900Y164601D01*
X325938Y164652D01*
X325979Y164701D01*
X325980Y164707D01*
X325983Y164712D01*
X325988Y164776D01*
X325996Y164840D01*
X325993Y164846D01*
X325994Y164852D01*
X325968Y164921D01*
X325462Y165828D01*
X325158Y166793D01*
X325055Y167800D01*
X325158Y168807D01*
X325462Y169772D01*
X325968Y170679D01*
X325969Y170685D01*
X325973Y170689D01*
X325985Y170752D01*
X325999Y170815D01*
X325997Y170821D01*
X325998Y170827D01*
X325973Y170886D01*
X325952Y170946D01*
X325947Y170950D01*
X325944Y170956D01*
X325890Y171006D01*
X323820Y172406D01*
X323793Y172415D01*
X323771Y172432D01*
X323728Y172436D01*
X323687Y172449D01*
X323660Y172442D01*
X323632Y172445D01*
X323593Y172425D01*
X323551Y172414D01*
X323533Y172393D01*
X323508Y172380D01*
X323462Y172321D01*
X322702Y170960D01*
X322700Y170949D01*
X322682Y170913D01*
X322213Y169426D01*
X322213Y169416D01*
X322203Y169377D01*
X322045Y167825D01*
X322047Y167815D01*
X322045Y167775D01*
X322203Y166223D01*
X322207Y166214D01*
X322213Y166174D01*
X322682Y164687D01*
X322688Y164678D01*
X322702Y164640D01*
X323462Y163279D01*
X323482Y163259D01*
X323494Y163234D01*
X323531Y163211D01*
X323562Y163180D01*
X323589Y163175D01*
X323613Y163160D01*
X323656Y163160D01*
X323699Y163151D01*
X323725Y163161D01*
G37*
G36*
X951420Y163158D02*
X951420Y163158D01*
X951448Y163155D01*
X951487Y163175D01*
X951529Y163187D01*
X951547Y163207D01*
X951572Y163220D01*
X951618Y163279D01*
X952378Y164640D01*
X952380Y164651D01*
X952398Y164687D01*
X952867Y166174D01*
X952867Y166184D01*
X952877Y166223D01*
X953035Y167775D01*
X953033Y167785D01*
X953035Y167825D01*
X952877Y169377D01*
X952873Y169386D01*
X952867Y169426D01*
X952398Y170913D01*
X952392Y170922D01*
X952378Y170960D01*
X951618Y172321D01*
X951598Y172341D01*
X951586Y172366D01*
X951549Y172389D01*
X951518Y172420D01*
X951491Y172425D01*
X951467Y172440D01*
X951424Y172440D01*
X951381Y172449D01*
X951355Y172439D01*
X951327Y172438D01*
X951260Y172406D01*
X949190Y171006D01*
X949186Y171002D01*
X949180Y170999D01*
X949142Y170948D01*
X949101Y170899D01*
X949100Y170893D01*
X949097Y170888D01*
X949092Y170824D01*
X949084Y170760D01*
X949087Y170754D01*
X949086Y170748D01*
X949112Y170679D01*
X949618Y169772D01*
X949922Y168807D01*
X950025Y167800D01*
X949922Y166793D01*
X949618Y165828D01*
X949112Y164921D01*
X949111Y164915D01*
X949107Y164911D01*
X949095Y164848D01*
X949081Y164785D01*
X949083Y164779D01*
X949082Y164773D01*
X949107Y164714D01*
X949128Y164654D01*
X949133Y164650D01*
X949136Y164644D01*
X949190Y164594D01*
X951260Y163194D01*
X951287Y163185D01*
X951309Y163168D01*
X951352Y163164D01*
X951393Y163151D01*
X951420Y163158D01*
G37*
G36*
X336740Y163158D02*
X336740Y163158D01*
X336768Y163155D01*
X336807Y163175D01*
X336849Y163187D01*
X336867Y163207D01*
X336892Y163220D01*
X336938Y163279D01*
X337698Y164640D01*
X337700Y164651D01*
X337718Y164687D01*
X338187Y166174D01*
X338187Y166184D01*
X338197Y166223D01*
X338355Y167775D01*
X338353Y167785D01*
X338355Y167825D01*
X338197Y169377D01*
X338193Y169386D01*
X338187Y169426D01*
X337718Y170913D01*
X337712Y170922D01*
X337698Y170960D01*
X336938Y172321D01*
X336918Y172341D01*
X336906Y172366D01*
X336869Y172389D01*
X336838Y172420D01*
X336811Y172425D01*
X336787Y172440D01*
X336744Y172440D01*
X336701Y172449D01*
X336675Y172439D01*
X336647Y172438D01*
X336580Y172406D01*
X334510Y171006D01*
X334506Y171002D01*
X334500Y170999D01*
X334462Y170948D01*
X334421Y170899D01*
X334420Y170893D01*
X334417Y170888D01*
X334412Y170824D01*
X334404Y170760D01*
X334407Y170754D01*
X334406Y170748D01*
X334432Y170679D01*
X334938Y169772D01*
X335242Y168807D01*
X335345Y167800D01*
X335242Y166793D01*
X334938Y165828D01*
X334432Y164921D01*
X334431Y164915D01*
X334427Y164911D01*
X334415Y164848D01*
X334401Y164785D01*
X334403Y164779D01*
X334402Y164773D01*
X334427Y164714D01*
X334448Y164654D01*
X334453Y164650D01*
X334456Y164644D01*
X334510Y164594D01*
X336580Y163194D01*
X336607Y163185D01*
X336629Y163168D01*
X336672Y163164D01*
X336713Y163151D01*
X336740Y163158D01*
G37*
G36*
X938405Y1214721D02*
X938405Y1214721D01*
X938433Y1214722D01*
X938500Y1214754D01*
X940570Y1216154D01*
X940574Y1216158D01*
X940580Y1216161D01*
X940618Y1216212D01*
X940659Y1216261D01*
X940660Y1216267D01*
X940663Y1216272D01*
X940668Y1216336D01*
X940676Y1216400D01*
X940673Y1216406D01*
X940674Y1216412D01*
X940648Y1216481D01*
X940142Y1217388D01*
X939838Y1218353D01*
X939735Y1219360D01*
X939838Y1220367D01*
X940142Y1221332D01*
X940648Y1222239D01*
X940649Y1222245D01*
X940653Y1222249D01*
X940665Y1222312D01*
X940679Y1222375D01*
X940677Y1222381D01*
X940678Y1222387D01*
X940653Y1222446D01*
X940632Y1222506D01*
X940627Y1222510D01*
X940624Y1222516D01*
X940570Y1222566D01*
X938500Y1223966D01*
X938473Y1223975D01*
X938451Y1223992D01*
X938408Y1223996D01*
X938367Y1224009D01*
X938340Y1224002D01*
X938312Y1224005D01*
X938273Y1223985D01*
X938231Y1223974D01*
X938213Y1223953D01*
X938188Y1223940D01*
X938142Y1223881D01*
X937382Y1222520D01*
X937380Y1222509D01*
X937362Y1222473D01*
X936893Y1220986D01*
X936893Y1220976D01*
X936883Y1220937D01*
X936725Y1219385D01*
X936727Y1219375D01*
X936725Y1219335D01*
X936883Y1217783D01*
X936887Y1217774D01*
X936893Y1217734D01*
X937362Y1216247D01*
X937368Y1216238D01*
X937382Y1216200D01*
X938142Y1214839D01*
X938162Y1214819D01*
X938174Y1214794D01*
X938211Y1214771D01*
X938242Y1214740D01*
X938269Y1214735D01*
X938293Y1214720D01*
X938336Y1214720D01*
X938379Y1214711D01*
X938405Y1214721D01*
G37*
G36*
X951420Y1214718D02*
X951420Y1214718D01*
X951448Y1214715D01*
X951487Y1214735D01*
X951529Y1214747D01*
X951547Y1214767D01*
X951572Y1214780D01*
X951618Y1214839D01*
X952378Y1216200D01*
X952380Y1216211D01*
X952398Y1216247D01*
X952867Y1217734D01*
X952867Y1217744D01*
X952877Y1217783D01*
X953035Y1219335D01*
X953033Y1219345D01*
X953035Y1219385D01*
X952877Y1220937D01*
X952873Y1220946D01*
X952867Y1220986D01*
X952398Y1222473D01*
X952392Y1222482D01*
X952378Y1222520D01*
X951618Y1223881D01*
X951598Y1223901D01*
X951586Y1223926D01*
X951549Y1223949D01*
X951518Y1223980D01*
X951491Y1223985D01*
X951467Y1224000D01*
X951424Y1224000D01*
X951381Y1224009D01*
X951355Y1223999D01*
X951327Y1223998D01*
X951260Y1223966D01*
X949190Y1222566D01*
X949186Y1222562D01*
X949180Y1222559D01*
X949142Y1222508D01*
X949101Y1222459D01*
X949100Y1222453D01*
X949097Y1222448D01*
X949092Y1222384D01*
X949084Y1222320D01*
X949087Y1222314D01*
X949086Y1222308D01*
X949112Y1222239D01*
X949618Y1221332D01*
X949922Y1220367D01*
X950025Y1219360D01*
X949922Y1218353D01*
X949618Y1217388D01*
X949112Y1216481D01*
X949111Y1216475D01*
X949107Y1216471D01*
X949095Y1216408D01*
X949081Y1216345D01*
X949083Y1216339D01*
X949082Y1216333D01*
X949107Y1216274D01*
X949128Y1216214D01*
X949133Y1216210D01*
X949136Y1216204D01*
X949190Y1216154D01*
X951260Y1214754D01*
X951287Y1214745D01*
X951309Y1214728D01*
X951352Y1214724D01*
X951393Y1214711D01*
X951420Y1214718D01*
G37*
G36*
X336740Y1214718D02*
X336740Y1214718D01*
X336768Y1214715D01*
X336807Y1214735D01*
X336849Y1214747D01*
X336867Y1214767D01*
X336892Y1214780D01*
X336938Y1214839D01*
X337698Y1216200D01*
X337700Y1216211D01*
X337718Y1216247D01*
X338187Y1217734D01*
X338187Y1217744D01*
X338197Y1217783D01*
X338355Y1219335D01*
X338353Y1219345D01*
X338355Y1219385D01*
X338197Y1220937D01*
X338193Y1220946D01*
X338187Y1220986D01*
X337718Y1222473D01*
X337712Y1222482D01*
X337698Y1222520D01*
X336938Y1223881D01*
X336918Y1223901D01*
X336906Y1223926D01*
X336869Y1223949D01*
X336838Y1223980D01*
X336811Y1223985D01*
X336787Y1224000D01*
X336744Y1224000D01*
X336701Y1224009D01*
X336675Y1223999D01*
X336647Y1223998D01*
X336580Y1223966D01*
X334510Y1222566D01*
X334506Y1222562D01*
X334500Y1222559D01*
X334462Y1222508D01*
X334421Y1222459D01*
X334420Y1222453D01*
X334417Y1222448D01*
X334412Y1222384D01*
X334404Y1222320D01*
X334407Y1222314D01*
X334406Y1222308D01*
X334432Y1222239D01*
X334938Y1221332D01*
X335242Y1220367D01*
X335345Y1219360D01*
X335242Y1218353D01*
X334938Y1217388D01*
X334432Y1216481D01*
X334431Y1216475D01*
X334427Y1216471D01*
X334415Y1216408D01*
X334401Y1216345D01*
X334403Y1216339D01*
X334402Y1216333D01*
X334427Y1216274D01*
X334448Y1216214D01*
X334453Y1216210D01*
X334456Y1216204D01*
X334510Y1216154D01*
X336580Y1214754D01*
X336607Y1214745D01*
X336629Y1214728D01*
X336672Y1214724D01*
X336713Y1214711D01*
X336740Y1214718D01*
G37*
G36*
X951420Y688938D02*
X951420Y688938D01*
X951448Y688935D01*
X951487Y688955D01*
X951529Y688967D01*
X951547Y688987D01*
X951572Y689000D01*
X951618Y689059D01*
X952378Y690420D01*
X952380Y690431D01*
X952398Y690467D01*
X952867Y691954D01*
X952867Y691964D01*
X952877Y692003D01*
X953035Y693555D01*
X953033Y693565D01*
X953035Y693605D01*
X952877Y695157D01*
X952873Y695166D01*
X952867Y695206D01*
X952398Y696693D01*
X952392Y696702D01*
X952378Y696740D01*
X951618Y698101D01*
X951598Y698121D01*
X951586Y698146D01*
X951549Y698169D01*
X951518Y698200D01*
X951491Y698205D01*
X951467Y698220D01*
X951424Y698220D01*
X951381Y698229D01*
X951355Y698219D01*
X951327Y698218D01*
X951260Y698186D01*
X949190Y696786D01*
X949186Y696782D01*
X949180Y696779D01*
X949142Y696728D01*
X949101Y696679D01*
X949100Y696673D01*
X949097Y696668D01*
X949092Y696604D01*
X949084Y696540D01*
X949087Y696534D01*
X949086Y696528D01*
X949112Y696459D01*
X949618Y695552D01*
X949922Y694587D01*
X950025Y693580D01*
X949922Y692573D01*
X949618Y691608D01*
X949112Y690701D01*
X949111Y690695D01*
X949107Y690691D01*
X949095Y690628D01*
X949081Y690565D01*
X949083Y690559D01*
X949082Y690553D01*
X949107Y690494D01*
X949128Y690434D01*
X949133Y690430D01*
X949136Y690424D01*
X949190Y690374D01*
X951260Y688974D01*
X951287Y688965D01*
X951309Y688948D01*
X951352Y688944D01*
X951393Y688931D01*
X951420Y688938D01*
G37*
G36*
X323725Y688941D02*
X323725Y688941D01*
X323753Y688942D01*
X323820Y688974D01*
X325890Y690374D01*
X325894Y690378D01*
X325900Y690381D01*
X325938Y690432D01*
X325979Y690481D01*
X325980Y690487D01*
X325983Y690492D01*
X325988Y690556D01*
X325996Y690620D01*
X325993Y690626D01*
X325994Y690632D01*
X325968Y690701D01*
X325462Y691608D01*
X325158Y692573D01*
X325055Y693580D01*
X325158Y694587D01*
X325462Y695552D01*
X325968Y696459D01*
X325969Y696465D01*
X325973Y696469D01*
X325985Y696532D01*
X325999Y696595D01*
X325997Y696601D01*
X325998Y696607D01*
X325973Y696666D01*
X325952Y696726D01*
X325947Y696730D01*
X325944Y696736D01*
X325890Y696786D01*
X323820Y698186D01*
X323793Y698195D01*
X323771Y698212D01*
X323728Y698216D01*
X323687Y698229D01*
X323660Y698222D01*
X323632Y698225D01*
X323593Y698205D01*
X323551Y698194D01*
X323533Y698173D01*
X323508Y698160D01*
X323462Y698101D01*
X322702Y696740D01*
X322700Y696729D01*
X322682Y696693D01*
X322213Y695206D01*
X322213Y695196D01*
X322203Y695157D01*
X322045Y693605D01*
X322047Y693595D01*
X322045Y693555D01*
X322203Y692003D01*
X322207Y691994D01*
X322213Y691954D01*
X322682Y690467D01*
X322688Y690458D01*
X322702Y690420D01*
X323462Y689059D01*
X323482Y689039D01*
X323494Y689014D01*
X323531Y688991D01*
X323562Y688960D01*
X323589Y688955D01*
X323613Y688940D01*
X323656Y688940D01*
X323699Y688931D01*
X323725Y688941D01*
G37*
G36*
X333221Y1223563D02*
X333221Y1223563D01*
X333227Y1223562D01*
X333286Y1223587D01*
X333346Y1223608D01*
X333350Y1223613D01*
X333356Y1223616D01*
X333406Y1223670D01*
X334806Y1225740D01*
X334815Y1225767D01*
X334832Y1225789D01*
X334836Y1225832D01*
X334849Y1225873D01*
X334842Y1225900D01*
X334845Y1225928D01*
X334825Y1225967D01*
X334814Y1226009D01*
X334793Y1226027D01*
X334780Y1226052D01*
X334721Y1226098D01*
X333360Y1226858D01*
X333349Y1226860D01*
X333313Y1226878D01*
X331826Y1227347D01*
X331816Y1227347D01*
X331777Y1227357D01*
X330225Y1227515D01*
X330215Y1227513D01*
X330175Y1227515D01*
X328623Y1227357D01*
X328614Y1227353D01*
X328574Y1227347D01*
X327087Y1226878D01*
X327078Y1226872D01*
X327040Y1226858D01*
X325679Y1226098D01*
X325659Y1226078D01*
X325634Y1226066D01*
X325611Y1226029D01*
X325580Y1225998D01*
X325575Y1225971D01*
X325560Y1225947D01*
X325560Y1225904D01*
X325551Y1225861D01*
X325561Y1225835D01*
X325562Y1225807D01*
X325594Y1225740D01*
X326994Y1223670D01*
X326998Y1223666D01*
X327001Y1223660D01*
X327052Y1223622D01*
X327101Y1223581D01*
X327107Y1223580D01*
X327112Y1223577D01*
X327176Y1223572D01*
X327240Y1223564D01*
X327246Y1223567D01*
X327252Y1223566D01*
X327321Y1223592D01*
X328228Y1224098D01*
X329193Y1224402D01*
X330200Y1224505D01*
X331207Y1224402D01*
X332172Y1224098D01*
X333079Y1223592D01*
X333085Y1223591D01*
X333089Y1223587D01*
X333152Y1223575D01*
X333215Y1223561D01*
X333221Y1223563D01*
G37*
G36*
X947901Y697783D02*
X947901Y697783D01*
X947907Y697782D01*
X947966Y697807D01*
X948026Y697828D01*
X948030Y697833D01*
X948036Y697836D01*
X948086Y697890D01*
X949486Y699960D01*
X949495Y699987D01*
X949512Y700009D01*
X949516Y700052D01*
X949529Y700093D01*
X949522Y700120D01*
X949525Y700148D01*
X949505Y700187D01*
X949494Y700229D01*
X949473Y700247D01*
X949460Y700272D01*
X949401Y700318D01*
X948040Y701078D01*
X948029Y701080D01*
X947993Y701098D01*
X946506Y701567D01*
X946496Y701567D01*
X946457Y701577D01*
X944905Y701735D01*
X944895Y701733D01*
X944855Y701735D01*
X943303Y701577D01*
X943294Y701573D01*
X943254Y701567D01*
X941767Y701098D01*
X941758Y701092D01*
X941720Y701078D01*
X940359Y700318D01*
X940339Y700298D01*
X940314Y700286D01*
X940291Y700249D01*
X940260Y700218D01*
X940255Y700191D01*
X940240Y700167D01*
X940240Y700124D01*
X940231Y700081D01*
X940241Y700055D01*
X940242Y700027D01*
X940274Y699960D01*
X941674Y697890D01*
X941678Y697886D01*
X941681Y697880D01*
X941732Y697842D01*
X941781Y697801D01*
X941787Y697800D01*
X941792Y697797D01*
X941856Y697792D01*
X941920Y697784D01*
X941926Y697787D01*
X941932Y697786D01*
X942001Y697812D01*
X942908Y698318D01*
X943873Y698622D01*
X944880Y698725D01*
X945887Y698622D01*
X946852Y698318D01*
X947759Y697812D01*
X947765Y697811D01*
X947769Y697807D01*
X947832Y697795D01*
X947895Y697781D01*
X947901Y697783D01*
G37*
G36*
X333221Y697783D02*
X333221Y697783D01*
X333227Y697782D01*
X333286Y697807D01*
X333346Y697828D01*
X333350Y697833D01*
X333356Y697836D01*
X333406Y697890D01*
X334806Y699960D01*
X334815Y699987D01*
X334832Y700009D01*
X334836Y700052D01*
X334849Y700093D01*
X334842Y700120D01*
X334845Y700148D01*
X334825Y700187D01*
X334814Y700229D01*
X334793Y700247D01*
X334780Y700272D01*
X334721Y700318D01*
X333360Y701078D01*
X333349Y701080D01*
X333313Y701098D01*
X331826Y701567D01*
X331816Y701567D01*
X331777Y701577D01*
X330225Y701735D01*
X330215Y701733D01*
X330175Y701735D01*
X328623Y701577D01*
X328614Y701573D01*
X328574Y701567D01*
X327087Y701098D01*
X327078Y701092D01*
X327040Y701078D01*
X325679Y700318D01*
X325659Y700298D01*
X325634Y700286D01*
X325611Y700249D01*
X325580Y700218D01*
X325575Y700191D01*
X325560Y700167D01*
X325560Y700124D01*
X325551Y700081D01*
X325561Y700055D01*
X325562Y700027D01*
X325594Y699960D01*
X326994Y697890D01*
X326998Y697886D01*
X327001Y697880D01*
X327052Y697842D01*
X327101Y697801D01*
X327107Y697800D01*
X327112Y697797D01*
X327176Y697792D01*
X327240Y697784D01*
X327246Y697787D01*
X327252Y697786D01*
X327321Y697812D01*
X328228Y698318D01*
X329193Y698622D01*
X330200Y698725D01*
X331207Y698622D01*
X332172Y698318D01*
X333079Y697812D01*
X333085Y697811D01*
X333089Y697807D01*
X333152Y697795D01*
X333215Y697781D01*
X333221Y697783D01*
G37*
G36*
X323725Y1214721D02*
X323725Y1214721D01*
X323753Y1214722D01*
X323820Y1214754D01*
X325890Y1216154D01*
X325894Y1216158D01*
X325900Y1216161D01*
X325938Y1216212D01*
X325979Y1216261D01*
X325980Y1216267D01*
X325983Y1216272D01*
X325988Y1216336D01*
X325996Y1216400D01*
X325993Y1216406D01*
X325994Y1216412D01*
X325968Y1216481D01*
X325462Y1217388D01*
X325158Y1218353D01*
X325055Y1219360D01*
X325158Y1220367D01*
X325462Y1221332D01*
X325968Y1222239D01*
X325969Y1222245D01*
X325973Y1222249D01*
X325985Y1222312D01*
X325999Y1222375D01*
X325997Y1222381D01*
X325998Y1222387D01*
X325973Y1222446D01*
X325952Y1222506D01*
X325947Y1222510D01*
X325944Y1222516D01*
X325890Y1222566D01*
X323820Y1223966D01*
X323793Y1223975D01*
X323771Y1223992D01*
X323728Y1223996D01*
X323687Y1224009D01*
X323660Y1224002D01*
X323632Y1224005D01*
X323593Y1223985D01*
X323551Y1223974D01*
X323533Y1223953D01*
X323508Y1223940D01*
X323462Y1223881D01*
X322702Y1222520D01*
X322700Y1222509D01*
X322682Y1222473D01*
X322213Y1220986D01*
X322213Y1220976D01*
X322203Y1220937D01*
X322045Y1219385D01*
X322047Y1219375D01*
X322045Y1219335D01*
X322203Y1217783D01*
X322207Y1217774D01*
X322213Y1217734D01*
X322682Y1216247D01*
X322688Y1216238D01*
X322702Y1216200D01*
X323462Y1214839D01*
X323482Y1214819D01*
X323494Y1214794D01*
X323531Y1214771D01*
X323562Y1214740D01*
X323589Y1214735D01*
X323613Y1214720D01*
X323656Y1214720D01*
X323699Y1214711D01*
X323725Y1214721D01*
G37*
G36*
X938405Y688941D02*
X938405Y688941D01*
X938433Y688942D01*
X938500Y688974D01*
X940570Y690374D01*
X940574Y690378D01*
X940580Y690381D01*
X940618Y690432D01*
X940659Y690481D01*
X940660Y690487D01*
X940663Y690492D01*
X940668Y690556D01*
X940676Y690620D01*
X940673Y690626D01*
X940674Y690632D01*
X940648Y690701D01*
X940142Y691608D01*
X939838Y692573D01*
X939735Y693580D01*
X939838Y694587D01*
X940142Y695552D01*
X940648Y696459D01*
X940649Y696465D01*
X940653Y696469D01*
X940665Y696532D01*
X940679Y696595D01*
X940677Y696601D01*
X940678Y696607D01*
X940653Y696666D01*
X940632Y696726D01*
X940627Y696730D01*
X940624Y696736D01*
X940570Y696786D01*
X938500Y698186D01*
X938473Y698195D01*
X938451Y698212D01*
X938408Y698216D01*
X938367Y698229D01*
X938340Y698222D01*
X938312Y698225D01*
X938273Y698205D01*
X938231Y698194D01*
X938213Y698173D01*
X938188Y698160D01*
X938142Y698101D01*
X937382Y696740D01*
X937380Y696729D01*
X937362Y696693D01*
X936893Y695206D01*
X936893Y695196D01*
X936883Y695157D01*
X936725Y693605D01*
X936727Y693595D01*
X936725Y693555D01*
X936883Y692003D01*
X936887Y691994D01*
X936893Y691954D01*
X937362Y690467D01*
X937368Y690458D01*
X937382Y690420D01*
X938142Y689059D01*
X938162Y689039D01*
X938174Y689014D01*
X938211Y688991D01*
X938242Y688960D01*
X938269Y688955D01*
X938293Y688940D01*
X938336Y688940D01*
X938379Y688931D01*
X938405Y688941D01*
G37*
G36*
X333221Y172003D02*
X333221Y172003D01*
X333227Y172002D01*
X333286Y172027D01*
X333346Y172048D01*
X333350Y172053D01*
X333356Y172056D01*
X333406Y172110D01*
X334806Y174180D01*
X334815Y174207D01*
X334832Y174229D01*
X334836Y174272D01*
X334849Y174313D01*
X334842Y174340D01*
X334845Y174368D01*
X334825Y174407D01*
X334814Y174449D01*
X334793Y174467D01*
X334780Y174492D01*
X334721Y174538D01*
X333360Y175298D01*
X333349Y175300D01*
X333313Y175318D01*
X331826Y175787D01*
X331816Y175787D01*
X331777Y175797D01*
X330225Y175955D01*
X330215Y175953D01*
X330175Y175955D01*
X328623Y175797D01*
X328614Y175793D01*
X328574Y175787D01*
X327087Y175318D01*
X327078Y175312D01*
X327040Y175298D01*
X325679Y174538D01*
X325659Y174518D01*
X325634Y174506D01*
X325611Y174469D01*
X325580Y174438D01*
X325575Y174411D01*
X325560Y174387D01*
X325560Y174344D01*
X325551Y174301D01*
X325561Y174275D01*
X325562Y174247D01*
X325594Y174180D01*
X326994Y172110D01*
X326998Y172106D01*
X327001Y172100D01*
X327052Y172062D01*
X327101Y172021D01*
X327107Y172020D01*
X327112Y172017D01*
X327176Y172012D01*
X327240Y172004D01*
X327246Y172007D01*
X327252Y172006D01*
X327321Y172032D01*
X328228Y172538D01*
X329193Y172842D01*
X330200Y172945D01*
X331207Y172842D01*
X332172Y172538D01*
X333079Y172032D01*
X333085Y172031D01*
X333089Y172027D01*
X333152Y172015D01*
X333215Y172001D01*
X333221Y172003D01*
G37*
G36*
X947901Y1223563D02*
X947901Y1223563D01*
X947907Y1223562D01*
X947966Y1223587D01*
X948026Y1223608D01*
X948030Y1223613D01*
X948036Y1223616D01*
X948086Y1223670D01*
X949486Y1225740D01*
X949495Y1225767D01*
X949512Y1225789D01*
X949516Y1225832D01*
X949529Y1225873D01*
X949522Y1225900D01*
X949525Y1225928D01*
X949505Y1225967D01*
X949494Y1226009D01*
X949473Y1226027D01*
X949460Y1226052D01*
X949401Y1226098D01*
X948040Y1226858D01*
X948029Y1226860D01*
X947993Y1226878D01*
X946506Y1227347D01*
X946496Y1227347D01*
X946457Y1227357D01*
X944905Y1227515D01*
X944895Y1227513D01*
X944855Y1227515D01*
X943303Y1227357D01*
X943294Y1227353D01*
X943254Y1227347D01*
X941767Y1226878D01*
X941758Y1226872D01*
X941720Y1226858D01*
X940359Y1226098D01*
X940339Y1226078D01*
X940314Y1226066D01*
X940291Y1226029D01*
X940260Y1225998D01*
X940255Y1225971D01*
X940240Y1225947D01*
X940240Y1225904D01*
X940231Y1225861D01*
X940241Y1225835D01*
X940242Y1225807D01*
X940274Y1225740D01*
X941674Y1223670D01*
X941678Y1223666D01*
X941681Y1223660D01*
X941732Y1223622D01*
X941781Y1223581D01*
X941787Y1223580D01*
X941792Y1223577D01*
X941856Y1223572D01*
X941920Y1223564D01*
X941926Y1223567D01*
X941932Y1223566D01*
X942001Y1223592D01*
X942908Y1224098D01*
X943873Y1224402D01*
X944880Y1224505D01*
X945887Y1224402D01*
X946852Y1224098D01*
X947759Y1223592D01*
X947765Y1223591D01*
X947769Y1223587D01*
X947832Y1223575D01*
X947895Y1223561D01*
X947901Y1223563D01*
G37*
G36*
X336740Y688938D02*
X336740Y688938D01*
X336768Y688935D01*
X336807Y688955D01*
X336849Y688967D01*
X336867Y688987D01*
X336892Y689000D01*
X336938Y689059D01*
X337698Y690420D01*
X337700Y690431D01*
X337718Y690467D01*
X338187Y691954D01*
X338187Y691964D01*
X338197Y692003D01*
X338355Y693555D01*
X338353Y693565D01*
X338355Y693605D01*
X338197Y695157D01*
X338193Y695166D01*
X338187Y695206D01*
X337718Y696693D01*
X337712Y696702D01*
X337698Y696740D01*
X336938Y698101D01*
X336918Y698121D01*
X336906Y698146D01*
X336869Y698169D01*
X336838Y698200D01*
X336811Y698205D01*
X336787Y698220D01*
X336744Y698220D01*
X336701Y698229D01*
X336675Y698219D01*
X336647Y698218D01*
X336580Y698186D01*
X334510Y696786D01*
X334506Y696782D01*
X334500Y696779D01*
X334462Y696728D01*
X334421Y696679D01*
X334420Y696673D01*
X334417Y696668D01*
X334412Y696604D01*
X334404Y696540D01*
X334407Y696534D01*
X334406Y696528D01*
X334432Y696459D01*
X334938Y695552D01*
X335242Y694587D01*
X335345Y693580D01*
X335242Y692573D01*
X334938Y691608D01*
X334432Y690701D01*
X334431Y690695D01*
X334427Y690691D01*
X334415Y690628D01*
X334401Y690565D01*
X334403Y690559D01*
X334402Y690553D01*
X334427Y690494D01*
X334448Y690434D01*
X334453Y690430D01*
X334456Y690424D01*
X334510Y690374D01*
X336580Y688974D01*
X336607Y688965D01*
X336629Y688948D01*
X336672Y688944D01*
X336713Y688931D01*
X336740Y688938D01*
G37*
G36*
X947901Y172003D02*
X947901Y172003D01*
X947907Y172002D01*
X947966Y172027D01*
X948026Y172048D01*
X948030Y172053D01*
X948036Y172056D01*
X948086Y172110D01*
X949486Y174180D01*
X949495Y174207D01*
X949512Y174229D01*
X949516Y174272D01*
X949529Y174313D01*
X949522Y174340D01*
X949525Y174368D01*
X949505Y174407D01*
X949494Y174449D01*
X949473Y174467D01*
X949460Y174492D01*
X949401Y174538D01*
X948040Y175298D01*
X948029Y175300D01*
X947993Y175318D01*
X946506Y175787D01*
X946496Y175787D01*
X946457Y175797D01*
X944905Y175955D01*
X944895Y175953D01*
X944855Y175955D01*
X943303Y175797D01*
X943294Y175793D01*
X943254Y175787D01*
X941767Y175318D01*
X941758Y175312D01*
X941720Y175298D01*
X940359Y174538D01*
X940339Y174518D01*
X940314Y174506D01*
X940291Y174469D01*
X940260Y174438D01*
X940255Y174411D01*
X940240Y174387D01*
X940240Y174344D01*
X940231Y174301D01*
X940241Y174275D01*
X940242Y174247D01*
X940274Y174180D01*
X941674Y172110D01*
X941678Y172106D01*
X941681Y172100D01*
X941732Y172062D01*
X941781Y172021D01*
X941787Y172020D01*
X941792Y172017D01*
X941856Y172012D01*
X941920Y172004D01*
X941926Y172007D01*
X941932Y172006D01*
X942001Y172032D01*
X942908Y172538D01*
X943873Y172842D01*
X944880Y172945D01*
X945887Y172842D01*
X946852Y172538D01*
X947759Y172032D01*
X947765Y172031D01*
X947769Y172027D01*
X947832Y172015D01*
X947895Y172001D01*
X947901Y172003D01*
G37*
D10*
X60100Y94100D03*
X60100Y99100D03*
D11*
X60100Y69350D03*
X60100Y77100D03*
D10*
X60100Y84100D03*
X60100Y89100D03*
X60100Y109100D03*
X60100Y104100D03*
D11*
X60100Y133850D03*
X60100Y126100D03*
D10*
X60100Y119100D03*
X60100Y114100D03*
D12*
X76200Y135500D03*
X76200Y118500D03*
X76200Y67700D03*
X76200Y84700D03*
D13*
X101600Y101600D03*
D14*
X91850Y87850D03*
X98350Y87850D03*
X104850Y87850D03*
X111350Y87850D03*
X111350Y115350D03*
X104850Y115350D03*
X98350Y115350D03*
X91850Y115350D03*
D15*
X93100Y139700D03*
X110100Y139700D03*
D16*
X340400Y106800D03*
X345400Y106800D03*
X345400Y121800D03*
X340400Y121800D03*
D17*
X335400Y121800D03*
X335400Y116800D03*
X335400Y106800D03*
X335400Y111800D03*
X350400Y106800D03*
X350400Y111800D03*
X350400Y116800D03*
X350400Y121800D03*
D12*
X368300Y122800D03*
X368300Y105800D03*
X383540Y122800D03*
X383540Y105800D03*
D18*
X339200Y180800D03*
X339200Y190800D03*
X321200Y190800D03*
X321200Y180800D03*
D19*
X330200Y161300D03*
D20*
X323700Y167800D03*
X336700Y167800D03*
D19*
X330200Y174300D03*
D12*
X393700Y156600D03*
X393700Y173600D03*
D21*
X286100Y476060D03*
X281100Y476060D03*
X276100Y476060D03*
X271100Y476060D03*
X266100Y476060D03*
X261100Y476060D03*
X256100Y476060D03*
X251100Y476060D03*
X246100Y476060D03*
X241100Y476060D03*
X236100Y476060D03*
X231100Y476060D03*
X226100Y476060D03*
X221100Y476060D03*
X216100Y476060D03*
X211100Y476060D03*
X206100Y476060D03*
X201100Y476060D03*
X196100Y476060D03*
X191100Y476060D03*
X186100Y476060D03*
X181100Y476060D03*
X176100Y476060D03*
X171100Y476060D03*
D22*
X296100Y490060D03*
X161100Y490060D03*
D12*
X330200Y427600D03*
X330200Y410600D03*
D23*
X145500Y285400D03*
D24*
X125800Y335280D03*
X102800Y335280D03*
D15*
X105800Y317500D03*
X122800Y317500D03*
D25*
X572690Y71060D03*
X572690Y127060D03*
D26*
X535940Y84060D03*
X535940Y94060D03*
X535940Y104060D03*
X535940Y114060D03*
D15*
X503800Y76200D03*
X486800Y76200D03*
X503800Y127000D03*
X486800Y127000D03*
D27*
X269240Y31750D03*
X213360Y31750D03*
X269240Y69850D03*
X213360Y69850D03*
D15*
X93100Y154940D03*
X110100Y154940D03*
D28*
X23100Y177800D03*
X53100Y177800D03*
D29*
X102900Y177800D03*
X74900Y177800D03*
D12*
X152400Y143900D03*
X152400Y160900D03*
X137160Y160900D03*
X137160Y143900D03*
D27*
X370840Y31750D03*
X314960Y31750D03*
X370840Y69850D03*
X314960Y69850D03*
D19*
X368300Y164200D03*
D20*
X361800Y170700D03*
X374800Y170700D03*
D19*
X368300Y177200D03*
D30*
X368300Y191390D03*
X377300Y191390D03*
X377300Y183140D03*
X359300Y191390D03*
X359300Y183140D03*
D31*
X405100Y346900D03*
X462100Y346900D03*
D32*
X478100Y478400D03*
X346600Y488400D03*
D33*
X393200Y449900D03*
X404200Y445900D03*
X415200Y449900D03*
X426200Y451900D03*
X437200Y449900D03*
X448200Y451900D03*
X459200Y449900D03*
X470200Y449900D03*
D34*
X92100Y469599D03*
X101600Y469599D03*
X111100Y469599D03*
X111100Y495601D03*
X92100Y495601D03*
D12*
X127000Y474100D03*
X127000Y491100D03*
X76200Y491100D03*
X76200Y474100D03*
X127000Y110100D03*
X127000Y93100D03*
D35*
X146050Y113100D03*
X146050Y90100D03*
D15*
X478400Y38100D03*
X461400Y38100D03*
D36*
X464630Y28900D02*
X464630Y21900D01*
X457630Y21900D01*
X457630Y28900D01*
X464630Y28900D01*
X464630Y24750D02*
X457630Y24750D01*
X457630Y27600D02*
X464630Y27600D01*
X482170Y28900D02*
X482170Y21900D01*
X475170Y21900D01*
X475170Y28900D01*
X482170Y28900D01*
X482170Y24750D02*
X475170Y24750D01*
X475170Y27600D02*
X482170Y27600D01*
D12*
X139700Y58810D03*
X139700Y75810D03*
X154940Y58810D03*
X154940Y75810D03*
X170180Y58810D03*
X170180Y75810D03*
D37*
X196300Y99700D03*
X196300Y306700D03*
D38*
X264050Y293200D03*
X264050Y283200D03*
X264050Y278200D03*
X264050Y288200D03*
X264050Y273200D03*
X264050Y263200D03*
X264050Y258200D03*
X264050Y268200D03*
X264050Y253200D03*
X264050Y243200D03*
X264050Y238200D03*
X264050Y248200D03*
X264050Y233200D03*
X264050Y223200D03*
X264050Y218200D03*
X264050Y228200D03*
X264050Y213200D03*
X264050Y203200D03*
X264050Y198200D03*
X264050Y208200D03*
X264050Y193200D03*
X264050Y188200D03*
X264050Y163200D03*
X264050Y158200D03*
X264050Y153200D03*
X264050Y143200D03*
X264050Y138200D03*
X264050Y148200D03*
X264050Y133200D03*
X264050Y123200D03*
X264050Y118200D03*
X264050Y128200D03*
X264050Y113200D03*
X188550Y295700D03*
X188550Y285700D03*
X188550Y280700D03*
X188550Y290700D03*
X188550Y275700D03*
X188550Y265700D03*
X188550Y260700D03*
X188550Y270700D03*
X188550Y255700D03*
X188550Y245700D03*
X188550Y240700D03*
X188550Y250700D03*
X188550Y235700D03*
X188550Y225700D03*
X188550Y220700D03*
X188550Y230700D03*
X188550Y215700D03*
X188550Y205700D03*
X188550Y200700D03*
X188550Y210700D03*
X188550Y195700D03*
X188550Y190700D03*
X188550Y165700D03*
X188550Y160700D03*
X188550Y155700D03*
X188550Y145700D03*
X188550Y140700D03*
X188550Y150700D03*
X188550Y135700D03*
X188550Y125700D03*
X188550Y120700D03*
X188550Y130700D03*
X188550Y115700D03*
X188550Y110700D03*
D39*
X123800Y371950D03*
X104800Y371950D03*
X114300Y350950D03*
D15*
X516500Y38100D03*
X499500Y38100D03*
D36*
X502730Y28900D02*
X502730Y21900D01*
X495730Y21900D01*
X495730Y28900D01*
X502730Y28900D01*
X502730Y24750D02*
X495730Y24750D01*
X495730Y27600D02*
X502730Y27600D01*
X520270Y28900D02*
X520270Y21900D01*
X513270Y21900D01*
X513270Y28900D01*
X520270Y28900D01*
X520270Y24750D02*
X513270Y24750D01*
X513270Y27600D02*
X520270Y27600D01*
D10*
X674780Y94100D03*
X674780Y99100D03*
D11*
X674780Y69350D03*
X674780Y77100D03*
D10*
X674780Y84100D03*
X674780Y89100D03*
X674780Y109100D03*
X674780Y104100D03*
D11*
X674780Y133850D03*
X674780Y126100D03*
D10*
X674780Y119100D03*
X674780Y114100D03*
D12*
X690880Y135500D03*
X690880Y118500D03*
X690880Y67700D03*
X690880Y84700D03*
D13*
X716280Y101600D03*
D14*
X706530Y87850D03*
X713030Y87850D03*
X719530Y87850D03*
X726030Y87850D03*
X726030Y115350D03*
X719530Y115350D03*
X713030Y115350D03*
X706530Y115350D03*
D15*
X707780Y139700D03*
X724780Y139700D03*
D16*
X955080Y106800D03*
X960080Y106800D03*
X960080Y121800D03*
X955080Y121800D03*
D17*
X950080Y121800D03*
X950080Y116800D03*
X950080Y106800D03*
X950080Y111800D03*
X965080Y106800D03*
X965080Y111800D03*
X965080Y116800D03*
X965080Y121800D03*
D12*
X982980Y122800D03*
X982980Y105800D03*
X998220Y122800D03*
X998220Y105800D03*
D18*
X953880Y180800D03*
X953880Y190800D03*
X935880Y190800D03*
X935880Y180800D03*
D19*
X944880Y161300D03*
D20*
X938380Y167800D03*
X951380Y167800D03*
D19*
X944880Y174300D03*
D12*
X1008380Y156600D03*
X1008380Y173600D03*
D21*
X900780Y476060D03*
X895780Y476060D03*
X890780Y476060D03*
X885780Y476060D03*
X880780Y476060D03*
X875780Y476060D03*
X870780Y476060D03*
X865780Y476060D03*
X860780Y476060D03*
X855780Y476060D03*
X850780Y476060D03*
X845780Y476060D03*
X840780Y476060D03*
X835780Y476060D03*
X830780Y476060D03*
X825780Y476060D03*
X820780Y476060D03*
X815780Y476060D03*
X810780Y476060D03*
X805780Y476060D03*
X800780Y476060D03*
X795780Y476060D03*
X790780Y476060D03*
X785780Y476060D03*
D22*
X910780Y490060D03*
X775780Y490060D03*
D12*
X944880Y427600D03*
X944880Y410600D03*
D23*
X760180Y285400D03*
D24*
X740480Y335280D03*
X717480Y335280D03*
D15*
X720480Y317500D03*
X737480Y317500D03*
D25*
X1187370Y71060D03*
X1187370Y127060D03*
D26*
X1150620Y84060D03*
X1150620Y94060D03*
X1150620Y104060D03*
X1150620Y114060D03*
D15*
X1118480Y76200D03*
X1101480Y76200D03*
X1118480Y127000D03*
X1101480Y127000D03*
D27*
X883920Y31750D03*
X828040Y31750D03*
X883920Y69850D03*
X828040Y69850D03*
D15*
X707780Y154940D03*
X724780Y154940D03*
D28*
X637780Y177800D03*
X667780Y177800D03*
D29*
X717580Y177800D03*
X689580Y177800D03*
D12*
X767080Y143900D03*
X767080Y160900D03*
X751840Y160900D03*
X751840Y143900D03*
D27*
X985520Y31750D03*
X929640Y31750D03*
X985520Y69850D03*
X929640Y69850D03*
D19*
X982980Y164200D03*
D20*
X976480Y170700D03*
X989480Y170700D03*
D19*
X982980Y177200D03*
D30*
X982980Y191390D03*
X991980Y191390D03*
X991980Y183140D03*
X973980Y191390D03*
X973980Y183140D03*
D31*
X1019780Y346900D03*
X1076780Y346900D03*
D32*
X1092780Y478400D03*
X961280Y488400D03*
D33*
X1007880Y449900D03*
X1018880Y445900D03*
X1029880Y449900D03*
X1040880Y451900D03*
X1051880Y449900D03*
X1062880Y451900D03*
X1073880Y449900D03*
X1084880Y449900D03*
D34*
X706780Y469599D03*
X716280Y469599D03*
X725780Y469599D03*
X725780Y495601D03*
X706780Y495601D03*
D12*
X741680Y474100D03*
X741680Y491100D03*
X690880Y491100D03*
X690880Y474100D03*
X741680Y110100D03*
X741680Y93100D03*
D35*
X760730Y113100D03*
X760730Y90100D03*
D15*
X1093080Y38100D03*
X1076080Y38100D03*
D36*
X1079310Y28900D02*
X1079310Y21900D01*
X1072310Y21900D01*
X1072310Y28900D01*
X1079310Y28900D01*
X1079310Y24750D02*
X1072310Y24750D01*
X1072310Y27600D02*
X1079310Y27600D01*
X1096850Y28900D02*
X1096850Y21900D01*
X1089850Y21900D01*
X1089850Y28900D01*
X1096850Y28900D01*
X1096850Y24750D02*
X1089850Y24750D01*
X1089850Y27600D02*
X1096850Y27600D01*
D12*
X754380Y58810D03*
X754380Y75810D03*
X769620Y58810D03*
X769620Y75810D03*
X784860Y58810D03*
X784860Y75810D03*
D37*
X810980Y99700D03*
X810980Y306700D03*
D38*
X878730Y293200D03*
X878730Y283200D03*
X878730Y278200D03*
X878730Y288200D03*
X878730Y273200D03*
X878730Y263200D03*
X878730Y258200D03*
X878730Y268200D03*
X878730Y253200D03*
X878730Y243200D03*
X878730Y238200D03*
X878730Y248200D03*
X878730Y233200D03*
X878730Y223200D03*
X878730Y218200D03*
X878730Y228200D03*
X878730Y213200D03*
X878730Y203200D03*
X878730Y198200D03*
X878730Y208200D03*
X878730Y193200D03*
X878730Y188200D03*
X878730Y163200D03*
X878730Y158200D03*
X878730Y153200D03*
X878730Y143200D03*
X878730Y138200D03*
X878730Y148200D03*
X878730Y133200D03*
X878730Y123200D03*
X878730Y118200D03*
X878730Y128200D03*
X878730Y113200D03*
X803230Y295700D03*
X803230Y285700D03*
X803230Y280700D03*
X803230Y290700D03*
X803230Y275700D03*
X803230Y265700D03*
X803230Y260700D03*
X803230Y270700D03*
X803230Y255700D03*
X803230Y245700D03*
X803230Y240700D03*
X803230Y250700D03*
X803230Y235700D03*
X803230Y225700D03*
X803230Y220700D03*
X803230Y230700D03*
X803230Y215700D03*
X803230Y205700D03*
X803230Y200700D03*
X803230Y210700D03*
X803230Y195700D03*
X803230Y190700D03*
X803230Y165700D03*
X803230Y160700D03*
X803230Y155700D03*
X803230Y145700D03*
X803230Y140700D03*
X803230Y150700D03*
X803230Y135700D03*
X803230Y125700D03*
X803230Y120700D03*
X803230Y130700D03*
X803230Y115700D03*
X803230Y110700D03*
D39*
X738480Y371950D03*
X719480Y371950D03*
X728980Y350950D03*
D15*
X1131180Y38100D03*
X1114180Y38100D03*
D36*
X1117410Y28900D02*
X1117410Y21900D01*
X1110410Y21900D01*
X1110410Y28900D01*
X1117410Y28900D01*
X1117410Y24750D02*
X1110410Y24750D01*
X1110410Y27600D02*
X1117410Y27600D01*
X1134950Y28900D02*
X1134950Y21900D01*
X1127950Y21900D01*
X1127950Y28900D01*
X1134950Y28900D01*
X1134950Y24750D02*
X1127950Y24750D01*
X1127950Y27600D02*
X1134950Y27600D01*
D10*
X60100Y619880D03*
X60100Y624880D03*
D11*
X60100Y595130D03*
X60100Y602880D03*
D10*
X60100Y609880D03*
X60100Y614880D03*
X60100Y634880D03*
X60100Y629880D03*
D11*
X60100Y659630D03*
X60100Y651880D03*
D10*
X60100Y644880D03*
X60100Y639880D03*
D12*
X76200Y661280D03*
X76200Y644280D03*
X76200Y593480D03*
X76200Y610480D03*
D13*
X101600Y627380D03*
D14*
X91850Y613630D03*
X98350Y613630D03*
X104850Y613630D03*
X111350Y613630D03*
X111350Y641130D03*
X104850Y641130D03*
X98350Y641130D03*
X91850Y641130D03*
D15*
X93100Y665480D03*
X110100Y665480D03*
D16*
X340400Y632580D03*
X345400Y632580D03*
X345400Y647580D03*
X340400Y647580D03*
D17*
X335400Y647580D03*
X335400Y642580D03*
X335400Y632580D03*
X335400Y637580D03*
X350400Y632580D03*
X350400Y637580D03*
X350400Y642580D03*
X350400Y647580D03*
D12*
X368300Y648580D03*
X368300Y631580D03*
X383540Y648580D03*
X383540Y631580D03*
D18*
X339200Y706580D03*
X339200Y716580D03*
X321200Y716580D03*
X321200Y706580D03*
D19*
X330200Y687080D03*
D20*
X323700Y693580D03*
X336700Y693580D03*
D19*
X330200Y700080D03*
D12*
X393700Y682380D03*
X393700Y699380D03*
D21*
X286100Y1001840D03*
X281100Y1001840D03*
X276100Y1001840D03*
X271100Y1001840D03*
X266100Y1001840D03*
X261100Y1001840D03*
X256100Y1001840D03*
X251100Y1001840D03*
X246100Y1001840D03*
X241100Y1001840D03*
X236100Y1001840D03*
X231100Y1001840D03*
X226100Y1001840D03*
X221100Y1001840D03*
X216100Y1001840D03*
X211100Y1001840D03*
X206100Y1001840D03*
X201100Y1001840D03*
X196100Y1001840D03*
X191100Y1001840D03*
X186100Y1001840D03*
X181100Y1001840D03*
X176100Y1001840D03*
X171100Y1001840D03*
D22*
X296100Y1015840D03*
X161100Y1015840D03*
D12*
X330200Y953380D03*
X330200Y936380D03*
D23*
X145500Y811180D03*
D24*
X125800Y861060D03*
X102800Y861060D03*
D15*
X105800Y843280D03*
X122800Y843280D03*
D25*
X572690Y596840D03*
X572690Y652840D03*
D26*
X535940Y609840D03*
X535940Y619840D03*
X535940Y629840D03*
X535940Y639840D03*
D15*
X503800Y601980D03*
X486800Y601980D03*
X503800Y652780D03*
X486800Y652780D03*
D27*
X269240Y557530D03*
X213360Y557530D03*
X269240Y595630D03*
X213360Y595630D03*
D15*
X93100Y680720D03*
X110100Y680720D03*
D28*
X23100Y703580D03*
X53100Y703580D03*
D29*
X102900Y703580D03*
X74900Y703580D03*
D12*
X152400Y669680D03*
X152400Y686680D03*
X137160Y686680D03*
X137160Y669680D03*
D27*
X370840Y557530D03*
X314960Y557530D03*
X370840Y595630D03*
X314960Y595630D03*
D19*
X368300Y689980D03*
D20*
X361800Y696480D03*
X374800Y696480D03*
D19*
X368300Y702980D03*
D30*
X368300Y717170D03*
X377300Y717170D03*
X377300Y708920D03*
X359300Y717170D03*
X359300Y708920D03*
D31*
X405100Y872680D03*
X462100Y872680D03*
D32*
X478100Y1004180D03*
X346600Y1014180D03*
D33*
X393200Y975680D03*
X404200Y971680D03*
X415200Y975680D03*
X426200Y977680D03*
X437200Y975680D03*
X448200Y977680D03*
X459200Y975680D03*
X470200Y975680D03*
D34*
X92100Y995379D03*
X101600Y995379D03*
X111100Y995379D03*
X111100Y1021381D03*
X92100Y1021381D03*
D12*
X127000Y999880D03*
X127000Y1016880D03*
X76200Y1016880D03*
X76200Y999880D03*
X127000Y635880D03*
X127000Y618880D03*
D35*
X146050Y638880D03*
X146050Y615880D03*
D15*
X478400Y563880D03*
X461400Y563880D03*
D36*
X464630Y554680D02*
X464630Y547680D01*
X457630Y547680D01*
X457630Y554680D01*
X464630Y554680D01*
X464630Y550530D02*
X457630Y550530D01*
X457630Y553380D02*
X464630Y553380D01*
X482170Y554680D02*
X482170Y547680D01*
X475170Y547680D01*
X475170Y554680D01*
X482170Y554680D01*
X482170Y550530D02*
X475170Y550530D01*
X475170Y553380D02*
X482170Y553380D01*
D12*
X139700Y584590D03*
X139700Y601590D03*
X154940Y584590D03*
X154940Y601590D03*
X170180Y584590D03*
X170180Y601590D03*
D37*
X196300Y625480D03*
X196300Y832480D03*
D38*
X264050Y818980D03*
X264050Y808980D03*
X264050Y803980D03*
X264050Y813980D03*
X264050Y798980D03*
X264050Y788980D03*
X264050Y783980D03*
X264050Y793980D03*
X264050Y778980D03*
X264050Y768980D03*
X264050Y763980D03*
X264050Y773980D03*
X264050Y758980D03*
X264050Y748980D03*
X264050Y743980D03*
X264050Y753980D03*
X264050Y738980D03*
X264050Y728980D03*
X264050Y723980D03*
X264050Y733980D03*
X264050Y718980D03*
X264050Y713980D03*
X264050Y688980D03*
X264050Y683980D03*
X264050Y678980D03*
X264050Y668980D03*
X264050Y663980D03*
X264050Y673980D03*
X264050Y658980D03*
X264050Y648980D03*
X264050Y643980D03*
X264050Y653980D03*
X264050Y638980D03*
X188550Y821480D03*
X188550Y811480D03*
X188550Y806480D03*
X188550Y816480D03*
X188550Y801480D03*
X188550Y791480D03*
X188550Y786480D03*
X188550Y796480D03*
X188550Y781480D03*
X188550Y771480D03*
X188550Y766480D03*
X188550Y776480D03*
X188550Y761480D03*
X188550Y751480D03*
X188550Y746480D03*
X188550Y756480D03*
X188550Y741480D03*
X188550Y731480D03*
X188550Y726480D03*
X188550Y736480D03*
X188550Y721480D03*
X188550Y716480D03*
X188550Y691480D03*
X188550Y686480D03*
X188550Y681480D03*
X188550Y671480D03*
X188550Y666480D03*
X188550Y676480D03*
X188550Y661480D03*
X188550Y651480D03*
X188550Y646480D03*
X188550Y656480D03*
X188550Y641480D03*
X188550Y636480D03*
D39*
X123800Y897730D03*
X104800Y897730D03*
X114300Y876730D03*
D15*
X516500Y563880D03*
X499500Y563880D03*
D36*
X502730Y554680D02*
X502730Y547680D01*
X495730Y547680D01*
X495730Y554680D01*
X502730Y554680D01*
X502730Y550530D02*
X495730Y550530D01*
X495730Y553380D02*
X502730Y553380D01*
X520270Y554680D02*
X520270Y547680D01*
X513270Y547680D01*
X513270Y554680D01*
X520270Y554680D01*
X520270Y550530D02*
X513270Y550530D01*
X513270Y553380D02*
X520270Y553380D01*
D10*
X674780Y619880D03*
X674780Y624880D03*
D11*
X674780Y595130D03*
X674780Y602880D03*
D10*
X674780Y609880D03*
X674780Y614880D03*
X674780Y634880D03*
X674780Y629880D03*
D11*
X674780Y659630D03*
X674780Y651880D03*
D10*
X674780Y644880D03*
X674780Y639880D03*
D12*
X690880Y661280D03*
X690880Y644280D03*
X690880Y593480D03*
X690880Y610480D03*
D13*
X716280Y627380D03*
D14*
X706530Y613630D03*
X713030Y613630D03*
X719530Y613630D03*
X726030Y613630D03*
X726030Y641130D03*
X719530Y641130D03*
X713030Y641130D03*
X706530Y641130D03*
D15*
X707780Y665480D03*
X724780Y665480D03*
D16*
X955080Y632580D03*
X960080Y632580D03*
X960080Y647580D03*
X955080Y647580D03*
D17*
X950080Y647580D03*
X950080Y642580D03*
X950080Y632580D03*
X950080Y637580D03*
X965080Y632580D03*
X965080Y637580D03*
X965080Y642580D03*
X965080Y647580D03*
D12*
X982980Y648580D03*
X982980Y631580D03*
X998220Y648580D03*
X998220Y631580D03*
D18*
X953880Y706580D03*
X953880Y716580D03*
X935880Y716580D03*
X935880Y706580D03*
D19*
X944880Y687080D03*
D20*
X938380Y693580D03*
X951380Y693580D03*
D19*
X944880Y700080D03*
D12*
X1008380Y682380D03*
X1008380Y699380D03*
D21*
X900780Y1001840D03*
X895780Y1001840D03*
X890780Y1001840D03*
X885780Y1001840D03*
X880780Y1001840D03*
X875780Y1001840D03*
X870780Y1001840D03*
X865780Y1001840D03*
X860780Y1001840D03*
X855780Y1001840D03*
X850780Y1001840D03*
X845780Y1001840D03*
X840780Y1001840D03*
X835780Y1001840D03*
X830780Y1001840D03*
X825780Y1001840D03*
X820780Y1001840D03*
X815780Y1001840D03*
X810780Y1001840D03*
X805780Y1001840D03*
X800780Y1001840D03*
X795780Y1001840D03*
X790780Y1001840D03*
X785780Y1001840D03*
D22*
X910780Y1015840D03*
X775780Y1015840D03*
D12*
X944880Y953380D03*
X944880Y936380D03*
D23*
X760180Y811180D03*
D24*
X740480Y861060D03*
X717480Y861060D03*
D15*
X720480Y843280D03*
X737480Y843280D03*
D25*
X1187370Y596840D03*
X1187370Y652840D03*
D26*
X1150620Y609840D03*
X1150620Y619840D03*
X1150620Y629840D03*
X1150620Y639840D03*
D15*
X1118480Y601980D03*
X1101480Y601980D03*
X1118480Y652780D03*
X1101480Y652780D03*
D27*
X883920Y557530D03*
X828040Y557530D03*
X883920Y595630D03*
X828040Y595630D03*
D15*
X707780Y680720D03*
X724780Y680720D03*
D28*
X637780Y703580D03*
X667780Y703580D03*
D29*
X717580Y703580D03*
X689580Y703580D03*
D12*
X767080Y669680D03*
X767080Y686680D03*
X751840Y686680D03*
X751840Y669680D03*
D27*
X985520Y557530D03*
X929640Y557530D03*
X985520Y595630D03*
X929640Y595630D03*
D19*
X982980Y689980D03*
D20*
X976480Y696480D03*
X989480Y696480D03*
D19*
X982980Y702980D03*
D30*
X982980Y717170D03*
X991980Y717170D03*
X991980Y708920D03*
X973980Y717170D03*
X973980Y708920D03*
D31*
X1019780Y872680D03*
X1076780Y872680D03*
D32*
X1092780Y1004180D03*
X961280Y1014180D03*
D33*
X1007880Y975680D03*
X1018880Y971680D03*
X1029880Y975680D03*
X1040880Y977680D03*
X1051880Y975680D03*
X1062880Y977680D03*
X1073880Y975680D03*
X1084880Y975680D03*
D34*
X706780Y995379D03*
X716280Y995379D03*
X725780Y995379D03*
X725780Y1021381D03*
X706780Y1021381D03*
D12*
X741680Y999880D03*
X741680Y1016880D03*
X690880Y1016880D03*
X690880Y999880D03*
X741680Y635880D03*
X741680Y618880D03*
D35*
X760730Y638880D03*
X760730Y615880D03*
D15*
X1093080Y563880D03*
X1076080Y563880D03*
D36*
X1079310Y554680D02*
X1079310Y547680D01*
X1072310Y547680D01*
X1072310Y554680D01*
X1079310Y554680D01*
X1079310Y550530D02*
X1072310Y550530D01*
X1072310Y553380D02*
X1079310Y553380D01*
X1096850Y554680D02*
X1096850Y547680D01*
X1089850Y547680D01*
X1089850Y554680D01*
X1096850Y554680D01*
X1096850Y550530D02*
X1089850Y550530D01*
X1089850Y553380D02*
X1096850Y553380D01*
D12*
X754380Y584590D03*
X754380Y601590D03*
X769620Y584590D03*
X769620Y601590D03*
X784860Y584590D03*
X784860Y601590D03*
D37*
X810980Y625480D03*
X810980Y832480D03*
D38*
X878730Y818980D03*
X878730Y808980D03*
X878730Y803980D03*
X878730Y813980D03*
X878730Y798980D03*
X878730Y788980D03*
X878730Y783980D03*
X878730Y793980D03*
X878730Y778980D03*
X878730Y768980D03*
X878730Y763980D03*
X878730Y773980D03*
X878730Y758980D03*
X878730Y748980D03*
X878730Y743980D03*
X878730Y753980D03*
X878730Y738980D03*
X878730Y728980D03*
X878730Y723980D03*
X878730Y733980D03*
X878730Y718980D03*
X878730Y713980D03*
X878730Y688980D03*
X878730Y683980D03*
X878730Y678980D03*
X878730Y668980D03*
X878730Y663980D03*
X878730Y673980D03*
X878730Y658980D03*
X878730Y648980D03*
X878730Y643980D03*
X878730Y653980D03*
X878730Y638980D03*
X803230Y821480D03*
X803230Y811480D03*
X803230Y806480D03*
X803230Y816480D03*
X803230Y801480D03*
X803230Y791480D03*
X803230Y786480D03*
X803230Y796480D03*
X803230Y781480D03*
X803230Y771480D03*
X803230Y766480D03*
X803230Y776480D03*
X803230Y761480D03*
X803230Y751480D03*
X803230Y746480D03*
X803230Y756480D03*
X803230Y741480D03*
X803230Y731480D03*
X803230Y726480D03*
X803230Y736480D03*
X803230Y721480D03*
X803230Y716480D03*
X803230Y691480D03*
X803230Y686480D03*
X803230Y681480D03*
X803230Y671480D03*
X803230Y666480D03*
X803230Y676480D03*
X803230Y661480D03*
X803230Y651480D03*
X803230Y646480D03*
X803230Y656480D03*
X803230Y641480D03*
X803230Y636480D03*
D39*
X738480Y897730D03*
X719480Y897730D03*
X728980Y876730D03*
D15*
X1131180Y563880D03*
X1114180Y563880D03*
D36*
X1117410Y554680D02*
X1117410Y547680D01*
X1110410Y547680D01*
X1110410Y554680D01*
X1117410Y554680D01*
X1117410Y550530D02*
X1110410Y550530D01*
X1110410Y553380D02*
X1117410Y553380D01*
X1134950Y554680D02*
X1134950Y547680D01*
X1127950Y547680D01*
X1127950Y554680D01*
X1134950Y554680D01*
X1134950Y550530D02*
X1127950Y550530D01*
X1127950Y553380D02*
X1134950Y553380D01*
D10*
X60100Y1145660D03*
X60100Y1150660D03*
D11*
X60100Y1120910D03*
X60100Y1128660D03*
D10*
X60100Y1135660D03*
X60100Y1140660D03*
X60100Y1160660D03*
X60100Y1155660D03*
D11*
X60100Y1185410D03*
X60100Y1177660D03*
D10*
X60100Y1170660D03*
X60100Y1165660D03*
D12*
X76200Y1187060D03*
X76200Y1170060D03*
X76200Y1119260D03*
X76200Y1136260D03*
D13*
X101600Y1153160D03*
D14*
X91850Y1139410D03*
X98350Y1139410D03*
X104850Y1139410D03*
X111350Y1139410D03*
X111350Y1166910D03*
X104850Y1166910D03*
X98350Y1166910D03*
X91850Y1166910D03*
D15*
X93100Y1191260D03*
X110100Y1191260D03*
D16*
X340400Y1158360D03*
X345400Y1158360D03*
X345400Y1173360D03*
X340400Y1173360D03*
D17*
X335400Y1173360D03*
X335400Y1168360D03*
X335400Y1158360D03*
X335400Y1163360D03*
X350400Y1158360D03*
X350400Y1163360D03*
X350400Y1168360D03*
X350400Y1173360D03*
D12*
X368300Y1174360D03*
X368300Y1157360D03*
X383540Y1174360D03*
X383540Y1157360D03*
D18*
X339200Y1232360D03*
X339200Y1242360D03*
X321200Y1242360D03*
X321200Y1232360D03*
D19*
X330200Y1212860D03*
D20*
X323700Y1219360D03*
X336700Y1219360D03*
D19*
X330200Y1225860D03*
D12*
X393700Y1208160D03*
X393700Y1225160D03*
D21*
X286100Y1527620D03*
X281100Y1527620D03*
X276100Y1527620D03*
X271100Y1527620D03*
X266100Y1527620D03*
X261100Y1527620D03*
X256100Y1527620D03*
X251100Y1527620D03*
X246100Y1527620D03*
X241100Y1527620D03*
X236100Y1527620D03*
X231100Y1527620D03*
X226100Y1527620D03*
X221100Y1527620D03*
X216100Y1527620D03*
X211100Y1527620D03*
X206100Y1527620D03*
X201100Y1527620D03*
X196100Y1527620D03*
X191100Y1527620D03*
X186100Y1527620D03*
X181100Y1527620D03*
X176100Y1527620D03*
X171100Y1527620D03*
D22*
X296100Y1541620D03*
X161100Y1541620D03*
D12*
X330200Y1479160D03*
X330200Y1462160D03*
D23*
X145500Y1336960D03*
D24*
X125800Y1386840D03*
X102800Y1386840D03*
D15*
X105800Y1369060D03*
X122800Y1369060D03*
D25*
X572690Y1122620D03*
X572690Y1178620D03*
D26*
X535940Y1135620D03*
X535940Y1145620D03*
X535940Y1155620D03*
X535940Y1165620D03*
D15*
X503800Y1127760D03*
X486800Y1127760D03*
X503800Y1178560D03*
X486800Y1178560D03*
D27*
X269240Y1083310D03*
X213360Y1083310D03*
X269240Y1121410D03*
X213360Y1121410D03*
D15*
X93100Y1206500D03*
X110100Y1206500D03*
D28*
X23100Y1229360D03*
X53100Y1229360D03*
D29*
X102900Y1229360D03*
X74900Y1229360D03*
D12*
X152400Y1195460D03*
X152400Y1212460D03*
X137160Y1212460D03*
X137160Y1195460D03*
D27*
X370840Y1083310D03*
X314960Y1083310D03*
X370840Y1121410D03*
X314960Y1121410D03*
D19*
X368300Y1215760D03*
D20*
X361800Y1222260D03*
X374800Y1222260D03*
D19*
X368300Y1228760D03*
D30*
X368300Y1242950D03*
X377300Y1242950D03*
X377300Y1234700D03*
X359300Y1242950D03*
X359300Y1234700D03*
D31*
X405100Y1398460D03*
X462100Y1398460D03*
D32*
X478100Y1529960D03*
X346600Y1539960D03*
D33*
X393200Y1501460D03*
X404200Y1497460D03*
X415200Y1501460D03*
X426200Y1503460D03*
X437200Y1501460D03*
X448200Y1503460D03*
X459200Y1501460D03*
X470200Y1501460D03*
D34*
X92100Y1521159D03*
X101600Y1521159D03*
X111100Y1521159D03*
X111100Y1547161D03*
X92100Y1547161D03*
D12*
X127000Y1525660D03*
X127000Y1542660D03*
X76200Y1542660D03*
X76200Y1525660D03*
X127000Y1161660D03*
X127000Y1144660D03*
D35*
X146050Y1164660D03*
X146050Y1141660D03*
D15*
X478400Y1089660D03*
X461400Y1089660D03*
D36*
X464630Y1080460D02*
X464630Y1073460D01*
X457630Y1073460D01*
X457630Y1080460D01*
X464630Y1080460D01*
X464630Y1076310D02*
X457630Y1076310D01*
X457630Y1079160D02*
X464630Y1079160D01*
X482170Y1080460D02*
X482170Y1073460D01*
X475170Y1073460D01*
X475170Y1080460D01*
X482170Y1080460D01*
X482170Y1076310D02*
X475170Y1076310D01*
X475170Y1079160D02*
X482170Y1079160D01*
D12*
X139700Y1110370D03*
X139700Y1127370D03*
X154940Y1110370D03*
X154940Y1127370D03*
X170180Y1110370D03*
X170180Y1127370D03*
D37*
X196300Y1151260D03*
X196300Y1358260D03*
D38*
X264050Y1344760D03*
X264050Y1334760D03*
X264050Y1329760D03*
X264050Y1339760D03*
X264050Y1324760D03*
X264050Y1314760D03*
X264050Y1309760D03*
X264050Y1319760D03*
X264050Y1304760D03*
X264050Y1294760D03*
X264050Y1289760D03*
X264050Y1299760D03*
X264050Y1284760D03*
X264050Y1274760D03*
X264050Y1269760D03*
X264050Y1279760D03*
X264050Y1264760D03*
X264050Y1254760D03*
X264050Y1249760D03*
X264050Y1259760D03*
X264050Y1244760D03*
X264050Y1239760D03*
X264050Y1214760D03*
X264050Y1209760D03*
X264050Y1204760D03*
X264050Y1194760D03*
X264050Y1189760D03*
X264050Y1199760D03*
X264050Y1184760D03*
X264050Y1174760D03*
X264050Y1169760D03*
X264050Y1179760D03*
X264050Y1164760D03*
X188550Y1347260D03*
X188550Y1337260D03*
X188550Y1332260D03*
X188550Y1342260D03*
X188550Y1327260D03*
X188550Y1317260D03*
X188550Y1312260D03*
X188550Y1322260D03*
X188550Y1307260D03*
X188550Y1297260D03*
X188550Y1292260D03*
X188550Y1302260D03*
X188550Y1287260D03*
X188550Y1277260D03*
X188550Y1272260D03*
X188550Y1282260D03*
X188550Y1267260D03*
X188550Y1257260D03*
X188550Y1252260D03*
X188550Y1262260D03*
X188550Y1247260D03*
X188550Y1242260D03*
X188550Y1217260D03*
X188550Y1212260D03*
X188550Y1207260D03*
X188550Y1197260D03*
X188550Y1192260D03*
X188550Y1202260D03*
X188550Y1187260D03*
X188550Y1177260D03*
X188550Y1172260D03*
X188550Y1182260D03*
X188550Y1167260D03*
X188550Y1162260D03*
D39*
X123800Y1423510D03*
X104800Y1423510D03*
X114300Y1402510D03*
D15*
X516500Y1089660D03*
X499500Y1089660D03*
D36*
X502730Y1080460D02*
X502730Y1073460D01*
X495730Y1073460D01*
X495730Y1080460D01*
X502730Y1080460D01*
X502730Y1076310D02*
X495730Y1076310D01*
X495730Y1079160D02*
X502730Y1079160D01*
X520270Y1080460D02*
X520270Y1073460D01*
X513270Y1073460D01*
X513270Y1080460D01*
X520270Y1080460D01*
X520270Y1076310D02*
X513270Y1076310D01*
X513270Y1079160D02*
X520270Y1079160D01*
D10*
X674780Y1145660D03*
X674780Y1150660D03*
D11*
X674780Y1120910D03*
X674780Y1128660D03*
D10*
X674780Y1135660D03*
X674780Y1140660D03*
X674780Y1160660D03*
X674780Y1155660D03*
D11*
X674780Y1185410D03*
X674780Y1177660D03*
D10*
X674780Y1170660D03*
X674780Y1165660D03*
D12*
X690880Y1187060D03*
X690880Y1170060D03*
X690880Y1119260D03*
X690880Y1136260D03*
D13*
X716280Y1153160D03*
D14*
X706530Y1139410D03*
X713030Y1139410D03*
X719530Y1139410D03*
X726030Y1139410D03*
X726030Y1166910D03*
X719530Y1166910D03*
X713030Y1166910D03*
X706530Y1166910D03*
D15*
X707780Y1191260D03*
X724780Y1191260D03*
D16*
X955080Y1158360D03*
X960080Y1158360D03*
X960080Y1173360D03*
X955080Y1173360D03*
D17*
X950080Y1173360D03*
X950080Y1168360D03*
X950080Y1158360D03*
X950080Y1163360D03*
X965080Y1158360D03*
X965080Y1163360D03*
X965080Y1168360D03*
X965080Y1173360D03*
D12*
X982980Y1174360D03*
X982980Y1157360D03*
X998220Y1174360D03*
X998220Y1157360D03*
D18*
X953880Y1232360D03*
X953880Y1242360D03*
X935880Y1242360D03*
X935880Y1232360D03*
D19*
X944880Y1212860D03*
D20*
X938380Y1219360D03*
X951380Y1219360D03*
D19*
X944880Y1225860D03*
D12*
X1008380Y1208160D03*
X1008380Y1225160D03*
D21*
X900780Y1527620D03*
X895780Y1527620D03*
X890780Y1527620D03*
X885780Y1527620D03*
X880780Y1527620D03*
X875780Y1527620D03*
X870780Y1527620D03*
X865780Y1527620D03*
X860780Y1527620D03*
X855780Y1527620D03*
X850780Y1527620D03*
X845780Y1527620D03*
X840780Y1527620D03*
X835780Y1527620D03*
X830780Y1527620D03*
X825780Y1527620D03*
X820780Y1527620D03*
X815780Y1527620D03*
X810780Y1527620D03*
X805780Y1527620D03*
X800780Y1527620D03*
X795780Y1527620D03*
X790780Y1527620D03*
X785780Y1527620D03*
D22*
X910780Y1541620D03*
X775780Y1541620D03*
D12*
X944880Y1479160D03*
X944880Y1462160D03*
D23*
X760180Y1336960D03*
D24*
X740480Y1386840D03*
X717480Y1386840D03*
D15*
X720480Y1369060D03*
X737480Y1369060D03*
D25*
X1187370Y1122620D03*
X1187370Y1178620D03*
D26*
X1150620Y1135620D03*
X1150620Y1145620D03*
X1150620Y1155620D03*
X1150620Y1165620D03*
D15*
X1118480Y1127760D03*
X1101480Y1127760D03*
X1118480Y1178560D03*
X1101480Y1178560D03*
D27*
X883920Y1083310D03*
X828040Y1083310D03*
X883920Y1121410D03*
X828040Y1121410D03*
D15*
X707780Y1206500D03*
X724780Y1206500D03*
D28*
X637780Y1229360D03*
X667780Y1229360D03*
D29*
X717580Y1229360D03*
X689580Y1229360D03*
D12*
X767080Y1195460D03*
X767080Y1212460D03*
X751840Y1212460D03*
X751840Y1195460D03*
D27*
X985520Y1083310D03*
X929640Y1083310D03*
X985520Y1121410D03*
X929640Y1121410D03*
D19*
X982980Y1215760D03*
D20*
X976480Y1222260D03*
X989480Y1222260D03*
D19*
X982980Y1228760D03*
D30*
X982980Y1242950D03*
X991980Y1242950D03*
X991980Y1234700D03*
X973980Y1242950D03*
X973980Y1234700D03*
D31*
X1019780Y1398460D03*
X1076780Y1398460D03*
D32*
X1092780Y1529960D03*
X961280Y1539960D03*
D33*
X1007880Y1501460D03*
X1018880Y1497460D03*
X1029880Y1501460D03*
X1040880Y1503460D03*
X1051880Y1501460D03*
X1062880Y1503460D03*
X1073880Y1501460D03*
X1084880Y1501460D03*
D34*
X706780Y1521159D03*
X716280Y1521159D03*
X725780Y1521159D03*
X725780Y1547161D03*
X706780Y1547161D03*
D12*
X741680Y1525660D03*
X741680Y1542660D03*
X690880Y1542660D03*
X690880Y1525660D03*
X741680Y1161660D03*
X741680Y1144660D03*
D35*
X760730Y1164660D03*
X760730Y1141660D03*
D15*
X1093080Y1089660D03*
X1076080Y1089660D03*
D36*
X1079310Y1080460D02*
X1079310Y1073460D01*
X1072310Y1073460D01*
X1072310Y1080460D01*
X1079310Y1080460D01*
X1079310Y1076310D02*
X1072310Y1076310D01*
X1072310Y1079160D02*
X1079310Y1079160D01*
X1096850Y1080460D02*
X1096850Y1073460D01*
X1089850Y1073460D01*
X1089850Y1080460D01*
X1096850Y1080460D01*
X1096850Y1076310D02*
X1089850Y1076310D01*
X1089850Y1079160D02*
X1096850Y1079160D01*
D12*
X754380Y1110370D03*
X754380Y1127370D03*
X769620Y1110370D03*
X769620Y1127370D03*
X784860Y1110370D03*
X784860Y1127370D03*
D37*
X810980Y1151260D03*
X810980Y1358260D03*
D38*
X878730Y1344760D03*
X878730Y1334760D03*
X878730Y1329760D03*
X878730Y1339760D03*
X878730Y1324760D03*
X878730Y1314760D03*
X878730Y1309760D03*
X878730Y1319760D03*
X878730Y1304760D03*
X878730Y1294760D03*
X878730Y1289760D03*
X878730Y1299760D03*
X878730Y1284760D03*
X878730Y1274760D03*
X878730Y1269760D03*
X878730Y1279760D03*
X878730Y1264760D03*
X878730Y1254760D03*
X878730Y1249760D03*
X878730Y1259760D03*
X878730Y1244760D03*
X878730Y1239760D03*
X878730Y1214760D03*
X878730Y1209760D03*
X878730Y1204760D03*
X878730Y1194760D03*
X878730Y1189760D03*
X878730Y1199760D03*
X878730Y1184760D03*
X878730Y1174760D03*
X878730Y1169760D03*
X878730Y1179760D03*
X878730Y1164760D03*
X803230Y1347260D03*
X803230Y1337260D03*
X803230Y1332260D03*
X803230Y1342260D03*
X803230Y1327260D03*
X803230Y1317260D03*
X803230Y1312260D03*
X803230Y1322260D03*
X803230Y1307260D03*
X803230Y1297260D03*
X803230Y1292260D03*
X803230Y1302260D03*
X803230Y1287260D03*
X803230Y1277260D03*
X803230Y1272260D03*
X803230Y1282260D03*
X803230Y1267260D03*
X803230Y1257260D03*
X803230Y1252260D03*
X803230Y1262260D03*
X803230Y1247260D03*
X803230Y1242260D03*
X803230Y1217260D03*
X803230Y1212260D03*
X803230Y1207260D03*
X803230Y1197260D03*
X803230Y1192260D03*
X803230Y1202260D03*
X803230Y1187260D03*
X803230Y1177260D03*
X803230Y1172260D03*
X803230Y1182260D03*
X803230Y1167260D03*
X803230Y1162260D03*
D39*
X738480Y1423510D03*
X719480Y1423510D03*
X728980Y1402510D03*
D15*
X1131180Y1089660D03*
X1114180Y1089660D03*
D36*
X1117410Y1080460D02*
X1117410Y1073460D01*
X1110410Y1073460D01*
X1110410Y1080460D01*
X1117410Y1080460D01*
X1117410Y1076310D02*
X1110410Y1076310D01*
X1110410Y1079160D02*
X1117410Y1079160D01*
X1134950Y1080460D02*
X1134950Y1073460D01*
X1127950Y1073460D01*
X1127950Y1080460D01*
X1134950Y1080460D01*
X1134950Y1076310D02*
X1127950Y1076310D01*
X1127950Y1079160D02*
X1134950Y1079160D01*
M02*
