M48
;GenerationSoftware,Autodesk,EAGLE,9.5.2*%
;CreationDate,2020-02-20T04:26:10Z*%
FMAT,2
ICI,OFF
METRIC,TZ,000.000
T11C0.305
T10C0.508
T9C0.650
T8C0.800
T7C1.000
T6C1.016
T5C1.100
T4C1.600
T3C2.311
T2C3.302
T1C3.500
%
G90
M71
T1
X106598Y71438
X106598Y16320
X45130Y71438
X45130Y16320
T2
X55880Y57658
X117348Y57658
X64008Y57658
X2540Y107188
X55880Y52070
X2540Y52070
X55880Y2540
X2540Y2540
X2540Y57658
X117348Y107188
X117348Y52070
X64008Y52070
X117348Y2540
X64008Y2540
X64008Y107188
X55880Y107188
T3
X69548Y22644
X8080Y35776
X69548Y35776
X8080Y22644
X69548Y90894
X69548Y77762
X8080Y90894
X8080Y77762
T4
X24130Y30320
X85598Y30320
X24130Y85438
X85598Y85438
T5
X85598Y65438
X24130Y10320
X24130Y65438
X85598Y10320
T6
X49530Y56388
X70866Y61468
X73406Y61468
X62738Y103378
X62738Y100838
X62738Y98298
X62738Y95758
X62738Y93218
X116078Y76708
X116078Y79248
X116078Y81788
X118618Y29210
X116078Y84328
X116078Y86868
X116078Y89408
X118618Y76708
X118618Y79248
X9398Y6350
X11938Y6350
X118618Y81788
X118618Y84328
X118618Y86868
X118618Y89408
X100838Y56388
X98298Y56388
X95758Y56388
X93218Y56388
X90678Y56388
X88138Y56388
X1270Y48260
X1270Y45720
X1270Y43180
X1270Y40640
X1270Y38100
X54610Y21590
X54610Y24130
X54610Y26670
X54610Y29210
X54610Y31750
X54610Y34290
X57150Y21590
X57150Y24130
X57150Y26670
X57150Y29210
X57150Y31750
X57150Y34290
X39370Y1270
X36830Y1270
X34290Y1270
X31750Y1270
X29210Y1270
X26670Y1270
X41910Y1270
X44450Y1270
X46990Y1270
X49530Y1270
X70866Y6350
X73406Y6350
X103378Y56388
X105918Y56388
X108458Y56388
X110998Y56388
X62738Y48260
X62738Y45720
X62738Y43180
X62738Y40640
X62738Y38100
X116078Y21590
X116078Y24130
X116078Y26670
X116078Y29210
X116078Y31750
X116078Y34290
X118618Y21590
X118618Y24130
X118618Y26670
X118618Y31750
X118618Y34290
X100838Y1270
X98298Y1270
X95758Y1270
X93218Y1270
X90678Y1270
X88138Y1270
X103378Y1270
X105918Y1270
X108458Y1270
X110998Y1270
X9398Y61468
X11938Y61468
X1270Y103378
X1270Y100838
X1270Y98298
X1270Y95758
X1270Y93218
X54610Y76708
X54610Y79248
X54610Y81788
X54610Y84328
X54610Y86868
X54610Y89408
X57150Y76708
X57150Y79248
X57150Y81788
X57150Y84328
X57150Y86868
X57150Y89408
X39370Y56388
X36830Y56388
X34290Y56388
X31750Y56388
X29210Y56388
X26670Y56388
X41910Y56388
X44450Y56388
X46990Y56388
T7
X98298Y21030
X36830Y21030
X36830Y76148
X98298Y76148
T8
X33020Y21320
X94488Y21320
X94488Y76438
X33020Y76438
T9
X4905Y7270
X66373Y13050
X66373Y7270
X4905Y68168
X4905Y62388
X66373Y68168
X66373Y62388
X4905Y13050
T10
X15875Y19050
X15875Y20320
X15875Y21590
X15875Y22860
X15875Y17780
X14605Y19050
X14605Y20320
X14605Y21590
X14605Y22860
X14605Y17780
X77343Y19050
X77343Y20320
X77343Y21590
X77343Y22860
X15875Y76708
X15875Y77978
X15875Y72898
X14605Y74168
X14605Y75438
X14605Y76708
X14605Y77978
X14605Y72898
X76073Y21590
X76073Y17780
X76073Y20320
X76073Y19050
X76073Y22860
X15875Y74168
X77343Y74168
X77343Y75438
X77343Y76708
X77343Y77978
X77343Y72898
X76073Y74168
X76073Y75438
X76073Y76708
X76073Y77978
X76073Y72898
X77343Y17780
X15875Y75438
T11
X90805Y44577
X91313Y22352
X80344Y51388
X80455Y43942
X90251Y43916
X83812Y51427
X81699Y23114
X88265Y52832
X86590Y28067
X87300Y51308
X84455Y28473
X84481Y51943
X81648Y27973
X77957Y27030
X80721Y52197
X85903Y52959
X82842Y26543
X69088Y53340
X86741Y52908
X83439Y24765
X85285Y52392
X83185Y20828
X82296Y51435
X82622Y21590
X78613Y27559
X81449Y53044
X86868Y52070
X84201Y14859
X81915Y52324
X85979Y25502
X71374Y30226
X82423Y19990
X71374Y28194
X81754Y19473
X92710Y16256
X91948Y15723
X90805Y28917
X89802Y43180
X89408Y12700
X78740Y8128
X78613Y2286
X89408Y8890
X81661Y16510
X85852Y5461
X85852Y7531
X85979Y13462
X82910Y14838
X82296Y15621
X100838Y18034
X96393Y18161
X97028Y23114
X95526Y23136
X99949Y17145
X99949Y24257
X90678Y19431
X93167Y24917
X90678Y20320
X92329Y24917
X90551Y18593
X93218Y29210
X86233Y22223
X89446Y30052
X91313Y13081
X95758Y31750
X89789Y15223
X94488Y34290
X77676Y24971
X72898Y46990
X78359Y25473
X74168Y45720
X77851Y26192
X74168Y43180
X76838Y25014
X74168Y40640
X47117Y82550
X47117Y100838
X45974Y81647
X45974Y100838
X43688Y80645
X43688Y100711
X41148Y81292
X41529Y100457
X40386Y83439
X40386Y100711
X39370Y82841
X39370Y100203
X12700Y65278
X10160Y65278
X8890Y65278
X11430Y65278
X7747Y65278
X7239Y69977
X12192Y70231
X11811Y72898
X7747Y60706
X11049Y62992
X17399Y66040
X20193Y67691
X24892Y74930
X20193Y76835
X20193Y75946
X16764Y85852
X10033Y80899
X12319Y82042
X12319Y79629
X18288Y90932
X17399Y106426
X29464Y104267
X10160Y105918
X13970Y107188
X7620Y103886
X44831Y101346
X39370Y77597
X33020Y73533
X36830Y77724
X34671Y75819
X34671Y64897
X37465Y64389
X53975Y62484
X22098Y62865
X27978Y101346
X28448Y84455
X47498Y65278
X47498Y60871
X34925Y72263
X35814Y70485
X31877Y66548
X28558Y66438
X17780Y72898
X27661Y72898
X12700Y67183
X4848Y66018
X13462Y66591
X4748Y64897
X28215Y107209
X24511Y79426
X28304Y106299
X24892Y78613
X29210Y76454
X18161Y107315
X18553Y99811
X29337Y99695
X29845Y77470
X18876Y106506
X18987Y99060
X28783Y99034
X22344Y106545
X20231Y78232
X26797Y107950
X25122Y83185
X25832Y106426
X22987Y83591
X23013Y107061
X20180Y83091
X16489Y82148
X19253Y107315
X24435Y108077
X21374Y81661
X7620Y108458
X25273Y108026
X21971Y79883
X23817Y107510
X21717Y75946
X20828Y106553
X21154Y76708
X17145Y82677
X19981Y108162
X25400Y107188
X22733Y69977
X20447Y107442
X24511Y80620
X9906Y85344
X20955Y75108
X9906Y83312
X20286Y74591
X31242Y71374
X30480Y70841
X29337Y84035
X24511Y25502
X27940Y67818
X17272Y63246
X17145Y57404
X27940Y64008
X20193Y71628
X24384Y60579
X24384Y62649
X24511Y68580
X21442Y69956
X20828Y70739
X39370Y73152
X34925Y73279
X35560Y78232
X34058Y78254
X38481Y72263
X38481Y79375
X29210Y74549
X31699Y80035
X29210Y75438
X30861Y80035
X29083Y73711
X31750Y84328
X24765Y77341
X27978Y85171
X29845Y68199
X34290Y86868
X28321Y70341
X33020Y89408
X16208Y80089
X11430Y102108
X16891Y80591
X12700Y100838
X16383Y81310
X12700Y98298
X15370Y80132
X12700Y95758
X108585Y82550
X108585Y100838
X107442Y81647
X107442Y100838
X105156Y80645
X105156Y100711
X102616Y81292
X102997Y100457
X101854Y83439
X101854Y100711
X100838Y82841
X100838Y100203
X74168Y65278
X71628Y65278
X70358Y65278
X72898Y65278
X69215Y65278
X68707Y69977
X73660Y70231
X73279Y72898
X69215Y60706
X72517Y62992
X78867Y66040
X81661Y67691
X86360Y74930
X81661Y76835
X81661Y75946
X78232Y85852
X71501Y80899
X73787Y82042
X73787Y79629
X79756Y90932
X78867Y106426
X90932Y104267
X71628Y105918
X75438Y107188
X69088Y103886
X106299Y101346
X100838Y77597
X94488Y73533
X98298Y77724
X96139Y75819
X96139Y64897
X98933Y64389
X115443Y62484
X83566Y62865
X89446Y101346
X89916Y84455
X108966Y65278
X108966Y60871
X96393Y72263
X97282Y70485
X93345Y66548
X90026Y66438
X79248Y72898
X89129Y72898
X74168Y67183
X66316Y66018
X74930Y66591
X66216Y64897
X89683Y107209
X85979Y79426
X89772Y106299
X86360Y78613
X90678Y76454
X79629Y107315
X80021Y99811
X90805Y99695
X91313Y77470
X80344Y106506
X80455Y99060
X90251Y99034
X83812Y106545
X81699Y78232
X88265Y107950
X86590Y83185
X87300Y106426
X84455Y83591
X84481Y107061
X81648Y83091
X77957Y82148
X80721Y107315
X85903Y108077
X82842Y81661
X69088Y108458
X86741Y108026
X83439Y79883
X85285Y107510
X83185Y75946
X82296Y106553
X82622Y76708
X78613Y82677
X81449Y108162
X86868Y107188
X84201Y69977
X81915Y107442
X85979Y80620
X71374Y85344
X82423Y75108
X71374Y83312
X81754Y74591
X92710Y71374
X91948Y70841
X90805Y84035
X89802Y98298
X89408Y67818
X78740Y63246
X78613Y57404
X89408Y64008
X81661Y71628
X85852Y60579
X85852Y62649
X85979Y68580
X82910Y69956
X82296Y70739
X100838Y73152
X96393Y73279
X97028Y78232
X95526Y78254
X99949Y72263
X99949Y79375
X90678Y74549
X93167Y80035
X90678Y75438
X92329Y80035
X90551Y73711
X93218Y84328
X86233Y77341
X89446Y85171
X91313Y68199
X95758Y86868
X89789Y70341
X94488Y89408
X77676Y80089
X72898Y102108
X78359Y80591
X74168Y100838
X77851Y81310
X74168Y98298
X76838Y80132
X74168Y95758
X47117Y27432
X47117Y45720
X45974Y26529
X45974Y45720
X43688Y25527
X43688Y45593
X41148Y26174
X41529Y45339
X40386Y28321
X40386Y45593
X39370Y27723
X39370Y45085
X12700Y10160
X10160Y10160
X8890Y10160
X11430Y10160
X7747Y10160
X7239Y14859
X12192Y15113
X11811Y17780
X7747Y5588
X11049Y7874
X17399Y10922
X20193Y12573
X24892Y19812
X20193Y21717
X20193Y20828
X16764Y30734
X10033Y25781
X12319Y26924
X12319Y24511
X18288Y35814
X17399Y51308
X29464Y49149
X10160Y50800
X13970Y52070
X7620Y48768
X44831Y46228
X39370Y22479
X33020Y18415
X36830Y22606
X34671Y20701
X34671Y9779
X37465Y9271
X53975Y7366
X22098Y7747
X27978Y46228
X28448Y29337
X47498Y10160
X47498Y5753
X34925Y17145
X35814Y15367
X31877Y11430
X28558Y11320
X17780Y17780
X27661Y17780
X12700Y12065
X4848Y10900
X13462Y11473
X4748Y9779
X28215Y52091
X24511Y24308
X28304Y51181
X24892Y23495
X29210Y21336
X18161Y52197
X18553Y44693
X29337Y44577
X29845Y22352
X18876Y51388
X18987Y43942
X28783Y43916
X22344Y51427
X20231Y23114
X26797Y52832
X25122Y28067
X25832Y51308
X22987Y28473
X23013Y51943
X20180Y27973
X16489Y27030
X19253Y52197
X24435Y52959
X21374Y26543
X7620Y53340
X25273Y52908
X21971Y24765
X23817Y52392
X21717Y20828
X20828Y51435
X21154Y21590
X17145Y27559
X19981Y53044
X25400Y52070
X22733Y14859
X20447Y52324
X9906Y30226
X20955Y19990
X9906Y28194
X20286Y19473
X31242Y16256
X30480Y15723
X29337Y28917
X28334Y43180
X27940Y12700
X17272Y8128
X17145Y2286
X27940Y8890
X20193Y16510
X24384Y5461
X24384Y7531
X28334Y98298
X24511Y13462
X21442Y14838
X20828Y15621
X39370Y18034
X34925Y18161
X35560Y23114
X34058Y23136
X38481Y17145
X38481Y24257
X29210Y19431
X31699Y24917
X29210Y20320
X30861Y24917
X29083Y18593
X31750Y29210
X24765Y22223
X27978Y30052
X29845Y13081
X34290Y31750
X28321Y15223
X33020Y34290
X16208Y24971
X11430Y46990
X16891Y25473
X12700Y45720
X16383Y26192
X12700Y43180
X15370Y25014
X12700Y40640
X108585Y27432
X108585Y45720
X107442Y26529
X107442Y45720
X105156Y25527
X105156Y45593
X102616Y26174
X102997Y45339
X101854Y28321
X101854Y45593
X100838Y27723
X100838Y45085
X74168Y10160
X71628Y10160
X70358Y10160
X72898Y10160
X69215Y10160
X68707Y14859
X73660Y15113
X73279Y17780
X69215Y5588
X72517Y7874
X78867Y10922
X81661Y12573
X86360Y19812
X81661Y21717
X81661Y20828
X78232Y30734
X71501Y25781
X73787Y26924
X73787Y24511
X79756Y35814
X78867Y51308
X90932Y49149
X71628Y50800
X75438Y52070
X69088Y48768
X106299Y46228
X100838Y22479
X94488Y18415
X98298Y22606
X96139Y20701
X96139Y9779
X98933Y9271
X115443Y7366
X83566Y7747
X89446Y46228
X89916Y29337
X108966Y10160
X108966Y5753
X96393Y17145
X97282Y15367
X93345Y11430
X90026Y11320
X79248Y17780
X89129Y17780
X74168Y12065
X66316Y10900
X74930Y11473
X66216Y9779
X89683Y52091
X85979Y24308
X89772Y51181
X86360Y23495
X90678Y21336
X79629Y52197
X80021Y44693
M30