M48
;GenerationSoftware,Autodesk,EAGLE,9.5.2*%
;CreationDate,2020-09-10T14:53:56Z*%
FMAT,2
ICI,OFF
METRIC,TZ,000.000
T12C0.305
T11C0.381
T10C0.400
T9C0.508
T8C0.650
T7C0.800
T6C1.000
T5C1.016
T4C1.100
T3C1.600
T2C3.302
T1C3.800
%
G90
M71
T1
X44200Y16300
X105668Y16300
X44200Y121456
X105668Y121456
X105668Y68878
X44200Y68878
T2
X55880Y49530
X117348Y55118
X64008Y55118
X117348Y107696
X64008Y102108
X64008Y107696
X64008Y2540
X55880Y154686
X117348Y49530
X2540Y49530
X55880Y2540
X2540Y2540
X2540Y154686
X117348Y2540
X64008Y49530
X55880Y107696
X2540Y107696
X55880Y102108
X2540Y102108
X55880Y55118
X2540Y55118
X117348Y154686
X64008Y154686
X117348Y102108
T3
X24130Y30320
X85598Y30320
X85598Y82898
X85598Y135476
X24130Y135476
X24130Y82898
T4
X85598Y10320
X24130Y10320
X85598Y62898
X85598Y115476
X24130Y115476
X24130Y62898
T5
X1270Y79248
X57150Y81788
X1270Y81788
X57150Y91948
X57150Y89408
X57150Y86868
X116078Y131826
X116078Y134366
X116078Y136906
X116078Y139446
X116078Y141986
X116078Y144526
X118618Y131826
X118618Y134366
X118618Y136906
X118618Y139446
X118618Y141986
X118618Y144526
X62738Y134366
X79248Y108966
X62738Y131826
X62738Y129286
X118618Y129286
X118618Y126746
X118618Y124206
X118618Y121666
X57150Y84328
X57150Y79248
X54610Y91948
X54610Y89408
X9398Y6350
X11938Y6350
X118618Y31750
X118618Y34290
X118618Y36830
X118618Y39370
X62738Y29210
X54610Y86868
X62738Y26670
X62738Y24130
X118618Y24130
X118618Y21590
X1270Y41910
X1270Y39370
X1270Y36830
X1270Y34290
X1270Y31750
X54610Y26670
X54610Y29210
X54610Y31750
X54610Y34290
X54610Y36830
X54610Y39370
X57150Y26670
X57150Y29210
X57150Y31750
X57150Y34290
X57150Y36830
X57150Y39370
X1270Y29210
X1270Y26670
X1270Y24130
X57150Y24130
X57150Y21590
X57150Y19050
X57150Y16510
X17780Y3810
X54610Y84328
X54610Y81788
X54610Y79248
X1270Y84328
X70866Y6350
X73406Y6350
X118618Y19050
X118618Y16510
X79248Y3810
X1270Y86868
X1270Y89408
X1270Y91948
X1270Y94488
X9398Y58928
X11938Y58928
X62738Y41910
X62738Y39370
X62738Y36830
X62738Y34290
X62738Y31750
X116078Y26670
X116078Y29210
X116078Y31750
X116078Y34290
X116078Y36830
X116078Y39370
X118618Y26670
X118618Y29210
X1270Y76708
X57150Y76708
X57150Y74168
X57150Y71628
X57150Y69088
X17780Y56388
X70866Y58928
X73406Y58928
X62738Y94488
X62738Y91948
X62738Y89408
X62738Y86868
X62738Y84328
X116078Y79248
X116078Y81788
X116078Y84328
X116078Y86868
X116078Y89408
X116078Y91948
X118618Y79248
X118618Y81788
X118618Y84328
X118618Y86868
X118618Y89408
X118618Y91948
X62738Y81788
X62738Y79248
X62738Y76708
X118618Y76708
X118618Y74168
X118618Y71628
X118618Y69088
X79248Y56388
X9398Y111506
X11938Y111506
X1270Y147066
X1270Y144526
X1270Y141986
X1270Y139446
X1270Y136906
X54610Y131826
X54610Y134366
X54610Y136906
X54610Y139446
X54610Y141986
X54610Y144526
X57150Y131826
X57150Y134366
X57150Y136906
X57150Y139446
X57150Y141986
X57150Y144526
X1270Y134366
X1270Y131826
X1270Y129286
X57150Y129286
X57150Y126746
X57150Y124206
X57150Y121666
X17780Y108966
X70866Y111506
X73406Y111506
X62738Y147066
X62738Y144526
X62738Y141986
X62738Y139446
X62738Y136906
T6
X36830Y17070
X98298Y17070
X36830Y69648
X98298Y69648
X36830Y122226
X98298Y122226
T7
X33020Y16780
X94488Y16780
X33020Y69358
X33020Y121936
X94488Y69358
X94488Y121936
T8
X4905Y13050
X4905Y7270
X66373Y13050
X66373Y7270
X4905Y65628
X66373Y65628
X66373Y59848
X4905Y118206
X4905Y112426
X4905Y59848
X66373Y112426
X66373Y118206
T9
X77343Y75438
X77343Y70358
X76073Y71628
X76073Y72898
X76073Y74168
X76073Y75438
X76073Y70358
X77343Y19050
X77343Y20320
X77343Y21590
X77343Y22860
X77343Y17780
X76073Y19050
X76073Y20320
X76073Y21590
X76073Y22860
X76073Y17780
X15875Y71628
X15875Y72898
X14605Y19050
X15875Y75438
X15875Y70358
X15875Y74168
X14605Y71628
X14605Y72898
X77343Y124206
X77343Y125476
X77343Y126746
X77343Y128016
X77343Y122936
X76073Y124206
X76073Y125476
X76073Y126746
X76073Y128016
X76073Y122936
X14605Y74168
X14605Y75438
X14605Y70358
X15875Y19050
X15875Y20320
X15875Y21590
X15875Y22860
X15875Y17780
X14605Y20320
X14605Y21590
X14605Y22860
X15875Y124206
X15875Y125476
X15875Y126746
X15875Y128016
X15875Y122936
X14605Y124206
X14605Y125476
X14605Y126746
X14605Y128016
X14605Y122936
X14605Y17780
X77343Y71628
X77343Y72898
X77343Y74168
T10
X66903Y14478
X1255Y119634
X1255Y110998
X5435Y110998
X5435Y119634
X66903Y5842
X62723Y5842
X62723Y67056
X62723Y58420
X66903Y58420
X66903Y67056
X62723Y14478
X5435Y14478
X5435Y5842
X1255Y5842
X1255Y14478
X62723Y119634
X62723Y110998
X66903Y119634
X5435Y67056
X5435Y58420
X1255Y58420
X1255Y67056
X66903Y110998
T11
X43688Y3937
X105156Y109093
X43688Y109093
X43688Y56515
X105156Y56515
X105156Y3937
T12
X27978Y96266
X28448Y81915
X45720Y62738
X47498Y58331
X34925Y67818
X38481Y66040
X28558Y63898
X27661Y70358
X9271Y93091
X9271Y89789
X35941Y74676
X13716Y64516
X4848Y63478
X15621Y64178
X4748Y62357
X27510Y102743
X27788Y73914
X26672Y102872
X27788Y74803
X21755Y75639
X23513Y102743
X16997Y81809
X18810Y102305
X17526Y81153
X19442Y102859
X21402Y80645
X22675Y102749
X26251Y102108
X24892Y78105
X20561Y79629
X21531Y102929
X7620Y103378
X21463Y73533
X22013Y102225
X22352Y74295
X24422Y101951
X24003Y67691
X20004Y102235
X22710Y78336
X24816Y102743
X53848Y64897
X24130Y66801
X18513Y101467
X54991Y62992
X24892Y66167
X17938Y102077
X21463Y67399
X20447Y68199
X27940Y65278
X17780Y61468
X27940Y61468
X17399Y67183
X17399Y62611
X21590Y65551
X22479Y66040
X34290Y59563
X34798Y69723
X38862Y71501
X37338Y76835
X36830Y72390
X20561Y76962
X20601Y102843
X29210Y72009
X31699Y77495
X29210Y72898
X30861Y77495
X29083Y71171
X31750Y81788
X24765Y74801
X27978Y82631
X14224Y87122
X11049Y98425
X28321Y67801
X33020Y84328
X25654Y102743
X24009Y68529
X25108Y64389
X29845Y65659
X34290Y84328
X51562Y57658
X16891Y65245
X40386Y95631
X17653Y84836
X17272Y89789
X40386Y89789
X87059Y91319
X85382Y79502
X105156Y95631
X93218Y92456
X80137Y84836
X79756Y87719
X105156Y83227
X84897Y78801
X86106Y91859
X74168Y60452
X71628Y62738
X70358Y62738
X72898Y62738
X69215Y62738
X68707Y67437
X73660Y67691
X73279Y70358
X69215Y58166
X72517Y60452
X78867Y63500
X81661Y65151
X86360Y72390
X81661Y74295
X81661Y73406
X78994Y99187
X74168Y80518
X89789Y99187
X71628Y100838
X75438Y102108
X69088Y98806
X106299Y96266
X100838Y75057
X98298Y75184
X96139Y62357
X98933Y61849
X115443Y59944
X81661Y63754
X77978Y66802
X78994Y82677
X81788Y71628
X93218Y94361
X77216Y61595
X85598Y55118
X95758Y55118
X93218Y68326
X97155Y68707
X83058Y99187
X78232Y85217
X89446Y96266
X89916Y81915
X107188Y62738
X108966Y58331
X96393Y67818
X99949Y66040
X90026Y63898
X89129Y70358
X70739Y93091
X70739Y89789
X97409Y74676
X75184Y64516
X66316Y63478
X77089Y64178
X66216Y62357
X88978Y102743
X89256Y73914
X88140Y102872
X89256Y74803
X83223Y75639
X84981Y102743
X78465Y81809
X80278Y102305
X78994Y81153
X80910Y102859
X82870Y80645
X84143Y102749
X87719Y102108
X86360Y78105
X82029Y79629
X82999Y102929
X69088Y103378
X82931Y73533
X83481Y102225
X83820Y74295
X85890Y101951
X85471Y67691
X81472Y102235
X84178Y78336
X86284Y102743
X115316Y64897
X85598Y66801
X79981Y101467
X116459Y62992
X86360Y66167
X79406Y102077
X82931Y67399
X81915Y68199
X89408Y65278
X79248Y61468
X89408Y61468
X78867Y67183
X78867Y62611
X83058Y65551
X83947Y66040
X95758Y59563
X96266Y69723
X100330Y71501
X98806Y76835
X98298Y72390
X82029Y76962
X82069Y102843
X90678Y72009
X93167Y77495
X90678Y72898
X92329Y77495
X90551Y71171
X93218Y81788
X86233Y74801
X89446Y82631
X75692Y87122
X72517Y98425
X89789Y67801
X94488Y84328
X87122Y102743
X85477Y68529
X86576Y64389
X91313Y65659
X95758Y84328
X113030Y57658
X78359Y65245
X101854Y95631
X79121Y84836
X78740Y89789
X101854Y89789
X25590Y143897
X23914Y132080
X43688Y148209
X31750Y145034
X18669Y137414
X18288Y140297
X43688Y135805
X23429Y131379
X24638Y144437
X12700Y113030
X10160Y115316
X8890Y115316
X11430Y115316
X7747Y115316
X7239Y120015
X12192Y120269
X11811Y122936
X7747Y110744
X11049Y113030
X17399Y116078
X20193Y117729
X24892Y124968
X79756Y35141
X20193Y125984
X17526Y151765
X12700Y133096
X28321Y151765
X10160Y153416
X13970Y154686
X7620Y151384
X44831Y148844
X39370Y127635
X36830Y127762
X34671Y114935
X37465Y114427
X53975Y112522
X20193Y116332
X16510Y119380
X17526Y135255
X20320Y124206
X31750Y146939
X15748Y114173
X24130Y107696
X34290Y107696
X31750Y120904
X35687Y121285
X21590Y151765
X16764Y137795
X27978Y148844
X28448Y134493
X45720Y115316
X47498Y110909
X34925Y120396
X38481Y118618
X28558Y116476
X27661Y122936
X9271Y145669
X9271Y142367
X35941Y127254
X13716Y117094
X4848Y116056
X15621Y116756
X4748Y114935
X27510Y155321
X27788Y126492
X26672Y155450
X27788Y127381
X21755Y128217
X23513Y155321
X16997Y134387
X18810Y154883
X17526Y133731
X19442Y155437
X21402Y133223
X22675Y155327
X26251Y154686
X24892Y130683
X20561Y132207
X21531Y155507
X7620Y155956
X21463Y126111
X22013Y154803
X22352Y126873
X24422Y154529
X24003Y120269
X20004Y154813
X22710Y130914
X24816Y155321
X53848Y117475
X24130Y119379
X18513Y154045
X54991Y115570
X24892Y118745
X17938Y154655
X21463Y119977
X20447Y120777
X27940Y117856
X17780Y114046
X27940Y114046
X17399Y119761
X17399Y115189
X21590Y118129
X22479Y118618
X34290Y112141
X34798Y122301
X38862Y124079
X37338Y129413
X36830Y124968
X20561Y129540
X20601Y155421
X29210Y124587
X31699Y130073
X29210Y125476
X30861Y130073
X29083Y123749
X31750Y134366
X24765Y127379
X27978Y135209
X14224Y139700
X11049Y151003
X28321Y120379
X33020Y136906
X25654Y155321
X24009Y121107
X25108Y116967
X25590Y38741
X29845Y118237
X34290Y136906
X51562Y110236
X16891Y117823
X40386Y148209
X17653Y137414
X17272Y142367
X40386Y142367
X87059Y143897
X85382Y132080
X105156Y148209
X93218Y145034
X80137Y137414
X79756Y140297
X105156Y135805
X84897Y131379
X86106Y144437
X74168Y113030
X71628Y115316
X70358Y115316
X72898Y115316
X69215Y115316
X68707Y120015
X73660Y120269
X73279Y122936
X69215Y110744
X72517Y113030
X78867Y116078
X81661Y117729
X86360Y124968
X81661Y126873
X81661Y125984
X78994Y151765
X74168Y133096
X89789Y151765
X71628Y153416
X75438Y154686
X69088Y151384
X106299Y148844
X100838Y127635
X98298Y127762
X96139Y114935
X98933Y114427
X115443Y112522
X81661Y116332
X77978Y119380
X78994Y135255
X81788Y124206
X93218Y146939
X77216Y114173
X85598Y107696
X95758Y107696
X93218Y120904
X97155Y121285
X83058Y151765
X78232Y137795
X89446Y148844
X89916Y134493
X107188Y115316
X108966Y110909
X96393Y120396
X99949Y118618
X90026Y116476
X89129Y122936
X70739Y145669
X70739Y142367
X97409Y127254
X75184Y117094
X66316Y116056
X77089Y116756
X66216Y114935
X88978Y155321
X89256Y126492
X88140Y155450
X89256Y127381
X83223Y128217
X84981Y155321
X78465Y134387
X80278Y154883
X78994Y133731
X80910Y155437
X82870Y133223
X84143Y155327
X87719Y154686
X86360Y130683
X82029Y132207
X82999Y155507
X69088Y155956
X82931Y126111
X83481Y154803
X83820Y126873
X85890Y154529
X85471Y120269
X81472Y154813
X84178Y130914
X86284Y155321
X115316Y117475
X85598Y119379
X79981Y154045
X116459Y115570
X86360Y118745
X79406Y154655
X82931Y119977
X81915Y120777
X89408Y117856
X79248Y114046
X89408Y114046
X78867Y119761
X78867Y115189
X83058Y118129
X83947Y118618
X95758Y112141
X96266Y122301
X100330Y124079
X98806Y129413
X98298Y124968
X82029Y129540
X82069Y155421
X90678Y124587
X93167Y130073
X90678Y125476
X92329Y130073
X90551Y123749
X93218Y134366
X86233Y127379
X89446Y135209
X75692Y139700
X72517Y151003
X89789Y120379
X94488Y136906
X87122Y155321
X85477Y121107
X86576Y116967
X23914Y26924
X91313Y118237
X95758Y136906
X113030Y110236
X78359Y117823
X101854Y148209
X79121Y137414
X78740Y142367
X101854Y142367
X43688Y43053
X31750Y39878
X18669Y32258
X18288Y35141
X43688Y30649
X23429Y26223
X24638Y39281
X12700Y7874
X10160Y10160
X8890Y10160
X11430Y10160
X7747Y10160
X7239Y14859
X12192Y15113
X11811Y17780
X7747Y5588
X11049Y7874
X17399Y10922
X20193Y12573
X24892Y19812
X20193Y21717
X20193Y20828
X17526Y46609
X12700Y27940
X28321Y46609
X10160Y48260
X13970Y49530
X7620Y46228
X44831Y43688
X39370Y22479
X36830Y22606
X34671Y9779
X37465Y9271
X53975Y7366
X20193Y11176
X16510Y14224
X17526Y30099
X20320Y19050
X31750Y41783
X15748Y9017
X24130Y2540
X34290Y2540
X31750Y15748
X35687Y16129
X21590Y46609
X16764Y32639
X27978Y43688
X28448Y29337
X45720Y10160
X47498Y5753
X34925Y15240
X38481Y13462
X28558Y11320
X27661Y17780
X9271Y40513
X9271Y37211
X35941Y22098
X13716Y11938
X4848Y10900
X15621Y11600
X4748Y9779
X27510Y50165
X27788Y21336
X26672Y50294
X27788Y22225
X21755Y23061
X23513Y50165
X16997Y29231
X18810Y49727
X17526Y28575
X19442Y50281
X21402Y28067
X22675Y50171
X26251Y49530
X24892Y25527
X20561Y27051
X21531Y50351
X7620Y50800
X21463Y20955
X22013Y49647
X22352Y21717
X24422Y49373
X24003Y15113
X20004Y49657
X22710Y25758
X24816Y50165
X53848Y12319
X24130Y14223
X18513Y48889
X54991Y10414
X24892Y13589
X17938Y49499
X21463Y14821
X20447Y15621
X27940Y12700
X17780Y8890
X27940Y8890
X17399Y14605
X17399Y10033
X21590Y12973
X22479Y13462
X34290Y6985
X34798Y17145
X38862Y18923
X37338Y24257
X36830Y19812
X20561Y24384
X20601Y50265
X29210Y19431
X31699Y24917
X29210Y20320
X30861Y24917
X29083Y18593
X31750Y29210
X24765Y22223
X27978Y30052
X14224Y34544
X11049Y45847
X28321Y15223
X33020Y31750
X25654Y50165
X24009Y15951
X25108Y11811
X29845Y13081
X34290Y31750
X51562Y5080
X16891Y12667
X40386Y43053
X17653Y32258
X17272Y37211
X40386Y37211
X87059Y38741
X85382Y26924
X105156Y43053
X93218Y39878
X80137Y32258
X105156Y30649
X84897Y26223
X86106Y39281
X74168Y7874
X71628Y10160
X70358Y10160
X72898Y10160
X69215Y10160
X68707Y14859
X73660Y15113
X73279Y17780
X69215Y5588
X72517Y7874
X78867Y10922
X81661Y12573
X86360Y19812
X81661Y21717
X81661Y20828
X78994Y46609
X74168Y27940
X89789Y46609
X71628Y48260
X75438Y49530
X69088Y46228
X106299Y43688
X100838Y22479
X98298Y22606
X96139Y9779
X98933Y9271
X115443Y7366
X81661Y11176
X77978Y14224
X78994Y30099
X81788Y19050
X93218Y41783
X77216Y9017
X20193Y126873
X85598Y2540
X95758Y2540
X93218Y15748
X97155Y16129
X83058Y46609
X78232Y32639
X89446Y43688
X89916Y29337
X107188Y10160
X108966Y5753
X96393Y15240
X99949Y13462
X90026Y11320
X89129Y17780
X70739Y40513
X70739Y37211
X97409Y22098
X75184Y11938
X66316Y10900
X77089Y11600
X66216Y9779
X88978Y50165
X89256Y21336
X88140Y50294
X89256Y22225
X83223Y23061
X84981Y50165
X78465Y29231
X80278Y49727
X78994Y28575
X80910Y50281
X82870Y28067
X84143Y50171
X87719Y49530
X86360Y25527
X82029Y27051
X82999Y50351
X69088Y50800
X82931Y20955
X83481Y49647
X83820Y21717
X85890Y49373
X85471Y15113
X81472Y49657
X84178Y25758
X86284Y50165
X115316Y12319
X85598Y14223
X79981Y48889
X116459Y10414
X86360Y13589
X79406Y49499
X82931Y14821
X81915Y15621
X89408Y12700
X79248Y8890
X89408Y8890
X78867Y14605
X78867Y10033
X83058Y12973
X83947Y13462
X95758Y6985
X96266Y17145
X100330Y18923
X98806Y24257
X98298Y19812
X82029Y24384
X82069Y50265
X90678Y19431
X93167Y24917
X90678Y20320
X92329Y24917
X90551Y18593
X93218Y29210
X86233Y22223
X89446Y30052
X75692Y34544
X72517Y45847
X89789Y15223
X94488Y31750
X87122Y50165
X85477Y15951
X86576Y11811
X91313Y13081
X95758Y31750
X113030Y5080
X78359Y12667
X101854Y43053
X79121Y32258
X78740Y37211
X101854Y37211
X25590Y91319
X23914Y79502
X43688Y95631
X31750Y92456
X18669Y84836
X18288Y87719
X43688Y83227
X23429Y78801
X24638Y91859
X12700Y60452
X10160Y62738
X8890Y62738
X11430Y62738
X7747Y62738
X7239Y67437
X12192Y67691
X11811Y70358
X7747Y58166
X11049Y60452
X17399Y63500
X20193Y65151
X24892Y72390
X20193Y74295
X20193Y73406
X17526Y99187
X12700Y80518
X28321Y99187
X10160Y100838
X13970Y102108
X7620Y98806
X44831Y96266
X39370Y75057
X36830Y75184
X34671Y62357
X37465Y61849
X53975Y59944
X20193Y63754
X16510Y66802
X17526Y82677
X20320Y71628
X31750Y94361
X15748Y61595
X24130Y55118
X34290Y55118
X31750Y68326
X35687Y68707
X21590Y99187
X16764Y85217
M30