G04 EAGLE Gerber RS-274X export*
G75*
%MOMM*%
%FSLAX34Y34*%
%LPD*%
%INSoldermask Top*%
%IPPOS*%
%AMOC8*
5,1,8,0,0,1.08239X$1,22.5*%
G01*
%ADD10R,1.203200X0.503200*%
%ADD11R,1.203200X0.803200*%
%ADD12C,0.853200*%
%ADD13R,1.203200X1.303200*%
%ADD14R,0.503200X0.853200*%
%ADD15R,2.553200X1.803200*%
%ADD16R,1.303200X1.203200*%
%ADD17C,0.838200*%
%ADD18R,0.453200X0.478200*%
%ADD19R,0.478200X0.453200*%
%ADD20R,0.928200X0.725200*%
%ADD21C,1.003200*%
%ADD22C,0.600000*%
%ADD23R,0.703200X0.403200*%
%ADD24R,0.403200X0.703200*%
%ADD25C,3.505200*%
%ADD26R,0.503200X1.603200*%
%ADD27R,1.453200X2.503200*%
%ADD28R,1.603200X1.803200*%
%ADD29R,1.700000X4.200000*%
%ADD30R,0.833200X1.033200*%
%ADD31R,2.203200X1.403200*%
%ADD32R,1.553200X0.803200*%
%ADD33R,1.473200X0.838200*%
%ADD34C,3.530600*%
%ADD35R,3.203200X1.103200*%
%ADD36R,0.965200X1.727200*%
%ADD37R,0.838200X1.473200*%
%ADD38R,1.203200X3.003200*%
%ADD39C,2.082800*%
%ADD40C,1.203200*%
%ADD41C,1.303200*%
%ADD42C,1.803200*%
%ADD43R,1.753200X0.503200*%
%ADD44R,2.953200X1.403200*%
%ADD45C,5.703200*%
%ADD46R,0.803200X0.725200*%
%ADD47C,0.350000*%
%ADD48R,2.003200X1.603200*%
%ADD49R,1.603200X2.103200*%
%ADD50R,1.003200X1.703200*%
%ADD51R,0.753200X1.403200*%
%ADD52C,1.270000*%
%ADD53C,1.703200*%

G36*
X752986Y934737D02*
X752986Y934737D01*
X753013Y934733D01*
X753054Y934751D01*
X753096Y934760D01*
X753132Y934786D01*
X753141Y934790D01*
X753145Y934795D01*
X753156Y934804D01*
X777156Y958804D01*
X777177Y958842D01*
X777206Y958875D01*
X777210Y958902D01*
X777223Y958926D01*
X777220Y958970D01*
X777227Y959013D01*
X777216Y959039D01*
X777214Y959066D01*
X777188Y959101D01*
X777170Y959141D01*
X777147Y959156D01*
X777131Y959178D01*
X777090Y959194D01*
X777054Y959218D01*
X777010Y959225D01*
X777001Y959228D01*
X776994Y959227D01*
X776980Y959229D01*
X752980Y959229D01*
X752964Y959224D01*
X752947Y959227D01*
X752897Y959205D01*
X752846Y959190D01*
X752835Y959177D01*
X752819Y959170D01*
X752789Y959125D01*
X752754Y959085D01*
X752751Y959068D01*
X752742Y959054D01*
X752731Y958980D01*
X752731Y934980D01*
X752743Y934938D01*
X752746Y934894D01*
X752762Y934872D01*
X752770Y934846D01*
X752803Y934817D01*
X752829Y934782D01*
X752855Y934772D01*
X752875Y934754D01*
X752919Y934747D01*
X752959Y934732D01*
X752986Y934737D01*
G37*
G36*
X138306Y934737D02*
X138306Y934737D01*
X138333Y934733D01*
X138374Y934751D01*
X138416Y934760D01*
X138452Y934786D01*
X138461Y934790D01*
X138465Y934795D01*
X138476Y934804D01*
X162476Y958804D01*
X162497Y958842D01*
X162526Y958875D01*
X162530Y958902D01*
X162543Y958926D01*
X162540Y958970D01*
X162547Y959013D01*
X162536Y959039D01*
X162534Y959066D01*
X162508Y959101D01*
X162490Y959141D01*
X162467Y959156D01*
X162451Y959178D01*
X162410Y959194D01*
X162374Y959218D01*
X162330Y959225D01*
X162321Y959228D01*
X162314Y959227D01*
X162300Y959229D01*
X138300Y959229D01*
X138284Y959224D01*
X138267Y959227D01*
X138217Y959205D01*
X138166Y959190D01*
X138155Y959177D01*
X138139Y959170D01*
X138109Y959125D01*
X138074Y959085D01*
X138071Y959068D01*
X138062Y959054D01*
X138051Y958980D01*
X138051Y934980D01*
X138063Y934938D01*
X138066Y934894D01*
X138082Y934872D01*
X138090Y934846D01*
X138123Y934817D01*
X138149Y934782D01*
X138175Y934772D01*
X138195Y934754D01*
X138239Y934747D01*
X138279Y934732D01*
X138306Y934737D01*
G37*
G36*
X752986Y383557D02*
X752986Y383557D01*
X753013Y383553D01*
X753054Y383571D01*
X753096Y383580D01*
X753132Y383606D01*
X753141Y383610D01*
X753145Y383615D01*
X753156Y383624D01*
X777156Y407624D01*
X777177Y407662D01*
X777206Y407695D01*
X777210Y407722D01*
X777223Y407746D01*
X777220Y407790D01*
X777227Y407833D01*
X777216Y407859D01*
X777214Y407886D01*
X777188Y407921D01*
X777170Y407961D01*
X777147Y407976D01*
X777131Y407998D01*
X777090Y408014D01*
X777054Y408038D01*
X777010Y408045D01*
X777001Y408048D01*
X776994Y408047D01*
X776980Y408049D01*
X752980Y408049D01*
X752964Y408044D01*
X752947Y408047D01*
X752897Y408025D01*
X752846Y408010D01*
X752835Y407997D01*
X752819Y407990D01*
X752789Y407945D01*
X752754Y407905D01*
X752751Y407888D01*
X752742Y407874D01*
X752731Y407800D01*
X752731Y383800D01*
X752743Y383758D01*
X752746Y383714D01*
X752762Y383692D01*
X752770Y383666D01*
X752803Y383637D01*
X752829Y383602D01*
X752855Y383592D01*
X752875Y383574D01*
X752919Y383567D01*
X752959Y383552D01*
X752986Y383557D01*
G37*
G36*
X138306Y383557D02*
X138306Y383557D01*
X138333Y383553D01*
X138374Y383571D01*
X138416Y383580D01*
X138452Y383606D01*
X138461Y383610D01*
X138465Y383615D01*
X138476Y383624D01*
X162476Y407624D01*
X162497Y407662D01*
X162526Y407695D01*
X162530Y407722D01*
X162543Y407746D01*
X162540Y407790D01*
X162547Y407833D01*
X162536Y407859D01*
X162534Y407886D01*
X162508Y407921D01*
X162490Y407961D01*
X162467Y407976D01*
X162451Y407998D01*
X162410Y408014D01*
X162374Y408038D01*
X162330Y408045D01*
X162321Y408048D01*
X162314Y408047D01*
X162300Y408049D01*
X138300Y408049D01*
X138284Y408044D01*
X138267Y408047D01*
X138217Y408025D01*
X138166Y408010D01*
X138155Y407997D01*
X138139Y407990D01*
X138109Y407945D01*
X138074Y407905D01*
X138071Y407888D01*
X138062Y407874D01*
X138051Y407800D01*
X138051Y383800D01*
X138063Y383758D01*
X138066Y383714D01*
X138082Y383692D01*
X138090Y383666D01*
X138123Y383637D01*
X138149Y383602D01*
X138175Y383592D01*
X138195Y383574D01*
X138239Y383567D01*
X138279Y383552D01*
X138306Y383557D01*
G37*
G36*
X60304Y689934D02*
X60304Y689934D01*
X60307Y689931D01*
X61429Y690086D01*
X61434Y690091D01*
X61438Y690088D01*
X62509Y690459D01*
X62513Y690465D01*
X62518Y690463D01*
X63495Y691036D01*
X63498Y691042D01*
X63503Y691041D01*
X64350Y691794D01*
X64352Y691801D01*
X64357Y691801D01*
X65041Y692704D01*
X65041Y692711D01*
X65046Y692712D01*
X65541Y693731D01*
X65539Y693738D01*
X65544Y693740D01*
X65831Y694837D01*
X65829Y694841D01*
X65831Y694842D01*
X65829Y694844D01*
X65832Y694846D01*
X65899Y695977D01*
X65897Y695981D01*
X65899Y695983D01*
X65832Y697114D01*
X65827Y697119D01*
X65831Y697123D01*
X65544Y698220D01*
X65538Y698224D01*
X65541Y698229D01*
X65046Y699248D01*
X65040Y699251D01*
X65041Y699256D01*
X64357Y700159D01*
X64350Y700161D01*
X64350Y700166D01*
X63503Y700919D01*
X63496Y700919D01*
X63495Y700924D01*
X62518Y701497D01*
X62511Y701496D01*
X62509Y701501D01*
X61438Y701872D01*
X61432Y701869D01*
X61429Y701874D01*
X60307Y702029D01*
X60302Y702026D01*
X60300Y702029D01*
X48300Y702029D01*
X48295Y702026D01*
X48292Y702029D01*
X47025Y701824D01*
X47019Y701818D01*
X47015Y701821D01*
X45825Y701339D01*
X45821Y701332D01*
X45815Y701334D01*
X44762Y700600D01*
X44760Y700592D01*
X44754Y700593D01*
X43891Y699643D01*
X43890Y699634D01*
X43885Y699634D01*
X43255Y698515D01*
X43256Y698507D01*
X43250Y698505D01*
X42885Y697275D01*
X42888Y697267D01*
X42883Y697264D01*
X42801Y695983D01*
X42804Y695979D01*
X42801Y695977D01*
X42883Y694696D01*
X42889Y694690D01*
X42885Y694685D01*
X43250Y693455D01*
X43257Y693450D01*
X43255Y693445D01*
X43885Y692326D01*
X43892Y692323D01*
X43891Y692317D01*
X44754Y691367D01*
X44762Y691366D01*
X44762Y691360D01*
X45815Y690626D01*
X45823Y690626D01*
X45825Y690621D01*
X47015Y690139D01*
X47022Y690141D01*
X47025Y690136D01*
X48292Y689931D01*
X48297Y689934D01*
X48300Y689931D01*
X60300Y689931D01*
X60304Y689934D01*
G37*
G36*
X674984Y689934D02*
X674984Y689934D01*
X674987Y689931D01*
X676109Y690086D01*
X676114Y690091D01*
X676118Y690088D01*
X677189Y690459D01*
X677193Y690465D01*
X677198Y690463D01*
X678175Y691036D01*
X678178Y691042D01*
X678183Y691041D01*
X679030Y691794D01*
X679032Y691801D01*
X679037Y691801D01*
X679721Y692704D01*
X679721Y692711D01*
X679726Y692712D01*
X680221Y693731D01*
X680219Y693738D01*
X680224Y693740D01*
X680511Y694837D01*
X680509Y694841D01*
X680511Y694842D01*
X680509Y694844D01*
X680512Y694846D01*
X680579Y695977D01*
X680577Y695981D01*
X680579Y695983D01*
X680512Y697114D01*
X680507Y697119D01*
X680511Y697123D01*
X680224Y698220D01*
X680218Y698224D01*
X680221Y698229D01*
X679726Y699248D01*
X679720Y699251D01*
X679721Y699256D01*
X679037Y700159D01*
X679030Y700161D01*
X679030Y700166D01*
X678183Y700919D01*
X678176Y700919D01*
X678175Y700924D01*
X677198Y701497D01*
X677191Y701496D01*
X677189Y701501D01*
X676118Y701872D01*
X676112Y701869D01*
X676109Y701874D01*
X674987Y702029D01*
X674982Y702026D01*
X674980Y702029D01*
X662980Y702029D01*
X662975Y702026D01*
X662972Y702029D01*
X661705Y701824D01*
X661699Y701818D01*
X661695Y701821D01*
X660505Y701339D01*
X660501Y701332D01*
X660495Y701334D01*
X659442Y700600D01*
X659440Y700592D01*
X659434Y700593D01*
X658571Y699643D01*
X658570Y699634D01*
X658565Y699634D01*
X657935Y698515D01*
X657936Y698507D01*
X657930Y698505D01*
X657565Y697275D01*
X657568Y697267D01*
X657563Y697264D01*
X657481Y695983D01*
X657484Y695979D01*
X657481Y695977D01*
X657563Y694696D01*
X657569Y694690D01*
X657565Y694685D01*
X657930Y693455D01*
X657937Y693450D01*
X657935Y693445D01*
X658565Y692326D01*
X658572Y692323D01*
X658571Y692317D01*
X659434Y691367D01*
X659442Y691366D01*
X659442Y691360D01*
X660495Y690626D01*
X660503Y690626D01*
X660505Y690621D01*
X661695Y690139D01*
X661702Y690141D01*
X661705Y690136D01*
X662972Y689931D01*
X662977Y689934D01*
X662980Y689931D01*
X674980Y689931D01*
X674984Y689934D01*
G37*
G36*
X674984Y603534D02*
X674984Y603534D01*
X674987Y603531D01*
X676109Y603686D01*
X676114Y603691D01*
X676118Y603688D01*
X677189Y604059D01*
X677193Y604065D01*
X677198Y604063D01*
X678175Y604636D01*
X678178Y604642D01*
X678183Y604641D01*
X679030Y605394D01*
X679032Y605401D01*
X679037Y605401D01*
X679721Y606304D01*
X679721Y606311D01*
X679726Y606312D01*
X680221Y607331D01*
X680219Y607338D01*
X680224Y607340D01*
X680511Y608437D01*
X680509Y608441D01*
X680511Y608442D01*
X680509Y608444D01*
X680512Y608446D01*
X680579Y609577D01*
X680577Y609581D01*
X680579Y609583D01*
X680512Y610714D01*
X680507Y610719D01*
X680511Y610723D01*
X680224Y611820D01*
X680218Y611824D01*
X680221Y611829D01*
X679726Y612848D01*
X679720Y612851D01*
X679721Y612856D01*
X679037Y613759D01*
X679030Y613761D01*
X679030Y613766D01*
X678183Y614519D01*
X678176Y614519D01*
X678175Y614524D01*
X677198Y615097D01*
X677191Y615096D01*
X677189Y615101D01*
X676118Y615472D01*
X676112Y615469D01*
X676109Y615474D01*
X674987Y615629D01*
X674982Y615626D01*
X674980Y615629D01*
X662980Y615629D01*
X662975Y615626D01*
X662972Y615629D01*
X661705Y615424D01*
X661699Y615418D01*
X661695Y615421D01*
X660505Y614939D01*
X660501Y614932D01*
X660495Y614934D01*
X659442Y614200D01*
X659440Y614192D01*
X659434Y614193D01*
X658571Y613243D01*
X658570Y613234D01*
X658565Y613234D01*
X657935Y612115D01*
X657936Y612107D01*
X657930Y612105D01*
X657565Y610875D01*
X657568Y610867D01*
X657563Y610864D01*
X657481Y609583D01*
X657484Y609579D01*
X657481Y609577D01*
X657563Y608296D01*
X657569Y608290D01*
X657565Y608285D01*
X657930Y607055D01*
X657937Y607050D01*
X657935Y607045D01*
X658565Y605926D01*
X658572Y605923D01*
X658571Y605917D01*
X659434Y604967D01*
X659442Y604966D01*
X659442Y604960D01*
X660495Y604226D01*
X660503Y604226D01*
X660505Y604221D01*
X661695Y603739D01*
X661702Y603741D01*
X661705Y603736D01*
X662972Y603531D01*
X662977Y603534D01*
X662980Y603531D01*
X674980Y603531D01*
X674984Y603534D01*
G37*
G36*
X60304Y603534D02*
X60304Y603534D01*
X60307Y603531D01*
X61429Y603686D01*
X61434Y603691D01*
X61438Y603688D01*
X62509Y604059D01*
X62513Y604065D01*
X62518Y604063D01*
X63495Y604636D01*
X63498Y604642D01*
X63503Y604641D01*
X64350Y605394D01*
X64352Y605401D01*
X64357Y605401D01*
X65041Y606304D01*
X65041Y606311D01*
X65046Y606312D01*
X65541Y607331D01*
X65539Y607338D01*
X65544Y607340D01*
X65831Y608437D01*
X65829Y608441D01*
X65831Y608442D01*
X65829Y608444D01*
X65832Y608446D01*
X65899Y609577D01*
X65897Y609581D01*
X65899Y609583D01*
X65832Y610714D01*
X65827Y610719D01*
X65831Y610723D01*
X65544Y611820D01*
X65538Y611824D01*
X65541Y611829D01*
X65046Y612848D01*
X65040Y612851D01*
X65041Y612856D01*
X64357Y613759D01*
X64350Y613761D01*
X64350Y613766D01*
X63503Y614519D01*
X63496Y614519D01*
X63495Y614524D01*
X62518Y615097D01*
X62511Y615096D01*
X62509Y615101D01*
X61438Y615472D01*
X61432Y615469D01*
X61429Y615474D01*
X60307Y615629D01*
X60302Y615626D01*
X60300Y615629D01*
X48300Y615629D01*
X48295Y615626D01*
X48292Y615629D01*
X47025Y615424D01*
X47019Y615418D01*
X47015Y615421D01*
X45825Y614939D01*
X45821Y614932D01*
X45815Y614934D01*
X44762Y614200D01*
X44760Y614192D01*
X44754Y614193D01*
X43891Y613243D01*
X43890Y613234D01*
X43885Y613234D01*
X43255Y612115D01*
X43256Y612107D01*
X43250Y612105D01*
X42885Y610875D01*
X42888Y610867D01*
X42883Y610864D01*
X42801Y609583D01*
X42804Y609579D01*
X42801Y609577D01*
X42883Y608296D01*
X42889Y608290D01*
X42885Y608285D01*
X43250Y607055D01*
X43257Y607050D01*
X43255Y607045D01*
X43885Y605926D01*
X43892Y605923D01*
X43891Y605917D01*
X44754Y604967D01*
X44762Y604966D01*
X44762Y604960D01*
X45815Y604226D01*
X45823Y604226D01*
X45825Y604221D01*
X47015Y603739D01*
X47022Y603741D01*
X47025Y603736D01*
X48292Y603531D01*
X48297Y603534D01*
X48300Y603531D01*
X60300Y603531D01*
X60304Y603534D01*
G37*
G36*
X60304Y138754D02*
X60304Y138754D01*
X60307Y138751D01*
X61429Y138906D01*
X61434Y138911D01*
X61438Y138908D01*
X62509Y139279D01*
X62513Y139285D01*
X62518Y139283D01*
X63495Y139856D01*
X63498Y139862D01*
X63503Y139861D01*
X64350Y140614D01*
X64352Y140621D01*
X64357Y140621D01*
X65041Y141524D01*
X65041Y141531D01*
X65046Y141532D01*
X65541Y142551D01*
X65539Y142558D01*
X65544Y142560D01*
X65831Y143657D01*
X65829Y143661D01*
X65831Y143662D01*
X65829Y143664D01*
X65832Y143666D01*
X65899Y144797D01*
X65897Y144801D01*
X65899Y144803D01*
X65832Y145934D01*
X65827Y145939D01*
X65831Y145943D01*
X65544Y147040D01*
X65538Y147044D01*
X65541Y147049D01*
X65046Y148068D01*
X65040Y148071D01*
X65041Y148076D01*
X64357Y148979D01*
X64350Y148981D01*
X64350Y148986D01*
X63503Y149739D01*
X63496Y149739D01*
X63495Y149744D01*
X62518Y150317D01*
X62511Y150316D01*
X62509Y150321D01*
X61438Y150692D01*
X61432Y150689D01*
X61429Y150694D01*
X60307Y150849D01*
X60302Y150846D01*
X60300Y150849D01*
X48300Y150849D01*
X48295Y150846D01*
X48292Y150849D01*
X47025Y150644D01*
X47019Y150638D01*
X47015Y150641D01*
X45825Y150159D01*
X45821Y150152D01*
X45815Y150154D01*
X44762Y149420D01*
X44760Y149412D01*
X44754Y149413D01*
X43891Y148463D01*
X43890Y148454D01*
X43885Y148454D01*
X43255Y147335D01*
X43256Y147327D01*
X43250Y147325D01*
X42885Y146095D01*
X42888Y146087D01*
X42883Y146084D01*
X42801Y144803D01*
X42804Y144799D01*
X42801Y144797D01*
X42883Y143516D01*
X42889Y143510D01*
X42885Y143505D01*
X43250Y142275D01*
X43257Y142270D01*
X43255Y142265D01*
X43885Y141146D01*
X43892Y141143D01*
X43891Y141137D01*
X44754Y140187D01*
X44762Y140186D01*
X44762Y140180D01*
X45815Y139446D01*
X45823Y139446D01*
X45825Y139441D01*
X47015Y138959D01*
X47022Y138961D01*
X47025Y138956D01*
X48292Y138751D01*
X48297Y138754D01*
X48300Y138751D01*
X60300Y138751D01*
X60304Y138754D01*
G37*
G36*
X674984Y138754D02*
X674984Y138754D01*
X674987Y138751D01*
X676109Y138906D01*
X676114Y138911D01*
X676118Y138908D01*
X677189Y139279D01*
X677193Y139285D01*
X677198Y139283D01*
X678175Y139856D01*
X678178Y139862D01*
X678183Y139861D01*
X679030Y140614D01*
X679032Y140621D01*
X679037Y140621D01*
X679721Y141524D01*
X679721Y141531D01*
X679726Y141532D01*
X680221Y142551D01*
X680219Y142558D01*
X680224Y142560D01*
X680511Y143657D01*
X680509Y143661D01*
X680511Y143662D01*
X680509Y143664D01*
X680512Y143666D01*
X680579Y144797D01*
X680577Y144801D01*
X680579Y144803D01*
X680512Y145934D01*
X680507Y145939D01*
X680511Y145943D01*
X680224Y147040D01*
X680218Y147044D01*
X680221Y147049D01*
X679726Y148068D01*
X679720Y148071D01*
X679721Y148076D01*
X679037Y148979D01*
X679030Y148981D01*
X679030Y148986D01*
X678183Y149739D01*
X678176Y149739D01*
X678175Y149744D01*
X677198Y150317D01*
X677191Y150316D01*
X677189Y150321D01*
X676118Y150692D01*
X676112Y150689D01*
X676109Y150694D01*
X674987Y150849D01*
X674982Y150846D01*
X674980Y150849D01*
X662980Y150849D01*
X662975Y150846D01*
X662972Y150849D01*
X661705Y150644D01*
X661699Y150638D01*
X661695Y150641D01*
X660505Y150159D01*
X660501Y150152D01*
X660495Y150154D01*
X659442Y149420D01*
X659440Y149412D01*
X659434Y149413D01*
X658571Y148463D01*
X658570Y148454D01*
X658565Y148454D01*
X657935Y147335D01*
X657936Y147327D01*
X657930Y147325D01*
X657565Y146095D01*
X657568Y146087D01*
X657563Y146084D01*
X657481Y144803D01*
X657484Y144799D01*
X657481Y144797D01*
X657563Y143516D01*
X657569Y143510D01*
X657565Y143505D01*
X657930Y142275D01*
X657937Y142270D01*
X657935Y142265D01*
X658565Y141146D01*
X658572Y141143D01*
X658571Y141137D01*
X659434Y140187D01*
X659442Y140186D01*
X659442Y140180D01*
X660495Y139446D01*
X660503Y139446D01*
X660505Y139441D01*
X661695Y138959D01*
X661702Y138961D01*
X661705Y138956D01*
X662972Y138751D01*
X662977Y138754D01*
X662980Y138751D01*
X674980Y138751D01*
X674984Y138754D01*
G37*
G36*
X674984Y52354D02*
X674984Y52354D01*
X674987Y52351D01*
X676109Y52506D01*
X676114Y52511D01*
X676118Y52508D01*
X677189Y52879D01*
X677193Y52885D01*
X677198Y52883D01*
X678175Y53456D01*
X678178Y53462D01*
X678183Y53461D01*
X679030Y54214D01*
X679032Y54221D01*
X679037Y54221D01*
X679721Y55124D01*
X679721Y55131D01*
X679726Y55132D01*
X680221Y56151D01*
X680219Y56158D01*
X680224Y56160D01*
X680511Y57257D01*
X680509Y57261D01*
X680511Y57262D01*
X680509Y57264D01*
X680512Y57266D01*
X680579Y58397D01*
X680577Y58401D01*
X680579Y58403D01*
X680512Y59534D01*
X680507Y59539D01*
X680511Y59543D01*
X680224Y60640D01*
X680218Y60644D01*
X680221Y60649D01*
X679726Y61668D01*
X679720Y61671D01*
X679721Y61676D01*
X679037Y62579D01*
X679030Y62581D01*
X679030Y62586D01*
X678183Y63339D01*
X678176Y63339D01*
X678175Y63344D01*
X677198Y63917D01*
X677191Y63916D01*
X677189Y63921D01*
X676118Y64292D01*
X676112Y64289D01*
X676109Y64294D01*
X674987Y64449D01*
X674982Y64446D01*
X674980Y64449D01*
X662980Y64449D01*
X662975Y64446D01*
X662972Y64449D01*
X661705Y64244D01*
X661699Y64238D01*
X661695Y64241D01*
X660505Y63759D01*
X660501Y63752D01*
X660495Y63754D01*
X659442Y63020D01*
X659440Y63012D01*
X659434Y63013D01*
X658571Y62063D01*
X658570Y62054D01*
X658565Y62054D01*
X657935Y60935D01*
X657936Y60927D01*
X657930Y60925D01*
X657565Y59695D01*
X657568Y59687D01*
X657563Y59684D01*
X657481Y58403D01*
X657484Y58399D01*
X657481Y58397D01*
X657563Y57116D01*
X657569Y57110D01*
X657565Y57105D01*
X657930Y55875D01*
X657937Y55870D01*
X657935Y55865D01*
X658565Y54746D01*
X658572Y54743D01*
X658571Y54737D01*
X659434Y53787D01*
X659442Y53786D01*
X659442Y53780D01*
X660495Y53046D01*
X660503Y53046D01*
X660505Y53041D01*
X661695Y52559D01*
X661702Y52561D01*
X661705Y52556D01*
X662972Y52351D01*
X662977Y52354D01*
X662980Y52351D01*
X674980Y52351D01*
X674984Y52354D01*
G37*
G36*
X60304Y52354D02*
X60304Y52354D01*
X60307Y52351D01*
X61429Y52506D01*
X61434Y52511D01*
X61438Y52508D01*
X62509Y52879D01*
X62513Y52885D01*
X62518Y52883D01*
X63495Y53456D01*
X63498Y53462D01*
X63503Y53461D01*
X64350Y54214D01*
X64352Y54221D01*
X64357Y54221D01*
X65041Y55124D01*
X65041Y55131D01*
X65046Y55132D01*
X65541Y56151D01*
X65539Y56158D01*
X65544Y56160D01*
X65831Y57257D01*
X65829Y57261D01*
X65831Y57262D01*
X65829Y57264D01*
X65832Y57266D01*
X65899Y58397D01*
X65897Y58401D01*
X65899Y58403D01*
X65832Y59534D01*
X65827Y59539D01*
X65831Y59543D01*
X65544Y60640D01*
X65538Y60644D01*
X65541Y60649D01*
X65046Y61668D01*
X65040Y61671D01*
X65041Y61676D01*
X64357Y62579D01*
X64350Y62581D01*
X64350Y62586D01*
X63503Y63339D01*
X63496Y63339D01*
X63495Y63344D01*
X62518Y63917D01*
X62511Y63916D01*
X62509Y63921D01*
X61438Y64292D01*
X61432Y64289D01*
X61429Y64294D01*
X60307Y64449D01*
X60302Y64446D01*
X60300Y64449D01*
X48300Y64449D01*
X48295Y64446D01*
X48292Y64449D01*
X47025Y64244D01*
X47019Y64238D01*
X47015Y64241D01*
X45825Y63759D01*
X45821Y63752D01*
X45815Y63754D01*
X44762Y63020D01*
X44760Y63012D01*
X44754Y63013D01*
X43891Y62063D01*
X43890Y62054D01*
X43885Y62054D01*
X43255Y60935D01*
X43256Y60927D01*
X43250Y60925D01*
X42885Y59695D01*
X42888Y59687D01*
X42883Y59684D01*
X42801Y58403D01*
X42804Y58399D01*
X42801Y58397D01*
X42883Y57116D01*
X42889Y57110D01*
X42885Y57105D01*
X43250Y55875D01*
X43257Y55870D01*
X43255Y55865D01*
X43885Y54746D01*
X43892Y54743D01*
X43891Y54737D01*
X44754Y53787D01*
X44762Y53786D01*
X44762Y53780D01*
X45815Y53046D01*
X45823Y53046D01*
X45825Y53041D01*
X47015Y52559D01*
X47022Y52561D01*
X47025Y52556D01*
X48292Y52351D01*
X48297Y52354D01*
X48300Y52351D01*
X60300Y52351D01*
X60304Y52354D01*
G37*
G36*
X15503Y689933D02*
X15503Y689933D01*
X15505Y689931D01*
X16681Y690042D01*
X16686Y690047D01*
X16690Y690044D01*
X17822Y690382D01*
X17826Y690388D01*
X17831Y690386D01*
X18875Y690938D01*
X18878Y690945D01*
X18883Y690943D01*
X19799Y691689D01*
X19800Y691696D01*
X19806Y691696D01*
X20559Y692606D01*
X20559Y692613D01*
X20564Y692614D01*
X21125Y693653D01*
X21124Y693658D01*
X21128Y693660D01*
X21127Y693661D01*
X21129Y693662D01*
X21476Y694791D01*
X21476Y694792D01*
X21477Y694793D01*
X21474Y694797D01*
X21478Y694800D01*
X21599Y695975D01*
X21595Y695982D01*
X21599Y695986D01*
X21442Y697326D01*
X21437Y697332D01*
X21440Y697337D01*
X20989Y698608D01*
X20982Y698613D01*
X20984Y698618D01*
X20262Y699757D01*
X20254Y699760D01*
X20255Y699766D01*
X19297Y700716D01*
X19289Y700717D01*
X19288Y700723D01*
X18143Y701436D01*
X18135Y701435D01*
X18133Y701441D01*
X16857Y701881D01*
X16850Y701879D01*
X16847Y701883D01*
X15505Y702029D01*
X15502Y702027D01*
X15500Y702029D01*
X9500Y702029D01*
X9497Y702027D01*
X9494Y702029D01*
X8165Y701874D01*
X8159Y701868D01*
X8155Y701871D01*
X6894Y701424D01*
X6889Y701417D01*
X6884Y701419D01*
X5754Y700702D01*
X5751Y700695D01*
X5745Y700696D01*
X4803Y699746D01*
X4802Y699737D01*
X4796Y699737D01*
X4089Y698601D01*
X4090Y698593D01*
X4084Y698591D01*
X3648Y697326D01*
X3650Y697318D01*
X3645Y697316D01*
X3501Y695985D01*
X3505Y695979D01*
X3501Y695975D01*
X3611Y694809D01*
X3616Y694804D01*
X3613Y694800D01*
X3948Y693677D01*
X3954Y693673D01*
X3952Y693669D01*
X4500Y692633D01*
X4506Y692630D01*
X4505Y692625D01*
X5244Y691717D01*
X5251Y691715D01*
X5251Y691710D01*
X6153Y690963D01*
X6161Y690963D01*
X6161Y690958D01*
X7192Y690401D01*
X7199Y690402D01*
X7201Y690397D01*
X8320Y690053D01*
X8327Y690055D01*
X8330Y690051D01*
X9495Y689931D01*
X9498Y689933D01*
X9500Y689931D01*
X15500Y689931D01*
X15503Y689933D01*
G37*
G36*
X630183Y689933D02*
X630183Y689933D01*
X630185Y689931D01*
X631361Y690042D01*
X631366Y690047D01*
X631370Y690044D01*
X632502Y690382D01*
X632506Y690388D01*
X632511Y690386D01*
X633555Y690938D01*
X633558Y690945D01*
X633563Y690943D01*
X634479Y691689D01*
X634480Y691696D01*
X634486Y691696D01*
X635239Y692606D01*
X635239Y692613D01*
X635244Y692614D01*
X635805Y693653D01*
X635804Y693658D01*
X635808Y693660D01*
X635807Y693661D01*
X635809Y693662D01*
X636156Y694791D01*
X636156Y694792D01*
X636157Y694793D01*
X636154Y694797D01*
X636158Y694800D01*
X636279Y695975D01*
X636275Y695982D01*
X636279Y695986D01*
X636122Y697326D01*
X636117Y697332D01*
X636120Y697337D01*
X635669Y698608D01*
X635662Y698613D01*
X635664Y698618D01*
X634942Y699757D01*
X634934Y699760D01*
X634935Y699766D01*
X633977Y700716D01*
X633969Y700717D01*
X633968Y700723D01*
X632823Y701436D01*
X632815Y701435D01*
X632813Y701441D01*
X631537Y701881D01*
X631530Y701879D01*
X631527Y701883D01*
X630185Y702029D01*
X630182Y702027D01*
X630180Y702029D01*
X624180Y702029D01*
X624177Y702027D01*
X624174Y702029D01*
X622845Y701874D01*
X622839Y701868D01*
X622835Y701871D01*
X621574Y701424D01*
X621569Y701417D01*
X621564Y701419D01*
X620434Y700702D01*
X620431Y700695D01*
X620425Y700696D01*
X619483Y699746D01*
X619482Y699737D01*
X619476Y699737D01*
X618769Y698601D01*
X618770Y698593D01*
X618764Y698591D01*
X618328Y697326D01*
X618330Y697318D01*
X618325Y697316D01*
X618181Y695985D01*
X618185Y695979D01*
X618181Y695975D01*
X618291Y694809D01*
X618296Y694804D01*
X618293Y694800D01*
X618628Y693677D01*
X618634Y693673D01*
X618632Y693669D01*
X619180Y692633D01*
X619186Y692630D01*
X619185Y692625D01*
X619924Y691717D01*
X619931Y691715D01*
X619931Y691710D01*
X620833Y690963D01*
X620841Y690963D01*
X620841Y690958D01*
X621872Y690401D01*
X621879Y690402D01*
X621881Y690397D01*
X623000Y690053D01*
X623007Y690055D01*
X623010Y690051D01*
X624175Y689931D01*
X624178Y689933D01*
X624180Y689931D01*
X630180Y689931D01*
X630183Y689933D01*
G37*
G36*
X630183Y603533D02*
X630183Y603533D01*
X630185Y603531D01*
X631361Y603642D01*
X631366Y603647D01*
X631370Y603644D01*
X632502Y603982D01*
X632506Y603988D01*
X632511Y603986D01*
X633555Y604538D01*
X633558Y604545D01*
X633563Y604543D01*
X634479Y605289D01*
X634480Y605296D01*
X634486Y605296D01*
X635239Y606206D01*
X635239Y606213D01*
X635244Y606214D01*
X635805Y607253D01*
X635804Y607258D01*
X635808Y607260D01*
X635807Y607261D01*
X635809Y607262D01*
X636156Y608391D01*
X636156Y608392D01*
X636157Y608393D01*
X636154Y608397D01*
X636158Y608400D01*
X636279Y609575D01*
X636275Y609582D01*
X636279Y609586D01*
X636122Y610926D01*
X636117Y610932D01*
X636120Y610937D01*
X635669Y612208D01*
X635662Y612213D01*
X635664Y612218D01*
X634942Y613357D01*
X634934Y613360D01*
X634935Y613366D01*
X633977Y614316D01*
X633969Y614317D01*
X633968Y614323D01*
X632823Y615036D01*
X632815Y615035D01*
X632813Y615041D01*
X631537Y615481D01*
X631530Y615479D01*
X631527Y615483D01*
X630185Y615629D01*
X630182Y615627D01*
X630180Y615629D01*
X624180Y615629D01*
X624177Y615627D01*
X624174Y615629D01*
X622845Y615474D01*
X622839Y615468D01*
X622835Y615471D01*
X621574Y615024D01*
X621569Y615017D01*
X621564Y615019D01*
X620434Y614302D01*
X620431Y614295D01*
X620425Y614296D01*
X619483Y613346D01*
X619482Y613337D01*
X619476Y613337D01*
X618769Y612201D01*
X618770Y612193D01*
X618764Y612191D01*
X618328Y610926D01*
X618330Y610918D01*
X618325Y610916D01*
X618181Y609585D01*
X618185Y609579D01*
X618181Y609575D01*
X618291Y608409D01*
X618296Y608404D01*
X618293Y608400D01*
X618628Y607277D01*
X618634Y607273D01*
X618632Y607269D01*
X619180Y606233D01*
X619186Y606230D01*
X619185Y606225D01*
X619924Y605317D01*
X619931Y605315D01*
X619931Y605310D01*
X620833Y604563D01*
X620841Y604563D01*
X620841Y604558D01*
X621872Y604001D01*
X621879Y604002D01*
X621881Y603997D01*
X623000Y603653D01*
X623007Y603655D01*
X623010Y603651D01*
X624175Y603531D01*
X624178Y603533D01*
X624180Y603531D01*
X630180Y603531D01*
X630183Y603533D01*
G37*
G36*
X15503Y603533D02*
X15503Y603533D01*
X15505Y603531D01*
X16681Y603642D01*
X16686Y603647D01*
X16690Y603644D01*
X17822Y603982D01*
X17826Y603988D01*
X17831Y603986D01*
X18875Y604538D01*
X18878Y604545D01*
X18883Y604543D01*
X19799Y605289D01*
X19800Y605296D01*
X19806Y605296D01*
X20559Y606206D01*
X20559Y606213D01*
X20564Y606214D01*
X21125Y607253D01*
X21124Y607258D01*
X21128Y607260D01*
X21127Y607261D01*
X21129Y607262D01*
X21476Y608391D01*
X21476Y608392D01*
X21477Y608393D01*
X21474Y608397D01*
X21478Y608400D01*
X21599Y609575D01*
X21595Y609582D01*
X21599Y609586D01*
X21442Y610926D01*
X21437Y610932D01*
X21440Y610937D01*
X20989Y612208D01*
X20982Y612213D01*
X20984Y612218D01*
X20262Y613357D01*
X20254Y613360D01*
X20255Y613366D01*
X19297Y614316D01*
X19289Y614317D01*
X19288Y614323D01*
X18143Y615036D01*
X18135Y615035D01*
X18133Y615041D01*
X16857Y615481D01*
X16850Y615479D01*
X16847Y615483D01*
X15505Y615629D01*
X15502Y615627D01*
X15500Y615629D01*
X9500Y615629D01*
X9497Y615627D01*
X9494Y615629D01*
X8165Y615474D01*
X8159Y615468D01*
X8155Y615471D01*
X6894Y615024D01*
X6889Y615017D01*
X6884Y615019D01*
X5754Y614302D01*
X5751Y614295D01*
X5745Y614296D01*
X4803Y613346D01*
X4802Y613337D01*
X4796Y613337D01*
X4089Y612201D01*
X4090Y612193D01*
X4084Y612191D01*
X3648Y610926D01*
X3650Y610918D01*
X3645Y610916D01*
X3501Y609585D01*
X3505Y609579D01*
X3501Y609575D01*
X3611Y608409D01*
X3616Y608404D01*
X3613Y608400D01*
X3948Y607277D01*
X3954Y607273D01*
X3952Y607269D01*
X4500Y606233D01*
X4506Y606230D01*
X4505Y606225D01*
X5244Y605317D01*
X5251Y605315D01*
X5251Y605310D01*
X6153Y604563D01*
X6161Y604563D01*
X6161Y604558D01*
X7192Y604001D01*
X7199Y604002D01*
X7201Y603997D01*
X8320Y603653D01*
X8327Y603655D01*
X8330Y603651D01*
X9495Y603531D01*
X9498Y603533D01*
X9500Y603531D01*
X15500Y603531D01*
X15503Y603533D01*
G37*
G36*
X630183Y138753D02*
X630183Y138753D01*
X630185Y138751D01*
X631361Y138862D01*
X631366Y138867D01*
X631370Y138864D01*
X632502Y139202D01*
X632506Y139208D01*
X632511Y139206D01*
X633555Y139758D01*
X633558Y139765D01*
X633563Y139763D01*
X634479Y140509D01*
X634480Y140516D01*
X634486Y140516D01*
X635239Y141426D01*
X635239Y141433D01*
X635244Y141434D01*
X635805Y142473D01*
X635804Y142478D01*
X635808Y142480D01*
X635807Y142481D01*
X635809Y142482D01*
X636156Y143611D01*
X636156Y143612D01*
X636157Y143613D01*
X636154Y143617D01*
X636158Y143620D01*
X636279Y144795D01*
X636275Y144802D01*
X636279Y144806D01*
X636122Y146146D01*
X636117Y146152D01*
X636120Y146157D01*
X635669Y147428D01*
X635662Y147433D01*
X635664Y147438D01*
X634942Y148577D01*
X634934Y148580D01*
X634935Y148586D01*
X633977Y149536D01*
X633969Y149537D01*
X633968Y149543D01*
X632823Y150256D01*
X632815Y150255D01*
X632813Y150261D01*
X631537Y150701D01*
X631530Y150699D01*
X631527Y150703D01*
X630185Y150849D01*
X630182Y150847D01*
X630180Y150849D01*
X624180Y150849D01*
X624177Y150847D01*
X624174Y150849D01*
X622845Y150694D01*
X622839Y150688D01*
X622835Y150691D01*
X621574Y150244D01*
X621569Y150237D01*
X621564Y150239D01*
X620434Y149522D01*
X620431Y149515D01*
X620425Y149516D01*
X619483Y148566D01*
X619482Y148557D01*
X619476Y148557D01*
X618769Y147421D01*
X618770Y147413D01*
X618764Y147411D01*
X618328Y146146D01*
X618330Y146138D01*
X618325Y146136D01*
X618181Y144805D01*
X618185Y144799D01*
X618181Y144795D01*
X618291Y143629D01*
X618296Y143624D01*
X618293Y143620D01*
X618628Y142497D01*
X618634Y142493D01*
X618632Y142489D01*
X619180Y141453D01*
X619186Y141450D01*
X619185Y141445D01*
X619924Y140537D01*
X619931Y140535D01*
X619931Y140530D01*
X620833Y139783D01*
X620841Y139783D01*
X620841Y139778D01*
X621872Y139221D01*
X621879Y139222D01*
X621881Y139217D01*
X623000Y138873D01*
X623007Y138875D01*
X623010Y138871D01*
X624175Y138751D01*
X624178Y138753D01*
X624180Y138751D01*
X630180Y138751D01*
X630183Y138753D01*
G37*
G36*
X15503Y138753D02*
X15503Y138753D01*
X15505Y138751D01*
X16681Y138862D01*
X16686Y138867D01*
X16690Y138864D01*
X17822Y139202D01*
X17826Y139208D01*
X17831Y139206D01*
X18875Y139758D01*
X18878Y139765D01*
X18883Y139763D01*
X19799Y140509D01*
X19800Y140516D01*
X19806Y140516D01*
X20559Y141426D01*
X20559Y141433D01*
X20564Y141434D01*
X21125Y142473D01*
X21124Y142478D01*
X21128Y142480D01*
X21127Y142481D01*
X21129Y142482D01*
X21476Y143611D01*
X21476Y143612D01*
X21477Y143613D01*
X21474Y143617D01*
X21478Y143620D01*
X21599Y144795D01*
X21595Y144802D01*
X21599Y144806D01*
X21442Y146146D01*
X21437Y146152D01*
X21440Y146157D01*
X20989Y147428D01*
X20982Y147433D01*
X20984Y147438D01*
X20262Y148577D01*
X20254Y148580D01*
X20255Y148586D01*
X19297Y149536D01*
X19289Y149537D01*
X19288Y149543D01*
X18143Y150256D01*
X18135Y150255D01*
X18133Y150261D01*
X16857Y150701D01*
X16850Y150699D01*
X16847Y150703D01*
X15505Y150849D01*
X15502Y150847D01*
X15500Y150849D01*
X9500Y150849D01*
X9497Y150847D01*
X9494Y150849D01*
X8165Y150694D01*
X8159Y150688D01*
X8155Y150691D01*
X6894Y150244D01*
X6889Y150237D01*
X6884Y150239D01*
X5754Y149522D01*
X5751Y149515D01*
X5745Y149516D01*
X4803Y148566D01*
X4802Y148557D01*
X4796Y148557D01*
X4089Y147421D01*
X4090Y147413D01*
X4084Y147411D01*
X3648Y146146D01*
X3650Y146138D01*
X3645Y146136D01*
X3501Y144805D01*
X3505Y144799D01*
X3501Y144795D01*
X3611Y143629D01*
X3616Y143624D01*
X3613Y143620D01*
X3948Y142497D01*
X3954Y142493D01*
X3952Y142489D01*
X4500Y141453D01*
X4506Y141450D01*
X4505Y141445D01*
X5244Y140537D01*
X5251Y140535D01*
X5251Y140530D01*
X6153Y139783D01*
X6161Y139783D01*
X6161Y139778D01*
X7192Y139221D01*
X7199Y139222D01*
X7201Y139217D01*
X8320Y138873D01*
X8327Y138875D01*
X8330Y138871D01*
X9495Y138751D01*
X9498Y138753D01*
X9500Y138751D01*
X15500Y138751D01*
X15503Y138753D01*
G37*
G36*
X630183Y52353D02*
X630183Y52353D01*
X630185Y52351D01*
X631361Y52462D01*
X631366Y52467D01*
X631370Y52464D01*
X632502Y52802D01*
X632506Y52808D01*
X632511Y52806D01*
X633555Y53358D01*
X633558Y53365D01*
X633563Y53363D01*
X634479Y54109D01*
X634480Y54116D01*
X634486Y54116D01*
X635239Y55026D01*
X635239Y55033D01*
X635244Y55034D01*
X635805Y56073D01*
X635804Y56078D01*
X635808Y56080D01*
X635807Y56081D01*
X635809Y56082D01*
X636156Y57211D01*
X636156Y57212D01*
X636157Y57213D01*
X636154Y57217D01*
X636158Y57220D01*
X636279Y58395D01*
X636275Y58402D01*
X636279Y58406D01*
X636122Y59746D01*
X636117Y59752D01*
X636120Y59757D01*
X635669Y61028D01*
X635662Y61033D01*
X635664Y61038D01*
X634942Y62177D01*
X634934Y62180D01*
X634935Y62186D01*
X633977Y63136D01*
X633969Y63137D01*
X633968Y63143D01*
X632823Y63856D01*
X632815Y63855D01*
X632813Y63861D01*
X631537Y64301D01*
X631530Y64299D01*
X631527Y64303D01*
X630185Y64449D01*
X630182Y64447D01*
X630180Y64449D01*
X624180Y64449D01*
X624177Y64447D01*
X624174Y64449D01*
X622845Y64294D01*
X622839Y64288D01*
X622835Y64291D01*
X621574Y63844D01*
X621569Y63837D01*
X621564Y63839D01*
X620434Y63122D01*
X620431Y63115D01*
X620425Y63116D01*
X619483Y62166D01*
X619482Y62157D01*
X619476Y62157D01*
X618769Y61021D01*
X618770Y61013D01*
X618764Y61011D01*
X618328Y59746D01*
X618330Y59738D01*
X618325Y59736D01*
X618181Y58405D01*
X618185Y58399D01*
X618181Y58395D01*
X618291Y57229D01*
X618296Y57224D01*
X618293Y57220D01*
X618628Y56097D01*
X618634Y56093D01*
X618632Y56089D01*
X619180Y55053D01*
X619186Y55050D01*
X619185Y55045D01*
X619924Y54137D01*
X619931Y54135D01*
X619931Y54130D01*
X620833Y53383D01*
X620841Y53383D01*
X620841Y53378D01*
X621872Y52821D01*
X621879Y52822D01*
X621881Y52817D01*
X623000Y52473D01*
X623007Y52475D01*
X623010Y52471D01*
X624175Y52351D01*
X624178Y52353D01*
X624180Y52351D01*
X630180Y52351D01*
X630183Y52353D01*
G37*
G36*
X15503Y52353D02*
X15503Y52353D01*
X15505Y52351D01*
X16681Y52462D01*
X16686Y52467D01*
X16690Y52464D01*
X17822Y52802D01*
X17826Y52808D01*
X17831Y52806D01*
X18875Y53358D01*
X18878Y53365D01*
X18883Y53363D01*
X19799Y54109D01*
X19800Y54116D01*
X19806Y54116D01*
X20559Y55026D01*
X20559Y55033D01*
X20564Y55034D01*
X21125Y56073D01*
X21124Y56078D01*
X21128Y56080D01*
X21127Y56081D01*
X21129Y56082D01*
X21476Y57211D01*
X21476Y57212D01*
X21477Y57213D01*
X21474Y57217D01*
X21478Y57220D01*
X21599Y58395D01*
X21595Y58402D01*
X21599Y58406D01*
X21442Y59746D01*
X21437Y59752D01*
X21440Y59757D01*
X20989Y61028D01*
X20982Y61033D01*
X20984Y61038D01*
X20262Y62177D01*
X20254Y62180D01*
X20255Y62186D01*
X19297Y63136D01*
X19289Y63137D01*
X19288Y63143D01*
X18143Y63856D01*
X18135Y63855D01*
X18133Y63861D01*
X16857Y64301D01*
X16850Y64299D01*
X16847Y64303D01*
X15505Y64449D01*
X15502Y64447D01*
X15500Y64449D01*
X9500Y64449D01*
X9497Y64447D01*
X9494Y64449D01*
X8165Y64294D01*
X8159Y64288D01*
X8155Y64291D01*
X6894Y63844D01*
X6889Y63837D01*
X6884Y63839D01*
X5754Y63122D01*
X5751Y63115D01*
X5745Y63116D01*
X4803Y62166D01*
X4802Y62157D01*
X4796Y62157D01*
X4089Y61021D01*
X4090Y61013D01*
X4084Y61011D01*
X3648Y59746D01*
X3650Y59738D01*
X3645Y59736D01*
X3501Y58405D01*
X3505Y58399D01*
X3501Y58395D01*
X3611Y57229D01*
X3616Y57224D01*
X3613Y57220D01*
X3948Y56097D01*
X3954Y56093D01*
X3952Y56089D01*
X4500Y55053D01*
X4506Y55050D01*
X4505Y55045D01*
X5244Y54137D01*
X5251Y54135D01*
X5251Y54130D01*
X6153Y53383D01*
X6161Y53383D01*
X6161Y53378D01*
X7192Y52821D01*
X7199Y52822D01*
X7201Y52817D01*
X8320Y52473D01*
X8327Y52475D01*
X8330Y52471D01*
X9495Y52351D01*
X9498Y52353D01*
X9500Y52351D01*
X15500Y52351D01*
X15503Y52353D01*
G37*
G36*
X723330Y611263D02*
X723330Y611263D01*
X723396Y611265D01*
X723439Y611283D01*
X723486Y611291D01*
X723543Y611325D01*
X723603Y611350D01*
X723638Y611381D01*
X723679Y611406D01*
X723721Y611457D01*
X723769Y611501D01*
X723791Y611543D01*
X723820Y611580D01*
X723841Y611642D01*
X723872Y611701D01*
X723880Y611755D01*
X723892Y611792D01*
X723891Y611832D01*
X723899Y611886D01*
X723899Y617474D01*
X723888Y617539D01*
X723886Y617605D01*
X723868Y617648D01*
X723860Y617695D01*
X723826Y617752D01*
X723801Y617812D01*
X723770Y617847D01*
X723745Y617888D01*
X723694Y617930D01*
X723650Y617978D01*
X723608Y618000D01*
X723571Y618029D01*
X723509Y618050D01*
X723450Y618081D01*
X723396Y618089D01*
X723359Y618101D01*
X723319Y618100D01*
X723265Y618108D01*
X719455Y618108D01*
X719390Y618097D01*
X719324Y618095D01*
X719281Y618077D01*
X719234Y618069D01*
X719177Y618035D01*
X719117Y618010D01*
X719082Y617979D01*
X719041Y617954D01*
X719000Y617903D01*
X718951Y617859D01*
X718929Y617817D01*
X718900Y617780D01*
X718879Y617718D01*
X718848Y617659D01*
X718840Y617605D01*
X718828Y617568D01*
X718829Y617528D01*
X718821Y617474D01*
X718821Y611886D01*
X718832Y611821D01*
X718834Y611755D01*
X718852Y611712D01*
X718860Y611665D01*
X718894Y611608D01*
X718919Y611548D01*
X718950Y611513D01*
X718975Y611472D01*
X719026Y611431D01*
X719070Y611382D01*
X719112Y611360D01*
X719149Y611331D01*
X719211Y611310D01*
X719270Y611279D01*
X719324Y611271D01*
X719361Y611259D01*
X719401Y611260D01*
X719455Y611252D01*
X723265Y611252D01*
X723330Y611263D01*
G37*
G36*
X108650Y611263D02*
X108650Y611263D01*
X108716Y611265D01*
X108759Y611283D01*
X108806Y611291D01*
X108863Y611325D01*
X108923Y611350D01*
X108958Y611381D01*
X108999Y611406D01*
X109041Y611457D01*
X109089Y611501D01*
X109111Y611543D01*
X109140Y611580D01*
X109161Y611642D01*
X109192Y611701D01*
X109200Y611755D01*
X109212Y611792D01*
X109211Y611832D01*
X109219Y611886D01*
X109219Y617474D01*
X109208Y617539D01*
X109206Y617605D01*
X109188Y617648D01*
X109180Y617695D01*
X109146Y617752D01*
X109121Y617812D01*
X109090Y617847D01*
X109065Y617888D01*
X109014Y617930D01*
X108970Y617978D01*
X108928Y618000D01*
X108891Y618029D01*
X108829Y618050D01*
X108770Y618081D01*
X108716Y618089D01*
X108679Y618101D01*
X108639Y618100D01*
X108585Y618108D01*
X104775Y618108D01*
X104710Y618097D01*
X104644Y618095D01*
X104601Y618077D01*
X104554Y618069D01*
X104497Y618035D01*
X104437Y618010D01*
X104402Y617979D01*
X104361Y617954D01*
X104320Y617903D01*
X104271Y617859D01*
X104249Y617817D01*
X104220Y617780D01*
X104199Y617718D01*
X104168Y617659D01*
X104160Y617605D01*
X104148Y617568D01*
X104149Y617528D01*
X104141Y617474D01*
X104141Y611886D01*
X104152Y611821D01*
X104154Y611755D01*
X104172Y611712D01*
X104180Y611665D01*
X104214Y611608D01*
X104239Y611548D01*
X104270Y611513D01*
X104295Y611472D01*
X104346Y611431D01*
X104390Y611382D01*
X104432Y611360D01*
X104469Y611331D01*
X104531Y611310D01*
X104590Y611279D01*
X104644Y611271D01*
X104681Y611259D01*
X104721Y611260D01*
X104775Y611252D01*
X108585Y611252D01*
X108650Y611263D01*
G37*
G36*
X723330Y60083D02*
X723330Y60083D01*
X723396Y60085D01*
X723439Y60103D01*
X723486Y60111D01*
X723543Y60145D01*
X723603Y60170D01*
X723638Y60201D01*
X723679Y60226D01*
X723721Y60277D01*
X723769Y60321D01*
X723791Y60363D01*
X723820Y60400D01*
X723841Y60462D01*
X723872Y60521D01*
X723880Y60575D01*
X723892Y60612D01*
X723891Y60652D01*
X723899Y60706D01*
X723899Y66294D01*
X723888Y66359D01*
X723886Y66425D01*
X723868Y66468D01*
X723860Y66515D01*
X723826Y66572D01*
X723801Y66632D01*
X723770Y66667D01*
X723745Y66708D01*
X723694Y66750D01*
X723650Y66798D01*
X723608Y66820D01*
X723571Y66849D01*
X723509Y66870D01*
X723450Y66901D01*
X723396Y66909D01*
X723359Y66921D01*
X723319Y66920D01*
X723265Y66928D01*
X719455Y66928D01*
X719390Y66917D01*
X719324Y66915D01*
X719281Y66897D01*
X719234Y66889D01*
X719177Y66855D01*
X719117Y66830D01*
X719082Y66799D01*
X719041Y66774D01*
X719000Y66723D01*
X718951Y66679D01*
X718929Y66637D01*
X718900Y66600D01*
X718879Y66538D01*
X718848Y66479D01*
X718840Y66425D01*
X718828Y66388D01*
X718829Y66348D01*
X718821Y66294D01*
X718821Y60706D01*
X718832Y60641D01*
X718834Y60575D01*
X718852Y60532D01*
X718860Y60485D01*
X718894Y60428D01*
X718919Y60368D01*
X718950Y60333D01*
X718975Y60292D01*
X719026Y60251D01*
X719070Y60202D01*
X719112Y60180D01*
X719149Y60151D01*
X719211Y60130D01*
X719270Y60099D01*
X719324Y60091D01*
X719361Y60079D01*
X719401Y60080D01*
X719455Y60072D01*
X723265Y60072D01*
X723330Y60083D01*
G37*
G36*
X108650Y60083D02*
X108650Y60083D01*
X108716Y60085D01*
X108759Y60103D01*
X108806Y60111D01*
X108863Y60145D01*
X108923Y60170D01*
X108958Y60201D01*
X108999Y60226D01*
X109041Y60277D01*
X109089Y60321D01*
X109111Y60363D01*
X109140Y60400D01*
X109161Y60462D01*
X109192Y60521D01*
X109200Y60575D01*
X109212Y60612D01*
X109211Y60652D01*
X109219Y60706D01*
X109219Y66294D01*
X109208Y66359D01*
X109206Y66425D01*
X109188Y66468D01*
X109180Y66515D01*
X109146Y66572D01*
X109121Y66632D01*
X109090Y66667D01*
X109065Y66708D01*
X109014Y66750D01*
X108970Y66798D01*
X108928Y66820D01*
X108891Y66849D01*
X108829Y66870D01*
X108770Y66901D01*
X108716Y66909D01*
X108679Y66921D01*
X108639Y66920D01*
X108585Y66928D01*
X104775Y66928D01*
X104710Y66917D01*
X104644Y66915D01*
X104601Y66897D01*
X104554Y66889D01*
X104497Y66855D01*
X104437Y66830D01*
X104402Y66799D01*
X104361Y66774D01*
X104320Y66723D01*
X104271Y66679D01*
X104249Y66637D01*
X104220Y66600D01*
X104199Y66538D01*
X104168Y66479D01*
X104160Y66425D01*
X104148Y66388D01*
X104149Y66348D01*
X104141Y66294D01*
X104141Y60706D01*
X104152Y60641D01*
X104154Y60575D01*
X104172Y60532D01*
X104180Y60485D01*
X104214Y60428D01*
X104239Y60368D01*
X104270Y60333D01*
X104295Y60292D01*
X104346Y60251D01*
X104390Y60202D01*
X104432Y60180D01*
X104469Y60151D01*
X104531Y60130D01*
X104590Y60099D01*
X104644Y60091D01*
X104681Y60079D01*
X104721Y60080D01*
X104775Y60072D01*
X108585Y60072D01*
X108650Y60083D01*
G37*
G36*
X496635Y655332D02*
X496635Y655332D01*
X496701Y655334D01*
X496744Y655352D01*
X496791Y655360D01*
X496848Y655394D01*
X496908Y655419D01*
X496943Y655450D01*
X496984Y655475D01*
X497026Y655526D01*
X497074Y655570D01*
X497096Y655612D01*
X497125Y655649D01*
X497146Y655711D01*
X497177Y655770D01*
X497185Y655824D01*
X497197Y655861D01*
X497196Y655901D01*
X497204Y655955D01*
X497204Y659765D01*
X497193Y659830D01*
X497191Y659896D01*
X497173Y659939D01*
X497165Y659986D01*
X497131Y660043D01*
X497106Y660103D01*
X497075Y660138D01*
X497050Y660179D01*
X496999Y660221D01*
X496955Y660269D01*
X496913Y660291D01*
X496876Y660320D01*
X496814Y660341D01*
X496755Y660372D01*
X496701Y660380D01*
X496664Y660392D01*
X496624Y660391D01*
X496570Y660399D01*
X494030Y660399D01*
X493965Y660388D01*
X493899Y660386D01*
X493856Y660368D01*
X493809Y660360D01*
X493752Y660326D01*
X493692Y660301D01*
X493657Y660270D01*
X493616Y660245D01*
X493575Y660194D01*
X493526Y660150D01*
X493504Y660108D01*
X493475Y660071D01*
X493454Y660009D01*
X493423Y659950D01*
X493415Y659896D01*
X493403Y659859D01*
X493403Y659855D01*
X493403Y659854D01*
X493404Y659819D01*
X493396Y659765D01*
X493396Y655955D01*
X493407Y655890D01*
X493409Y655824D01*
X493427Y655781D01*
X493435Y655734D01*
X493469Y655677D01*
X493494Y655617D01*
X493525Y655582D01*
X493550Y655541D01*
X493601Y655500D01*
X493645Y655451D01*
X493687Y655429D01*
X493724Y655400D01*
X493786Y655379D01*
X493845Y655348D01*
X493899Y655340D01*
X493936Y655328D01*
X493976Y655329D01*
X494030Y655321D01*
X496570Y655321D01*
X496635Y655332D01*
G37*
G36*
X1111315Y655332D02*
X1111315Y655332D01*
X1111381Y655334D01*
X1111424Y655352D01*
X1111471Y655360D01*
X1111528Y655394D01*
X1111588Y655419D01*
X1111623Y655450D01*
X1111664Y655475D01*
X1111706Y655526D01*
X1111754Y655570D01*
X1111776Y655612D01*
X1111805Y655649D01*
X1111826Y655711D01*
X1111857Y655770D01*
X1111865Y655824D01*
X1111877Y655861D01*
X1111876Y655901D01*
X1111884Y655955D01*
X1111884Y659765D01*
X1111873Y659830D01*
X1111871Y659896D01*
X1111853Y659939D01*
X1111845Y659986D01*
X1111811Y660043D01*
X1111786Y660103D01*
X1111755Y660138D01*
X1111730Y660179D01*
X1111679Y660221D01*
X1111635Y660269D01*
X1111593Y660291D01*
X1111556Y660320D01*
X1111494Y660341D01*
X1111435Y660372D01*
X1111381Y660380D01*
X1111344Y660392D01*
X1111304Y660391D01*
X1111250Y660399D01*
X1108710Y660399D01*
X1108645Y660388D01*
X1108579Y660386D01*
X1108536Y660368D01*
X1108489Y660360D01*
X1108432Y660326D01*
X1108372Y660301D01*
X1108337Y660270D01*
X1108296Y660245D01*
X1108255Y660194D01*
X1108206Y660150D01*
X1108184Y660108D01*
X1108155Y660071D01*
X1108134Y660009D01*
X1108103Y659950D01*
X1108095Y659896D01*
X1108083Y659859D01*
X1108083Y659855D01*
X1108083Y659854D01*
X1108084Y659819D01*
X1108076Y659765D01*
X1108076Y655955D01*
X1108087Y655890D01*
X1108089Y655824D01*
X1108107Y655781D01*
X1108115Y655734D01*
X1108149Y655677D01*
X1108174Y655617D01*
X1108205Y655582D01*
X1108230Y655541D01*
X1108281Y655500D01*
X1108325Y655451D01*
X1108367Y655429D01*
X1108404Y655400D01*
X1108466Y655379D01*
X1108525Y655348D01*
X1108579Y655340D01*
X1108616Y655328D01*
X1108656Y655329D01*
X1108710Y655321D01*
X1111250Y655321D01*
X1111315Y655332D01*
G37*
G36*
X1111315Y645172D02*
X1111315Y645172D01*
X1111381Y645174D01*
X1111424Y645192D01*
X1111471Y645200D01*
X1111528Y645234D01*
X1111588Y645259D01*
X1111623Y645290D01*
X1111664Y645315D01*
X1111706Y645366D01*
X1111754Y645410D01*
X1111776Y645452D01*
X1111805Y645489D01*
X1111826Y645551D01*
X1111857Y645610D01*
X1111865Y645664D01*
X1111877Y645701D01*
X1111876Y645741D01*
X1111884Y645795D01*
X1111884Y649605D01*
X1111873Y649670D01*
X1111871Y649736D01*
X1111853Y649779D01*
X1111845Y649826D01*
X1111811Y649883D01*
X1111786Y649943D01*
X1111755Y649978D01*
X1111730Y650019D01*
X1111679Y650061D01*
X1111635Y650109D01*
X1111593Y650131D01*
X1111556Y650160D01*
X1111494Y650181D01*
X1111435Y650212D01*
X1111381Y650220D01*
X1111344Y650232D01*
X1111304Y650231D01*
X1111250Y650239D01*
X1108710Y650239D01*
X1108645Y650228D01*
X1108579Y650226D01*
X1108536Y650208D01*
X1108489Y650200D01*
X1108432Y650166D01*
X1108372Y650141D01*
X1108337Y650110D01*
X1108296Y650085D01*
X1108255Y650034D01*
X1108206Y649990D01*
X1108184Y649948D01*
X1108155Y649911D01*
X1108134Y649849D01*
X1108103Y649790D01*
X1108095Y649736D01*
X1108083Y649699D01*
X1108083Y649695D01*
X1108083Y649694D01*
X1108084Y649659D01*
X1108076Y649605D01*
X1108076Y645795D01*
X1108087Y645730D01*
X1108089Y645664D01*
X1108107Y645621D01*
X1108115Y645574D01*
X1108149Y645517D01*
X1108174Y645457D01*
X1108205Y645422D01*
X1108230Y645381D01*
X1108281Y645340D01*
X1108325Y645291D01*
X1108367Y645269D01*
X1108404Y645240D01*
X1108466Y645219D01*
X1108525Y645188D01*
X1108579Y645180D01*
X1108616Y645168D01*
X1108656Y645169D01*
X1108710Y645161D01*
X1111250Y645161D01*
X1111315Y645172D01*
G37*
G36*
X496635Y645172D02*
X496635Y645172D01*
X496701Y645174D01*
X496744Y645192D01*
X496791Y645200D01*
X496848Y645234D01*
X496908Y645259D01*
X496943Y645290D01*
X496984Y645315D01*
X497026Y645366D01*
X497074Y645410D01*
X497096Y645452D01*
X497125Y645489D01*
X497146Y645551D01*
X497177Y645610D01*
X497185Y645664D01*
X497197Y645701D01*
X497196Y645741D01*
X497204Y645795D01*
X497204Y649605D01*
X497193Y649670D01*
X497191Y649736D01*
X497173Y649779D01*
X497165Y649826D01*
X497131Y649883D01*
X497106Y649943D01*
X497075Y649978D01*
X497050Y650019D01*
X496999Y650061D01*
X496955Y650109D01*
X496913Y650131D01*
X496876Y650160D01*
X496814Y650181D01*
X496755Y650212D01*
X496701Y650220D01*
X496664Y650232D01*
X496624Y650231D01*
X496570Y650239D01*
X494030Y650239D01*
X493965Y650228D01*
X493899Y650226D01*
X493856Y650208D01*
X493809Y650200D01*
X493752Y650166D01*
X493692Y650141D01*
X493657Y650110D01*
X493616Y650085D01*
X493575Y650034D01*
X493526Y649990D01*
X493504Y649948D01*
X493475Y649911D01*
X493454Y649849D01*
X493423Y649790D01*
X493415Y649736D01*
X493403Y649699D01*
X493403Y649695D01*
X493403Y649694D01*
X493404Y649659D01*
X493396Y649605D01*
X493396Y645795D01*
X493407Y645730D01*
X493409Y645664D01*
X493427Y645621D01*
X493435Y645574D01*
X493469Y645517D01*
X493494Y645457D01*
X493525Y645422D01*
X493550Y645381D01*
X493601Y645340D01*
X493645Y645291D01*
X493687Y645269D01*
X493724Y645240D01*
X493786Y645219D01*
X493845Y645188D01*
X493899Y645180D01*
X493936Y645168D01*
X493976Y645169D01*
X494030Y645161D01*
X496570Y645161D01*
X496635Y645172D01*
G37*
G36*
X1111315Y104152D02*
X1111315Y104152D01*
X1111381Y104154D01*
X1111424Y104172D01*
X1111471Y104180D01*
X1111528Y104214D01*
X1111588Y104239D01*
X1111623Y104270D01*
X1111664Y104295D01*
X1111706Y104346D01*
X1111754Y104390D01*
X1111776Y104432D01*
X1111805Y104469D01*
X1111826Y104531D01*
X1111857Y104590D01*
X1111865Y104644D01*
X1111877Y104681D01*
X1111876Y104721D01*
X1111884Y104775D01*
X1111884Y108585D01*
X1111873Y108650D01*
X1111871Y108716D01*
X1111853Y108759D01*
X1111845Y108806D01*
X1111811Y108863D01*
X1111786Y108923D01*
X1111755Y108958D01*
X1111730Y108999D01*
X1111679Y109041D01*
X1111635Y109089D01*
X1111593Y109111D01*
X1111556Y109140D01*
X1111494Y109161D01*
X1111435Y109192D01*
X1111381Y109200D01*
X1111344Y109212D01*
X1111304Y109211D01*
X1111250Y109219D01*
X1108710Y109219D01*
X1108645Y109208D01*
X1108579Y109206D01*
X1108536Y109188D01*
X1108489Y109180D01*
X1108432Y109146D01*
X1108372Y109121D01*
X1108337Y109090D01*
X1108296Y109065D01*
X1108255Y109014D01*
X1108206Y108970D01*
X1108184Y108928D01*
X1108155Y108891D01*
X1108134Y108829D01*
X1108103Y108770D01*
X1108095Y108716D01*
X1108083Y108679D01*
X1108083Y108675D01*
X1108083Y108674D01*
X1108084Y108639D01*
X1108076Y108585D01*
X1108076Y104775D01*
X1108087Y104710D01*
X1108089Y104644D01*
X1108107Y104601D01*
X1108115Y104554D01*
X1108149Y104497D01*
X1108174Y104437D01*
X1108205Y104402D01*
X1108230Y104361D01*
X1108281Y104320D01*
X1108325Y104271D01*
X1108367Y104249D01*
X1108404Y104220D01*
X1108466Y104199D01*
X1108525Y104168D01*
X1108579Y104160D01*
X1108616Y104148D01*
X1108656Y104149D01*
X1108710Y104141D01*
X1111250Y104141D01*
X1111315Y104152D01*
G37*
G36*
X496635Y104152D02*
X496635Y104152D01*
X496701Y104154D01*
X496744Y104172D01*
X496791Y104180D01*
X496848Y104214D01*
X496908Y104239D01*
X496943Y104270D01*
X496984Y104295D01*
X497026Y104346D01*
X497074Y104390D01*
X497096Y104432D01*
X497125Y104469D01*
X497146Y104531D01*
X497177Y104590D01*
X497185Y104644D01*
X497197Y104681D01*
X497196Y104721D01*
X497204Y104775D01*
X497204Y108585D01*
X497193Y108650D01*
X497191Y108716D01*
X497173Y108759D01*
X497165Y108806D01*
X497131Y108863D01*
X497106Y108923D01*
X497075Y108958D01*
X497050Y108999D01*
X496999Y109041D01*
X496955Y109089D01*
X496913Y109111D01*
X496876Y109140D01*
X496814Y109161D01*
X496755Y109192D01*
X496701Y109200D01*
X496664Y109212D01*
X496624Y109211D01*
X496570Y109219D01*
X494030Y109219D01*
X493965Y109208D01*
X493899Y109206D01*
X493856Y109188D01*
X493809Y109180D01*
X493752Y109146D01*
X493692Y109121D01*
X493657Y109090D01*
X493616Y109065D01*
X493575Y109014D01*
X493526Y108970D01*
X493504Y108928D01*
X493475Y108891D01*
X493454Y108829D01*
X493423Y108770D01*
X493415Y108716D01*
X493403Y108679D01*
X493403Y108675D01*
X493403Y108674D01*
X493404Y108639D01*
X493396Y108585D01*
X493396Y104775D01*
X493407Y104710D01*
X493409Y104644D01*
X493427Y104601D01*
X493435Y104554D01*
X493469Y104497D01*
X493494Y104437D01*
X493525Y104402D01*
X493550Y104361D01*
X493601Y104320D01*
X493645Y104271D01*
X493687Y104249D01*
X493724Y104220D01*
X493786Y104199D01*
X493845Y104168D01*
X493899Y104160D01*
X493936Y104148D01*
X493976Y104149D01*
X494030Y104141D01*
X496570Y104141D01*
X496635Y104152D01*
G37*
G36*
X496635Y93992D02*
X496635Y93992D01*
X496701Y93994D01*
X496744Y94012D01*
X496791Y94020D01*
X496848Y94054D01*
X496908Y94079D01*
X496943Y94110D01*
X496984Y94135D01*
X497026Y94186D01*
X497074Y94230D01*
X497096Y94272D01*
X497125Y94309D01*
X497146Y94371D01*
X497177Y94430D01*
X497185Y94484D01*
X497197Y94521D01*
X497196Y94561D01*
X497204Y94615D01*
X497204Y98425D01*
X497193Y98490D01*
X497191Y98556D01*
X497173Y98599D01*
X497165Y98646D01*
X497131Y98703D01*
X497106Y98763D01*
X497075Y98798D01*
X497050Y98839D01*
X496999Y98881D01*
X496955Y98929D01*
X496913Y98951D01*
X496876Y98980D01*
X496814Y99001D01*
X496755Y99032D01*
X496701Y99040D01*
X496664Y99052D01*
X496624Y99051D01*
X496570Y99059D01*
X494030Y99059D01*
X493965Y99048D01*
X493899Y99046D01*
X493856Y99028D01*
X493809Y99020D01*
X493752Y98986D01*
X493692Y98961D01*
X493657Y98930D01*
X493616Y98905D01*
X493575Y98854D01*
X493526Y98810D01*
X493504Y98768D01*
X493475Y98731D01*
X493454Y98669D01*
X493423Y98610D01*
X493415Y98556D01*
X493403Y98519D01*
X493403Y98515D01*
X493403Y98514D01*
X493404Y98479D01*
X493396Y98425D01*
X493396Y94615D01*
X493407Y94550D01*
X493409Y94484D01*
X493427Y94441D01*
X493435Y94394D01*
X493469Y94337D01*
X493494Y94277D01*
X493525Y94242D01*
X493550Y94201D01*
X493601Y94160D01*
X493645Y94111D01*
X493687Y94089D01*
X493724Y94060D01*
X493786Y94039D01*
X493845Y94008D01*
X493899Y94000D01*
X493936Y93988D01*
X493976Y93989D01*
X494030Y93981D01*
X496570Y93981D01*
X496635Y93992D01*
G37*
G36*
X1111315Y93992D02*
X1111315Y93992D01*
X1111381Y93994D01*
X1111424Y94012D01*
X1111471Y94020D01*
X1111528Y94054D01*
X1111588Y94079D01*
X1111623Y94110D01*
X1111664Y94135D01*
X1111706Y94186D01*
X1111754Y94230D01*
X1111776Y94272D01*
X1111805Y94309D01*
X1111826Y94371D01*
X1111857Y94430D01*
X1111865Y94484D01*
X1111877Y94521D01*
X1111876Y94561D01*
X1111884Y94615D01*
X1111884Y98425D01*
X1111873Y98490D01*
X1111871Y98556D01*
X1111853Y98599D01*
X1111845Y98646D01*
X1111811Y98703D01*
X1111786Y98763D01*
X1111755Y98798D01*
X1111730Y98839D01*
X1111679Y98881D01*
X1111635Y98929D01*
X1111593Y98951D01*
X1111556Y98980D01*
X1111494Y99001D01*
X1111435Y99032D01*
X1111381Y99040D01*
X1111344Y99052D01*
X1111304Y99051D01*
X1111250Y99059D01*
X1108710Y99059D01*
X1108645Y99048D01*
X1108579Y99046D01*
X1108536Y99028D01*
X1108489Y99020D01*
X1108432Y98986D01*
X1108372Y98961D01*
X1108337Y98930D01*
X1108296Y98905D01*
X1108255Y98854D01*
X1108206Y98810D01*
X1108184Y98768D01*
X1108155Y98731D01*
X1108134Y98669D01*
X1108103Y98610D01*
X1108095Y98556D01*
X1108083Y98519D01*
X1108083Y98515D01*
X1108083Y98514D01*
X1108084Y98479D01*
X1108076Y98425D01*
X1108076Y94615D01*
X1108087Y94550D01*
X1108089Y94484D01*
X1108107Y94441D01*
X1108115Y94394D01*
X1108149Y94337D01*
X1108174Y94277D01*
X1108205Y94242D01*
X1108230Y94201D01*
X1108281Y94160D01*
X1108325Y94111D01*
X1108367Y94089D01*
X1108404Y94060D01*
X1108466Y94039D01*
X1108525Y94008D01*
X1108579Y94000D01*
X1108616Y93988D01*
X1108656Y93989D01*
X1108710Y93981D01*
X1111250Y93981D01*
X1111315Y93992D01*
G37*
G36*
X946850Y720737D02*
X946850Y720737D01*
X946916Y720739D01*
X946959Y720757D01*
X947006Y720765D01*
X947063Y720799D01*
X947123Y720824D01*
X947158Y720855D01*
X947199Y720880D01*
X947241Y720931D01*
X947289Y720975D01*
X947311Y721017D01*
X947340Y721054D01*
X947361Y721116D01*
X947392Y721175D01*
X947400Y721229D01*
X947412Y721266D01*
X947411Y721306D01*
X947419Y721360D01*
X947419Y723900D01*
X947408Y723965D01*
X947406Y724031D01*
X947388Y724074D01*
X947380Y724121D01*
X947346Y724178D01*
X947321Y724238D01*
X947290Y724273D01*
X947265Y724314D01*
X947214Y724356D01*
X947170Y724404D01*
X947128Y724426D01*
X947091Y724455D01*
X947029Y724476D01*
X946970Y724507D01*
X946916Y724515D01*
X946879Y724527D01*
X946839Y724526D01*
X946785Y724534D01*
X942975Y724534D01*
X942910Y724523D01*
X942844Y724521D01*
X942801Y724503D01*
X942754Y724495D01*
X942697Y724461D01*
X942637Y724436D01*
X942602Y724405D01*
X942561Y724380D01*
X942520Y724329D01*
X942471Y724285D01*
X942449Y724243D01*
X942420Y724206D01*
X942399Y724144D01*
X942368Y724085D01*
X942360Y724031D01*
X942348Y723994D01*
X942348Y723991D01*
X942349Y723954D01*
X942341Y723900D01*
X942341Y721360D01*
X942352Y721295D01*
X942354Y721229D01*
X942372Y721186D01*
X942380Y721139D01*
X942414Y721082D01*
X942439Y721022D01*
X942470Y720987D01*
X942495Y720946D01*
X942546Y720905D01*
X942590Y720856D01*
X942632Y720834D01*
X942669Y720805D01*
X942731Y720784D01*
X942790Y720753D01*
X942844Y720745D01*
X942881Y720733D01*
X942921Y720734D01*
X942975Y720726D01*
X946785Y720726D01*
X946850Y720737D01*
G37*
G36*
X332170Y720737D02*
X332170Y720737D01*
X332236Y720739D01*
X332279Y720757D01*
X332326Y720765D01*
X332383Y720799D01*
X332443Y720824D01*
X332478Y720855D01*
X332519Y720880D01*
X332561Y720931D01*
X332609Y720975D01*
X332631Y721017D01*
X332660Y721054D01*
X332681Y721116D01*
X332712Y721175D01*
X332720Y721229D01*
X332732Y721266D01*
X332731Y721306D01*
X332739Y721360D01*
X332739Y723900D01*
X332728Y723965D01*
X332726Y724031D01*
X332708Y724074D01*
X332700Y724121D01*
X332666Y724178D01*
X332641Y724238D01*
X332610Y724273D01*
X332585Y724314D01*
X332534Y724356D01*
X332490Y724404D01*
X332448Y724426D01*
X332411Y724455D01*
X332349Y724476D01*
X332290Y724507D01*
X332236Y724515D01*
X332199Y724527D01*
X332159Y724526D01*
X332105Y724534D01*
X328295Y724534D01*
X328230Y724523D01*
X328164Y724521D01*
X328121Y724503D01*
X328074Y724495D01*
X328017Y724461D01*
X327957Y724436D01*
X327922Y724405D01*
X327881Y724380D01*
X327840Y724329D01*
X327791Y724285D01*
X327769Y724243D01*
X327740Y724206D01*
X327719Y724144D01*
X327688Y724085D01*
X327680Y724031D01*
X327668Y723994D01*
X327668Y723991D01*
X327669Y723954D01*
X327661Y723900D01*
X327661Y721360D01*
X327672Y721295D01*
X327674Y721229D01*
X327692Y721186D01*
X327700Y721139D01*
X327734Y721082D01*
X327759Y721022D01*
X327790Y720987D01*
X327815Y720946D01*
X327866Y720905D01*
X327910Y720856D01*
X327952Y720834D01*
X327989Y720805D01*
X328051Y720784D01*
X328110Y720753D01*
X328164Y720745D01*
X328201Y720733D01*
X328241Y720734D01*
X328295Y720726D01*
X332105Y720726D01*
X332170Y720737D01*
G37*
G36*
X946850Y169557D02*
X946850Y169557D01*
X946916Y169559D01*
X946959Y169577D01*
X947006Y169585D01*
X947063Y169619D01*
X947123Y169644D01*
X947158Y169675D01*
X947199Y169700D01*
X947241Y169751D01*
X947289Y169795D01*
X947311Y169837D01*
X947340Y169874D01*
X947361Y169936D01*
X947392Y169995D01*
X947400Y170049D01*
X947412Y170086D01*
X947411Y170126D01*
X947419Y170180D01*
X947419Y172720D01*
X947408Y172785D01*
X947406Y172851D01*
X947388Y172894D01*
X947380Y172941D01*
X947346Y172998D01*
X947321Y173058D01*
X947290Y173093D01*
X947265Y173134D01*
X947214Y173176D01*
X947170Y173224D01*
X947128Y173246D01*
X947091Y173275D01*
X947029Y173296D01*
X946970Y173327D01*
X946916Y173335D01*
X946879Y173347D01*
X946839Y173346D01*
X946785Y173354D01*
X942975Y173354D01*
X942910Y173343D01*
X942844Y173341D01*
X942801Y173323D01*
X942754Y173315D01*
X942697Y173281D01*
X942637Y173256D01*
X942602Y173225D01*
X942561Y173200D01*
X942520Y173149D01*
X942471Y173105D01*
X942449Y173063D01*
X942420Y173026D01*
X942399Y172964D01*
X942368Y172905D01*
X942360Y172851D01*
X942348Y172814D01*
X942348Y172811D01*
X942349Y172774D01*
X942341Y172720D01*
X942341Y170180D01*
X942352Y170115D01*
X942354Y170049D01*
X942372Y170006D01*
X942380Y169959D01*
X942414Y169902D01*
X942439Y169842D01*
X942470Y169807D01*
X942495Y169766D01*
X942546Y169725D01*
X942590Y169676D01*
X942632Y169654D01*
X942669Y169625D01*
X942731Y169604D01*
X942790Y169573D01*
X942844Y169565D01*
X942881Y169553D01*
X942921Y169554D01*
X942975Y169546D01*
X946785Y169546D01*
X946850Y169557D01*
G37*
G36*
X332170Y169557D02*
X332170Y169557D01*
X332236Y169559D01*
X332279Y169577D01*
X332326Y169585D01*
X332383Y169619D01*
X332443Y169644D01*
X332478Y169675D01*
X332519Y169700D01*
X332561Y169751D01*
X332609Y169795D01*
X332631Y169837D01*
X332660Y169874D01*
X332681Y169936D01*
X332712Y169995D01*
X332720Y170049D01*
X332732Y170086D01*
X332731Y170126D01*
X332739Y170180D01*
X332739Y172720D01*
X332728Y172785D01*
X332726Y172851D01*
X332708Y172894D01*
X332700Y172941D01*
X332666Y172998D01*
X332641Y173058D01*
X332610Y173093D01*
X332585Y173134D01*
X332534Y173176D01*
X332490Y173224D01*
X332448Y173246D01*
X332411Y173275D01*
X332349Y173296D01*
X332290Y173327D01*
X332236Y173335D01*
X332199Y173347D01*
X332159Y173346D01*
X332105Y173354D01*
X328295Y173354D01*
X328230Y173343D01*
X328164Y173341D01*
X328121Y173323D01*
X328074Y173315D01*
X328017Y173281D01*
X327957Y173256D01*
X327922Y173225D01*
X327881Y173200D01*
X327840Y173149D01*
X327791Y173105D01*
X327769Y173063D01*
X327740Y173026D01*
X327719Y172964D01*
X327688Y172905D01*
X327680Y172851D01*
X327668Y172814D01*
X327668Y172811D01*
X327669Y172774D01*
X327661Y172720D01*
X327661Y170180D01*
X327672Y170115D01*
X327674Y170049D01*
X327692Y170006D01*
X327700Y169959D01*
X327734Y169902D01*
X327759Y169842D01*
X327790Y169807D01*
X327815Y169766D01*
X327866Y169725D01*
X327910Y169676D01*
X327952Y169654D01*
X327989Y169625D01*
X328051Y169604D01*
X328110Y169573D01*
X328164Y169565D01*
X328201Y169553D01*
X328241Y169554D01*
X328295Y169546D01*
X332105Y169546D01*
X332170Y169557D01*
G37*
D10*
X60100Y94100D03*
X60100Y99100D03*
D11*
X60100Y69350D03*
X60100Y77100D03*
D10*
X60100Y84100D03*
X60100Y89100D03*
X60100Y109100D03*
X60100Y104100D03*
D11*
X60100Y133850D03*
X60100Y126100D03*
D10*
X60100Y119100D03*
X60100Y114100D03*
D12*
X49050Y130500D03*
X49050Y72700D03*
D13*
X76200Y135500D03*
X76200Y118500D03*
X76200Y67700D03*
X76200Y84700D03*
D14*
X91850Y87850D03*
X98350Y87850D03*
X104850Y87850D03*
X111350Y87850D03*
X111350Y115350D03*
X104850Y115350D03*
X98350Y115350D03*
X91850Y115350D03*
D15*
X101600Y101600D03*
D16*
X93100Y139700D03*
X110100Y139700D03*
D17*
X7620Y7620D03*
X576580Y539750D03*
D18*
X340400Y106800D03*
X345400Y106800D03*
X345400Y121800D03*
X340400Y121800D03*
D19*
X335400Y121800D03*
X335400Y116800D03*
X335400Y106800D03*
X335400Y111800D03*
X350400Y106800D03*
X350400Y111800D03*
X350400Y116800D03*
X350400Y121800D03*
D13*
X368300Y122800D03*
X368300Y105800D03*
X381000Y122800D03*
X381000Y105800D03*
D20*
X321200Y200200D03*
D21*
X330200Y213200D03*
D20*
X321200Y190200D03*
X339200Y190200D03*
X339200Y200200D03*
D22*
X323575Y213200D02*
X323577Y213363D01*
X323583Y213525D01*
X323593Y213687D01*
X323607Y213849D01*
X323625Y214011D01*
X323647Y214172D01*
X323673Y214333D01*
X323702Y214492D01*
X323736Y214652D01*
X323774Y214810D01*
X323815Y214967D01*
X323860Y215123D01*
X323909Y215278D01*
X323962Y215432D01*
X324019Y215584D01*
X324079Y215735D01*
X324143Y215885D01*
X324211Y216033D01*
X324282Y216179D01*
X324357Y216323D01*
X324436Y216465D01*
X324518Y216606D01*
X324603Y216744D01*
X324692Y216881D01*
X324784Y217015D01*
X324879Y217147D01*
X324977Y217276D01*
X325079Y217403D01*
X325183Y217527D01*
X325291Y217649D01*
X325402Y217768D01*
X325515Y217885D01*
X325632Y217998D01*
X325751Y218109D01*
X325873Y218217D01*
X325997Y218321D01*
X326124Y218423D01*
X326253Y218521D01*
X326385Y218616D01*
X326519Y218708D01*
X326656Y218797D01*
X326794Y218882D01*
X326935Y218964D01*
X327077Y219043D01*
X327221Y219118D01*
X327367Y219189D01*
X327515Y219257D01*
X327665Y219321D01*
X327816Y219381D01*
X327968Y219438D01*
X328122Y219491D01*
X328277Y219540D01*
X328433Y219585D01*
X328590Y219626D01*
X328748Y219664D01*
X328908Y219698D01*
X329067Y219727D01*
X329228Y219753D01*
X329389Y219775D01*
X329551Y219793D01*
X329713Y219807D01*
X329875Y219817D01*
X330037Y219823D01*
X330200Y219825D01*
X330363Y219823D01*
X330525Y219817D01*
X330687Y219807D01*
X330849Y219793D01*
X331011Y219775D01*
X331172Y219753D01*
X331333Y219727D01*
X331492Y219698D01*
X331652Y219664D01*
X331810Y219626D01*
X331967Y219585D01*
X332123Y219540D01*
X332278Y219491D01*
X332432Y219438D01*
X332584Y219381D01*
X332735Y219321D01*
X332885Y219257D01*
X333033Y219189D01*
X333179Y219118D01*
X333323Y219043D01*
X333465Y218964D01*
X333606Y218882D01*
X333744Y218797D01*
X333881Y218708D01*
X334015Y218616D01*
X334147Y218521D01*
X334276Y218423D01*
X334403Y218321D01*
X334527Y218217D01*
X334649Y218109D01*
X334768Y217998D01*
X334885Y217885D01*
X334998Y217768D01*
X335109Y217649D01*
X335217Y217527D01*
X335321Y217403D01*
X335423Y217276D01*
X335521Y217147D01*
X335616Y217015D01*
X335708Y216881D01*
X335797Y216744D01*
X335882Y216606D01*
X335964Y216465D01*
X336043Y216323D01*
X336118Y216179D01*
X336189Y216033D01*
X336257Y215885D01*
X336321Y215735D01*
X336381Y215584D01*
X336438Y215432D01*
X336491Y215278D01*
X336540Y215123D01*
X336585Y214967D01*
X336626Y214810D01*
X336664Y214652D01*
X336698Y214492D01*
X336727Y214333D01*
X336753Y214172D01*
X336775Y214011D01*
X336793Y213849D01*
X336807Y213687D01*
X336817Y213525D01*
X336823Y213363D01*
X336825Y213200D01*
X336823Y213037D01*
X336817Y212875D01*
X336807Y212713D01*
X336793Y212551D01*
X336775Y212389D01*
X336753Y212228D01*
X336727Y212067D01*
X336698Y211908D01*
X336664Y211748D01*
X336626Y211590D01*
X336585Y211433D01*
X336540Y211277D01*
X336491Y211122D01*
X336438Y210968D01*
X336381Y210816D01*
X336321Y210665D01*
X336257Y210515D01*
X336189Y210367D01*
X336118Y210221D01*
X336043Y210077D01*
X335964Y209935D01*
X335882Y209794D01*
X335797Y209656D01*
X335708Y209519D01*
X335616Y209385D01*
X335521Y209253D01*
X335423Y209124D01*
X335321Y208997D01*
X335217Y208873D01*
X335109Y208751D01*
X334998Y208632D01*
X334885Y208515D01*
X334768Y208402D01*
X334649Y208291D01*
X334527Y208183D01*
X334403Y208079D01*
X334276Y207977D01*
X334147Y207879D01*
X334015Y207784D01*
X333881Y207692D01*
X333744Y207603D01*
X333606Y207518D01*
X333465Y207436D01*
X333323Y207357D01*
X333179Y207282D01*
X333033Y207211D01*
X332885Y207143D01*
X332735Y207079D01*
X332584Y207019D01*
X332432Y206962D01*
X332278Y206909D01*
X332123Y206860D01*
X331967Y206815D01*
X331810Y206774D01*
X331652Y206736D01*
X331492Y206702D01*
X331333Y206673D01*
X331172Y206647D01*
X331011Y206625D01*
X330849Y206607D01*
X330687Y206593D01*
X330525Y206583D01*
X330363Y206577D01*
X330200Y206575D01*
X330037Y206577D01*
X329875Y206583D01*
X329713Y206593D01*
X329551Y206607D01*
X329389Y206625D01*
X329228Y206647D01*
X329067Y206673D01*
X328908Y206702D01*
X328748Y206736D01*
X328590Y206774D01*
X328433Y206815D01*
X328277Y206860D01*
X328122Y206909D01*
X327968Y206962D01*
X327816Y207019D01*
X327665Y207079D01*
X327515Y207143D01*
X327367Y207211D01*
X327221Y207282D01*
X327077Y207357D01*
X326935Y207436D01*
X326794Y207518D01*
X326656Y207603D01*
X326519Y207692D01*
X326385Y207784D01*
X326253Y207879D01*
X326124Y207977D01*
X325997Y208079D01*
X325873Y208183D01*
X325751Y208291D01*
X325632Y208402D01*
X325515Y208515D01*
X325402Y208632D01*
X325291Y208751D01*
X325183Y208873D01*
X325079Y208997D01*
X324977Y209124D01*
X324879Y209253D01*
X324784Y209385D01*
X324692Y209519D01*
X324603Y209656D01*
X324518Y209794D01*
X324436Y209935D01*
X324357Y210077D01*
X324282Y210221D01*
X324211Y210367D01*
X324143Y210515D01*
X324079Y210665D01*
X324019Y210816D01*
X323962Y210968D01*
X323909Y211122D01*
X323860Y211277D01*
X323815Y211433D01*
X323774Y211590D01*
X323736Y211748D01*
X323702Y211908D01*
X323673Y212067D01*
X323647Y212228D01*
X323625Y212389D01*
X323607Y212551D01*
X323593Y212713D01*
X323583Y212875D01*
X323577Y213037D01*
X323575Y213200D01*
D23*
X330200Y219700D03*
D24*
X336700Y213200D03*
X323700Y213200D03*
D23*
X330200Y206700D03*
D13*
X393700Y194700D03*
X393700Y211700D03*
D25*
X558800Y520700D03*
X25400Y520700D03*
X558800Y25400D03*
X25400Y25400D03*
D26*
X171100Y496700D03*
D27*
X296850Y509200D03*
D28*
X310100Y505700D03*
X147100Y505700D03*
D27*
X160350Y509200D03*
D26*
X176100Y496700D03*
X181100Y496700D03*
X186100Y496700D03*
X191100Y496700D03*
X196100Y496700D03*
X201100Y496700D03*
X206100Y496700D03*
X211100Y496700D03*
X216100Y496700D03*
X221100Y496700D03*
X226100Y496700D03*
X231100Y496700D03*
X236100Y496700D03*
X241100Y496700D03*
X246100Y496700D03*
X251100Y496700D03*
X256100Y496700D03*
X261100Y496700D03*
X266100Y496700D03*
X271100Y496700D03*
X276100Y496700D03*
X281100Y496700D03*
X286100Y496700D03*
D13*
X330200Y453000D03*
X330200Y436000D03*
D29*
X183600Y387000D03*
D30*
X163900Y434340D03*
X140900Y434340D03*
D16*
X143900Y419100D03*
X160900Y419100D03*
D30*
X163900Y450850D03*
X140900Y450850D03*
D31*
X572690Y71060D03*
X572690Y127060D03*
D32*
X535940Y84060D03*
X535940Y94060D03*
X535940Y104060D03*
X535940Y114060D03*
D33*
X495300Y91440D03*
X495300Y101600D03*
X495300Y111760D03*
D16*
X503800Y76200D03*
X486800Y76200D03*
X503800Y127000D03*
X486800Y127000D03*
D34*
X80800Y226441D03*
X80800Y357759D03*
D35*
X122920Y302100D03*
X122920Y327100D03*
X122920Y282100D03*
X122920Y257100D03*
D36*
X146050Y22860D03*
X146050Y78740D03*
X184150Y22860D03*
X184150Y78740D03*
D16*
X93100Y152400D03*
X110100Y152400D03*
D37*
X34036Y203200D03*
X42164Y203200D03*
D38*
X23100Y177800D03*
X53100Y177800D03*
D28*
X102900Y177800D03*
X74900Y177800D03*
D13*
X152400Y143900D03*
X152400Y160900D03*
X139700Y160900D03*
X139700Y143900D03*
D37*
X101600Y63500D03*
X111760Y63500D03*
D39*
X93980Y63500D03*
X119380Y63500D03*
D40*
X158750Y190500D03*
X158750Y203200D03*
X158750Y215900D03*
X158750Y228600D03*
X158750Y177800D03*
X146050Y190500D03*
X146050Y203200D03*
X146050Y215900D03*
X146050Y228600D03*
X146050Y177800D03*
D36*
X196850Y22860D03*
X196850Y78740D03*
X234950Y22860D03*
X234950Y78740D03*
D41*
X241300Y103200D03*
D42*
X241300Y303200D03*
D43*
X188550Y110700D03*
D44*
X196300Y99700D03*
X196300Y306700D03*
D43*
X264050Y113200D03*
X188550Y115700D03*
X264050Y118200D03*
X188550Y120700D03*
X264050Y123200D03*
X188550Y125700D03*
X264050Y128200D03*
X188550Y130700D03*
X264050Y133200D03*
X188550Y135700D03*
X264050Y138200D03*
X188550Y140700D03*
X264050Y143200D03*
X188550Y145700D03*
X264050Y148200D03*
X188550Y150700D03*
X264050Y153200D03*
X188550Y155700D03*
X264050Y158200D03*
X188550Y160700D03*
X264050Y163200D03*
X188550Y165700D03*
X264050Y188200D03*
X188550Y190700D03*
X264050Y193200D03*
X188550Y195700D03*
X264050Y198200D03*
X188550Y200700D03*
X264050Y203200D03*
X188550Y205700D03*
X264050Y208200D03*
X188550Y210700D03*
X264050Y213200D03*
X188550Y215700D03*
X264050Y218200D03*
X188550Y220700D03*
X264050Y223200D03*
X188550Y225700D03*
X264050Y228200D03*
X188550Y230700D03*
X264050Y233200D03*
X188550Y235700D03*
X264050Y238200D03*
X188550Y240700D03*
X264050Y243200D03*
X188550Y245700D03*
X264050Y248200D03*
X188550Y250700D03*
X264050Y253200D03*
X188550Y255700D03*
X264050Y258200D03*
X188550Y260700D03*
X264050Y263200D03*
X188550Y265700D03*
X264050Y268200D03*
X188550Y270700D03*
X264050Y273200D03*
X188550Y275700D03*
X264050Y278200D03*
X188550Y280700D03*
X264050Y283200D03*
X188550Y285700D03*
X264050Y288200D03*
X188550Y290700D03*
X264050Y293200D03*
X188550Y295700D03*
D45*
X451300Y163200D03*
D46*
X359300Y197780D03*
D40*
X368300Y210300D03*
D46*
X359300Y189560D03*
X377300Y189560D03*
X377300Y197780D03*
X368300Y189560D03*
D47*
X361340Y210300D02*
X361342Y210471D01*
X361348Y210642D01*
X361359Y210812D01*
X361374Y210982D01*
X361392Y211152D01*
X361415Y211321D01*
X361442Y211490D01*
X361474Y211658D01*
X361509Y211825D01*
X361549Y211991D01*
X361592Y212156D01*
X361640Y212320D01*
X361691Y212483D01*
X361747Y212645D01*
X361806Y212805D01*
X361870Y212963D01*
X361937Y213120D01*
X362008Y213276D01*
X362083Y213429D01*
X362162Y213581D01*
X362244Y213731D01*
X362330Y213878D01*
X362420Y214024D01*
X362513Y214167D01*
X362610Y214308D01*
X362710Y214446D01*
X362813Y214582D01*
X362920Y214715D01*
X363030Y214846D01*
X363143Y214974D01*
X363259Y215099D01*
X363379Y215221D01*
X363501Y215341D01*
X363626Y215457D01*
X363754Y215570D01*
X363885Y215680D01*
X364018Y215787D01*
X364154Y215890D01*
X364292Y215990D01*
X364433Y216087D01*
X364576Y216180D01*
X364722Y216270D01*
X364869Y216356D01*
X365019Y216438D01*
X365171Y216517D01*
X365324Y216592D01*
X365480Y216663D01*
X365637Y216730D01*
X365795Y216794D01*
X365955Y216853D01*
X366117Y216909D01*
X366280Y216960D01*
X366444Y217008D01*
X366609Y217051D01*
X366775Y217091D01*
X366942Y217126D01*
X367110Y217158D01*
X367279Y217185D01*
X367448Y217208D01*
X367618Y217226D01*
X367788Y217241D01*
X367958Y217252D01*
X368129Y217258D01*
X368300Y217260D01*
X368471Y217258D01*
X368642Y217252D01*
X368812Y217241D01*
X368982Y217226D01*
X369152Y217208D01*
X369321Y217185D01*
X369490Y217158D01*
X369658Y217126D01*
X369825Y217091D01*
X369991Y217051D01*
X370156Y217008D01*
X370320Y216960D01*
X370483Y216909D01*
X370645Y216853D01*
X370805Y216794D01*
X370963Y216730D01*
X371120Y216663D01*
X371276Y216592D01*
X371429Y216517D01*
X371581Y216438D01*
X371731Y216356D01*
X371878Y216270D01*
X372024Y216180D01*
X372167Y216087D01*
X372308Y215990D01*
X372446Y215890D01*
X372582Y215787D01*
X372715Y215680D01*
X372846Y215570D01*
X372974Y215457D01*
X373099Y215341D01*
X373221Y215221D01*
X373341Y215099D01*
X373457Y214974D01*
X373570Y214846D01*
X373680Y214715D01*
X373787Y214582D01*
X373890Y214446D01*
X373990Y214308D01*
X374087Y214167D01*
X374180Y214024D01*
X374270Y213878D01*
X374356Y213731D01*
X374438Y213581D01*
X374517Y213429D01*
X374592Y213276D01*
X374663Y213120D01*
X374730Y212963D01*
X374794Y212805D01*
X374853Y212645D01*
X374909Y212483D01*
X374960Y212320D01*
X375008Y212156D01*
X375051Y211991D01*
X375091Y211825D01*
X375126Y211658D01*
X375158Y211490D01*
X375185Y211321D01*
X375208Y211152D01*
X375226Y210982D01*
X375241Y210812D01*
X375252Y210642D01*
X375258Y210471D01*
X375260Y210300D01*
X375258Y210129D01*
X375252Y209958D01*
X375241Y209788D01*
X375226Y209618D01*
X375208Y209448D01*
X375185Y209279D01*
X375158Y209110D01*
X375126Y208942D01*
X375091Y208775D01*
X375051Y208609D01*
X375008Y208444D01*
X374960Y208280D01*
X374909Y208117D01*
X374853Y207955D01*
X374794Y207795D01*
X374730Y207637D01*
X374663Y207480D01*
X374592Y207324D01*
X374517Y207171D01*
X374438Y207019D01*
X374356Y206869D01*
X374270Y206722D01*
X374180Y206576D01*
X374087Y206433D01*
X373990Y206292D01*
X373890Y206154D01*
X373787Y206018D01*
X373680Y205885D01*
X373570Y205754D01*
X373457Y205626D01*
X373341Y205501D01*
X373221Y205379D01*
X373099Y205259D01*
X372974Y205143D01*
X372846Y205030D01*
X372715Y204920D01*
X372582Y204813D01*
X372446Y204710D01*
X372308Y204610D01*
X372167Y204513D01*
X372024Y204420D01*
X371878Y204330D01*
X371731Y204244D01*
X371581Y204162D01*
X371429Y204083D01*
X371276Y204008D01*
X371120Y203937D01*
X370963Y203870D01*
X370805Y203806D01*
X370645Y203747D01*
X370483Y203691D01*
X370320Y203640D01*
X370156Y203592D01*
X369991Y203549D01*
X369825Y203509D01*
X369658Y203474D01*
X369490Y203442D01*
X369321Y203415D01*
X369152Y203392D01*
X368982Y203374D01*
X368812Y203359D01*
X368642Y203348D01*
X368471Y203342D01*
X368300Y203340D01*
X368129Y203342D01*
X367958Y203348D01*
X367788Y203359D01*
X367618Y203374D01*
X367448Y203392D01*
X367279Y203415D01*
X367110Y203442D01*
X366942Y203474D01*
X366775Y203509D01*
X366609Y203549D01*
X366444Y203592D01*
X366280Y203640D01*
X366117Y203691D01*
X365955Y203747D01*
X365795Y203806D01*
X365637Y203870D01*
X365480Y203937D01*
X365324Y204008D01*
X365171Y204083D01*
X365019Y204162D01*
X364869Y204244D01*
X364722Y204330D01*
X364576Y204420D01*
X364433Y204513D01*
X364292Y204610D01*
X364154Y204710D01*
X364018Y204813D01*
X363885Y204920D01*
X363754Y205030D01*
X363626Y205143D01*
X363501Y205259D01*
X363379Y205379D01*
X363259Y205501D01*
X363143Y205626D01*
X363030Y205754D01*
X362920Y205885D01*
X362813Y206018D01*
X362710Y206154D01*
X362610Y206292D01*
X362513Y206433D01*
X362420Y206576D01*
X362330Y206722D01*
X362244Y206869D01*
X362162Y207019D01*
X362083Y207171D01*
X362008Y207324D01*
X361937Y207480D01*
X361870Y207637D01*
X361806Y207795D01*
X361747Y207955D01*
X361691Y208117D01*
X361640Y208280D01*
X361592Y208444D01*
X361549Y208609D01*
X361509Y208775D01*
X361474Y208942D01*
X361442Y209110D01*
X361415Y209279D01*
X361392Y209448D01*
X361374Y209618D01*
X361359Y209788D01*
X361348Y209958D01*
X361342Y210129D01*
X361340Y210300D01*
D37*
X372364Y171450D03*
X364236Y171450D03*
X325120Y171450D03*
X335280Y171450D03*
D39*
X12700Y482600D03*
X12700Y457200D03*
X12700Y431800D03*
X12700Y406400D03*
X12700Y381000D03*
X546100Y215900D03*
X546100Y241300D03*
X546100Y266700D03*
X546100Y292100D03*
X546100Y317500D03*
X546100Y342900D03*
X571500Y215900D03*
X571500Y241300D03*
X571500Y266700D03*
X571500Y292100D03*
X571500Y317500D03*
X571500Y342900D03*
D48*
X405100Y372300D03*
X462100Y372300D03*
D49*
X478100Y503800D03*
X346600Y513800D03*
D50*
X393200Y475300D03*
X404200Y471300D03*
X415200Y475300D03*
X426200Y477300D03*
X437200Y475300D03*
X448200Y477300D03*
X459200Y475300D03*
X470200Y475300D03*
D39*
X393700Y12700D03*
X368300Y12700D03*
X342900Y12700D03*
X317500Y12700D03*
X292100Y12700D03*
X266700Y12700D03*
D51*
X92100Y494999D03*
X101600Y494999D03*
X111100Y494999D03*
X111100Y521001D03*
X92100Y521001D03*
D13*
X127000Y499500D03*
X127000Y516500D03*
X76200Y516500D03*
X76200Y499500D03*
D39*
X419100Y12700D03*
X444500Y12700D03*
X469900Y12700D03*
X495300Y12700D03*
D10*
X674780Y94100D03*
X674780Y99100D03*
D11*
X674780Y69350D03*
X674780Y77100D03*
D10*
X674780Y84100D03*
X674780Y89100D03*
X674780Y109100D03*
X674780Y104100D03*
D11*
X674780Y133850D03*
X674780Y126100D03*
D10*
X674780Y119100D03*
X674780Y114100D03*
D12*
X663730Y130500D03*
X663730Y72700D03*
D13*
X690880Y135500D03*
X690880Y118500D03*
X690880Y67700D03*
X690880Y84700D03*
D14*
X706530Y87850D03*
X713030Y87850D03*
X719530Y87850D03*
X726030Y87850D03*
X726030Y115350D03*
X719530Y115350D03*
X713030Y115350D03*
X706530Y115350D03*
D15*
X716280Y101600D03*
D16*
X707780Y139700D03*
X724780Y139700D03*
D17*
X622300Y7620D03*
X1191260Y539750D03*
D18*
X955080Y106800D03*
X960080Y106800D03*
X960080Y121800D03*
X955080Y121800D03*
D19*
X950080Y121800D03*
X950080Y116800D03*
X950080Y106800D03*
X950080Y111800D03*
X965080Y106800D03*
X965080Y111800D03*
X965080Y116800D03*
X965080Y121800D03*
D13*
X982980Y122800D03*
X982980Y105800D03*
X995680Y122800D03*
X995680Y105800D03*
D20*
X935880Y200200D03*
D21*
X944880Y213200D03*
D20*
X935880Y190200D03*
X953880Y190200D03*
X953880Y200200D03*
D22*
X938255Y213200D02*
X938257Y213363D01*
X938263Y213525D01*
X938273Y213687D01*
X938287Y213849D01*
X938305Y214011D01*
X938327Y214172D01*
X938353Y214333D01*
X938382Y214492D01*
X938416Y214652D01*
X938454Y214810D01*
X938495Y214967D01*
X938540Y215123D01*
X938589Y215278D01*
X938642Y215432D01*
X938699Y215584D01*
X938759Y215735D01*
X938823Y215885D01*
X938891Y216033D01*
X938962Y216179D01*
X939037Y216323D01*
X939116Y216465D01*
X939198Y216606D01*
X939283Y216744D01*
X939372Y216881D01*
X939464Y217015D01*
X939559Y217147D01*
X939657Y217276D01*
X939759Y217403D01*
X939863Y217527D01*
X939971Y217649D01*
X940082Y217768D01*
X940195Y217885D01*
X940312Y217998D01*
X940431Y218109D01*
X940553Y218217D01*
X940677Y218321D01*
X940804Y218423D01*
X940933Y218521D01*
X941065Y218616D01*
X941199Y218708D01*
X941336Y218797D01*
X941474Y218882D01*
X941615Y218964D01*
X941757Y219043D01*
X941901Y219118D01*
X942047Y219189D01*
X942195Y219257D01*
X942345Y219321D01*
X942496Y219381D01*
X942648Y219438D01*
X942802Y219491D01*
X942957Y219540D01*
X943113Y219585D01*
X943270Y219626D01*
X943428Y219664D01*
X943588Y219698D01*
X943747Y219727D01*
X943908Y219753D01*
X944069Y219775D01*
X944231Y219793D01*
X944393Y219807D01*
X944555Y219817D01*
X944717Y219823D01*
X944880Y219825D01*
X945043Y219823D01*
X945205Y219817D01*
X945367Y219807D01*
X945529Y219793D01*
X945691Y219775D01*
X945852Y219753D01*
X946013Y219727D01*
X946172Y219698D01*
X946332Y219664D01*
X946490Y219626D01*
X946647Y219585D01*
X946803Y219540D01*
X946958Y219491D01*
X947112Y219438D01*
X947264Y219381D01*
X947415Y219321D01*
X947565Y219257D01*
X947713Y219189D01*
X947859Y219118D01*
X948003Y219043D01*
X948145Y218964D01*
X948286Y218882D01*
X948424Y218797D01*
X948561Y218708D01*
X948695Y218616D01*
X948827Y218521D01*
X948956Y218423D01*
X949083Y218321D01*
X949207Y218217D01*
X949329Y218109D01*
X949448Y217998D01*
X949565Y217885D01*
X949678Y217768D01*
X949789Y217649D01*
X949897Y217527D01*
X950001Y217403D01*
X950103Y217276D01*
X950201Y217147D01*
X950296Y217015D01*
X950388Y216881D01*
X950477Y216744D01*
X950562Y216606D01*
X950644Y216465D01*
X950723Y216323D01*
X950798Y216179D01*
X950869Y216033D01*
X950937Y215885D01*
X951001Y215735D01*
X951061Y215584D01*
X951118Y215432D01*
X951171Y215278D01*
X951220Y215123D01*
X951265Y214967D01*
X951306Y214810D01*
X951344Y214652D01*
X951378Y214492D01*
X951407Y214333D01*
X951433Y214172D01*
X951455Y214011D01*
X951473Y213849D01*
X951487Y213687D01*
X951497Y213525D01*
X951503Y213363D01*
X951505Y213200D01*
X951503Y213037D01*
X951497Y212875D01*
X951487Y212713D01*
X951473Y212551D01*
X951455Y212389D01*
X951433Y212228D01*
X951407Y212067D01*
X951378Y211908D01*
X951344Y211748D01*
X951306Y211590D01*
X951265Y211433D01*
X951220Y211277D01*
X951171Y211122D01*
X951118Y210968D01*
X951061Y210816D01*
X951001Y210665D01*
X950937Y210515D01*
X950869Y210367D01*
X950798Y210221D01*
X950723Y210077D01*
X950644Y209935D01*
X950562Y209794D01*
X950477Y209656D01*
X950388Y209519D01*
X950296Y209385D01*
X950201Y209253D01*
X950103Y209124D01*
X950001Y208997D01*
X949897Y208873D01*
X949789Y208751D01*
X949678Y208632D01*
X949565Y208515D01*
X949448Y208402D01*
X949329Y208291D01*
X949207Y208183D01*
X949083Y208079D01*
X948956Y207977D01*
X948827Y207879D01*
X948695Y207784D01*
X948561Y207692D01*
X948424Y207603D01*
X948286Y207518D01*
X948145Y207436D01*
X948003Y207357D01*
X947859Y207282D01*
X947713Y207211D01*
X947565Y207143D01*
X947415Y207079D01*
X947264Y207019D01*
X947112Y206962D01*
X946958Y206909D01*
X946803Y206860D01*
X946647Y206815D01*
X946490Y206774D01*
X946332Y206736D01*
X946172Y206702D01*
X946013Y206673D01*
X945852Y206647D01*
X945691Y206625D01*
X945529Y206607D01*
X945367Y206593D01*
X945205Y206583D01*
X945043Y206577D01*
X944880Y206575D01*
X944717Y206577D01*
X944555Y206583D01*
X944393Y206593D01*
X944231Y206607D01*
X944069Y206625D01*
X943908Y206647D01*
X943747Y206673D01*
X943588Y206702D01*
X943428Y206736D01*
X943270Y206774D01*
X943113Y206815D01*
X942957Y206860D01*
X942802Y206909D01*
X942648Y206962D01*
X942496Y207019D01*
X942345Y207079D01*
X942195Y207143D01*
X942047Y207211D01*
X941901Y207282D01*
X941757Y207357D01*
X941615Y207436D01*
X941474Y207518D01*
X941336Y207603D01*
X941199Y207692D01*
X941065Y207784D01*
X940933Y207879D01*
X940804Y207977D01*
X940677Y208079D01*
X940553Y208183D01*
X940431Y208291D01*
X940312Y208402D01*
X940195Y208515D01*
X940082Y208632D01*
X939971Y208751D01*
X939863Y208873D01*
X939759Y208997D01*
X939657Y209124D01*
X939559Y209253D01*
X939464Y209385D01*
X939372Y209519D01*
X939283Y209656D01*
X939198Y209794D01*
X939116Y209935D01*
X939037Y210077D01*
X938962Y210221D01*
X938891Y210367D01*
X938823Y210515D01*
X938759Y210665D01*
X938699Y210816D01*
X938642Y210968D01*
X938589Y211122D01*
X938540Y211277D01*
X938495Y211433D01*
X938454Y211590D01*
X938416Y211748D01*
X938382Y211908D01*
X938353Y212067D01*
X938327Y212228D01*
X938305Y212389D01*
X938287Y212551D01*
X938273Y212713D01*
X938263Y212875D01*
X938257Y213037D01*
X938255Y213200D01*
D23*
X944880Y219700D03*
D24*
X951380Y213200D03*
X938380Y213200D03*
D23*
X944880Y206700D03*
D13*
X1008380Y194700D03*
X1008380Y211700D03*
D25*
X1173480Y520700D03*
X640080Y520700D03*
X1173480Y25400D03*
X640080Y25400D03*
D26*
X785780Y496700D03*
D27*
X911530Y509200D03*
D28*
X924780Y505700D03*
X761780Y505700D03*
D27*
X775030Y509200D03*
D26*
X790780Y496700D03*
X795780Y496700D03*
X800780Y496700D03*
X805780Y496700D03*
X810780Y496700D03*
X815780Y496700D03*
X820780Y496700D03*
X825780Y496700D03*
X830780Y496700D03*
X835780Y496700D03*
X840780Y496700D03*
X845780Y496700D03*
X850780Y496700D03*
X855780Y496700D03*
X860780Y496700D03*
X865780Y496700D03*
X870780Y496700D03*
X875780Y496700D03*
X880780Y496700D03*
X885780Y496700D03*
X890780Y496700D03*
X895780Y496700D03*
X900780Y496700D03*
D13*
X944880Y453000D03*
X944880Y436000D03*
D29*
X798280Y387000D03*
D30*
X778580Y434340D03*
X755580Y434340D03*
D16*
X758580Y419100D03*
X775580Y419100D03*
D30*
X778580Y450850D03*
X755580Y450850D03*
D31*
X1187370Y71060D03*
X1187370Y127060D03*
D32*
X1150620Y84060D03*
X1150620Y94060D03*
X1150620Y104060D03*
X1150620Y114060D03*
D33*
X1109980Y91440D03*
X1109980Y101600D03*
X1109980Y111760D03*
D16*
X1118480Y76200D03*
X1101480Y76200D03*
X1118480Y127000D03*
X1101480Y127000D03*
D34*
X695480Y226441D03*
X695480Y357759D03*
D35*
X737600Y302100D03*
X737600Y327100D03*
X737600Y282100D03*
X737600Y257100D03*
D36*
X760730Y22860D03*
X760730Y78740D03*
X798830Y22860D03*
X798830Y78740D03*
D16*
X707780Y152400D03*
X724780Y152400D03*
D37*
X648716Y203200D03*
X656844Y203200D03*
D38*
X637780Y177800D03*
X667780Y177800D03*
D28*
X717580Y177800D03*
X689580Y177800D03*
D13*
X767080Y143900D03*
X767080Y160900D03*
X754380Y160900D03*
X754380Y143900D03*
D37*
X716280Y63500D03*
X726440Y63500D03*
D39*
X708660Y63500D03*
X734060Y63500D03*
D40*
X773430Y190500D03*
X773430Y203200D03*
X773430Y215900D03*
X773430Y228600D03*
X773430Y177800D03*
X760730Y190500D03*
X760730Y203200D03*
X760730Y215900D03*
X760730Y228600D03*
X760730Y177800D03*
D36*
X811530Y22860D03*
X811530Y78740D03*
X849630Y22860D03*
X849630Y78740D03*
D41*
X855980Y103200D03*
D42*
X855980Y303200D03*
D43*
X803230Y110700D03*
D44*
X810980Y99700D03*
X810980Y306700D03*
D43*
X878730Y113200D03*
X803230Y115700D03*
X878730Y118200D03*
X803230Y120700D03*
X878730Y123200D03*
X803230Y125700D03*
X878730Y128200D03*
X803230Y130700D03*
X878730Y133200D03*
X803230Y135700D03*
X878730Y138200D03*
X803230Y140700D03*
X878730Y143200D03*
X803230Y145700D03*
X878730Y148200D03*
X803230Y150700D03*
X878730Y153200D03*
X803230Y155700D03*
X878730Y158200D03*
X803230Y160700D03*
X878730Y163200D03*
X803230Y165700D03*
X878730Y188200D03*
X803230Y190700D03*
X878730Y193200D03*
X803230Y195700D03*
X878730Y198200D03*
X803230Y200700D03*
X878730Y203200D03*
X803230Y205700D03*
X878730Y208200D03*
X803230Y210700D03*
X878730Y213200D03*
X803230Y215700D03*
X878730Y218200D03*
X803230Y220700D03*
X878730Y223200D03*
X803230Y225700D03*
X878730Y228200D03*
X803230Y230700D03*
X878730Y233200D03*
X803230Y235700D03*
X878730Y238200D03*
X803230Y240700D03*
X878730Y243200D03*
X803230Y245700D03*
X878730Y248200D03*
X803230Y250700D03*
X878730Y253200D03*
X803230Y255700D03*
X878730Y258200D03*
X803230Y260700D03*
X878730Y263200D03*
X803230Y265700D03*
X878730Y268200D03*
X803230Y270700D03*
X878730Y273200D03*
X803230Y275700D03*
X878730Y278200D03*
X803230Y280700D03*
X878730Y283200D03*
X803230Y285700D03*
X878730Y288200D03*
X803230Y290700D03*
X878730Y293200D03*
X803230Y295700D03*
D45*
X1065980Y163200D03*
D46*
X973980Y197780D03*
D40*
X982980Y210300D03*
D46*
X973980Y189560D03*
X991980Y189560D03*
X991980Y197780D03*
X982980Y189560D03*
D47*
X976020Y210300D02*
X976022Y210471D01*
X976028Y210642D01*
X976039Y210812D01*
X976054Y210982D01*
X976072Y211152D01*
X976095Y211321D01*
X976122Y211490D01*
X976154Y211658D01*
X976189Y211825D01*
X976229Y211991D01*
X976272Y212156D01*
X976320Y212320D01*
X976371Y212483D01*
X976427Y212645D01*
X976486Y212805D01*
X976550Y212963D01*
X976617Y213120D01*
X976688Y213276D01*
X976763Y213429D01*
X976842Y213581D01*
X976924Y213731D01*
X977010Y213878D01*
X977100Y214024D01*
X977193Y214167D01*
X977290Y214308D01*
X977390Y214446D01*
X977493Y214582D01*
X977600Y214715D01*
X977710Y214846D01*
X977823Y214974D01*
X977939Y215099D01*
X978059Y215221D01*
X978181Y215341D01*
X978306Y215457D01*
X978434Y215570D01*
X978565Y215680D01*
X978698Y215787D01*
X978834Y215890D01*
X978972Y215990D01*
X979113Y216087D01*
X979256Y216180D01*
X979402Y216270D01*
X979549Y216356D01*
X979699Y216438D01*
X979851Y216517D01*
X980004Y216592D01*
X980160Y216663D01*
X980317Y216730D01*
X980475Y216794D01*
X980635Y216853D01*
X980797Y216909D01*
X980960Y216960D01*
X981124Y217008D01*
X981289Y217051D01*
X981455Y217091D01*
X981622Y217126D01*
X981790Y217158D01*
X981959Y217185D01*
X982128Y217208D01*
X982298Y217226D01*
X982468Y217241D01*
X982638Y217252D01*
X982809Y217258D01*
X982980Y217260D01*
X983151Y217258D01*
X983322Y217252D01*
X983492Y217241D01*
X983662Y217226D01*
X983832Y217208D01*
X984001Y217185D01*
X984170Y217158D01*
X984338Y217126D01*
X984505Y217091D01*
X984671Y217051D01*
X984836Y217008D01*
X985000Y216960D01*
X985163Y216909D01*
X985325Y216853D01*
X985485Y216794D01*
X985643Y216730D01*
X985800Y216663D01*
X985956Y216592D01*
X986109Y216517D01*
X986261Y216438D01*
X986411Y216356D01*
X986558Y216270D01*
X986704Y216180D01*
X986847Y216087D01*
X986988Y215990D01*
X987126Y215890D01*
X987262Y215787D01*
X987395Y215680D01*
X987526Y215570D01*
X987654Y215457D01*
X987779Y215341D01*
X987901Y215221D01*
X988021Y215099D01*
X988137Y214974D01*
X988250Y214846D01*
X988360Y214715D01*
X988467Y214582D01*
X988570Y214446D01*
X988670Y214308D01*
X988767Y214167D01*
X988860Y214024D01*
X988950Y213878D01*
X989036Y213731D01*
X989118Y213581D01*
X989197Y213429D01*
X989272Y213276D01*
X989343Y213120D01*
X989410Y212963D01*
X989474Y212805D01*
X989533Y212645D01*
X989589Y212483D01*
X989640Y212320D01*
X989688Y212156D01*
X989731Y211991D01*
X989771Y211825D01*
X989806Y211658D01*
X989838Y211490D01*
X989865Y211321D01*
X989888Y211152D01*
X989906Y210982D01*
X989921Y210812D01*
X989932Y210642D01*
X989938Y210471D01*
X989940Y210300D01*
X989938Y210129D01*
X989932Y209958D01*
X989921Y209788D01*
X989906Y209618D01*
X989888Y209448D01*
X989865Y209279D01*
X989838Y209110D01*
X989806Y208942D01*
X989771Y208775D01*
X989731Y208609D01*
X989688Y208444D01*
X989640Y208280D01*
X989589Y208117D01*
X989533Y207955D01*
X989474Y207795D01*
X989410Y207637D01*
X989343Y207480D01*
X989272Y207324D01*
X989197Y207171D01*
X989118Y207019D01*
X989036Y206869D01*
X988950Y206722D01*
X988860Y206576D01*
X988767Y206433D01*
X988670Y206292D01*
X988570Y206154D01*
X988467Y206018D01*
X988360Y205885D01*
X988250Y205754D01*
X988137Y205626D01*
X988021Y205501D01*
X987901Y205379D01*
X987779Y205259D01*
X987654Y205143D01*
X987526Y205030D01*
X987395Y204920D01*
X987262Y204813D01*
X987126Y204710D01*
X986988Y204610D01*
X986847Y204513D01*
X986704Y204420D01*
X986558Y204330D01*
X986411Y204244D01*
X986261Y204162D01*
X986109Y204083D01*
X985956Y204008D01*
X985800Y203937D01*
X985643Y203870D01*
X985485Y203806D01*
X985325Y203747D01*
X985163Y203691D01*
X985000Y203640D01*
X984836Y203592D01*
X984671Y203549D01*
X984505Y203509D01*
X984338Y203474D01*
X984170Y203442D01*
X984001Y203415D01*
X983832Y203392D01*
X983662Y203374D01*
X983492Y203359D01*
X983322Y203348D01*
X983151Y203342D01*
X982980Y203340D01*
X982809Y203342D01*
X982638Y203348D01*
X982468Y203359D01*
X982298Y203374D01*
X982128Y203392D01*
X981959Y203415D01*
X981790Y203442D01*
X981622Y203474D01*
X981455Y203509D01*
X981289Y203549D01*
X981124Y203592D01*
X980960Y203640D01*
X980797Y203691D01*
X980635Y203747D01*
X980475Y203806D01*
X980317Y203870D01*
X980160Y203937D01*
X980004Y204008D01*
X979851Y204083D01*
X979699Y204162D01*
X979549Y204244D01*
X979402Y204330D01*
X979256Y204420D01*
X979113Y204513D01*
X978972Y204610D01*
X978834Y204710D01*
X978698Y204813D01*
X978565Y204920D01*
X978434Y205030D01*
X978306Y205143D01*
X978181Y205259D01*
X978059Y205379D01*
X977939Y205501D01*
X977823Y205626D01*
X977710Y205754D01*
X977600Y205885D01*
X977493Y206018D01*
X977390Y206154D01*
X977290Y206292D01*
X977193Y206433D01*
X977100Y206576D01*
X977010Y206722D01*
X976924Y206869D01*
X976842Y207019D01*
X976763Y207171D01*
X976688Y207324D01*
X976617Y207480D01*
X976550Y207637D01*
X976486Y207795D01*
X976427Y207955D01*
X976371Y208117D01*
X976320Y208280D01*
X976272Y208444D01*
X976229Y208609D01*
X976189Y208775D01*
X976154Y208942D01*
X976122Y209110D01*
X976095Y209279D01*
X976072Y209448D01*
X976054Y209618D01*
X976039Y209788D01*
X976028Y209958D01*
X976022Y210129D01*
X976020Y210300D01*
D37*
X987044Y171450D03*
X978916Y171450D03*
X939800Y171450D03*
X949960Y171450D03*
D39*
X627380Y482600D03*
X627380Y457200D03*
X627380Y431800D03*
X627380Y406400D03*
X627380Y381000D03*
X1160780Y215900D03*
X1160780Y241300D03*
X1160780Y266700D03*
X1160780Y292100D03*
X1160780Y317500D03*
X1160780Y342900D03*
X1186180Y215900D03*
X1186180Y241300D03*
X1186180Y266700D03*
X1186180Y292100D03*
X1186180Y317500D03*
X1186180Y342900D03*
D48*
X1019780Y372300D03*
X1076780Y372300D03*
D49*
X1092780Y503800D03*
X961280Y513800D03*
D50*
X1007880Y475300D03*
X1018880Y471300D03*
X1029880Y475300D03*
X1040880Y477300D03*
X1051880Y475300D03*
X1062880Y477300D03*
X1073880Y475300D03*
X1084880Y475300D03*
D39*
X1008380Y12700D03*
X982980Y12700D03*
X957580Y12700D03*
X932180Y12700D03*
X906780Y12700D03*
X881380Y12700D03*
D51*
X706780Y494999D03*
X716280Y494999D03*
X725780Y494999D03*
X725780Y521001D03*
X706780Y521001D03*
D13*
X741680Y499500D03*
X741680Y516500D03*
X690880Y516500D03*
X690880Y499500D03*
D39*
X1033780Y12700D03*
X1059180Y12700D03*
X1084580Y12700D03*
X1109980Y12700D03*
D10*
X60100Y645280D03*
X60100Y650280D03*
D11*
X60100Y620530D03*
X60100Y628280D03*
D10*
X60100Y635280D03*
X60100Y640280D03*
X60100Y660280D03*
X60100Y655280D03*
D11*
X60100Y685030D03*
X60100Y677280D03*
D10*
X60100Y670280D03*
X60100Y665280D03*
D12*
X49050Y681680D03*
X49050Y623880D03*
D13*
X76200Y686680D03*
X76200Y669680D03*
X76200Y618880D03*
X76200Y635880D03*
D14*
X91850Y639030D03*
X98350Y639030D03*
X104850Y639030D03*
X111350Y639030D03*
X111350Y666530D03*
X104850Y666530D03*
X98350Y666530D03*
X91850Y666530D03*
D15*
X101600Y652780D03*
D16*
X93100Y690880D03*
X110100Y690880D03*
D17*
X7620Y558800D03*
X576580Y1090930D03*
D18*
X340400Y657980D03*
X345400Y657980D03*
X345400Y672980D03*
X340400Y672980D03*
D19*
X335400Y672980D03*
X335400Y667980D03*
X335400Y657980D03*
X335400Y662980D03*
X350400Y657980D03*
X350400Y662980D03*
X350400Y667980D03*
X350400Y672980D03*
D13*
X368300Y673980D03*
X368300Y656980D03*
X381000Y673980D03*
X381000Y656980D03*
D20*
X321200Y751380D03*
D21*
X330200Y764380D03*
D20*
X321200Y741380D03*
X339200Y741380D03*
X339200Y751380D03*
D22*
X323575Y764380D02*
X323577Y764543D01*
X323583Y764705D01*
X323593Y764867D01*
X323607Y765029D01*
X323625Y765191D01*
X323647Y765352D01*
X323673Y765513D01*
X323702Y765672D01*
X323736Y765832D01*
X323774Y765990D01*
X323815Y766147D01*
X323860Y766303D01*
X323909Y766458D01*
X323962Y766612D01*
X324019Y766764D01*
X324079Y766915D01*
X324143Y767065D01*
X324211Y767213D01*
X324282Y767359D01*
X324357Y767503D01*
X324436Y767645D01*
X324518Y767786D01*
X324603Y767924D01*
X324692Y768061D01*
X324784Y768195D01*
X324879Y768327D01*
X324977Y768456D01*
X325079Y768583D01*
X325183Y768707D01*
X325291Y768829D01*
X325402Y768948D01*
X325515Y769065D01*
X325632Y769178D01*
X325751Y769289D01*
X325873Y769397D01*
X325997Y769501D01*
X326124Y769603D01*
X326253Y769701D01*
X326385Y769796D01*
X326519Y769888D01*
X326656Y769977D01*
X326794Y770062D01*
X326935Y770144D01*
X327077Y770223D01*
X327221Y770298D01*
X327367Y770369D01*
X327515Y770437D01*
X327665Y770501D01*
X327816Y770561D01*
X327968Y770618D01*
X328122Y770671D01*
X328277Y770720D01*
X328433Y770765D01*
X328590Y770806D01*
X328748Y770844D01*
X328908Y770878D01*
X329067Y770907D01*
X329228Y770933D01*
X329389Y770955D01*
X329551Y770973D01*
X329713Y770987D01*
X329875Y770997D01*
X330037Y771003D01*
X330200Y771005D01*
X330363Y771003D01*
X330525Y770997D01*
X330687Y770987D01*
X330849Y770973D01*
X331011Y770955D01*
X331172Y770933D01*
X331333Y770907D01*
X331492Y770878D01*
X331652Y770844D01*
X331810Y770806D01*
X331967Y770765D01*
X332123Y770720D01*
X332278Y770671D01*
X332432Y770618D01*
X332584Y770561D01*
X332735Y770501D01*
X332885Y770437D01*
X333033Y770369D01*
X333179Y770298D01*
X333323Y770223D01*
X333465Y770144D01*
X333606Y770062D01*
X333744Y769977D01*
X333881Y769888D01*
X334015Y769796D01*
X334147Y769701D01*
X334276Y769603D01*
X334403Y769501D01*
X334527Y769397D01*
X334649Y769289D01*
X334768Y769178D01*
X334885Y769065D01*
X334998Y768948D01*
X335109Y768829D01*
X335217Y768707D01*
X335321Y768583D01*
X335423Y768456D01*
X335521Y768327D01*
X335616Y768195D01*
X335708Y768061D01*
X335797Y767924D01*
X335882Y767786D01*
X335964Y767645D01*
X336043Y767503D01*
X336118Y767359D01*
X336189Y767213D01*
X336257Y767065D01*
X336321Y766915D01*
X336381Y766764D01*
X336438Y766612D01*
X336491Y766458D01*
X336540Y766303D01*
X336585Y766147D01*
X336626Y765990D01*
X336664Y765832D01*
X336698Y765672D01*
X336727Y765513D01*
X336753Y765352D01*
X336775Y765191D01*
X336793Y765029D01*
X336807Y764867D01*
X336817Y764705D01*
X336823Y764543D01*
X336825Y764380D01*
X336823Y764217D01*
X336817Y764055D01*
X336807Y763893D01*
X336793Y763731D01*
X336775Y763569D01*
X336753Y763408D01*
X336727Y763247D01*
X336698Y763088D01*
X336664Y762928D01*
X336626Y762770D01*
X336585Y762613D01*
X336540Y762457D01*
X336491Y762302D01*
X336438Y762148D01*
X336381Y761996D01*
X336321Y761845D01*
X336257Y761695D01*
X336189Y761547D01*
X336118Y761401D01*
X336043Y761257D01*
X335964Y761115D01*
X335882Y760974D01*
X335797Y760836D01*
X335708Y760699D01*
X335616Y760565D01*
X335521Y760433D01*
X335423Y760304D01*
X335321Y760177D01*
X335217Y760053D01*
X335109Y759931D01*
X334998Y759812D01*
X334885Y759695D01*
X334768Y759582D01*
X334649Y759471D01*
X334527Y759363D01*
X334403Y759259D01*
X334276Y759157D01*
X334147Y759059D01*
X334015Y758964D01*
X333881Y758872D01*
X333744Y758783D01*
X333606Y758698D01*
X333465Y758616D01*
X333323Y758537D01*
X333179Y758462D01*
X333033Y758391D01*
X332885Y758323D01*
X332735Y758259D01*
X332584Y758199D01*
X332432Y758142D01*
X332278Y758089D01*
X332123Y758040D01*
X331967Y757995D01*
X331810Y757954D01*
X331652Y757916D01*
X331492Y757882D01*
X331333Y757853D01*
X331172Y757827D01*
X331011Y757805D01*
X330849Y757787D01*
X330687Y757773D01*
X330525Y757763D01*
X330363Y757757D01*
X330200Y757755D01*
X330037Y757757D01*
X329875Y757763D01*
X329713Y757773D01*
X329551Y757787D01*
X329389Y757805D01*
X329228Y757827D01*
X329067Y757853D01*
X328908Y757882D01*
X328748Y757916D01*
X328590Y757954D01*
X328433Y757995D01*
X328277Y758040D01*
X328122Y758089D01*
X327968Y758142D01*
X327816Y758199D01*
X327665Y758259D01*
X327515Y758323D01*
X327367Y758391D01*
X327221Y758462D01*
X327077Y758537D01*
X326935Y758616D01*
X326794Y758698D01*
X326656Y758783D01*
X326519Y758872D01*
X326385Y758964D01*
X326253Y759059D01*
X326124Y759157D01*
X325997Y759259D01*
X325873Y759363D01*
X325751Y759471D01*
X325632Y759582D01*
X325515Y759695D01*
X325402Y759812D01*
X325291Y759931D01*
X325183Y760053D01*
X325079Y760177D01*
X324977Y760304D01*
X324879Y760433D01*
X324784Y760565D01*
X324692Y760699D01*
X324603Y760836D01*
X324518Y760974D01*
X324436Y761115D01*
X324357Y761257D01*
X324282Y761401D01*
X324211Y761547D01*
X324143Y761695D01*
X324079Y761845D01*
X324019Y761996D01*
X323962Y762148D01*
X323909Y762302D01*
X323860Y762457D01*
X323815Y762613D01*
X323774Y762770D01*
X323736Y762928D01*
X323702Y763088D01*
X323673Y763247D01*
X323647Y763408D01*
X323625Y763569D01*
X323607Y763731D01*
X323593Y763893D01*
X323583Y764055D01*
X323577Y764217D01*
X323575Y764380D01*
D23*
X330200Y770880D03*
D24*
X336700Y764380D03*
X323700Y764380D03*
D23*
X330200Y757880D03*
D13*
X393700Y745880D03*
X393700Y762880D03*
D25*
X558800Y1071880D03*
X25400Y1071880D03*
X558800Y576580D03*
X25400Y576580D03*
D26*
X171100Y1047880D03*
D27*
X296850Y1060380D03*
D28*
X310100Y1056880D03*
X147100Y1056880D03*
D27*
X160350Y1060380D03*
D26*
X176100Y1047880D03*
X181100Y1047880D03*
X186100Y1047880D03*
X191100Y1047880D03*
X196100Y1047880D03*
X201100Y1047880D03*
X206100Y1047880D03*
X211100Y1047880D03*
X216100Y1047880D03*
X221100Y1047880D03*
X226100Y1047880D03*
X231100Y1047880D03*
X236100Y1047880D03*
X241100Y1047880D03*
X246100Y1047880D03*
X251100Y1047880D03*
X256100Y1047880D03*
X261100Y1047880D03*
X266100Y1047880D03*
X271100Y1047880D03*
X276100Y1047880D03*
X281100Y1047880D03*
X286100Y1047880D03*
D13*
X330200Y1004180D03*
X330200Y987180D03*
D29*
X183600Y938180D03*
D30*
X163900Y985520D03*
X140900Y985520D03*
D16*
X143900Y970280D03*
X160900Y970280D03*
D30*
X163900Y1002030D03*
X140900Y1002030D03*
D31*
X572690Y622240D03*
X572690Y678240D03*
D32*
X535940Y635240D03*
X535940Y645240D03*
X535940Y655240D03*
X535940Y665240D03*
D33*
X495300Y642620D03*
X495300Y652780D03*
X495300Y662940D03*
D16*
X503800Y627380D03*
X486800Y627380D03*
X503800Y678180D03*
X486800Y678180D03*
D34*
X80800Y777621D03*
X80800Y908939D03*
D35*
X122920Y853280D03*
X122920Y878280D03*
X122920Y833280D03*
X122920Y808280D03*
D36*
X146050Y574040D03*
X146050Y629920D03*
X184150Y574040D03*
X184150Y629920D03*
D16*
X93100Y703580D03*
X110100Y703580D03*
D37*
X34036Y754380D03*
X42164Y754380D03*
D38*
X23100Y728980D03*
X53100Y728980D03*
D28*
X102900Y728980D03*
X74900Y728980D03*
D13*
X152400Y695080D03*
X152400Y712080D03*
X139700Y712080D03*
X139700Y695080D03*
D37*
X101600Y614680D03*
X111760Y614680D03*
D39*
X93980Y614680D03*
X119380Y614680D03*
D40*
X158750Y741680D03*
X158750Y754380D03*
X158750Y767080D03*
X158750Y779780D03*
X158750Y728980D03*
X146050Y741680D03*
X146050Y754380D03*
X146050Y767080D03*
X146050Y779780D03*
X146050Y728980D03*
D36*
X196850Y574040D03*
X196850Y629920D03*
X234950Y574040D03*
X234950Y629920D03*
D41*
X241300Y654380D03*
D42*
X241300Y854380D03*
D43*
X188550Y661880D03*
D44*
X196300Y650880D03*
X196300Y857880D03*
D43*
X264050Y664380D03*
X188550Y666880D03*
X264050Y669380D03*
X188550Y671880D03*
X264050Y674380D03*
X188550Y676880D03*
X264050Y679380D03*
X188550Y681880D03*
X264050Y684380D03*
X188550Y686880D03*
X264050Y689380D03*
X188550Y691880D03*
X264050Y694380D03*
X188550Y696880D03*
X264050Y699380D03*
X188550Y701880D03*
X264050Y704380D03*
X188550Y706880D03*
X264050Y709380D03*
X188550Y711880D03*
X264050Y714380D03*
X188550Y716880D03*
X264050Y739380D03*
X188550Y741880D03*
X264050Y744380D03*
X188550Y746880D03*
X264050Y749380D03*
X188550Y751880D03*
X264050Y754380D03*
X188550Y756880D03*
X264050Y759380D03*
X188550Y761880D03*
X264050Y764380D03*
X188550Y766880D03*
X264050Y769380D03*
X188550Y771880D03*
X264050Y774380D03*
X188550Y776880D03*
X264050Y779380D03*
X188550Y781880D03*
X264050Y784380D03*
X188550Y786880D03*
X264050Y789380D03*
X188550Y791880D03*
X264050Y794380D03*
X188550Y796880D03*
X264050Y799380D03*
X188550Y801880D03*
X264050Y804380D03*
X188550Y806880D03*
X264050Y809380D03*
X188550Y811880D03*
X264050Y814380D03*
X188550Y816880D03*
X264050Y819380D03*
X188550Y821880D03*
X264050Y824380D03*
X188550Y826880D03*
X264050Y829380D03*
X188550Y831880D03*
X264050Y834380D03*
X188550Y836880D03*
X264050Y839380D03*
X188550Y841880D03*
X264050Y844380D03*
X188550Y846880D03*
D45*
X451300Y714380D03*
D46*
X359300Y748960D03*
D40*
X368300Y761480D03*
D46*
X359300Y740740D03*
X377300Y740740D03*
X377300Y748960D03*
X368300Y740740D03*
D47*
X361340Y761480D02*
X361342Y761651D01*
X361348Y761822D01*
X361359Y761992D01*
X361374Y762162D01*
X361392Y762332D01*
X361415Y762501D01*
X361442Y762670D01*
X361474Y762838D01*
X361509Y763005D01*
X361549Y763171D01*
X361592Y763336D01*
X361640Y763500D01*
X361691Y763663D01*
X361747Y763825D01*
X361806Y763985D01*
X361870Y764143D01*
X361937Y764300D01*
X362008Y764456D01*
X362083Y764609D01*
X362162Y764761D01*
X362244Y764911D01*
X362330Y765058D01*
X362420Y765204D01*
X362513Y765347D01*
X362610Y765488D01*
X362710Y765626D01*
X362813Y765762D01*
X362920Y765895D01*
X363030Y766026D01*
X363143Y766154D01*
X363259Y766279D01*
X363379Y766401D01*
X363501Y766521D01*
X363626Y766637D01*
X363754Y766750D01*
X363885Y766860D01*
X364018Y766967D01*
X364154Y767070D01*
X364292Y767170D01*
X364433Y767267D01*
X364576Y767360D01*
X364722Y767450D01*
X364869Y767536D01*
X365019Y767618D01*
X365171Y767697D01*
X365324Y767772D01*
X365480Y767843D01*
X365637Y767910D01*
X365795Y767974D01*
X365955Y768033D01*
X366117Y768089D01*
X366280Y768140D01*
X366444Y768188D01*
X366609Y768231D01*
X366775Y768271D01*
X366942Y768306D01*
X367110Y768338D01*
X367279Y768365D01*
X367448Y768388D01*
X367618Y768406D01*
X367788Y768421D01*
X367958Y768432D01*
X368129Y768438D01*
X368300Y768440D01*
X368471Y768438D01*
X368642Y768432D01*
X368812Y768421D01*
X368982Y768406D01*
X369152Y768388D01*
X369321Y768365D01*
X369490Y768338D01*
X369658Y768306D01*
X369825Y768271D01*
X369991Y768231D01*
X370156Y768188D01*
X370320Y768140D01*
X370483Y768089D01*
X370645Y768033D01*
X370805Y767974D01*
X370963Y767910D01*
X371120Y767843D01*
X371276Y767772D01*
X371429Y767697D01*
X371581Y767618D01*
X371731Y767536D01*
X371878Y767450D01*
X372024Y767360D01*
X372167Y767267D01*
X372308Y767170D01*
X372446Y767070D01*
X372582Y766967D01*
X372715Y766860D01*
X372846Y766750D01*
X372974Y766637D01*
X373099Y766521D01*
X373221Y766401D01*
X373341Y766279D01*
X373457Y766154D01*
X373570Y766026D01*
X373680Y765895D01*
X373787Y765762D01*
X373890Y765626D01*
X373990Y765488D01*
X374087Y765347D01*
X374180Y765204D01*
X374270Y765058D01*
X374356Y764911D01*
X374438Y764761D01*
X374517Y764609D01*
X374592Y764456D01*
X374663Y764300D01*
X374730Y764143D01*
X374794Y763985D01*
X374853Y763825D01*
X374909Y763663D01*
X374960Y763500D01*
X375008Y763336D01*
X375051Y763171D01*
X375091Y763005D01*
X375126Y762838D01*
X375158Y762670D01*
X375185Y762501D01*
X375208Y762332D01*
X375226Y762162D01*
X375241Y761992D01*
X375252Y761822D01*
X375258Y761651D01*
X375260Y761480D01*
X375258Y761309D01*
X375252Y761138D01*
X375241Y760968D01*
X375226Y760798D01*
X375208Y760628D01*
X375185Y760459D01*
X375158Y760290D01*
X375126Y760122D01*
X375091Y759955D01*
X375051Y759789D01*
X375008Y759624D01*
X374960Y759460D01*
X374909Y759297D01*
X374853Y759135D01*
X374794Y758975D01*
X374730Y758817D01*
X374663Y758660D01*
X374592Y758504D01*
X374517Y758351D01*
X374438Y758199D01*
X374356Y758049D01*
X374270Y757902D01*
X374180Y757756D01*
X374087Y757613D01*
X373990Y757472D01*
X373890Y757334D01*
X373787Y757198D01*
X373680Y757065D01*
X373570Y756934D01*
X373457Y756806D01*
X373341Y756681D01*
X373221Y756559D01*
X373099Y756439D01*
X372974Y756323D01*
X372846Y756210D01*
X372715Y756100D01*
X372582Y755993D01*
X372446Y755890D01*
X372308Y755790D01*
X372167Y755693D01*
X372024Y755600D01*
X371878Y755510D01*
X371731Y755424D01*
X371581Y755342D01*
X371429Y755263D01*
X371276Y755188D01*
X371120Y755117D01*
X370963Y755050D01*
X370805Y754986D01*
X370645Y754927D01*
X370483Y754871D01*
X370320Y754820D01*
X370156Y754772D01*
X369991Y754729D01*
X369825Y754689D01*
X369658Y754654D01*
X369490Y754622D01*
X369321Y754595D01*
X369152Y754572D01*
X368982Y754554D01*
X368812Y754539D01*
X368642Y754528D01*
X368471Y754522D01*
X368300Y754520D01*
X368129Y754522D01*
X367958Y754528D01*
X367788Y754539D01*
X367618Y754554D01*
X367448Y754572D01*
X367279Y754595D01*
X367110Y754622D01*
X366942Y754654D01*
X366775Y754689D01*
X366609Y754729D01*
X366444Y754772D01*
X366280Y754820D01*
X366117Y754871D01*
X365955Y754927D01*
X365795Y754986D01*
X365637Y755050D01*
X365480Y755117D01*
X365324Y755188D01*
X365171Y755263D01*
X365019Y755342D01*
X364869Y755424D01*
X364722Y755510D01*
X364576Y755600D01*
X364433Y755693D01*
X364292Y755790D01*
X364154Y755890D01*
X364018Y755993D01*
X363885Y756100D01*
X363754Y756210D01*
X363626Y756323D01*
X363501Y756439D01*
X363379Y756559D01*
X363259Y756681D01*
X363143Y756806D01*
X363030Y756934D01*
X362920Y757065D01*
X362813Y757198D01*
X362710Y757334D01*
X362610Y757472D01*
X362513Y757613D01*
X362420Y757756D01*
X362330Y757902D01*
X362244Y758049D01*
X362162Y758199D01*
X362083Y758351D01*
X362008Y758504D01*
X361937Y758660D01*
X361870Y758817D01*
X361806Y758975D01*
X361747Y759135D01*
X361691Y759297D01*
X361640Y759460D01*
X361592Y759624D01*
X361549Y759789D01*
X361509Y759955D01*
X361474Y760122D01*
X361442Y760290D01*
X361415Y760459D01*
X361392Y760628D01*
X361374Y760798D01*
X361359Y760968D01*
X361348Y761138D01*
X361342Y761309D01*
X361340Y761480D01*
D37*
X372364Y722630D03*
X364236Y722630D03*
X325120Y722630D03*
X335280Y722630D03*
D39*
X12700Y1033780D03*
X12700Y1008380D03*
X12700Y982980D03*
X12700Y957580D03*
X12700Y932180D03*
X546100Y767080D03*
X546100Y792480D03*
X546100Y817880D03*
X546100Y843280D03*
X546100Y868680D03*
X546100Y894080D03*
X571500Y767080D03*
X571500Y792480D03*
X571500Y817880D03*
X571500Y843280D03*
X571500Y868680D03*
X571500Y894080D03*
D48*
X405100Y923480D03*
X462100Y923480D03*
D49*
X478100Y1054980D03*
X346600Y1064980D03*
D50*
X393200Y1026480D03*
X404200Y1022480D03*
X415200Y1026480D03*
X426200Y1028480D03*
X437200Y1026480D03*
X448200Y1028480D03*
X459200Y1026480D03*
X470200Y1026480D03*
D39*
X393700Y563880D03*
X368300Y563880D03*
X342900Y563880D03*
X317500Y563880D03*
X292100Y563880D03*
X266700Y563880D03*
D51*
X92100Y1046179D03*
X101600Y1046179D03*
X111100Y1046179D03*
X111100Y1072181D03*
X92100Y1072181D03*
D13*
X127000Y1050680D03*
X127000Y1067680D03*
X76200Y1067680D03*
X76200Y1050680D03*
D39*
X419100Y563880D03*
X444500Y563880D03*
X469900Y563880D03*
X495300Y563880D03*
D10*
X674780Y645280D03*
X674780Y650280D03*
D11*
X674780Y620530D03*
X674780Y628280D03*
D10*
X674780Y635280D03*
X674780Y640280D03*
X674780Y660280D03*
X674780Y655280D03*
D11*
X674780Y685030D03*
X674780Y677280D03*
D10*
X674780Y670280D03*
X674780Y665280D03*
D12*
X663730Y681680D03*
X663730Y623880D03*
D13*
X690880Y686680D03*
X690880Y669680D03*
X690880Y618880D03*
X690880Y635880D03*
D14*
X706530Y639030D03*
X713030Y639030D03*
X719530Y639030D03*
X726030Y639030D03*
X726030Y666530D03*
X719530Y666530D03*
X713030Y666530D03*
X706530Y666530D03*
D15*
X716280Y652780D03*
D16*
X707780Y690880D03*
X724780Y690880D03*
D17*
X622300Y558800D03*
X1191260Y1090930D03*
D18*
X955080Y657980D03*
X960080Y657980D03*
X960080Y672980D03*
X955080Y672980D03*
D19*
X950080Y672980D03*
X950080Y667980D03*
X950080Y657980D03*
X950080Y662980D03*
X965080Y657980D03*
X965080Y662980D03*
X965080Y667980D03*
X965080Y672980D03*
D13*
X982980Y673980D03*
X982980Y656980D03*
X995680Y673980D03*
X995680Y656980D03*
D20*
X935880Y751380D03*
D21*
X944880Y764380D03*
D20*
X935880Y741380D03*
X953880Y741380D03*
X953880Y751380D03*
D22*
X938255Y764380D02*
X938257Y764543D01*
X938263Y764705D01*
X938273Y764867D01*
X938287Y765029D01*
X938305Y765191D01*
X938327Y765352D01*
X938353Y765513D01*
X938382Y765672D01*
X938416Y765832D01*
X938454Y765990D01*
X938495Y766147D01*
X938540Y766303D01*
X938589Y766458D01*
X938642Y766612D01*
X938699Y766764D01*
X938759Y766915D01*
X938823Y767065D01*
X938891Y767213D01*
X938962Y767359D01*
X939037Y767503D01*
X939116Y767645D01*
X939198Y767786D01*
X939283Y767924D01*
X939372Y768061D01*
X939464Y768195D01*
X939559Y768327D01*
X939657Y768456D01*
X939759Y768583D01*
X939863Y768707D01*
X939971Y768829D01*
X940082Y768948D01*
X940195Y769065D01*
X940312Y769178D01*
X940431Y769289D01*
X940553Y769397D01*
X940677Y769501D01*
X940804Y769603D01*
X940933Y769701D01*
X941065Y769796D01*
X941199Y769888D01*
X941336Y769977D01*
X941474Y770062D01*
X941615Y770144D01*
X941757Y770223D01*
X941901Y770298D01*
X942047Y770369D01*
X942195Y770437D01*
X942345Y770501D01*
X942496Y770561D01*
X942648Y770618D01*
X942802Y770671D01*
X942957Y770720D01*
X943113Y770765D01*
X943270Y770806D01*
X943428Y770844D01*
X943588Y770878D01*
X943747Y770907D01*
X943908Y770933D01*
X944069Y770955D01*
X944231Y770973D01*
X944393Y770987D01*
X944555Y770997D01*
X944717Y771003D01*
X944880Y771005D01*
X945043Y771003D01*
X945205Y770997D01*
X945367Y770987D01*
X945529Y770973D01*
X945691Y770955D01*
X945852Y770933D01*
X946013Y770907D01*
X946172Y770878D01*
X946332Y770844D01*
X946490Y770806D01*
X946647Y770765D01*
X946803Y770720D01*
X946958Y770671D01*
X947112Y770618D01*
X947264Y770561D01*
X947415Y770501D01*
X947565Y770437D01*
X947713Y770369D01*
X947859Y770298D01*
X948003Y770223D01*
X948145Y770144D01*
X948286Y770062D01*
X948424Y769977D01*
X948561Y769888D01*
X948695Y769796D01*
X948827Y769701D01*
X948956Y769603D01*
X949083Y769501D01*
X949207Y769397D01*
X949329Y769289D01*
X949448Y769178D01*
X949565Y769065D01*
X949678Y768948D01*
X949789Y768829D01*
X949897Y768707D01*
X950001Y768583D01*
X950103Y768456D01*
X950201Y768327D01*
X950296Y768195D01*
X950388Y768061D01*
X950477Y767924D01*
X950562Y767786D01*
X950644Y767645D01*
X950723Y767503D01*
X950798Y767359D01*
X950869Y767213D01*
X950937Y767065D01*
X951001Y766915D01*
X951061Y766764D01*
X951118Y766612D01*
X951171Y766458D01*
X951220Y766303D01*
X951265Y766147D01*
X951306Y765990D01*
X951344Y765832D01*
X951378Y765672D01*
X951407Y765513D01*
X951433Y765352D01*
X951455Y765191D01*
X951473Y765029D01*
X951487Y764867D01*
X951497Y764705D01*
X951503Y764543D01*
X951505Y764380D01*
X951503Y764217D01*
X951497Y764055D01*
X951487Y763893D01*
X951473Y763731D01*
X951455Y763569D01*
X951433Y763408D01*
X951407Y763247D01*
X951378Y763088D01*
X951344Y762928D01*
X951306Y762770D01*
X951265Y762613D01*
X951220Y762457D01*
X951171Y762302D01*
X951118Y762148D01*
X951061Y761996D01*
X951001Y761845D01*
X950937Y761695D01*
X950869Y761547D01*
X950798Y761401D01*
X950723Y761257D01*
X950644Y761115D01*
X950562Y760974D01*
X950477Y760836D01*
X950388Y760699D01*
X950296Y760565D01*
X950201Y760433D01*
X950103Y760304D01*
X950001Y760177D01*
X949897Y760053D01*
X949789Y759931D01*
X949678Y759812D01*
X949565Y759695D01*
X949448Y759582D01*
X949329Y759471D01*
X949207Y759363D01*
X949083Y759259D01*
X948956Y759157D01*
X948827Y759059D01*
X948695Y758964D01*
X948561Y758872D01*
X948424Y758783D01*
X948286Y758698D01*
X948145Y758616D01*
X948003Y758537D01*
X947859Y758462D01*
X947713Y758391D01*
X947565Y758323D01*
X947415Y758259D01*
X947264Y758199D01*
X947112Y758142D01*
X946958Y758089D01*
X946803Y758040D01*
X946647Y757995D01*
X946490Y757954D01*
X946332Y757916D01*
X946172Y757882D01*
X946013Y757853D01*
X945852Y757827D01*
X945691Y757805D01*
X945529Y757787D01*
X945367Y757773D01*
X945205Y757763D01*
X945043Y757757D01*
X944880Y757755D01*
X944717Y757757D01*
X944555Y757763D01*
X944393Y757773D01*
X944231Y757787D01*
X944069Y757805D01*
X943908Y757827D01*
X943747Y757853D01*
X943588Y757882D01*
X943428Y757916D01*
X943270Y757954D01*
X943113Y757995D01*
X942957Y758040D01*
X942802Y758089D01*
X942648Y758142D01*
X942496Y758199D01*
X942345Y758259D01*
X942195Y758323D01*
X942047Y758391D01*
X941901Y758462D01*
X941757Y758537D01*
X941615Y758616D01*
X941474Y758698D01*
X941336Y758783D01*
X941199Y758872D01*
X941065Y758964D01*
X940933Y759059D01*
X940804Y759157D01*
X940677Y759259D01*
X940553Y759363D01*
X940431Y759471D01*
X940312Y759582D01*
X940195Y759695D01*
X940082Y759812D01*
X939971Y759931D01*
X939863Y760053D01*
X939759Y760177D01*
X939657Y760304D01*
X939559Y760433D01*
X939464Y760565D01*
X939372Y760699D01*
X939283Y760836D01*
X939198Y760974D01*
X939116Y761115D01*
X939037Y761257D01*
X938962Y761401D01*
X938891Y761547D01*
X938823Y761695D01*
X938759Y761845D01*
X938699Y761996D01*
X938642Y762148D01*
X938589Y762302D01*
X938540Y762457D01*
X938495Y762613D01*
X938454Y762770D01*
X938416Y762928D01*
X938382Y763088D01*
X938353Y763247D01*
X938327Y763408D01*
X938305Y763569D01*
X938287Y763731D01*
X938273Y763893D01*
X938263Y764055D01*
X938257Y764217D01*
X938255Y764380D01*
D23*
X944880Y770880D03*
D24*
X951380Y764380D03*
X938380Y764380D03*
D23*
X944880Y757880D03*
D13*
X1008380Y745880D03*
X1008380Y762880D03*
D25*
X1173480Y1071880D03*
X640080Y1071880D03*
X1173480Y576580D03*
X640080Y576580D03*
D26*
X785780Y1047880D03*
D27*
X911530Y1060380D03*
D28*
X924780Y1056880D03*
X761780Y1056880D03*
D27*
X775030Y1060380D03*
D26*
X790780Y1047880D03*
X795780Y1047880D03*
X800780Y1047880D03*
X805780Y1047880D03*
X810780Y1047880D03*
X815780Y1047880D03*
X820780Y1047880D03*
X825780Y1047880D03*
X830780Y1047880D03*
X835780Y1047880D03*
X840780Y1047880D03*
X845780Y1047880D03*
X850780Y1047880D03*
X855780Y1047880D03*
X860780Y1047880D03*
X865780Y1047880D03*
X870780Y1047880D03*
X875780Y1047880D03*
X880780Y1047880D03*
X885780Y1047880D03*
X890780Y1047880D03*
X895780Y1047880D03*
X900780Y1047880D03*
D13*
X944880Y1004180D03*
X944880Y987180D03*
D29*
X798280Y938180D03*
D30*
X778580Y985520D03*
X755580Y985520D03*
D16*
X758580Y970280D03*
X775580Y970280D03*
D30*
X778580Y1002030D03*
X755580Y1002030D03*
D31*
X1187370Y622240D03*
X1187370Y678240D03*
D32*
X1150620Y635240D03*
X1150620Y645240D03*
X1150620Y655240D03*
X1150620Y665240D03*
D33*
X1109980Y642620D03*
X1109980Y652780D03*
X1109980Y662940D03*
D16*
X1118480Y627380D03*
X1101480Y627380D03*
X1118480Y678180D03*
X1101480Y678180D03*
D34*
X695480Y777621D03*
X695480Y908939D03*
D35*
X737600Y853280D03*
X737600Y878280D03*
X737600Y833280D03*
X737600Y808280D03*
D36*
X760730Y574040D03*
X760730Y629920D03*
X798830Y574040D03*
X798830Y629920D03*
D16*
X707780Y703580D03*
X724780Y703580D03*
D37*
X648716Y754380D03*
X656844Y754380D03*
D38*
X637780Y728980D03*
X667780Y728980D03*
D28*
X717580Y728980D03*
X689580Y728980D03*
D13*
X767080Y695080D03*
X767080Y712080D03*
X754380Y712080D03*
X754380Y695080D03*
D37*
X716280Y614680D03*
X726440Y614680D03*
D39*
X708660Y614680D03*
X734060Y614680D03*
D40*
X773430Y741680D03*
X773430Y754380D03*
X773430Y767080D03*
X773430Y779780D03*
X773430Y728980D03*
X760730Y741680D03*
X760730Y754380D03*
X760730Y767080D03*
X760730Y779780D03*
X760730Y728980D03*
D36*
X811530Y574040D03*
X811530Y629920D03*
X849630Y574040D03*
X849630Y629920D03*
D41*
X855980Y654380D03*
D42*
X855980Y854380D03*
D43*
X803230Y661880D03*
D44*
X810980Y650880D03*
X810980Y857880D03*
D43*
X878730Y664380D03*
X803230Y666880D03*
X878730Y669380D03*
X803230Y671880D03*
X878730Y674380D03*
X803230Y676880D03*
X878730Y679380D03*
X803230Y681880D03*
X878730Y684380D03*
X803230Y686880D03*
X878730Y689380D03*
X803230Y691880D03*
X878730Y694380D03*
X803230Y696880D03*
X878730Y699380D03*
X803230Y701880D03*
X878730Y704380D03*
X803230Y706880D03*
X878730Y709380D03*
X803230Y711880D03*
X878730Y714380D03*
X803230Y716880D03*
X878730Y739380D03*
X803230Y741880D03*
X878730Y744380D03*
X803230Y746880D03*
X878730Y749380D03*
X803230Y751880D03*
X878730Y754380D03*
X803230Y756880D03*
X878730Y759380D03*
X803230Y761880D03*
X878730Y764380D03*
X803230Y766880D03*
X878730Y769380D03*
X803230Y771880D03*
X878730Y774380D03*
X803230Y776880D03*
X878730Y779380D03*
X803230Y781880D03*
X878730Y784380D03*
X803230Y786880D03*
X878730Y789380D03*
X803230Y791880D03*
X878730Y794380D03*
X803230Y796880D03*
X878730Y799380D03*
X803230Y801880D03*
X878730Y804380D03*
X803230Y806880D03*
X878730Y809380D03*
X803230Y811880D03*
X878730Y814380D03*
X803230Y816880D03*
X878730Y819380D03*
X803230Y821880D03*
X878730Y824380D03*
X803230Y826880D03*
X878730Y829380D03*
X803230Y831880D03*
X878730Y834380D03*
X803230Y836880D03*
X878730Y839380D03*
X803230Y841880D03*
X878730Y844380D03*
X803230Y846880D03*
D45*
X1065980Y714380D03*
D46*
X973980Y748960D03*
D40*
X982980Y761480D03*
D46*
X973980Y740740D03*
X991980Y740740D03*
X991980Y748960D03*
X982980Y740740D03*
D47*
X976020Y761480D02*
X976022Y761651D01*
X976028Y761822D01*
X976039Y761992D01*
X976054Y762162D01*
X976072Y762332D01*
X976095Y762501D01*
X976122Y762670D01*
X976154Y762838D01*
X976189Y763005D01*
X976229Y763171D01*
X976272Y763336D01*
X976320Y763500D01*
X976371Y763663D01*
X976427Y763825D01*
X976486Y763985D01*
X976550Y764143D01*
X976617Y764300D01*
X976688Y764456D01*
X976763Y764609D01*
X976842Y764761D01*
X976924Y764911D01*
X977010Y765058D01*
X977100Y765204D01*
X977193Y765347D01*
X977290Y765488D01*
X977390Y765626D01*
X977493Y765762D01*
X977600Y765895D01*
X977710Y766026D01*
X977823Y766154D01*
X977939Y766279D01*
X978059Y766401D01*
X978181Y766521D01*
X978306Y766637D01*
X978434Y766750D01*
X978565Y766860D01*
X978698Y766967D01*
X978834Y767070D01*
X978972Y767170D01*
X979113Y767267D01*
X979256Y767360D01*
X979402Y767450D01*
X979549Y767536D01*
X979699Y767618D01*
X979851Y767697D01*
X980004Y767772D01*
X980160Y767843D01*
X980317Y767910D01*
X980475Y767974D01*
X980635Y768033D01*
X980797Y768089D01*
X980960Y768140D01*
X981124Y768188D01*
X981289Y768231D01*
X981455Y768271D01*
X981622Y768306D01*
X981790Y768338D01*
X981959Y768365D01*
X982128Y768388D01*
X982298Y768406D01*
X982468Y768421D01*
X982638Y768432D01*
X982809Y768438D01*
X982980Y768440D01*
X983151Y768438D01*
X983322Y768432D01*
X983492Y768421D01*
X983662Y768406D01*
X983832Y768388D01*
X984001Y768365D01*
X984170Y768338D01*
X984338Y768306D01*
X984505Y768271D01*
X984671Y768231D01*
X984836Y768188D01*
X985000Y768140D01*
X985163Y768089D01*
X985325Y768033D01*
X985485Y767974D01*
X985643Y767910D01*
X985800Y767843D01*
X985956Y767772D01*
X986109Y767697D01*
X986261Y767618D01*
X986411Y767536D01*
X986558Y767450D01*
X986704Y767360D01*
X986847Y767267D01*
X986988Y767170D01*
X987126Y767070D01*
X987262Y766967D01*
X987395Y766860D01*
X987526Y766750D01*
X987654Y766637D01*
X987779Y766521D01*
X987901Y766401D01*
X988021Y766279D01*
X988137Y766154D01*
X988250Y766026D01*
X988360Y765895D01*
X988467Y765762D01*
X988570Y765626D01*
X988670Y765488D01*
X988767Y765347D01*
X988860Y765204D01*
X988950Y765058D01*
X989036Y764911D01*
X989118Y764761D01*
X989197Y764609D01*
X989272Y764456D01*
X989343Y764300D01*
X989410Y764143D01*
X989474Y763985D01*
X989533Y763825D01*
X989589Y763663D01*
X989640Y763500D01*
X989688Y763336D01*
X989731Y763171D01*
X989771Y763005D01*
X989806Y762838D01*
X989838Y762670D01*
X989865Y762501D01*
X989888Y762332D01*
X989906Y762162D01*
X989921Y761992D01*
X989932Y761822D01*
X989938Y761651D01*
X989940Y761480D01*
X989938Y761309D01*
X989932Y761138D01*
X989921Y760968D01*
X989906Y760798D01*
X989888Y760628D01*
X989865Y760459D01*
X989838Y760290D01*
X989806Y760122D01*
X989771Y759955D01*
X989731Y759789D01*
X989688Y759624D01*
X989640Y759460D01*
X989589Y759297D01*
X989533Y759135D01*
X989474Y758975D01*
X989410Y758817D01*
X989343Y758660D01*
X989272Y758504D01*
X989197Y758351D01*
X989118Y758199D01*
X989036Y758049D01*
X988950Y757902D01*
X988860Y757756D01*
X988767Y757613D01*
X988670Y757472D01*
X988570Y757334D01*
X988467Y757198D01*
X988360Y757065D01*
X988250Y756934D01*
X988137Y756806D01*
X988021Y756681D01*
X987901Y756559D01*
X987779Y756439D01*
X987654Y756323D01*
X987526Y756210D01*
X987395Y756100D01*
X987262Y755993D01*
X987126Y755890D01*
X986988Y755790D01*
X986847Y755693D01*
X986704Y755600D01*
X986558Y755510D01*
X986411Y755424D01*
X986261Y755342D01*
X986109Y755263D01*
X985956Y755188D01*
X985800Y755117D01*
X985643Y755050D01*
X985485Y754986D01*
X985325Y754927D01*
X985163Y754871D01*
X985000Y754820D01*
X984836Y754772D01*
X984671Y754729D01*
X984505Y754689D01*
X984338Y754654D01*
X984170Y754622D01*
X984001Y754595D01*
X983832Y754572D01*
X983662Y754554D01*
X983492Y754539D01*
X983322Y754528D01*
X983151Y754522D01*
X982980Y754520D01*
X982809Y754522D01*
X982638Y754528D01*
X982468Y754539D01*
X982298Y754554D01*
X982128Y754572D01*
X981959Y754595D01*
X981790Y754622D01*
X981622Y754654D01*
X981455Y754689D01*
X981289Y754729D01*
X981124Y754772D01*
X980960Y754820D01*
X980797Y754871D01*
X980635Y754927D01*
X980475Y754986D01*
X980317Y755050D01*
X980160Y755117D01*
X980004Y755188D01*
X979851Y755263D01*
X979699Y755342D01*
X979549Y755424D01*
X979402Y755510D01*
X979256Y755600D01*
X979113Y755693D01*
X978972Y755790D01*
X978834Y755890D01*
X978698Y755993D01*
X978565Y756100D01*
X978434Y756210D01*
X978306Y756323D01*
X978181Y756439D01*
X978059Y756559D01*
X977939Y756681D01*
X977823Y756806D01*
X977710Y756934D01*
X977600Y757065D01*
X977493Y757198D01*
X977390Y757334D01*
X977290Y757472D01*
X977193Y757613D01*
X977100Y757756D01*
X977010Y757902D01*
X976924Y758049D01*
X976842Y758199D01*
X976763Y758351D01*
X976688Y758504D01*
X976617Y758660D01*
X976550Y758817D01*
X976486Y758975D01*
X976427Y759135D01*
X976371Y759297D01*
X976320Y759460D01*
X976272Y759624D01*
X976229Y759789D01*
X976189Y759955D01*
X976154Y760122D01*
X976122Y760290D01*
X976095Y760459D01*
X976072Y760628D01*
X976054Y760798D01*
X976039Y760968D01*
X976028Y761138D01*
X976022Y761309D01*
X976020Y761480D01*
D37*
X987044Y722630D03*
X978916Y722630D03*
X939800Y722630D03*
X949960Y722630D03*
D39*
X627380Y1033780D03*
X627380Y1008380D03*
X627380Y982980D03*
X627380Y957580D03*
X627380Y932180D03*
X1160780Y767080D03*
X1160780Y792480D03*
X1160780Y817880D03*
X1160780Y843280D03*
X1160780Y868680D03*
X1160780Y894080D03*
X1186180Y767080D03*
X1186180Y792480D03*
X1186180Y817880D03*
X1186180Y843280D03*
X1186180Y868680D03*
X1186180Y894080D03*
D48*
X1019780Y923480D03*
X1076780Y923480D03*
D49*
X1092780Y1054980D03*
X961280Y1064980D03*
D50*
X1007880Y1026480D03*
X1018880Y1022480D03*
X1029880Y1026480D03*
X1040880Y1028480D03*
X1051880Y1026480D03*
X1062880Y1028480D03*
X1073880Y1026480D03*
X1084880Y1026480D03*
D39*
X1008380Y563880D03*
X982980Y563880D03*
X957580Y563880D03*
X932180Y563880D03*
X906780Y563880D03*
X881380Y563880D03*
D51*
X706780Y1046179D03*
X716280Y1046179D03*
X725780Y1046179D03*
X725780Y1072181D03*
X706780Y1072181D03*
D13*
X741680Y1050680D03*
X741680Y1067680D03*
X690880Y1067680D03*
X690880Y1050680D03*
D39*
X1033780Y563880D03*
X1059180Y563880D03*
X1084580Y563880D03*
X1109980Y563880D03*
D40*
X93980Y1118235D03*
X1180465Y1118235D03*
D52*
X84925Y-20955D02*
X84928Y-20733D01*
X84936Y-20511D01*
X84950Y-20289D01*
X84969Y-20067D01*
X84993Y-19847D01*
X85023Y-19626D01*
X85058Y-19407D01*
X85099Y-19188D01*
X85145Y-18971D01*
X85196Y-18755D01*
X85253Y-18540D01*
X85315Y-18326D01*
X85382Y-18115D01*
X85454Y-17904D01*
X85532Y-17696D01*
X85614Y-17490D01*
X85702Y-17286D01*
X85794Y-17083D01*
X85892Y-16884D01*
X85994Y-16687D01*
X86101Y-16492D01*
X86213Y-16300D01*
X86330Y-16111D01*
X86451Y-15924D01*
X86577Y-15741D01*
X86707Y-15561D01*
X86842Y-15384D01*
X86980Y-15211D01*
X87123Y-15041D01*
X87271Y-14874D01*
X87422Y-14711D01*
X87577Y-14552D01*
X87736Y-14397D01*
X87899Y-14246D01*
X88066Y-14098D01*
X88236Y-13955D01*
X88409Y-13817D01*
X88586Y-13682D01*
X88766Y-13552D01*
X88949Y-13426D01*
X89136Y-13305D01*
X89325Y-13188D01*
X89517Y-13076D01*
X89712Y-12969D01*
X89909Y-12867D01*
X90108Y-12769D01*
X90311Y-12677D01*
X90515Y-12589D01*
X90721Y-12507D01*
X90929Y-12429D01*
X91140Y-12357D01*
X91351Y-12290D01*
X91565Y-12228D01*
X91780Y-12171D01*
X91996Y-12120D01*
X92213Y-12074D01*
X92432Y-12033D01*
X92651Y-11998D01*
X92872Y-11968D01*
X93092Y-11944D01*
X93314Y-11925D01*
X93536Y-11911D01*
X93758Y-11903D01*
X93980Y-11900D01*
X94202Y-11903D01*
X94424Y-11911D01*
X94646Y-11925D01*
X94868Y-11944D01*
X95088Y-11968D01*
X95309Y-11998D01*
X95528Y-12033D01*
X95747Y-12074D01*
X95964Y-12120D01*
X96180Y-12171D01*
X96395Y-12228D01*
X96609Y-12290D01*
X96820Y-12357D01*
X97031Y-12429D01*
X97239Y-12507D01*
X97445Y-12589D01*
X97649Y-12677D01*
X97852Y-12769D01*
X98051Y-12867D01*
X98248Y-12969D01*
X98443Y-13076D01*
X98635Y-13188D01*
X98824Y-13305D01*
X99011Y-13426D01*
X99194Y-13552D01*
X99374Y-13682D01*
X99551Y-13817D01*
X99724Y-13955D01*
X99894Y-14098D01*
X100061Y-14246D01*
X100224Y-14397D01*
X100383Y-14552D01*
X100538Y-14711D01*
X100689Y-14874D01*
X100837Y-15041D01*
X100980Y-15211D01*
X101118Y-15384D01*
X101253Y-15561D01*
X101383Y-15741D01*
X101509Y-15924D01*
X101630Y-16111D01*
X101747Y-16300D01*
X101859Y-16492D01*
X101966Y-16687D01*
X102068Y-16884D01*
X102166Y-17083D01*
X102258Y-17286D01*
X102346Y-17490D01*
X102428Y-17696D01*
X102506Y-17904D01*
X102578Y-18115D01*
X102645Y-18326D01*
X102707Y-18540D01*
X102764Y-18755D01*
X102815Y-18971D01*
X102861Y-19188D01*
X102902Y-19407D01*
X102937Y-19626D01*
X102967Y-19847D01*
X102991Y-20067D01*
X103010Y-20289D01*
X103024Y-20511D01*
X103032Y-20733D01*
X103035Y-20955D01*
X103032Y-21177D01*
X103024Y-21399D01*
X103010Y-21621D01*
X102991Y-21843D01*
X102967Y-22063D01*
X102937Y-22284D01*
X102902Y-22503D01*
X102861Y-22722D01*
X102815Y-22939D01*
X102764Y-23155D01*
X102707Y-23370D01*
X102645Y-23584D01*
X102578Y-23795D01*
X102506Y-24006D01*
X102428Y-24214D01*
X102346Y-24420D01*
X102258Y-24624D01*
X102166Y-24827D01*
X102068Y-25026D01*
X101966Y-25223D01*
X101859Y-25418D01*
X101747Y-25610D01*
X101630Y-25799D01*
X101509Y-25986D01*
X101383Y-26169D01*
X101253Y-26349D01*
X101118Y-26526D01*
X100980Y-26699D01*
X100837Y-26869D01*
X100689Y-27036D01*
X100538Y-27199D01*
X100383Y-27358D01*
X100224Y-27513D01*
X100061Y-27664D01*
X99894Y-27812D01*
X99724Y-27955D01*
X99551Y-28093D01*
X99374Y-28228D01*
X99194Y-28358D01*
X99011Y-28484D01*
X98824Y-28605D01*
X98635Y-28722D01*
X98443Y-28834D01*
X98248Y-28941D01*
X98051Y-29043D01*
X97852Y-29141D01*
X97649Y-29233D01*
X97445Y-29321D01*
X97239Y-29403D01*
X97031Y-29481D01*
X96820Y-29553D01*
X96609Y-29620D01*
X96395Y-29682D01*
X96180Y-29739D01*
X95964Y-29790D01*
X95747Y-29836D01*
X95528Y-29877D01*
X95309Y-29912D01*
X95088Y-29942D01*
X94868Y-29966D01*
X94646Y-29985D01*
X94424Y-29999D01*
X94202Y-30007D01*
X93980Y-30010D01*
X93758Y-30007D01*
X93536Y-29999D01*
X93314Y-29985D01*
X93092Y-29966D01*
X92872Y-29942D01*
X92651Y-29912D01*
X92432Y-29877D01*
X92213Y-29836D01*
X91996Y-29790D01*
X91780Y-29739D01*
X91565Y-29682D01*
X91351Y-29620D01*
X91140Y-29553D01*
X90929Y-29481D01*
X90721Y-29403D01*
X90515Y-29321D01*
X90311Y-29233D01*
X90108Y-29141D01*
X89909Y-29043D01*
X89712Y-28941D01*
X89517Y-28834D01*
X89325Y-28722D01*
X89136Y-28605D01*
X88949Y-28484D01*
X88766Y-28358D01*
X88586Y-28228D01*
X88409Y-28093D01*
X88236Y-27955D01*
X88066Y-27812D01*
X87899Y-27664D01*
X87736Y-27513D01*
X87577Y-27358D01*
X87422Y-27199D01*
X87271Y-27036D01*
X87123Y-26869D01*
X86980Y-26699D01*
X86842Y-26526D01*
X86707Y-26349D01*
X86577Y-26169D01*
X86451Y-25986D01*
X86330Y-25799D01*
X86213Y-25610D01*
X86101Y-25418D01*
X85994Y-25223D01*
X85892Y-25026D01*
X85794Y-24827D01*
X85702Y-24624D01*
X85614Y-24420D01*
X85532Y-24214D01*
X85454Y-24006D01*
X85382Y-23795D01*
X85315Y-23584D01*
X85253Y-23370D01*
X85196Y-23155D01*
X85145Y-22939D01*
X85099Y-22722D01*
X85058Y-22503D01*
X85023Y-22284D01*
X84993Y-22063D01*
X84969Y-21843D01*
X84950Y-21621D01*
X84936Y-21399D01*
X84928Y-21177D01*
X84925Y-20955D01*
D53*
X93980Y-20955D03*
M02*
