G04 EAGLE Gerber RS-274X export*
G75*
%MOMM*%
%FSLAX34Y34*%
%LPD*%
%INSoldermask Bottom*%
%IPPOS*%
%AMOC8*
5,1,8,0,0,1.08239X$1,22.5*%
G01*
%ADD10C,0.853200*%
%ADD11C,0.838200*%
%ADD12C,1.003200*%
%ADD13C,3.505200*%
%ADD14C,2.082800*%
%ADD15C,1.203200*%
%ADD16C,1.473200*%
%ADD17C,6.203200*%
%ADD18R,0.863600X1.473200*%
%ADD19C,1.303200*%
%ADD20C,1.803200*%
%ADD21R,0.838200X1.473200*%
%ADD22C,1.270000*%
%ADD23C,1.703200*%

G36*
X1124650Y1075067D02*
X1124650Y1075067D01*
X1124716Y1075069D01*
X1124759Y1075087D01*
X1124806Y1075095D01*
X1124863Y1075129D01*
X1124923Y1075154D01*
X1124958Y1075185D01*
X1124999Y1075210D01*
X1125041Y1075261D01*
X1125089Y1075305D01*
X1125111Y1075347D01*
X1125140Y1075384D01*
X1125161Y1075446D01*
X1125192Y1075505D01*
X1125200Y1075559D01*
X1125212Y1075596D01*
X1125211Y1075636D01*
X1125219Y1075690D01*
X1125219Y1078230D01*
X1125208Y1078295D01*
X1125206Y1078361D01*
X1125188Y1078404D01*
X1125180Y1078451D01*
X1125146Y1078508D01*
X1125121Y1078568D01*
X1125090Y1078603D01*
X1125065Y1078644D01*
X1125014Y1078686D01*
X1124970Y1078734D01*
X1124928Y1078756D01*
X1124891Y1078785D01*
X1124829Y1078806D01*
X1124770Y1078837D01*
X1124716Y1078845D01*
X1124679Y1078857D01*
X1124639Y1078856D01*
X1124585Y1078864D01*
X1120775Y1078864D01*
X1120710Y1078853D01*
X1120644Y1078851D01*
X1120601Y1078833D01*
X1120554Y1078825D01*
X1120497Y1078791D01*
X1120437Y1078766D01*
X1120402Y1078735D01*
X1120361Y1078710D01*
X1120320Y1078659D01*
X1120271Y1078615D01*
X1120249Y1078573D01*
X1120220Y1078536D01*
X1120199Y1078474D01*
X1120168Y1078415D01*
X1120160Y1078361D01*
X1120148Y1078324D01*
X1120148Y1078321D01*
X1120149Y1078284D01*
X1120141Y1078230D01*
X1120141Y1075690D01*
X1120152Y1075625D01*
X1120154Y1075559D01*
X1120172Y1075516D01*
X1120180Y1075469D01*
X1120214Y1075412D01*
X1120239Y1075352D01*
X1120270Y1075317D01*
X1120295Y1075276D01*
X1120346Y1075235D01*
X1120390Y1075186D01*
X1120432Y1075164D01*
X1120469Y1075135D01*
X1120531Y1075114D01*
X1120590Y1075083D01*
X1120644Y1075075D01*
X1120681Y1075063D01*
X1120721Y1075064D01*
X1120775Y1075056D01*
X1124585Y1075056D01*
X1124650Y1075067D01*
G37*
G36*
X1048450Y1075067D02*
X1048450Y1075067D01*
X1048516Y1075069D01*
X1048559Y1075087D01*
X1048606Y1075095D01*
X1048663Y1075129D01*
X1048723Y1075154D01*
X1048758Y1075185D01*
X1048799Y1075210D01*
X1048841Y1075261D01*
X1048889Y1075305D01*
X1048911Y1075347D01*
X1048940Y1075384D01*
X1048961Y1075446D01*
X1048992Y1075505D01*
X1049000Y1075559D01*
X1049012Y1075596D01*
X1049011Y1075636D01*
X1049019Y1075690D01*
X1049019Y1078230D01*
X1049008Y1078295D01*
X1049006Y1078361D01*
X1048988Y1078404D01*
X1048980Y1078451D01*
X1048946Y1078508D01*
X1048921Y1078568D01*
X1048890Y1078603D01*
X1048865Y1078644D01*
X1048814Y1078686D01*
X1048770Y1078734D01*
X1048728Y1078756D01*
X1048691Y1078785D01*
X1048629Y1078806D01*
X1048570Y1078837D01*
X1048516Y1078845D01*
X1048479Y1078857D01*
X1048439Y1078856D01*
X1048385Y1078864D01*
X1044575Y1078864D01*
X1044510Y1078853D01*
X1044444Y1078851D01*
X1044401Y1078833D01*
X1044354Y1078825D01*
X1044297Y1078791D01*
X1044237Y1078766D01*
X1044202Y1078735D01*
X1044161Y1078710D01*
X1044120Y1078659D01*
X1044071Y1078615D01*
X1044049Y1078573D01*
X1044020Y1078536D01*
X1043999Y1078474D01*
X1043968Y1078415D01*
X1043960Y1078361D01*
X1043948Y1078324D01*
X1043948Y1078321D01*
X1043949Y1078284D01*
X1043941Y1078230D01*
X1043941Y1075690D01*
X1043952Y1075625D01*
X1043954Y1075559D01*
X1043972Y1075516D01*
X1043980Y1075469D01*
X1044014Y1075412D01*
X1044039Y1075352D01*
X1044070Y1075317D01*
X1044095Y1075276D01*
X1044146Y1075235D01*
X1044190Y1075186D01*
X1044232Y1075164D01*
X1044269Y1075135D01*
X1044331Y1075114D01*
X1044390Y1075083D01*
X1044444Y1075075D01*
X1044481Y1075063D01*
X1044521Y1075064D01*
X1044575Y1075056D01*
X1048385Y1075056D01*
X1048450Y1075067D01*
G37*
G36*
X509970Y1075067D02*
X509970Y1075067D01*
X510036Y1075069D01*
X510079Y1075087D01*
X510126Y1075095D01*
X510183Y1075129D01*
X510243Y1075154D01*
X510278Y1075185D01*
X510319Y1075210D01*
X510361Y1075261D01*
X510409Y1075305D01*
X510431Y1075347D01*
X510460Y1075384D01*
X510481Y1075446D01*
X510512Y1075505D01*
X510520Y1075559D01*
X510532Y1075596D01*
X510531Y1075636D01*
X510539Y1075690D01*
X510539Y1078230D01*
X510528Y1078295D01*
X510526Y1078361D01*
X510508Y1078404D01*
X510500Y1078451D01*
X510466Y1078508D01*
X510441Y1078568D01*
X510410Y1078603D01*
X510385Y1078644D01*
X510334Y1078686D01*
X510290Y1078734D01*
X510248Y1078756D01*
X510211Y1078785D01*
X510149Y1078806D01*
X510090Y1078837D01*
X510036Y1078845D01*
X509999Y1078857D01*
X509959Y1078856D01*
X509905Y1078864D01*
X506095Y1078864D01*
X506030Y1078853D01*
X505964Y1078851D01*
X505921Y1078833D01*
X505874Y1078825D01*
X505817Y1078791D01*
X505757Y1078766D01*
X505722Y1078735D01*
X505681Y1078710D01*
X505640Y1078659D01*
X505591Y1078615D01*
X505569Y1078573D01*
X505540Y1078536D01*
X505519Y1078474D01*
X505488Y1078415D01*
X505480Y1078361D01*
X505468Y1078324D01*
X505468Y1078321D01*
X505469Y1078284D01*
X505461Y1078230D01*
X505461Y1075690D01*
X505472Y1075625D01*
X505474Y1075559D01*
X505492Y1075516D01*
X505500Y1075469D01*
X505534Y1075412D01*
X505559Y1075352D01*
X505590Y1075317D01*
X505615Y1075276D01*
X505666Y1075235D01*
X505710Y1075186D01*
X505752Y1075164D01*
X505789Y1075135D01*
X505851Y1075114D01*
X505910Y1075083D01*
X505964Y1075075D01*
X506001Y1075063D01*
X506041Y1075064D01*
X506095Y1075056D01*
X509905Y1075056D01*
X509970Y1075067D01*
G37*
G36*
X433770Y1075067D02*
X433770Y1075067D01*
X433836Y1075069D01*
X433879Y1075087D01*
X433926Y1075095D01*
X433983Y1075129D01*
X434043Y1075154D01*
X434078Y1075185D01*
X434119Y1075210D01*
X434161Y1075261D01*
X434209Y1075305D01*
X434231Y1075347D01*
X434260Y1075384D01*
X434281Y1075446D01*
X434312Y1075505D01*
X434320Y1075559D01*
X434332Y1075596D01*
X434331Y1075636D01*
X434339Y1075690D01*
X434339Y1078230D01*
X434328Y1078295D01*
X434326Y1078361D01*
X434308Y1078404D01*
X434300Y1078451D01*
X434266Y1078508D01*
X434241Y1078568D01*
X434210Y1078603D01*
X434185Y1078644D01*
X434134Y1078686D01*
X434090Y1078734D01*
X434048Y1078756D01*
X434011Y1078785D01*
X433949Y1078806D01*
X433890Y1078837D01*
X433836Y1078845D01*
X433799Y1078857D01*
X433759Y1078856D01*
X433705Y1078864D01*
X429895Y1078864D01*
X429830Y1078853D01*
X429764Y1078851D01*
X429721Y1078833D01*
X429674Y1078825D01*
X429617Y1078791D01*
X429557Y1078766D01*
X429522Y1078735D01*
X429481Y1078710D01*
X429440Y1078659D01*
X429391Y1078615D01*
X429369Y1078573D01*
X429340Y1078536D01*
X429319Y1078474D01*
X429288Y1078415D01*
X429280Y1078361D01*
X429268Y1078324D01*
X429268Y1078321D01*
X429269Y1078284D01*
X429261Y1078230D01*
X429261Y1075690D01*
X429272Y1075625D01*
X429274Y1075559D01*
X429292Y1075516D01*
X429300Y1075469D01*
X429334Y1075412D01*
X429359Y1075352D01*
X429390Y1075317D01*
X429415Y1075276D01*
X429466Y1075235D01*
X429510Y1075186D01*
X429552Y1075164D01*
X429589Y1075135D01*
X429651Y1075114D01*
X429710Y1075083D01*
X429764Y1075075D01*
X429801Y1075063D01*
X429841Y1075064D01*
X429895Y1075056D01*
X433705Y1075056D01*
X433770Y1075067D01*
G37*
G36*
X1124650Y549287D02*
X1124650Y549287D01*
X1124716Y549289D01*
X1124759Y549307D01*
X1124806Y549315D01*
X1124863Y549349D01*
X1124923Y549374D01*
X1124958Y549405D01*
X1124999Y549430D01*
X1125041Y549481D01*
X1125089Y549525D01*
X1125111Y549567D01*
X1125140Y549604D01*
X1125161Y549666D01*
X1125192Y549725D01*
X1125200Y549779D01*
X1125212Y549816D01*
X1125211Y549856D01*
X1125219Y549910D01*
X1125219Y552450D01*
X1125208Y552515D01*
X1125206Y552581D01*
X1125188Y552624D01*
X1125180Y552671D01*
X1125146Y552728D01*
X1125121Y552788D01*
X1125090Y552823D01*
X1125065Y552864D01*
X1125014Y552906D01*
X1124970Y552954D01*
X1124928Y552976D01*
X1124891Y553005D01*
X1124829Y553026D01*
X1124770Y553057D01*
X1124716Y553065D01*
X1124679Y553077D01*
X1124639Y553076D01*
X1124585Y553084D01*
X1120775Y553084D01*
X1120710Y553073D01*
X1120644Y553071D01*
X1120601Y553053D01*
X1120554Y553045D01*
X1120497Y553011D01*
X1120437Y552986D01*
X1120402Y552955D01*
X1120361Y552930D01*
X1120320Y552879D01*
X1120271Y552835D01*
X1120249Y552793D01*
X1120220Y552756D01*
X1120199Y552694D01*
X1120168Y552635D01*
X1120160Y552581D01*
X1120148Y552544D01*
X1120148Y552541D01*
X1120149Y552504D01*
X1120141Y552450D01*
X1120141Y549910D01*
X1120152Y549845D01*
X1120154Y549779D01*
X1120172Y549736D01*
X1120180Y549689D01*
X1120214Y549632D01*
X1120239Y549572D01*
X1120270Y549537D01*
X1120295Y549496D01*
X1120346Y549455D01*
X1120390Y549406D01*
X1120432Y549384D01*
X1120469Y549355D01*
X1120531Y549334D01*
X1120590Y549303D01*
X1120644Y549295D01*
X1120681Y549283D01*
X1120721Y549284D01*
X1120775Y549276D01*
X1124585Y549276D01*
X1124650Y549287D01*
G37*
G36*
X1048450Y549287D02*
X1048450Y549287D01*
X1048516Y549289D01*
X1048559Y549307D01*
X1048606Y549315D01*
X1048663Y549349D01*
X1048723Y549374D01*
X1048758Y549405D01*
X1048799Y549430D01*
X1048841Y549481D01*
X1048889Y549525D01*
X1048911Y549567D01*
X1048940Y549604D01*
X1048961Y549666D01*
X1048992Y549725D01*
X1049000Y549779D01*
X1049012Y549816D01*
X1049011Y549856D01*
X1049019Y549910D01*
X1049019Y552450D01*
X1049008Y552515D01*
X1049006Y552581D01*
X1048988Y552624D01*
X1048980Y552671D01*
X1048946Y552728D01*
X1048921Y552788D01*
X1048890Y552823D01*
X1048865Y552864D01*
X1048814Y552906D01*
X1048770Y552954D01*
X1048728Y552976D01*
X1048691Y553005D01*
X1048629Y553026D01*
X1048570Y553057D01*
X1048516Y553065D01*
X1048479Y553077D01*
X1048439Y553076D01*
X1048385Y553084D01*
X1044575Y553084D01*
X1044510Y553073D01*
X1044444Y553071D01*
X1044401Y553053D01*
X1044354Y553045D01*
X1044297Y553011D01*
X1044237Y552986D01*
X1044202Y552955D01*
X1044161Y552930D01*
X1044120Y552879D01*
X1044071Y552835D01*
X1044049Y552793D01*
X1044020Y552756D01*
X1043999Y552694D01*
X1043968Y552635D01*
X1043960Y552581D01*
X1043948Y552544D01*
X1043948Y552541D01*
X1043949Y552504D01*
X1043941Y552450D01*
X1043941Y549910D01*
X1043952Y549845D01*
X1043954Y549779D01*
X1043972Y549736D01*
X1043980Y549689D01*
X1044014Y549632D01*
X1044039Y549572D01*
X1044070Y549537D01*
X1044095Y549496D01*
X1044146Y549455D01*
X1044190Y549406D01*
X1044232Y549384D01*
X1044269Y549355D01*
X1044331Y549334D01*
X1044390Y549303D01*
X1044444Y549295D01*
X1044481Y549283D01*
X1044521Y549284D01*
X1044575Y549276D01*
X1048385Y549276D01*
X1048450Y549287D01*
G37*
G36*
X433770Y549287D02*
X433770Y549287D01*
X433836Y549289D01*
X433879Y549307D01*
X433926Y549315D01*
X433983Y549349D01*
X434043Y549374D01*
X434078Y549405D01*
X434119Y549430D01*
X434161Y549481D01*
X434209Y549525D01*
X434231Y549567D01*
X434260Y549604D01*
X434281Y549666D01*
X434312Y549725D01*
X434320Y549779D01*
X434332Y549816D01*
X434331Y549856D01*
X434339Y549910D01*
X434339Y552450D01*
X434328Y552515D01*
X434326Y552581D01*
X434308Y552624D01*
X434300Y552671D01*
X434266Y552728D01*
X434241Y552788D01*
X434210Y552823D01*
X434185Y552864D01*
X434134Y552906D01*
X434090Y552954D01*
X434048Y552976D01*
X434011Y553005D01*
X433949Y553026D01*
X433890Y553057D01*
X433836Y553065D01*
X433799Y553077D01*
X433759Y553076D01*
X433705Y553084D01*
X429895Y553084D01*
X429830Y553073D01*
X429764Y553071D01*
X429721Y553053D01*
X429674Y553045D01*
X429617Y553011D01*
X429557Y552986D01*
X429522Y552955D01*
X429481Y552930D01*
X429440Y552879D01*
X429391Y552835D01*
X429369Y552793D01*
X429340Y552756D01*
X429319Y552694D01*
X429288Y552635D01*
X429280Y552581D01*
X429268Y552544D01*
X429268Y552541D01*
X429269Y552504D01*
X429261Y552450D01*
X429261Y549910D01*
X429272Y549845D01*
X429274Y549779D01*
X429292Y549736D01*
X429300Y549689D01*
X429334Y549632D01*
X429359Y549572D01*
X429390Y549537D01*
X429415Y549496D01*
X429466Y549455D01*
X429510Y549406D01*
X429552Y549384D01*
X429589Y549355D01*
X429651Y549334D01*
X429710Y549303D01*
X429764Y549295D01*
X429801Y549283D01*
X429841Y549284D01*
X429895Y549276D01*
X433705Y549276D01*
X433770Y549287D01*
G37*
G36*
X509970Y549287D02*
X509970Y549287D01*
X510036Y549289D01*
X510079Y549307D01*
X510126Y549315D01*
X510183Y549349D01*
X510243Y549374D01*
X510278Y549405D01*
X510319Y549430D01*
X510361Y549481D01*
X510409Y549525D01*
X510431Y549567D01*
X510460Y549604D01*
X510481Y549666D01*
X510512Y549725D01*
X510520Y549779D01*
X510532Y549816D01*
X510531Y549856D01*
X510539Y549910D01*
X510539Y552450D01*
X510528Y552515D01*
X510526Y552581D01*
X510508Y552624D01*
X510500Y552671D01*
X510466Y552728D01*
X510441Y552788D01*
X510410Y552823D01*
X510385Y552864D01*
X510334Y552906D01*
X510290Y552954D01*
X510248Y552976D01*
X510211Y553005D01*
X510149Y553026D01*
X510090Y553057D01*
X510036Y553065D01*
X509999Y553077D01*
X509959Y553076D01*
X509905Y553084D01*
X506095Y553084D01*
X506030Y553073D01*
X505964Y553071D01*
X505921Y553053D01*
X505874Y553045D01*
X505817Y553011D01*
X505757Y552986D01*
X505722Y552955D01*
X505681Y552930D01*
X505640Y552879D01*
X505591Y552835D01*
X505569Y552793D01*
X505540Y552756D01*
X505519Y552694D01*
X505488Y552635D01*
X505480Y552581D01*
X505468Y552544D01*
X505468Y552541D01*
X505469Y552504D01*
X505461Y552450D01*
X505461Y549910D01*
X505472Y549845D01*
X505474Y549779D01*
X505492Y549736D01*
X505500Y549689D01*
X505534Y549632D01*
X505559Y549572D01*
X505590Y549537D01*
X505615Y549496D01*
X505666Y549455D01*
X505710Y549406D01*
X505752Y549384D01*
X505789Y549355D01*
X505851Y549334D01*
X505910Y549303D01*
X505964Y549295D01*
X506001Y549283D01*
X506041Y549284D01*
X506095Y549276D01*
X509905Y549276D01*
X509970Y549287D01*
G37*
G36*
X1124650Y23507D02*
X1124650Y23507D01*
X1124716Y23509D01*
X1124759Y23527D01*
X1124806Y23535D01*
X1124863Y23569D01*
X1124923Y23594D01*
X1124958Y23625D01*
X1124999Y23650D01*
X1125041Y23701D01*
X1125089Y23745D01*
X1125111Y23787D01*
X1125140Y23824D01*
X1125161Y23886D01*
X1125192Y23945D01*
X1125200Y23999D01*
X1125212Y24036D01*
X1125211Y24076D01*
X1125219Y24130D01*
X1125219Y26670D01*
X1125208Y26735D01*
X1125206Y26801D01*
X1125188Y26844D01*
X1125180Y26891D01*
X1125146Y26948D01*
X1125121Y27008D01*
X1125090Y27043D01*
X1125065Y27084D01*
X1125014Y27126D01*
X1124970Y27174D01*
X1124928Y27196D01*
X1124891Y27225D01*
X1124829Y27246D01*
X1124770Y27277D01*
X1124716Y27285D01*
X1124679Y27297D01*
X1124639Y27296D01*
X1124585Y27304D01*
X1120775Y27304D01*
X1120710Y27293D01*
X1120644Y27291D01*
X1120601Y27273D01*
X1120554Y27265D01*
X1120497Y27231D01*
X1120437Y27206D01*
X1120402Y27175D01*
X1120361Y27150D01*
X1120320Y27099D01*
X1120271Y27055D01*
X1120249Y27013D01*
X1120220Y26976D01*
X1120199Y26914D01*
X1120168Y26855D01*
X1120160Y26801D01*
X1120148Y26764D01*
X1120148Y26761D01*
X1120149Y26724D01*
X1120141Y26670D01*
X1120141Y24130D01*
X1120152Y24065D01*
X1120154Y23999D01*
X1120172Y23956D01*
X1120180Y23909D01*
X1120214Y23852D01*
X1120239Y23792D01*
X1120270Y23757D01*
X1120295Y23716D01*
X1120346Y23675D01*
X1120390Y23626D01*
X1120432Y23604D01*
X1120469Y23575D01*
X1120531Y23554D01*
X1120590Y23523D01*
X1120644Y23515D01*
X1120681Y23503D01*
X1120721Y23504D01*
X1120775Y23496D01*
X1124585Y23496D01*
X1124650Y23507D01*
G37*
G36*
X1048450Y23507D02*
X1048450Y23507D01*
X1048516Y23509D01*
X1048559Y23527D01*
X1048606Y23535D01*
X1048663Y23569D01*
X1048723Y23594D01*
X1048758Y23625D01*
X1048799Y23650D01*
X1048841Y23701D01*
X1048889Y23745D01*
X1048911Y23787D01*
X1048940Y23824D01*
X1048961Y23886D01*
X1048992Y23945D01*
X1049000Y23999D01*
X1049012Y24036D01*
X1049011Y24076D01*
X1049019Y24130D01*
X1049019Y26670D01*
X1049008Y26735D01*
X1049006Y26801D01*
X1048988Y26844D01*
X1048980Y26891D01*
X1048946Y26948D01*
X1048921Y27008D01*
X1048890Y27043D01*
X1048865Y27084D01*
X1048814Y27126D01*
X1048770Y27174D01*
X1048728Y27196D01*
X1048691Y27225D01*
X1048629Y27246D01*
X1048570Y27277D01*
X1048516Y27285D01*
X1048479Y27297D01*
X1048439Y27296D01*
X1048385Y27304D01*
X1044575Y27304D01*
X1044510Y27293D01*
X1044444Y27291D01*
X1044401Y27273D01*
X1044354Y27265D01*
X1044297Y27231D01*
X1044237Y27206D01*
X1044202Y27175D01*
X1044161Y27150D01*
X1044120Y27099D01*
X1044071Y27055D01*
X1044049Y27013D01*
X1044020Y26976D01*
X1043999Y26914D01*
X1043968Y26855D01*
X1043960Y26801D01*
X1043948Y26764D01*
X1043948Y26761D01*
X1043949Y26724D01*
X1043941Y26670D01*
X1043941Y24130D01*
X1043952Y24065D01*
X1043954Y23999D01*
X1043972Y23956D01*
X1043980Y23909D01*
X1044014Y23852D01*
X1044039Y23792D01*
X1044070Y23757D01*
X1044095Y23716D01*
X1044146Y23675D01*
X1044190Y23626D01*
X1044232Y23604D01*
X1044269Y23575D01*
X1044331Y23554D01*
X1044390Y23523D01*
X1044444Y23515D01*
X1044481Y23503D01*
X1044521Y23504D01*
X1044575Y23496D01*
X1048385Y23496D01*
X1048450Y23507D01*
G37*
G36*
X509970Y23507D02*
X509970Y23507D01*
X510036Y23509D01*
X510079Y23527D01*
X510126Y23535D01*
X510183Y23569D01*
X510243Y23594D01*
X510278Y23625D01*
X510319Y23650D01*
X510361Y23701D01*
X510409Y23745D01*
X510431Y23787D01*
X510460Y23824D01*
X510481Y23886D01*
X510512Y23945D01*
X510520Y23999D01*
X510532Y24036D01*
X510531Y24076D01*
X510539Y24130D01*
X510539Y26670D01*
X510528Y26735D01*
X510526Y26801D01*
X510508Y26844D01*
X510500Y26891D01*
X510466Y26948D01*
X510441Y27008D01*
X510410Y27043D01*
X510385Y27084D01*
X510334Y27126D01*
X510290Y27174D01*
X510248Y27196D01*
X510211Y27225D01*
X510149Y27246D01*
X510090Y27277D01*
X510036Y27285D01*
X509999Y27297D01*
X509959Y27296D01*
X509905Y27304D01*
X506095Y27304D01*
X506030Y27293D01*
X505964Y27291D01*
X505921Y27273D01*
X505874Y27265D01*
X505817Y27231D01*
X505757Y27206D01*
X505722Y27175D01*
X505681Y27150D01*
X505640Y27099D01*
X505591Y27055D01*
X505569Y27013D01*
X505540Y26976D01*
X505519Y26914D01*
X505488Y26855D01*
X505480Y26801D01*
X505468Y26764D01*
X505468Y26761D01*
X505469Y26724D01*
X505461Y26670D01*
X505461Y24130D01*
X505472Y24065D01*
X505474Y23999D01*
X505492Y23956D01*
X505500Y23909D01*
X505534Y23852D01*
X505559Y23792D01*
X505590Y23757D01*
X505615Y23716D01*
X505666Y23675D01*
X505710Y23626D01*
X505752Y23604D01*
X505789Y23575D01*
X505851Y23554D01*
X505910Y23523D01*
X505964Y23515D01*
X506001Y23503D01*
X506041Y23504D01*
X506095Y23496D01*
X509905Y23496D01*
X509970Y23507D01*
G37*
G36*
X433770Y23507D02*
X433770Y23507D01*
X433836Y23509D01*
X433879Y23527D01*
X433926Y23535D01*
X433983Y23569D01*
X434043Y23594D01*
X434078Y23625D01*
X434119Y23650D01*
X434161Y23701D01*
X434209Y23745D01*
X434231Y23787D01*
X434260Y23824D01*
X434281Y23886D01*
X434312Y23945D01*
X434320Y23999D01*
X434332Y24036D01*
X434331Y24076D01*
X434339Y24130D01*
X434339Y26670D01*
X434328Y26735D01*
X434326Y26801D01*
X434308Y26844D01*
X434300Y26891D01*
X434266Y26948D01*
X434241Y27008D01*
X434210Y27043D01*
X434185Y27084D01*
X434134Y27126D01*
X434090Y27174D01*
X434048Y27196D01*
X434011Y27225D01*
X433949Y27246D01*
X433890Y27277D01*
X433836Y27285D01*
X433799Y27297D01*
X433759Y27296D01*
X433705Y27304D01*
X429895Y27304D01*
X429830Y27293D01*
X429764Y27291D01*
X429721Y27273D01*
X429674Y27265D01*
X429617Y27231D01*
X429557Y27206D01*
X429522Y27175D01*
X429481Y27150D01*
X429440Y27099D01*
X429391Y27055D01*
X429369Y27013D01*
X429340Y26976D01*
X429319Y26914D01*
X429288Y26855D01*
X429280Y26801D01*
X429268Y26764D01*
X429268Y26761D01*
X429269Y26724D01*
X429261Y26670D01*
X429261Y24130D01*
X429272Y24065D01*
X429274Y23999D01*
X429292Y23956D01*
X429300Y23909D01*
X429334Y23852D01*
X429359Y23792D01*
X429390Y23757D01*
X429415Y23716D01*
X429466Y23675D01*
X429510Y23626D01*
X429552Y23604D01*
X429589Y23575D01*
X429651Y23554D01*
X429710Y23523D01*
X429764Y23515D01*
X429801Y23503D01*
X429841Y23504D01*
X429895Y23496D01*
X433705Y23496D01*
X433770Y23507D01*
G37*
D10*
X49050Y130500D03*
X49050Y72700D03*
D11*
X7620Y7620D03*
X576580Y514350D03*
D12*
X330200Y167800D03*
D13*
X558800Y495300D03*
X25400Y495300D03*
X558800Y25400D03*
X25400Y25400D03*
D14*
X93980Y63500D03*
X119380Y63500D03*
D15*
X158750Y190500D03*
X158750Y203200D03*
X158750Y215900D03*
X158750Y228600D03*
X158750Y177800D03*
X146050Y190500D03*
X146050Y203200D03*
X146050Y215900D03*
X146050Y228600D03*
X146050Y177800D03*
X368300Y170700D03*
D14*
X12700Y419100D03*
X12700Y393700D03*
X12700Y368300D03*
X12700Y342900D03*
X12700Y317500D03*
X546100Y266700D03*
X546100Y292100D03*
X546100Y317500D03*
X546100Y342900D03*
X546100Y368300D03*
X546100Y393700D03*
X571500Y266700D03*
X571500Y292100D03*
X571500Y317500D03*
X571500Y342900D03*
X571500Y368300D03*
X571500Y393700D03*
X12700Y292100D03*
X12700Y266700D03*
X12700Y241300D03*
D16*
X76200Y508000D03*
D14*
X571500Y241300D03*
X571500Y215900D03*
X571500Y190500D03*
X571500Y165100D03*
D17*
X442000Y163000D03*
D18*
X437007Y25400D03*
X426593Y25400D03*
D19*
X241300Y103200D03*
D20*
X241300Y303200D03*
D14*
X177800Y38100D03*
D18*
X513207Y25400D03*
X502793Y25400D03*
D21*
X258064Y85090D03*
X249936Y85090D03*
D10*
X663730Y130500D03*
X663730Y72700D03*
D11*
X622300Y7620D03*
X1191260Y514350D03*
D12*
X944880Y167800D03*
D13*
X1173480Y495300D03*
X640080Y495300D03*
X1173480Y25400D03*
X640080Y25400D03*
D14*
X708660Y63500D03*
X734060Y63500D03*
D15*
X773430Y190500D03*
X773430Y203200D03*
X773430Y215900D03*
X773430Y228600D03*
X773430Y177800D03*
X760730Y190500D03*
X760730Y203200D03*
X760730Y215900D03*
X760730Y228600D03*
X760730Y177800D03*
X982980Y170700D03*
D14*
X627380Y419100D03*
X627380Y393700D03*
X627380Y368300D03*
X627380Y342900D03*
X627380Y317500D03*
X1160780Y266700D03*
X1160780Y292100D03*
X1160780Y317500D03*
X1160780Y342900D03*
X1160780Y368300D03*
X1160780Y393700D03*
X1186180Y266700D03*
X1186180Y292100D03*
X1186180Y317500D03*
X1186180Y342900D03*
X1186180Y368300D03*
X1186180Y393700D03*
X627380Y292100D03*
X627380Y266700D03*
X627380Y241300D03*
D16*
X690880Y508000D03*
D14*
X1186180Y241300D03*
X1186180Y215900D03*
X1186180Y190500D03*
X1186180Y165100D03*
D17*
X1056680Y163000D03*
D18*
X1051687Y25400D03*
X1041273Y25400D03*
D19*
X855980Y103200D03*
D20*
X855980Y303200D03*
D14*
X792480Y38100D03*
D18*
X1127887Y25400D03*
X1117473Y25400D03*
D21*
X872744Y85090D03*
X864616Y85090D03*
D10*
X49050Y656280D03*
X49050Y598480D03*
D11*
X7620Y533400D03*
X576580Y1040130D03*
D12*
X330200Y693580D03*
D13*
X558800Y1021080D03*
X25400Y1021080D03*
X558800Y551180D03*
X25400Y551180D03*
D14*
X93980Y589280D03*
X119380Y589280D03*
D15*
X158750Y716280D03*
X158750Y728980D03*
X158750Y741680D03*
X158750Y754380D03*
X158750Y703580D03*
X146050Y716280D03*
X146050Y728980D03*
X146050Y741680D03*
X146050Y754380D03*
X146050Y703580D03*
X368300Y696480D03*
D14*
X12700Y944880D03*
X12700Y919480D03*
X12700Y894080D03*
X12700Y868680D03*
X12700Y843280D03*
X546100Y792480D03*
X546100Y817880D03*
X546100Y843280D03*
X546100Y868680D03*
X546100Y894080D03*
X546100Y919480D03*
X571500Y792480D03*
X571500Y817880D03*
X571500Y843280D03*
X571500Y868680D03*
X571500Y894080D03*
X571500Y919480D03*
X12700Y817880D03*
X12700Y792480D03*
X12700Y767080D03*
D16*
X76200Y1033780D03*
D14*
X571500Y767080D03*
X571500Y741680D03*
X571500Y716280D03*
X571500Y690880D03*
D17*
X442000Y688780D03*
D18*
X437007Y551180D03*
X426593Y551180D03*
D19*
X241300Y628980D03*
D20*
X241300Y828980D03*
D14*
X177800Y563880D03*
D18*
X513207Y551180D03*
X502793Y551180D03*
D21*
X258064Y610870D03*
X249936Y610870D03*
D10*
X663730Y656280D03*
X663730Y598480D03*
D11*
X622300Y533400D03*
X1191260Y1040130D03*
D12*
X944880Y693580D03*
D13*
X1173480Y1021080D03*
X640080Y1021080D03*
X1173480Y551180D03*
X640080Y551180D03*
D14*
X708660Y589280D03*
X734060Y589280D03*
D15*
X773430Y716280D03*
X773430Y728980D03*
X773430Y741680D03*
X773430Y754380D03*
X773430Y703580D03*
X760730Y716280D03*
X760730Y728980D03*
X760730Y741680D03*
X760730Y754380D03*
X760730Y703580D03*
X982980Y696480D03*
D14*
X627380Y944880D03*
X627380Y919480D03*
X627380Y894080D03*
X627380Y868680D03*
X627380Y843280D03*
X1160780Y792480D03*
X1160780Y817880D03*
X1160780Y843280D03*
X1160780Y868680D03*
X1160780Y894080D03*
X1160780Y919480D03*
X1186180Y792480D03*
X1186180Y817880D03*
X1186180Y843280D03*
X1186180Y868680D03*
X1186180Y894080D03*
X1186180Y919480D03*
X627380Y817880D03*
X627380Y792480D03*
X627380Y767080D03*
D16*
X690880Y1033780D03*
D14*
X1186180Y767080D03*
X1186180Y741680D03*
X1186180Y716280D03*
X1186180Y690880D03*
D17*
X1056680Y688780D03*
D18*
X1051687Y551180D03*
X1041273Y551180D03*
D19*
X855980Y628980D03*
D20*
X855980Y828980D03*
D14*
X792480Y563880D03*
D18*
X1127887Y551180D03*
X1117473Y551180D03*
D21*
X872744Y610870D03*
X864616Y610870D03*
D10*
X49050Y1182060D03*
X49050Y1124260D03*
D11*
X7620Y1059180D03*
X576580Y1565910D03*
D12*
X330200Y1219360D03*
D13*
X558800Y1546860D03*
X25400Y1546860D03*
X558800Y1076960D03*
X25400Y1076960D03*
D14*
X93980Y1115060D03*
X119380Y1115060D03*
D15*
X158750Y1242060D03*
X158750Y1254760D03*
X158750Y1267460D03*
X158750Y1280160D03*
X158750Y1229360D03*
X146050Y1242060D03*
X146050Y1254760D03*
X146050Y1267460D03*
X146050Y1280160D03*
X146050Y1229360D03*
X368300Y1222260D03*
D14*
X12700Y1470660D03*
X12700Y1445260D03*
X12700Y1419860D03*
X12700Y1394460D03*
X12700Y1369060D03*
X546100Y1318260D03*
X546100Y1343660D03*
X546100Y1369060D03*
X546100Y1394460D03*
X546100Y1419860D03*
X546100Y1445260D03*
X571500Y1318260D03*
X571500Y1343660D03*
X571500Y1369060D03*
X571500Y1394460D03*
X571500Y1419860D03*
X571500Y1445260D03*
X12700Y1343660D03*
X12700Y1318260D03*
X12700Y1292860D03*
D16*
X76200Y1559560D03*
D14*
X571500Y1292860D03*
X571500Y1267460D03*
X571500Y1242060D03*
X571500Y1216660D03*
D17*
X442000Y1214560D03*
D18*
X437007Y1076960D03*
X426593Y1076960D03*
D19*
X241300Y1154760D03*
D20*
X241300Y1354760D03*
D14*
X177800Y1089660D03*
D18*
X513207Y1076960D03*
X502793Y1076960D03*
D21*
X258064Y1136650D03*
X249936Y1136650D03*
D10*
X663730Y1182060D03*
X663730Y1124260D03*
D11*
X622300Y1059180D03*
X1191260Y1565910D03*
D12*
X944880Y1219360D03*
D13*
X1173480Y1546860D03*
X640080Y1546860D03*
X1173480Y1076960D03*
X640080Y1076960D03*
D14*
X708660Y1115060D03*
X734060Y1115060D03*
D15*
X773430Y1242060D03*
X773430Y1254760D03*
X773430Y1267460D03*
X773430Y1280160D03*
X773430Y1229360D03*
X760730Y1242060D03*
X760730Y1254760D03*
X760730Y1267460D03*
X760730Y1280160D03*
X760730Y1229360D03*
X982980Y1222260D03*
D14*
X627380Y1470660D03*
X627380Y1445260D03*
X627380Y1419860D03*
X627380Y1394460D03*
X627380Y1369060D03*
X1160780Y1318260D03*
X1160780Y1343660D03*
X1160780Y1369060D03*
X1160780Y1394460D03*
X1160780Y1419860D03*
X1160780Y1445260D03*
X1186180Y1318260D03*
X1186180Y1343660D03*
X1186180Y1369060D03*
X1186180Y1394460D03*
X1186180Y1419860D03*
X1186180Y1445260D03*
X627380Y1343660D03*
X627380Y1318260D03*
X627380Y1292860D03*
D16*
X690880Y1559560D03*
D14*
X1186180Y1292860D03*
X1186180Y1267460D03*
X1186180Y1242060D03*
X1186180Y1216660D03*
D17*
X1056680Y1214560D03*
D18*
X1051687Y1076960D03*
X1041273Y1076960D03*
D19*
X855980Y1154760D03*
D20*
X855980Y1354760D03*
D14*
X792480Y1089660D03*
D18*
X1127887Y1076960D03*
X1117473Y1076960D03*
D21*
X872744Y1136650D03*
X864616Y1136650D03*
D15*
X93980Y1593215D03*
X1180465Y1593215D03*
D22*
X84925Y-20955D02*
X84928Y-20733D01*
X84936Y-20511D01*
X84950Y-20289D01*
X84969Y-20067D01*
X84993Y-19847D01*
X85023Y-19626D01*
X85058Y-19407D01*
X85099Y-19188D01*
X85145Y-18971D01*
X85196Y-18755D01*
X85253Y-18540D01*
X85315Y-18326D01*
X85382Y-18115D01*
X85454Y-17904D01*
X85532Y-17696D01*
X85614Y-17490D01*
X85702Y-17286D01*
X85794Y-17083D01*
X85892Y-16884D01*
X85994Y-16687D01*
X86101Y-16492D01*
X86213Y-16300D01*
X86330Y-16111D01*
X86451Y-15924D01*
X86577Y-15741D01*
X86707Y-15561D01*
X86842Y-15384D01*
X86980Y-15211D01*
X87123Y-15041D01*
X87271Y-14874D01*
X87422Y-14711D01*
X87577Y-14552D01*
X87736Y-14397D01*
X87899Y-14246D01*
X88066Y-14098D01*
X88236Y-13955D01*
X88409Y-13817D01*
X88586Y-13682D01*
X88766Y-13552D01*
X88949Y-13426D01*
X89136Y-13305D01*
X89325Y-13188D01*
X89517Y-13076D01*
X89712Y-12969D01*
X89909Y-12867D01*
X90108Y-12769D01*
X90311Y-12677D01*
X90515Y-12589D01*
X90721Y-12507D01*
X90929Y-12429D01*
X91140Y-12357D01*
X91351Y-12290D01*
X91565Y-12228D01*
X91780Y-12171D01*
X91996Y-12120D01*
X92213Y-12074D01*
X92432Y-12033D01*
X92651Y-11998D01*
X92872Y-11968D01*
X93092Y-11944D01*
X93314Y-11925D01*
X93536Y-11911D01*
X93758Y-11903D01*
X93980Y-11900D01*
X94202Y-11903D01*
X94424Y-11911D01*
X94646Y-11925D01*
X94868Y-11944D01*
X95088Y-11968D01*
X95309Y-11998D01*
X95528Y-12033D01*
X95747Y-12074D01*
X95964Y-12120D01*
X96180Y-12171D01*
X96395Y-12228D01*
X96609Y-12290D01*
X96820Y-12357D01*
X97031Y-12429D01*
X97239Y-12507D01*
X97445Y-12589D01*
X97649Y-12677D01*
X97852Y-12769D01*
X98051Y-12867D01*
X98248Y-12969D01*
X98443Y-13076D01*
X98635Y-13188D01*
X98824Y-13305D01*
X99011Y-13426D01*
X99194Y-13552D01*
X99374Y-13682D01*
X99551Y-13817D01*
X99724Y-13955D01*
X99894Y-14098D01*
X100061Y-14246D01*
X100224Y-14397D01*
X100383Y-14552D01*
X100538Y-14711D01*
X100689Y-14874D01*
X100837Y-15041D01*
X100980Y-15211D01*
X101118Y-15384D01*
X101253Y-15561D01*
X101383Y-15741D01*
X101509Y-15924D01*
X101630Y-16111D01*
X101747Y-16300D01*
X101859Y-16492D01*
X101966Y-16687D01*
X102068Y-16884D01*
X102166Y-17083D01*
X102258Y-17286D01*
X102346Y-17490D01*
X102428Y-17696D01*
X102506Y-17904D01*
X102578Y-18115D01*
X102645Y-18326D01*
X102707Y-18540D01*
X102764Y-18755D01*
X102815Y-18971D01*
X102861Y-19188D01*
X102902Y-19407D01*
X102937Y-19626D01*
X102967Y-19847D01*
X102991Y-20067D01*
X103010Y-20289D01*
X103024Y-20511D01*
X103032Y-20733D01*
X103035Y-20955D01*
X103032Y-21177D01*
X103024Y-21399D01*
X103010Y-21621D01*
X102991Y-21843D01*
X102967Y-22063D01*
X102937Y-22284D01*
X102902Y-22503D01*
X102861Y-22722D01*
X102815Y-22939D01*
X102764Y-23155D01*
X102707Y-23370D01*
X102645Y-23584D01*
X102578Y-23795D01*
X102506Y-24006D01*
X102428Y-24214D01*
X102346Y-24420D01*
X102258Y-24624D01*
X102166Y-24827D01*
X102068Y-25026D01*
X101966Y-25223D01*
X101859Y-25418D01*
X101747Y-25610D01*
X101630Y-25799D01*
X101509Y-25986D01*
X101383Y-26169D01*
X101253Y-26349D01*
X101118Y-26526D01*
X100980Y-26699D01*
X100837Y-26869D01*
X100689Y-27036D01*
X100538Y-27199D01*
X100383Y-27358D01*
X100224Y-27513D01*
X100061Y-27664D01*
X99894Y-27812D01*
X99724Y-27955D01*
X99551Y-28093D01*
X99374Y-28228D01*
X99194Y-28358D01*
X99011Y-28484D01*
X98824Y-28605D01*
X98635Y-28722D01*
X98443Y-28834D01*
X98248Y-28941D01*
X98051Y-29043D01*
X97852Y-29141D01*
X97649Y-29233D01*
X97445Y-29321D01*
X97239Y-29403D01*
X97031Y-29481D01*
X96820Y-29553D01*
X96609Y-29620D01*
X96395Y-29682D01*
X96180Y-29739D01*
X95964Y-29790D01*
X95747Y-29836D01*
X95528Y-29877D01*
X95309Y-29912D01*
X95088Y-29942D01*
X94868Y-29966D01*
X94646Y-29985D01*
X94424Y-29999D01*
X94202Y-30007D01*
X93980Y-30010D01*
X93758Y-30007D01*
X93536Y-29999D01*
X93314Y-29985D01*
X93092Y-29966D01*
X92872Y-29942D01*
X92651Y-29912D01*
X92432Y-29877D01*
X92213Y-29836D01*
X91996Y-29790D01*
X91780Y-29739D01*
X91565Y-29682D01*
X91351Y-29620D01*
X91140Y-29553D01*
X90929Y-29481D01*
X90721Y-29403D01*
X90515Y-29321D01*
X90311Y-29233D01*
X90108Y-29141D01*
X89909Y-29043D01*
X89712Y-28941D01*
X89517Y-28834D01*
X89325Y-28722D01*
X89136Y-28605D01*
X88949Y-28484D01*
X88766Y-28358D01*
X88586Y-28228D01*
X88409Y-28093D01*
X88236Y-27955D01*
X88066Y-27812D01*
X87899Y-27664D01*
X87736Y-27513D01*
X87577Y-27358D01*
X87422Y-27199D01*
X87271Y-27036D01*
X87123Y-26869D01*
X86980Y-26699D01*
X86842Y-26526D01*
X86707Y-26349D01*
X86577Y-26169D01*
X86451Y-25986D01*
X86330Y-25799D01*
X86213Y-25610D01*
X86101Y-25418D01*
X85994Y-25223D01*
X85892Y-25026D01*
X85794Y-24827D01*
X85702Y-24624D01*
X85614Y-24420D01*
X85532Y-24214D01*
X85454Y-24006D01*
X85382Y-23795D01*
X85315Y-23584D01*
X85253Y-23370D01*
X85196Y-23155D01*
X85145Y-22939D01*
X85099Y-22722D01*
X85058Y-22503D01*
X85023Y-22284D01*
X84993Y-22063D01*
X84969Y-21843D01*
X84950Y-21621D01*
X84936Y-21399D01*
X84928Y-21177D01*
X84925Y-20955D01*
D23*
X93980Y-20955D03*
M02*
