G04 EAGLE Gerber RS-274X export*
G75*
%MOMM*%
%FSLAX34Y34*%
%LPD*%
%INSoldermask Top*%
%IPPOS*%
%AMOC8*
5,1,8,0,0,1.08239X$1,22.5*%
G01*
%ADD10R,1.203200X0.503200*%
%ADD11R,1.203200X0.803200*%
%ADD12C,0.853200*%
%ADD13R,1.203200X1.303200*%
%ADD14R,0.503200X0.853200*%
%ADD15R,2.553200X1.803200*%
%ADD16R,1.303200X1.203200*%
%ADD17C,0.838200*%
%ADD18R,0.453200X0.478200*%
%ADD19R,0.478200X0.453200*%
%ADD20R,0.928200X0.725200*%
%ADD21C,1.003200*%
%ADD22C,0.600000*%
%ADD23R,0.703200X0.403200*%
%ADD24R,0.403200X0.703200*%
%ADD25C,3.505200*%
%ADD26R,0.503200X1.003200*%
%ADD27R,1.303200X3.953200*%
%ADD28R,1.700000X4.200000*%
%ADD29R,0.833200X1.033200*%
%ADD30R,2.203200X1.403200*%
%ADD31R,1.553200X0.803200*%
%ADD32R,1.473200X0.863600*%
%ADD33R,1.727200X0.965200*%
%ADD34R,0.838200X1.473200*%
%ADD35R,1.203200X3.003200*%
%ADD36R,1.603200X1.803200*%
%ADD37C,2.082800*%
%ADD38C,1.203200*%
%ADD39R,0.803200X0.725200*%
%ADD40C,0.350000*%
%ADD41R,0.863600X1.473200*%
%ADD42R,2.003200X1.603200*%
%ADD43R,1.603200X2.103200*%
%ADD44R,1.003200X1.703200*%
%ADD45R,0.753200X1.403200*%
%ADD46C,6.203200*%
%ADD47R,1.033200X0.833200*%
%ADD48C,0.505344*%
%ADD49C,1.303200*%
%ADD50C,1.803200*%
%ADD51R,1.753200X0.503200*%
%ADD52R,2.953200X1.403200*%
%ADD53R,1.003200X1.103200*%
%ADD54C,1.270000*%
%ADD55C,1.703200*%

G36*
X100206Y1333517D02*
X100206Y1333517D01*
X100233Y1333513D01*
X100274Y1333531D01*
X100316Y1333540D01*
X100352Y1333566D01*
X100361Y1333570D01*
X100365Y1333575D01*
X100376Y1333584D01*
X124376Y1357584D01*
X124397Y1357622D01*
X124426Y1357655D01*
X124430Y1357682D01*
X124443Y1357706D01*
X124440Y1357750D01*
X124447Y1357793D01*
X124436Y1357819D01*
X124434Y1357846D01*
X124408Y1357881D01*
X124390Y1357921D01*
X124367Y1357936D01*
X124351Y1357958D01*
X124310Y1357974D01*
X124274Y1357998D01*
X124230Y1358005D01*
X124221Y1358008D01*
X124214Y1358007D01*
X124200Y1358009D01*
X100200Y1358009D01*
X100184Y1358004D01*
X100167Y1358007D01*
X100117Y1357985D01*
X100066Y1357970D01*
X100055Y1357957D01*
X100039Y1357950D01*
X100009Y1357905D01*
X99974Y1357865D01*
X99971Y1357848D01*
X99962Y1357834D01*
X99951Y1357760D01*
X99951Y1333760D01*
X99963Y1333718D01*
X99966Y1333674D01*
X99982Y1333652D01*
X99990Y1333626D01*
X100023Y1333597D01*
X100049Y1333562D01*
X100075Y1333552D01*
X100095Y1333534D01*
X100139Y1333527D01*
X100179Y1333512D01*
X100206Y1333517D01*
G37*
G36*
X714886Y1333517D02*
X714886Y1333517D01*
X714913Y1333513D01*
X714954Y1333531D01*
X714996Y1333540D01*
X715032Y1333566D01*
X715041Y1333570D01*
X715045Y1333575D01*
X715056Y1333584D01*
X739056Y1357584D01*
X739077Y1357622D01*
X739106Y1357655D01*
X739110Y1357682D01*
X739123Y1357706D01*
X739120Y1357750D01*
X739127Y1357793D01*
X739116Y1357819D01*
X739114Y1357846D01*
X739088Y1357881D01*
X739070Y1357921D01*
X739047Y1357936D01*
X739031Y1357958D01*
X738990Y1357974D01*
X738954Y1357998D01*
X738910Y1358005D01*
X738901Y1358008D01*
X738894Y1358007D01*
X738880Y1358009D01*
X714880Y1358009D01*
X714864Y1358004D01*
X714847Y1358007D01*
X714797Y1357985D01*
X714746Y1357970D01*
X714735Y1357957D01*
X714719Y1357950D01*
X714689Y1357905D01*
X714654Y1357865D01*
X714651Y1357848D01*
X714642Y1357834D01*
X714631Y1357760D01*
X714631Y1333760D01*
X714643Y1333718D01*
X714646Y1333674D01*
X714662Y1333652D01*
X714670Y1333626D01*
X714703Y1333597D01*
X714729Y1333562D01*
X714755Y1333552D01*
X714775Y1333534D01*
X714819Y1333527D01*
X714859Y1333512D01*
X714886Y1333517D01*
G37*
G36*
X714886Y807737D02*
X714886Y807737D01*
X714913Y807733D01*
X714954Y807751D01*
X714996Y807760D01*
X715032Y807786D01*
X715041Y807790D01*
X715045Y807795D01*
X715056Y807804D01*
X739056Y831804D01*
X739077Y831842D01*
X739106Y831875D01*
X739110Y831902D01*
X739123Y831926D01*
X739120Y831970D01*
X739127Y832013D01*
X739116Y832039D01*
X739114Y832066D01*
X739088Y832101D01*
X739070Y832141D01*
X739047Y832156D01*
X739031Y832178D01*
X738990Y832194D01*
X738954Y832218D01*
X738910Y832225D01*
X738901Y832228D01*
X738894Y832227D01*
X738880Y832229D01*
X714880Y832229D01*
X714864Y832224D01*
X714847Y832227D01*
X714797Y832205D01*
X714746Y832190D01*
X714735Y832177D01*
X714719Y832170D01*
X714689Y832125D01*
X714654Y832085D01*
X714651Y832068D01*
X714642Y832054D01*
X714631Y831980D01*
X714631Y807980D01*
X714643Y807938D01*
X714646Y807894D01*
X714662Y807872D01*
X714670Y807846D01*
X714703Y807817D01*
X714729Y807782D01*
X714755Y807772D01*
X714775Y807754D01*
X714819Y807747D01*
X714859Y807732D01*
X714886Y807737D01*
G37*
G36*
X100206Y807737D02*
X100206Y807737D01*
X100233Y807733D01*
X100274Y807751D01*
X100316Y807760D01*
X100352Y807786D01*
X100361Y807790D01*
X100365Y807795D01*
X100376Y807804D01*
X124376Y831804D01*
X124397Y831842D01*
X124426Y831875D01*
X124430Y831902D01*
X124443Y831926D01*
X124440Y831970D01*
X124447Y832013D01*
X124436Y832039D01*
X124434Y832066D01*
X124408Y832101D01*
X124390Y832141D01*
X124367Y832156D01*
X124351Y832178D01*
X124310Y832194D01*
X124274Y832218D01*
X124230Y832225D01*
X124221Y832228D01*
X124214Y832227D01*
X124200Y832229D01*
X100200Y832229D01*
X100184Y832224D01*
X100167Y832227D01*
X100117Y832205D01*
X100066Y832190D01*
X100055Y832177D01*
X100039Y832170D01*
X100009Y832125D01*
X99974Y832085D01*
X99971Y832068D01*
X99962Y832054D01*
X99951Y831980D01*
X99951Y807980D01*
X99963Y807938D01*
X99966Y807894D01*
X99982Y807872D01*
X99990Y807846D01*
X100023Y807817D01*
X100049Y807782D01*
X100075Y807772D01*
X100095Y807754D01*
X100139Y807747D01*
X100179Y807732D01*
X100206Y807737D01*
G37*
G36*
X714886Y281957D02*
X714886Y281957D01*
X714913Y281953D01*
X714954Y281971D01*
X714996Y281980D01*
X715032Y282006D01*
X715041Y282010D01*
X715045Y282015D01*
X715056Y282024D01*
X739056Y306024D01*
X739077Y306062D01*
X739106Y306095D01*
X739110Y306122D01*
X739123Y306146D01*
X739120Y306190D01*
X739127Y306233D01*
X739116Y306259D01*
X739114Y306286D01*
X739088Y306321D01*
X739070Y306361D01*
X739047Y306376D01*
X739031Y306398D01*
X738990Y306414D01*
X738954Y306438D01*
X738910Y306445D01*
X738901Y306448D01*
X738894Y306447D01*
X738880Y306449D01*
X714880Y306449D01*
X714864Y306444D01*
X714847Y306447D01*
X714797Y306425D01*
X714746Y306410D01*
X714735Y306397D01*
X714719Y306390D01*
X714689Y306345D01*
X714654Y306305D01*
X714651Y306288D01*
X714642Y306274D01*
X714631Y306200D01*
X714631Y282200D01*
X714643Y282158D01*
X714646Y282114D01*
X714662Y282092D01*
X714670Y282066D01*
X714703Y282037D01*
X714729Y282002D01*
X714755Y281992D01*
X714775Y281974D01*
X714819Y281967D01*
X714859Y281952D01*
X714886Y281957D01*
G37*
G36*
X100206Y281957D02*
X100206Y281957D01*
X100233Y281953D01*
X100274Y281971D01*
X100316Y281980D01*
X100352Y282006D01*
X100361Y282010D01*
X100365Y282015D01*
X100376Y282024D01*
X124376Y306024D01*
X124397Y306062D01*
X124426Y306095D01*
X124430Y306122D01*
X124443Y306146D01*
X124440Y306190D01*
X124447Y306233D01*
X124436Y306259D01*
X124434Y306286D01*
X124408Y306321D01*
X124390Y306361D01*
X124367Y306376D01*
X124351Y306398D01*
X124310Y306414D01*
X124274Y306438D01*
X124230Y306445D01*
X124221Y306448D01*
X124214Y306447D01*
X124200Y306449D01*
X100200Y306449D01*
X100184Y306444D01*
X100167Y306447D01*
X100117Y306425D01*
X100066Y306410D01*
X100055Y306397D01*
X100039Y306390D01*
X100009Y306345D01*
X99974Y306305D01*
X99971Y306288D01*
X99962Y306274D01*
X99951Y306200D01*
X99951Y282200D01*
X99963Y282158D01*
X99966Y282114D01*
X99982Y282092D01*
X99990Y282066D01*
X100023Y282037D01*
X100049Y282002D01*
X100075Y281992D01*
X100095Y281974D01*
X100139Y281967D01*
X100179Y281952D01*
X100206Y281957D01*
G37*
G36*
X674984Y1190314D02*
X674984Y1190314D01*
X674987Y1190311D01*
X676109Y1190466D01*
X676114Y1190471D01*
X676118Y1190468D01*
X677189Y1190839D01*
X677193Y1190845D01*
X677198Y1190843D01*
X678175Y1191416D01*
X678178Y1191422D01*
X678183Y1191421D01*
X679030Y1192174D01*
X679032Y1192181D01*
X679037Y1192181D01*
X679721Y1193084D01*
X679721Y1193091D01*
X679726Y1193092D01*
X680221Y1194111D01*
X680219Y1194118D01*
X680224Y1194120D01*
X680511Y1195217D01*
X680509Y1195221D01*
X680511Y1195222D01*
X680509Y1195224D01*
X680512Y1195226D01*
X680579Y1196357D01*
X680577Y1196361D01*
X680579Y1196363D01*
X680512Y1197494D01*
X680507Y1197499D01*
X680511Y1197503D01*
X680224Y1198600D01*
X680218Y1198604D01*
X680221Y1198609D01*
X679726Y1199628D01*
X679720Y1199631D01*
X679721Y1199636D01*
X679037Y1200539D01*
X679030Y1200541D01*
X679030Y1200546D01*
X678183Y1201299D01*
X678176Y1201299D01*
X678175Y1201304D01*
X677198Y1201877D01*
X677191Y1201876D01*
X677189Y1201881D01*
X676118Y1202252D01*
X676112Y1202249D01*
X676109Y1202254D01*
X674987Y1202409D01*
X674982Y1202406D01*
X674980Y1202409D01*
X662980Y1202409D01*
X662975Y1202406D01*
X662972Y1202409D01*
X661705Y1202204D01*
X661699Y1202198D01*
X661695Y1202201D01*
X660505Y1201719D01*
X660501Y1201712D01*
X660495Y1201714D01*
X659442Y1200980D01*
X659440Y1200972D01*
X659434Y1200973D01*
X658571Y1200023D01*
X658570Y1200014D01*
X658565Y1200014D01*
X657935Y1198895D01*
X657936Y1198887D01*
X657930Y1198885D01*
X657565Y1197655D01*
X657568Y1197647D01*
X657563Y1197644D01*
X657481Y1196363D01*
X657484Y1196359D01*
X657481Y1196357D01*
X657563Y1195076D01*
X657569Y1195070D01*
X657565Y1195065D01*
X657930Y1193835D01*
X657937Y1193830D01*
X657935Y1193825D01*
X658565Y1192706D01*
X658572Y1192703D01*
X658571Y1192697D01*
X659434Y1191747D01*
X659442Y1191746D01*
X659442Y1191740D01*
X660495Y1191006D01*
X660503Y1191006D01*
X660505Y1191001D01*
X661695Y1190519D01*
X661702Y1190521D01*
X661705Y1190516D01*
X662972Y1190311D01*
X662977Y1190314D01*
X662980Y1190311D01*
X674980Y1190311D01*
X674984Y1190314D01*
G37*
G36*
X674984Y578134D02*
X674984Y578134D01*
X674987Y578131D01*
X676109Y578286D01*
X676114Y578291D01*
X676118Y578288D01*
X677189Y578659D01*
X677193Y578665D01*
X677198Y578663D01*
X678175Y579236D01*
X678178Y579242D01*
X678183Y579241D01*
X679030Y579994D01*
X679032Y580001D01*
X679037Y580001D01*
X679721Y580904D01*
X679721Y580911D01*
X679726Y580912D01*
X680221Y581931D01*
X680219Y581938D01*
X680224Y581940D01*
X680511Y583037D01*
X680509Y583041D01*
X680511Y583042D01*
X680509Y583044D01*
X680512Y583046D01*
X680579Y584177D01*
X680577Y584181D01*
X680579Y584183D01*
X680512Y585314D01*
X680507Y585319D01*
X680511Y585323D01*
X680224Y586420D01*
X680218Y586424D01*
X680221Y586429D01*
X679726Y587448D01*
X679720Y587451D01*
X679721Y587456D01*
X679037Y588359D01*
X679030Y588361D01*
X679030Y588366D01*
X678183Y589119D01*
X678176Y589119D01*
X678175Y589124D01*
X677198Y589697D01*
X677191Y589696D01*
X677189Y589701D01*
X676118Y590072D01*
X676112Y590069D01*
X676109Y590074D01*
X674987Y590229D01*
X674982Y590226D01*
X674980Y590229D01*
X662980Y590229D01*
X662975Y590226D01*
X662972Y590229D01*
X661705Y590024D01*
X661699Y590018D01*
X661695Y590021D01*
X660505Y589539D01*
X660501Y589532D01*
X660495Y589534D01*
X659442Y588800D01*
X659440Y588792D01*
X659434Y588793D01*
X658571Y587843D01*
X658570Y587834D01*
X658565Y587834D01*
X657935Y586715D01*
X657936Y586707D01*
X657930Y586705D01*
X657565Y585475D01*
X657568Y585467D01*
X657563Y585464D01*
X657481Y584183D01*
X657484Y584179D01*
X657481Y584177D01*
X657563Y582896D01*
X657569Y582890D01*
X657565Y582885D01*
X657930Y581655D01*
X657937Y581650D01*
X657935Y581645D01*
X658565Y580526D01*
X658572Y580523D01*
X658571Y580517D01*
X659434Y579567D01*
X659442Y579566D01*
X659442Y579560D01*
X660495Y578826D01*
X660503Y578826D01*
X660505Y578821D01*
X661695Y578339D01*
X661702Y578341D01*
X661705Y578336D01*
X662972Y578131D01*
X662977Y578134D01*
X662980Y578131D01*
X674980Y578131D01*
X674984Y578134D01*
G37*
G36*
X60304Y1190314D02*
X60304Y1190314D01*
X60307Y1190311D01*
X61429Y1190466D01*
X61434Y1190471D01*
X61438Y1190468D01*
X62509Y1190839D01*
X62513Y1190845D01*
X62518Y1190843D01*
X63495Y1191416D01*
X63498Y1191422D01*
X63503Y1191421D01*
X64350Y1192174D01*
X64352Y1192181D01*
X64357Y1192181D01*
X65041Y1193084D01*
X65041Y1193091D01*
X65046Y1193092D01*
X65541Y1194111D01*
X65539Y1194118D01*
X65544Y1194120D01*
X65831Y1195217D01*
X65829Y1195221D01*
X65831Y1195222D01*
X65829Y1195224D01*
X65832Y1195226D01*
X65899Y1196357D01*
X65897Y1196361D01*
X65899Y1196363D01*
X65832Y1197494D01*
X65827Y1197499D01*
X65831Y1197503D01*
X65544Y1198600D01*
X65538Y1198604D01*
X65541Y1198609D01*
X65046Y1199628D01*
X65040Y1199631D01*
X65041Y1199636D01*
X64357Y1200539D01*
X64350Y1200541D01*
X64350Y1200546D01*
X63503Y1201299D01*
X63496Y1201299D01*
X63495Y1201304D01*
X62518Y1201877D01*
X62511Y1201876D01*
X62509Y1201881D01*
X61438Y1202252D01*
X61432Y1202249D01*
X61429Y1202254D01*
X60307Y1202409D01*
X60302Y1202406D01*
X60300Y1202409D01*
X48300Y1202409D01*
X48295Y1202406D01*
X48292Y1202409D01*
X47025Y1202204D01*
X47019Y1202198D01*
X47015Y1202201D01*
X45825Y1201719D01*
X45821Y1201712D01*
X45815Y1201714D01*
X44762Y1200980D01*
X44760Y1200972D01*
X44754Y1200973D01*
X43891Y1200023D01*
X43890Y1200014D01*
X43885Y1200014D01*
X43255Y1198895D01*
X43256Y1198887D01*
X43250Y1198885D01*
X42885Y1197655D01*
X42888Y1197647D01*
X42883Y1197644D01*
X42801Y1196363D01*
X42804Y1196359D01*
X42801Y1196357D01*
X42883Y1195076D01*
X42889Y1195070D01*
X42885Y1195065D01*
X43250Y1193835D01*
X43257Y1193830D01*
X43255Y1193825D01*
X43885Y1192706D01*
X43892Y1192703D01*
X43891Y1192697D01*
X44754Y1191747D01*
X44762Y1191746D01*
X44762Y1191740D01*
X45815Y1191006D01*
X45823Y1191006D01*
X45825Y1191001D01*
X47015Y1190519D01*
X47022Y1190521D01*
X47025Y1190516D01*
X48292Y1190311D01*
X48297Y1190314D01*
X48300Y1190311D01*
X60300Y1190311D01*
X60304Y1190314D01*
G37*
G36*
X674984Y664534D02*
X674984Y664534D01*
X674987Y664531D01*
X676109Y664686D01*
X676114Y664691D01*
X676118Y664688D01*
X677189Y665059D01*
X677193Y665065D01*
X677198Y665063D01*
X678175Y665636D01*
X678178Y665642D01*
X678183Y665641D01*
X679030Y666394D01*
X679032Y666401D01*
X679037Y666401D01*
X679721Y667304D01*
X679721Y667311D01*
X679726Y667312D01*
X680221Y668331D01*
X680219Y668338D01*
X680224Y668340D01*
X680511Y669437D01*
X680509Y669441D01*
X680511Y669442D01*
X680509Y669444D01*
X680512Y669446D01*
X680579Y670577D01*
X680577Y670581D01*
X680579Y670583D01*
X680512Y671714D01*
X680507Y671719D01*
X680511Y671723D01*
X680224Y672820D01*
X680218Y672824D01*
X680221Y672829D01*
X679726Y673848D01*
X679720Y673851D01*
X679721Y673856D01*
X679037Y674759D01*
X679030Y674761D01*
X679030Y674766D01*
X678183Y675519D01*
X678176Y675519D01*
X678175Y675524D01*
X677198Y676097D01*
X677191Y676096D01*
X677189Y676101D01*
X676118Y676472D01*
X676112Y676469D01*
X676109Y676474D01*
X674987Y676629D01*
X674982Y676626D01*
X674980Y676629D01*
X662980Y676629D01*
X662975Y676626D01*
X662972Y676629D01*
X661705Y676424D01*
X661699Y676418D01*
X661695Y676421D01*
X660505Y675939D01*
X660501Y675932D01*
X660495Y675934D01*
X659442Y675200D01*
X659440Y675192D01*
X659434Y675193D01*
X658571Y674243D01*
X658570Y674234D01*
X658565Y674234D01*
X657935Y673115D01*
X657936Y673107D01*
X657930Y673105D01*
X657565Y671875D01*
X657568Y671867D01*
X657563Y671864D01*
X657481Y670583D01*
X657484Y670579D01*
X657481Y670577D01*
X657563Y669296D01*
X657569Y669290D01*
X657565Y669285D01*
X657930Y668055D01*
X657937Y668050D01*
X657935Y668045D01*
X658565Y666926D01*
X658572Y666923D01*
X658571Y666917D01*
X659434Y665967D01*
X659442Y665966D01*
X659442Y665960D01*
X660495Y665226D01*
X660503Y665226D01*
X660505Y665221D01*
X661695Y664739D01*
X661702Y664741D01*
X661705Y664736D01*
X662972Y664531D01*
X662977Y664534D01*
X662980Y664531D01*
X674980Y664531D01*
X674984Y664534D01*
G37*
G36*
X60304Y52354D02*
X60304Y52354D01*
X60307Y52351D01*
X61429Y52506D01*
X61434Y52511D01*
X61438Y52508D01*
X62509Y52879D01*
X62513Y52885D01*
X62518Y52883D01*
X63495Y53456D01*
X63498Y53462D01*
X63503Y53461D01*
X64350Y54214D01*
X64352Y54221D01*
X64357Y54221D01*
X65041Y55124D01*
X65041Y55131D01*
X65046Y55132D01*
X65541Y56151D01*
X65539Y56158D01*
X65544Y56160D01*
X65831Y57257D01*
X65829Y57261D01*
X65831Y57262D01*
X65829Y57264D01*
X65832Y57266D01*
X65899Y58397D01*
X65897Y58401D01*
X65899Y58403D01*
X65832Y59534D01*
X65827Y59539D01*
X65831Y59543D01*
X65544Y60640D01*
X65538Y60644D01*
X65541Y60649D01*
X65046Y61668D01*
X65040Y61671D01*
X65041Y61676D01*
X64357Y62579D01*
X64350Y62581D01*
X64350Y62586D01*
X63503Y63339D01*
X63496Y63339D01*
X63495Y63344D01*
X62518Y63917D01*
X62511Y63916D01*
X62509Y63921D01*
X61438Y64292D01*
X61432Y64289D01*
X61429Y64294D01*
X60307Y64449D01*
X60302Y64446D01*
X60300Y64449D01*
X48300Y64449D01*
X48295Y64446D01*
X48292Y64449D01*
X47025Y64244D01*
X47019Y64238D01*
X47015Y64241D01*
X45825Y63759D01*
X45821Y63752D01*
X45815Y63754D01*
X44762Y63020D01*
X44760Y63012D01*
X44754Y63013D01*
X43891Y62063D01*
X43890Y62054D01*
X43885Y62054D01*
X43255Y60935D01*
X43256Y60927D01*
X43250Y60925D01*
X42885Y59695D01*
X42888Y59687D01*
X42883Y59684D01*
X42801Y58403D01*
X42804Y58399D01*
X42801Y58397D01*
X42883Y57116D01*
X42889Y57110D01*
X42885Y57105D01*
X43250Y55875D01*
X43257Y55870D01*
X43255Y55865D01*
X43885Y54746D01*
X43892Y54743D01*
X43891Y54737D01*
X44754Y53787D01*
X44762Y53786D01*
X44762Y53780D01*
X45815Y53046D01*
X45823Y53046D01*
X45825Y53041D01*
X47015Y52559D01*
X47022Y52561D01*
X47025Y52556D01*
X48292Y52351D01*
X48297Y52354D01*
X48300Y52351D01*
X60300Y52351D01*
X60304Y52354D01*
G37*
G36*
X674984Y52354D02*
X674984Y52354D01*
X674987Y52351D01*
X676109Y52506D01*
X676114Y52511D01*
X676118Y52508D01*
X677189Y52879D01*
X677193Y52885D01*
X677198Y52883D01*
X678175Y53456D01*
X678178Y53462D01*
X678183Y53461D01*
X679030Y54214D01*
X679032Y54221D01*
X679037Y54221D01*
X679721Y55124D01*
X679721Y55131D01*
X679726Y55132D01*
X680221Y56151D01*
X680219Y56158D01*
X680224Y56160D01*
X680511Y57257D01*
X680509Y57261D01*
X680511Y57262D01*
X680509Y57264D01*
X680512Y57266D01*
X680579Y58397D01*
X680577Y58401D01*
X680579Y58403D01*
X680512Y59534D01*
X680507Y59539D01*
X680511Y59543D01*
X680224Y60640D01*
X680218Y60644D01*
X680221Y60649D01*
X679726Y61668D01*
X679720Y61671D01*
X679721Y61676D01*
X679037Y62579D01*
X679030Y62581D01*
X679030Y62586D01*
X678183Y63339D01*
X678176Y63339D01*
X678175Y63344D01*
X677198Y63917D01*
X677191Y63916D01*
X677189Y63921D01*
X676118Y64292D01*
X676112Y64289D01*
X676109Y64294D01*
X674987Y64449D01*
X674982Y64446D01*
X674980Y64449D01*
X662980Y64449D01*
X662975Y64446D01*
X662972Y64449D01*
X661705Y64244D01*
X661699Y64238D01*
X661695Y64241D01*
X660505Y63759D01*
X660501Y63752D01*
X660495Y63754D01*
X659442Y63020D01*
X659440Y63012D01*
X659434Y63013D01*
X658571Y62063D01*
X658570Y62054D01*
X658565Y62054D01*
X657935Y60935D01*
X657936Y60927D01*
X657930Y60925D01*
X657565Y59695D01*
X657568Y59687D01*
X657563Y59684D01*
X657481Y58403D01*
X657484Y58399D01*
X657481Y58397D01*
X657563Y57116D01*
X657569Y57110D01*
X657565Y57105D01*
X657930Y55875D01*
X657937Y55870D01*
X657935Y55865D01*
X658565Y54746D01*
X658572Y54743D01*
X658571Y54737D01*
X659434Y53787D01*
X659442Y53786D01*
X659442Y53780D01*
X660495Y53046D01*
X660503Y53046D01*
X660505Y53041D01*
X661695Y52559D01*
X661702Y52561D01*
X661705Y52556D01*
X662972Y52351D01*
X662977Y52354D01*
X662980Y52351D01*
X674980Y52351D01*
X674984Y52354D01*
G37*
G36*
X674984Y138754D02*
X674984Y138754D01*
X674987Y138751D01*
X676109Y138906D01*
X676114Y138911D01*
X676118Y138908D01*
X677189Y139279D01*
X677193Y139285D01*
X677198Y139283D01*
X678175Y139856D01*
X678178Y139862D01*
X678183Y139861D01*
X679030Y140614D01*
X679032Y140621D01*
X679037Y140621D01*
X679721Y141524D01*
X679721Y141531D01*
X679726Y141532D01*
X680221Y142551D01*
X680219Y142558D01*
X680224Y142560D01*
X680511Y143657D01*
X680509Y143661D01*
X680511Y143662D01*
X680509Y143664D01*
X680512Y143666D01*
X680579Y144797D01*
X680577Y144801D01*
X680579Y144803D01*
X680512Y145934D01*
X680507Y145939D01*
X680511Y145943D01*
X680224Y147040D01*
X680218Y147044D01*
X680221Y147049D01*
X679726Y148068D01*
X679720Y148071D01*
X679721Y148076D01*
X679037Y148979D01*
X679030Y148981D01*
X679030Y148986D01*
X678183Y149739D01*
X678176Y149739D01*
X678175Y149744D01*
X677198Y150317D01*
X677191Y150316D01*
X677189Y150321D01*
X676118Y150692D01*
X676112Y150689D01*
X676109Y150694D01*
X674987Y150849D01*
X674982Y150846D01*
X674980Y150849D01*
X662980Y150849D01*
X662975Y150846D01*
X662972Y150849D01*
X661705Y150644D01*
X661699Y150638D01*
X661695Y150641D01*
X660505Y150159D01*
X660501Y150152D01*
X660495Y150154D01*
X659442Y149420D01*
X659440Y149412D01*
X659434Y149413D01*
X658571Y148463D01*
X658570Y148454D01*
X658565Y148454D01*
X657935Y147335D01*
X657936Y147327D01*
X657930Y147325D01*
X657565Y146095D01*
X657568Y146087D01*
X657563Y146084D01*
X657481Y144803D01*
X657484Y144799D01*
X657481Y144797D01*
X657563Y143516D01*
X657569Y143510D01*
X657565Y143505D01*
X657930Y142275D01*
X657937Y142270D01*
X657935Y142265D01*
X658565Y141146D01*
X658572Y141143D01*
X658571Y141137D01*
X659434Y140187D01*
X659442Y140186D01*
X659442Y140180D01*
X660495Y139446D01*
X660503Y139446D01*
X660505Y139441D01*
X661695Y138959D01*
X661702Y138961D01*
X661705Y138956D01*
X662972Y138751D01*
X662977Y138754D01*
X662980Y138751D01*
X674980Y138751D01*
X674984Y138754D01*
G37*
G36*
X60304Y138754D02*
X60304Y138754D01*
X60307Y138751D01*
X61429Y138906D01*
X61434Y138911D01*
X61438Y138908D01*
X62509Y139279D01*
X62513Y139285D01*
X62518Y139283D01*
X63495Y139856D01*
X63498Y139862D01*
X63503Y139861D01*
X64350Y140614D01*
X64352Y140621D01*
X64357Y140621D01*
X65041Y141524D01*
X65041Y141531D01*
X65046Y141532D01*
X65541Y142551D01*
X65539Y142558D01*
X65544Y142560D01*
X65831Y143657D01*
X65829Y143661D01*
X65831Y143662D01*
X65829Y143664D01*
X65832Y143666D01*
X65899Y144797D01*
X65897Y144801D01*
X65899Y144803D01*
X65832Y145934D01*
X65827Y145939D01*
X65831Y145943D01*
X65544Y147040D01*
X65538Y147044D01*
X65541Y147049D01*
X65046Y148068D01*
X65040Y148071D01*
X65041Y148076D01*
X64357Y148979D01*
X64350Y148981D01*
X64350Y148986D01*
X63503Y149739D01*
X63496Y149739D01*
X63495Y149744D01*
X62518Y150317D01*
X62511Y150316D01*
X62509Y150321D01*
X61438Y150692D01*
X61432Y150689D01*
X61429Y150694D01*
X60307Y150849D01*
X60302Y150846D01*
X60300Y150849D01*
X48300Y150849D01*
X48295Y150846D01*
X48292Y150849D01*
X47025Y150644D01*
X47019Y150638D01*
X47015Y150641D01*
X45825Y150159D01*
X45821Y150152D01*
X45815Y150154D01*
X44762Y149420D01*
X44760Y149412D01*
X44754Y149413D01*
X43891Y148463D01*
X43890Y148454D01*
X43885Y148454D01*
X43255Y147335D01*
X43256Y147327D01*
X43250Y147325D01*
X42885Y146095D01*
X42888Y146087D01*
X42883Y146084D01*
X42801Y144803D01*
X42804Y144799D01*
X42801Y144797D01*
X42883Y143516D01*
X42889Y143510D01*
X42885Y143505D01*
X43250Y142275D01*
X43257Y142270D01*
X43255Y142265D01*
X43885Y141146D01*
X43892Y141143D01*
X43891Y141137D01*
X44754Y140187D01*
X44762Y140186D01*
X44762Y140180D01*
X45815Y139446D01*
X45823Y139446D01*
X45825Y139441D01*
X47015Y138959D01*
X47022Y138961D01*
X47025Y138956D01*
X48292Y138751D01*
X48297Y138754D01*
X48300Y138751D01*
X60300Y138751D01*
X60304Y138754D01*
G37*
G36*
X60304Y578134D02*
X60304Y578134D01*
X60307Y578131D01*
X61429Y578286D01*
X61434Y578291D01*
X61438Y578288D01*
X62509Y578659D01*
X62513Y578665D01*
X62518Y578663D01*
X63495Y579236D01*
X63498Y579242D01*
X63503Y579241D01*
X64350Y579994D01*
X64352Y580001D01*
X64357Y580001D01*
X65041Y580904D01*
X65041Y580911D01*
X65046Y580912D01*
X65541Y581931D01*
X65539Y581938D01*
X65544Y581940D01*
X65831Y583037D01*
X65829Y583041D01*
X65831Y583042D01*
X65829Y583044D01*
X65832Y583046D01*
X65899Y584177D01*
X65897Y584181D01*
X65899Y584183D01*
X65832Y585314D01*
X65827Y585319D01*
X65831Y585323D01*
X65544Y586420D01*
X65538Y586424D01*
X65541Y586429D01*
X65046Y587448D01*
X65040Y587451D01*
X65041Y587456D01*
X64357Y588359D01*
X64350Y588361D01*
X64350Y588366D01*
X63503Y589119D01*
X63496Y589119D01*
X63495Y589124D01*
X62518Y589697D01*
X62511Y589696D01*
X62509Y589701D01*
X61438Y590072D01*
X61432Y590069D01*
X61429Y590074D01*
X60307Y590229D01*
X60302Y590226D01*
X60300Y590229D01*
X48300Y590229D01*
X48295Y590226D01*
X48292Y590229D01*
X47025Y590024D01*
X47019Y590018D01*
X47015Y590021D01*
X45825Y589539D01*
X45821Y589532D01*
X45815Y589534D01*
X44762Y588800D01*
X44760Y588792D01*
X44754Y588793D01*
X43891Y587843D01*
X43890Y587834D01*
X43885Y587834D01*
X43255Y586715D01*
X43256Y586707D01*
X43250Y586705D01*
X42885Y585475D01*
X42888Y585467D01*
X42883Y585464D01*
X42801Y584183D01*
X42804Y584179D01*
X42801Y584177D01*
X42883Y582896D01*
X42889Y582890D01*
X42885Y582885D01*
X43250Y581655D01*
X43257Y581650D01*
X43255Y581645D01*
X43885Y580526D01*
X43892Y580523D01*
X43891Y580517D01*
X44754Y579567D01*
X44762Y579566D01*
X44762Y579560D01*
X45815Y578826D01*
X45823Y578826D01*
X45825Y578821D01*
X47015Y578339D01*
X47022Y578341D01*
X47025Y578336D01*
X48292Y578131D01*
X48297Y578134D01*
X48300Y578131D01*
X60300Y578131D01*
X60304Y578134D01*
G37*
G36*
X60304Y664534D02*
X60304Y664534D01*
X60307Y664531D01*
X61429Y664686D01*
X61434Y664691D01*
X61438Y664688D01*
X62509Y665059D01*
X62513Y665065D01*
X62518Y665063D01*
X63495Y665636D01*
X63498Y665642D01*
X63503Y665641D01*
X64350Y666394D01*
X64352Y666401D01*
X64357Y666401D01*
X65041Y667304D01*
X65041Y667311D01*
X65046Y667312D01*
X65541Y668331D01*
X65539Y668338D01*
X65544Y668340D01*
X65831Y669437D01*
X65829Y669441D01*
X65831Y669442D01*
X65829Y669444D01*
X65832Y669446D01*
X65899Y670577D01*
X65897Y670581D01*
X65899Y670583D01*
X65832Y671714D01*
X65827Y671719D01*
X65831Y671723D01*
X65544Y672820D01*
X65538Y672824D01*
X65541Y672829D01*
X65046Y673848D01*
X65040Y673851D01*
X65041Y673856D01*
X64357Y674759D01*
X64350Y674761D01*
X64350Y674766D01*
X63503Y675519D01*
X63496Y675519D01*
X63495Y675524D01*
X62518Y676097D01*
X62511Y676096D01*
X62509Y676101D01*
X61438Y676472D01*
X61432Y676469D01*
X61429Y676474D01*
X60307Y676629D01*
X60302Y676626D01*
X60300Y676629D01*
X48300Y676629D01*
X48295Y676626D01*
X48292Y676629D01*
X47025Y676424D01*
X47019Y676418D01*
X47015Y676421D01*
X45825Y675939D01*
X45821Y675932D01*
X45815Y675934D01*
X44762Y675200D01*
X44760Y675192D01*
X44754Y675193D01*
X43891Y674243D01*
X43890Y674234D01*
X43885Y674234D01*
X43255Y673115D01*
X43256Y673107D01*
X43250Y673105D01*
X42885Y671875D01*
X42888Y671867D01*
X42883Y671864D01*
X42801Y670583D01*
X42804Y670579D01*
X42801Y670577D01*
X42883Y669296D01*
X42889Y669290D01*
X42885Y669285D01*
X43250Y668055D01*
X43257Y668050D01*
X43255Y668045D01*
X43885Y666926D01*
X43892Y666923D01*
X43891Y666917D01*
X44754Y665967D01*
X44762Y665966D01*
X44762Y665960D01*
X45815Y665226D01*
X45823Y665226D01*
X45825Y665221D01*
X47015Y664739D01*
X47022Y664741D01*
X47025Y664736D01*
X48292Y664531D01*
X48297Y664534D01*
X48300Y664531D01*
X60300Y664531D01*
X60304Y664534D01*
G37*
G36*
X674984Y1103914D02*
X674984Y1103914D01*
X674987Y1103911D01*
X676109Y1104066D01*
X676114Y1104071D01*
X676118Y1104068D01*
X677189Y1104439D01*
X677193Y1104445D01*
X677198Y1104443D01*
X678175Y1105016D01*
X678178Y1105022D01*
X678183Y1105021D01*
X679030Y1105774D01*
X679032Y1105781D01*
X679037Y1105781D01*
X679721Y1106684D01*
X679721Y1106691D01*
X679726Y1106692D01*
X680221Y1107711D01*
X680219Y1107718D01*
X680224Y1107720D01*
X680511Y1108817D01*
X680509Y1108821D01*
X680511Y1108822D01*
X680509Y1108824D01*
X680512Y1108826D01*
X680579Y1109957D01*
X680577Y1109961D01*
X680579Y1109963D01*
X680512Y1111094D01*
X680507Y1111099D01*
X680511Y1111103D01*
X680224Y1112200D01*
X680218Y1112204D01*
X680221Y1112209D01*
X679726Y1113228D01*
X679720Y1113231D01*
X679721Y1113236D01*
X679037Y1114139D01*
X679030Y1114141D01*
X679030Y1114146D01*
X678183Y1114899D01*
X678176Y1114899D01*
X678175Y1114904D01*
X677198Y1115477D01*
X677191Y1115476D01*
X677189Y1115481D01*
X676118Y1115852D01*
X676112Y1115849D01*
X676109Y1115854D01*
X674987Y1116009D01*
X674982Y1116006D01*
X674980Y1116009D01*
X662980Y1116009D01*
X662975Y1116006D01*
X662972Y1116009D01*
X661705Y1115804D01*
X661699Y1115798D01*
X661695Y1115801D01*
X660505Y1115319D01*
X660501Y1115312D01*
X660495Y1115314D01*
X659442Y1114580D01*
X659440Y1114572D01*
X659434Y1114573D01*
X658571Y1113623D01*
X658570Y1113614D01*
X658565Y1113614D01*
X657935Y1112495D01*
X657936Y1112487D01*
X657930Y1112485D01*
X657565Y1111255D01*
X657568Y1111247D01*
X657563Y1111244D01*
X657481Y1109963D01*
X657484Y1109959D01*
X657481Y1109957D01*
X657563Y1108676D01*
X657569Y1108670D01*
X657565Y1108665D01*
X657930Y1107435D01*
X657937Y1107430D01*
X657935Y1107425D01*
X658565Y1106306D01*
X658572Y1106303D01*
X658571Y1106297D01*
X659434Y1105347D01*
X659442Y1105346D01*
X659442Y1105340D01*
X660495Y1104606D01*
X660503Y1104606D01*
X660505Y1104601D01*
X661695Y1104119D01*
X661702Y1104121D01*
X661705Y1104116D01*
X662972Y1103911D01*
X662977Y1103914D01*
X662980Y1103911D01*
X674980Y1103911D01*
X674984Y1103914D01*
G37*
G36*
X60304Y1103914D02*
X60304Y1103914D01*
X60307Y1103911D01*
X61429Y1104066D01*
X61434Y1104071D01*
X61438Y1104068D01*
X62509Y1104439D01*
X62513Y1104445D01*
X62518Y1104443D01*
X63495Y1105016D01*
X63498Y1105022D01*
X63503Y1105021D01*
X64350Y1105774D01*
X64352Y1105781D01*
X64357Y1105781D01*
X65041Y1106684D01*
X65041Y1106691D01*
X65046Y1106692D01*
X65541Y1107711D01*
X65539Y1107718D01*
X65544Y1107720D01*
X65831Y1108817D01*
X65829Y1108821D01*
X65831Y1108822D01*
X65829Y1108824D01*
X65832Y1108826D01*
X65899Y1109957D01*
X65897Y1109961D01*
X65899Y1109963D01*
X65832Y1111094D01*
X65827Y1111099D01*
X65831Y1111103D01*
X65544Y1112200D01*
X65538Y1112204D01*
X65541Y1112209D01*
X65046Y1113228D01*
X65040Y1113231D01*
X65041Y1113236D01*
X64357Y1114139D01*
X64350Y1114141D01*
X64350Y1114146D01*
X63503Y1114899D01*
X63496Y1114899D01*
X63495Y1114904D01*
X62518Y1115477D01*
X62511Y1115476D01*
X62509Y1115481D01*
X61438Y1115852D01*
X61432Y1115849D01*
X61429Y1115854D01*
X60307Y1116009D01*
X60302Y1116006D01*
X60300Y1116009D01*
X48300Y1116009D01*
X48295Y1116006D01*
X48292Y1116009D01*
X47025Y1115804D01*
X47019Y1115798D01*
X47015Y1115801D01*
X45825Y1115319D01*
X45821Y1115312D01*
X45815Y1115314D01*
X44762Y1114580D01*
X44760Y1114572D01*
X44754Y1114573D01*
X43891Y1113623D01*
X43890Y1113614D01*
X43885Y1113614D01*
X43255Y1112495D01*
X43256Y1112487D01*
X43250Y1112485D01*
X42885Y1111255D01*
X42888Y1111247D01*
X42883Y1111244D01*
X42801Y1109963D01*
X42804Y1109959D01*
X42801Y1109957D01*
X42883Y1108676D01*
X42889Y1108670D01*
X42885Y1108665D01*
X43250Y1107435D01*
X43257Y1107430D01*
X43255Y1107425D01*
X43885Y1106306D01*
X43892Y1106303D01*
X43891Y1106297D01*
X44754Y1105347D01*
X44762Y1105346D01*
X44762Y1105340D01*
X45815Y1104606D01*
X45823Y1104606D01*
X45825Y1104601D01*
X47015Y1104119D01*
X47022Y1104121D01*
X47025Y1104116D01*
X48292Y1103911D01*
X48297Y1103914D01*
X48300Y1103911D01*
X60300Y1103911D01*
X60304Y1103914D01*
G37*
G36*
X630183Y138753D02*
X630183Y138753D01*
X630185Y138751D01*
X631361Y138862D01*
X631366Y138867D01*
X631370Y138864D01*
X632502Y139202D01*
X632506Y139208D01*
X632511Y139206D01*
X633555Y139758D01*
X633558Y139765D01*
X633563Y139763D01*
X634479Y140509D01*
X634480Y140516D01*
X634486Y140516D01*
X635239Y141426D01*
X635239Y141433D01*
X635244Y141434D01*
X635805Y142473D01*
X635804Y142478D01*
X635808Y142480D01*
X635807Y142481D01*
X635809Y142482D01*
X636156Y143611D01*
X636156Y143612D01*
X636157Y143613D01*
X636154Y143617D01*
X636158Y143620D01*
X636279Y144795D01*
X636275Y144802D01*
X636279Y144806D01*
X636122Y146146D01*
X636117Y146152D01*
X636120Y146157D01*
X635669Y147428D01*
X635662Y147433D01*
X635664Y147438D01*
X634942Y148577D01*
X634934Y148580D01*
X634935Y148586D01*
X633977Y149536D01*
X633969Y149537D01*
X633968Y149543D01*
X632823Y150256D01*
X632815Y150255D01*
X632813Y150261D01*
X631537Y150701D01*
X631530Y150699D01*
X631527Y150703D01*
X630185Y150849D01*
X630182Y150847D01*
X630180Y150849D01*
X624180Y150849D01*
X624177Y150847D01*
X624174Y150849D01*
X622845Y150694D01*
X622839Y150688D01*
X622835Y150691D01*
X621574Y150244D01*
X621569Y150237D01*
X621564Y150239D01*
X620434Y149522D01*
X620431Y149515D01*
X620425Y149516D01*
X619483Y148566D01*
X619482Y148557D01*
X619476Y148557D01*
X618769Y147421D01*
X618770Y147413D01*
X618764Y147411D01*
X618328Y146146D01*
X618330Y146138D01*
X618325Y146136D01*
X618181Y144805D01*
X618185Y144799D01*
X618181Y144795D01*
X618291Y143629D01*
X618296Y143624D01*
X618293Y143620D01*
X618628Y142497D01*
X618634Y142493D01*
X618632Y142489D01*
X619180Y141453D01*
X619186Y141450D01*
X619185Y141445D01*
X619924Y140537D01*
X619931Y140535D01*
X619931Y140530D01*
X620833Y139783D01*
X620841Y139783D01*
X620841Y139778D01*
X621872Y139221D01*
X621879Y139222D01*
X621881Y139217D01*
X623000Y138873D01*
X623007Y138875D01*
X623010Y138871D01*
X624175Y138751D01*
X624178Y138753D01*
X624180Y138751D01*
X630180Y138751D01*
X630183Y138753D01*
G37*
G36*
X15503Y138753D02*
X15503Y138753D01*
X15505Y138751D01*
X16681Y138862D01*
X16686Y138867D01*
X16690Y138864D01*
X17822Y139202D01*
X17826Y139208D01*
X17831Y139206D01*
X18875Y139758D01*
X18878Y139765D01*
X18883Y139763D01*
X19799Y140509D01*
X19800Y140516D01*
X19806Y140516D01*
X20559Y141426D01*
X20559Y141433D01*
X20564Y141434D01*
X21125Y142473D01*
X21124Y142478D01*
X21128Y142480D01*
X21127Y142481D01*
X21129Y142482D01*
X21476Y143611D01*
X21476Y143612D01*
X21477Y143613D01*
X21474Y143617D01*
X21478Y143620D01*
X21599Y144795D01*
X21595Y144802D01*
X21599Y144806D01*
X21442Y146146D01*
X21437Y146152D01*
X21440Y146157D01*
X20989Y147428D01*
X20982Y147433D01*
X20984Y147438D01*
X20262Y148577D01*
X20254Y148580D01*
X20255Y148586D01*
X19297Y149536D01*
X19289Y149537D01*
X19288Y149543D01*
X18143Y150256D01*
X18135Y150255D01*
X18133Y150261D01*
X16857Y150701D01*
X16850Y150699D01*
X16847Y150703D01*
X15505Y150849D01*
X15502Y150847D01*
X15500Y150849D01*
X9500Y150849D01*
X9497Y150847D01*
X9494Y150849D01*
X8165Y150694D01*
X8159Y150688D01*
X8155Y150691D01*
X6894Y150244D01*
X6889Y150237D01*
X6884Y150239D01*
X5754Y149522D01*
X5751Y149515D01*
X5745Y149516D01*
X4803Y148566D01*
X4802Y148557D01*
X4796Y148557D01*
X4089Y147421D01*
X4090Y147413D01*
X4084Y147411D01*
X3648Y146146D01*
X3650Y146138D01*
X3645Y146136D01*
X3501Y144805D01*
X3505Y144799D01*
X3501Y144795D01*
X3611Y143629D01*
X3616Y143624D01*
X3613Y143620D01*
X3948Y142497D01*
X3954Y142493D01*
X3952Y142489D01*
X4500Y141453D01*
X4506Y141450D01*
X4505Y141445D01*
X5244Y140537D01*
X5251Y140535D01*
X5251Y140530D01*
X6153Y139783D01*
X6161Y139783D01*
X6161Y139778D01*
X7192Y139221D01*
X7199Y139222D01*
X7201Y139217D01*
X8320Y138873D01*
X8327Y138875D01*
X8330Y138871D01*
X9495Y138751D01*
X9498Y138753D01*
X9500Y138751D01*
X15500Y138751D01*
X15503Y138753D01*
G37*
G36*
X630183Y1190313D02*
X630183Y1190313D01*
X630185Y1190311D01*
X631361Y1190422D01*
X631366Y1190427D01*
X631370Y1190424D01*
X632502Y1190762D01*
X632506Y1190768D01*
X632511Y1190766D01*
X633555Y1191318D01*
X633558Y1191325D01*
X633563Y1191323D01*
X634479Y1192069D01*
X634480Y1192076D01*
X634486Y1192076D01*
X635239Y1192986D01*
X635239Y1192993D01*
X635244Y1192994D01*
X635805Y1194033D01*
X635804Y1194038D01*
X635808Y1194040D01*
X635807Y1194041D01*
X635809Y1194042D01*
X636156Y1195171D01*
X636156Y1195172D01*
X636157Y1195173D01*
X636154Y1195177D01*
X636158Y1195180D01*
X636279Y1196355D01*
X636275Y1196362D01*
X636279Y1196366D01*
X636122Y1197706D01*
X636117Y1197712D01*
X636120Y1197717D01*
X635669Y1198988D01*
X635662Y1198993D01*
X635664Y1198998D01*
X634942Y1200137D01*
X634934Y1200140D01*
X634935Y1200146D01*
X633977Y1201096D01*
X633969Y1201097D01*
X633968Y1201103D01*
X632823Y1201816D01*
X632815Y1201815D01*
X632813Y1201821D01*
X631537Y1202261D01*
X631530Y1202259D01*
X631527Y1202263D01*
X630185Y1202409D01*
X630182Y1202407D01*
X630180Y1202409D01*
X624180Y1202409D01*
X624177Y1202407D01*
X624174Y1202409D01*
X622845Y1202254D01*
X622839Y1202248D01*
X622835Y1202251D01*
X621574Y1201804D01*
X621569Y1201797D01*
X621564Y1201799D01*
X620434Y1201082D01*
X620431Y1201075D01*
X620425Y1201076D01*
X619483Y1200126D01*
X619482Y1200117D01*
X619476Y1200117D01*
X618769Y1198981D01*
X618770Y1198973D01*
X618764Y1198971D01*
X618328Y1197706D01*
X618330Y1197698D01*
X618325Y1197696D01*
X618181Y1196365D01*
X618185Y1196359D01*
X618181Y1196355D01*
X618291Y1195189D01*
X618296Y1195184D01*
X618293Y1195180D01*
X618628Y1194057D01*
X618634Y1194053D01*
X618632Y1194049D01*
X619180Y1193013D01*
X619186Y1193010D01*
X619185Y1193005D01*
X619924Y1192097D01*
X619931Y1192095D01*
X619931Y1192090D01*
X620833Y1191343D01*
X620841Y1191343D01*
X620841Y1191338D01*
X621872Y1190781D01*
X621879Y1190782D01*
X621881Y1190777D01*
X623000Y1190433D01*
X623007Y1190435D01*
X623010Y1190431D01*
X624175Y1190311D01*
X624178Y1190313D01*
X624180Y1190311D01*
X630180Y1190311D01*
X630183Y1190313D01*
G37*
G36*
X15503Y1190313D02*
X15503Y1190313D01*
X15505Y1190311D01*
X16681Y1190422D01*
X16686Y1190427D01*
X16690Y1190424D01*
X17822Y1190762D01*
X17826Y1190768D01*
X17831Y1190766D01*
X18875Y1191318D01*
X18878Y1191325D01*
X18883Y1191323D01*
X19799Y1192069D01*
X19800Y1192076D01*
X19806Y1192076D01*
X20559Y1192986D01*
X20559Y1192993D01*
X20564Y1192994D01*
X21125Y1194033D01*
X21124Y1194038D01*
X21128Y1194040D01*
X21127Y1194041D01*
X21129Y1194042D01*
X21476Y1195171D01*
X21476Y1195172D01*
X21477Y1195173D01*
X21474Y1195177D01*
X21478Y1195180D01*
X21599Y1196355D01*
X21595Y1196362D01*
X21599Y1196366D01*
X21442Y1197706D01*
X21437Y1197712D01*
X21440Y1197717D01*
X20989Y1198988D01*
X20982Y1198993D01*
X20984Y1198998D01*
X20262Y1200137D01*
X20254Y1200140D01*
X20255Y1200146D01*
X19297Y1201096D01*
X19289Y1201097D01*
X19288Y1201103D01*
X18143Y1201816D01*
X18135Y1201815D01*
X18133Y1201821D01*
X16857Y1202261D01*
X16850Y1202259D01*
X16847Y1202263D01*
X15505Y1202409D01*
X15502Y1202407D01*
X15500Y1202409D01*
X9500Y1202409D01*
X9497Y1202407D01*
X9494Y1202409D01*
X8165Y1202254D01*
X8159Y1202248D01*
X8155Y1202251D01*
X6894Y1201804D01*
X6889Y1201797D01*
X6884Y1201799D01*
X5754Y1201082D01*
X5751Y1201075D01*
X5745Y1201076D01*
X4803Y1200126D01*
X4802Y1200117D01*
X4796Y1200117D01*
X4089Y1198981D01*
X4090Y1198973D01*
X4084Y1198971D01*
X3648Y1197706D01*
X3650Y1197698D01*
X3645Y1197696D01*
X3501Y1196365D01*
X3505Y1196359D01*
X3501Y1196355D01*
X3611Y1195189D01*
X3616Y1195184D01*
X3613Y1195180D01*
X3948Y1194057D01*
X3954Y1194053D01*
X3952Y1194049D01*
X4500Y1193013D01*
X4506Y1193010D01*
X4505Y1193005D01*
X5244Y1192097D01*
X5251Y1192095D01*
X5251Y1192090D01*
X6153Y1191343D01*
X6161Y1191343D01*
X6161Y1191338D01*
X7192Y1190781D01*
X7199Y1190782D01*
X7201Y1190777D01*
X8320Y1190433D01*
X8327Y1190435D01*
X8330Y1190431D01*
X9495Y1190311D01*
X9498Y1190313D01*
X9500Y1190311D01*
X15500Y1190311D01*
X15503Y1190313D01*
G37*
G36*
X630183Y52353D02*
X630183Y52353D01*
X630185Y52351D01*
X631361Y52462D01*
X631366Y52467D01*
X631370Y52464D01*
X632502Y52802D01*
X632506Y52808D01*
X632511Y52806D01*
X633555Y53358D01*
X633558Y53365D01*
X633563Y53363D01*
X634479Y54109D01*
X634480Y54116D01*
X634486Y54116D01*
X635239Y55026D01*
X635239Y55033D01*
X635244Y55034D01*
X635805Y56073D01*
X635804Y56078D01*
X635808Y56080D01*
X635807Y56081D01*
X635809Y56082D01*
X636156Y57211D01*
X636156Y57212D01*
X636157Y57213D01*
X636154Y57217D01*
X636158Y57220D01*
X636279Y58395D01*
X636275Y58402D01*
X636279Y58406D01*
X636122Y59746D01*
X636117Y59752D01*
X636120Y59757D01*
X635669Y61028D01*
X635662Y61033D01*
X635664Y61038D01*
X634942Y62177D01*
X634934Y62180D01*
X634935Y62186D01*
X633977Y63136D01*
X633969Y63137D01*
X633968Y63143D01*
X632823Y63856D01*
X632815Y63855D01*
X632813Y63861D01*
X631537Y64301D01*
X631530Y64299D01*
X631527Y64303D01*
X630185Y64449D01*
X630182Y64447D01*
X630180Y64449D01*
X624180Y64449D01*
X624177Y64447D01*
X624174Y64449D01*
X622845Y64294D01*
X622839Y64288D01*
X622835Y64291D01*
X621574Y63844D01*
X621569Y63837D01*
X621564Y63839D01*
X620434Y63122D01*
X620431Y63115D01*
X620425Y63116D01*
X619483Y62166D01*
X619482Y62157D01*
X619476Y62157D01*
X618769Y61021D01*
X618770Y61013D01*
X618764Y61011D01*
X618328Y59746D01*
X618330Y59738D01*
X618325Y59736D01*
X618181Y58405D01*
X618185Y58399D01*
X618181Y58395D01*
X618291Y57229D01*
X618296Y57224D01*
X618293Y57220D01*
X618628Y56097D01*
X618634Y56093D01*
X618632Y56089D01*
X619180Y55053D01*
X619186Y55050D01*
X619185Y55045D01*
X619924Y54137D01*
X619931Y54135D01*
X619931Y54130D01*
X620833Y53383D01*
X620841Y53383D01*
X620841Y53378D01*
X621872Y52821D01*
X621879Y52822D01*
X621881Y52817D01*
X623000Y52473D01*
X623007Y52475D01*
X623010Y52471D01*
X624175Y52351D01*
X624178Y52353D01*
X624180Y52351D01*
X630180Y52351D01*
X630183Y52353D01*
G37*
G36*
X15503Y1103913D02*
X15503Y1103913D01*
X15505Y1103911D01*
X16681Y1104022D01*
X16686Y1104027D01*
X16690Y1104024D01*
X17822Y1104362D01*
X17826Y1104368D01*
X17831Y1104366D01*
X18875Y1104918D01*
X18878Y1104925D01*
X18883Y1104923D01*
X19799Y1105669D01*
X19800Y1105676D01*
X19806Y1105676D01*
X20559Y1106586D01*
X20559Y1106593D01*
X20564Y1106594D01*
X21125Y1107633D01*
X21124Y1107638D01*
X21128Y1107640D01*
X21127Y1107641D01*
X21129Y1107642D01*
X21476Y1108771D01*
X21476Y1108772D01*
X21477Y1108773D01*
X21474Y1108777D01*
X21478Y1108780D01*
X21599Y1109955D01*
X21595Y1109962D01*
X21599Y1109966D01*
X21442Y1111306D01*
X21437Y1111312D01*
X21440Y1111317D01*
X20989Y1112588D01*
X20982Y1112593D01*
X20984Y1112598D01*
X20262Y1113737D01*
X20254Y1113740D01*
X20255Y1113746D01*
X19297Y1114696D01*
X19289Y1114697D01*
X19288Y1114703D01*
X18143Y1115416D01*
X18135Y1115415D01*
X18133Y1115421D01*
X16857Y1115861D01*
X16850Y1115859D01*
X16847Y1115863D01*
X15505Y1116009D01*
X15502Y1116007D01*
X15500Y1116009D01*
X9500Y1116009D01*
X9497Y1116007D01*
X9494Y1116009D01*
X8165Y1115854D01*
X8159Y1115848D01*
X8155Y1115851D01*
X6894Y1115404D01*
X6889Y1115397D01*
X6884Y1115399D01*
X5754Y1114682D01*
X5751Y1114675D01*
X5745Y1114676D01*
X4803Y1113726D01*
X4802Y1113717D01*
X4796Y1113717D01*
X4089Y1112581D01*
X4090Y1112573D01*
X4084Y1112571D01*
X3648Y1111306D01*
X3650Y1111298D01*
X3645Y1111296D01*
X3501Y1109965D01*
X3505Y1109959D01*
X3501Y1109955D01*
X3611Y1108789D01*
X3616Y1108784D01*
X3613Y1108780D01*
X3948Y1107657D01*
X3954Y1107653D01*
X3952Y1107649D01*
X4500Y1106613D01*
X4506Y1106610D01*
X4505Y1106605D01*
X5244Y1105697D01*
X5251Y1105695D01*
X5251Y1105690D01*
X6153Y1104943D01*
X6161Y1104943D01*
X6161Y1104938D01*
X7192Y1104381D01*
X7199Y1104382D01*
X7201Y1104377D01*
X8320Y1104033D01*
X8327Y1104035D01*
X8330Y1104031D01*
X9495Y1103911D01*
X9498Y1103913D01*
X9500Y1103911D01*
X15500Y1103911D01*
X15503Y1103913D01*
G37*
G36*
X630183Y1103913D02*
X630183Y1103913D01*
X630185Y1103911D01*
X631361Y1104022D01*
X631366Y1104027D01*
X631370Y1104024D01*
X632502Y1104362D01*
X632506Y1104368D01*
X632511Y1104366D01*
X633555Y1104918D01*
X633558Y1104925D01*
X633563Y1104923D01*
X634479Y1105669D01*
X634480Y1105676D01*
X634486Y1105676D01*
X635239Y1106586D01*
X635239Y1106593D01*
X635244Y1106594D01*
X635805Y1107633D01*
X635804Y1107638D01*
X635808Y1107640D01*
X635807Y1107641D01*
X635809Y1107642D01*
X636156Y1108771D01*
X636156Y1108772D01*
X636157Y1108773D01*
X636154Y1108777D01*
X636158Y1108780D01*
X636279Y1109955D01*
X636275Y1109962D01*
X636279Y1109966D01*
X636122Y1111306D01*
X636117Y1111312D01*
X636120Y1111317D01*
X635669Y1112588D01*
X635662Y1112593D01*
X635664Y1112598D01*
X634942Y1113737D01*
X634934Y1113740D01*
X634935Y1113746D01*
X633977Y1114696D01*
X633969Y1114697D01*
X633968Y1114703D01*
X632823Y1115416D01*
X632815Y1115415D01*
X632813Y1115421D01*
X631537Y1115861D01*
X631530Y1115859D01*
X631527Y1115863D01*
X630185Y1116009D01*
X630182Y1116007D01*
X630180Y1116009D01*
X624180Y1116009D01*
X624177Y1116007D01*
X624174Y1116009D01*
X622845Y1115854D01*
X622839Y1115848D01*
X622835Y1115851D01*
X621574Y1115404D01*
X621569Y1115397D01*
X621564Y1115399D01*
X620434Y1114682D01*
X620431Y1114675D01*
X620425Y1114676D01*
X619483Y1113726D01*
X619482Y1113717D01*
X619476Y1113717D01*
X618769Y1112581D01*
X618770Y1112573D01*
X618764Y1112571D01*
X618328Y1111306D01*
X618330Y1111298D01*
X618325Y1111296D01*
X618181Y1109965D01*
X618185Y1109959D01*
X618181Y1109955D01*
X618291Y1108789D01*
X618296Y1108784D01*
X618293Y1108780D01*
X618628Y1107657D01*
X618634Y1107653D01*
X618632Y1107649D01*
X619180Y1106613D01*
X619186Y1106610D01*
X619185Y1106605D01*
X619924Y1105697D01*
X619931Y1105695D01*
X619931Y1105690D01*
X620833Y1104943D01*
X620841Y1104943D01*
X620841Y1104938D01*
X621872Y1104381D01*
X621879Y1104382D01*
X621881Y1104377D01*
X623000Y1104033D01*
X623007Y1104035D01*
X623010Y1104031D01*
X624175Y1103911D01*
X624178Y1103913D01*
X624180Y1103911D01*
X630180Y1103911D01*
X630183Y1103913D01*
G37*
G36*
X15503Y664533D02*
X15503Y664533D01*
X15505Y664531D01*
X16681Y664642D01*
X16686Y664647D01*
X16690Y664644D01*
X17822Y664982D01*
X17826Y664988D01*
X17831Y664986D01*
X18875Y665538D01*
X18878Y665545D01*
X18883Y665543D01*
X19799Y666289D01*
X19800Y666296D01*
X19806Y666296D01*
X20559Y667206D01*
X20559Y667213D01*
X20564Y667214D01*
X21125Y668253D01*
X21124Y668258D01*
X21128Y668260D01*
X21127Y668261D01*
X21129Y668262D01*
X21476Y669391D01*
X21476Y669392D01*
X21477Y669393D01*
X21474Y669397D01*
X21478Y669400D01*
X21599Y670575D01*
X21595Y670582D01*
X21599Y670586D01*
X21442Y671926D01*
X21437Y671932D01*
X21440Y671937D01*
X20989Y673208D01*
X20982Y673213D01*
X20984Y673218D01*
X20262Y674357D01*
X20254Y674360D01*
X20255Y674366D01*
X19297Y675316D01*
X19289Y675317D01*
X19288Y675323D01*
X18143Y676036D01*
X18135Y676035D01*
X18133Y676041D01*
X16857Y676481D01*
X16850Y676479D01*
X16847Y676483D01*
X15505Y676629D01*
X15502Y676627D01*
X15500Y676629D01*
X9500Y676629D01*
X9497Y676627D01*
X9494Y676629D01*
X8165Y676474D01*
X8159Y676468D01*
X8155Y676471D01*
X6894Y676024D01*
X6889Y676017D01*
X6884Y676019D01*
X5754Y675302D01*
X5751Y675295D01*
X5745Y675296D01*
X4803Y674346D01*
X4802Y674337D01*
X4796Y674337D01*
X4089Y673201D01*
X4090Y673193D01*
X4084Y673191D01*
X3648Y671926D01*
X3650Y671918D01*
X3645Y671916D01*
X3501Y670585D01*
X3505Y670579D01*
X3501Y670575D01*
X3611Y669409D01*
X3616Y669404D01*
X3613Y669400D01*
X3948Y668277D01*
X3954Y668273D01*
X3952Y668269D01*
X4500Y667233D01*
X4506Y667230D01*
X4505Y667225D01*
X5244Y666317D01*
X5251Y666315D01*
X5251Y666310D01*
X6153Y665563D01*
X6161Y665563D01*
X6161Y665558D01*
X7192Y665001D01*
X7199Y665002D01*
X7201Y664997D01*
X8320Y664653D01*
X8327Y664655D01*
X8330Y664651D01*
X9495Y664531D01*
X9498Y664533D01*
X9500Y664531D01*
X15500Y664531D01*
X15503Y664533D01*
G37*
G36*
X630183Y664533D02*
X630183Y664533D01*
X630185Y664531D01*
X631361Y664642D01*
X631366Y664647D01*
X631370Y664644D01*
X632502Y664982D01*
X632506Y664988D01*
X632511Y664986D01*
X633555Y665538D01*
X633558Y665545D01*
X633563Y665543D01*
X634479Y666289D01*
X634480Y666296D01*
X634486Y666296D01*
X635239Y667206D01*
X635239Y667213D01*
X635244Y667214D01*
X635805Y668253D01*
X635804Y668258D01*
X635808Y668260D01*
X635807Y668261D01*
X635809Y668262D01*
X636156Y669391D01*
X636156Y669392D01*
X636157Y669393D01*
X636154Y669397D01*
X636158Y669400D01*
X636279Y670575D01*
X636275Y670582D01*
X636279Y670586D01*
X636122Y671926D01*
X636117Y671932D01*
X636120Y671937D01*
X635669Y673208D01*
X635662Y673213D01*
X635664Y673218D01*
X634942Y674357D01*
X634934Y674360D01*
X634935Y674366D01*
X633977Y675316D01*
X633969Y675317D01*
X633968Y675323D01*
X632823Y676036D01*
X632815Y676035D01*
X632813Y676041D01*
X631537Y676481D01*
X631530Y676479D01*
X631527Y676483D01*
X630185Y676629D01*
X630182Y676627D01*
X630180Y676629D01*
X624180Y676629D01*
X624177Y676627D01*
X624174Y676629D01*
X622845Y676474D01*
X622839Y676468D01*
X622835Y676471D01*
X621574Y676024D01*
X621569Y676017D01*
X621564Y676019D01*
X620434Y675302D01*
X620431Y675295D01*
X620425Y675296D01*
X619483Y674346D01*
X619482Y674337D01*
X619476Y674337D01*
X618769Y673201D01*
X618770Y673193D01*
X618764Y673191D01*
X618328Y671926D01*
X618330Y671918D01*
X618325Y671916D01*
X618181Y670585D01*
X618185Y670579D01*
X618181Y670575D01*
X618291Y669409D01*
X618296Y669404D01*
X618293Y669400D01*
X618628Y668277D01*
X618634Y668273D01*
X618632Y668269D01*
X619180Y667233D01*
X619186Y667230D01*
X619185Y667225D01*
X619924Y666317D01*
X619931Y666315D01*
X619931Y666310D01*
X620833Y665563D01*
X620841Y665563D01*
X620841Y665558D01*
X621872Y665001D01*
X621879Y665002D01*
X621881Y664997D01*
X623000Y664653D01*
X623007Y664655D01*
X623010Y664651D01*
X624175Y664531D01*
X624178Y664533D01*
X624180Y664531D01*
X630180Y664531D01*
X630183Y664533D01*
G37*
G36*
X15503Y52353D02*
X15503Y52353D01*
X15505Y52351D01*
X16681Y52462D01*
X16686Y52467D01*
X16690Y52464D01*
X17822Y52802D01*
X17826Y52808D01*
X17831Y52806D01*
X18875Y53358D01*
X18878Y53365D01*
X18883Y53363D01*
X19799Y54109D01*
X19800Y54116D01*
X19806Y54116D01*
X20559Y55026D01*
X20559Y55033D01*
X20564Y55034D01*
X21125Y56073D01*
X21124Y56078D01*
X21128Y56080D01*
X21127Y56081D01*
X21129Y56082D01*
X21476Y57211D01*
X21476Y57212D01*
X21477Y57213D01*
X21474Y57217D01*
X21478Y57220D01*
X21599Y58395D01*
X21595Y58402D01*
X21599Y58406D01*
X21442Y59746D01*
X21437Y59752D01*
X21440Y59757D01*
X20989Y61028D01*
X20982Y61033D01*
X20984Y61038D01*
X20262Y62177D01*
X20254Y62180D01*
X20255Y62186D01*
X19297Y63136D01*
X19289Y63137D01*
X19288Y63143D01*
X18143Y63856D01*
X18135Y63855D01*
X18133Y63861D01*
X16857Y64301D01*
X16850Y64299D01*
X16847Y64303D01*
X15505Y64449D01*
X15502Y64447D01*
X15500Y64449D01*
X9500Y64449D01*
X9497Y64447D01*
X9494Y64449D01*
X8165Y64294D01*
X8159Y64288D01*
X8155Y64291D01*
X6894Y63844D01*
X6889Y63837D01*
X6884Y63839D01*
X5754Y63122D01*
X5751Y63115D01*
X5745Y63116D01*
X4803Y62166D01*
X4802Y62157D01*
X4796Y62157D01*
X4089Y61021D01*
X4090Y61013D01*
X4084Y61011D01*
X3648Y59746D01*
X3650Y59738D01*
X3645Y59736D01*
X3501Y58405D01*
X3505Y58399D01*
X3501Y58395D01*
X3611Y57229D01*
X3616Y57224D01*
X3613Y57220D01*
X3948Y56097D01*
X3954Y56093D01*
X3952Y56089D01*
X4500Y55053D01*
X4506Y55050D01*
X4505Y55045D01*
X5244Y54137D01*
X5251Y54135D01*
X5251Y54130D01*
X6153Y53383D01*
X6161Y53383D01*
X6161Y53378D01*
X7192Y52821D01*
X7199Y52822D01*
X7201Y52817D01*
X8320Y52473D01*
X8327Y52475D01*
X8330Y52471D01*
X9495Y52351D01*
X9498Y52353D01*
X9500Y52351D01*
X15500Y52351D01*
X15503Y52353D01*
G37*
G36*
X630183Y578133D02*
X630183Y578133D01*
X630185Y578131D01*
X631361Y578242D01*
X631366Y578247D01*
X631370Y578244D01*
X632502Y578582D01*
X632506Y578588D01*
X632511Y578586D01*
X633555Y579138D01*
X633558Y579145D01*
X633563Y579143D01*
X634479Y579889D01*
X634480Y579896D01*
X634486Y579896D01*
X635239Y580806D01*
X635239Y580813D01*
X635244Y580814D01*
X635805Y581853D01*
X635804Y581858D01*
X635808Y581860D01*
X635807Y581861D01*
X635809Y581862D01*
X636156Y582991D01*
X636156Y582992D01*
X636157Y582993D01*
X636154Y582997D01*
X636158Y583000D01*
X636279Y584175D01*
X636275Y584182D01*
X636279Y584186D01*
X636122Y585526D01*
X636117Y585532D01*
X636120Y585537D01*
X635669Y586808D01*
X635662Y586813D01*
X635664Y586818D01*
X634942Y587957D01*
X634934Y587960D01*
X634935Y587966D01*
X633977Y588916D01*
X633969Y588917D01*
X633968Y588923D01*
X632823Y589636D01*
X632815Y589635D01*
X632813Y589641D01*
X631537Y590081D01*
X631530Y590079D01*
X631527Y590083D01*
X630185Y590229D01*
X630182Y590227D01*
X630180Y590229D01*
X624180Y590229D01*
X624177Y590227D01*
X624174Y590229D01*
X622845Y590074D01*
X622839Y590068D01*
X622835Y590071D01*
X621574Y589624D01*
X621569Y589617D01*
X621564Y589619D01*
X620434Y588902D01*
X620431Y588895D01*
X620425Y588896D01*
X619483Y587946D01*
X619482Y587937D01*
X619476Y587937D01*
X618769Y586801D01*
X618770Y586793D01*
X618764Y586791D01*
X618328Y585526D01*
X618330Y585518D01*
X618325Y585516D01*
X618181Y584185D01*
X618185Y584179D01*
X618181Y584175D01*
X618291Y583009D01*
X618296Y583004D01*
X618293Y583000D01*
X618628Y581877D01*
X618634Y581873D01*
X618632Y581869D01*
X619180Y580833D01*
X619186Y580830D01*
X619185Y580825D01*
X619924Y579917D01*
X619931Y579915D01*
X619931Y579910D01*
X620833Y579163D01*
X620841Y579163D01*
X620841Y579158D01*
X621872Y578601D01*
X621879Y578602D01*
X621881Y578597D01*
X623000Y578253D01*
X623007Y578255D01*
X623010Y578251D01*
X624175Y578131D01*
X624178Y578133D01*
X624180Y578131D01*
X630180Y578131D01*
X630183Y578133D01*
G37*
G36*
X15503Y578133D02*
X15503Y578133D01*
X15505Y578131D01*
X16681Y578242D01*
X16686Y578247D01*
X16690Y578244D01*
X17822Y578582D01*
X17826Y578588D01*
X17831Y578586D01*
X18875Y579138D01*
X18878Y579145D01*
X18883Y579143D01*
X19799Y579889D01*
X19800Y579896D01*
X19806Y579896D01*
X20559Y580806D01*
X20559Y580813D01*
X20564Y580814D01*
X21125Y581853D01*
X21124Y581858D01*
X21128Y581860D01*
X21127Y581861D01*
X21129Y581862D01*
X21476Y582991D01*
X21476Y582992D01*
X21477Y582993D01*
X21474Y582997D01*
X21478Y583000D01*
X21599Y584175D01*
X21595Y584182D01*
X21599Y584186D01*
X21442Y585526D01*
X21437Y585532D01*
X21440Y585537D01*
X20989Y586808D01*
X20982Y586813D01*
X20984Y586818D01*
X20262Y587957D01*
X20254Y587960D01*
X20255Y587966D01*
X19297Y588916D01*
X19289Y588917D01*
X19288Y588923D01*
X18143Y589636D01*
X18135Y589635D01*
X18133Y589641D01*
X16857Y590081D01*
X16850Y590079D01*
X16847Y590083D01*
X15505Y590229D01*
X15502Y590227D01*
X15500Y590229D01*
X9500Y590229D01*
X9497Y590227D01*
X9494Y590229D01*
X8165Y590074D01*
X8159Y590068D01*
X8155Y590071D01*
X6894Y589624D01*
X6889Y589617D01*
X6884Y589619D01*
X5754Y588902D01*
X5751Y588895D01*
X5745Y588896D01*
X4803Y587946D01*
X4802Y587937D01*
X4796Y587937D01*
X4089Y586801D01*
X4090Y586793D01*
X4084Y586791D01*
X3648Y585526D01*
X3650Y585518D01*
X3645Y585516D01*
X3501Y584185D01*
X3505Y584179D01*
X3501Y584175D01*
X3611Y583009D01*
X3616Y583004D01*
X3613Y583000D01*
X3948Y581877D01*
X3954Y581873D01*
X3952Y581869D01*
X4500Y580833D01*
X4506Y580830D01*
X4505Y580825D01*
X5244Y579917D01*
X5251Y579915D01*
X5251Y579910D01*
X6153Y579163D01*
X6161Y579163D01*
X6161Y579158D01*
X7192Y578601D01*
X7199Y578602D01*
X7201Y578597D01*
X8320Y578253D01*
X8327Y578255D01*
X8330Y578251D01*
X9495Y578131D01*
X9498Y578133D01*
X9500Y578131D01*
X15500Y578131D01*
X15503Y578133D01*
G37*
G36*
X723330Y1111643D02*
X723330Y1111643D01*
X723396Y1111645D01*
X723439Y1111663D01*
X723486Y1111671D01*
X723543Y1111705D01*
X723603Y1111730D01*
X723638Y1111761D01*
X723679Y1111786D01*
X723721Y1111837D01*
X723769Y1111881D01*
X723791Y1111923D01*
X723820Y1111960D01*
X723841Y1112022D01*
X723872Y1112081D01*
X723880Y1112135D01*
X723892Y1112172D01*
X723891Y1112212D01*
X723899Y1112266D01*
X723899Y1117854D01*
X723888Y1117919D01*
X723886Y1117985D01*
X723868Y1118028D01*
X723860Y1118075D01*
X723826Y1118132D01*
X723801Y1118192D01*
X723770Y1118227D01*
X723745Y1118268D01*
X723694Y1118310D01*
X723650Y1118358D01*
X723608Y1118380D01*
X723571Y1118409D01*
X723509Y1118430D01*
X723450Y1118461D01*
X723396Y1118469D01*
X723359Y1118481D01*
X723319Y1118480D01*
X723265Y1118488D01*
X719455Y1118488D01*
X719390Y1118477D01*
X719324Y1118475D01*
X719281Y1118457D01*
X719234Y1118449D01*
X719177Y1118415D01*
X719117Y1118390D01*
X719082Y1118359D01*
X719041Y1118334D01*
X719000Y1118283D01*
X718951Y1118239D01*
X718929Y1118197D01*
X718900Y1118160D01*
X718879Y1118098D01*
X718848Y1118039D01*
X718840Y1117985D01*
X718828Y1117948D01*
X718829Y1117908D01*
X718821Y1117854D01*
X718821Y1112266D01*
X718832Y1112201D01*
X718834Y1112135D01*
X718852Y1112092D01*
X718860Y1112045D01*
X718894Y1111988D01*
X718919Y1111928D01*
X718950Y1111893D01*
X718975Y1111852D01*
X719026Y1111811D01*
X719070Y1111762D01*
X719112Y1111740D01*
X719149Y1111711D01*
X719211Y1111690D01*
X719270Y1111659D01*
X719324Y1111651D01*
X719361Y1111639D01*
X719401Y1111640D01*
X719455Y1111632D01*
X723265Y1111632D01*
X723330Y1111643D01*
G37*
G36*
X108650Y1111643D02*
X108650Y1111643D01*
X108716Y1111645D01*
X108759Y1111663D01*
X108806Y1111671D01*
X108863Y1111705D01*
X108923Y1111730D01*
X108958Y1111761D01*
X108999Y1111786D01*
X109041Y1111837D01*
X109089Y1111881D01*
X109111Y1111923D01*
X109140Y1111960D01*
X109161Y1112022D01*
X109192Y1112081D01*
X109200Y1112135D01*
X109212Y1112172D01*
X109211Y1112212D01*
X109219Y1112266D01*
X109219Y1117854D01*
X109208Y1117919D01*
X109206Y1117985D01*
X109188Y1118028D01*
X109180Y1118075D01*
X109146Y1118132D01*
X109121Y1118192D01*
X109090Y1118227D01*
X109065Y1118268D01*
X109014Y1118310D01*
X108970Y1118358D01*
X108928Y1118380D01*
X108891Y1118409D01*
X108829Y1118430D01*
X108770Y1118461D01*
X108716Y1118469D01*
X108679Y1118481D01*
X108639Y1118480D01*
X108585Y1118488D01*
X104775Y1118488D01*
X104710Y1118477D01*
X104644Y1118475D01*
X104601Y1118457D01*
X104554Y1118449D01*
X104497Y1118415D01*
X104437Y1118390D01*
X104402Y1118359D01*
X104361Y1118334D01*
X104320Y1118283D01*
X104271Y1118239D01*
X104249Y1118197D01*
X104220Y1118160D01*
X104199Y1118098D01*
X104168Y1118039D01*
X104160Y1117985D01*
X104148Y1117948D01*
X104149Y1117908D01*
X104141Y1117854D01*
X104141Y1112266D01*
X104152Y1112201D01*
X104154Y1112135D01*
X104172Y1112092D01*
X104180Y1112045D01*
X104214Y1111988D01*
X104239Y1111928D01*
X104270Y1111893D01*
X104295Y1111852D01*
X104346Y1111811D01*
X104390Y1111762D01*
X104432Y1111740D01*
X104469Y1111711D01*
X104531Y1111690D01*
X104590Y1111659D01*
X104644Y1111651D01*
X104681Y1111639D01*
X104721Y1111640D01*
X104775Y1111632D01*
X108585Y1111632D01*
X108650Y1111643D01*
G37*
G36*
X108650Y585863D02*
X108650Y585863D01*
X108716Y585865D01*
X108759Y585883D01*
X108806Y585891D01*
X108863Y585925D01*
X108923Y585950D01*
X108958Y585981D01*
X108999Y586006D01*
X109041Y586057D01*
X109089Y586101D01*
X109111Y586143D01*
X109140Y586180D01*
X109161Y586242D01*
X109192Y586301D01*
X109200Y586355D01*
X109212Y586392D01*
X109211Y586432D01*
X109219Y586486D01*
X109219Y592074D01*
X109208Y592139D01*
X109206Y592205D01*
X109188Y592248D01*
X109180Y592295D01*
X109146Y592352D01*
X109121Y592412D01*
X109090Y592447D01*
X109065Y592488D01*
X109014Y592530D01*
X108970Y592578D01*
X108928Y592600D01*
X108891Y592629D01*
X108829Y592650D01*
X108770Y592681D01*
X108716Y592689D01*
X108679Y592701D01*
X108639Y592700D01*
X108585Y592708D01*
X104775Y592708D01*
X104710Y592697D01*
X104644Y592695D01*
X104601Y592677D01*
X104554Y592669D01*
X104497Y592635D01*
X104437Y592610D01*
X104402Y592579D01*
X104361Y592554D01*
X104320Y592503D01*
X104271Y592459D01*
X104249Y592417D01*
X104220Y592380D01*
X104199Y592318D01*
X104168Y592259D01*
X104160Y592205D01*
X104148Y592168D01*
X104149Y592128D01*
X104141Y592074D01*
X104141Y586486D01*
X104152Y586421D01*
X104154Y586355D01*
X104172Y586312D01*
X104180Y586265D01*
X104214Y586208D01*
X104239Y586148D01*
X104270Y586113D01*
X104295Y586072D01*
X104346Y586031D01*
X104390Y585982D01*
X104432Y585960D01*
X104469Y585931D01*
X104531Y585910D01*
X104590Y585879D01*
X104644Y585871D01*
X104681Y585859D01*
X104721Y585860D01*
X104775Y585852D01*
X108585Y585852D01*
X108650Y585863D01*
G37*
G36*
X723330Y585863D02*
X723330Y585863D01*
X723396Y585865D01*
X723439Y585883D01*
X723486Y585891D01*
X723543Y585925D01*
X723603Y585950D01*
X723638Y585981D01*
X723679Y586006D01*
X723721Y586057D01*
X723769Y586101D01*
X723791Y586143D01*
X723820Y586180D01*
X723841Y586242D01*
X723872Y586301D01*
X723880Y586355D01*
X723892Y586392D01*
X723891Y586432D01*
X723899Y586486D01*
X723899Y592074D01*
X723888Y592139D01*
X723886Y592205D01*
X723868Y592248D01*
X723860Y592295D01*
X723826Y592352D01*
X723801Y592412D01*
X723770Y592447D01*
X723745Y592488D01*
X723694Y592530D01*
X723650Y592578D01*
X723608Y592600D01*
X723571Y592629D01*
X723509Y592650D01*
X723450Y592681D01*
X723396Y592689D01*
X723359Y592701D01*
X723319Y592700D01*
X723265Y592708D01*
X719455Y592708D01*
X719390Y592697D01*
X719324Y592695D01*
X719281Y592677D01*
X719234Y592669D01*
X719177Y592635D01*
X719117Y592610D01*
X719082Y592579D01*
X719041Y592554D01*
X719000Y592503D01*
X718951Y592459D01*
X718929Y592417D01*
X718900Y592380D01*
X718879Y592318D01*
X718848Y592259D01*
X718840Y592205D01*
X718828Y592168D01*
X718829Y592128D01*
X718821Y592074D01*
X718821Y586486D01*
X718832Y586421D01*
X718834Y586355D01*
X718852Y586312D01*
X718860Y586265D01*
X718894Y586208D01*
X718919Y586148D01*
X718950Y586113D01*
X718975Y586072D01*
X719026Y586031D01*
X719070Y585982D01*
X719112Y585960D01*
X719149Y585931D01*
X719211Y585910D01*
X719270Y585879D01*
X719324Y585871D01*
X719361Y585859D01*
X719401Y585860D01*
X719455Y585852D01*
X723265Y585852D01*
X723330Y585863D01*
G37*
G36*
X108650Y60083D02*
X108650Y60083D01*
X108716Y60085D01*
X108759Y60103D01*
X108806Y60111D01*
X108863Y60145D01*
X108923Y60170D01*
X108958Y60201D01*
X108999Y60226D01*
X109041Y60277D01*
X109089Y60321D01*
X109111Y60363D01*
X109140Y60400D01*
X109161Y60462D01*
X109192Y60521D01*
X109200Y60575D01*
X109212Y60612D01*
X109211Y60652D01*
X109219Y60706D01*
X109219Y66294D01*
X109208Y66359D01*
X109206Y66425D01*
X109188Y66468D01*
X109180Y66515D01*
X109146Y66572D01*
X109121Y66632D01*
X109090Y66667D01*
X109065Y66708D01*
X109014Y66750D01*
X108970Y66798D01*
X108928Y66820D01*
X108891Y66849D01*
X108829Y66870D01*
X108770Y66901D01*
X108716Y66909D01*
X108679Y66921D01*
X108639Y66920D01*
X108585Y66928D01*
X104775Y66928D01*
X104710Y66917D01*
X104644Y66915D01*
X104601Y66897D01*
X104554Y66889D01*
X104497Y66855D01*
X104437Y66830D01*
X104402Y66799D01*
X104361Y66774D01*
X104320Y66723D01*
X104271Y66679D01*
X104249Y66637D01*
X104220Y66600D01*
X104199Y66538D01*
X104168Y66479D01*
X104160Y66425D01*
X104148Y66388D01*
X104149Y66348D01*
X104141Y66294D01*
X104141Y60706D01*
X104152Y60641D01*
X104154Y60575D01*
X104172Y60532D01*
X104180Y60485D01*
X104214Y60428D01*
X104239Y60368D01*
X104270Y60333D01*
X104295Y60292D01*
X104346Y60251D01*
X104390Y60202D01*
X104432Y60180D01*
X104469Y60151D01*
X104531Y60130D01*
X104590Y60099D01*
X104644Y60091D01*
X104681Y60079D01*
X104721Y60080D01*
X104775Y60072D01*
X108585Y60072D01*
X108650Y60083D01*
G37*
G36*
X723330Y60083D02*
X723330Y60083D01*
X723396Y60085D01*
X723439Y60103D01*
X723486Y60111D01*
X723543Y60145D01*
X723603Y60170D01*
X723638Y60201D01*
X723679Y60226D01*
X723721Y60277D01*
X723769Y60321D01*
X723791Y60363D01*
X723820Y60400D01*
X723841Y60462D01*
X723872Y60521D01*
X723880Y60575D01*
X723892Y60612D01*
X723891Y60652D01*
X723899Y60706D01*
X723899Y66294D01*
X723888Y66359D01*
X723886Y66425D01*
X723868Y66468D01*
X723860Y66515D01*
X723826Y66572D01*
X723801Y66632D01*
X723770Y66667D01*
X723745Y66708D01*
X723694Y66750D01*
X723650Y66798D01*
X723608Y66820D01*
X723571Y66849D01*
X723509Y66870D01*
X723450Y66901D01*
X723396Y66909D01*
X723359Y66921D01*
X723319Y66920D01*
X723265Y66928D01*
X719455Y66928D01*
X719390Y66917D01*
X719324Y66915D01*
X719281Y66897D01*
X719234Y66889D01*
X719177Y66855D01*
X719117Y66830D01*
X719082Y66799D01*
X719041Y66774D01*
X719000Y66723D01*
X718951Y66679D01*
X718929Y66637D01*
X718900Y66600D01*
X718879Y66538D01*
X718848Y66479D01*
X718840Y66425D01*
X718828Y66388D01*
X718829Y66348D01*
X718821Y66294D01*
X718821Y60706D01*
X718832Y60641D01*
X718834Y60575D01*
X718852Y60532D01*
X718860Y60485D01*
X718894Y60428D01*
X718919Y60368D01*
X718950Y60333D01*
X718975Y60292D01*
X719026Y60251D01*
X719070Y60202D01*
X719112Y60180D01*
X719149Y60151D01*
X719211Y60130D01*
X719270Y60099D01*
X719324Y60091D01*
X719361Y60079D01*
X719401Y60080D01*
X719455Y60072D01*
X723265Y60072D01*
X723330Y60083D01*
G37*
G36*
X496635Y1155712D02*
X496635Y1155712D01*
X496701Y1155714D01*
X496744Y1155732D01*
X496791Y1155740D01*
X496848Y1155774D01*
X496908Y1155799D01*
X496943Y1155830D01*
X496984Y1155855D01*
X497026Y1155906D01*
X497074Y1155950D01*
X497096Y1155992D01*
X497125Y1156029D01*
X497146Y1156091D01*
X497177Y1156150D01*
X497185Y1156204D01*
X497197Y1156241D01*
X497196Y1156281D01*
X497204Y1156335D01*
X497204Y1160145D01*
X497193Y1160210D01*
X497191Y1160276D01*
X497173Y1160319D01*
X497165Y1160366D01*
X497131Y1160423D01*
X497106Y1160483D01*
X497075Y1160518D01*
X497050Y1160559D01*
X496999Y1160601D01*
X496955Y1160649D01*
X496913Y1160671D01*
X496876Y1160700D01*
X496814Y1160721D01*
X496755Y1160752D01*
X496701Y1160760D01*
X496664Y1160772D01*
X496624Y1160771D01*
X496570Y1160779D01*
X494030Y1160779D01*
X493965Y1160768D01*
X493899Y1160766D01*
X493856Y1160748D01*
X493809Y1160740D01*
X493752Y1160706D01*
X493692Y1160681D01*
X493657Y1160650D01*
X493616Y1160625D01*
X493575Y1160574D01*
X493526Y1160530D01*
X493504Y1160488D01*
X493475Y1160451D01*
X493454Y1160389D01*
X493423Y1160330D01*
X493415Y1160276D01*
X493403Y1160239D01*
X493403Y1160235D01*
X493403Y1160234D01*
X493404Y1160199D01*
X493396Y1160145D01*
X493396Y1156335D01*
X493407Y1156270D01*
X493409Y1156204D01*
X493427Y1156161D01*
X493435Y1156114D01*
X493469Y1156057D01*
X493494Y1155997D01*
X493525Y1155962D01*
X493550Y1155921D01*
X493601Y1155880D01*
X493645Y1155831D01*
X493687Y1155809D01*
X493724Y1155780D01*
X493786Y1155759D01*
X493845Y1155728D01*
X493899Y1155720D01*
X493936Y1155708D01*
X493976Y1155709D01*
X494030Y1155701D01*
X496570Y1155701D01*
X496635Y1155712D01*
G37*
G36*
X496635Y619772D02*
X496635Y619772D01*
X496701Y619774D01*
X496744Y619792D01*
X496791Y619800D01*
X496848Y619834D01*
X496908Y619859D01*
X496943Y619890D01*
X496984Y619915D01*
X497026Y619966D01*
X497074Y620010D01*
X497096Y620052D01*
X497125Y620089D01*
X497146Y620151D01*
X497177Y620210D01*
X497185Y620264D01*
X497197Y620301D01*
X497196Y620341D01*
X497204Y620395D01*
X497204Y624205D01*
X497193Y624270D01*
X497191Y624336D01*
X497173Y624379D01*
X497165Y624426D01*
X497131Y624483D01*
X497106Y624543D01*
X497075Y624578D01*
X497050Y624619D01*
X496999Y624661D01*
X496955Y624709D01*
X496913Y624731D01*
X496876Y624760D01*
X496814Y624781D01*
X496755Y624812D01*
X496701Y624820D01*
X496664Y624832D01*
X496624Y624831D01*
X496570Y624839D01*
X494030Y624839D01*
X493965Y624828D01*
X493899Y624826D01*
X493856Y624808D01*
X493809Y624800D01*
X493752Y624766D01*
X493692Y624741D01*
X493657Y624710D01*
X493616Y624685D01*
X493575Y624634D01*
X493526Y624590D01*
X493504Y624548D01*
X493475Y624511D01*
X493454Y624449D01*
X493423Y624390D01*
X493415Y624336D01*
X493403Y624299D01*
X493403Y624295D01*
X493403Y624294D01*
X493404Y624259D01*
X493396Y624205D01*
X493396Y620395D01*
X493407Y620330D01*
X493409Y620264D01*
X493427Y620221D01*
X493435Y620174D01*
X493469Y620117D01*
X493494Y620057D01*
X493525Y620022D01*
X493550Y619981D01*
X493601Y619940D01*
X493645Y619891D01*
X493687Y619869D01*
X493724Y619840D01*
X493786Y619819D01*
X493845Y619788D01*
X493899Y619780D01*
X493936Y619768D01*
X493976Y619769D01*
X494030Y619761D01*
X496570Y619761D01*
X496635Y619772D01*
G37*
G36*
X1111315Y619772D02*
X1111315Y619772D01*
X1111381Y619774D01*
X1111424Y619792D01*
X1111471Y619800D01*
X1111528Y619834D01*
X1111588Y619859D01*
X1111623Y619890D01*
X1111664Y619915D01*
X1111706Y619966D01*
X1111754Y620010D01*
X1111776Y620052D01*
X1111805Y620089D01*
X1111826Y620151D01*
X1111857Y620210D01*
X1111865Y620264D01*
X1111877Y620301D01*
X1111876Y620341D01*
X1111884Y620395D01*
X1111884Y624205D01*
X1111873Y624270D01*
X1111871Y624336D01*
X1111853Y624379D01*
X1111845Y624426D01*
X1111811Y624483D01*
X1111786Y624543D01*
X1111755Y624578D01*
X1111730Y624619D01*
X1111679Y624661D01*
X1111635Y624709D01*
X1111593Y624731D01*
X1111556Y624760D01*
X1111494Y624781D01*
X1111435Y624812D01*
X1111381Y624820D01*
X1111344Y624832D01*
X1111304Y624831D01*
X1111250Y624839D01*
X1108710Y624839D01*
X1108645Y624828D01*
X1108579Y624826D01*
X1108536Y624808D01*
X1108489Y624800D01*
X1108432Y624766D01*
X1108372Y624741D01*
X1108337Y624710D01*
X1108296Y624685D01*
X1108255Y624634D01*
X1108206Y624590D01*
X1108184Y624548D01*
X1108155Y624511D01*
X1108134Y624449D01*
X1108103Y624390D01*
X1108095Y624336D01*
X1108083Y624299D01*
X1108083Y624295D01*
X1108083Y624294D01*
X1108084Y624259D01*
X1108076Y624205D01*
X1108076Y620395D01*
X1108087Y620330D01*
X1108089Y620264D01*
X1108107Y620221D01*
X1108115Y620174D01*
X1108149Y620117D01*
X1108174Y620057D01*
X1108205Y620022D01*
X1108230Y619981D01*
X1108281Y619940D01*
X1108325Y619891D01*
X1108367Y619869D01*
X1108404Y619840D01*
X1108466Y619819D01*
X1108525Y619788D01*
X1108579Y619780D01*
X1108616Y619768D01*
X1108656Y619769D01*
X1108710Y619761D01*
X1111250Y619761D01*
X1111315Y619772D01*
G37*
G36*
X496635Y1145552D02*
X496635Y1145552D01*
X496701Y1145554D01*
X496744Y1145572D01*
X496791Y1145580D01*
X496848Y1145614D01*
X496908Y1145639D01*
X496943Y1145670D01*
X496984Y1145695D01*
X497026Y1145746D01*
X497074Y1145790D01*
X497096Y1145832D01*
X497125Y1145869D01*
X497146Y1145931D01*
X497177Y1145990D01*
X497185Y1146044D01*
X497197Y1146081D01*
X497196Y1146121D01*
X497204Y1146175D01*
X497204Y1149985D01*
X497193Y1150050D01*
X497191Y1150116D01*
X497173Y1150159D01*
X497165Y1150206D01*
X497131Y1150263D01*
X497106Y1150323D01*
X497075Y1150358D01*
X497050Y1150399D01*
X496999Y1150441D01*
X496955Y1150489D01*
X496913Y1150511D01*
X496876Y1150540D01*
X496814Y1150561D01*
X496755Y1150592D01*
X496701Y1150600D01*
X496664Y1150612D01*
X496624Y1150611D01*
X496570Y1150619D01*
X494030Y1150619D01*
X493965Y1150608D01*
X493899Y1150606D01*
X493856Y1150588D01*
X493809Y1150580D01*
X493752Y1150546D01*
X493692Y1150521D01*
X493657Y1150490D01*
X493616Y1150465D01*
X493575Y1150414D01*
X493526Y1150370D01*
X493504Y1150328D01*
X493475Y1150291D01*
X493454Y1150229D01*
X493423Y1150170D01*
X493415Y1150116D01*
X493403Y1150079D01*
X493403Y1150075D01*
X493403Y1150074D01*
X493404Y1150039D01*
X493396Y1149985D01*
X493396Y1146175D01*
X493407Y1146110D01*
X493409Y1146044D01*
X493427Y1146001D01*
X493435Y1145954D01*
X493469Y1145897D01*
X493494Y1145837D01*
X493525Y1145802D01*
X493550Y1145761D01*
X493601Y1145720D01*
X493645Y1145671D01*
X493687Y1145649D01*
X493724Y1145620D01*
X493786Y1145599D01*
X493845Y1145568D01*
X493899Y1145560D01*
X493936Y1145548D01*
X493976Y1145549D01*
X494030Y1145541D01*
X496570Y1145541D01*
X496635Y1145552D01*
G37*
G36*
X1111315Y104152D02*
X1111315Y104152D01*
X1111381Y104154D01*
X1111424Y104172D01*
X1111471Y104180D01*
X1111528Y104214D01*
X1111588Y104239D01*
X1111623Y104270D01*
X1111664Y104295D01*
X1111706Y104346D01*
X1111754Y104390D01*
X1111776Y104432D01*
X1111805Y104469D01*
X1111826Y104531D01*
X1111857Y104590D01*
X1111865Y104644D01*
X1111877Y104681D01*
X1111876Y104721D01*
X1111884Y104775D01*
X1111884Y108585D01*
X1111873Y108650D01*
X1111871Y108716D01*
X1111853Y108759D01*
X1111845Y108806D01*
X1111811Y108863D01*
X1111786Y108923D01*
X1111755Y108958D01*
X1111730Y108999D01*
X1111679Y109041D01*
X1111635Y109089D01*
X1111593Y109111D01*
X1111556Y109140D01*
X1111494Y109161D01*
X1111435Y109192D01*
X1111381Y109200D01*
X1111344Y109212D01*
X1111304Y109211D01*
X1111250Y109219D01*
X1108710Y109219D01*
X1108645Y109208D01*
X1108579Y109206D01*
X1108536Y109188D01*
X1108489Y109180D01*
X1108432Y109146D01*
X1108372Y109121D01*
X1108337Y109090D01*
X1108296Y109065D01*
X1108255Y109014D01*
X1108206Y108970D01*
X1108184Y108928D01*
X1108155Y108891D01*
X1108134Y108829D01*
X1108103Y108770D01*
X1108095Y108716D01*
X1108083Y108679D01*
X1108083Y108675D01*
X1108083Y108674D01*
X1108084Y108639D01*
X1108076Y108585D01*
X1108076Y104775D01*
X1108087Y104710D01*
X1108089Y104644D01*
X1108107Y104601D01*
X1108115Y104554D01*
X1108149Y104497D01*
X1108174Y104437D01*
X1108205Y104402D01*
X1108230Y104361D01*
X1108281Y104320D01*
X1108325Y104271D01*
X1108367Y104249D01*
X1108404Y104220D01*
X1108466Y104199D01*
X1108525Y104168D01*
X1108579Y104160D01*
X1108616Y104148D01*
X1108656Y104149D01*
X1108710Y104141D01*
X1111250Y104141D01*
X1111315Y104152D01*
G37*
G36*
X496635Y104152D02*
X496635Y104152D01*
X496701Y104154D01*
X496744Y104172D01*
X496791Y104180D01*
X496848Y104214D01*
X496908Y104239D01*
X496943Y104270D01*
X496984Y104295D01*
X497026Y104346D01*
X497074Y104390D01*
X497096Y104432D01*
X497125Y104469D01*
X497146Y104531D01*
X497177Y104590D01*
X497185Y104644D01*
X497197Y104681D01*
X497196Y104721D01*
X497204Y104775D01*
X497204Y108585D01*
X497193Y108650D01*
X497191Y108716D01*
X497173Y108759D01*
X497165Y108806D01*
X497131Y108863D01*
X497106Y108923D01*
X497075Y108958D01*
X497050Y108999D01*
X496999Y109041D01*
X496955Y109089D01*
X496913Y109111D01*
X496876Y109140D01*
X496814Y109161D01*
X496755Y109192D01*
X496701Y109200D01*
X496664Y109212D01*
X496624Y109211D01*
X496570Y109219D01*
X494030Y109219D01*
X493965Y109208D01*
X493899Y109206D01*
X493856Y109188D01*
X493809Y109180D01*
X493752Y109146D01*
X493692Y109121D01*
X493657Y109090D01*
X493616Y109065D01*
X493575Y109014D01*
X493526Y108970D01*
X493504Y108928D01*
X493475Y108891D01*
X493454Y108829D01*
X493423Y108770D01*
X493415Y108716D01*
X493403Y108679D01*
X493403Y108675D01*
X493403Y108674D01*
X493404Y108639D01*
X493396Y108585D01*
X493396Y104775D01*
X493407Y104710D01*
X493409Y104644D01*
X493427Y104601D01*
X493435Y104554D01*
X493469Y104497D01*
X493494Y104437D01*
X493525Y104402D01*
X493550Y104361D01*
X493601Y104320D01*
X493645Y104271D01*
X493687Y104249D01*
X493724Y104220D01*
X493786Y104199D01*
X493845Y104168D01*
X493899Y104160D01*
X493936Y104148D01*
X493976Y104149D01*
X494030Y104141D01*
X496570Y104141D01*
X496635Y104152D01*
G37*
G36*
X1111315Y93992D02*
X1111315Y93992D01*
X1111381Y93994D01*
X1111424Y94012D01*
X1111471Y94020D01*
X1111528Y94054D01*
X1111588Y94079D01*
X1111623Y94110D01*
X1111664Y94135D01*
X1111706Y94186D01*
X1111754Y94230D01*
X1111776Y94272D01*
X1111805Y94309D01*
X1111826Y94371D01*
X1111857Y94430D01*
X1111865Y94484D01*
X1111877Y94521D01*
X1111876Y94561D01*
X1111884Y94615D01*
X1111884Y98425D01*
X1111873Y98490D01*
X1111871Y98556D01*
X1111853Y98599D01*
X1111845Y98646D01*
X1111811Y98703D01*
X1111786Y98763D01*
X1111755Y98798D01*
X1111730Y98839D01*
X1111679Y98881D01*
X1111635Y98929D01*
X1111593Y98951D01*
X1111556Y98980D01*
X1111494Y99001D01*
X1111435Y99032D01*
X1111381Y99040D01*
X1111344Y99052D01*
X1111304Y99051D01*
X1111250Y99059D01*
X1108710Y99059D01*
X1108645Y99048D01*
X1108579Y99046D01*
X1108536Y99028D01*
X1108489Y99020D01*
X1108432Y98986D01*
X1108372Y98961D01*
X1108337Y98930D01*
X1108296Y98905D01*
X1108255Y98854D01*
X1108206Y98810D01*
X1108184Y98768D01*
X1108155Y98731D01*
X1108134Y98669D01*
X1108103Y98610D01*
X1108095Y98556D01*
X1108083Y98519D01*
X1108083Y98515D01*
X1108083Y98514D01*
X1108084Y98479D01*
X1108076Y98425D01*
X1108076Y94615D01*
X1108087Y94550D01*
X1108089Y94484D01*
X1108107Y94441D01*
X1108115Y94394D01*
X1108149Y94337D01*
X1108174Y94277D01*
X1108205Y94242D01*
X1108230Y94201D01*
X1108281Y94160D01*
X1108325Y94111D01*
X1108367Y94089D01*
X1108404Y94060D01*
X1108466Y94039D01*
X1108525Y94008D01*
X1108579Y94000D01*
X1108616Y93988D01*
X1108656Y93989D01*
X1108710Y93981D01*
X1111250Y93981D01*
X1111315Y93992D01*
G37*
G36*
X1111315Y629932D02*
X1111315Y629932D01*
X1111381Y629934D01*
X1111424Y629952D01*
X1111471Y629960D01*
X1111528Y629994D01*
X1111588Y630019D01*
X1111623Y630050D01*
X1111664Y630075D01*
X1111706Y630126D01*
X1111754Y630170D01*
X1111776Y630212D01*
X1111805Y630249D01*
X1111826Y630311D01*
X1111857Y630370D01*
X1111865Y630424D01*
X1111877Y630461D01*
X1111876Y630501D01*
X1111884Y630555D01*
X1111884Y634365D01*
X1111873Y634430D01*
X1111871Y634496D01*
X1111853Y634539D01*
X1111845Y634586D01*
X1111811Y634643D01*
X1111786Y634703D01*
X1111755Y634738D01*
X1111730Y634779D01*
X1111679Y634821D01*
X1111635Y634869D01*
X1111593Y634891D01*
X1111556Y634920D01*
X1111494Y634941D01*
X1111435Y634972D01*
X1111381Y634980D01*
X1111344Y634992D01*
X1111304Y634991D01*
X1111250Y634999D01*
X1108710Y634999D01*
X1108645Y634988D01*
X1108579Y634986D01*
X1108536Y634968D01*
X1108489Y634960D01*
X1108432Y634926D01*
X1108372Y634901D01*
X1108337Y634870D01*
X1108296Y634845D01*
X1108255Y634794D01*
X1108206Y634750D01*
X1108184Y634708D01*
X1108155Y634671D01*
X1108134Y634609D01*
X1108103Y634550D01*
X1108095Y634496D01*
X1108083Y634459D01*
X1108083Y634455D01*
X1108083Y634454D01*
X1108084Y634419D01*
X1108076Y634365D01*
X1108076Y630555D01*
X1108087Y630490D01*
X1108089Y630424D01*
X1108107Y630381D01*
X1108115Y630334D01*
X1108149Y630277D01*
X1108174Y630217D01*
X1108205Y630182D01*
X1108230Y630141D01*
X1108281Y630100D01*
X1108325Y630051D01*
X1108367Y630029D01*
X1108404Y630000D01*
X1108466Y629979D01*
X1108525Y629948D01*
X1108579Y629940D01*
X1108616Y629928D01*
X1108656Y629929D01*
X1108710Y629921D01*
X1111250Y629921D01*
X1111315Y629932D01*
G37*
G36*
X1111315Y1145552D02*
X1111315Y1145552D01*
X1111381Y1145554D01*
X1111424Y1145572D01*
X1111471Y1145580D01*
X1111528Y1145614D01*
X1111588Y1145639D01*
X1111623Y1145670D01*
X1111664Y1145695D01*
X1111706Y1145746D01*
X1111754Y1145790D01*
X1111776Y1145832D01*
X1111805Y1145869D01*
X1111826Y1145931D01*
X1111857Y1145990D01*
X1111865Y1146044D01*
X1111877Y1146081D01*
X1111876Y1146121D01*
X1111884Y1146175D01*
X1111884Y1149985D01*
X1111873Y1150050D01*
X1111871Y1150116D01*
X1111853Y1150159D01*
X1111845Y1150206D01*
X1111811Y1150263D01*
X1111786Y1150323D01*
X1111755Y1150358D01*
X1111730Y1150399D01*
X1111679Y1150441D01*
X1111635Y1150489D01*
X1111593Y1150511D01*
X1111556Y1150540D01*
X1111494Y1150561D01*
X1111435Y1150592D01*
X1111381Y1150600D01*
X1111344Y1150612D01*
X1111304Y1150611D01*
X1111250Y1150619D01*
X1108710Y1150619D01*
X1108645Y1150608D01*
X1108579Y1150606D01*
X1108536Y1150588D01*
X1108489Y1150580D01*
X1108432Y1150546D01*
X1108372Y1150521D01*
X1108337Y1150490D01*
X1108296Y1150465D01*
X1108255Y1150414D01*
X1108206Y1150370D01*
X1108184Y1150328D01*
X1108155Y1150291D01*
X1108134Y1150229D01*
X1108103Y1150170D01*
X1108095Y1150116D01*
X1108083Y1150079D01*
X1108083Y1150075D01*
X1108083Y1150074D01*
X1108084Y1150039D01*
X1108076Y1149985D01*
X1108076Y1146175D01*
X1108087Y1146110D01*
X1108089Y1146044D01*
X1108107Y1146001D01*
X1108115Y1145954D01*
X1108149Y1145897D01*
X1108174Y1145837D01*
X1108205Y1145802D01*
X1108230Y1145761D01*
X1108281Y1145720D01*
X1108325Y1145671D01*
X1108367Y1145649D01*
X1108404Y1145620D01*
X1108466Y1145599D01*
X1108525Y1145568D01*
X1108579Y1145560D01*
X1108616Y1145548D01*
X1108656Y1145549D01*
X1108710Y1145541D01*
X1111250Y1145541D01*
X1111315Y1145552D01*
G37*
G36*
X1111315Y1155712D02*
X1111315Y1155712D01*
X1111381Y1155714D01*
X1111424Y1155732D01*
X1111471Y1155740D01*
X1111528Y1155774D01*
X1111588Y1155799D01*
X1111623Y1155830D01*
X1111664Y1155855D01*
X1111706Y1155906D01*
X1111754Y1155950D01*
X1111776Y1155992D01*
X1111805Y1156029D01*
X1111826Y1156091D01*
X1111857Y1156150D01*
X1111865Y1156204D01*
X1111877Y1156241D01*
X1111876Y1156281D01*
X1111884Y1156335D01*
X1111884Y1160145D01*
X1111873Y1160210D01*
X1111871Y1160276D01*
X1111853Y1160319D01*
X1111845Y1160366D01*
X1111811Y1160423D01*
X1111786Y1160483D01*
X1111755Y1160518D01*
X1111730Y1160559D01*
X1111679Y1160601D01*
X1111635Y1160649D01*
X1111593Y1160671D01*
X1111556Y1160700D01*
X1111494Y1160721D01*
X1111435Y1160752D01*
X1111381Y1160760D01*
X1111344Y1160772D01*
X1111304Y1160771D01*
X1111250Y1160779D01*
X1108710Y1160779D01*
X1108645Y1160768D01*
X1108579Y1160766D01*
X1108536Y1160748D01*
X1108489Y1160740D01*
X1108432Y1160706D01*
X1108372Y1160681D01*
X1108337Y1160650D01*
X1108296Y1160625D01*
X1108255Y1160574D01*
X1108206Y1160530D01*
X1108184Y1160488D01*
X1108155Y1160451D01*
X1108134Y1160389D01*
X1108103Y1160330D01*
X1108095Y1160276D01*
X1108083Y1160239D01*
X1108083Y1160235D01*
X1108083Y1160234D01*
X1108084Y1160199D01*
X1108076Y1160145D01*
X1108076Y1156335D01*
X1108087Y1156270D01*
X1108089Y1156204D01*
X1108107Y1156161D01*
X1108115Y1156114D01*
X1108149Y1156057D01*
X1108174Y1155997D01*
X1108205Y1155962D01*
X1108230Y1155921D01*
X1108281Y1155880D01*
X1108325Y1155831D01*
X1108367Y1155809D01*
X1108404Y1155780D01*
X1108466Y1155759D01*
X1108525Y1155728D01*
X1108579Y1155720D01*
X1108616Y1155708D01*
X1108656Y1155709D01*
X1108710Y1155701D01*
X1111250Y1155701D01*
X1111315Y1155712D01*
G37*
G36*
X496635Y629932D02*
X496635Y629932D01*
X496701Y629934D01*
X496744Y629952D01*
X496791Y629960D01*
X496848Y629994D01*
X496908Y630019D01*
X496943Y630050D01*
X496984Y630075D01*
X497026Y630126D01*
X497074Y630170D01*
X497096Y630212D01*
X497125Y630249D01*
X497146Y630311D01*
X497177Y630370D01*
X497185Y630424D01*
X497197Y630461D01*
X497196Y630501D01*
X497204Y630555D01*
X497204Y634365D01*
X497193Y634430D01*
X497191Y634496D01*
X497173Y634539D01*
X497165Y634586D01*
X497131Y634643D01*
X497106Y634703D01*
X497075Y634738D01*
X497050Y634779D01*
X496999Y634821D01*
X496955Y634869D01*
X496913Y634891D01*
X496876Y634920D01*
X496814Y634941D01*
X496755Y634972D01*
X496701Y634980D01*
X496664Y634992D01*
X496624Y634991D01*
X496570Y634999D01*
X494030Y634999D01*
X493965Y634988D01*
X493899Y634986D01*
X493856Y634968D01*
X493809Y634960D01*
X493752Y634926D01*
X493692Y634901D01*
X493657Y634870D01*
X493616Y634845D01*
X493575Y634794D01*
X493526Y634750D01*
X493504Y634708D01*
X493475Y634671D01*
X493454Y634609D01*
X493423Y634550D01*
X493415Y634496D01*
X493403Y634459D01*
X493403Y634455D01*
X493403Y634454D01*
X493404Y634419D01*
X493396Y634365D01*
X493396Y630555D01*
X493407Y630490D01*
X493409Y630424D01*
X493427Y630381D01*
X493435Y630334D01*
X493469Y630277D01*
X493494Y630217D01*
X493525Y630182D01*
X493550Y630141D01*
X493601Y630100D01*
X493645Y630051D01*
X493687Y630029D01*
X493724Y630000D01*
X493786Y629979D01*
X493845Y629948D01*
X493899Y629940D01*
X493936Y629928D01*
X493976Y629929D01*
X494030Y629921D01*
X496570Y629921D01*
X496635Y629932D01*
G37*
G36*
X496635Y93992D02*
X496635Y93992D01*
X496701Y93994D01*
X496744Y94012D01*
X496791Y94020D01*
X496848Y94054D01*
X496908Y94079D01*
X496943Y94110D01*
X496984Y94135D01*
X497026Y94186D01*
X497074Y94230D01*
X497096Y94272D01*
X497125Y94309D01*
X497146Y94371D01*
X497177Y94430D01*
X497185Y94484D01*
X497197Y94521D01*
X497196Y94561D01*
X497204Y94615D01*
X497204Y98425D01*
X497193Y98490D01*
X497191Y98556D01*
X497173Y98599D01*
X497165Y98646D01*
X497131Y98703D01*
X497106Y98763D01*
X497075Y98798D01*
X497050Y98839D01*
X496999Y98881D01*
X496955Y98929D01*
X496913Y98951D01*
X496876Y98980D01*
X496814Y99001D01*
X496755Y99032D01*
X496701Y99040D01*
X496664Y99052D01*
X496624Y99051D01*
X496570Y99059D01*
X494030Y99059D01*
X493965Y99048D01*
X493899Y99046D01*
X493856Y99028D01*
X493809Y99020D01*
X493752Y98986D01*
X493692Y98961D01*
X493657Y98930D01*
X493616Y98905D01*
X493575Y98854D01*
X493526Y98810D01*
X493504Y98768D01*
X493475Y98731D01*
X493454Y98669D01*
X493423Y98610D01*
X493415Y98556D01*
X493403Y98519D01*
X493403Y98515D01*
X493403Y98514D01*
X493404Y98479D01*
X493396Y98425D01*
X493396Y94615D01*
X493407Y94550D01*
X493409Y94484D01*
X493427Y94441D01*
X493435Y94394D01*
X493469Y94337D01*
X493494Y94277D01*
X493525Y94242D01*
X493550Y94201D01*
X493601Y94160D01*
X493645Y94111D01*
X493687Y94089D01*
X493724Y94060D01*
X493786Y94039D01*
X493845Y94008D01*
X493899Y94000D01*
X493936Y93988D01*
X493976Y93989D01*
X494030Y93981D01*
X496570Y93981D01*
X496635Y93992D01*
G37*
G36*
X946850Y1259217D02*
X946850Y1259217D01*
X946916Y1259219D01*
X946959Y1259237D01*
X947006Y1259245D01*
X947063Y1259279D01*
X947123Y1259304D01*
X947158Y1259335D01*
X947199Y1259360D01*
X947241Y1259411D01*
X947289Y1259455D01*
X947311Y1259497D01*
X947340Y1259534D01*
X947361Y1259596D01*
X947392Y1259655D01*
X947400Y1259709D01*
X947412Y1259746D01*
X947411Y1259786D01*
X947419Y1259840D01*
X947419Y1262380D01*
X947408Y1262445D01*
X947406Y1262511D01*
X947388Y1262554D01*
X947380Y1262601D01*
X947346Y1262658D01*
X947321Y1262718D01*
X947290Y1262753D01*
X947265Y1262794D01*
X947214Y1262836D01*
X947170Y1262884D01*
X947128Y1262906D01*
X947091Y1262935D01*
X947029Y1262956D01*
X946970Y1262987D01*
X946916Y1262995D01*
X946879Y1263007D01*
X946839Y1263006D01*
X946785Y1263014D01*
X942975Y1263014D01*
X942910Y1263003D01*
X942844Y1263001D01*
X942801Y1262983D01*
X942754Y1262975D01*
X942697Y1262941D01*
X942637Y1262916D01*
X942602Y1262885D01*
X942561Y1262860D01*
X942520Y1262809D01*
X942471Y1262765D01*
X942449Y1262723D01*
X942420Y1262686D01*
X942399Y1262624D01*
X942368Y1262565D01*
X942360Y1262511D01*
X942348Y1262474D01*
X942348Y1262471D01*
X942349Y1262434D01*
X942341Y1262380D01*
X942341Y1259840D01*
X942352Y1259775D01*
X942354Y1259709D01*
X942372Y1259666D01*
X942380Y1259619D01*
X942414Y1259562D01*
X942439Y1259502D01*
X942470Y1259467D01*
X942495Y1259426D01*
X942546Y1259385D01*
X942590Y1259336D01*
X942632Y1259314D01*
X942669Y1259285D01*
X942731Y1259264D01*
X942790Y1259233D01*
X942844Y1259225D01*
X942881Y1259213D01*
X942921Y1259214D01*
X942975Y1259206D01*
X946785Y1259206D01*
X946850Y1259217D01*
G37*
G36*
X332170Y1259217D02*
X332170Y1259217D01*
X332236Y1259219D01*
X332279Y1259237D01*
X332326Y1259245D01*
X332383Y1259279D01*
X332443Y1259304D01*
X332478Y1259335D01*
X332519Y1259360D01*
X332561Y1259411D01*
X332609Y1259455D01*
X332631Y1259497D01*
X332660Y1259534D01*
X332681Y1259596D01*
X332712Y1259655D01*
X332720Y1259709D01*
X332732Y1259746D01*
X332731Y1259786D01*
X332739Y1259840D01*
X332739Y1262380D01*
X332728Y1262445D01*
X332726Y1262511D01*
X332708Y1262554D01*
X332700Y1262601D01*
X332666Y1262658D01*
X332641Y1262718D01*
X332610Y1262753D01*
X332585Y1262794D01*
X332534Y1262836D01*
X332490Y1262884D01*
X332448Y1262906D01*
X332411Y1262935D01*
X332349Y1262956D01*
X332290Y1262987D01*
X332236Y1262995D01*
X332199Y1263007D01*
X332159Y1263006D01*
X332105Y1263014D01*
X328295Y1263014D01*
X328230Y1263003D01*
X328164Y1263001D01*
X328121Y1262983D01*
X328074Y1262975D01*
X328017Y1262941D01*
X327957Y1262916D01*
X327922Y1262885D01*
X327881Y1262860D01*
X327840Y1262809D01*
X327791Y1262765D01*
X327769Y1262723D01*
X327740Y1262686D01*
X327719Y1262624D01*
X327688Y1262565D01*
X327680Y1262511D01*
X327668Y1262474D01*
X327668Y1262471D01*
X327669Y1262434D01*
X327661Y1262380D01*
X327661Y1259840D01*
X327672Y1259775D01*
X327674Y1259709D01*
X327692Y1259666D01*
X327700Y1259619D01*
X327734Y1259562D01*
X327759Y1259502D01*
X327790Y1259467D01*
X327815Y1259426D01*
X327866Y1259385D01*
X327910Y1259336D01*
X327952Y1259314D01*
X327989Y1259285D01*
X328051Y1259264D01*
X328110Y1259233D01*
X328164Y1259225D01*
X328201Y1259213D01*
X328241Y1259214D01*
X328295Y1259206D01*
X332105Y1259206D01*
X332170Y1259217D01*
G37*
G36*
X332170Y733437D02*
X332170Y733437D01*
X332236Y733439D01*
X332279Y733457D01*
X332326Y733465D01*
X332383Y733499D01*
X332443Y733524D01*
X332478Y733555D01*
X332519Y733580D01*
X332561Y733631D01*
X332609Y733675D01*
X332631Y733717D01*
X332660Y733754D01*
X332681Y733816D01*
X332712Y733875D01*
X332720Y733929D01*
X332732Y733966D01*
X332731Y734006D01*
X332739Y734060D01*
X332739Y736600D01*
X332728Y736665D01*
X332726Y736731D01*
X332708Y736774D01*
X332700Y736821D01*
X332666Y736878D01*
X332641Y736938D01*
X332610Y736973D01*
X332585Y737014D01*
X332534Y737056D01*
X332490Y737104D01*
X332448Y737126D01*
X332411Y737155D01*
X332349Y737176D01*
X332290Y737207D01*
X332236Y737215D01*
X332199Y737227D01*
X332159Y737226D01*
X332105Y737234D01*
X328295Y737234D01*
X328230Y737223D01*
X328164Y737221D01*
X328121Y737203D01*
X328074Y737195D01*
X328017Y737161D01*
X327957Y737136D01*
X327922Y737105D01*
X327881Y737080D01*
X327840Y737029D01*
X327791Y736985D01*
X327769Y736943D01*
X327740Y736906D01*
X327719Y736844D01*
X327688Y736785D01*
X327680Y736731D01*
X327668Y736694D01*
X327668Y736691D01*
X327669Y736654D01*
X327661Y736600D01*
X327661Y734060D01*
X327672Y733995D01*
X327674Y733929D01*
X327692Y733886D01*
X327700Y733839D01*
X327734Y733782D01*
X327759Y733722D01*
X327790Y733687D01*
X327815Y733646D01*
X327866Y733605D01*
X327910Y733556D01*
X327952Y733534D01*
X327989Y733505D01*
X328051Y733484D01*
X328110Y733453D01*
X328164Y733445D01*
X328201Y733433D01*
X328241Y733434D01*
X328295Y733426D01*
X332105Y733426D01*
X332170Y733437D01*
G37*
G36*
X946850Y733437D02*
X946850Y733437D01*
X946916Y733439D01*
X946959Y733457D01*
X947006Y733465D01*
X947063Y733499D01*
X947123Y733524D01*
X947158Y733555D01*
X947199Y733580D01*
X947241Y733631D01*
X947289Y733675D01*
X947311Y733717D01*
X947340Y733754D01*
X947361Y733816D01*
X947392Y733875D01*
X947400Y733929D01*
X947412Y733966D01*
X947411Y734006D01*
X947419Y734060D01*
X947419Y736600D01*
X947408Y736665D01*
X947406Y736731D01*
X947388Y736774D01*
X947380Y736821D01*
X947346Y736878D01*
X947321Y736938D01*
X947290Y736973D01*
X947265Y737014D01*
X947214Y737056D01*
X947170Y737104D01*
X947128Y737126D01*
X947091Y737155D01*
X947029Y737176D01*
X946970Y737207D01*
X946916Y737215D01*
X946879Y737227D01*
X946839Y737226D01*
X946785Y737234D01*
X942975Y737234D01*
X942910Y737223D01*
X942844Y737221D01*
X942801Y737203D01*
X942754Y737195D01*
X942697Y737161D01*
X942637Y737136D01*
X942602Y737105D01*
X942561Y737080D01*
X942520Y737029D01*
X942471Y736985D01*
X942449Y736943D01*
X942420Y736906D01*
X942399Y736844D01*
X942368Y736785D01*
X942360Y736731D01*
X942348Y736694D01*
X942348Y736691D01*
X942349Y736654D01*
X942341Y736600D01*
X942341Y734060D01*
X942352Y733995D01*
X942354Y733929D01*
X942372Y733886D01*
X942380Y733839D01*
X942414Y733782D01*
X942439Y733722D01*
X942470Y733687D01*
X942495Y733646D01*
X942546Y733605D01*
X942590Y733556D01*
X942632Y733534D01*
X942669Y733505D01*
X942731Y733484D01*
X942790Y733453D01*
X942844Y733445D01*
X942881Y733433D01*
X942921Y733434D01*
X942975Y733426D01*
X946785Y733426D01*
X946850Y733437D01*
G37*
G36*
X946850Y207657D02*
X946850Y207657D01*
X946916Y207659D01*
X946959Y207677D01*
X947006Y207685D01*
X947063Y207719D01*
X947123Y207744D01*
X947158Y207775D01*
X947199Y207800D01*
X947241Y207851D01*
X947289Y207895D01*
X947311Y207937D01*
X947340Y207974D01*
X947361Y208036D01*
X947392Y208095D01*
X947400Y208149D01*
X947412Y208186D01*
X947411Y208226D01*
X947419Y208280D01*
X947419Y210820D01*
X947408Y210885D01*
X947406Y210951D01*
X947388Y210994D01*
X947380Y211041D01*
X947346Y211098D01*
X947321Y211158D01*
X947290Y211193D01*
X947265Y211234D01*
X947214Y211276D01*
X947170Y211324D01*
X947128Y211346D01*
X947091Y211375D01*
X947029Y211396D01*
X946970Y211427D01*
X946916Y211435D01*
X946879Y211447D01*
X946839Y211446D01*
X946785Y211454D01*
X942975Y211454D01*
X942910Y211443D01*
X942844Y211441D01*
X942801Y211423D01*
X942754Y211415D01*
X942697Y211381D01*
X942637Y211356D01*
X942602Y211325D01*
X942561Y211300D01*
X942520Y211249D01*
X942471Y211205D01*
X942449Y211163D01*
X942420Y211126D01*
X942399Y211064D01*
X942368Y211005D01*
X942360Y210951D01*
X942348Y210914D01*
X942348Y210911D01*
X942349Y210874D01*
X942341Y210820D01*
X942341Y208280D01*
X942352Y208215D01*
X942354Y208149D01*
X942372Y208106D01*
X942380Y208059D01*
X942414Y208002D01*
X942439Y207942D01*
X942470Y207907D01*
X942495Y207866D01*
X942546Y207825D01*
X942590Y207776D01*
X942632Y207754D01*
X942669Y207725D01*
X942731Y207704D01*
X942790Y207673D01*
X942844Y207665D01*
X942881Y207653D01*
X942921Y207654D01*
X942975Y207646D01*
X946785Y207646D01*
X946850Y207657D01*
G37*
G36*
X332170Y207657D02*
X332170Y207657D01*
X332236Y207659D01*
X332279Y207677D01*
X332326Y207685D01*
X332383Y207719D01*
X332443Y207744D01*
X332478Y207775D01*
X332519Y207800D01*
X332561Y207851D01*
X332609Y207895D01*
X332631Y207937D01*
X332660Y207974D01*
X332681Y208036D01*
X332712Y208095D01*
X332720Y208149D01*
X332732Y208186D01*
X332731Y208226D01*
X332739Y208280D01*
X332739Y210820D01*
X332728Y210885D01*
X332726Y210951D01*
X332708Y210994D01*
X332700Y211041D01*
X332666Y211098D01*
X332641Y211158D01*
X332610Y211193D01*
X332585Y211234D01*
X332534Y211276D01*
X332490Y211324D01*
X332448Y211346D01*
X332411Y211375D01*
X332349Y211396D01*
X332290Y211427D01*
X332236Y211435D01*
X332199Y211447D01*
X332159Y211446D01*
X332105Y211454D01*
X328295Y211454D01*
X328230Y211443D01*
X328164Y211441D01*
X328121Y211423D01*
X328074Y211415D01*
X328017Y211381D01*
X327957Y211356D01*
X327922Y211325D01*
X327881Y211300D01*
X327840Y211249D01*
X327791Y211205D01*
X327769Y211163D01*
X327740Y211126D01*
X327719Y211064D01*
X327688Y211005D01*
X327680Y210951D01*
X327668Y210914D01*
X327668Y210911D01*
X327669Y210874D01*
X327661Y210820D01*
X327661Y208280D01*
X327672Y208215D01*
X327674Y208149D01*
X327692Y208106D01*
X327700Y208059D01*
X327734Y208002D01*
X327759Y207942D01*
X327790Y207907D01*
X327815Y207866D01*
X327866Y207825D01*
X327910Y207776D01*
X327952Y207754D01*
X327989Y207725D01*
X328051Y207704D01*
X328110Y207673D01*
X328164Y207665D01*
X328201Y207653D01*
X328241Y207654D01*
X328295Y207646D01*
X332105Y207646D01*
X332170Y207657D01*
G37*
D10*
X60100Y94100D03*
X60100Y99100D03*
D11*
X60100Y69350D03*
X60100Y77100D03*
D10*
X60100Y84100D03*
X60100Y89100D03*
X60100Y109100D03*
X60100Y104100D03*
D11*
X60100Y133850D03*
X60100Y126100D03*
D10*
X60100Y119100D03*
X60100Y114100D03*
D12*
X49050Y130500D03*
X49050Y72700D03*
D13*
X76200Y135500D03*
X76200Y118500D03*
X76200Y67700D03*
X76200Y84700D03*
D14*
X91850Y87850D03*
X98350Y87850D03*
X104850Y87850D03*
X111350Y87850D03*
X111350Y115350D03*
X104850Y115350D03*
X98350Y115350D03*
X91850Y115350D03*
D15*
X101600Y101600D03*
D16*
X93100Y139700D03*
X110100Y139700D03*
D17*
X7620Y7620D03*
X576580Y514350D03*
D18*
X340400Y106800D03*
X345400Y106800D03*
X345400Y121800D03*
X340400Y121800D03*
D19*
X335400Y121800D03*
X335400Y116800D03*
X335400Y106800D03*
X335400Y111800D03*
X350400Y106800D03*
X350400Y111800D03*
X350400Y116800D03*
X350400Y121800D03*
D13*
X368300Y122800D03*
X368300Y105800D03*
X383540Y122800D03*
X383540Y105800D03*
D20*
X339200Y180800D03*
D21*
X330200Y167800D03*
D20*
X339200Y190800D03*
X321200Y190800D03*
X321200Y180800D03*
D22*
X323575Y167800D02*
X323577Y167963D01*
X323583Y168125D01*
X323593Y168287D01*
X323607Y168449D01*
X323625Y168611D01*
X323647Y168772D01*
X323673Y168933D01*
X323702Y169092D01*
X323736Y169252D01*
X323774Y169410D01*
X323815Y169567D01*
X323860Y169723D01*
X323909Y169878D01*
X323962Y170032D01*
X324019Y170184D01*
X324079Y170335D01*
X324143Y170485D01*
X324211Y170633D01*
X324282Y170779D01*
X324357Y170923D01*
X324436Y171065D01*
X324518Y171206D01*
X324603Y171344D01*
X324692Y171481D01*
X324784Y171615D01*
X324879Y171747D01*
X324977Y171876D01*
X325079Y172003D01*
X325183Y172127D01*
X325291Y172249D01*
X325402Y172368D01*
X325515Y172485D01*
X325632Y172598D01*
X325751Y172709D01*
X325873Y172817D01*
X325997Y172921D01*
X326124Y173023D01*
X326253Y173121D01*
X326385Y173216D01*
X326519Y173308D01*
X326656Y173397D01*
X326794Y173482D01*
X326935Y173564D01*
X327077Y173643D01*
X327221Y173718D01*
X327367Y173789D01*
X327515Y173857D01*
X327665Y173921D01*
X327816Y173981D01*
X327968Y174038D01*
X328122Y174091D01*
X328277Y174140D01*
X328433Y174185D01*
X328590Y174226D01*
X328748Y174264D01*
X328908Y174298D01*
X329067Y174327D01*
X329228Y174353D01*
X329389Y174375D01*
X329551Y174393D01*
X329713Y174407D01*
X329875Y174417D01*
X330037Y174423D01*
X330200Y174425D01*
X330363Y174423D01*
X330525Y174417D01*
X330687Y174407D01*
X330849Y174393D01*
X331011Y174375D01*
X331172Y174353D01*
X331333Y174327D01*
X331492Y174298D01*
X331652Y174264D01*
X331810Y174226D01*
X331967Y174185D01*
X332123Y174140D01*
X332278Y174091D01*
X332432Y174038D01*
X332584Y173981D01*
X332735Y173921D01*
X332885Y173857D01*
X333033Y173789D01*
X333179Y173718D01*
X333323Y173643D01*
X333465Y173564D01*
X333606Y173482D01*
X333744Y173397D01*
X333881Y173308D01*
X334015Y173216D01*
X334147Y173121D01*
X334276Y173023D01*
X334403Y172921D01*
X334527Y172817D01*
X334649Y172709D01*
X334768Y172598D01*
X334885Y172485D01*
X334998Y172368D01*
X335109Y172249D01*
X335217Y172127D01*
X335321Y172003D01*
X335423Y171876D01*
X335521Y171747D01*
X335616Y171615D01*
X335708Y171481D01*
X335797Y171344D01*
X335882Y171206D01*
X335964Y171065D01*
X336043Y170923D01*
X336118Y170779D01*
X336189Y170633D01*
X336257Y170485D01*
X336321Y170335D01*
X336381Y170184D01*
X336438Y170032D01*
X336491Y169878D01*
X336540Y169723D01*
X336585Y169567D01*
X336626Y169410D01*
X336664Y169252D01*
X336698Y169092D01*
X336727Y168933D01*
X336753Y168772D01*
X336775Y168611D01*
X336793Y168449D01*
X336807Y168287D01*
X336817Y168125D01*
X336823Y167963D01*
X336825Y167800D01*
X336823Y167637D01*
X336817Y167475D01*
X336807Y167313D01*
X336793Y167151D01*
X336775Y166989D01*
X336753Y166828D01*
X336727Y166667D01*
X336698Y166508D01*
X336664Y166348D01*
X336626Y166190D01*
X336585Y166033D01*
X336540Y165877D01*
X336491Y165722D01*
X336438Y165568D01*
X336381Y165416D01*
X336321Y165265D01*
X336257Y165115D01*
X336189Y164967D01*
X336118Y164821D01*
X336043Y164677D01*
X335964Y164535D01*
X335882Y164394D01*
X335797Y164256D01*
X335708Y164119D01*
X335616Y163985D01*
X335521Y163853D01*
X335423Y163724D01*
X335321Y163597D01*
X335217Y163473D01*
X335109Y163351D01*
X334998Y163232D01*
X334885Y163115D01*
X334768Y163002D01*
X334649Y162891D01*
X334527Y162783D01*
X334403Y162679D01*
X334276Y162577D01*
X334147Y162479D01*
X334015Y162384D01*
X333881Y162292D01*
X333744Y162203D01*
X333606Y162118D01*
X333465Y162036D01*
X333323Y161957D01*
X333179Y161882D01*
X333033Y161811D01*
X332885Y161743D01*
X332735Y161679D01*
X332584Y161619D01*
X332432Y161562D01*
X332278Y161509D01*
X332123Y161460D01*
X331967Y161415D01*
X331810Y161374D01*
X331652Y161336D01*
X331492Y161302D01*
X331333Y161273D01*
X331172Y161247D01*
X331011Y161225D01*
X330849Y161207D01*
X330687Y161193D01*
X330525Y161183D01*
X330363Y161177D01*
X330200Y161175D01*
X330037Y161177D01*
X329875Y161183D01*
X329713Y161193D01*
X329551Y161207D01*
X329389Y161225D01*
X329228Y161247D01*
X329067Y161273D01*
X328908Y161302D01*
X328748Y161336D01*
X328590Y161374D01*
X328433Y161415D01*
X328277Y161460D01*
X328122Y161509D01*
X327968Y161562D01*
X327816Y161619D01*
X327665Y161679D01*
X327515Y161743D01*
X327367Y161811D01*
X327221Y161882D01*
X327077Y161957D01*
X326935Y162036D01*
X326794Y162118D01*
X326656Y162203D01*
X326519Y162292D01*
X326385Y162384D01*
X326253Y162479D01*
X326124Y162577D01*
X325997Y162679D01*
X325873Y162783D01*
X325751Y162891D01*
X325632Y163002D01*
X325515Y163115D01*
X325402Y163232D01*
X325291Y163351D01*
X325183Y163473D01*
X325079Y163597D01*
X324977Y163724D01*
X324879Y163853D01*
X324784Y163985D01*
X324692Y164119D01*
X324603Y164256D01*
X324518Y164394D01*
X324436Y164535D01*
X324357Y164677D01*
X324282Y164821D01*
X324211Y164967D01*
X324143Y165115D01*
X324079Y165265D01*
X324019Y165416D01*
X323962Y165568D01*
X323909Y165722D01*
X323860Y165877D01*
X323815Y166033D01*
X323774Y166190D01*
X323736Y166348D01*
X323702Y166508D01*
X323673Y166667D01*
X323647Y166828D01*
X323625Y166989D01*
X323607Y167151D01*
X323593Y167313D01*
X323583Y167475D01*
X323577Y167637D01*
X323575Y167800D01*
D23*
X330200Y161300D03*
D24*
X323700Y167800D03*
X336700Y167800D03*
D23*
X330200Y174300D03*
D13*
X393700Y156600D03*
X393700Y173600D03*
D25*
X558800Y495300D03*
X25400Y495300D03*
X558800Y25400D03*
X25400Y25400D03*
D26*
X286100Y476060D03*
X281100Y476060D03*
X276100Y476060D03*
X271100Y476060D03*
X266100Y476060D03*
X261100Y476060D03*
X256100Y476060D03*
X251100Y476060D03*
X246100Y476060D03*
X241100Y476060D03*
X236100Y476060D03*
X231100Y476060D03*
X226100Y476060D03*
X221100Y476060D03*
X216100Y476060D03*
X211100Y476060D03*
X206100Y476060D03*
X201100Y476060D03*
X196100Y476060D03*
X191100Y476060D03*
X186100Y476060D03*
X181100Y476060D03*
X176100Y476060D03*
X171100Y476060D03*
D27*
X296100Y490060D03*
X161100Y490060D03*
D13*
X330200Y427600D03*
X330200Y410600D03*
D28*
X145500Y285400D03*
D29*
X125800Y335280D03*
X102800Y335280D03*
D16*
X105800Y317500D03*
X122800Y317500D03*
D30*
X572690Y71060D03*
X572690Y127060D03*
D31*
X535940Y84060D03*
X535940Y94060D03*
X535940Y104060D03*
X535940Y114060D03*
D32*
X495300Y91186D03*
X495300Y101600D03*
X495300Y112014D03*
D16*
X503800Y76200D03*
X486800Y76200D03*
X503800Y127000D03*
X486800Y127000D03*
D33*
X269240Y31750D03*
X213360Y31750D03*
X269240Y69850D03*
X213360Y69850D03*
D16*
X93100Y154940D03*
X110100Y154940D03*
D34*
X34036Y203200D03*
X42164Y203200D03*
D35*
X23100Y177800D03*
X53100Y177800D03*
D36*
X102900Y177800D03*
X74900Y177800D03*
D13*
X152400Y143900D03*
X152400Y160900D03*
X137160Y160900D03*
X137160Y143900D03*
D34*
X101600Y63500D03*
X111760Y63500D03*
D37*
X93980Y63500D03*
X119380Y63500D03*
D38*
X158750Y190500D03*
X158750Y203200D03*
X158750Y215900D03*
X158750Y228600D03*
X158750Y177800D03*
X146050Y190500D03*
X146050Y203200D03*
X146050Y215900D03*
X146050Y228600D03*
X146050Y177800D03*
D33*
X370840Y31750D03*
X314960Y31750D03*
X370840Y69850D03*
X314960Y69850D03*
D39*
X377300Y183220D03*
D38*
X368300Y170700D03*
D39*
X377300Y191440D03*
X359300Y191440D03*
X359300Y183220D03*
X368300Y191440D03*
D40*
X361340Y170700D02*
X361342Y170871D01*
X361348Y171042D01*
X361359Y171212D01*
X361374Y171382D01*
X361392Y171552D01*
X361415Y171721D01*
X361442Y171890D01*
X361474Y172058D01*
X361509Y172225D01*
X361549Y172391D01*
X361592Y172556D01*
X361640Y172720D01*
X361691Y172883D01*
X361747Y173045D01*
X361806Y173205D01*
X361870Y173363D01*
X361937Y173520D01*
X362008Y173676D01*
X362083Y173829D01*
X362162Y173981D01*
X362244Y174131D01*
X362330Y174278D01*
X362420Y174424D01*
X362513Y174567D01*
X362610Y174708D01*
X362710Y174846D01*
X362813Y174982D01*
X362920Y175115D01*
X363030Y175246D01*
X363143Y175374D01*
X363259Y175499D01*
X363379Y175621D01*
X363501Y175741D01*
X363626Y175857D01*
X363754Y175970D01*
X363885Y176080D01*
X364018Y176187D01*
X364154Y176290D01*
X364292Y176390D01*
X364433Y176487D01*
X364576Y176580D01*
X364722Y176670D01*
X364869Y176756D01*
X365019Y176838D01*
X365171Y176917D01*
X365324Y176992D01*
X365480Y177063D01*
X365637Y177130D01*
X365795Y177194D01*
X365955Y177253D01*
X366117Y177309D01*
X366280Y177360D01*
X366444Y177408D01*
X366609Y177451D01*
X366775Y177491D01*
X366942Y177526D01*
X367110Y177558D01*
X367279Y177585D01*
X367448Y177608D01*
X367618Y177626D01*
X367788Y177641D01*
X367958Y177652D01*
X368129Y177658D01*
X368300Y177660D01*
X368471Y177658D01*
X368642Y177652D01*
X368812Y177641D01*
X368982Y177626D01*
X369152Y177608D01*
X369321Y177585D01*
X369490Y177558D01*
X369658Y177526D01*
X369825Y177491D01*
X369991Y177451D01*
X370156Y177408D01*
X370320Y177360D01*
X370483Y177309D01*
X370645Y177253D01*
X370805Y177194D01*
X370963Y177130D01*
X371120Y177063D01*
X371276Y176992D01*
X371429Y176917D01*
X371581Y176838D01*
X371731Y176756D01*
X371878Y176670D01*
X372024Y176580D01*
X372167Y176487D01*
X372308Y176390D01*
X372446Y176290D01*
X372582Y176187D01*
X372715Y176080D01*
X372846Y175970D01*
X372974Y175857D01*
X373099Y175741D01*
X373221Y175621D01*
X373341Y175499D01*
X373457Y175374D01*
X373570Y175246D01*
X373680Y175115D01*
X373787Y174982D01*
X373890Y174846D01*
X373990Y174708D01*
X374087Y174567D01*
X374180Y174424D01*
X374270Y174278D01*
X374356Y174131D01*
X374438Y173981D01*
X374517Y173829D01*
X374592Y173676D01*
X374663Y173520D01*
X374730Y173363D01*
X374794Y173205D01*
X374853Y173045D01*
X374909Y172883D01*
X374960Y172720D01*
X375008Y172556D01*
X375051Y172391D01*
X375091Y172225D01*
X375126Y172058D01*
X375158Y171890D01*
X375185Y171721D01*
X375208Y171552D01*
X375226Y171382D01*
X375241Y171212D01*
X375252Y171042D01*
X375258Y170871D01*
X375260Y170700D01*
X375258Y170529D01*
X375252Y170358D01*
X375241Y170188D01*
X375226Y170018D01*
X375208Y169848D01*
X375185Y169679D01*
X375158Y169510D01*
X375126Y169342D01*
X375091Y169175D01*
X375051Y169009D01*
X375008Y168844D01*
X374960Y168680D01*
X374909Y168517D01*
X374853Y168355D01*
X374794Y168195D01*
X374730Y168037D01*
X374663Y167880D01*
X374592Y167724D01*
X374517Y167571D01*
X374438Y167419D01*
X374356Y167269D01*
X374270Y167122D01*
X374180Y166976D01*
X374087Y166833D01*
X373990Y166692D01*
X373890Y166554D01*
X373787Y166418D01*
X373680Y166285D01*
X373570Y166154D01*
X373457Y166026D01*
X373341Y165901D01*
X373221Y165779D01*
X373099Y165659D01*
X372974Y165543D01*
X372846Y165430D01*
X372715Y165320D01*
X372582Y165213D01*
X372446Y165110D01*
X372308Y165010D01*
X372167Y164913D01*
X372024Y164820D01*
X371878Y164730D01*
X371731Y164644D01*
X371581Y164562D01*
X371429Y164483D01*
X371276Y164408D01*
X371120Y164337D01*
X370963Y164270D01*
X370805Y164206D01*
X370645Y164147D01*
X370483Y164091D01*
X370320Y164040D01*
X370156Y163992D01*
X369991Y163949D01*
X369825Y163909D01*
X369658Y163874D01*
X369490Y163842D01*
X369321Y163815D01*
X369152Y163792D01*
X368982Y163774D01*
X368812Y163759D01*
X368642Y163748D01*
X368471Y163742D01*
X368300Y163740D01*
X368129Y163742D01*
X367958Y163748D01*
X367788Y163759D01*
X367618Y163774D01*
X367448Y163792D01*
X367279Y163815D01*
X367110Y163842D01*
X366942Y163874D01*
X366775Y163909D01*
X366609Y163949D01*
X366444Y163992D01*
X366280Y164040D01*
X366117Y164091D01*
X365955Y164147D01*
X365795Y164206D01*
X365637Y164270D01*
X365480Y164337D01*
X365324Y164408D01*
X365171Y164483D01*
X365019Y164562D01*
X364869Y164644D01*
X364722Y164730D01*
X364576Y164820D01*
X364433Y164913D01*
X364292Y165010D01*
X364154Y165110D01*
X364018Y165213D01*
X363885Y165320D01*
X363754Y165430D01*
X363626Y165543D01*
X363501Y165659D01*
X363379Y165779D01*
X363259Y165901D01*
X363143Y166026D01*
X363030Y166154D01*
X362920Y166285D01*
X362813Y166418D01*
X362710Y166554D01*
X362610Y166692D01*
X362513Y166833D01*
X362420Y166976D01*
X362330Y167122D01*
X362244Y167269D01*
X362162Y167419D01*
X362083Y167571D01*
X362008Y167724D01*
X361937Y167880D01*
X361870Y168037D01*
X361806Y168195D01*
X361747Y168355D01*
X361691Y168517D01*
X361640Y168680D01*
X361592Y168844D01*
X361549Y169009D01*
X361509Y169175D01*
X361474Y169342D01*
X361442Y169510D01*
X361415Y169679D01*
X361392Y169848D01*
X361374Y170018D01*
X361359Y170188D01*
X361348Y170358D01*
X361342Y170529D01*
X361340Y170700D01*
D34*
X372364Y209550D03*
X364236Y209550D03*
D41*
X335407Y209550D03*
X324993Y209550D03*
D37*
X12700Y419100D03*
X12700Y393700D03*
X12700Y368300D03*
X12700Y342900D03*
X12700Y317500D03*
X546100Y266700D03*
X546100Y292100D03*
X546100Y317500D03*
X546100Y342900D03*
X546100Y368300D03*
X546100Y393700D03*
X571500Y266700D03*
X571500Y292100D03*
X571500Y317500D03*
X571500Y342900D03*
X571500Y368300D03*
X571500Y393700D03*
D42*
X405100Y346900D03*
X462100Y346900D03*
D43*
X478100Y478400D03*
X346600Y488400D03*
D44*
X393200Y449900D03*
X404200Y445900D03*
X415200Y449900D03*
X426200Y451900D03*
X437200Y449900D03*
X448200Y451900D03*
X459200Y449900D03*
X470200Y449900D03*
D37*
X12700Y292100D03*
X12700Y266700D03*
X12700Y241300D03*
D45*
X92100Y469599D03*
X101600Y469599D03*
X111100Y469599D03*
X111100Y495601D03*
X92100Y495601D03*
D13*
X127000Y474100D03*
X127000Y491100D03*
X76200Y491100D03*
X76200Y474100D03*
D37*
X571500Y241300D03*
X571500Y215900D03*
X571500Y190500D03*
X571500Y165100D03*
D46*
X442000Y163000D03*
D13*
X127000Y110100D03*
X127000Y93100D03*
D47*
X146050Y113100D03*
X146050Y90100D03*
D16*
X478400Y38100D03*
X461400Y38100D03*
D48*
X464620Y28890D02*
X464620Y21910D01*
X457640Y21910D01*
X457640Y28890D01*
X464620Y28890D01*
X464620Y26710D02*
X457640Y26710D01*
X482160Y28890D02*
X482160Y21910D01*
X475180Y21910D01*
X475180Y28890D01*
X482160Y28890D01*
X482160Y26710D02*
X475180Y26710D01*
D13*
X139700Y58810D03*
X139700Y75810D03*
X154940Y58810D03*
X154940Y75810D03*
X170180Y58810D03*
X170180Y75810D03*
D49*
X241300Y103200D03*
D50*
X241300Y303200D03*
D51*
X188550Y110700D03*
D52*
X196300Y99700D03*
X196300Y306700D03*
D51*
X264050Y113200D03*
X188550Y115700D03*
X264050Y118200D03*
X188550Y120700D03*
X264050Y123200D03*
X188550Y125700D03*
X264050Y128200D03*
X188550Y130700D03*
X264050Y133200D03*
X188550Y135700D03*
X264050Y138200D03*
X188550Y140700D03*
X264050Y143200D03*
X188550Y145700D03*
X264050Y148200D03*
X188550Y150700D03*
X264050Y153200D03*
X188550Y155700D03*
X264050Y158200D03*
X188550Y160700D03*
X264050Y163200D03*
X188550Y165700D03*
X264050Y188200D03*
X188550Y190700D03*
X264050Y193200D03*
X188550Y195700D03*
X264050Y198200D03*
X188550Y200700D03*
X264050Y203200D03*
X188550Y205700D03*
X264050Y208200D03*
X188550Y210700D03*
X264050Y213200D03*
X188550Y215700D03*
X264050Y218200D03*
X188550Y220700D03*
X264050Y223200D03*
X188550Y225700D03*
X264050Y228200D03*
X188550Y230700D03*
X264050Y233200D03*
X188550Y235700D03*
X264050Y238200D03*
X188550Y240700D03*
X264050Y243200D03*
X188550Y245700D03*
X264050Y248200D03*
X188550Y250700D03*
X264050Y253200D03*
X188550Y255700D03*
X264050Y258200D03*
X188550Y260700D03*
X264050Y263200D03*
X188550Y265700D03*
X264050Y268200D03*
X188550Y270700D03*
X264050Y273200D03*
X188550Y275700D03*
X264050Y278200D03*
X188550Y280700D03*
X264050Y283200D03*
X188550Y285700D03*
X264050Y288200D03*
X188550Y290700D03*
X264050Y293200D03*
X188550Y295700D03*
D53*
X123800Y371950D03*
X104800Y371950D03*
X114300Y350950D03*
D37*
X177800Y38100D03*
D16*
X516500Y38100D03*
X499500Y38100D03*
D48*
X502720Y28890D02*
X502720Y21910D01*
X495740Y21910D01*
X495740Y28890D01*
X502720Y28890D01*
X502720Y26710D02*
X495740Y26710D01*
X520260Y28890D02*
X520260Y21910D01*
X513280Y21910D01*
X513280Y28890D01*
X520260Y28890D01*
X520260Y26710D02*
X513280Y26710D01*
D10*
X674780Y94100D03*
X674780Y99100D03*
D11*
X674780Y69350D03*
X674780Y77100D03*
D10*
X674780Y84100D03*
X674780Y89100D03*
X674780Y109100D03*
X674780Y104100D03*
D11*
X674780Y133850D03*
X674780Y126100D03*
D10*
X674780Y119100D03*
X674780Y114100D03*
D12*
X663730Y130500D03*
X663730Y72700D03*
D13*
X690880Y135500D03*
X690880Y118500D03*
X690880Y67700D03*
X690880Y84700D03*
D14*
X706530Y87850D03*
X713030Y87850D03*
X719530Y87850D03*
X726030Y87850D03*
X726030Y115350D03*
X719530Y115350D03*
X713030Y115350D03*
X706530Y115350D03*
D15*
X716280Y101600D03*
D16*
X707780Y139700D03*
X724780Y139700D03*
D17*
X622300Y7620D03*
X1191260Y514350D03*
D18*
X955080Y106800D03*
X960080Y106800D03*
X960080Y121800D03*
X955080Y121800D03*
D19*
X950080Y121800D03*
X950080Y116800D03*
X950080Y106800D03*
X950080Y111800D03*
X965080Y106800D03*
X965080Y111800D03*
X965080Y116800D03*
X965080Y121800D03*
D13*
X982980Y122800D03*
X982980Y105800D03*
X998220Y122800D03*
X998220Y105800D03*
D20*
X953880Y180800D03*
D21*
X944880Y167800D03*
D20*
X953880Y190800D03*
X935880Y190800D03*
X935880Y180800D03*
D22*
X938255Y167800D02*
X938257Y167963D01*
X938263Y168125D01*
X938273Y168287D01*
X938287Y168449D01*
X938305Y168611D01*
X938327Y168772D01*
X938353Y168933D01*
X938382Y169092D01*
X938416Y169252D01*
X938454Y169410D01*
X938495Y169567D01*
X938540Y169723D01*
X938589Y169878D01*
X938642Y170032D01*
X938699Y170184D01*
X938759Y170335D01*
X938823Y170485D01*
X938891Y170633D01*
X938962Y170779D01*
X939037Y170923D01*
X939116Y171065D01*
X939198Y171206D01*
X939283Y171344D01*
X939372Y171481D01*
X939464Y171615D01*
X939559Y171747D01*
X939657Y171876D01*
X939759Y172003D01*
X939863Y172127D01*
X939971Y172249D01*
X940082Y172368D01*
X940195Y172485D01*
X940312Y172598D01*
X940431Y172709D01*
X940553Y172817D01*
X940677Y172921D01*
X940804Y173023D01*
X940933Y173121D01*
X941065Y173216D01*
X941199Y173308D01*
X941336Y173397D01*
X941474Y173482D01*
X941615Y173564D01*
X941757Y173643D01*
X941901Y173718D01*
X942047Y173789D01*
X942195Y173857D01*
X942345Y173921D01*
X942496Y173981D01*
X942648Y174038D01*
X942802Y174091D01*
X942957Y174140D01*
X943113Y174185D01*
X943270Y174226D01*
X943428Y174264D01*
X943588Y174298D01*
X943747Y174327D01*
X943908Y174353D01*
X944069Y174375D01*
X944231Y174393D01*
X944393Y174407D01*
X944555Y174417D01*
X944717Y174423D01*
X944880Y174425D01*
X945043Y174423D01*
X945205Y174417D01*
X945367Y174407D01*
X945529Y174393D01*
X945691Y174375D01*
X945852Y174353D01*
X946013Y174327D01*
X946172Y174298D01*
X946332Y174264D01*
X946490Y174226D01*
X946647Y174185D01*
X946803Y174140D01*
X946958Y174091D01*
X947112Y174038D01*
X947264Y173981D01*
X947415Y173921D01*
X947565Y173857D01*
X947713Y173789D01*
X947859Y173718D01*
X948003Y173643D01*
X948145Y173564D01*
X948286Y173482D01*
X948424Y173397D01*
X948561Y173308D01*
X948695Y173216D01*
X948827Y173121D01*
X948956Y173023D01*
X949083Y172921D01*
X949207Y172817D01*
X949329Y172709D01*
X949448Y172598D01*
X949565Y172485D01*
X949678Y172368D01*
X949789Y172249D01*
X949897Y172127D01*
X950001Y172003D01*
X950103Y171876D01*
X950201Y171747D01*
X950296Y171615D01*
X950388Y171481D01*
X950477Y171344D01*
X950562Y171206D01*
X950644Y171065D01*
X950723Y170923D01*
X950798Y170779D01*
X950869Y170633D01*
X950937Y170485D01*
X951001Y170335D01*
X951061Y170184D01*
X951118Y170032D01*
X951171Y169878D01*
X951220Y169723D01*
X951265Y169567D01*
X951306Y169410D01*
X951344Y169252D01*
X951378Y169092D01*
X951407Y168933D01*
X951433Y168772D01*
X951455Y168611D01*
X951473Y168449D01*
X951487Y168287D01*
X951497Y168125D01*
X951503Y167963D01*
X951505Y167800D01*
X951503Y167637D01*
X951497Y167475D01*
X951487Y167313D01*
X951473Y167151D01*
X951455Y166989D01*
X951433Y166828D01*
X951407Y166667D01*
X951378Y166508D01*
X951344Y166348D01*
X951306Y166190D01*
X951265Y166033D01*
X951220Y165877D01*
X951171Y165722D01*
X951118Y165568D01*
X951061Y165416D01*
X951001Y165265D01*
X950937Y165115D01*
X950869Y164967D01*
X950798Y164821D01*
X950723Y164677D01*
X950644Y164535D01*
X950562Y164394D01*
X950477Y164256D01*
X950388Y164119D01*
X950296Y163985D01*
X950201Y163853D01*
X950103Y163724D01*
X950001Y163597D01*
X949897Y163473D01*
X949789Y163351D01*
X949678Y163232D01*
X949565Y163115D01*
X949448Y163002D01*
X949329Y162891D01*
X949207Y162783D01*
X949083Y162679D01*
X948956Y162577D01*
X948827Y162479D01*
X948695Y162384D01*
X948561Y162292D01*
X948424Y162203D01*
X948286Y162118D01*
X948145Y162036D01*
X948003Y161957D01*
X947859Y161882D01*
X947713Y161811D01*
X947565Y161743D01*
X947415Y161679D01*
X947264Y161619D01*
X947112Y161562D01*
X946958Y161509D01*
X946803Y161460D01*
X946647Y161415D01*
X946490Y161374D01*
X946332Y161336D01*
X946172Y161302D01*
X946013Y161273D01*
X945852Y161247D01*
X945691Y161225D01*
X945529Y161207D01*
X945367Y161193D01*
X945205Y161183D01*
X945043Y161177D01*
X944880Y161175D01*
X944717Y161177D01*
X944555Y161183D01*
X944393Y161193D01*
X944231Y161207D01*
X944069Y161225D01*
X943908Y161247D01*
X943747Y161273D01*
X943588Y161302D01*
X943428Y161336D01*
X943270Y161374D01*
X943113Y161415D01*
X942957Y161460D01*
X942802Y161509D01*
X942648Y161562D01*
X942496Y161619D01*
X942345Y161679D01*
X942195Y161743D01*
X942047Y161811D01*
X941901Y161882D01*
X941757Y161957D01*
X941615Y162036D01*
X941474Y162118D01*
X941336Y162203D01*
X941199Y162292D01*
X941065Y162384D01*
X940933Y162479D01*
X940804Y162577D01*
X940677Y162679D01*
X940553Y162783D01*
X940431Y162891D01*
X940312Y163002D01*
X940195Y163115D01*
X940082Y163232D01*
X939971Y163351D01*
X939863Y163473D01*
X939759Y163597D01*
X939657Y163724D01*
X939559Y163853D01*
X939464Y163985D01*
X939372Y164119D01*
X939283Y164256D01*
X939198Y164394D01*
X939116Y164535D01*
X939037Y164677D01*
X938962Y164821D01*
X938891Y164967D01*
X938823Y165115D01*
X938759Y165265D01*
X938699Y165416D01*
X938642Y165568D01*
X938589Y165722D01*
X938540Y165877D01*
X938495Y166033D01*
X938454Y166190D01*
X938416Y166348D01*
X938382Y166508D01*
X938353Y166667D01*
X938327Y166828D01*
X938305Y166989D01*
X938287Y167151D01*
X938273Y167313D01*
X938263Y167475D01*
X938257Y167637D01*
X938255Y167800D01*
D23*
X944880Y161300D03*
D24*
X938380Y167800D03*
X951380Y167800D03*
D23*
X944880Y174300D03*
D13*
X1008380Y156600D03*
X1008380Y173600D03*
D25*
X1173480Y495300D03*
X640080Y495300D03*
X1173480Y25400D03*
X640080Y25400D03*
D26*
X900780Y476060D03*
X895780Y476060D03*
X890780Y476060D03*
X885780Y476060D03*
X880780Y476060D03*
X875780Y476060D03*
X870780Y476060D03*
X865780Y476060D03*
X860780Y476060D03*
X855780Y476060D03*
X850780Y476060D03*
X845780Y476060D03*
X840780Y476060D03*
X835780Y476060D03*
X830780Y476060D03*
X825780Y476060D03*
X820780Y476060D03*
X815780Y476060D03*
X810780Y476060D03*
X805780Y476060D03*
X800780Y476060D03*
X795780Y476060D03*
X790780Y476060D03*
X785780Y476060D03*
D27*
X910780Y490060D03*
X775780Y490060D03*
D13*
X944880Y427600D03*
X944880Y410600D03*
D28*
X760180Y285400D03*
D29*
X740480Y335280D03*
X717480Y335280D03*
D16*
X720480Y317500D03*
X737480Y317500D03*
D30*
X1187370Y71060D03*
X1187370Y127060D03*
D31*
X1150620Y84060D03*
X1150620Y94060D03*
X1150620Y104060D03*
X1150620Y114060D03*
D32*
X1109980Y91186D03*
X1109980Y101600D03*
X1109980Y112014D03*
D16*
X1118480Y76200D03*
X1101480Y76200D03*
X1118480Y127000D03*
X1101480Y127000D03*
D33*
X883920Y31750D03*
X828040Y31750D03*
X883920Y69850D03*
X828040Y69850D03*
D16*
X707780Y154940D03*
X724780Y154940D03*
D34*
X648716Y203200D03*
X656844Y203200D03*
D35*
X637780Y177800D03*
X667780Y177800D03*
D36*
X717580Y177800D03*
X689580Y177800D03*
D13*
X767080Y143900D03*
X767080Y160900D03*
X751840Y160900D03*
X751840Y143900D03*
D34*
X716280Y63500D03*
X726440Y63500D03*
D37*
X708660Y63500D03*
X734060Y63500D03*
D38*
X773430Y190500D03*
X773430Y203200D03*
X773430Y215900D03*
X773430Y228600D03*
X773430Y177800D03*
X760730Y190500D03*
X760730Y203200D03*
X760730Y215900D03*
X760730Y228600D03*
X760730Y177800D03*
D33*
X985520Y31750D03*
X929640Y31750D03*
X985520Y69850D03*
X929640Y69850D03*
D39*
X991980Y183220D03*
D38*
X982980Y170700D03*
D39*
X991980Y191440D03*
X973980Y191440D03*
X973980Y183220D03*
X982980Y191440D03*
D40*
X976020Y170700D02*
X976022Y170871D01*
X976028Y171042D01*
X976039Y171212D01*
X976054Y171382D01*
X976072Y171552D01*
X976095Y171721D01*
X976122Y171890D01*
X976154Y172058D01*
X976189Y172225D01*
X976229Y172391D01*
X976272Y172556D01*
X976320Y172720D01*
X976371Y172883D01*
X976427Y173045D01*
X976486Y173205D01*
X976550Y173363D01*
X976617Y173520D01*
X976688Y173676D01*
X976763Y173829D01*
X976842Y173981D01*
X976924Y174131D01*
X977010Y174278D01*
X977100Y174424D01*
X977193Y174567D01*
X977290Y174708D01*
X977390Y174846D01*
X977493Y174982D01*
X977600Y175115D01*
X977710Y175246D01*
X977823Y175374D01*
X977939Y175499D01*
X978059Y175621D01*
X978181Y175741D01*
X978306Y175857D01*
X978434Y175970D01*
X978565Y176080D01*
X978698Y176187D01*
X978834Y176290D01*
X978972Y176390D01*
X979113Y176487D01*
X979256Y176580D01*
X979402Y176670D01*
X979549Y176756D01*
X979699Y176838D01*
X979851Y176917D01*
X980004Y176992D01*
X980160Y177063D01*
X980317Y177130D01*
X980475Y177194D01*
X980635Y177253D01*
X980797Y177309D01*
X980960Y177360D01*
X981124Y177408D01*
X981289Y177451D01*
X981455Y177491D01*
X981622Y177526D01*
X981790Y177558D01*
X981959Y177585D01*
X982128Y177608D01*
X982298Y177626D01*
X982468Y177641D01*
X982638Y177652D01*
X982809Y177658D01*
X982980Y177660D01*
X983151Y177658D01*
X983322Y177652D01*
X983492Y177641D01*
X983662Y177626D01*
X983832Y177608D01*
X984001Y177585D01*
X984170Y177558D01*
X984338Y177526D01*
X984505Y177491D01*
X984671Y177451D01*
X984836Y177408D01*
X985000Y177360D01*
X985163Y177309D01*
X985325Y177253D01*
X985485Y177194D01*
X985643Y177130D01*
X985800Y177063D01*
X985956Y176992D01*
X986109Y176917D01*
X986261Y176838D01*
X986411Y176756D01*
X986558Y176670D01*
X986704Y176580D01*
X986847Y176487D01*
X986988Y176390D01*
X987126Y176290D01*
X987262Y176187D01*
X987395Y176080D01*
X987526Y175970D01*
X987654Y175857D01*
X987779Y175741D01*
X987901Y175621D01*
X988021Y175499D01*
X988137Y175374D01*
X988250Y175246D01*
X988360Y175115D01*
X988467Y174982D01*
X988570Y174846D01*
X988670Y174708D01*
X988767Y174567D01*
X988860Y174424D01*
X988950Y174278D01*
X989036Y174131D01*
X989118Y173981D01*
X989197Y173829D01*
X989272Y173676D01*
X989343Y173520D01*
X989410Y173363D01*
X989474Y173205D01*
X989533Y173045D01*
X989589Y172883D01*
X989640Y172720D01*
X989688Y172556D01*
X989731Y172391D01*
X989771Y172225D01*
X989806Y172058D01*
X989838Y171890D01*
X989865Y171721D01*
X989888Y171552D01*
X989906Y171382D01*
X989921Y171212D01*
X989932Y171042D01*
X989938Y170871D01*
X989940Y170700D01*
X989938Y170529D01*
X989932Y170358D01*
X989921Y170188D01*
X989906Y170018D01*
X989888Y169848D01*
X989865Y169679D01*
X989838Y169510D01*
X989806Y169342D01*
X989771Y169175D01*
X989731Y169009D01*
X989688Y168844D01*
X989640Y168680D01*
X989589Y168517D01*
X989533Y168355D01*
X989474Y168195D01*
X989410Y168037D01*
X989343Y167880D01*
X989272Y167724D01*
X989197Y167571D01*
X989118Y167419D01*
X989036Y167269D01*
X988950Y167122D01*
X988860Y166976D01*
X988767Y166833D01*
X988670Y166692D01*
X988570Y166554D01*
X988467Y166418D01*
X988360Y166285D01*
X988250Y166154D01*
X988137Y166026D01*
X988021Y165901D01*
X987901Y165779D01*
X987779Y165659D01*
X987654Y165543D01*
X987526Y165430D01*
X987395Y165320D01*
X987262Y165213D01*
X987126Y165110D01*
X986988Y165010D01*
X986847Y164913D01*
X986704Y164820D01*
X986558Y164730D01*
X986411Y164644D01*
X986261Y164562D01*
X986109Y164483D01*
X985956Y164408D01*
X985800Y164337D01*
X985643Y164270D01*
X985485Y164206D01*
X985325Y164147D01*
X985163Y164091D01*
X985000Y164040D01*
X984836Y163992D01*
X984671Y163949D01*
X984505Y163909D01*
X984338Y163874D01*
X984170Y163842D01*
X984001Y163815D01*
X983832Y163792D01*
X983662Y163774D01*
X983492Y163759D01*
X983322Y163748D01*
X983151Y163742D01*
X982980Y163740D01*
X982809Y163742D01*
X982638Y163748D01*
X982468Y163759D01*
X982298Y163774D01*
X982128Y163792D01*
X981959Y163815D01*
X981790Y163842D01*
X981622Y163874D01*
X981455Y163909D01*
X981289Y163949D01*
X981124Y163992D01*
X980960Y164040D01*
X980797Y164091D01*
X980635Y164147D01*
X980475Y164206D01*
X980317Y164270D01*
X980160Y164337D01*
X980004Y164408D01*
X979851Y164483D01*
X979699Y164562D01*
X979549Y164644D01*
X979402Y164730D01*
X979256Y164820D01*
X979113Y164913D01*
X978972Y165010D01*
X978834Y165110D01*
X978698Y165213D01*
X978565Y165320D01*
X978434Y165430D01*
X978306Y165543D01*
X978181Y165659D01*
X978059Y165779D01*
X977939Y165901D01*
X977823Y166026D01*
X977710Y166154D01*
X977600Y166285D01*
X977493Y166418D01*
X977390Y166554D01*
X977290Y166692D01*
X977193Y166833D01*
X977100Y166976D01*
X977010Y167122D01*
X976924Y167269D01*
X976842Y167419D01*
X976763Y167571D01*
X976688Y167724D01*
X976617Y167880D01*
X976550Y168037D01*
X976486Y168195D01*
X976427Y168355D01*
X976371Y168517D01*
X976320Y168680D01*
X976272Y168844D01*
X976229Y169009D01*
X976189Y169175D01*
X976154Y169342D01*
X976122Y169510D01*
X976095Y169679D01*
X976072Y169848D01*
X976054Y170018D01*
X976039Y170188D01*
X976028Y170358D01*
X976022Y170529D01*
X976020Y170700D01*
D34*
X987044Y209550D03*
X978916Y209550D03*
D41*
X950087Y209550D03*
X939673Y209550D03*
D37*
X627380Y419100D03*
X627380Y393700D03*
X627380Y368300D03*
X627380Y342900D03*
X627380Y317500D03*
X1160780Y266700D03*
X1160780Y292100D03*
X1160780Y317500D03*
X1160780Y342900D03*
X1160780Y368300D03*
X1160780Y393700D03*
X1186180Y266700D03*
X1186180Y292100D03*
X1186180Y317500D03*
X1186180Y342900D03*
X1186180Y368300D03*
X1186180Y393700D03*
D42*
X1019780Y346900D03*
X1076780Y346900D03*
D43*
X1092780Y478400D03*
X961280Y488400D03*
D44*
X1007880Y449900D03*
X1018880Y445900D03*
X1029880Y449900D03*
X1040880Y451900D03*
X1051880Y449900D03*
X1062880Y451900D03*
X1073880Y449900D03*
X1084880Y449900D03*
D37*
X627380Y292100D03*
X627380Y266700D03*
X627380Y241300D03*
D45*
X706780Y469599D03*
X716280Y469599D03*
X725780Y469599D03*
X725780Y495601D03*
X706780Y495601D03*
D13*
X741680Y474100D03*
X741680Y491100D03*
X690880Y491100D03*
X690880Y474100D03*
D37*
X1186180Y241300D03*
X1186180Y215900D03*
X1186180Y190500D03*
X1186180Y165100D03*
D46*
X1056680Y163000D03*
D13*
X741680Y110100D03*
X741680Y93100D03*
D47*
X760730Y113100D03*
X760730Y90100D03*
D16*
X1093080Y38100D03*
X1076080Y38100D03*
D48*
X1079300Y28890D02*
X1079300Y21910D01*
X1072320Y21910D01*
X1072320Y28890D01*
X1079300Y28890D01*
X1079300Y26710D02*
X1072320Y26710D01*
X1096840Y28890D02*
X1096840Y21910D01*
X1089860Y21910D01*
X1089860Y28890D01*
X1096840Y28890D01*
X1096840Y26710D02*
X1089860Y26710D01*
D13*
X754380Y58810D03*
X754380Y75810D03*
X769620Y58810D03*
X769620Y75810D03*
X784860Y58810D03*
X784860Y75810D03*
D49*
X855980Y103200D03*
D50*
X855980Y303200D03*
D51*
X803230Y110700D03*
D52*
X810980Y99700D03*
X810980Y306700D03*
D51*
X878730Y113200D03*
X803230Y115700D03*
X878730Y118200D03*
X803230Y120700D03*
X878730Y123200D03*
X803230Y125700D03*
X878730Y128200D03*
X803230Y130700D03*
X878730Y133200D03*
X803230Y135700D03*
X878730Y138200D03*
X803230Y140700D03*
X878730Y143200D03*
X803230Y145700D03*
X878730Y148200D03*
X803230Y150700D03*
X878730Y153200D03*
X803230Y155700D03*
X878730Y158200D03*
X803230Y160700D03*
X878730Y163200D03*
X803230Y165700D03*
X878730Y188200D03*
X803230Y190700D03*
X878730Y193200D03*
X803230Y195700D03*
X878730Y198200D03*
X803230Y200700D03*
X878730Y203200D03*
X803230Y205700D03*
X878730Y208200D03*
X803230Y210700D03*
X878730Y213200D03*
X803230Y215700D03*
X878730Y218200D03*
X803230Y220700D03*
X878730Y223200D03*
X803230Y225700D03*
X878730Y228200D03*
X803230Y230700D03*
X878730Y233200D03*
X803230Y235700D03*
X878730Y238200D03*
X803230Y240700D03*
X878730Y243200D03*
X803230Y245700D03*
X878730Y248200D03*
X803230Y250700D03*
X878730Y253200D03*
X803230Y255700D03*
X878730Y258200D03*
X803230Y260700D03*
X878730Y263200D03*
X803230Y265700D03*
X878730Y268200D03*
X803230Y270700D03*
X878730Y273200D03*
X803230Y275700D03*
X878730Y278200D03*
X803230Y280700D03*
X878730Y283200D03*
X803230Y285700D03*
X878730Y288200D03*
X803230Y290700D03*
X878730Y293200D03*
X803230Y295700D03*
D53*
X738480Y371950D03*
X719480Y371950D03*
X728980Y350950D03*
D37*
X792480Y38100D03*
D16*
X1131180Y38100D03*
X1114180Y38100D03*
D48*
X1117400Y28890D02*
X1117400Y21910D01*
X1110420Y21910D01*
X1110420Y28890D01*
X1117400Y28890D01*
X1117400Y26710D02*
X1110420Y26710D01*
X1134940Y28890D02*
X1134940Y21910D01*
X1127960Y21910D01*
X1127960Y28890D01*
X1134940Y28890D01*
X1134940Y26710D02*
X1127960Y26710D01*
D10*
X60100Y619880D03*
X60100Y624880D03*
D11*
X60100Y595130D03*
X60100Y602880D03*
D10*
X60100Y609880D03*
X60100Y614880D03*
X60100Y634880D03*
X60100Y629880D03*
D11*
X60100Y659630D03*
X60100Y651880D03*
D10*
X60100Y644880D03*
X60100Y639880D03*
D12*
X49050Y656280D03*
X49050Y598480D03*
D13*
X76200Y661280D03*
X76200Y644280D03*
X76200Y593480D03*
X76200Y610480D03*
D14*
X91850Y613630D03*
X98350Y613630D03*
X104850Y613630D03*
X111350Y613630D03*
X111350Y641130D03*
X104850Y641130D03*
X98350Y641130D03*
X91850Y641130D03*
D15*
X101600Y627380D03*
D16*
X93100Y665480D03*
X110100Y665480D03*
D17*
X7620Y533400D03*
X576580Y1040130D03*
D18*
X340400Y632580D03*
X345400Y632580D03*
X345400Y647580D03*
X340400Y647580D03*
D19*
X335400Y647580D03*
X335400Y642580D03*
X335400Y632580D03*
X335400Y637580D03*
X350400Y632580D03*
X350400Y637580D03*
X350400Y642580D03*
X350400Y647580D03*
D13*
X368300Y648580D03*
X368300Y631580D03*
X383540Y648580D03*
X383540Y631580D03*
D20*
X339200Y706580D03*
D21*
X330200Y693580D03*
D20*
X339200Y716580D03*
X321200Y716580D03*
X321200Y706580D03*
D22*
X323575Y693580D02*
X323577Y693743D01*
X323583Y693905D01*
X323593Y694067D01*
X323607Y694229D01*
X323625Y694391D01*
X323647Y694552D01*
X323673Y694713D01*
X323702Y694872D01*
X323736Y695032D01*
X323774Y695190D01*
X323815Y695347D01*
X323860Y695503D01*
X323909Y695658D01*
X323962Y695812D01*
X324019Y695964D01*
X324079Y696115D01*
X324143Y696265D01*
X324211Y696413D01*
X324282Y696559D01*
X324357Y696703D01*
X324436Y696845D01*
X324518Y696986D01*
X324603Y697124D01*
X324692Y697261D01*
X324784Y697395D01*
X324879Y697527D01*
X324977Y697656D01*
X325079Y697783D01*
X325183Y697907D01*
X325291Y698029D01*
X325402Y698148D01*
X325515Y698265D01*
X325632Y698378D01*
X325751Y698489D01*
X325873Y698597D01*
X325997Y698701D01*
X326124Y698803D01*
X326253Y698901D01*
X326385Y698996D01*
X326519Y699088D01*
X326656Y699177D01*
X326794Y699262D01*
X326935Y699344D01*
X327077Y699423D01*
X327221Y699498D01*
X327367Y699569D01*
X327515Y699637D01*
X327665Y699701D01*
X327816Y699761D01*
X327968Y699818D01*
X328122Y699871D01*
X328277Y699920D01*
X328433Y699965D01*
X328590Y700006D01*
X328748Y700044D01*
X328908Y700078D01*
X329067Y700107D01*
X329228Y700133D01*
X329389Y700155D01*
X329551Y700173D01*
X329713Y700187D01*
X329875Y700197D01*
X330037Y700203D01*
X330200Y700205D01*
X330363Y700203D01*
X330525Y700197D01*
X330687Y700187D01*
X330849Y700173D01*
X331011Y700155D01*
X331172Y700133D01*
X331333Y700107D01*
X331492Y700078D01*
X331652Y700044D01*
X331810Y700006D01*
X331967Y699965D01*
X332123Y699920D01*
X332278Y699871D01*
X332432Y699818D01*
X332584Y699761D01*
X332735Y699701D01*
X332885Y699637D01*
X333033Y699569D01*
X333179Y699498D01*
X333323Y699423D01*
X333465Y699344D01*
X333606Y699262D01*
X333744Y699177D01*
X333881Y699088D01*
X334015Y698996D01*
X334147Y698901D01*
X334276Y698803D01*
X334403Y698701D01*
X334527Y698597D01*
X334649Y698489D01*
X334768Y698378D01*
X334885Y698265D01*
X334998Y698148D01*
X335109Y698029D01*
X335217Y697907D01*
X335321Y697783D01*
X335423Y697656D01*
X335521Y697527D01*
X335616Y697395D01*
X335708Y697261D01*
X335797Y697124D01*
X335882Y696986D01*
X335964Y696845D01*
X336043Y696703D01*
X336118Y696559D01*
X336189Y696413D01*
X336257Y696265D01*
X336321Y696115D01*
X336381Y695964D01*
X336438Y695812D01*
X336491Y695658D01*
X336540Y695503D01*
X336585Y695347D01*
X336626Y695190D01*
X336664Y695032D01*
X336698Y694872D01*
X336727Y694713D01*
X336753Y694552D01*
X336775Y694391D01*
X336793Y694229D01*
X336807Y694067D01*
X336817Y693905D01*
X336823Y693743D01*
X336825Y693580D01*
X336823Y693417D01*
X336817Y693255D01*
X336807Y693093D01*
X336793Y692931D01*
X336775Y692769D01*
X336753Y692608D01*
X336727Y692447D01*
X336698Y692288D01*
X336664Y692128D01*
X336626Y691970D01*
X336585Y691813D01*
X336540Y691657D01*
X336491Y691502D01*
X336438Y691348D01*
X336381Y691196D01*
X336321Y691045D01*
X336257Y690895D01*
X336189Y690747D01*
X336118Y690601D01*
X336043Y690457D01*
X335964Y690315D01*
X335882Y690174D01*
X335797Y690036D01*
X335708Y689899D01*
X335616Y689765D01*
X335521Y689633D01*
X335423Y689504D01*
X335321Y689377D01*
X335217Y689253D01*
X335109Y689131D01*
X334998Y689012D01*
X334885Y688895D01*
X334768Y688782D01*
X334649Y688671D01*
X334527Y688563D01*
X334403Y688459D01*
X334276Y688357D01*
X334147Y688259D01*
X334015Y688164D01*
X333881Y688072D01*
X333744Y687983D01*
X333606Y687898D01*
X333465Y687816D01*
X333323Y687737D01*
X333179Y687662D01*
X333033Y687591D01*
X332885Y687523D01*
X332735Y687459D01*
X332584Y687399D01*
X332432Y687342D01*
X332278Y687289D01*
X332123Y687240D01*
X331967Y687195D01*
X331810Y687154D01*
X331652Y687116D01*
X331492Y687082D01*
X331333Y687053D01*
X331172Y687027D01*
X331011Y687005D01*
X330849Y686987D01*
X330687Y686973D01*
X330525Y686963D01*
X330363Y686957D01*
X330200Y686955D01*
X330037Y686957D01*
X329875Y686963D01*
X329713Y686973D01*
X329551Y686987D01*
X329389Y687005D01*
X329228Y687027D01*
X329067Y687053D01*
X328908Y687082D01*
X328748Y687116D01*
X328590Y687154D01*
X328433Y687195D01*
X328277Y687240D01*
X328122Y687289D01*
X327968Y687342D01*
X327816Y687399D01*
X327665Y687459D01*
X327515Y687523D01*
X327367Y687591D01*
X327221Y687662D01*
X327077Y687737D01*
X326935Y687816D01*
X326794Y687898D01*
X326656Y687983D01*
X326519Y688072D01*
X326385Y688164D01*
X326253Y688259D01*
X326124Y688357D01*
X325997Y688459D01*
X325873Y688563D01*
X325751Y688671D01*
X325632Y688782D01*
X325515Y688895D01*
X325402Y689012D01*
X325291Y689131D01*
X325183Y689253D01*
X325079Y689377D01*
X324977Y689504D01*
X324879Y689633D01*
X324784Y689765D01*
X324692Y689899D01*
X324603Y690036D01*
X324518Y690174D01*
X324436Y690315D01*
X324357Y690457D01*
X324282Y690601D01*
X324211Y690747D01*
X324143Y690895D01*
X324079Y691045D01*
X324019Y691196D01*
X323962Y691348D01*
X323909Y691502D01*
X323860Y691657D01*
X323815Y691813D01*
X323774Y691970D01*
X323736Y692128D01*
X323702Y692288D01*
X323673Y692447D01*
X323647Y692608D01*
X323625Y692769D01*
X323607Y692931D01*
X323593Y693093D01*
X323583Y693255D01*
X323577Y693417D01*
X323575Y693580D01*
D23*
X330200Y687080D03*
D24*
X323700Y693580D03*
X336700Y693580D03*
D23*
X330200Y700080D03*
D13*
X393700Y682380D03*
X393700Y699380D03*
D25*
X558800Y1021080D03*
X25400Y1021080D03*
X558800Y551180D03*
X25400Y551180D03*
D26*
X286100Y1001840D03*
X281100Y1001840D03*
X276100Y1001840D03*
X271100Y1001840D03*
X266100Y1001840D03*
X261100Y1001840D03*
X256100Y1001840D03*
X251100Y1001840D03*
X246100Y1001840D03*
X241100Y1001840D03*
X236100Y1001840D03*
X231100Y1001840D03*
X226100Y1001840D03*
X221100Y1001840D03*
X216100Y1001840D03*
X211100Y1001840D03*
X206100Y1001840D03*
X201100Y1001840D03*
X196100Y1001840D03*
X191100Y1001840D03*
X186100Y1001840D03*
X181100Y1001840D03*
X176100Y1001840D03*
X171100Y1001840D03*
D27*
X296100Y1015840D03*
X161100Y1015840D03*
D13*
X330200Y953380D03*
X330200Y936380D03*
D28*
X145500Y811180D03*
D29*
X125800Y861060D03*
X102800Y861060D03*
D16*
X105800Y843280D03*
X122800Y843280D03*
D30*
X572690Y596840D03*
X572690Y652840D03*
D31*
X535940Y609840D03*
X535940Y619840D03*
X535940Y629840D03*
X535940Y639840D03*
D32*
X495300Y616966D03*
X495300Y627380D03*
X495300Y637794D03*
D16*
X503800Y601980D03*
X486800Y601980D03*
X503800Y652780D03*
X486800Y652780D03*
D33*
X269240Y557530D03*
X213360Y557530D03*
X269240Y595630D03*
X213360Y595630D03*
D16*
X93100Y680720D03*
X110100Y680720D03*
D34*
X34036Y728980D03*
X42164Y728980D03*
D35*
X23100Y703580D03*
X53100Y703580D03*
D36*
X102900Y703580D03*
X74900Y703580D03*
D13*
X152400Y669680D03*
X152400Y686680D03*
X137160Y686680D03*
X137160Y669680D03*
D34*
X101600Y589280D03*
X111760Y589280D03*
D37*
X93980Y589280D03*
X119380Y589280D03*
D38*
X158750Y716280D03*
X158750Y728980D03*
X158750Y741680D03*
X158750Y754380D03*
X158750Y703580D03*
X146050Y716280D03*
X146050Y728980D03*
X146050Y741680D03*
X146050Y754380D03*
X146050Y703580D03*
D33*
X370840Y557530D03*
X314960Y557530D03*
X370840Y595630D03*
X314960Y595630D03*
D39*
X377300Y709000D03*
D38*
X368300Y696480D03*
D39*
X377300Y717220D03*
X359300Y717220D03*
X359300Y709000D03*
X368300Y717220D03*
D40*
X361340Y696480D02*
X361342Y696651D01*
X361348Y696822D01*
X361359Y696992D01*
X361374Y697162D01*
X361392Y697332D01*
X361415Y697501D01*
X361442Y697670D01*
X361474Y697838D01*
X361509Y698005D01*
X361549Y698171D01*
X361592Y698336D01*
X361640Y698500D01*
X361691Y698663D01*
X361747Y698825D01*
X361806Y698985D01*
X361870Y699143D01*
X361937Y699300D01*
X362008Y699456D01*
X362083Y699609D01*
X362162Y699761D01*
X362244Y699911D01*
X362330Y700058D01*
X362420Y700204D01*
X362513Y700347D01*
X362610Y700488D01*
X362710Y700626D01*
X362813Y700762D01*
X362920Y700895D01*
X363030Y701026D01*
X363143Y701154D01*
X363259Y701279D01*
X363379Y701401D01*
X363501Y701521D01*
X363626Y701637D01*
X363754Y701750D01*
X363885Y701860D01*
X364018Y701967D01*
X364154Y702070D01*
X364292Y702170D01*
X364433Y702267D01*
X364576Y702360D01*
X364722Y702450D01*
X364869Y702536D01*
X365019Y702618D01*
X365171Y702697D01*
X365324Y702772D01*
X365480Y702843D01*
X365637Y702910D01*
X365795Y702974D01*
X365955Y703033D01*
X366117Y703089D01*
X366280Y703140D01*
X366444Y703188D01*
X366609Y703231D01*
X366775Y703271D01*
X366942Y703306D01*
X367110Y703338D01*
X367279Y703365D01*
X367448Y703388D01*
X367618Y703406D01*
X367788Y703421D01*
X367958Y703432D01*
X368129Y703438D01*
X368300Y703440D01*
X368471Y703438D01*
X368642Y703432D01*
X368812Y703421D01*
X368982Y703406D01*
X369152Y703388D01*
X369321Y703365D01*
X369490Y703338D01*
X369658Y703306D01*
X369825Y703271D01*
X369991Y703231D01*
X370156Y703188D01*
X370320Y703140D01*
X370483Y703089D01*
X370645Y703033D01*
X370805Y702974D01*
X370963Y702910D01*
X371120Y702843D01*
X371276Y702772D01*
X371429Y702697D01*
X371581Y702618D01*
X371731Y702536D01*
X371878Y702450D01*
X372024Y702360D01*
X372167Y702267D01*
X372308Y702170D01*
X372446Y702070D01*
X372582Y701967D01*
X372715Y701860D01*
X372846Y701750D01*
X372974Y701637D01*
X373099Y701521D01*
X373221Y701401D01*
X373341Y701279D01*
X373457Y701154D01*
X373570Y701026D01*
X373680Y700895D01*
X373787Y700762D01*
X373890Y700626D01*
X373990Y700488D01*
X374087Y700347D01*
X374180Y700204D01*
X374270Y700058D01*
X374356Y699911D01*
X374438Y699761D01*
X374517Y699609D01*
X374592Y699456D01*
X374663Y699300D01*
X374730Y699143D01*
X374794Y698985D01*
X374853Y698825D01*
X374909Y698663D01*
X374960Y698500D01*
X375008Y698336D01*
X375051Y698171D01*
X375091Y698005D01*
X375126Y697838D01*
X375158Y697670D01*
X375185Y697501D01*
X375208Y697332D01*
X375226Y697162D01*
X375241Y696992D01*
X375252Y696822D01*
X375258Y696651D01*
X375260Y696480D01*
X375258Y696309D01*
X375252Y696138D01*
X375241Y695968D01*
X375226Y695798D01*
X375208Y695628D01*
X375185Y695459D01*
X375158Y695290D01*
X375126Y695122D01*
X375091Y694955D01*
X375051Y694789D01*
X375008Y694624D01*
X374960Y694460D01*
X374909Y694297D01*
X374853Y694135D01*
X374794Y693975D01*
X374730Y693817D01*
X374663Y693660D01*
X374592Y693504D01*
X374517Y693351D01*
X374438Y693199D01*
X374356Y693049D01*
X374270Y692902D01*
X374180Y692756D01*
X374087Y692613D01*
X373990Y692472D01*
X373890Y692334D01*
X373787Y692198D01*
X373680Y692065D01*
X373570Y691934D01*
X373457Y691806D01*
X373341Y691681D01*
X373221Y691559D01*
X373099Y691439D01*
X372974Y691323D01*
X372846Y691210D01*
X372715Y691100D01*
X372582Y690993D01*
X372446Y690890D01*
X372308Y690790D01*
X372167Y690693D01*
X372024Y690600D01*
X371878Y690510D01*
X371731Y690424D01*
X371581Y690342D01*
X371429Y690263D01*
X371276Y690188D01*
X371120Y690117D01*
X370963Y690050D01*
X370805Y689986D01*
X370645Y689927D01*
X370483Y689871D01*
X370320Y689820D01*
X370156Y689772D01*
X369991Y689729D01*
X369825Y689689D01*
X369658Y689654D01*
X369490Y689622D01*
X369321Y689595D01*
X369152Y689572D01*
X368982Y689554D01*
X368812Y689539D01*
X368642Y689528D01*
X368471Y689522D01*
X368300Y689520D01*
X368129Y689522D01*
X367958Y689528D01*
X367788Y689539D01*
X367618Y689554D01*
X367448Y689572D01*
X367279Y689595D01*
X367110Y689622D01*
X366942Y689654D01*
X366775Y689689D01*
X366609Y689729D01*
X366444Y689772D01*
X366280Y689820D01*
X366117Y689871D01*
X365955Y689927D01*
X365795Y689986D01*
X365637Y690050D01*
X365480Y690117D01*
X365324Y690188D01*
X365171Y690263D01*
X365019Y690342D01*
X364869Y690424D01*
X364722Y690510D01*
X364576Y690600D01*
X364433Y690693D01*
X364292Y690790D01*
X364154Y690890D01*
X364018Y690993D01*
X363885Y691100D01*
X363754Y691210D01*
X363626Y691323D01*
X363501Y691439D01*
X363379Y691559D01*
X363259Y691681D01*
X363143Y691806D01*
X363030Y691934D01*
X362920Y692065D01*
X362813Y692198D01*
X362710Y692334D01*
X362610Y692472D01*
X362513Y692613D01*
X362420Y692756D01*
X362330Y692902D01*
X362244Y693049D01*
X362162Y693199D01*
X362083Y693351D01*
X362008Y693504D01*
X361937Y693660D01*
X361870Y693817D01*
X361806Y693975D01*
X361747Y694135D01*
X361691Y694297D01*
X361640Y694460D01*
X361592Y694624D01*
X361549Y694789D01*
X361509Y694955D01*
X361474Y695122D01*
X361442Y695290D01*
X361415Y695459D01*
X361392Y695628D01*
X361374Y695798D01*
X361359Y695968D01*
X361348Y696138D01*
X361342Y696309D01*
X361340Y696480D01*
D34*
X372364Y735330D03*
X364236Y735330D03*
D41*
X335407Y735330D03*
X324993Y735330D03*
D37*
X12700Y944880D03*
X12700Y919480D03*
X12700Y894080D03*
X12700Y868680D03*
X12700Y843280D03*
X546100Y792480D03*
X546100Y817880D03*
X546100Y843280D03*
X546100Y868680D03*
X546100Y894080D03*
X546100Y919480D03*
X571500Y792480D03*
X571500Y817880D03*
X571500Y843280D03*
X571500Y868680D03*
X571500Y894080D03*
X571500Y919480D03*
D42*
X405100Y872680D03*
X462100Y872680D03*
D43*
X478100Y1004180D03*
X346600Y1014180D03*
D44*
X393200Y975680D03*
X404200Y971680D03*
X415200Y975680D03*
X426200Y977680D03*
X437200Y975680D03*
X448200Y977680D03*
X459200Y975680D03*
X470200Y975680D03*
D37*
X12700Y817880D03*
X12700Y792480D03*
X12700Y767080D03*
D45*
X92100Y995379D03*
X101600Y995379D03*
X111100Y995379D03*
X111100Y1021381D03*
X92100Y1021381D03*
D13*
X127000Y999880D03*
X127000Y1016880D03*
X76200Y1016880D03*
X76200Y999880D03*
D37*
X571500Y767080D03*
X571500Y741680D03*
X571500Y716280D03*
X571500Y690880D03*
D46*
X442000Y688780D03*
D13*
X127000Y635880D03*
X127000Y618880D03*
D47*
X146050Y638880D03*
X146050Y615880D03*
D16*
X478400Y563880D03*
X461400Y563880D03*
D48*
X464620Y554670D02*
X464620Y547690D01*
X457640Y547690D01*
X457640Y554670D01*
X464620Y554670D01*
X464620Y552490D02*
X457640Y552490D01*
X482160Y554670D02*
X482160Y547690D01*
X475180Y547690D01*
X475180Y554670D01*
X482160Y554670D01*
X482160Y552490D02*
X475180Y552490D01*
D13*
X139700Y584590D03*
X139700Y601590D03*
X154940Y584590D03*
X154940Y601590D03*
X170180Y584590D03*
X170180Y601590D03*
D49*
X241300Y628980D03*
D50*
X241300Y828980D03*
D51*
X188550Y636480D03*
D52*
X196300Y625480D03*
X196300Y832480D03*
D51*
X264050Y638980D03*
X188550Y641480D03*
X264050Y643980D03*
X188550Y646480D03*
X264050Y648980D03*
X188550Y651480D03*
X264050Y653980D03*
X188550Y656480D03*
X264050Y658980D03*
X188550Y661480D03*
X264050Y663980D03*
X188550Y666480D03*
X264050Y668980D03*
X188550Y671480D03*
X264050Y673980D03*
X188550Y676480D03*
X264050Y678980D03*
X188550Y681480D03*
X264050Y683980D03*
X188550Y686480D03*
X264050Y688980D03*
X188550Y691480D03*
X264050Y713980D03*
X188550Y716480D03*
X264050Y718980D03*
X188550Y721480D03*
X264050Y723980D03*
X188550Y726480D03*
X264050Y728980D03*
X188550Y731480D03*
X264050Y733980D03*
X188550Y736480D03*
X264050Y738980D03*
X188550Y741480D03*
X264050Y743980D03*
X188550Y746480D03*
X264050Y748980D03*
X188550Y751480D03*
X264050Y753980D03*
X188550Y756480D03*
X264050Y758980D03*
X188550Y761480D03*
X264050Y763980D03*
X188550Y766480D03*
X264050Y768980D03*
X188550Y771480D03*
X264050Y773980D03*
X188550Y776480D03*
X264050Y778980D03*
X188550Y781480D03*
X264050Y783980D03*
X188550Y786480D03*
X264050Y788980D03*
X188550Y791480D03*
X264050Y793980D03*
X188550Y796480D03*
X264050Y798980D03*
X188550Y801480D03*
X264050Y803980D03*
X188550Y806480D03*
X264050Y808980D03*
X188550Y811480D03*
X264050Y813980D03*
X188550Y816480D03*
X264050Y818980D03*
X188550Y821480D03*
D53*
X123800Y897730D03*
X104800Y897730D03*
X114300Y876730D03*
D37*
X177800Y563880D03*
D16*
X516500Y563880D03*
X499500Y563880D03*
D48*
X502720Y554670D02*
X502720Y547690D01*
X495740Y547690D01*
X495740Y554670D01*
X502720Y554670D01*
X502720Y552490D02*
X495740Y552490D01*
X520260Y554670D02*
X520260Y547690D01*
X513280Y547690D01*
X513280Y554670D01*
X520260Y554670D01*
X520260Y552490D02*
X513280Y552490D01*
D10*
X674780Y619880D03*
X674780Y624880D03*
D11*
X674780Y595130D03*
X674780Y602880D03*
D10*
X674780Y609880D03*
X674780Y614880D03*
X674780Y634880D03*
X674780Y629880D03*
D11*
X674780Y659630D03*
X674780Y651880D03*
D10*
X674780Y644880D03*
X674780Y639880D03*
D12*
X663730Y656280D03*
X663730Y598480D03*
D13*
X690880Y661280D03*
X690880Y644280D03*
X690880Y593480D03*
X690880Y610480D03*
D14*
X706530Y613630D03*
X713030Y613630D03*
X719530Y613630D03*
X726030Y613630D03*
X726030Y641130D03*
X719530Y641130D03*
X713030Y641130D03*
X706530Y641130D03*
D15*
X716280Y627380D03*
D16*
X707780Y665480D03*
X724780Y665480D03*
D17*
X622300Y533400D03*
X1191260Y1040130D03*
D18*
X955080Y632580D03*
X960080Y632580D03*
X960080Y647580D03*
X955080Y647580D03*
D19*
X950080Y647580D03*
X950080Y642580D03*
X950080Y632580D03*
X950080Y637580D03*
X965080Y632580D03*
X965080Y637580D03*
X965080Y642580D03*
X965080Y647580D03*
D13*
X982980Y648580D03*
X982980Y631580D03*
X998220Y648580D03*
X998220Y631580D03*
D20*
X953880Y706580D03*
D21*
X944880Y693580D03*
D20*
X953880Y716580D03*
X935880Y716580D03*
X935880Y706580D03*
D22*
X938255Y693580D02*
X938257Y693743D01*
X938263Y693905D01*
X938273Y694067D01*
X938287Y694229D01*
X938305Y694391D01*
X938327Y694552D01*
X938353Y694713D01*
X938382Y694872D01*
X938416Y695032D01*
X938454Y695190D01*
X938495Y695347D01*
X938540Y695503D01*
X938589Y695658D01*
X938642Y695812D01*
X938699Y695964D01*
X938759Y696115D01*
X938823Y696265D01*
X938891Y696413D01*
X938962Y696559D01*
X939037Y696703D01*
X939116Y696845D01*
X939198Y696986D01*
X939283Y697124D01*
X939372Y697261D01*
X939464Y697395D01*
X939559Y697527D01*
X939657Y697656D01*
X939759Y697783D01*
X939863Y697907D01*
X939971Y698029D01*
X940082Y698148D01*
X940195Y698265D01*
X940312Y698378D01*
X940431Y698489D01*
X940553Y698597D01*
X940677Y698701D01*
X940804Y698803D01*
X940933Y698901D01*
X941065Y698996D01*
X941199Y699088D01*
X941336Y699177D01*
X941474Y699262D01*
X941615Y699344D01*
X941757Y699423D01*
X941901Y699498D01*
X942047Y699569D01*
X942195Y699637D01*
X942345Y699701D01*
X942496Y699761D01*
X942648Y699818D01*
X942802Y699871D01*
X942957Y699920D01*
X943113Y699965D01*
X943270Y700006D01*
X943428Y700044D01*
X943588Y700078D01*
X943747Y700107D01*
X943908Y700133D01*
X944069Y700155D01*
X944231Y700173D01*
X944393Y700187D01*
X944555Y700197D01*
X944717Y700203D01*
X944880Y700205D01*
X945043Y700203D01*
X945205Y700197D01*
X945367Y700187D01*
X945529Y700173D01*
X945691Y700155D01*
X945852Y700133D01*
X946013Y700107D01*
X946172Y700078D01*
X946332Y700044D01*
X946490Y700006D01*
X946647Y699965D01*
X946803Y699920D01*
X946958Y699871D01*
X947112Y699818D01*
X947264Y699761D01*
X947415Y699701D01*
X947565Y699637D01*
X947713Y699569D01*
X947859Y699498D01*
X948003Y699423D01*
X948145Y699344D01*
X948286Y699262D01*
X948424Y699177D01*
X948561Y699088D01*
X948695Y698996D01*
X948827Y698901D01*
X948956Y698803D01*
X949083Y698701D01*
X949207Y698597D01*
X949329Y698489D01*
X949448Y698378D01*
X949565Y698265D01*
X949678Y698148D01*
X949789Y698029D01*
X949897Y697907D01*
X950001Y697783D01*
X950103Y697656D01*
X950201Y697527D01*
X950296Y697395D01*
X950388Y697261D01*
X950477Y697124D01*
X950562Y696986D01*
X950644Y696845D01*
X950723Y696703D01*
X950798Y696559D01*
X950869Y696413D01*
X950937Y696265D01*
X951001Y696115D01*
X951061Y695964D01*
X951118Y695812D01*
X951171Y695658D01*
X951220Y695503D01*
X951265Y695347D01*
X951306Y695190D01*
X951344Y695032D01*
X951378Y694872D01*
X951407Y694713D01*
X951433Y694552D01*
X951455Y694391D01*
X951473Y694229D01*
X951487Y694067D01*
X951497Y693905D01*
X951503Y693743D01*
X951505Y693580D01*
X951503Y693417D01*
X951497Y693255D01*
X951487Y693093D01*
X951473Y692931D01*
X951455Y692769D01*
X951433Y692608D01*
X951407Y692447D01*
X951378Y692288D01*
X951344Y692128D01*
X951306Y691970D01*
X951265Y691813D01*
X951220Y691657D01*
X951171Y691502D01*
X951118Y691348D01*
X951061Y691196D01*
X951001Y691045D01*
X950937Y690895D01*
X950869Y690747D01*
X950798Y690601D01*
X950723Y690457D01*
X950644Y690315D01*
X950562Y690174D01*
X950477Y690036D01*
X950388Y689899D01*
X950296Y689765D01*
X950201Y689633D01*
X950103Y689504D01*
X950001Y689377D01*
X949897Y689253D01*
X949789Y689131D01*
X949678Y689012D01*
X949565Y688895D01*
X949448Y688782D01*
X949329Y688671D01*
X949207Y688563D01*
X949083Y688459D01*
X948956Y688357D01*
X948827Y688259D01*
X948695Y688164D01*
X948561Y688072D01*
X948424Y687983D01*
X948286Y687898D01*
X948145Y687816D01*
X948003Y687737D01*
X947859Y687662D01*
X947713Y687591D01*
X947565Y687523D01*
X947415Y687459D01*
X947264Y687399D01*
X947112Y687342D01*
X946958Y687289D01*
X946803Y687240D01*
X946647Y687195D01*
X946490Y687154D01*
X946332Y687116D01*
X946172Y687082D01*
X946013Y687053D01*
X945852Y687027D01*
X945691Y687005D01*
X945529Y686987D01*
X945367Y686973D01*
X945205Y686963D01*
X945043Y686957D01*
X944880Y686955D01*
X944717Y686957D01*
X944555Y686963D01*
X944393Y686973D01*
X944231Y686987D01*
X944069Y687005D01*
X943908Y687027D01*
X943747Y687053D01*
X943588Y687082D01*
X943428Y687116D01*
X943270Y687154D01*
X943113Y687195D01*
X942957Y687240D01*
X942802Y687289D01*
X942648Y687342D01*
X942496Y687399D01*
X942345Y687459D01*
X942195Y687523D01*
X942047Y687591D01*
X941901Y687662D01*
X941757Y687737D01*
X941615Y687816D01*
X941474Y687898D01*
X941336Y687983D01*
X941199Y688072D01*
X941065Y688164D01*
X940933Y688259D01*
X940804Y688357D01*
X940677Y688459D01*
X940553Y688563D01*
X940431Y688671D01*
X940312Y688782D01*
X940195Y688895D01*
X940082Y689012D01*
X939971Y689131D01*
X939863Y689253D01*
X939759Y689377D01*
X939657Y689504D01*
X939559Y689633D01*
X939464Y689765D01*
X939372Y689899D01*
X939283Y690036D01*
X939198Y690174D01*
X939116Y690315D01*
X939037Y690457D01*
X938962Y690601D01*
X938891Y690747D01*
X938823Y690895D01*
X938759Y691045D01*
X938699Y691196D01*
X938642Y691348D01*
X938589Y691502D01*
X938540Y691657D01*
X938495Y691813D01*
X938454Y691970D01*
X938416Y692128D01*
X938382Y692288D01*
X938353Y692447D01*
X938327Y692608D01*
X938305Y692769D01*
X938287Y692931D01*
X938273Y693093D01*
X938263Y693255D01*
X938257Y693417D01*
X938255Y693580D01*
D23*
X944880Y687080D03*
D24*
X938380Y693580D03*
X951380Y693580D03*
D23*
X944880Y700080D03*
D13*
X1008380Y682380D03*
X1008380Y699380D03*
D25*
X1173480Y1021080D03*
X640080Y1021080D03*
X1173480Y551180D03*
X640080Y551180D03*
D26*
X900780Y1001840D03*
X895780Y1001840D03*
X890780Y1001840D03*
X885780Y1001840D03*
X880780Y1001840D03*
X875780Y1001840D03*
X870780Y1001840D03*
X865780Y1001840D03*
X860780Y1001840D03*
X855780Y1001840D03*
X850780Y1001840D03*
X845780Y1001840D03*
X840780Y1001840D03*
X835780Y1001840D03*
X830780Y1001840D03*
X825780Y1001840D03*
X820780Y1001840D03*
X815780Y1001840D03*
X810780Y1001840D03*
X805780Y1001840D03*
X800780Y1001840D03*
X795780Y1001840D03*
X790780Y1001840D03*
X785780Y1001840D03*
D27*
X910780Y1015840D03*
X775780Y1015840D03*
D13*
X944880Y953380D03*
X944880Y936380D03*
D28*
X760180Y811180D03*
D29*
X740480Y861060D03*
X717480Y861060D03*
D16*
X720480Y843280D03*
X737480Y843280D03*
D30*
X1187370Y596840D03*
X1187370Y652840D03*
D31*
X1150620Y609840D03*
X1150620Y619840D03*
X1150620Y629840D03*
X1150620Y639840D03*
D32*
X1109980Y616966D03*
X1109980Y627380D03*
X1109980Y637794D03*
D16*
X1118480Y601980D03*
X1101480Y601980D03*
X1118480Y652780D03*
X1101480Y652780D03*
D33*
X883920Y557530D03*
X828040Y557530D03*
X883920Y595630D03*
X828040Y595630D03*
D16*
X707780Y680720D03*
X724780Y680720D03*
D34*
X648716Y728980D03*
X656844Y728980D03*
D35*
X637780Y703580D03*
X667780Y703580D03*
D36*
X717580Y703580D03*
X689580Y703580D03*
D13*
X767080Y669680D03*
X767080Y686680D03*
X751840Y686680D03*
X751840Y669680D03*
D34*
X716280Y589280D03*
X726440Y589280D03*
D37*
X708660Y589280D03*
X734060Y589280D03*
D38*
X773430Y716280D03*
X773430Y728980D03*
X773430Y741680D03*
X773430Y754380D03*
X773430Y703580D03*
X760730Y716280D03*
X760730Y728980D03*
X760730Y741680D03*
X760730Y754380D03*
X760730Y703580D03*
D33*
X985520Y557530D03*
X929640Y557530D03*
X985520Y595630D03*
X929640Y595630D03*
D39*
X991980Y709000D03*
D38*
X982980Y696480D03*
D39*
X991980Y717220D03*
X973980Y717220D03*
X973980Y709000D03*
X982980Y717220D03*
D40*
X976020Y696480D02*
X976022Y696651D01*
X976028Y696822D01*
X976039Y696992D01*
X976054Y697162D01*
X976072Y697332D01*
X976095Y697501D01*
X976122Y697670D01*
X976154Y697838D01*
X976189Y698005D01*
X976229Y698171D01*
X976272Y698336D01*
X976320Y698500D01*
X976371Y698663D01*
X976427Y698825D01*
X976486Y698985D01*
X976550Y699143D01*
X976617Y699300D01*
X976688Y699456D01*
X976763Y699609D01*
X976842Y699761D01*
X976924Y699911D01*
X977010Y700058D01*
X977100Y700204D01*
X977193Y700347D01*
X977290Y700488D01*
X977390Y700626D01*
X977493Y700762D01*
X977600Y700895D01*
X977710Y701026D01*
X977823Y701154D01*
X977939Y701279D01*
X978059Y701401D01*
X978181Y701521D01*
X978306Y701637D01*
X978434Y701750D01*
X978565Y701860D01*
X978698Y701967D01*
X978834Y702070D01*
X978972Y702170D01*
X979113Y702267D01*
X979256Y702360D01*
X979402Y702450D01*
X979549Y702536D01*
X979699Y702618D01*
X979851Y702697D01*
X980004Y702772D01*
X980160Y702843D01*
X980317Y702910D01*
X980475Y702974D01*
X980635Y703033D01*
X980797Y703089D01*
X980960Y703140D01*
X981124Y703188D01*
X981289Y703231D01*
X981455Y703271D01*
X981622Y703306D01*
X981790Y703338D01*
X981959Y703365D01*
X982128Y703388D01*
X982298Y703406D01*
X982468Y703421D01*
X982638Y703432D01*
X982809Y703438D01*
X982980Y703440D01*
X983151Y703438D01*
X983322Y703432D01*
X983492Y703421D01*
X983662Y703406D01*
X983832Y703388D01*
X984001Y703365D01*
X984170Y703338D01*
X984338Y703306D01*
X984505Y703271D01*
X984671Y703231D01*
X984836Y703188D01*
X985000Y703140D01*
X985163Y703089D01*
X985325Y703033D01*
X985485Y702974D01*
X985643Y702910D01*
X985800Y702843D01*
X985956Y702772D01*
X986109Y702697D01*
X986261Y702618D01*
X986411Y702536D01*
X986558Y702450D01*
X986704Y702360D01*
X986847Y702267D01*
X986988Y702170D01*
X987126Y702070D01*
X987262Y701967D01*
X987395Y701860D01*
X987526Y701750D01*
X987654Y701637D01*
X987779Y701521D01*
X987901Y701401D01*
X988021Y701279D01*
X988137Y701154D01*
X988250Y701026D01*
X988360Y700895D01*
X988467Y700762D01*
X988570Y700626D01*
X988670Y700488D01*
X988767Y700347D01*
X988860Y700204D01*
X988950Y700058D01*
X989036Y699911D01*
X989118Y699761D01*
X989197Y699609D01*
X989272Y699456D01*
X989343Y699300D01*
X989410Y699143D01*
X989474Y698985D01*
X989533Y698825D01*
X989589Y698663D01*
X989640Y698500D01*
X989688Y698336D01*
X989731Y698171D01*
X989771Y698005D01*
X989806Y697838D01*
X989838Y697670D01*
X989865Y697501D01*
X989888Y697332D01*
X989906Y697162D01*
X989921Y696992D01*
X989932Y696822D01*
X989938Y696651D01*
X989940Y696480D01*
X989938Y696309D01*
X989932Y696138D01*
X989921Y695968D01*
X989906Y695798D01*
X989888Y695628D01*
X989865Y695459D01*
X989838Y695290D01*
X989806Y695122D01*
X989771Y694955D01*
X989731Y694789D01*
X989688Y694624D01*
X989640Y694460D01*
X989589Y694297D01*
X989533Y694135D01*
X989474Y693975D01*
X989410Y693817D01*
X989343Y693660D01*
X989272Y693504D01*
X989197Y693351D01*
X989118Y693199D01*
X989036Y693049D01*
X988950Y692902D01*
X988860Y692756D01*
X988767Y692613D01*
X988670Y692472D01*
X988570Y692334D01*
X988467Y692198D01*
X988360Y692065D01*
X988250Y691934D01*
X988137Y691806D01*
X988021Y691681D01*
X987901Y691559D01*
X987779Y691439D01*
X987654Y691323D01*
X987526Y691210D01*
X987395Y691100D01*
X987262Y690993D01*
X987126Y690890D01*
X986988Y690790D01*
X986847Y690693D01*
X986704Y690600D01*
X986558Y690510D01*
X986411Y690424D01*
X986261Y690342D01*
X986109Y690263D01*
X985956Y690188D01*
X985800Y690117D01*
X985643Y690050D01*
X985485Y689986D01*
X985325Y689927D01*
X985163Y689871D01*
X985000Y689820D01*
X984836Y689772D01*
X984671Y689729D01*
X984505Y689689D01*
X984338Y689654D01*
X984170Y689622D01*
X984001Y689595D01*
X983832Y689572D01*
X983662Y689554D01*
X983492Y689539D01*
X983322Y689528D01*
X983151Y689522D01*
X982980Y689520D01*
X982809Y689522D01*
X982638Y689528D01*
X982468Y689539D01*
X982298Y689554D01*
X982128Y689572D01*
X981959Y689595D01*
X981790Y689622D01*
X981622Y689654D01*
X981455Y689689D01*
X981289Y689729D01*
X981124Y689772D01*
X980960Y689820D01*
X980797Y689871D01*
X980635Y689927D01*
X980475Y689986D01*
X980317Y690050D01*
X980160Y690117D01*
X980004Y690188D01*
X979851Y690263D01*
X979699Y690342D01*
X979549Y690424D01*
X979402Y690510D01*
X979256Y690600D01*
X979113Y690693D01*
X978972Y690790D01*
X978834Y690890D01*
X978698Y690993D01*
X978565Y691100D01*
X978434Y691210D01*
X978306Y691323D01*
X978181Y691439D01*
X978059Y691559D01*
X977939Y691681D01*
X977823Y691806D01*
X977710Y691934D01*
X977600Y692065D01*
X977493Y692198D01*
X977390Y692334D01*
X977290Y692472D01*
X977193Y692613D01*
X977100Y692756D01*
X977010Y692902D01*
X976924Y693049D01*
X976842Y693199D01*
X976763Y693351D01*
X976688Y693504D01*
X976617Y693660D01*
X976550Y693817D01*
X976486Y693975D01*
X976427Y694135D01*
X976371Y694297D01*
X976320Y694460D01*
X976272Y694624D01*
X976229Y694789D01*
X976189Y694955D01*
X976154Y695122D01*
X976122Y695290D01*
X976095Y695459D01*
X976072Y695628D01*
X976054Y695798D01*
X976039Y695968D01*
X976028Y696138D01*
X976022Y696309D01*
X976020Y696480D01*
D34*
X987044Y735330D03*
X978916Y735330D03*
D41*
X950087Y735330D03*
X939673Y735330D03*
D37*
X627380Y944880D03*
X627380Y919480D03*
X627380Y894080D03*
X627380Y868680D03*
X627380Y843280D03*
X1160780Y792480D03*
X1160780Y817880D03*
X1160780Y843280D03*
X1160780Y868680D03*
X1160780Y894080D03*
X1160780Y919480D03*
X1186180Y792480D03*
X1186180Y817880D03*
X1186180Y843280D03*
X1186180Y868680D03*
X1186180Y894080D03*
X1186180Y919480D03*
D42*
X1019780Y872680D03*
X1076780Y872680D03*
D43*
X1092780Y1004180D03*
X961280Y1014180D03*
D44*
X1007880Y975680D03*
X1018880Y971680D03*
X1029880Y975680D03*
X1040880Y977680D03*
X1051880Y975680D03*
X1062880Y977680D03*
X1073880Y975680D03*
X1084880Y975680D03*
D37*
X627380Y817880D03*
X627380Y792480D03*
X627380Y767080D03*
D45*
X706780Y995379D03*
X716280Y995379D03*
X725780Y995379D03*
X725780Y1021381D03*
X706780Y1021381D03*
D13*
X741680Y999880D03*
X741680Y1016880D03*
X690880Y1016880D03*
X690880Y999880D03*
D37*
X1186180Y767080D03*
X1186180Y741680D03*
X1186180Y716280D03*
X1186180Y690880D03*
D46*
X1056680Y688780D03*
D13*
X741680Y635880D03*
X741680Y618880D03*
D47*
X760730Y638880D03*
X760730Y615880D03*
D16*
X1093080Y563880D03*
X1076080Y563880D03*
D48*
X1079300Y554670D02*
X1079300Y547690D01*
X1072320Y547690D01*
X1072320Y554670D01*
X1079300Y554670D01*
X1079300Y552490D02*
X1072320Y552490D01*
X1096840Y554670D02*
X1096840Y547690D01*
X1089860Y547690D01*
X1089860Y554670D01*
X1096840Y554670D01*
X1096840Y552490D02*
X1089860Y552490D01*
D13*
X754380Y584590D03*
X754380Y601590D03*
X769620Y584590D03*
X769620Y601590D03*
X784860Y584590D03*
X784860Y601590D03*
D49*
X855980Y628980D03*
D50*
X855980Y828980D03*
D51*
X803230Y636480D03*
D52*
X810980Y625480D03*
X810980Y832480D03*
D51*
X878730Y638980D03*
X803230Y641480D03*
X878730Y643980D03*
X803230Y646480D03*
X878730Y648980D03*
X803230Y651480D03*
X878730Y653980D03*
X803230Y656480D03*
X878730Y658980D03*
X803230Y661480D03*
X878730Y663980D03*
X803230Y666480D03*
X878730Y668980D03*
X803230Y671480D03*
X878730Y673980D03*
X803230Y676480D03*
X878730Y678980D03*
X803230Y681480D03*
X878730Y683980D03*
X803230Y686480D03*
X878730Y688980D03*
X803230Y691480D03*
X878730Y713980D03*
X803230Y716480D03*
X878730Y718980D03*
X803230Y721480D03*
X878730Y723980D03*
X803230Y726480D03*
X878730Y728980D03*
X803230Y731480D03*
X878730Y733980D03*
X803230Y736480D03*
X878730Y738980D03*
X803230Y741480D03*
X878730Y743980D03*
X803230Y746480D03*
X878730Y748980D03*
X803230Y751480D03*
X878730Y753980D03*
X803230Y756480D03*
X878730Y758980D03*
X803230Y761480D03*
X878730Y763980D03*
X803230Y766480D03*
X878730Y768980D03*
X803230Y771480D03*
X878730Y773980D03*
X803230Y776480D03*
X878730Y778980D03*
X803230Y781480D03*
X878730Y783980D03*
X803230Y786480D03*
X878730Y788980D03*
X803230Y791480D03*
X878730Y793980D03*
X803230Y796480D03*
X878730Y798980D03*
X803230Y801480D03*
X878730Y803980D03*
X803230Y806480D03*
X878730Y808980D03*
X803230Y811480D03*
X878730Y813980D03*
X803230Y816480D03*
X878730Y818980D03*
X803230Y821480D03*
D53*
X738480Y897730D03*
X719480Y897730D03*
X728980Y876730D03*
D37*
X792480Y563880D03*
D16*
X1131180Y563880D03*
X1114180Y563880D03*
D48*
X1117400Y554670D02*
X1117400Y547690D01*
X1110420Y547690D01*
X1110420Y554670D01*
X1117400Y554670D01*
X1117400Y552490D02*
X1110420Y552490D01*
X1134940Y554670D02*
X1134940Y547690D01*
X1127960Y547690D01*
X1127960Y554670D01*
X1134940Y554670D01*
X1134940Y552490D02*
X1127960Y552490D01*
D10*
X60100Y1145660D03*
X60100Y1150660D03*
D11*
X60100Y1120910D03*
X60100Y1128660D03*
D10*
X60100Y1135660D03*
X60100Y1140660D03*
X60100Y1160660D03*
X60100Y1155660D03*
D11*
X60100Y1185410D03*
X60100Y1177660D03*
D10*
X60100Y1170660D03*
X60100Y1165660D03*
D12*
X49050Y1182060D03*
X49050Y1124260D03*
D13*
X76200Y1187060D03*
X76200Y1170060D03*
X76200Y1119260D03*
X76200Y1136260D03*
D14*
X91850Y1139410D03*
X98350Y1139410D03*
X104850Y1139410D03*
X111350Y1139410D03*
X111350Y1166910D03*
X104850Y1166910D03*
X98350Y1166910D03*
X91850Y1166910D03*
D15*
X101600Y1153160D03*
D16*
X93100Y1191260D03*
X110100Y1191260D03*
D17*
X7620Y1059180D03*
X576580Y1565910D03*
D18*
X340400Y1158360D03*
X345400Y1158360D03*
X345400Y1173360D03*
X340400Y1173360D03*
D19*
X335400Y1173360D03*
X335400Y1168360D03*
X335400Y1158360D03*
X335400Y1163360D03*
X350400Y1158360D03*
X350400Y1163360D03*
X350400Y1168360D03*
X350400Y1173360D03*
D13*
X368300Y1174360D03*
X368300Y1157360D03*
X383540Y1174360D03*
X383540Y1157360D03*
D20*
X339200Y1232360D03*
D21*
X330200Y1219360D03*
D20*
X339200Y1242360D03*
X321200Y1242360D03*
X321200Y1232360D03*
D22*
X323575Y1219360D02*
X323577Y1219523D01*
X323583Y1219685D01*
X323593Y1219847D01*
X323607Y1220009D01*
X323625Y1220171D01*
X323647Y1220332D01*
X323673Y1220493D01*
X323702Y1220652D01*
X323736Y1220812D01*
X323774Y1220970D01*
X323815Y1221127D01*
X323860Y1221283D01*
X323909Y1221438D01*
X323962Y1221592D01*
X324019Y1221744D01*
X324079Y1221895D01*
X324143Y1222045D01*
X324211Y1222193D01*
X324282Y1222339D01*
X324357Y1222483D01*
X324436Y1222625D01*
X324518Y1222766D01*
X324603Y1222904D01*
X324692Y1223041D01*
X324784Y1223175D01*
X324879Y1223307D01*
X324977Y1223436D01*
X325079Y1223563D01*
X325183Y1223687D01*
X325291Y1223809D01*
X325402Y1223928D01*
X325515Y1224045D01*
X325632Y1224158D01*
X325751Y1224269D01*
X325873Y1224377D01*
X325997Y1224481D01*
X326124Y1224583D01*
X326253Y1224681D01*
X326385Y1224776D01*
X326519Y1224868D01*
X326656Y1224957D01*
X326794Y1225042D01*
X326935Y1225124D01*
X327077Y1225203D01*
X327221Y1225278D01*
X327367Y1225349D01*
X327515Y1225417D01*
X327665Y1225481D01*
X327816Y1225541D01*
X327968Y1225598D01*
X328122Y1225651D01*
X328277Y1225700D01*
X328433Y1225745D01*
X328590Y1225786D01*
X328748Y1225824D01*
X328908Y1225858D01*
X329067Y1225887D01*
X329228Y1225913D01*
X329389Y1225935D01*
X329551Y1225953D01*
X329713Y1225967D01*
X329875Y1225977D01*
X330037Y1225983D01*
X330200Y1225985D01*
X330363Y1225983D01*
X330525Y1225977D01*
X330687Y1225967D01*
X330849Y1225953D01*
X331011Y1225935D01*
X331172Y1225913D01*
X331333Y1225887D01*
X331492Y1225858D01*
X331652Y1225824D01*
X331810Y1225786D01*
X331967Y1225745D01*
X332123Y1225700D01*
X332278Y1225651D01*
X332432Y1225598D01*
X332584Y1225541D01*
X332735Y1225481D01*
X332885Y1225417D01*
X333033Y1225349D01*
X333179Y1225278D01*
X333323Y1225203D01*
X333465Y1225124D01*
X333606Y1225042D01*
X333744Y1224957D01*
X333881Y1224868D01*
X334015Y1224776D01*
X334147Y1224681D01*
X334276Y1224583D01*
X334403Y1224481D01*
X334527Y1224377D01*
X334649Y1224269D01*
X334768Y1224158D01*
X334885Y1224045D01*
X334998Y1223928D01*
X335109Y1223809D01*
X335217Y1223687D01*
X335321Y1223563D01*
X335423Y1223436D01*
X335521Y1223307D01*
X335616Y1223175D01*
X335708Y1223041D01*
X335797Y1222904D01*
X335882Y1222766D01*
X335964Y1222625D01*
X336043Y1222483D01*
X336118Y1222339D01*
X336189Y1222193D01*
X336257Y1222045D01*
X336321Y1221895D01*
X336381Y1221744D01*
X336438Y1221592D01*
X336491Y1221438D01*
X336540Y1221283D01*
X336585Y1221127D01*
X336626Y1220970D01*
X336664Y1220812D01*
X336698Y1220652D01*
X336727Y1220493D01*
X336753Y1220332D01*
X336775Y1220171D01*
X336793Y1220009D01*
X336807Y1219847D01*
X336817Y1219685D01*
X336823Y1219523D01*
X336825Y1219360D01*
X336823Y1219197D01*
X336817Y1219035D01*
X336807Y1218873D01*
X336793Y1218711D01*
X336775Y1218549D01*
X336753Y1218388D01*
X336727Y1218227D01*
X336698Y1218068D01*
X336664Y1217908D01*
X336626Y1217750D01*
X336585Y1217593D01*
X336540Y1217437D01*
X336491Y1217282D01*
X336438Y1217128D01*
X336381Y1216976D01*
X336321Y1216825D01*
X336257Y1216675D01*
X336189Y1216527D01*
X336118Y1216381D01*
X336043Y1216237D01*
X335964Y1216095D01*
X335882Y1215954D01*
X335797Y1215816D01*
X335708Y1215679D01*
X335616Y1215545D01*
X335521Y1215413D01*
X335423Y1215284D01*
X335321Y1215157D01*
X335217Y1215033D01*
X335109Y1214911D01*
X334998Y1214792D01*
X334885Y1214675D01*
X334768Y1214562D01*
X334649Y1214451D01*
X334527Y1214343D01*
X334403Y1214239D01*
X334276Y1214137D01*
X334147Y1214039D01*
X334015Y1213944D01*
X333881Y1213852D01*
X333744Y1213763D01*
X333606Y1213678D01*
X333465Y1213596D01*
X333323Y1213517D01*
X333179Y1213442D01*
X333033Y1213371D01*
X332885Y1213303D01*
X332735Y1213239D01*
X332584Y1213179D01*
X332432Y1213122D01*
X332278Y1213069D01*
X332123Y1213020D01*
X331967Y1212975D01*
X331810Y1212934D01*
X331652Y1212896D01*
X331492Y1212862D01*
X331333Y1212833D01*
X331172Y1212807D01*
X331011Y1212785D01*
X330849Y1212767D01*
X330687Y1212753D01*
X330525Y1212743D01*
X330363Y1212737D01*
X330200Y1212735D01*
X330037Y1212737D01*
X329875Y1212743D01*
X329713Y1212753D01*
X329551Y1212767D01*
X329389Y1212785D01*
X329228Y1212807D01*
X329067Y1212833D01*
X328908Y1212862D01*
X328748Y1212896D01*
X328590Y1212934D01*
X328433Y1212975D01*
X328277Y1213020D01*
X328122Y1213069D01*
X327968Y1213122D01*
X327816Y1213179D01*
X327665Y1213239D01*
X327515Y1213303D01*
X327367Y1213371D01*
X327221Y1213442D01*
X327077Y1213517D01*
X326935Y1213596D01*
X326794Y1213678D01*
X326656Y1213763D01*
X326519Y1213852D01*
X326385Y1213944D01*
X326253Y1214039D01*
X326124Y1214137D01*
X325997Y1214239D01*
X325873Y1214343D01*
X325751Y1214451D01*
X325632Y1214562D01*
X325515Y1214675D01*
X325402Y1214792D01*
X325291Y1214911D01*
X325183Y1215033D01*
X325079Y1215157D01*
X324977Y1215284D01*
X324879Y1215413D01*
X324784Y1215545D01*
X324692Y1215679D01*
X324603Y1215816D01*
X324518Y1215954D01*
X324436Y1216095D01*
X324357Y1216237D01*
X324282Y1216381D01*
X324211Y1216527D01*
X324143Y1216675D01*
X324079Y1216825D01*
X324019Y1216976D01*
X323962Y1217128D01*
X323909Y1217282D01*
X323860Y1217437D01*
X323815Y1217593D01*
X323774Y1217750D01*
X323736Y1217908D01*
X323702Y1218068D01*
X323673Y1218227D01*
X323647Y1218388D01*
X323625Y1218549D01*
X323607Y1218711D01*
X323593Y1218873D01*
X323583Y1219035D01*
X323577Y1219197D01*
X323575Y1219360D01*
D23*
X330200Y1212860D03*
D24*
X323700Y1219360D03*
X336700Y1219360D03*
D23*
X330200Y1225860D03*
D13*
X393700Y1208160D03*
X393700Y1225160D03*
D25*
X558800Y1546860D03*
X25400Y1546860D03*
X558800Y1076960D03*
X25400Y1076960D03*
D26*
X286100Y1527620D03*
X281100Y1527620D03*
X276100Y1527620D03*
X271100Y1527620D03*
X266100Y1527620D03*
X261100Y1527620D03*
X256100Y1527620D03*
X251100Y1527620D03*
X246100Y1527620D03*
X241100Y1527620D03*
X236100Y1527620D03*
X231100Y1527620D03*
X226100Y1527620D03*
X221100Y1527620D03*
X216100Y1527620D03*
X211100Y1527620D03*
X206100Y1527620D03*
X201100Y1527620D03*
X196100Y1527620D03*
X191100Y1527620D03*
X186100Y1527620D03*
X181100Y1527620D03*
X176100Y1527620D03*
X171100Y1527620D03*
D27*
X296100Y1541620D03*
X161100Y1541620D03*
D13*
X330200Y1479160D03*
X330200Y1462160D03*
D28*
X145500Y1336960D03*
D29*
X125800Y1386840D03*
X102800Y1386840D03*
D16*
X105800Y1369060D03*
X122800Y1369060D03*
D30*
X572690Y1122620D03*
X572690Y1178620D03*
D31*
X535940Y1135620D03*
X535940Y1145620D03*
X535940Y1155620D03*
X535940Y1165620D03*
D32*
X495300Y1142746D03*
X495300Y1153160D03*
X495300Y1163574D03*
D16*
X503800Y1127760D03*
X486800Y1127760D03*
X503800Y1178560D03*
X486800Y1178560D03*
D33*
X269240Y1083310D03*
X213360Y1083310D03*
X269240Y1121410D03*
X213360Y1121410D03*
D16*
X93100Y1206500D03*
X110100Y1206500D03*
D34*
X34036Y1254760D03*
X42164Y1254760D03*
D35*
X23100Y1229360D03*
X53100Y1229360D03*
D36*
X102900Y1229360D03*
X74900Y1229360D03*
D13*
X152400Y1195460D03*
X152400Y1212460D03*
X137160Y1212460D03*
X137160Y1195460D03*
D34*
X101600Y1115060D03*
X111760Y1115060D03*
D37*
X93980Y1115060D03*
X119380Y1115060D03*
D38*
X158750Y1242060D03*
X158750Y1254760D03*
X158750Y1267460D03*
X158750Y1280160D03*
X158750Y1229360D03*
X146050Y1242060D03*
X146050Y1254760D03*
X146050Y1267460D03*
X146050Y1280160D03*
X146050Y1229360D03*
D33*
X370840Y1083310D03*
X314960Y1083310D03*
X370840Y1121410D03*
X314960Y1121410D03*
D39*
X377300Y1234780D03*
D38*
X368300Y1222260D03*
D39*
X377300Y1243000D03*
X359300Y1243000D03*
X359300Y1234780D03*
X368300Y1243000D03*
D40*
X361340Y1222260D02*
X361342Y1222431D01*
X361348Y1222602D01*
X361359Y1222772D01*
X361374Y1222942D01*
X361392Y1223112D01*
X361415Y1223281D01*
X361442Y1223450D01*
X361474Y1223618D01*
X361509Y1223785D01*
X361549Y1223951D01*
X361592Y1224116D01*
X361640Y1224280D01*
X361691Y1224443D01*
X361747Y1224605D01*
X361806Y1224765D01*
X361870Y1224923D01*
X361937Y1225080D01*
X362008Y1225236D01*
X362083Y1225389D01*
X362162Y1225541D01*
X362244Y1225691D01*
X362330Y1225838D01*
X362420Y1225984D01*
X362513Y1226127D01*
X362610Y1226268D01*
X362710Y1226406D01*
X362813Y1226542D01*
X362920Y1226675D01*
X363030Y1226806D01*
X363143Y1226934D01*
X363259Y1227059D01*
X363379Y1227181D01*
X363501Y1227301D01*
X363626Y1227417D01*
X363754Y1227530D01*
X363885Y1227640D01*
X364018Y1227747D01*
X364154Y1227850D01*
X364292Y1227950D01*
X364433Y1228047D01*
X364576Y1228140D01*
X364722Y1228230D01*
X364869Y1228316D01*
X365019Y1228398D01*
X365171Y1228477D01*
X365324Y1228552D01*
X365480Y1228623D01*
X365637Y1228690D01*
X365795Y1228754D01*
X365955Y1228813D01*
X366117Y1228869D01*
X366280Y1228920D01*
X366444Y1228968D01*
X366609Y1229011D01*
X366775Y1229051D01*
X366942Y1229086D01*
X367110Y1229118D01*
X367279Y1229145D01*
X367448Y1229168D01*
X367618Y1229186D01*
X367788Y1229201D01*
X367958Y1229212D01*
X368129Y1229218D01*
X368300Y1229220D01*
X368471Y1229218D01*
X368642Y1229212D01*
X368812Y1229201D01*
X368982Y1229186D01*
X369152Y1229168D01*
X369321Y1229145D01*
X369490Y1229118D01*
X369658Y1229086D01*
X369825Y1229051D01*
X369991Y1229011D01*
X370156Y1228968D01*
X370320Y1228920D01*
X370483Y1228869D01*
X370645Y1228813D01*
X370805Y1228754D01*
X370963Y1228690D01*
X371120Y1228623D01*
X371276Y1228552D01*
X371429Y1228477D01*
X371581Y1228398D01*
X371731Y1228316D01*
X371878Y1228230D01*
X372024Y1228140D01*
X372167Y1228047D01*
X372308Y1227950D01*
X372446Y1227850D01*
X372582Y1227747D01*
X372715Y1227640D01*
X372846Y1227530D01*
X372974Y1227417D01*
X373099Y1227301D01*
X373221Y1227181D01*
X373341Y1227059D01*
X373457Y1226934D01*
X373570Y1226806D01*
X373680Y1226675D01*
X373787Y1226542D01*
X373890Y1226406D01*
X373990Y1226268D01*
X374087Y1226127D01*
X374180Y1225984D01*
X374270Y1225838D01*
X374356Y1225691D01*
X374438Y1225541D01*
X374517Y1225389D01*
X374592Y1225236D01*
X374663Y1225080D01*
X374730Y1224923D01*
X374794Y1224765D01*
X374853Y1224605D01*
X374909Y1224443D01*
X374960Y1224280D01*
X375008Y1224116D01*
X375051Y1223951D01*
X375091Y1223785D01*
X375126Y1223618D01*
X375158Y1223450D01*
X375185Y1223281D01*
X375208Y1223112D01*
X375226Y1222942D01*
X375241Y1222772D01*
X375252Y1222602D01*
X375258Y1222431D01*
X375260Y1222260D01*
X375258Y1222089D01*
X375252Y1221918D01*
X375241Y1221748D01*
X375226Y1221578D01*
X375208Y1221408D01*
X375185Y1221239D01*
X375158Y1221070D01*
X375126Y1220902D01*
X375091Y1220735D01*
X375051Y1220569D01*
X375008Y1220404D01*
X374960Y1220240D01*
X374909Y1220077D01*
X374853Y1219915D01*
X374794Y1219755D01*
X374730Y1219597D01*
X374663Y1219440D01*
X374592Y1219284D01*
X374517Y1219131D01*
X374438Y1218979D01*
X374356Y1218829D01*
X374270Y1218682D01*
X374180Y1218536D01*
X374087Y1218393D01*
X373990Y1218252D01*
X373890Y1218114D01*
X373787Y1217978D01*
X373680Y1217845D01*
X373570Y1217714D01*
X373457Y1217586D01*
X373341Y1217461D01*
X373221Y1217339D01*
X373099Y1217219D01*
X372974Y1217103D01*
X372846Y1216990D01*
X372715Y1216880D01*
X372582Y1216773D01*
X372446Y1216670D01*
X372308Y1216570D01*
X372167Y1216473D01*
X372024Y1216380D01*
X371878Y1216290D01*
X371731Y1216204D01*
X371581Y1216122D01*
X371429Y1216043D01*
X371276Y1215968D01*
X371120Y1215897D01*
X370963Y1215830D01*
X370805Y1215766D01*
X370645Y1215707D01*
X370483Y1215651D01*
X370320Y1215600D01*
X370156Y1215552D01*
X369991Y1215509D01*
X369825Y1215469D01*
X369658Y1215434D01*
X369490Y1215402D01*
X369321Y1215375D01*
X369152Y1215352D01*
X368982Y1215334D01*
X368812Y1215319D01*
X368642Y1215308D01*
X368471Y1215302D01*
X368300Y1215300D01*
X368129Y1215302D01*
X367958Y1215308D01*
X367788Y1215319D01*
X367618Y1215334D01*
X367448Y1215352D01*
X367279Y1215375D01*
X367110Y1215402D01*
X366942Y1215434D01*
X366775Y1215469D01*
X366609Y1215509D01*
X366444Y1215552D01*
X366280Y1215600D01*
X366117Y1215651D01*
X365955Y1215707D01*
X365795Y1215766D01*
X365637Y1215830D01*
X365480Y1215897D01*
X365324Y1215968D01*
X365171Y1216043D01*
X365019Y1216122D01*
X364869Y1216204D01*
X364722Y1216290D01*
X364576Y1216380D01*
X364433Y1216473D01*
X364292Y1216570D01*
X364154Y1216670D01*
X364018Y1216773D01*
X363885Y1216880D01*
X363754Y1216990D01*
X363626Y1217103D01*
X363501Y1217219D01*
X363379Y1217339D01*
X363259Y1217461D01*
X363143Y1217586D01*
X363030Y1217714D01*
X362920Y1217845D01*
X362813Y1217978D01*
X362710Y1218114D01*
X362610Y1218252D01*
X362513Y1218393D01*
X362420Y1218536D01*
X362330Y1218682D01*
X362244Y1218829D01*
X362162Y1218979D01*
X362083Y1219131D01*
X362008Y1219284D01*
X361937Y1219440D01*
X361870Y1219597D01*
X361806Y1219755D01*
X361747Y1219915D01*
X361691Y1220077D01*
X361640Y1220240D01*
X361592Y1220404D01*
X361549Y1220569D01*
X361509Y1220735D01*
X361474Y1220902D01*
X361442Y1221070D01*
X361415Y1221239D01*
X361392Y1221408D01*
X361374Y1221578D01*
X361359Y1221748D01*
X361348Y1221918D01*
X361342Y1222089D01*
X361340Y1222260D01*
D34*
X372364Y1261110D03*
X364236Y1261110D03*
D41*
X335407Y1261110D03*
X324993Y1261110D03*
D37*
X12700Y1470660D03*
X12700Y1445260D03*
X12700Y1419860D03*
X12700Y1394460D03*
X12700Y1369060D03*
X546100Y1318260D03*
X546100Y1343660D03*
X546100Y1369060D03*
X546100Y1394460D03*
X546100Y1419860D03*
X546100Y1445260D03*
X571500Y1318260D03*
X571500Y1343660D03*
X571500Y1369060D03*
X571500Y1394460D03*
X571500Y1419860D03*
X571500Y1445260D03*
D42*
X405100Y1398460D03*
X462100Y1398460D03*
D43*
X478100Y1529960D03*
X346600Y1539960D03*
D44*
X393200Y1501460D03*
X404200Y1497460D03*
X415200Y1501460D03*
X426200Y1503460D03*
X437200Y1501460D03*
X448200Y1503460D03*
X459200Y1501460D03*
X470200Y1501460D03*
D37*
X12700Y1343660D03*
X12700Y1318260D03*
X12700Y1292860D03*
D45*
X92100Y1521159D03*
X101600Y1521159D03*
X111100Y1521159D03*
X111100Y1547161D03*
X92100Y1547161D03*
D13*
X127000Y1525660D03*
X127000Y1542660D03*
X76200Y1542660D03*
X76200Y1525660D03*
D37*
X571500Y1292860D03*
X571500Y1267460D03*
X571500Y1242060D03*
X571500Y1216660D03*
D46*
X442000Y1214560D03*
D13*
X127000Y1161660D03*
X127000Y1144660D03*
D47*
X146050Y1164660D03*
X146050Y1141660D03*
D16*
X478400Y1089660D03*
X461400Y1089660D03*
D48*
X464620Y1080450D02*
X464620Y1073470D01*
X457640Y1073470D01*
X457640Y1080450D01*
X464620Y1080450D01*
X464620Y1078270D02*
X457640Y1078270D01*
X482160Y1080450D02*
X482160Y1073470D01*
X475180Y1073470D01*
X475180Y1080450D01*
X482160Y1080450D01*
X482160Y1078270D02*
X475180Y1078270D01*
D13*
X139700Y1110370D03*
X139700Y1127370D03*
X154940Y1110370D03*
X154940Y1127370D03*
X170180Y1110370D03*
X170180Y1127370D03*
D49*
X241300Y1154760D03*
D50*
X241300Y1354760D03*
D51*
X188550Y1162260D03*
D52*
X196300Y1151260D03*
X196300Y1358260D03*
D51*
X264050Y1164760D03*
X188550Y1167260D03*
X264050Y1169760D03*
X188550Y1172260D03*
X264050Y1174760D03*
X188550Y1177260D03*
X264050Y1179760D03*
X188550Y1182260D03*
X264050Y1184760D03*
X188550Y1187260D03*
X264050Y1189760D03*
X188550Y1192260D03*
X264050Y1194760D03*
X188550Y1197260D03*
X264050Y1199760D03*
X188550Y1202260D03*
X264050Y1204760D03*
X188550Y1207260D03*
X264050Y1209760D03*
X188550Y1212260D03*
X264050Y1214760D03*
X188550Y1217260D03*
X264050Y1239760D03*
X188550Y1242260D03*
X264050Y1244760D03*
X188550Y1247260D03*
X264050Y1249760D03*
X188550Y1252260D03*
X264050Y1254760D03*
X188550Y1257260D03*
X264050Y1259760D03*
X188550Y1262260D03*
X264050Y1264760D03*
X188550Y1267260D03*
X264050Y1269760D03*
X188550Y1272260D03*
X264050Y1274760D03*
X188550Y1277260D03*
X264050Y1279760D03*
X188550Y1282260D03*
X264050Y1284760D03*
X188550Y1287260D03*
X264050Y1289760D03*
X188550Y1292260D03*
X264050Y1294760D03*
X188550Y1297260D03*
X264050Y1299760D03*
X188550Y1302260D03*
X264050Y1304760D03*
X188550Y1307260D03*
X264050Y1309760D03*
X188550Y1312260D03*
X264050Y1314760D03*
X188550Y1317260D03*
X264050Y1319760D03*
X188550Y1322260D03*
X264050Y1324760D03*
X188550Y1327260D03*
X264050Y1329760D03*
X188550Y1332260D03*
X264050Y1334760D03*
X188550Y1337260D03*
X264050Y1339760D03*
X188550Y1342260D03*
X264050Y1344760D03*
X188550Y1347260D03*
D53*
X123800Y1423510D03*
X104800Y1423510D03*
X114300Y1402510D03*
D37*
X177800Y1089660D03*
D16*
X516500Y1089660D03*
X499500Y1089660D03*
D48*
X502720Y1080450D02*
X502720Y1073470D01*
X495740Y1073470D01*
X495740Y1080450D01*
X502720Y1080450D01*
X502720Y1078270D02*
X495740Y1078270D01*
X520260Y1080450D02*
X520260Y1073470D01*
X513280Y1073470D01*
X513280Y1080450D01*
X520260Y1080450D01*
X520260Y1078270D02*
X513280Y1078270D01*
D10*
X674780Y1145660D03*
X674780Y1150660D03*
D11*
X674780Y1120910D03*
X674780Y1128660D03*
D10*
X674780Y1135660D03*
X674780Y1140660D03*
X674780Y1160660D03*
X674780Y1155660D03*
D11*
X674780Y1185410D03*
X674780Y1177660D03*
D10*
X674780Y1170660D03*
X674780Y1165660D03*
D12*
X663730Y1182060D03*
X663730Y1124260D03*
D13*
X690880Y1187060D03*
X690880Y1170060D03*
X690880Y1119260D03*
X690880Y1136260D03*
D14*
X706530Y1139410D03*
X713030Y1139410D03*
X719530Y1139410D03*
X726030Y1139410D03*
X726030Y1166910D03*
X719530Y1166910D03*
X713030Y1166910D03*
X706530Y1166910D03*
D15*
X716280Y1153160D03*
D16*
X707780Y1191260D03*
X724780Y1191260D03*
D17*
X622300Y1059180D03*
X1191260Y1565910D03*
D18*
X955080Y1158360D03*
X960080Y1158360D03*
X960080Y1173360D03*
X955080Y1173360D03*
D19*
X950080Y1173360D03*
X950080Y1168360D03*
X950080Y1158360D03*
X950080Y1163360D03*
X965080Y1158360D03*
X965080Y1163360D03*
X965080Y1168360D03*
X965080Y1173360D03*
D13*
X982980Y1174360D03*
X982980Y1157360D03*
X998220Y1174360D03*
X998220Y1157360D03*
D20*
X953880Y1232360D03*
D21*
X944880Y1219360D03*
D20*
X953880Y1242360D03*
X935880Y1242360D03*
X935880Y1232360D03*
D22*
X938255Y1219360D02*
X938257Y1219523D01*
X938263Y1219685D01*
X938273Y1219847D01*
X938287Y1220009D01*
X938305Y1220171D01*
X938327Y1220332D01*
X938353Y1220493D01*
X938382Y1220652D01*
X938416Y1220812D01*
X938454Y1220970D01*
X938495Y1221127D01*
X938540Y1221283D01*
X938589Y1221438D01*
X938642Y1221592D01*
X938699Y1221744D01*
X938759Y1221895D01*
X938823Y1222045D01*
X938891Y1222193D01*
X938962Y1222339D01*
X939037Y1222483D01*
X939116Y1222625D01*
X939198Y1222766D01*
X939283Y1222904D01*
X939372Y1223041D01*
X939464Y1223175D01*
X939559Y1223307D01*
X939657Y1223436D01*
X939759Y1223563D01*
X939863Y1223687D01*
X939971Y1223809D01*
X940082Y1223928D01*
X940195Y1224045D01*
X940312Y1224158D01*
X940431Y1224269D01*
X940553Y1224377D01*
X940677Y1224481D01*
X940804Y1224583D01*
X940933Y1224681D01*
X941065Y1224776D01*
X941199Y1224868D01*
X941336Y1224957D01*
X941474Y1225042D01*
X941615Y1225124D01*
X941757Y1225203D01*
X941901Y1225278D01*
X942047Y1225349D01*
X942195Y1225417D01*
X942345Y1225481D01*
X942496Y1225541D01*
X942648Y1225598D01*
X942802Y1225651D01*
X942957Y1225700D01*
X943113Y1225745D01*
X943270Y1225786D01*
X943428Y1225824D01*
X943588Y1225858D01*
X943747Y1225887D01*
X943908Y1225913D01*
X944069Y1225935D01*
X944231Y1225953D01*
X944393Y1225967D01*
X944555Y1225977D01*
X944717Y1225983D01*
X944880Y1225985D01*
X945043Y1225983D01*
X945205Y1225977D01*
X945367Y1225967D01*
X945529Y1225953D01*
X945691Y1225935D01*
X945852Y1225913D01*
X946013Y1225887D01*
X946172Y1225858D01*
X946332Y1225824D01*
X946490Y1225786D01*
X946647Y1225745D01*
X946803Y1225700D01*
X946958Y1225651D01*
X947112Y1225598D01*
X947264Y1225541D01*
X947415Y1225481D01*
X947565Y1225417D01*
X947713Y1225349D01*
X947859Y1225278D01*
X948003Y1225203D01*
X948145Y1225124D01*
X948286Y1225042D01*
X948424Y1224957D01*
X948561Y1224868D01*
X948695Y1224776D01*
X948827Y1224681D01*
X948956Y1224583D01*
X949083Y1224481D01*
X949207Y1224377D01*
X949329Y1224269D01*
X949448Y1224158D01*
X949565Y1224045D01*
X949678Y1223928D01*
X949789Y1223809D01*
X949897Y1223687D01*
X950001Y1223563D01*
X950103Y1223436D01*
X950201Y1223307D01*
X950296Y1223175D01*
X950388Y1223041D01*
X950477Y1222904D01*
X950562Y1222766D01*
X950644Y1222625D01*
X950723Y1222483D01*
X950798Y1222339D01*
X950869Y1222193D01*
X950937Y1222045D01*
X951001Y1221895D01*
X951061Y1221744D01*
X951118Y1221592D01*
X951171Y1221438D01*
X951220Y1221283D01*
X951265Y1221127D01*
X951306Y1220970D01*
X951344Y1220812D01*
X951378Y1220652D01*
X951407Y1220493D01*
X951433Y1220332D01*
X951455Y1220171D01*
X951473Y1220009D01*
X951487Y1219847D01*
X951497Y1219685D01*
X951503Y1219523D01*
X951505Y1219360D01*
X951503Y1219197D01*
X951497Y1219035D01*
X951487Y1218873D01*
X951473Y1218711D01*
X951455Y1218549D01*
X951433Y1218388D01*
X951407Y1218227D01*
X951378Y1218068D01*
X951344Y1217908D01*
X951306Y1217750D01*
X951265Y1217593D01*
X951220Y1217437D01*
X951171Y1217282D01*
X951118Y1217128D01*
X951061Y1216976D01*
X951001Y1216825D01*
X950937Y1216675D01*
X950869Y1216527D01*
X950798Y1216381D01*
X950723Y1216237D01*
X950644Y1216095D01*
X950562Y1215954D01*
X950477Y1215816D01*
X950388Y1215679D01*
X950296Y1215545D01*
X950201Y1215413D01*
X950103Y1215284D01*
X950001Y1215157D01*
X949897Y1215033D01*
X949789Y1214911D01*
X949678Y1214792D01*
X949565Y1214675D01*
X949448Y1214562D01*
X949329Y1214451D01*
X949207Y1214343D01*
X949083Y1214239D01*
X948956Y1214137D01*
X948827Y1214039D01*
X948695Y1213944D01*
X948561Y1213852D01*
X948424Y1213763D01*
X948286Y1213678D01*
X948145Y1213596D01*
X948003Y1213517D01*
X947859Y1213442D01*
X947713Y1213371D01*
X947565Y1213303D01*
X947415Y1213239D01*
X947264Y1213179D01*
X947112Y1213122D01*
X946958Y1213069D01*
X946803Y1213020D01*
X946647Y1212975D01*
X946490Y1212934D01*
X946332Y1212896D01*
X946172Y1212862D01*
X946013Y1212833D01*
X945852Y1212807D01*
X945691Y1212785D01*
X945529Y1212767D01*
X945367Y1212753D01*
X945205Y1212743D01*
X945043Y1212737D01*
X944880Y1212735D01*
X944717Y1212737D01*
X944555Y1212743D01*
X944393Y1212753D01*
X944231Y1212767D01*
X944069Y1212785D01*
X943908Y1212807D01*
X943747Y1212833D01*
X943588Y1212862D01*
X943428Y1212896D01*
X943270Y1212934D01*
X943113Y1212975D01*
X942957Y1213020D01*
X942802Y1213069D01*
X942648Y1213122D01*
X942496Y1213179D01*
X942345Y1213239D01*
X942195Y1213303D01*
X942047Y1213371D01*
X941901Y1213442D01*
X941757Y1213517D01*
X941615Y1213596D01*
X941474Y1213678D01*
X941336Y1213763D01*
X941199Y1213852D01*
X941065Y1213944D01*
X940933Y1214039D01*
X940804Y1214137D01*
X940677Y1214239D01*
X940553Y1214343D01*
X940431Y1214451D01*
X940312Y1214562D01*
X940195Y1214675D01*
X940082Y1214792D01*
X939971Y1214911D01*
X939863Y1215033D01*
X939759Y1215157D01*
X939657Y1215284D01*
X939559Y1215413D01*
X939464Y1215545D01*
X939372Y1215679D01*
X939283Y1215816D01*
X939198Y1215954D01*
X939116Y1216095D01*
X939037Y1216237D01*
X938962Y1216381D01*
X938891Y1216527D01*
X938823Y1216675D01*
X938759Y1216825D01*
X938699Y1216976D01*
X938642Y1217128D01*
X938589Y1217282D01*
X938540Y1217437D01*
X938495Y1217593D01*
X938454Y1217750D01*
X938416Y1217908D01*
X938382Y1218068D01*
X938353Y1218227D01*
X938327Y1218388D01*
X938305Y1218549D01*
X938287Y1218711D01*
X938273Y1218873D01*
X938263Y1219035D01*
X938257Y1219197D01*
X938255Y1219360D01*
D23*
X944880Y1212860D03*
D24*
X938380Y1219360D03*
X951380Y1219360D03*
D23*
X944880Y1225860D03*
D13*
X1008380Y1208160D03*
X1008380Y1225160D03*
D25*
X1173480Y1546860D03*
X640080Y1546860D03*
X1173480Y1076960D03*
X640080Y1076960D03*
D26*
X900780Y1527620D03*
X895780Y1527620D03*
X890780Y1527620D03*
X885780Y1527620D03*
X880780Y1527620D03*
X875780Y1527620D03*
X870780Y1527620D03*
X865780Y1527620D03*
X860780Y1527620D03*
X855780Y1527620D03*
X850780Y1527620D03*
X845780Y1527620D03*
X840780Y1527620D03*
X835780Y1527620D03*
X830780Y1527620D03*
X825780Y1527620D03*
X820780Y1527620D03*
X815780Y1527620D03*
X810780Y1527620D03*
X805780Y1527620D03*
X800780Y1527620D03*
X795780Y1527620D03*
X790780Y1527620D03*
X785780Y1527620D03*
D27*
X910780Y1541620D03*
X775780Y1541620D03*
D13*
X944880Y1479160D03*
X944880Y1462160D03*
D28*
X760180Y1336960D03*
D29*
X740480Y1386840D03*
X717480Y1386840D03*
D16*
X720480Y1369060D03*
X737480Y1369060D03*
D30*
X1187370Y1122620D03*
X1187370Y1178620D03*
D31*
X1150620Y1135620D03*
X1150620Y1145620D03*
X1150620Y1155620D03*
X1150620Y1165620D03*
D32*
X1109980Y1142746D03*
X1109980Y1153160D03*
X1109980Y1163574D03*
D16*
X1118480Y1127760D03*
X1101480Y1127760D03*
X1118480Y1178560D03*
X1101480Y1178560D03*
D33*
X883920Y1083310D03*
X828040Y1083310D03*
X883920Y1121410D03*
X828040Y1121410D03*
D16*
X707780Y1206500D03*
X724780Y1206500D03*
D34*
X648716Y1254760D03*
X656844Y1254760D03*
D35*
X637780Y1229360D03*
X667780Y1229360D03*
D36*
X717580Y1229360D03*
X689580Y1229360D03*
D13*
X767080Y1195460D03*
X767080Y1212460D03*
X751840Y1212460D03*
X751840Y1195460D03*
D34*
X716280Y1115060D03*
X726440Y1115060D03*
D37*
X708660Y1115060D03*
X734060Y1115060D03*
D38*
X773430Y1242060D03*
X773430Y1254760D03*
X773430Y1267460D03*
X773430Y1280160D03*
X773430Y1229360D03*
X760730Y1242060D03*
X760730Y1254760D03*
X760730Y1267460D03*
X760730Y1280160D03*
X760730Y1229360D03*
D33*
X985520Y1083310D03*
X929640Y1083310D03*
X985520Y1121410D03*
X929640Y1121410D03*
D39*
X991980Y1234780D03*
D38*
X982980Y1222260D03*
D39*
X991980Y1243000D03*
X973980Y1243000D03*
X973980Y1234780D03*
X982980Y1243000D03*
D40*
X976020Y1222260D02*
X976022Y1222431D01*
X976028Y1222602D01*
X976039Y1222772D01*
X976054Y1222942D01*
X976072Y1223112D01*
X976095Y1223281D01*
X976122Y1223450D01*
X976154Y1223618D01*
X976189Y1223785D01*
X976229Y1223951D01*
X976272Y1224116D01*
X976320Y1224280D01*
X976371Y1224443D01*
X976427Y1224605D01*
X976486Y1224765D01*
X976550Y1224923D01*
X976617Y1225080D01*
X976688Y1225236D01*
X976763Y1225389D01*
X976842Y1225541D01*
X976924Y1225691D01*
X977010Y1225838D01*
X977100Y1225984D01*
X977193Y1226127D01*
X977290Y1226268D01*
X977390Y1226406D01*
X977493Y1226542D01*
X977600Y1226675D01*
X977710Y1226806D01*
X977823Y1226934D01*
X977939Y1227059D01*
X978059Y1227181D01*
X978181Y1227301D01*
X978306Y1227417D01*
X978434Y1227530D01*
X978565Y1227640D01*
X978698Y1227747D01*
X978834Y1227850D01*
X978972Y1227950D01*
X979113Y1228047D01*
X979256Y1228140D01*
X979402Y1228230D01*
X979549Y1228316D01*
X979699Y1228398D01*
X979851Y1228477D01*
X980004Y1228552D01*
X980160Y1228623D01*
X980317Y1228690D01*
X980475Y1228754D01*
X980635Y1228813D01*
X980797Y1228869D01*
X980960Y1228920D01*
X981124Y1228968D01*
X981289Y1229011D01*
X981455Y1229051D01*
X981622Y1229086D01*
X981790Y1229118D01*
X981959Y1229145D01*
X982128Y1229168D01*
X982298Y1229186D01*
X982468Y1229201D01*
X982638Y1229212D01*
X982809Y1229218D01*
X982980Y1229220D01*
X983151Y1229218D01*
X983322Y1229212D01*
X983492Y1229201D01*
X983662Y1229186D01*
X983832Y1229168D01*
X984001Y1229145D01*
X984170Y1229118D01*
X984338Y1229086D01*
X984505Y1229051D01*
X984671Y1229011D01*
X984836Y1228968D01*
X985000Y1228920D01*
X985163Y1228869D01*
X985325Y1228813D01*
X985485Y1228754D01*
X985643Y1228690D01*
X985800Y1228623D01*
X985956Y1228552D01*
X986109Y1228477D01*
X986261Y1228398D01*
X986411Y1228316D01*
X986558Y1228230D01*
X986704Y1228140D01*
X986847Y1228047D01*
X986988Y1227950D01*
X987126Y1227850D01*
X987262Y1227747D01*
X987395Y1227640D01*
X987526Y1227530D01*
X987654Y1227417D01*
X987779Y1227301D01*
X987901Y1227181D01*
X988021Y1227059D01*
X988137Y1226934D01*
X988250Y1226806D01*
X988360Y1226675D01*
X988467Y1226542D01*
X988570Y1226406D01*
X988670Y1226268D01*
X988767Y1226127D01*
X988860Y1225984D01*
X988950Y1225838D01*
X989036Y1225691D01*
X989118Y1225541D01*
X989197Y1225389D01*
X989272Y1225236D01*
X989343Y1225080D01*
X989410Y1224923D01*
X989474Y1224765D01*
X989533Y1224605D01*
X989589Y1224443D01*
X989640Y1224280D01*
X989688Y1224116D01*
X989731Y1223951D01*
X989771Y1223785D01*
X989806Y1223618D01*
X989838Y1223450D01*
X989865Y1223281D01*
X989888Y1223112D01*
X989906Y1222942D01*
X989921Y1222772D01*
X989932Y1222602D01*
X989938Y1222431D01*
X989940Y1222260D01*
X989938Y1222089D01*
X989932Y1221918D01*
X989921Y1221748D01*
X989906Y1221578D01*
X989888Y1221408D01*
X989865Y1221239D01*
X989838Y1221070D01*
X989806Y1220902D01*
X989771Y1220735D01*
X989731Y1220569D01*
X989688Y1220404D01*
X989640Y1220240D01*
X989589Y1220077D01*
X989533Y1219915D01*
X989474Y1219755D01*
X989410Y1219597D01*
X989343Y1219440D01*
X989272Y1219284D01*
X989197Y1219131D01*
X989118Y1218979D01*
X989036Y1218829D01*
X988950Y1218682D01*
X988860Y1218536D01*
X988767Y1218393D01*
X988670Y1218252D01*
X988570Y1218114D01*
X988467Y1217978D01*
X988360Y1217845D01*
X988250Y1217714D01*
X988137Y1217586D01*
X988021Y1217461D01*
X987901Y1217339D01*
X987779Y1217219D01*
X987654Y1217103D01*
X987526Y1216990D01*
X987395Y1216880D01*
X987262Y1216773D01*
X987126Y1216670D01*
X986988Y1216570D01*
X986847Y1216473D01*
X986704Y1216380D01*
X986558Y1216290D01*
X986411Y1216204D01*
X986261Y1216122D01*
X986109Y1216043D01*
X985956Y1215968D01*
X985800Y1215897D01*
X985643Y1215830D01*
X985485Y1215766D01*
X985325Y1215707D01*
X985163Y1215651D01*
X985000Y1215600D01*
X984836Y1215552D01*
X984671Y1215509D01*
X984505Y1215469D01*
X984338Y1215434D01*
X984170Y1215402D01*
X984001Y1215375D01*
X983832Y1215352D01*
X983662Y1215334D01*
X983492Y1215319D01*
X983322Y1215308D01*
X983151Y1215302D01*
X982980Y1215300D01*
X982809Y1215302D01*
X982638Y1215308D01*
X982468Y1215319D01*
X982298Y1215334D01*
X982128Y1215352D01*
X981959Y1215375D01*
X981790Y1215402D01*
X981622Y1215434D01*
X981455Y1215469D01*
X981289Y1215509D01*
X981124Y1215552D01*
X980960Y1215600D01*
X980797Y1215651D01*
X980635Y1215707D01*
X980475Y1215766D01*
X980317Y1215830D01*
X980160Y1215897D01*
X980004Y1215968D01*
X979851Y1216043D01*
X979699Y1216122D01*
X979549Y1216204D01*
X979402Y1216290D01*
X979256Y1216380D01*
X979113Y1216473D01*
X978972Y1216570D01*
X978834Y1216670D01*
X978698Y1216773D01*
X978565Y1216880D01*
X978434Y1216990D01*
X978306Y1217103D01*
X978181Y1217219D01*
X978059Y1217339D01*
X977939Y1217461D01*
X977823Y1217586D01*
X977710Y1217714D01*
X977600Y1217845D01*
X977493Y1217978D01*
X977390Y1218114D01*
X977290Y1218252D01*
X977193Y1218393D01*
X977100Y1218536D01*
X977010Y1218682D01*
X976924Y1218829D01*
X976842Y1218979D01*
X976763Y1219131D01*
X976688Y1219284D01*
X976617Y1219440D01*
X976550Y1219597D01*
X976486Y1219755D01*
X976427Y1219915D01*
X976371Y1220077D01*
X976320Y1220240D01*
X976272Y1220404D01*
X976229Y1220569D01*
X976189Y1220735D01*
X976154Y1220902D01*
X976122Y1221070D01*
X976095Y1221239D01*
X976072Y1221408D01*
X976054Y1221578D01*
X976039Y1221748D01*
X976028Y1221918D01*
X976022Y1222089D01*
X976020Y1222260D01*
D34*
X987044Y1261110D03*
X978916Y1261110D03*
D41*
X950087Y1261110D03*
X939673Y1261110D03*
D37*
X627380Y1470660D03*
X627380Y1445260D03*
X627380Y1419860D03*
X627380Y1394460D03*
X627380Y1369060D03*
X1160780Y1318260D03*
X1160780Y1343660D03*
X1160780Y1369060D03*
X1160780Y1394460D03*
X1160780Y1419860D03*
X1160780Y1445260D03*
X1186180Y1318260D03*
X1186180Y1343660D03*
X1186180Y1369060D03*
X1186180Y1394460D03*
X1186180Y1419860D03*
X1186180Y1445260D03*
D42*
X1019780Y1398460D03*
X1076780Y1398460D03*
D43*
X1092780Y1529960D03*
X961280Y1539960D03*
D44*
X1007880Y1501460D03*
X1018880Y1497460D03*
X1029880Y1501460D03*
X1040880Y1503460D03*
X1051880Y1501460D03*
X1062880Y1503460D03*
X1073880Y1501460D03*
X1084880Y1501460D03*
D37*
X627380Y1343660D03*
X627380Y1318260D03*
X627380Y1292860D03*
D45*
X706780Y1521159D03*
X716280Y1521159D03*
X725780Y1521159D03*
X725780Y1547161D03*
X706780Y1547161D03*
D13*
X741680Y1525660D03*
X741680Y1542660D03*
X690880Y1542660D03*
X690880Y1525660D03*
D37*
X1186180Y1292860D03*
X1186180Y1267460D03*
X1186180Y1242060D03*
X1186180Y1216660D03*
D46*
X1056680Y1214560D03*
D13*
X741680Y1161660D03*
X741680Y1144660D03*
D47*
X760730Y1164660D03*
X760730Y1141660D03*
D16*
X1093080Y1089660D03*
X1076080Y1089660D03*
D48*
X1079300Y1080450D02*
X1079300Y1073470D01*
X1072320Y1073470D01*
X1072320Y1080450D01*
X1079300Y1080450D01*
X1079300Y1078270D02*
X1072320Y1078270D01*
X1096840Y1080450D02*
X1096840Y1073470D01*
X1089860Y1073470D01*
X1089860Y1080450D01*
X1096840Y1080450D01*
X1096840Y1078270D02*
X1089860Y1078270D01*
D13*
X754380Y1110370D03*
X754380Y1127370D03*
X769620Y1110370D03*
X769620Y1127370D03*
X784860Y1110370D03*
X784860Y1127370D03*
D49*
X855980Y1154760D03*
D50*
X855980Y1354760D03*
D51*
X803230Y1162260D03*
D52*
X810980Y1151260D03*
X810980Y1358260D03*
D51*
X878730Y1164760D03*
X803230Y1167260D03*
X878730Y1169760D03*
X803230Y1172260D03*
X878730Y1174760D03*
X803230Y1177260D03*
X878730Y1179760D03*
X803230Y1182260D03*
X878730Y1184760D03*
X803230Y1187260D03*
X878730Y1189760D03*
X803230Y1192260D03*
X878730Y1194760D03*
X803230Y1197260D03*
X878730Y1199760D03*
X803230Y1202260D03*
X878730Y1204760D03*
X803230Y1207260D03*
X878730Y1209760D03*
X803230Y1212260D03*
X878730Y1214760D03*
X803230Y1217260D03*
X878730Y1239760D03*
X803230Y1242260D03*
X878730Y1244760D03*
X803230Y1247260D03*
X878730Y1249760D03*
X803230Y1252260D03*
X878730Y1254760D03*
X803230Y1257260D03*
X878730Y1259760D03*
X803230Y1262260D03*
X878730Y1264760D03*
X803230Y1267260D03*
X878730Y1269760D03*
X803230Y1272260D03*
X878730Y1274760D03*
X803230Y1277260D03*
X878730Y1279760D03*
X803230Y1282260D03*
X878730Y1284760D03*
X803230Y1287260D03*
X878730Y1289760D03*
X803230Y1292260D03*
X878730Y1294760D03*
X803230Y1297260D03*
X878730Y1299760D03*
X803230Y1302260D03*
X878730Y1304760D03*
X803230Y1307260D03*
X878730Y1309760D03*
X803230Y1312260D03*
X878730Y1314760D03*
X803230Y1317260D03*
X878730Y1319760D03*
X803230Y1322260D03*
X878730Y1324760D03*
X803230Y1327260D03*
X878730Y1329760D03*
X803230Y1332260D03*
X878730Y1334760D03*
X803230Y1337260D03*
X878730Y1339760D03*
X803230Y1342260D03*
X878730Y1344760D03*
X803230Y1347260D03*
D53*
X738480Y1423510D03*
X719480Y1423510D03*
X728980Y1402510D03*
D37*
X792480Y1089660D03*
D16*
X1131180Y1089660D03*
X1114180Y1089660D03*
D48*
X1117400Y1080450D02*
X1117400Y1073470D01*
X1110420Y1073470D01*
X1110420Y1080450D01*
X1117400Y1080450D01*
X1117400Y1078270D02*
X1110420Y1078270D01*
X1134940Y1080450D02*
X1134940Y1073470D01*
X1127960Y1073470D01*
X1127960Y1080450D01*
X1134940Y1080450D01*
X1134940Y1078270D02*
X1127960Y1078270D01*
D38*
X93980Y1593215D03*
X1180465Y1593215D03*
D54*
X84925Y-20955D02*
X84928Y-20733D01*
X84936Y-20511D01*
X84950Y-20289D01*
X84969Y-20067D01*
X84993Y-19847D01*
X85023Y-19626D01*
X85058Y-19407D01*
X85099Y-19188D01*
X85145Y-18971D01*
X85196Y-18755D01*
X85253Y-18540D01*
X85315Y-18326D01*
X85382Y-18115D01*
X85454Y-17904D01*
X85532Y-17696D01*
X85614Y-17490D01*
X85702Y-17286D01*
X85794Y-17083D01*
X85892Y-16884D01*
X85994Y-16687D01*
X86101Y-16492D01*
X86213Y-16300D01*
X86330Y-16111D01*
X86451Y-15924D01*
X86577Y-15741D01*
X86707Y-15561D01*
X86842Y-15384D01*
X86980Y-15211D01*
X87123Y-15041D01*
X87271Y-14874D01*
X87422Y-14711D01*
X87577Y-14552D01*
X87736Y-14397D01*
X87899Y-14246D01*
X88066Y-14098D01*
X88236Y-13955D01*
X88409Y-13817D01*
X88586Y-13682D01*
X88766Y-13552D01*
X88949Y-13426D01*
X89136Y-13305D01*
X89325Y-13188D01*
X89517Y-13076D01*
X89712Y-12969D01*
X89909Y-12867D01*
X90108Y-12769D01*
X90311Y-12677D01*
X90515Y-12589D01*
X90721Y-12507D01*
X90929Y-12429D01*
X91140Y-12357D01*
X91351Y-12290D01*
X91565Y-12228D01*
X91780Y-12171D01*
X91996Y-12120D01*
X92213Y-12074D01*
X92432Y-12033D01*
X92651Y-11998D01*
X92872Y-11968D01*
X93092Y-11944D01*
X93314Y-11925D01*
X93536Y-11911D01*
X93758Y-11903D01*
X93980Y-11900D01*
X94202Y-11903D01*
X94424Y-11911D01*
X94646Y-11925D01*
X94868Y-11944D01*
X95088Y-11968D01*
X95309Y-11998D01*
X95528Y-12033D01*
X95747Y-12074D01*
X95964Y-12120D01*
X96180Y-12171D01*
X96395Y-12228D01*
X96609Y-12290D01*
X96820Y-12357D01*
X97031Y-12429D01*
X97239Y-12507D01*
X97445Y-12589D01*
X97649Y-12677D01*
X97852Y-12769D01*
X98051Y-12867D01*
X98248Y-12969D01*
X98443Y-13076D01*
X98635Y-13188D01*
X98824Y-13305D01*
X99011Y-13426D01*
X99194Y-13552D01*
X99374Y-13682D01*
X99551Y-13817D01*
X99724Y-13955D01*
X99894Y-14098D01*
X100061Y-14246D01*
X100224Y-14397D01*
X100383Y-14552D01*
X100538Y-14711D01*
X100689Y-14874D01*
X100837Y-15041D01*
X100980Y-15211D01*
X101118Y-15384D01*
X101253Y-15561D01*
X101383Y-15741D01*
X101509Y-15924D01*
X101630Y-16111D01*
X101747Y-16300D01*
X101859Y-16492D01*
X101966Y-16687D01*
X102068Y-16884D01*
X102166Y-17083D01*
X102258Y-17286D01*
X102346Y-17490D01*
X102428Y-17696D01*
X102506Y-17904D01*
X102578Y-18115D01*
X102645Y-18326D01*
X102707Y-18540D01*
X102764Y-18755D01*
X102815Y-18971D01*
X102861Y-19188D01*
X102902Y-19407D01*
X102937Y-19626D01*
X102967Y-19847D01*
X102991Y-20067D01*
X103010Y-20289D01*
X103024Y-20511D01*
X103032Y-20733D01*
X103035Y-20955D01*
X103032Y-21177D01*
X103024Y-21399D01*
X103010Y-21621D01*
X102991Y-21843D01*
X102967Y-22063D01*
X102937Y-22284D01*
X102902Y-22503D01*
X102861Y-22722D01*
X102815Y-22939D01*
X102764Y-23155D01*
X102707Y-23370D01*
X102645Y-23584D01*
X102578Y-23795D01*
X102506Y-24006D01*
X102428Y-24214D01*
X102346Y-24420D01*
X102258Y-24624D01*
X102166Y-24827D01*
X102068Y-25026D01*
X101966Y-25223D01*
X101859Y-25418D01*
X101747Y-25610D01*
X101630Y-25799D01*
X101509Y-25986D01*
X101383Y-26169D01*
X101253Y-26349D01*
X101118Y-26526D01*
X100980Y-26699D01*
X100837Y-26869D01*
X100689Y-27036D01*
X100538Y-27199D01*
X100383Y-27358D01*
X100224Y-27513D01*
X100061Y-27664D01*
X99894Y-27812D01*
X99724Y-27955D01*
X99551Y-28093D01*
X99374Y-28228D01*
X99194Y-28358D01*
X99011Y-28484D01*
X98824Y-28605D01*
X98635Y-28722D01*
X98443Y-28834D01*
X98248Y-28941D01*
X98051Y-29043D01*
X97852Y-29141D01*
X97649Y-29233D01*
X97445Y-29321D01*
X97239Y-29403D01*
X97031Y-29481D01*
X96820Y-29553D01*
X96609Y-29620D01*
X96395Y-29682D01*
X96180Y-29739D01*
X95964Y-29790D01*
X95747Y-29836D01*
X95528Y-29877D01*
X95309Y-29912D01*
X95088Y-29942D01*
X94868Y-29966D01*
X94646Y-29985D01*
X94424Y-29999D01*
X94202Y-30007D01*
X93980Y-30010D01*
X93758Y-30007D01*
X93536Y-29999D01*
X93314Y-29985D01*
X93092Y-29966D01*
X92872Y-29942D01*
X92651Y-29912D01*
X92432Y-29877D01*
X92213Y-29836D01*
X91996Y-29790D01*
X91780Y-29739D01*
X91565Y-29682D01*
X91351Y-29620D01*
X91140Y-29553D01*
X90929Y-29481D01*
X90721Y-29403D01*
X90515Y-29321D01*
X90311Y-29233D01*
X90108Y-29141D01*
X89909Y-29043D01*
X89712Y-28941D01*
X89517Y-28834D01*
X89325Y-28722D01*
X89136Y-28605D01*
X88949Y-28484D01*
X88766Y-28358D01*
X88586Y-28228D01*
X88409Y-28093D01*
X88236Y-27955D01*
X88066Y-27812D01*
X87899Y-27664D01*
X87736Y-27513D01*
X87577Y-27358D01*
X87422Y-27199D01*
X87271Y-27036D01*
X87123Y-26869D01*
X86980Y-26699D01*
X86842Y-26526D01*
X86707Y-26349D01*
X86577Y-26169D01*
X86451Y-25986D01*
X86330Y-25799D01*
X86213Y-25610D01*
X86101Y-25418D01*
X85994Y-25223D01*
X85892Y-25026D01*
X85794Y-24827D01*
X85702Y-24624D01*
X85614Y-24420D01*
X85532Y-24214D01*
X85454Y-24006D01*
X85382Y-23795D01*
X85315Y-23584D01*
X85253Y-23370D01*
X85196Y-23155D01*
X85145Y-22939D01*
X85099Y-22722D01*
X85058Y-22503D01*
X85023Y-22284D01*
X84993Y-22063D01*
X84969Y-21843D01*
X84950Y-21621D01*
X84936Y-21399D01*
X84928Y-21177D01*
X84925Y-20955D01*
D55*
X93980Y-20955D03*
M02*
